<svg width="1958" height="617" viewBox="0 0 1958 617" fill="none" xmlns="http://www.w3.org/2000/svg">
<path d="M972.443 121.046C1165.81 120.339 1341.44 139.564 1469.08 171.204C1532.9 187.026 1584.68 205.941 1620.67 226.99C1656.7 248.07 1676.64 271.133 1677.37 295.169C1678.1 319.205 1659.56 342.409 1624.81 363.748C1590.11 385.056 1539.49 404.344 1476.63 420.629C1350.94 453.195 1176.51 473.701 983.144 474.408C789.778 475.115 614.145 455.889 486.507 424.249C422.682 408.427 370.906 389.513 334.921 368.464C298.883 347.384 278.944 324.321 278.216 300.284C277.488 276.248 296.026 253.045 330.78 231.706C365.481 210.398 416.101 191.109 478.953 174.824C604.647 142.258 779.077 121.753 972.443 121.046Z" fill="url(#paint0_radial_12_224)" stroke="#00BFFF" stroke-width="1.67924"/>
<path d="M976.864 122.436C1168.58 128.515 1342.94 154.059 1469.85 190.437C1533.3 208.626 1584.87 229.518 1620.81 252.024C1656.78 274.546 1676.97 298.602 1677.95 323.093C1678.93 347.584 1660.61 370.419 1626.35 390.714C1592.12 410.995 1542.1 428.665 1479.93 442.872C1355.62 471.284 1182.86 485.822 991.144 479.743C799.425 473.664 625.07 448.12 498.163 411.742C434.707 393.553 383.137 372.661 347.196 350.155C311.229 327.634 291.038 303.578 290.059 279.086C289.08 254.595 307.398 231.76 341.653 211.465C375.884 191.184 425.913 173.514 488.075 159.307C612.392 130.895 785.146 116.357 976.864 122.436Z" stroke="#00BFFF" stroke-width="0.839622"/>
<path d="M1659.44 382.88L1676.98 383.637L1659.44 384.395C1646.88 384.937 1636.81 394.476 1636.21 406.411L1633.66 456.938L1631.11 406.411C1630.51 394.476 1620.45 384.937 1607.88 384.395L1590.35 383.637L1607.88 382.88C1620.45 382.338 1630.51 372.799 1631.11 360.864L1633.66 310.336L1636.21 360.864C1636.81 372.799 1646.88 382.338 1659.44 382.88Z" fill="#00BFFF"/>
<path d="M352.821 236.278L370.357 237.035L352.821 237.793C340.257 238.335 330.193 247.874 329.591 259.809L327.044 310.336L324.496 259.809C323.894 247.874 313.83 238.335 301.266 237.793L283.73 237.035L301.266 236.278C313.83 235.736 323.894 226.197 324.496 214.262L327.044 163.734L329.591 214.262C330.193 226.197 340.257 235.736 352.821 236.278Z" fill="#00BFFF"/>
<path d="M874.777 121.563C874.777 125.718 871.747 129.085 868.009 129.085C864.271 129.085 861.241 125.718 861.241 121.563C861.241 117.409 864.271 114.041 868.009 114.041C871.747 114.041 874.777 117.409 874.777 121.563Z" fill="#00BFFF"/>
<ellipse cx="922.602" cy="471.088" rx="6.31653" ry="7.02058" fill="#00BFFF"/>
<ellipse cx="1269.56" cy="139.616" rx="9.47479" ry="10.5309" fill="#00BFFF"/>
<path d="M491.155 253.198H506.201V259.27H491.155V253.198ZM487.662 219.774H509.64V262.441H503.246V225.9H493.735V263.3H487.662V219.774ZM461.547 224.933H480.838V231.059H461.547V224.933ZM469.607 214.186L475.841 214.884C475.267 217.75 474.64 220.777 473.96 223.966C473.279 227.118 472.563 230.289 471.81 233.477C471.094 236.63 470.359 239.657 469.607 242.558C468.891 245.46 468.192 248.129 467.511 250.565L462.084 247.932C462.693 245.818 463.338 243.382 464.019 240.624C464.735 237.865 465.434 234.964 466.114 231.919C466.795 228.874 467.44 225.847 468.049 222.837C468.658 219.792 469.177 216.908 469.607 214.186ZM464.341 246.159L467.673 241.43C469.321 242.361 471.022 243.4 472.778 244.547C474.569 245.657 476.306 246.839 477.99 248.093C479.71 249.347 481.268 250.583 482.665 251.801C484.098 253.019 485.28 254.183 486.212 255.294L482.504 260.775C481.608 259.664 480.462 258.482 479.065 257.228C477.703 255.939 476.181 254.631 474.497 253.306C472.849 251.98 471.148 250.708 469.392 249.49C467.637 248.272 465.953 247.162 464.341 246.159ZM478.903 224.933H480.032L481.107 224.772L485.083 225.47C484.617 232.707 483.614 238.886 482.074 244.009C480.569 249.096 478.456 253.323 475.733 256.691C473.046 260.023 469.679 262.709 465.631 264.751C465.237 263.927 464.663 262.996 463.911 261.957C463.195 260.918 462.496 260.076 461.815 259.431C465.29 257.927 468.228 255.688 470.628 252.714C473.028 249.741 474.909 246.051 476.27 241.645C477.632 237.203 478.509 232.026 478.903 226.115V224.933ZM534.735 218.915H568.051V225.04H534.735V218.915ZM558.325 221.118H564.773V257.121C564.773 258.948 564.54 260.363 564.075 261.366C563.645 262.369 562.857 263.121 561.71 263.623C560.528 264.089 559.024 264.393 557.197 264.536C555.37 264.715 553.202 264.787 550.695 264.751C550.587 263.856 550.318 262.763 549.888 261.473C549.459 260.22 549.011 259.127 548.545 258.195C549.727 258.231 550.874 258.267 551.984 258.303C553.131 258.339 554.134 258.357 554.993 258.357C555.889 258.357 556.516 258.357 556.874 258.357C557.412 258.357 557.788 258.267 558.003 258.088C558.218 257.873 558.325 257.533 558.325 257.067V221.118ZM535.38 230.898H541.452V253.95H535.38V230.898ZM538.013 230.898H553.381V250.458H538.013V244.869H547.417V236.432H538.013V230.898ZM529.2 214.186L535.272 216.12C534.126 219.094 532.783 222.103 531.242 225.148C529.702 228.193 528.018 231.059 526.191 233.746C524.4 236.432 522.537 238.797 520.602 240.839C520.388 240.301 520.083 239.621 519.689 238.797C519.295 237.937 518.865 237.077 518.399 236.218C517.934 235.322 517.522 234.623 517.163 234.122C518.775 232.51 520.316 230.647 521.785 228.533C523.289 226.384 524.686 224.091 525.976 221.655C527.266 219.183 528.34 216.694 529.2 214.186ZM524.364 229.286L530.759 222.837L530.812 222.891V264.59H524.364V229.286ZM597.821 231.22H624.474V237.561H597.821V231.22ZM607.869 214.723H614.479V264.698H607.869V214.723ZM578.583 228.211H595.618V233.584H578.583V228.211ZM575.52 237.4H598.197V242.935H575.52V237.4ZM576.112 245.997L580.572 244.815C581.073 246.284 581.521 247.878 581.915 249.598C582.345 251.281 582.632 252.768 582.775 254.058L578.1 255.401C577.957 254.076 577.688 252.553 577.294 250.834C576.936 249.078 576.541 247.466 576.112 245.997ZM574.5 257.819C576.541 257.569 578.87 257.282 581.485 256.96C584.1 256.601 586.841 256.207 589.707 255.777C592.608 255.347 595.474 254.936 598.304 254.541L598.573 260.291C595.958 260.685 593.289 261.097 590.567 261.527C587.88 261.957 585.282 262.351 582.775 262.709C580.303 263.103 578.01 263.462 575.897 263.784L574.5 257.819ZM592.877 244.278L598.09 245.568C597.552 247.144 597.015 248.738 596.477 250.35C595.976 251.926 595.492 253.27 595.027 254.38L590.62 253.198C590.907 252.374 591.193 251.443 591.48 250.404C591.767 249.329 592.035 248.254 592.286 247.18C592.537 246.105 592.734 245.138 592.877 244.278ZM583.903 230.199H589.922V257.927L583.903 259.002V230.199ZM583.688 214.24H587.289V215.529H589.223V217.303C588.435 218.771 587.468 220.383 586.321 222.139C585.175 223.894 583.85 225.685 582.345 227.512C580.84 229.304 579.085 231.059 577.079 232.778C576.792 232.313 576.416 231.793 575.95 231.22C575.485 230.647 574.983 230.092 574.446 229.554C573.944 229.017 573.461 228.605 572.995 228.318C574.714 226.921 576.255 225.435 577.616 223.858C579.013 222.282 580.213 220.67 581.216 219.022C582.255 217.338 583.079 215.744 583.688 214.24ZM584.709 214.24H589.384C590.638 215.243 591.946 216.353 593.307 217.571C594.668 218.789 595.958 220.025 597.176 221.279C598.394 222.497 599.379 223.625 600.131 224.664L595.779 229.716C595.098 228.712 594.203 227.548 593.092 226.223C592.017 224.897 590.835 223.59 589.546 222.3C588.256 221.01 587.02 219.918 585.838 219.022H584.709V214.24ZM658.112 227.888H680.843V233.907H658.112V227.888ZM630.546 225.417H658.489V230.736H630.546V225.417ZM632.534 237.722H656.393V242.935H632.534V237.722ZM633.501 246.481H655.694V251.693H633.501V246.481ZM669.451 214.616H675.684V257.551C675.684 259.199 675.487 260.47 675.093 261.366C674.699 262.297 674.018 263.032 673.051 263.569C672.048 264.035 670.794 264.357 669.29 264.536C667.821 264.715 666.012 264.805 663.862 264.805C663.755 263.945 663.468 262.906 663.002 261.688C662.573 260.506 662.125 259.503 661.659 258.679C663.092 258.715 664.417 258.733 665.635 258.733C666.889 258.733 667.749 258.733 668.215 258.733C668.681 258.733 669.003 258.643 669.182 258.464C669.361 258.285 669.451 257.981 669.451 257.551V214.616ZM659.133 238.689L664.453 236.916C665.134 238.17 665.761 239.513 666.334 240.946C666.943 242.379 667.445 243.794 667.839 245.191C668.269 246.553 668.555 247.789 668.698 248.899L663.002 250.887C662.895 249.813 662.644 248.577 662.25 247.18C661.856 245.783 661.39 244.35 660.853 242.881C660.316 241.412 659.742 240.015 659.133 238.689ZM630.546 217.571L635.006 215.637C635.794 216.819 636.529 218.126 637.209 219.559C637.89 220.992 638.338 222.246 638.553 223.321L633.878 225.524C633.663 224.449 633.233 223.178 632.588 221.709C631.979 220.204 631.298 218.825 630.546 217.571ZM634.469 231.811L639.412 230.092C640.021 231.131 640.595 232.259 641.132 233.477C641.705 234.695 642.063 235.77 642.207 236.701L636.941 238.636C636.833 237.74 636.529 236.647 636.027 235.358C635.561 234.068 635.042 232.886 634.469 231.811ZM638.23 214.723H643.281V227.888H638.23V214.723ZM641.616 239.28H647.58V258.787H641.616V239.28ZM645.753 214.723H650.858V227.888H645.753V214.723ZM630.761 256.745C633.054 256.53 635.687 256.279 638.66 255.992C641.669 255.706 644.822 255.401 648.118 255.079C651.413 254.721 654.691 254.362 657.951 254.004L658.059 259.646C654.942 260.005 651.79 260.363 648.601 260.721C645.449 261.115 642.422 261.473 639.52 261.796C636.618 262.118 633.967 262.405 631.567 262.656L630.761 256.745ZM654.297 215.314L659.886 217.303C659.026 218.771 658.166 220.222 657.306 221.655C656.447 223.088 655.659 224.306 654.942 225.309L650.643 223.59C651.037 222.837 651.467 221.978 651.933 221.01C652.399 220.043 652.846 219.058 653.276 218.055C653.706 217.052 654.046 216.138 654.297 215.314ZM649.354 230.038L655.157 231.489C654.584 232.707 654.029 233.907 653.491 235.089C652.954 236.271 652.452 237.292 651.987 238.152L646.935 236.862C647.222 236.253 647.509 235.555 647.795 234.767C648.118 233.943 648.404 233.119 648.655 232.295C648.942 231.471 649.174 230.719 649.354 230.038ZM1226.99 267.331L1225.28 262.978C1227.53 262.262 1229.25 261.276 1230.43 260.023C1231.65 258.804 1232.26 257.407 1232.26 255.831L1231.83 250.565L1234.84 255.347C1234.37 255.742 1233.87 256.046 1233.34 256.261C1232.8 256.476 1232.23 256.583 1231.62 256.583C1230.29 256.583 1229.11 256.171 1228.07 255.347C1227.03 254.488 1226.51 253.288 1226.51 251.747C1226.51 250.243 1227.03 249.06 1228.07 248.201C1229.11 247.341 1230.34 246.911 1231.78 246.911C1233.68 246.911 1235.11 247.574 1236.08 248.899C1237.08 250.225 1237.58 252.016 1237.58 254.273C1237.58 257.318 1236.65 260.005 1234.79 262.333C1232.92 264.662 1230.33 266.328 1226.99 267.331ZM1299.05 215.798H1305.13V222.354C1305.13 224.037 1304.95 225.811 1304.59 227.674C1304.27 229.501 1303.62 231.274 1302.65 232.993C1301.69 234.713 1300.27 236.235 1298.41 237.561C1298.09 237.167 1297.62 236.701 1297.01 236.164C1296.44 235.591 1295.83 235.053 1295.19 234.552C1294.54 234.05 1294 233.674 1293.57 233.423C1295.22 232.313 1296.42 231.131 1297.17 229.877C1297.96 228.623 1298.46 227.333 1298.68 226.008C1298.93 224.682 1299.05 223.428 1299.05 222.246V215.798ZM1311.09 215.798H1317.16V227.888C1317.16 228.605 1317.2 229.053 1317.27 229.232C1317.38 229.411 1317.58 229.501 1317.86 229.501C1317.93 229.501 1318.06 229.501 1318.24 229.501C1318.42 229.501 1318.6 229.501 1318.78 229.501C1318.99 229.501 1319.13 229.501 1319.21 229.501C1319.42 229.501 1319.6 229.393 1319.74 229.178C1319.89 228.927 1319.99 228.426 1320.07 227.674C1320.14 226.885 1320.19 225.703 1320.23 224.127C1320.8 224.629 1321.61 225.094 1322.64 225.524C1323.72 225.918 1324.65 226.223 1325.44 226.438C1325.26 228.659 1324.96 230.396 1324.53 231.65C1324.1 232.904 1323.5 233.782 1322.75 234.283C1322.04 234.749 1321.09 234.982 1319.9 234.982C1319.62 234.982 1319.28 234.982 1318.88 234.982C1318.49 234.982 1318.09 234.982 1317.7 234.982C1317.34 234.982 1317.02 234.982 1316.73 234.982C1315.3 234.982 1314.17 234.767 1313.35 234.337C1312.52 233.907 1311.93 233.19 1311.57 232.187C1311.25 231.148 1311.09 229.733 1311.09 227.942V215.798ZM1304.16 243.203C1305.99 247.036 1308.74 250.35 1312.43 253.144C1316.12 255.903 1320.5 257.891 1325.55 259.109C1325.08 259.539 1324.58 260.076 1324.04 260.721C1323.5 261.402 1323 262.082 1322.54 262.763C1322.07 263.48 1321.68 264.124 1321.35 264.698C1316.02 263.085 1311.43 260.614 1307.6 257.282C1303.8 253.915 1300.76 249.831 1298.46 245.03L1304.16 243.203ZM1316.14 237.453H1317.38L1318.51 237.185L1322.7 238.743C1321.77 242.361 1320.5 245.568 1318.88 248.362C1317.31 251.12 1315.43 253.556 1313.24 255.67C1311.06 257.784 1308.6 259.575 1305.88 261.043C1303.16 262.512 1300.24 263.73 1297.12 264.698C1296.91 264.124 1296.6 263.48 1296.21 262.763C1295.81 262.082 1295.38 261.402 1294.92 260.721C1294.49 260.04 1294.07 259.467 1293.68 259.002C1296.44 258.321 1299.04 257.389 1301.47 256.207C1303.91 254.989 1306.09 253.52 1308.03 251.801C1310 250.081 1311.66 248.093 1313.03 245.836C1314.42 243.579 1315.46 241.107 1316.14 238.421V237.453ZM1296.42 237.453H1318.67V243.203H1296.42V237.453ZM1301.47 215.798H1314.42V221.44H1301.47V215.798ZM1277.18 230.736H1293.84V235.626H1277.18V230.736ZM1277.4 215.959H1293.73V220.795H1277.4V215.959ZM1277.18 238.098H1293.84V242.935H1277.18V238.098ZM1274.6 223.16H1295.72V228.265H1274.6V223.16ZM1280.14 245.514H1293.73V261.903H1280.14V256.798H1288.2V250.619H1280.14V245.514ZM1277.02 245.514H1282.5V263.999H1277.02V245.514ZM1352.9 232.349H1382.02V238.743H1352.9V232.349ZM1364.24 214.508H1370.74V264.751H1364.24V214.508ZM1333.66 230.736H1351.02V235.626H1333.66V230.736ZM1333.98 215.959H1351.07V220.795H1333.98V215.959ZM1333.66 238.098H1351.02V242.935H1333.66V238.098ZM1331.03 223.16H1353.11V228.265H1331.03V223.16ZM1336.62 245.514H1350.86V261.903H1336.62V256.798H1345.16V250.619H1336.62V245.514ZM1333.5 245.514H1339.09V263.999H1333.5V245.514ZM1387.88 235.465H1437.64V242.505H1387.88V235.465ZM1460.48 217.034H1492.77V264.214H1486.65V222.622H1466.39V264.698H1460.48V217.034ZM1467.79 229.178H1485.46V233.853H1467.79V229.178ZM1463.54 255.939H1489.6V261.527H1463.54V255.939ZM1473.91 223.697H1478.91V241H1473.91V223.697ZM1473.8 242.988V248.631H1479.23V242.988H1473.8ZM1469.13 238.528H1484.12V253.037H1469.13V238.528ZM1453.87 214.401L1459.72 216.228C1458.72 219.309 1457.49 222.425 1456.02 225.578C1454.58 228.695 1453.01 231.65 1451.29 234.444C1449.57 237.203 1447.76 239.657 1445.86 241.806C1445.72 241.269 1445.47 240.552 1445.11 239.657C1444.75 238.761 1444.36 237.865 1443.93 236.97C1443.5 236.074 1443.12 235.34 1442.8 234.767C1444.3 233.119 1445.74 231.202 1447.1 229.017C1448.49 226.832 1449.77 224.503 1450.91 222.031C1452.06 219.524 1453.04 216.98 1453.87 214.401ZM1449.46 229.178L1455.53 223.106L1455.59 223.16V264.805H1449.46V229.178ZM405.677 295.025L412.394 296.422C411.749 298.07 411.05 299.735 410.298 301.419C409.582 303.067 408.847 304.643 408.095 306.148C407.379 307.617 406.68 308.924 405.999 310.071L400.357 308.62C401.038 307.402 401.7 306.005 402.345 304.428C403.026 302.852 403.653 301.24 404.226 299.592C404.835 297.944 405.319 296.422 405.677 295.025ZM397.509 306.04C399.444 305.969 401.665 305.897 404.172 305.826C406.68 305.718 409.313 305.593 412.071 305.449C414.83 305.306 417.606 305.181 420.401 305.073L420.347 310.716C417.696 310.895 415.045 311.074 412.394 311.253C409.743 311.432 407.199 311.593 404.763 311.736C402.327 311.88 400.088 312.023 398.046 312.166L397.509 306.04ZM400.733 314.692H417.767V319.958H406.698V345.698H400.733V314.692ZM414.705 314.692H421.099V339.195C421.099 340.593 420.938 341.703 420.615 342.527C420.293 343.387 419.666 344.05 418.735 344.515C417.839 345.017 416.764 345.321 415.511 345.429C414.257 345.536 412.824 345.59 411.212 345.59C411.068 344.73 410.782 343.745 410.352 342.635C409.958 341.56 409.546 340.646 409.116 339.894C410.083 339.93 411.033 339.948 411.964 339.948C412.895 339.948 413.522 339.93 413.845 339.894C414.203 339.894 414.436 339.84 414.543 339.733C414.651 339.625 414.705 339.41 414.705 339.088V314.692ZM403.42 322.806H418.359V327.589H403.42V322.806ZM403.42 330.705H418.359V335.488H403.42V330.705ZM425.344 295.455H431.739V311.629C431.739 312.56 431.882 313.152 432.169 313.402C432.455 313.653 433.1 313.778 434.103 313.778C434.318 313.778 434.694 313.778 435.232 313.778C435.769 313.778 436.342 313.778 436.951 313.778C437.596 313.778 438.187 313.778 438.724 313.778C439.298 313.778 439.727 313.778 440.014 313.778C440.623 313.778 441.071 313.653 441.357 313.402C441.644 313.116 441.859 312.578 442.002 311.79C442.146 310.966 442.253 309.766 442.325 308.19C442.755 308.548 443.31 308.888 443.991 309.211C444.671 309.497 445.37 309.766 446.086 310.017C446.803 310.268 447.448 310.465 448.021 310.608C447.806 312.937 447.43 314.746 446.892 316.035C446.391 317.325 445.638 318.239 444.635 318.776C443.632 319.277 442.289 319.528 440.605 319.528C440.354 319.528 439.978 319.528 439.477 319.528C438.975 319.528 438.402 319.528 437.757 319.528C437.148 319.528 436.539 319.528 435.93 319.528C435.357 319.528 434.82 319.528 434.318 319.528C433.852 319.528 433.494 319.528 433.243 319.528C431.13 319.528 429.5 319.295 428.353 318.83C427.207 318.328 426.419 317.522 425.989 316.412C425.559 315.265 425.344 313.689 425.344 311.683V295.455ZM441.465 298.625L445.549 303.354C443.937 304.106 442.199 304.84 440.337 305.557C438.509 306.238 436.647 306.882 434.748 307.491C432.849 308.1 431.004 308.638 429.213 309.103C429.07 308.494 428.801 307.76 428.407 306.9C428.049 306.04 427.709 305.306 427.386 304.697C429.034 304.16 430.718 303.569 432.437 302.924C434.157 302.243 435.787 301.527 437.327 300.774C438.904 300.022 440.283 299.306 441.465 298.625ZM425.344 320.603H431.739V337.53C431.739 338.497 431.882 339.106 432.169 339.357C432.491 339.607 433.172 339.733 434.211 339.733C434.426 339.733 434.802 339.733 435.339 339.733C435.876 339.733 436.468 339.733 437.112 339.733C437.793 339.733 438.42 339.733 438.993 339.733C439.602 339.733 440.032 339.733 440.283 339.733C440.928 339.733 441.411 339.572 441.734 339.249C442.056 338.927 442.289 338.3 442.432 337.368C442.611 336.437 442.737 335.058 442.808 333.231C443.489 333.732 444.385 334.216 445.495 334.682C446.606 335.112 447.591 335.434 448.451 335.649C448.236 338.157 447.86 340.109 447.322 341.506C446.821 342.939 446.05 343.942 445.012 344.515C444.008 345.089 442.647 345.375 440.928 345.375C440.641 345.375 440.229 345.375 439.692 345.375C439.19 345.375 438.617 345.375 437.972 345.375C437.363 345.375 436.736 345.375 436.091 345.375C435.482 345.375 434.927 345.375 434.426 345.375C433.924 345.375 433.53 345.375 433.243 345.375C431.166 345.375 429.554 345.124 428.407 344.623C427.261 344.157 426.455 343.351 425.989 342.205C425.559 341.094 425.344 339.554 425.344 337.583V320.603ZM441.841 322.806L446.086 327.535C444.474 328.43 442.701 329.272 440.766 330.06C438.832 330.813 436.879 331.529 434.909 332.21C432.939 332.89 431.004 333.499 429.106 334.037C428.962 333.428 428.694 332.676 428.3 331.78C427.941 330.884 427.583 330.132 427.225 329.523C428.98 328.95 430.754 328.287 432.545 327.535C434.336 326.783 436.038 326.012 437.65 325.224C439.262 324.4 440.659 323.594 441.841 322.806ZM412.985 300.882L418.412 298.84C419.308 300.13 420.168 301.527 420.992 303.031C421.851 304.536 422.622 306.023 423.302 307.491C424.019 308.924 424.556 310.232 424.914 311.414L419.003 313.725C418.717 312.578 418.251 311.271 417.606 309.802C416.997 308.333 416.281 306.829 415.457 305.288C414.669 303.712 413.845 302.243 412.985 300.882ZM479.564 297.873H500.951V322H479.564V316.519H494.771V303.461H479.564V297.873ZM480.262 307.115H497.78V312.704H480.262V307.115ZM476.554 297.873H482.68V340.861H476.554V297.873ZM472.309 338.443C474.674 338.121 477.486 337.673 480.746 337.1C484.042 336.527 487.373 335.953 490.741 335.38L491.224 341.076C488.251 341.721 485.26 342.348 482.25 342.957C479.241 343.566 476.501 344.121 474.029 344.623L472.309 338.443ZM499.876 322.914L504.175 327.911C503.028 328.663 501.846 329.451 500.628 330.275C499.446 331.099 498.282 331.887 497.135 332.64C495.989 333.392 494.914 334.037 493.911 334.574L490.794 330.705C491.726 330.06 492.747 329.29 493.857 328.395C494.968 327.499 496.061 326.568 497.135 325.6C498.21 324.633 499.123 323.737 499.876 322.914ZM491.009 318.776C491.654 321.964 492.568 324.973 493.75 327.803C494.968 330.634 496.49 333.123 498.317 335.273C500.144 337.422 502.33 339.106 504.873 340.324C504.408 340.754 503.888 341.273 503.315 341.882C502.742 342.527 502.204 343.19 501.703 343.871C501.237 344.551 500.861 345.196 500.574 345.805C497.744 344.193 495.344 342.115 493.374 339.572C491.439 337.028 489.845 334.073 488.591 330.705C487.337 327.338 486.299 323.684 485.475 319.743L491.009 318.776ZM454.738 306.363H474.136V312.328H454.738V306.363ZM461.831 295.24H467.903V345.698H461.831V295.24ZM461.616 310.501L465.377 311.79C464.983 313.94 464.482 316.161 463.873 318.453C463.264 320.746 462.565 323.003 461.777 325.224C461.025 327.445 460.183 329.523 459.252 331.458C458.356 333.356 457.407 335.004 456.404 336.401C456.081 335.506 455.615 334.485 455.006 333.338C454.397 332.192 453.842 331.225 453.341 330.437C454.272 329.254 455.15 327.875 455.974 326.299C456.833 324.723 457.622 323.057 458.338 321.301C459.09 319.51 459.735 317.701 460.272 315.874C460.81 314.011 461.258 312.22 461.616 310.501ZM467.688 314.961C468.01 315.319 468.512 315.964 469.193 316.895C469.909 317.827 470.661 318.83 471.45 319.904C472.273 320.979 473.008 321.964 473.653 322.86C474.298 323.755 474.745 324.4 474.996 324.794L471.396 329.792C471.038 328.968 470.572 328.001 469.999 326.89C469.461 325.779 468.87 324.669 468.225 323.558C467.581 322.412 466.954 321.337 466.345 320.334C465.736 319.295 465.234 318.436 464.84 317.755L467.688 314.961ZM542.327 298.034H557.696V302.494H542.327V298.034ZM529.538 304.643H555.761V309.211H529.538V304.643ZM533.998 321.14H560.275V325.278H533.998V321.14ZM539.21 295.455H545.336V307.061H539.21V295.455ZM554.74 304.643H555.546L556.406 304.536L560.382 305.288C560.024 306.793 559.612 308.351 559.146 309.963C558.681 311.575 558.197 312.937 557.696 314.047L552.913 313.08C553.271 312.113 553.612 310.895 553.934 309.426C554.292 307.957 554.561 306.614 554.74 305.396V304.643ZM527.442 304.643H532.977V320.71C532.977 322.645 532.905 324.705 532.762 326.89C532.655 329.075 532.404 331.296 532.01 333.553C531.616 335.81 531.043 337.977 530.29 340.055C529.574 342.133 528.624 344.014 527.442 345.698C527.12 345.339 526.654 344.945 526.045 344.515C525.472 344.121 524.881 343.727 524.272 343.333C523.699 342.939 523.179 342.652 522.714 342.473C524.182 340.431 525.239 338.157 525.884 335.649C526.565 333.105 526.994 330.544 527.174 327.965C527.353 325.385 527.442 322.967 527.442 320.71V304.643ZM533.622 312.113L551.516 310.554L551.892 314.047L533.998 315.713L533.622 312.113ZM539.157 308.996H544.477V314.907C544.477 315.552 544.602 315.946 544.853 316.089C545.103 316.232 545.659 316.304 546.518 316.304C546.733 316.304 547.092 316.304 547.593 316.304C548.131 316.304 548.704 316.304 549.313 316.304C549.958 316.304 550.549 316.304 551.086 316.304C551.623 316.304 552.035 316.304 552.322 316.304C552.967 316.304 553.397 316.179 553.612 315.928C553.862 315.641 554.006 315.032 554.042 314.101C554.579 314.387 555.26 314.656 556.083 314.907C556.907 315.158 557.642 315.355 558.287 315.498C558.072 317.218 557.57 318.382 556.782 318.991C556.03 319.564 554.758 319.851 552.967 319.851C552.68 319.851 552.214 319.851 551.57 319.851C550.925 319.851 550.208 319.851 549.42 319.851C548.632 319.851 547.898 319.851 547.217 319.851C546.572 319.851 546.107 319.851 545.82 319.851C544.065 319.851 542.703 319.725 541.736 319.474C540.769 319.188 540.088 318.686 539.694 317.97C539.336 317.218 539.157 316.197 539.157 314.907V308.996ZM539.21 328.61L542.757 326.514C544.835 327.839 546.411 329.362 547.486 331.081C548.56 332.801 549.223 334.538 549.474 336.294C549.761 338.013 549.725 339.572 549.366 340.969C549.008 342.366 548.435 343.423 547.647 344.139C547.002 344.784 546.339 345.214 545.659 345.429C544.978 345.68 544.19 345.823 543.294 345.859C542.864 345.859 542.417 345.859 541.951 345.859C541.485 345.859 541.002 345.841 540.5 345.805C540.464 345.16 540.339 344.408 540.124 343.548C539.945 342.724 539.64 341.99 539.21 341.345C539.855 341.381 540.428 341.417 540.93 341.452C541.431 341.488 541.897 341.506 542.327 341.506C542.721 341.506 543.061 341.452 543.348 341.345C543.67 341.273 543.957 341.058 544.208 340.7C544.566 340.342 544.799 339.715 544.906 338.819C545.014 337.888 544.924 336.849 544.638 335.703C544.351 334.52 543.778 333.302 542.918 332.049C542.058 330.795 540.822 329.648 539.21 328.61ZM542.488 329.684L545.229 331.35C544.405 332.031 543.402 332.747 542.22 333.499C541.037 334.252 539.784 334.968 538.458 335.649C537.133 336.294 535.861 336.849 534.643 337.315C534.428 336.849 534.106 336.312 533.676 335.703C533.282 335.094 532.87 334.61 532.44 334.252C533.622 333.929 534.84 333.535 536.094 333.07C537.383 332.604 538.583 332.084 539.694 331.511C540.84 330.902 541.772 330.293 542.488 329.684ZM544.53 333.499L547.432 335.38C546.357 336.455 544.996 337.548 543.348 338.658C541.736 339.733 540.034 340.736 538.243 341.667C536.452 342.599 534.732 343.369 533.085 343.978C532.834 343.512 532.493 342.939 532.064 342.258C531.634 341.578 531.186 341.04 530.72 340.646C532.332 340.181 534.016 339.572 535.771 338.819C537.527 338.067 539.175 337.225 540.715 336.294C542.291 335.362 543.563 334.431 544.53 333.499ZM556.836 326.299L560.275 329.147C559.164 330.078 557.964 330.992 556.675 331.887C555.421 332.747 554.256 333.482 553.182 334.091L550.28 331.511C550.961 331.081 551.695 330.562 552.483 329.953C553.307 329.344 554.095 328.717 554.848 328.072C555.636 327.427 556.298 326.836 556.836 326.299ZM550.979 322.484C551.48 325.027 552.179 327.427 553.074 329.684C553.97 331.905 555.116 333.876 556.513 335.595C557.946 337.315 559.63 338.658 561.565 339.625C560.991 340.091 560.364 340.754 559.684 341.614C559.003 342.509 558.484 343.297 558.125 343.978C556.012 342.724 554.221 341.058 552.752 338.981C551.319 336.903 550.137 334.52 549.205 331.834C548.274 329.147 547.522 326.263 546.948 323.182L550.979 322.484ZM545.229 322.806L548.829 324.096C547.826 325.17 546.554 326.191 545.014 327.159C543.473 328.126 541.843 328.986 540.124 329.738C538.404 330.454 536.721 331.046 535.073 331.511C534.858 331.081 534.571 330.562 534.213 329.953C533.855 329.308 533.532 328.807 533.246 328.448C534.715 328.054 536.219 327.571 537.76 326.997C539.3 326.424 540.733 325.779 542.058 325.063C543.384 324.346 544.441 323.594 545.229 322.806ZM509.763 322.054C511.877 321.588 514.384 320.979 517.286 320.227C520.188 319.439 523.125 318.633 526.099 317.809L526.905 323.612C524.254 324.436 521.549 325.26 518.791 326.084C516.032 326.872 513.489 327.589 511.16 328.233L509.763 322.054ZM510.73 305.449H526.153V311.36H510.73V305.449ZM516.211 295.24H521.961V339.034C521.961 340.503 521.818 341.667 521.531 342.527C521.245 343.387 520.689 344.068 519.866 344.569C519.042 345.035 518.039 345.357 516.856 345.536C515.674 345.715 514.223 345.787 512.504 345.751C512.432 344.963 512.235 343.996 511.913 342.85C511.59 341.739 511.232 340.754 510.838 339.894C511.841 339.93 512.754 339.966 513.578 340.002C514.438 340.002 515.029 340.002 515.352 340.002C515.674 340.002 515.889 339.93 515.997 339.787C516.14 339.643 516.211 339.393 516.211 339.034V295.24ZM583.005 300.559H617.235V306.363H583.005V300.559ZM589.991 315.391V320.71H609.604V315.391H589.991ZM584.134 310.178H615.838V325.976H584.134V310.178ZM589.185 326.568C590.833 329.111 593.018 331.314 595.741 333.177C598.463 335.004 601.705 336.473 605.467 337.583C609.228 338.694 613.438 339.464 618.095 339.894C617.629 340.36 617.145 340.933 616.644 341.614C616.178 342.294 615.73 342.993 615.3 343.709C614.906 344.426 614.566 345.071 614.279 345.644C609.443 344.999 605.091 343.942 601.222 342.473C597.388 341.04 594.039 339.142 591.173 336.777C588.343 334.377 585.925 331.493 583.919 328.126L589.185 326.568ZM596.547 295.616H602.941V320.119C602.941 322.305 602.798 324.454 602.511 326.568C602.225 328.645 601.705 330.651 600.953 332.586C600.236 334.485 599.198 336.258 597.836 337.906C596.475 339.554 594.72 341.04 592.57 342.366C590.421 343.691 587.806 344.802 584.725 345.698C584.51 345.232 584.151 344.659 583.65 343.978C583.184 343.333 582.701 342.67 582.199 341.99C581.698 341.345 581.214 340.808 580.748 340.378C583.65 339.733 586.05 338.909 587.949 337.906C589.883 336.867 591.424 335.685 592.57 334.359C593.716 333.034 594.576 331.619 595.149 330.114C595.723 328.574 596.099 326.962 596.278 325.278C596.457 323.594 596.547 321.857 596.547 320.066V295.616ZM578.921 295.132L584.886 297.067C583.668 300.112 582.217 303.157 580.533 306.202C578.885 309.211 577.094 312.077 575.16 314.799C573.261 317.486 571.291 319.851 569.249 321.893C569.07 321.355 568.783 320.675 568.389 319.851C567.995 319.027 567.565 318.185 567.099 317.325C566.634 316.465 566.222 315.785 565.863 315.283C567.583 313.635 569.249 311.736 570.861 309.587C572.509 307.438 574.013 305.127 575.375 302.655C576.736 300.183 577.918 297.676 578.921 295.132ZM573.655 310.071L579.781 303.945V303.999V345.859H573.655V310.071ZM632.926 298.84H665.866V305.02H632.926V298.84ZM632.926 311.253H665.973V317.271H632.926V311.253ZM632.818 323.935H666.188V330.007H632.818V323.935ZM629.218 298.84H635.559V318.185C635.559 320.298 635.469 322.609 635.29 325.117C635.111 327.624 634.753 330.15 634.215 332.693C633.714 335.201 632.944 337.601 631.905 339.894C630.902 342.187 629.576 344.229 627.928 346.02C627.606 345.59 627.122 345.106 626.477 344.569C625.833 344.032 625.17 343.512 624.489 343.011C623.844 342.509 623.289 342.115 622.823 341.829C624.292 340.216 625.456 338.443 626.316 336.509C627.176 334.538 627.803 332.514 628.197 330.437C628.627 328.323 628.896 326.227 629.003 324.149C629.146 322.036 629.218 320.03 629.218 318.131V298.84ZM663.609 298.84H670.057V338.121C670.057 339.84 669.842 341.166 669.412 342.097C668.982 343.064 668.212 343.799 667.102 344.3C666.027 344.802 664.648 345.124 662.964 345.268C661.28 345.411 659.203 345.465 656.731 345.429C656.623 344.569 656.355 343.53 655.925 342.312C655.495 341.094 655.065 340.073 654.635 339.249C655.674 339.285 656.713 339.321 657.752 339.357C658.791 339.357 659.704 339.357 660.492 339.357C661.316 339.357 661.907 339.357 662.265 339.357C662.767 339.357 663.107 339.267 663.286 339.088C663.501 338.909 663.609 338.569 663.609 338.067V298.84ZM645.769 301.312H652.271V345.053H645.769V301.312ZM680.697 311.575H729.059V317.218H680.697V311.575ZM685.318 301.043H716.055V306.632H685.318V301.043ZM694.829 330.275H718.796V335.165H694.829V330.275ZM694.829 338.766H718.796V344.193H694.829V338.766ZM698 295.24H704.394V314.746H698V295.24ZM721.644 296.798L727.178 299.7C723.703 304.572 719.619 309.014 714.927 313.026C710.234 317.038 705.165 320.585 699.719 323.666C694.31 326.747 688.703 329.362 682.9 331.511C682.649 331.046 682.291 330.49 681.825 329.845C681.36 329.165 680.858 328.484 680.321 327.803C679.819 327.123 679.371 326.585 678.977 326.191C684.817 324.329 690.387 321.964 695.689 319.098C701.027 316.232 705.899 312.919 710.305 309.157C714.747 305.396 718.527 301.276 721.644 296.798ZM691.175 321.516H722.879V345.536H716.162V326.836H697.624V345.751H691.175V321.516ZM780.216 295.992L784.944 301.473C782.831 302.154 780.556 302.798 778.12 303.407C775.684 303.981 773.158 304.518 770.543 305.02C767.928 305.485 765.313 305.915 762.698 306.309C760.083 306.667 757.521 306.99 755.013 307.276C754.87 306.488 754.602 305.557 754.207 304.482C753.813 303.407 753.437 302.494 753.079 301.742C755.515 301.455 757.969 301.115 760.441 300.721C762.948 300.291 765.385 299.825 767.749 299.324C770.149 298.822 772.406 298.303 774.52 297.765C776.633 297.192 778.532 296.601 780.216 295.992ZM751.574 317.701H786.288V323.935H751.574V317.701ZM753.778 337.691H785.697V343.871H753.778V337.691ZM766.191 303.945H772.746V339.625H766.191V303.945ZM743.407 310.93L749.694 304.59L749.801 304.697V345.644H743.407V310.93ZM748.726 295.455L755.067 297.443C753.849 300.595 752.38 303.748 750.661 306.9C748.941 310.017 747.096 312.972 745.126 315.767C743.156 318.525 741.114 320.943 739 323.021C738.785 322.484 738.445 321.785 737.979 320.925C737.514 320.066 737.03 319.206 736.528 318.346C736.027 317.486 735.579 316.788 735.185 316.25C736.976 314.567 738.714 312.632 740.397 310.447C742.117 308.226 743.675 305.826 745.072 303.246C746.505 300.667 747.723 298.07 748.726 295.455ZM793.757 297.711H811.329V303.139H793.757V297.711ZM815.251 325.385H837.068V330.705H815.251V325.385ZM793.005 314.155H812.994V319.743H793.005V314.155ZM801.764 316.465H807.836V338.766C807.836 340.234 807.675 341.417 807.352 342.312C807.066 343.208 806.457 343.906 805.525 344.408C804.594 344.874 803.501 345.178 802.247 345.321C800.993 345.465 799.543 345.536 797.895 345.536C797.787 344.641 797.554 343.602 797.196 342.42C796.838 341.273 796.444 340.27 796.014 339.41C797.053 339.446 798.038 339.464 798.969 339.464C799.901 339.464 800.546 339.464 800.904 339.464C801.226 339.428 801.441 339.375 801.549 339.303C801.692 339.195 801.764 338.981 801.764 338.658V316.465ZM835.026 325.385H841.528C841.528 325.385 841.51 325.69 841.474 326.299C841.439 326.872 841.385 327.374 841.313 327.803C841.062 330.92 840.758 333.499 840.4 335.541C840.077 337.548 839.719 339.16 839.325 340.378C838.931 341.56 838.465 342.438 837.928 343.011C837.355 343.62 836.746 344.05 836.101 344.3C835.492 344.587 834.793 344.802 834.005 344.945C833.36 345.017 832.501 345.053 831.426 345.053C830.351 345.089 829.187 345.089 827.933 345.053C827.897 344.121 827.718 343.1 827.396 341.99C827.109 340.879 826.715 339.912 826.213 339.088C827.181 339.195 828.076 339.267 828.9 339.303C829.76 339.339 830.405 339.357 830.835 339.357C831.265 339.357 831.605 339.321 831.856 339.249C832.106 339.142 832.357 338.981 832.608 338.766C832.93 338.443 833.235 337.834 833.522 336.939C833.808 336.007 834.077 334.664 834.328 332.908C834.578 331.153 834.811 328.914 835.026 326.191V325.385ZM823.634 320.549H830.029C829.778 323.308 829.402 325.941 828.9 328.448C828.435 330.92 827.646 333.231 826.536 335.38C825.425 337.53 823.867 339.482 821.861 341.237C819.891 342.993 817.311 344.497 814.123 345.751C813.765 344.999 813.227 344.121 812.511 343.118C811.794 342.151 811.096 341.363 810.415 340.754C813.209 339.751 815.43 338.551 817.078 337.154C818.762 335.721 820.034 334.144 820.894 332.425C821.789 330.705 822.416 328.842 822.774 326.836C823.168 324.83 823.455 322.734 823.634 320.549ZM794.993 308.888L799.023 304.751C800.492 305.288 802.05 305.933 803.698 306.685C805.382 307.438 806.976 308.208 808.481 308.996C810.021 309.784 811.311 310.554 812.35 311.307L807.997 315.928C807.066 315.176 805.865 314.387 804.397 313.564C802.928 312.704 801.352 311.862 799.668 311.038C798.02 310.214 796.462 309.497 794.993 308.888ZM811.436 314.155H812.242L813.102 313.886L817.025 315.122C816.595 317.558 816.039 320.066 815.359 322.645C814.714 325.224 814.033 327.427 813.317 329.254L808.964 327.212C809.466 325.636 809.932 323.72 810.361 321.463C810.827 319.206 811.185 317.074 811.436 315.068V314.155ZM832.93 303.354L839.647 304.375C838.465 307.67 836.799 310.501 834.65 312.865C832.536 315.193 830.029 317.128 827.127 318.668C824.225 320.209 821.001 321.481 817.455 322.484C817.24 322.018 816.881 321.445 816.38 320.764C815.914 320.083 815.413 319.421 814.875 318.776C814.374 318.095 813.908 317.558 813.478 317.164C816.774 316.483 819.729 315.552 822.344 314.37C824.995 313.187 827.217 311.701 829.008 309.909C830.835 308.082 832.142 305.897 832.93 303.354ZM822.237 295.186L828.202 296.905C827.342 298.804 826.303 300.667 825.085 302.494C823.867 304.321 822.577 306.04 821.216 307.653C819.891 309.229 818.529 310.59 817.132 311.736C816.738 311.378 816.219 310.984 815.574 310.554C814.929 310.089 814.284 309.641 813.639 309.211C812.994 308.781 812.421 308.423 811.92 308.136C814.033 306.632 816.004 304.733 817.831 302.44C819.658 300.112 821.126 297.694 822.237 295.186ZM822.936 304.751C824.189 306.757 825.819 308.584 827.826 310.232C829.867 311.88 832.214 313.295 834.865 314.477C837.552 315.623 840.453 316.501 843.57 317.11C843.14 317.504 842.657 318.041 842.119 318.722C841.618 319.367 841.134 320.03 840.668 320.71C840.203 321.391 839.809 322 839.486 322.537C836.19 321.713 833.163 320.549 830.405 319.045C827.682 317.54 825.228 315.731 823.043 313.617C820.894 311.504 819.085 309.103 817.616 306.417L822.936 304.751ZM801.173 316.089L805.31 317.647C804.63 320.012 803.77 322.43 802.731 324.902C801.728 327.374 800.581 329.666 799.292 331.78C798.002 333.894 796.587 335.667 795.047 337.1C794.76 336.168 794.312 335.112 793.703 333.929C793.13 332.747 792.593 331.726 792.091 330.866C793.381 329.72 794.599 328.341 795.745 326.729C796.927 325.117 797.984 323.397 798.916 321.57C799.847 319.707 800.599 317.88 801.173 316.089ZM822.076 300.721H842.173V306.04H819.496L822.076 300.721ZM809.824 297.711H811.167L812.188 297.496L816.272 300.022C815.484 301.312 814.517 302.637 813.371 303.999C812.224 305.36 810.988 306.649 809.663 307.868C808.373 309.05 807.084 310.089 805.794 310.984C805.221 310.447 804.522 309.892 803.698 309.318C802.91 308.745 802.194 308.262 801.549 307.868C802.695 307.079 803.788 306.166 804.827 305.127C805.901 304.052 806.869 302.96 807.728 301.849C808.624 300.739 809.322 299.735 809.824 298.84V297.711ZM1193.5 303.999H1209.99V340.163H1193.5V334.52H1204.19V309.587H1193.5V303.999ZM1189.74 303.999H1195.59V344.139H1189.74V303.999ZM1193.28 318.346H1206.99V323.935H1193.28V318.346ZM1197.42 295.24L1204.41 296.261C1203.83 298.088 1203.21 299.897 1202.53 301.688C1201.88 303.479 1201.29 305.002 1200.75 306.255L1195.59 305.073C1195.84 304.142 1196.08 303.103 1196.29 301.957C1196.54 300.81 1196.78 299.646 1196.99 298.464C1197.21 297.282 1197.35 296.207 1197.42 295.24ZM1217.09 303.569H1232.83V309.48H1217.09V303.569ZM1230.58 303.569H1236.54C1236.54 303.569 1236.54 303.766 1236.54 304.16C1236.54 304.518 1236.54 304.93 1236.54 305.396C1236.54 305.861 1236.52 306.22 1236.49 306.47C1236.34 312.525 1236.16 317.665 1235.95 321.893C1235.77 326.084 1235.54 329.559 1235.25 332.317C1235 335.04 1234.7 337.171 1234.34 338.712C1233.98 340.252 1233.51 341.381 1232.94 342.097C1232.22 343.136 1231.45 343.853 1230.63 344.247C1229.81 344.641 1228.86 344.927 1227.78 345.106C1226.74 345.25 1225.45 345.303 1223.91 345.268C1222.41 345.268 1220.87 345.25 1219.29 345.214C1219.26 344.318 1219.04 343.262 1218.65 342.043C1218.25 340.861 1217.77 339.822 1217.2 338.927C1218.91 339.07 1220.51 339.16 1221.98 339.195C1223.48 339.231 1224.58 339.249 1225.26 339.249C1225.79 339.249 1226.22 339.195 1226.55 339.088C1226.9 338.945 1227.24 338.694 1227.57 338.336C1228.03 337.87 1228.41 336.921 1228.69 335.488C1229.02 334.019 1229.29 331.959 1229.5 329.308C1229.72 326.657 1229.91 323.308 1230.09 319.26C1230.27 315.211 1230.43 310.393 1230.58 304.805V303.569ZM1217.25 295.293L1223.48 296.744C1222.8 299.359 1221.96 301.974 1220.96 304.59C1219.99 307.205 1218.91 309.677 1217.73 312.005C1216.59 314.298 1215.4 316.304 1214.19 318.024C1213.83 317.665 1213.31 317.253 1212.63 316.788C1211.98 316.286 1211.32 315.802 1210.64 315.337C1209.99 314.871 1209.42 314.513 1208.92 314.262C1210.1 312.722 1211.21 310.948 1212.25 308.942C1213.33 306.9 1214.28 304.715 1215.1 302.386C1215.96 300.022 1216.68 297.658 1217.25 295.293ZM1214.62 319.098L1219.67 316.25C1220.56 317.468 1221.51 318.812 1222.52 320.28C1223.52 321.749 1224.47 323.182 1225.36 324.579C1226.26 325.976 1226.99 327.212 1227.57 328.287L1222.09 331.619C1221.58 330.508 1220.9 329.236 1220.04 327.803C1219.22 326.371 1218.32 324.902 1217.36 323.397C1216.43 321.857 1215.51 320.424 1214.62 319.098ZM1267.49 340.915H1258.64L1272.13 301.834H1282.78L1296.25 340.915H1287.4L1277.61 310.765H1277.3L1267.49 340.915ZM1266.94 325.554H1287.85V332.004H1266.94V325.554ZM1311.9 301.834V340.915H1303.64V301.834H1311.9ZM1343.25 340.915H1334.39L1347.88 301.834H1358.53L1372 340.915H1363.15L1353.36 310.765H1353.06L1343.25 340.915ZM1342.69 325.554H1363.61V332.004H1342.69V325.554ZM1391.08 352.517C1388.45 352.517 1386.19 352.155 1384.31 351.429C1382.44 350.717 1380.95 349.744 1379.84 348.51C1378.74 347.276 1378.02 345.889 1377.69 344.35L1385.21 343.338C1385.43 343.924 1385.8 344.471 1386.29 344.98C1386.79 345.488 1387.44 345.896 1388.26 346.201C1389.09 346.519 1390.09 346.678 1391.27 346.678C1393.04 346.678 1394.5 346.245 1395.64 345.38C1396.8 344.528 1397.38 343.097 1397.38 341.087V335.725H1397.04C1396.68 336.539 1396.15 337.308 1395.43 338.034C1394.72 338.759 1393.81 339.35 1392.69 339.808C1391.57 340.266 1390.23 340.495 1388.68 340.495C1386.48 340.495 1384.47 339.986 1382.67 338.969C1380.87 337.938 1379.44 336.367 1378.37 334.255C1377.32 332.131 1376.79 329.447 1376.79 326.203C1376.79 322.882 1377.33 320.109 1378.41 317.883C1379.49 315.656 1380.93 313.99 1382.73 312.883C1384.53 311.776 1386.51 311.223 1388.66 311.223C1390.3 311.223 1391.67 311.503 1392.78 312.063C1393.89 312.61 1394.78 313.297 1395.45 314.123C1396.14 314.938 1396.67 315.739 1397.04 316.528H1397.34V311.605H1405.41V341.201C1405.41 343.695 1404.8 345.781 1403.58 347.46C1402.36 349.14 1400.67 350.399 1398.51 351.239C1396.36 352.091 1393.88 352.517 1391.08 352.517ZM1391.25 334.389C1392.57 334.389 1393.67 334.064 1394.58 333.416C1395.49 332.754 1396.19 331.813 1396.67 330.592C1397.17 329.358 1397.42 327.882 1397.42 326.164C1397.42 324.447 1397.18 322.959 1396.69 321.699C1396.21 320.427 1395.51 319.441 1394.59 318.741C1393.68 318.042 1392.57 317.692 1391.25 317.692C1389.92 317.692 1388.79 318.054 1387.88 318.78C1386.96 319.492 1386.27 320.484 1385.8 321.756C1385.33 323.029 1385.09 324.498 1385.09 326.164C1385.09 327.856 1385.33 329.319 1385.8 330.553C1386.28 331.775 1386.97 332.722 1387.88 333.397C1388.79 334.058 1389.92 334.389 1391.25 334.389ZM1427.93 341.488C1424.91 341.488 1422.32 340.877 1420.14 339.656C1417.98 338.422 1416.31 336.679 1415.14 334.427C1413.97 332.163 1413.39 329.485 1413.39 326.393C1413.39 323.378 1413.97 320.732 1415.14 318.455C1416.31 316.178 1417.96 314.403 1420.08 313.131C1422.22 311.859 1424.73 311.223 1427.6 311.223C1429.54 311.223 1431.34 311.535 1433 312.158C1434.68 312.769 1436.15 313.691 1437.39 314.925C1438.65 316.159 1439.63 317.711 1440.33 319.581C1441.03 321.438 1441.38 323.614 1441.38 326.107V328.34H1416.63V323.302H1433.73C1433.73 322.132 1433.47 321.095 1432.97 320.192C1432.46 319.288 1431.75 318.582 1430.85 318.073C1429.96 317.552 1428.92 317.291 1427.74 317.291C1426.5 317.291 1425.41 317.577 1424.45 318.15C1423.51 318.71 1422.78 319.467 1422.24 320.421C1421.71 321.362 1421.43 322.412 1421.42 323.569V328.359C1421.42 329.809 1421.69 331.062 1422.22 332.118C1422.77 333.174 1423.54 333.988 1424.53 334.561C1425.52 335.133 1426.7 335.419 1428.06 335.419C1428.96 335.419 1429.79 335.292 1430.54 335.038C1431.29 334.783 1431.93 334.402 1432.47 333.893C1433 333.384 1433.41 332.761 1433.69 332.023L1441.21 332.519C1440.83 334.325 1440.04 335.903 1438.86 337.251C1437.69 338.587 1436.18 339.63 1434.32 340.381C1432.48 341.119 1430.34 341.488 1427.93 341.488ZM1457.5 323.97V340.915H1449.37V311.605H1457.12V316.776H1457.46C1458.11 315.071 1459.2 313.723 1460.73 312.73C1462.25 311.725 1464.1 311.223 1466.28 311.223C1468.31 311.223 1470.09 311.668 1471.6 312.559C1473.12 313.449 1474.29 314.721 1475.13 316.375C1475.97 318.016 1476.39 319.975 1476.39 322.253V340.915H1468.26V323.703C1468.28 321.909 1467.82 320.51 1466.89 319.505C1465.96 318.487 1464.68 317.978 1463.05 317.978C1461.96 317.978 1460.99 318.213 1460.15 318.684C1459.33 319.155 1458.68 319.842 1458.21 320.745C1457.75 321.636 1457.51 322.711 1457.5 323.97ZM1501.08 311.605V317.711H1483.43V311.605H1501.08ZM1487.43 304.582H1495.56V331.908C1495.56 332.659 1495.68 333.244 1495.91 333.664C1496.13 334.071 1496.45 334.357 1496.86 334.522C1497.28 334.688 1497.76 334.771 1498.31 334.771C1498.69 334.771 1499.07 334.739 1499.45 334.675C1499.84 334.599 1500.13 334.542 1500.33 334.503L1501.61 340.552C1501.2 340.68 1500.63 340.826 1499.89 340.991C1499.16 341.169 1498.26 341.278 1497.2 341.316C1495.24 341.392 1493.53 341.131 1492.05 340.533C1490.59 339.935 1489.45 339.007 1488.63 337.747C1487.82 336.488 1487.42 334.898 1487.43 332.977V304.582ZM1528.6 327.105C1528.42 325.672 1528.53 324.418 1528.92 323.343C1529.35 322.269 1529.94 321.301 1530.69 320.442C1531.48 319.582 1532.34 318.794 1533.27 318.077C1534.24 317.361 1535.14 316.662 1535.96 315.982C1536.82 315.301 1537.52 314.602 1538.06 313.886C1538.59 313.169 1538.86 312.381 1538.86 311.522C1538.86 310.447 1538.59 309.533 1538.06 308.781C1537.52 308.029 1536.73 307.456 1535.69 307.061C1534.69 306.667 1533.47 306.47 1532.04 306.47C1530.39 306.47 1528.89 306.829 1527.52 307.545C1526.16 308.262 1524.82 309.318 1523.49 310.716L1519.09 306.632C1520.81 304.661 1522.83 303.085 1525.16 301.903C1527.52 300.685 1530.12 300.076 1532.95 300.076C1535.57 300.076 1537.88 300.47 1539.88 301.258C1541.93 302.046 1543.52 303.246 1544.67 304.858C1545.85 306.435 1546.44 308.423 1546.44 310.823C1546.44 312.148 1546.15 313.313 1545.58 314.316C1545.04 315.283 1544.33 316.161 1543.43 316.949C1542.57 317.701 1541.66 318.436 1540.69 319.152C1539.72 319.833 1538.83 320.549 1538 321.301C1537.18 322.054 1536.53 322.896 1536.07 323.827C1535.6 324.758 1535.42 325.851 1535.53 327.105H1528.6ZM1532.09 341.399C1530.73 341.399 1529.6 340.951 1528.71 340.055C1527.81 339.16 1527.36 338.031 1527.36 336.67C1527.36 335.273 1527.81 334.126 1528.71 333.231C1529.6 332.335 1530.73 331.887 1532.09 331.887C1533.45 331.887 1534.58 332.335 1535.48 333.231C1536.37 334.126 1536.82 335.273 1536.82 336.67C1536.82 338.031 1536.37 339.16 1535.48 340.055C1534.58 340.951 1533.45 341.399 1532.09 341.399Z" fill="#4E4E4E"/>
<path d="M688.634 217.84H735.492V224.449H688.634V217.84ZM714.589 235.895L719.586 231.704C721.019 232.743 722.56 233.889 724.208 235.143C725.891 236.361 727.557 237.633 729.205 238.958C730.889 240.284 732.447 241.591 733.88 242.881C735.313 244.135 736.531 245.281 737.534 246.32L732.053 251.317C731.157 250.243 730.011 249.06 728.614 247.771C727.253 246.445 725.766 245.084 724.154 243.687C722.578 242.29 720.948 240.928 719.264 239.603C717.616 238.277 716.058 237.041 714.589 235.895ZM712.439 220.312L719.586 222.837C717.544 226.599 715.108 230.271 712.278 233.853C709.484 237.436 706.331 240.749 702.821 243.794C699.31 246.803 695.495 249.383 691.375 251.532C691.053 250.959 690.623 250.314 690.085 249.598C689.548 248.881 688.993 248.183 688.419 247.502C687.882 246.786 687.381 246.177 686.915 245.675C689.817 244.35 692.557 242.737 695.136 240.839C697.716 238.904 700.098 236.809 702.283 234.552C704.504 232.295 706.457 229.966 708.141 227.566C709.86 225.13 711.293 222.712 712.439 220.312ZM708.517 233.316L715.556 226.276V264.644H708.517V233.316ZM754.944 226.706H781.866V232.134H754.944V226.706ZM757.47 236.218H763.381V257.927H757.47V236.218ZM760.748 236.218H779.448V254.327H760.748V249.007H773.483V241.537H760.748V236.218ZM745.594 216.819H788.583V222.891H751.881V264.751H745.594V216.819ZM785.036 216.819H791.377V257.336C791.377 259.019 791.18 260.345 790.786 261.312C790.392 262.279 789.676 263.032 788.637 263.569C787.598 264.071 786.308 264.393 784.768 264.536C783.227 264.715 781.329 264.805 779.072 264.805C779 264.196 778.839 263.497 778.588 262.709C778.373 261.957 778.122 261.187 777.836 260.399C777.549 259.646 777.227 258.984 776.869 258.41C778.302 258.482 779.681 258.536 781.006 258.572C782.368 258.572 783.281 258.554 783.747 258.518C784.248 258.482 784.589 258.375 784.768 258.195C784.947 258.016 785.036 257.712 785.036 257.282V216.819ZM805.671 222.999H822.168V259.163H805.671V253.52H816.364V228.587H805.671V222.999ZM801.91 222.999H807.767V263.139H801.91V222.999ZM805.456 237.346H819.159V242.935H805.456V237.346ZM809.594 214.24L816.579 215.261C816.006 217.088 815.379 218.897 814.699 220.688C814.054 222.479 813.463 224.002 812.925 225.255L807.767 224.073C808.018 223.142 808.25 222.103 808.465 220.957C808.716 219.81 808.949 218.646 809.164 217.464C809.379 216.282 809.522 215.207 809.594 214.24ZM829.261 222.569H845.006V228.48H829.261V222.569ZM842.749 222.569H848.713C848.713 222.569 848.713 222.766 848.713 223.16C848.713 223.518 848.713 223.93 848.713 224.396C848.713 224.861 848.696 225.22 848.66 225.47C848.516 231.525 848.337 236.665 848.122 240.893C847.943 245.084 847.71 248.559 847.424 251.317C847.173 254.04 846.869 256.171 846.51 257.712C846.152 259.252 845.686 260.381 845.113 261.097C844.397 262.136 843.626 262.853 842.802 263.247C841.979 263.641 841.029 263.927 839.954 264.106C838.916 264.25 837.626 264.303 836.086 264.268C834.581 264.268 833.04 264.25 831.464 264.214C831.428 263.318 831.213 262.262 830.819 261.043C830.425 259.861 829.942 258.822 829.369 257.927C831.088 258.07 832.682 258.16 834.151 258.195C835.656 258.231 836.748 258.249 837.429 258.249C837.966 258.249 838.396 258.195 838.719 258.088C839.077 257.945 839.417 257.694 839.74 257.336C840.205 256.87 840.581 255.921 840.868 254.488C841.19 253.019 841.459 250.959 841.674 248.308C841.889 245.657 842.086 242.308 842.265 238.26C842.444 234.211 842.605 229.393 842.749 223.805V222.569ZM829.422 214.293L835.656 215.744C834.975 218.359 834.133 220.974 833.13 223.59C832.163 226.205 831.088 228.677 829.906 231.005C828.76 233.298 827.577 235.304 826.359 237.024C826.001 236.665 825.482 236.253 824.801 235.788C824.156 235.286 823.493 234.802 822.813 234.337C822.168 233.871 821.595 233.513 821.093 233.262C822.275 231.722 823.386 229.948 824.425 227.942C825.5 225.9 826.449 223.715 827.273 221.386C828.133 219.022 828.849 216.658 829.422 214.293ZM826.789 238.098L831.84 235.25C832.736 236.468 833.685 237.812 834.688 239.28C835.691 240.749 836.641 242.182 837.536 243.579C838.432 244.976 839.166 246.212 839.74 247.287L834.258 250.619C833.757 249.508 833.076 248.236 832.217 246.803C831.393 245.371 830.497 243.902 829.53 242.397C828.598 240.857 827.685 239.424 826.789 238.098ZM857.795 249.705H904.814V254.81H857.795V249.705ZM867.306 240.57H890.251V245.084H867.306V240.57ZM878.107 247.287H884.448V258.733C884.448 260.202 884.251 261.33 883.857 262.118C883.463 262.906 882.71 263.497 881.6 263.891C880.489 264.286 879.182 264.518 877.677 264.59C876.172 264.698 874.399 264.751 872.357 264.751C872.214 263.891 871.945 262.96 871.551 261.957C871.157 260.954 870.745 260.076 870.315 259.324C871.211 259.36 872.106 259.396 873.002 259.431C873.933 259.431 874.757 259.431 875.474 259.431C876.226 259.431 876.728 259.431 876.978 259.431C877.408 259.396 877.695 259.324 877.838 259.216C878.017 259.109 878.107 258.876 878.107 258.518V247.287ZM888.747 240.57H890.305L891.648 240.248L895.249 243.526C894.066 244.457 892.759 245.406 891.326 246.374C889.929 247.305 888.478 248.219 886.973 249.114C885.505 250.01 884.036 250.798 882.567 251.479C882.245 250.977 881.779 250.404 881.17 249.759C880.561 249.114 880.059 248.613 879.665 248.254C880.776 247.681 881.904 247.018 883.051 246.266C884.197 245.478 885.272 244.672 886.275 243.848C887.314 243.024 888.138 242.29 888.747 241.645V240.57ZM857.795 233.584H904.921V244.654H898.527V238.26H863.867V244.654H857.795V233.584ZM860.911 216.658L868.434 218.162C868.291 218.592 867.825 218.879 867.037 219.022L867.951 235.68H862.04L860.911 216.658ZM896.001 216.013H902.127C902.019 218.234 901.894 220.563 901.751 222.999C901.607 225.399 901.446 227.727 901.267 229.984C901.088 232.241 900.891 234.211 900.676 235.895H894.443C894.693 234.14 894.926 232.134 895.141 229.877C895.356 227.62 895.535 225.291 895.679 222.891C895.822 220.455 895.929 218.162 896.001 216.013ZM888.424 216.013H898.365V220.043H888.424V216.013ZM871.766 214.508L874.775 218.001C873.271 218.682 871.605 219.309 869.778 219.882C867.951 220.455 866.303 220.903 864.834 221.225L862.309 217.947C863.276 217.697 864.333 217.374 865.479 216.98C866.625 216.586 867.754 216.174 868.864 215.744C869.975 215.314 870.942 214.902 871.766 214.508ZM864.297 221.924H874.345V225.9H864.297V221.924ZM864.404 227.727H874.453V231.757H864.404V227.727ZM888.639 221.924H897.721V225.9H888.639V221.924ZM888.478 227.727H897.506V231.757H888.478V227.727ZM883.104 214.562L887.242 215.852C886.06 217.464 884.537 219.004 882.674 220.473C880.812 221.942 878.985 223.142 877.193 224.073C876.799 223.679 876.262 223.196 875.581 222.622C874.901 222.013 874.31 221.548 873.808 221.225C875.635 220.401 877.39 219.416 879.074 218.27C880.758 217.123 882.101 215.887 883.104 214.562ZM875.151 217.41L878.053 214.938C879.128 215.44 880.238 216.049 881.385 216.765C882.531 217.446 883.606 218.144 884.609 218.861C885.648 219.577 886.508 220.24 887.188 220.849L884.072 223.59C883.463 222.981 882.657 222.3 881.653 221.548C880.65 220.795 879.576 220.061 878.429 219.344C877.319 218.628 876.226 217.983 875.151 217.41ZM883.373 223.59L887.564 224.826C886.346 226.581 884.77 228.229 882.836 229.769C880.937 231.31 879.038 232.581 877.14 233.584C876.781 233.19 876.244 232.689 875.528 232.08C874.847 231.471 874.256 231.005 873.754 230.683C875.653 229.823 877.462 228.784 879.182 227.566C880.937 226.312 882.334 224.987 883.373 223.59ZM875.259 226.545L878.214 224.073C879.325 224.611 880.471 225.238 881.653 225.954C882.871 226.67 884 227.405 885.039 228.157C886.114 228.909 886.991 229.608 887.672 230.253L884.501 233.047C883.857 232.402 883.015 231.704 881.976 230.951C880.937 230.163 879.826 229.393 878.644 228.641C877.498 227.853 876.369 227.154 875.259 226.545ZM919.967 242.128H956.131V264.859H949.414V246.965H926.362V264.859H919.967V242.128ZM923.191 250.081H951.188V254.918H923.191V250.081ZM923.567 258.034H951.456V262.924H923.567V258.034ZM934.261 237.185L941.193 238.152C940.512 239.549 939.796 240.875 939.043 242.128C938.291 243.382 937.628 244.439 937.055 245.299L931.789 244.17C932.255 243.132 932.72 241.967 933.186 240.678C933.688 239.388 934.046 238.224 934.261 237.185ZM914.164 216.658H931.467V221.655H914.164V216.658ZM930.016 216.658H935.873V234.498C935.873 235.716 935.712 236.665 935.389 237.346C935.067 238.027 934.494 238.582 933.67 239.012C932.81 239.37 931.771 239.585 930.553 239.657C929.335 239.692 927.92 239.71 926.308 239.71C926.2 239.03 925.986 238.26 925.663 237.4C925.341 236.54 925.018 235.788 924.696 235.143C925.627 235.179 926.523 235.197 927.383 235.197C928.278 235.197 928.887 235.197 929.21 235.197C929.496 235.197 929.693 235.143 929.801 235.035C929.944 234.892 930.016 234.695 930.016 234.444V216.658ZM938.721 216.658H957.26V221.655H938.721V216.658ZM954.251 216.658H960.269V234.337C960.269 235.662 960.09 236.683 959.732 237.4C959.409 238.08 958.782 238.636 957.851 239.066C956.955 239.46 955.845 239.71 954.519 239.818C953.23 239.889 951.707 239.907 949.952 239.872C949.844 239.119 949.611 238.295 949.253 237.4C948.931 236.468 948.59 235.662 948.232 234.982C949.271 235.017 950.292 235.053 951.295 235.089C952.334 235.089 953.015 235.089 953.337 235.089C953.659 235.053 953.892 234.982 954.036 234.874C954.179 234.767 954.251 234.57 954.251 234.283V216.658ZM937.163 232.51C939.097 231.937 941.372 231.22 943.987 230.36C946.602 229.465 949.253 228.551 951.94 227.62L952.961 232.241C950.632 233.137 948.268 234.032 945.868 234.928C943.503 235.788 941.318 236.576 939.312 237.292L937.163 232.51ZM939.634 224.826L942.751 221.01C943.933 221.583 945.223 222.3 946.62 223.16C948.053 223.984 949.164 224.754 949.952 225.47L946.674 229.662C945.957 228.909 944.901 228.086 943.503 227.19C942.142 226.258 940.852 225.47 939.634 224.826ZM912.713 233.423C914.504 232.886 916.636 232.205 919.107 231.381C921.615 230.522 924.159 229.626 926.738 228.695L927.705 233.37C925.52 234.265 923.317 235.197 921.096 236.164C918.91 237.095 916.868 237.937 914.97 238.689L912.713 233.423ZM915.561 224.879L918.624 221.172C919.806 221.745 921.078 222.461 922.439 223.321C923.8 224.145 924.857 224.915 925.609 225.632L922.385 229.769C921.669 229.017 920.648 228.175 919.322 227.244C917.997 226.312 916.743 225.524 915.561 224.879ZM987.52 219.003L974.926 265.792H967.923L980.517 219.003H987.52ZM1015.38 216.926H1041.93V222.945H1015.38V216.926ZM1013.99 236.218H1043V242.29H1013.99V236.218ZM1031.24 219.559H1037.36V264.751H1031.24V219.559ZM1019.14 219.721H1025.16V237.937C1025.16 240.158 1025.07 242.505 1024.89 244.976C1024.72 247.413 1024.36 249.849 1023.82 252.285C1023.32 254.685 1022.57 256.995 1021.56 259.216C1020.6 261.438 1019.27 263.408 1017.59 265.127C1017.23 264.733 1016.76 264.303 1016.19 263.838C1015.62 263.372 1015.01 262.906 1014.36 262.441C1013.75 262.011 1013.22 261.67 1012.75 261.42C1014.18 259.843 1015.31 258.088 1016.14 256.154C1017 254.219 1017.64 252.195 1018.07 250.081C1018.5 247.932 1018.79 245.818 1018.93 243.741C1019.07 241.663 1019.14 239.71 1019.14 237.883V219.721ZM993.19 216.819H1012.8V222.622H993.19V216.819ZM999.262 233.37H1012.16V258.195H999.262V252.553H1006.68V239.066H999.262V233.37ZM999.477 219.667L1005.28 220.957C1004.64 224.36 1003.81 227.745 1002.81 231.113C1001.81 234.48 1000.61 237.633 999.209 240.57C997.811 243.508 996.181 246.087 994.319 248.308C994.247 247.735 994.086 246.965 993.835 245.997C993.584 245.03 993.298 244.063 992.975 243.096C992.653 242.093 992.348 241.287 992.062 240.678C993.96 238.134 995.501 235.017 996.683 231.328C997.865 227.638 998.797 223.751 999.477 219.667ZM996.468 233.37H1001.79V262.172H996.468V233.37ZM1053.32 242.666H1084.7V248.631H1053.32V242.666ZM1081.16 242.666H1087.93V256.1C1087.93 256.96 1088.02 257.497 1088.2 257.712C1088.37 257.927 1088.73 258.034 1089.27 258.034C1089.41 258.034 1089.61 258.034 1089.86 258.034C1090.11 258.034 1090.38 258.034 1090.67 258.034C1090.99 258.034 1091.28 258.034 1091.53 258.034C1091.81 258.034 1092.03 258.034 1092.17 258.034C1092.57 258.034 1092.87 257.873 1093.09 257.551C1093.3 257.192 1093.44 256.458 1093.51 255.347C1093.62 254.237 1093.71 252.553 1093.78 250.296C1094.25 250.69 1094.84 251.067 1095.56 251.425C1096.27 251.783 1097.03 252.105 1097.81 252.392C1098.6 252.679 1099.28 252.911 1099.86 253.091C1099.68 256.028 1099.32 258.321 1098.78 259.969C1098.28 261.617 1097.56 262.763 1096.63 263.408C1095.7 264.053 1094.45 264.375 1092.87 264.375C1092.58 264.375 1092.23 264.375 1091.8 264.375C1091.37 264.375 1090.92 264.375 1090.45 264.375C1089.99 264.375 1089.54 264.375 1089.11 264.375C1088.68 264.375 1088.34 264.375 1088.09 264.375C1086.33 264.375 1084.94 264.124 1083.9 263.623C1082.89 263.121 1082.18 262.279 1081.75 261.097C1081.35 259.915 1081.16 258.267 1081.16 256.154V242.666ZM1070.95 214.186H1077.61V222.73H1070.95V214.186ZM1064.44 223.267H1071.21C1070.96 225.56 1070.55 227.638 1069.98 229.501C1069.41 231.328 1068.49 232.958 1067.24 234.391C1065.98 235.823 1064.25 237.077 1062.03 238.152C1059.8 239.191 1056.92 240.051 1053.37 240.731C1053.09 239.943 1052.62 239.03 1051.98 237.991C1051.33 236.952 1050.69 236.128 1050.04 235.519C1053.09 235.017 1055.51 234.408 1057.3 233.692C1059.12 232.975 1060.52 232.134 1061.49 231.166C1062.46 230.163 1063.14 229.017 1063.53 227.727C1063.96 226.402 1064.26 224.915 1064.44 223.267ZM1077.02 223.536H1083.41V231.919C1083.41 232.635 1083.52 233.083 1083.74 233.262C1083.95 233.405 1084.45 233.477 1085.24 233.477C1085.42 233.477 1085.69 233.477 1086.05 233.477C1086.44 233.477 1086.87 233.477 1087.34 233.477C1087.8 233.477 1088.23 233.477 1088.62 233.477C1089.05 233.477 1089.38 233.477 1089.59 233.477C1090.02 233.477 1090.34 233.405 1090.56 233.262C1090.77 233.083 1090.94 232.725 1091.04 232.187C1091.15 231.65 1091.24 230.844 1091.31 229.769C1091.71 230.092 1092.23 230.414 1092.87 230.736C1093.55 231.023 1094.25 231.292 1094.97 231.543C1095.68 231.757 1096.33 231.919 1096.9 232.026C1096.69 233.925 1096.33 235.394 1095.83 236.432C1095.36 237.436 1094.68 238.152 1093.78 238.582C1092.89 238.976 1091.72 239.173 1090.29 239.173C1089.97 239.173 1089.52 239.173 1088.95 239.173C1088.41 239.173 1087.84 239.173 1087.23 239.173C1086.62 239.173 1086.05 239.173 1085.51 239.173C1084.97 239.173 1084.54 239.173 1084.22 239.173C1082.28 239.173 1080.78 238.958 1079.7 238.528C1078.67 238.062 1077.95 237.31 1077.56 236.271C1077.2 235.197 1077.02 233.764 1077.02 231.972V223.536ZM1051.12 218.915H1097.76V229.447H1090.99V224.664H1057.62V229.93H1051.12V218.915ZM1067.51 236.755H1073.96V243.794C1073.96 245.335 1073.81 246.893 1073.53 248.469C1073.24 250.046 1072.68 251.622 1071.86 253.198C1071.04 254.774 1069.87 256.297 1068.37 257.766C1066.86 259.199 1064.89 260.524 1062.46 261.742C1060.06 262.996 1057.08 264.071 1053.54 264.966C1053.07 264.178 1052.41 263.282 1051.55 262.279C1050.72 261.276 1049.95 260.417 1049.24 259.7C1052.42 258.912 1055.09 258.016 1057.24 257.013C1059.43 256.01 1061.2 254.971 1062.56 253.897C1063.92 252.786 1064.95 251.658 1065.63 250.511C1066.34 249.329 1066.83 248.165 1067.08 247.018C1067.36 245.836 1067.51 244.708 1067.51 243.633V236.755ZM1128.6 245.245H1147.2V249.759H1128.6V245.245ZM1121.94 217.947H1154.02V222.515H1121.94V217.947ZM1123.39 224.718H1152.57V229.017H1123.39V224.718ZM1120.28 231.274H1155.74V235.895H1120.28V231.274ZM1128.66 252.177H1147.25V256.691H1128.66V252.177ZM1123.88 237.991H1146.87V242.72H1129.84V264.751H1123.88V237.991ZM1145.96 237.991H1152.09V258.572C1152.09 259.969 1151.91 261.079 1151.55 261.903C1151.23 262.727 1150.56 263.354 1149.56 263.784C1148.63 264.214 1147.48 264.483 1146.12 264.59C1144.76 264.698 1143.13 264.733 1141.23 264.698C1141.12 263.909 1140.89 262.978 1140.53 261.903C1140.21 260.864 1139.87 259.969 1139.51 259.216C1140.62 259.288 1141.72 259.324 1142.79 259.324C1143.9 259.324 1144.64 259.324 1144.99 259.324C1145.64 259.324 1145.96 259.037 1145.96 258.464V237.991ZM1134.62 214.24H1141.02V232.832H1134.62V214.24ZM1111.46 214.24H1117.32V264.698H1111.46V214.24ZM1106.84 224.879L1111.36 225.47C1111.36 226.939 1111.25 228.587 1111.03 230.414C1110.85 232.241 1110.62 234.05 1110.33 235.841C1110.05 237.633 1109.71 239.227 1109.31 240.624L1104.64 239.012C1105.03 237.758 1105.37 236.325 1105.66 234.713C1105.95 233.065 1106.2 231.381 1106.41 229.662C1106.63 227.942 1106.77 226.348 1106.84 224.879ZM1116.41 223.267L1120.38 221.601C1120.99 222.819 1121.6 224.163 1122.21 225.632C1122.82 227.065 1123.27 228.283 1123.55 229.286L1119.31 231.328C1119.06 230.289 1118.65 228.999 1118.07 227.459C1117.5 225.918 1116.94 224.521 1116.41 223.267ZM1180.19 217.679H1211.04V222.676H1180.19V217.679ZM1179.01 226.76H1212.06V232.026H1179.01V226.76ZM1191.96 214.401H1198.3V221.01H1191.96V214.401ZM1200.07 221.709L1206.36 222.891C1205.82 223.858 1205.34 224.772 1204.91 225.632C1204.48 226.456 1204.09 227.172 1203.73 227.781L1198.14 226.706C1198.5 225.954 1198.86 225.112 1199.21 224.181C1199.57 223.249 1199.86 222.425 1200.07 221.709ZM1184.81 223.052L1190.4 221.87C1190.83 222.551 1191.21 223.339 1191.53 224.234C1191.89 225.13 1192.14 225.918 1192.28 226.599L1186.42 227.942C1186.35 227.262 1186.16 226.473 1185.83 225.578C1185.51 224.646 1185.17 223.805 1184.81 223.052ZM1188.09 244.493V247.233H1203.24V244.493H1188.09ZM1188.09 238.098V240.731H1203.24V238.098H1188.09ZM1182.02 234.068H1209.53V251.21H1182.02V234.068ZM1196.8 249.974H1202.92V257.497C1202.92 258.142 1202.97 258.554 1203.08 258.733C1203.23 258.912 1203.53 259.002 1204 259.002C1204.14 259.002 1204.37 259.002 1204.69 259.002C1205.05 259.002 1205.39 259.002 1205.72 259.002C1206.04 259.002 1206.29 259.002 1206.47 259.002C1206.79 259.002 1207.02 258.894 1207.17 258.679C1207.31 258.464 1207.42 258.034 1207.49 257.389C1207.6 256.745 1207.67 255.742 1207.7 254.38C1208.1 254.667 1208.6 254.971 1209.21 255.294C1209.85 255.58 1210.52 255.849 1211.2 256.1C1211.91 256.315 1212.54 256.494 1213.08 256.637C1212.9 258.715 1212.58 260.327 1212.11 261.473C1211.68 262.62 1211.05 263.408 1210.23 263.838C1209.44 264.268 1208.42 264.483 1207.17 264.483C1206.92 264.483 1206.59 264.483 1206.2 264.483C1205.84 264.483 1205.45 264.483 1205.02 264.483C1204.62 264.483 1204.25 264.483 1203.89 264.483C1203.53 264.483 1203.23 264.483 1202.97 264.483C1201.29 264.483 1200 264.25 1199.11 263.784C1198.21 263.354 1197.6 262.638 1197.28 261.635C1196.96 260.632 1196.8 259.27 1196.8 257.551V249.974ZM1186.96 249.705H1193.25C1193 251.532 1192.59 253.216 1192.01 254.756C1191.48 256.297 1190.67 257.694 1189.59 258.948C1188.52 260.202 1187.07 261.33 1185.24 262.333C1183.42 263.336 1181.1 264.196 1178.31 264.912C1178.13 264.375 1177.83 263.748 1177.4 263.032C1177 262.351 1176.57 261.688 1176.11 261.043C1175.68 260.399 1175.25 259.879 1174.82 259.485C1177.18 259.019 1179.12 258.482 1180.62 257.873C1182.13 257.228 1183.29 256.512 1184.11 255.724C1184.97 254.9 1185.62 254.004 1186.05 253.037C1186.48 252.034 1186.78 250.923 1186.96 249.705ZM1162.57 227.082H1178.74V233.101H1162.57V227.082ZM1167.89 215.046H1173.9V250.726H1167.89V215.046ZM1161.33 250.189C1162.83 249.651 1164.54 249.007 1166.43 248.254C1168.33 247.502 1170.36 246.678 1172.51 245.783C1174.66 244.887 1176.79 243.991 1178.9 243.096L1180.3 248.845C1177.47 250.171 1174.58 251.514 1171.65 252.876C1168.71 254.237 1166 255.491 1163.53 256.637L1161.33 250.189ZM876.456 306.793H889.944V311.468H876.456V306.793ZM876.242 315.068H890.32V319.797H876.242V315.068ZM880.648 303.246H885.645V317.862H880.648V303.246ZM871.996 297.228H894.243V302.655H871.996V297.228ZM879.09 322.591H889.837V336.831H879.09V332.264H885.215V327.159H879.09V322.591ZM876.564 322.591H881.131V338.766H876.564V322.591ZM891.879 297.228H897.843V338.551C897.843 340.091 897.682 341.327 897.36 342.258C897.073 343.226 896.464 343.978 895.533 344.515C894.637 345.017 893.509 345.339 892.147 345.483C890.786 345.626 889.138 345.698 887.204 345.698C887.132 345.124 887.007 344.444 886.827 343.656C886.648 342.903 886.433 342.151 886.183 341.399C885.968 340.646 885.717 339.984 885.43 339.41C886.541 339.446 887.633 339.464 888.708 339.464C889.819 339.464 890.571 339.464 890.965 339.464C891.323 339.464 891.556 339.393 891.664 339.249C891.807 339.106 891.879 338.837 891.879 338.443V297.228ZM868.826 297.228H874.683V317.379C874.683 319.492 874.629 321.803 874.522 324.311C874.414 326.818 874.182 329.362 873.823 331.941C873.501 334.52 873.017 337.028 872.373 339.464C871.728 341.9 870.886 344.068 869.847 345.966C869.525 345.608 869.041 345.196 868.396 344.73C867.787 344.3 867.142 343.871 866.462 343.441C865.817 343.011 865.279 342.706 864.85 342.527C866.103 340.163 866.999 337.53 867.536 334.628C868.109 331.69 868.468 328.717 868.611 325.708C868.754 322.699 868.826 319.922 868.826 317.379V297.228ZM851.093 311.736H865.387V316.626H851.093V311.736ZM851.469 296.959H865.279V301.795H851.469V296.959ZM851.093 319.098H865.387V323.935H851.093V319.098ZM848.89 304.16H866.784V309.265H848.89V304.16ZM854.049 326.514H865.333V342.796H854.049V337.745H860.174V331.565H854.049V326.514ZM850.932 326.514H855.983V344.999H850.932V326.514ZM909.289 324.687H951.848V329.792H909.289V324.687ZM906.495 297.98H931.374V302.333H906.495V297.98ZM930.783 332.317H947.549V336.992H930.783V332.317ZM906.065 339.733H955.233V344.945H906.065V339.733ZM927.291 326.783H933.631V342.205H927.291V326.783ZM916.167 295.24H921.756V323.612H916.167V295.24ZM913.964 331.565H920.144V342.688H913.964V331.565ZM912.728 307.921V310.823H925.356V307.921H912.728ZM907.731 304.16H930.622V314.584H907.731V304.16ZM921.971 313.671C922.401 313.85 923.01 314.155 923.798 314.584C924.622 314.979 925.499 315.426 926.431 315.928C927.362 316.394 928.204 316.823 928.956 317.218C929.744 317.612 930.318 317.916 930.676 318.131L927.559 322.161C927.058 321.731 926.431 321.248 925.678 320.71C924.962 320.173 924.174 319.618 923.314 319.045C922.49 318.471 921.684 317.934 920.896 317.432C920.108 316.895 919.445 316.465 918.908 316.143L921.971 313.671ZM937.232 295.293L942.981 296.637C942.05 299.753 940.778 302.727 939.166 305.557C937.554 308.387 935.727 310.733 933.685 312.596C933.399 312.202 933.004 311.719 932.503 311.145C932.001 310.572 931.482 310.017 930.945 309.48C930.407 308.906 929.924 308.459 929.494 308.136C931.321 306.632 932.879 304.751 934.169 302.494C935.494 300.237 936.515 297.837 937.232 295.293ZM937.339 300.774H954.964V305.772H934.867L937.339 300.774ZM945.991 303.085L951.902 303.622C950.684 309.068 948.516 313.384 945.4 316.573C942.283 319.761 938.217 322.233 933.201 323.988C932.987 323.558 932.664 323.057 932.234 322.484C931.84 321.91 931.392 321.337 930.891 320.764C930.425 320.155 929.995 319.689 929.601 319.367C934.187 318.113 937.841 316.179 940.563 313.564C943.322 310.948 945.131 307.456 945.991 303.085ZM938.36 303.676C939.148 305.718 940.295 307.76 941.799 309.802C943.304 311.844 945.22 313.689 947.549 315.337C949.877 316.949 952.654 318.167 955.878 318.991C955.305 319.564 954.66 320.352 953.943 321.355C953.263 322.358 952.725 323.254 952.331 324.042C949.036 322.931 946.188 321.391 943.787 319.421C941.423 317.45 939.435 315.301 937.823 312.972C936.246 310.608 935.046 308.279 934.222 305.987L938.36 303.676ZM915.63 312.919L919.606 314.638C918.782 315.749 917.779 316.895 916.597 318.077C915.451 319.26 914.215 320.352 912.889 321.355C911.564 322.358 910.274 323.182 909.02 323.827C908.626 323.218 908.071 322.519 907.355 321.731C906.638 320.943 905.993 320.316 905.42 319.851C906.638 319.349 907.874 318.74 909.128 318.024C910.417 317.271 911.635 316.447 912.782 315.552C913.928 314.656 914.878 313.778 915.63 312.919ZM994.299 323.29H1008.06V328.18H994.299V323.29ZM981.456 300.559H1005.05V305.718H981.456V300.559ZM976.298 323.29H989.785V328.18H976.298V323.29ZM961.735 308.781H979.307V314.638H961.735V308.781ZM967.646 295.24H973.826V345.698H967.646V295.24ZM988.119 323.29H993.224C993.224 323.29 993.224 323.558 993.224 324.096C993.224 324.597 993.206 325.027 993.171 325.385C993.099 329.398 992.992 332.676 992.848 335.219C992.741 337.727 992.58 339.643 992.365 340.969C992.15 342.294 991.845 343.208 991.451 343.709C991.057 344.318 990.627 344.748 990.161 344.999C989.696 345.25 989.14 345.429 988.496 345.536C987.994 345.644 987.367 345.698 986.615 345.698C985.863 345.733 985.039 345.751 984.143 345.751C984.107 344.963 983.982 344.103 983.767 343.172C983.552 342.241 983.265 341.434 982.907 340.754C983.516 340.79 984.053 340.825 984.519 340.861C985.021 340.897 985.433 340.915 985.755 340.915C986.042 340.915 986.275 340.879 986.454 340.808C986.669 340.7 986.848 340.521 986.991 340.27C987.206 339.984 987.367 339.303 987.475 338.228C987.618 337.118 987.743 335.434 987.851 333.177C987.958 330.92 988.048 327.911 988.119 324.149V323.29ZM1006.17 323.29H1011.44C1011.44 323.29 1011.44 323.558 1011.44 324.096C1011.44 324.633 1011.42 325.063 1011.39 325.385C1011.32 329.398 1011.21 332.658 1011.06 335.165C1010.92 337.637 1010.74 339.554 1010.53 340.915C1010.31 342.241 1010.01 343.154 1009.61 343.656C1009.18 344.265 1008.72 344.694 1008.22 344.945C1007.75 345.196 1007.21 345.393 1006.6 345.536C1006.03 345.644 1005.35 345.698 1004.56 345.698C1003.77 345.733 1002.93 345.751 1002.04 345.751C1002 344.927 1001.86 344.032 1001.61 343.064C1001.36 342.097 1001.05 341.273 1000.69 340.593C1001.34 340.664 1001.91 340.718 1002.41 340.754C1002.95 340.754 1003.38 340.754 1003.7 340.754C1004.03 340.754 1004.28 340.718 1004.46 340.646C1004.67 340.539 1004.85 340.36 1004.99 340.109C1005.21 339.822 1005.37 339.142 1005.48 338.067C1005.62 336.992 1005.74 335.344 1005.85 333.123C1005.96 330.866 1006.07 327.875 1006.17 324.149V323.29ZM1003.92 300.559H1009.78C1009.78 300.559 1009.76 300.846 1009.72 301.419C1009.72 301.957 1009.69 302.404 1009.61 302.763C1009.4 305.342 1009.17 307.491 1008.92 309.211C1008.7 310.895 1008.43 312.238 1008.11 313.241C1007.79 314.244 1007.41 314.996 1006.98 315.498C1006.44 316.107 1005.85 316.537 1005.21 316.788C1004.6 317.003 1003.9 317.146 1003.11 317.218C1002.47 317.325 1001.59 317.397 1000.48 317.432C999.404 317.432 998.24 317.415 996.986 317.379C996.95 316.519 996.789 315.588 996.502 314.584C996.216 313.581 995.84 312.722 995.374 312.005C996.413 312.077 997.398 312.131 998.329 312.166C999.261 312.202 999.941 312.22 1000.37 312.22C1000.77 312.22 1001.09 312.202 1001.34 312.166C1001.59 312.095 1001.84 311.934 1002.09 311.683C1002.48 311.289 1002.83 310.321 1003.11 308.781C1003.43 307.205 1003.7 304.715 1003.92 301.312V300.559ZM991.451 295.293H997.47C997.255 298.123 996.878 300.721 996.341 303.085C995.804 305.414 994.98 307.527 993.869 309.426C992.759 311.289 991.272 312.972 989.409 314.477C987.546 315.946 985.182 317.235 982.316 318.346C982.029 317.665 981.564 316.895 980.919 316.035C980.274 315.14 979.665 314.423 979.092 313.886C981.635 313.026 983.677 312.005 985.218 310.823C986.794 309.641 988.012 308.297 988.872 306.793C989.732 305.252 990.341 303.533 990.699 301.634C991.057 299.735 991.308 297.622 991.451 295.293ZM980.811 318.292H986.185C986.113 322.412 985.845 326.191 985.379 329.631C984.949 333.034 984.161 336.097 983.015 338.819C981.904 341.506 980.274 343.871 978.125 345.912C977.766 345.268 977.247 344.551 976.566 343.763C975.886 343.011 975.259 342.384 974.686 341.882C976.441 340.234 977.748 338.282 978.608 336.025C979.468 333.732 980.023 331.117 980.274 328.18C980.561 325.206 980.74 321.91 980.811 318.292ZM998.544 318.077H1004.08C1004.01 322.269 1003.74 326.066 1003.27 329.469C1002.81 332.873 1001.98 335.918 1000.8 338.604C999.655 341.255 997.953 343.584 995.696 345.59C995.374 344.945 994.854 344.229 994.138 343.441C993.457 342.652 992.794 342.008 992.15 341.506C994.013 339.894 995.374 337.96 996.234 335.703C997.129 333.446 997.72 330.849 998.007 327.911C998.329 324.973 998.508 321.696 998.544 318.077ZM1041.86 306.847H1063.35V312.972H1041.86V306.847ZM1060.77 306.847H1066.9C1066.9 306.847 1066.9 307.044 1066.9 307.438C1066.9 307.796 1066.9 308.208 1066.9 308.674C1066.9 309.103 1066.9 309.462 1066.9 309.748C1066.75 315.301 1066.61 320.012 1066.47 323.881C1066.36 327.714 1066.22 330.902 1066.04 333.446C1065.86 335.953 1065.61 337.906 1065.28 339.303C1064.96 340.7 1064.59 341.721 1064.16 342.366C1063.55 343.262 1062.88 343.906 1062.17 344.3C1061.49 344.694 1060.66 344.963 1059.7 345.106C1058.8 345.25 1057.69 345.321 1056.36 345.321C1055.07 345.357 1053.75 345.339 1052.39 345.268C1052.35 344.408 1052.15 343.369 1051.8 342.151C1051.44 340.969 1050.99 339.966 1050.45 339.142C1051.78 339.213 1053 339.267 1054.11 339.303C1055.22 339.339 1056.06 339.357 1056.63 339.357C1057.1 339.357 1057.47 339.303 1057.76 339.195C1058.08 339.052 1058.37 338.801 1058.62 338.443C1058.94 338.049 1059.21 337.225 1059.43 335.971C1059.64 334.682 1059.82 332.873 1059.96 330.544C1060.14 328.18 1060.29 325.17 1060.39 321.516C1060.54 317.827 1060.66 313.384 1060.77 308.19V306.847ZM1048.95 295.293H1055.29C1055.29 299.771 1055.24 304.07 1055.13 308.19C1055.02 312.31 1054.73 316.214 1054.27 319.904C1053.84 323.558 1053.1 326.98 1052.07 330.168C1051.06 333.356 1049.65 336.258 1047.82 338.873C1045.99 341.488 1043.63 343.781 1040.73 345.751C1040.26 344.963 1039.58 344.085 1038.68 343.118C1037.83 342.187 1037 341.434 1036.21 340.861C1038.9 339.106 1041.05 337.082 1042.66 334.789C1044.31 332.496 1045.58 329.935 1046.48 327.105C1047.37 324.275 1047.98 321.212 1048.3 317.916C1048.66 314.584 1048.86 311.038 1048.89 307.276C1048.93 303.479 1048.95 299.485 1048.95 295.293ZM1021.65 297.496H1040.4V332.586H1034.44V303.3H1027.35V335.971H1021.65V297.496ZM1017.84 333.876C1019.91 333.482 1022.3 333.034 1024.98 332.532C1027.7 331.995 1030.59 331.404 1033.63 330.759C1036.71 330.114 1039.74 329.469 1042.72 328.824L1043.36 334.574C1040.53 335.291 1037.66 336.007 1034.76 336.724C1031.86 337.404 1029.07 338.067 1026.38 338.712C1023.69 339.321 1021.22 339.912 1018.96 340.485L1017.84 333.876ZM1024.61 308.727H1037.45V314.37H1024.61V308.727ZM1024.61 319.851H1037.45V325.493H1024.61V319.851ZM1075.49 303.891H1124.23V310.017H1075.49V303.891ZM1093.44 317.056H1114.02V323.128H1093.44V317.056ZM1111.6 317.056H1118.27C1118.27 317.056 1118.25 317.235 1118.21 317.594C1118.21 317.916 1118.21 318.292 1118.21 318.722C1118.21 319.152 1118.18 319.528 1118.11 319.851C1117.78 324.758 1117.43 328.771 1117.03 331.887C1116.64 335.004 1116.19 337.44 1115.69 339.195C1115.19 340.915 1114.58 342.169 1113.86 342.957C1113.04 343.853 1112.18 344.462 1111.28 344.784C1110.39 345.106 1109.31 345.339 1108.06 345.483C1107.02 345.59 1105.66 345.626 1103.97 345.59C1102.29 345.59 1100.55 345.554 1098.76 345.483C1098.73 344.551 1098.49 343.476 1098.06 342.258C1097.63 341.076 1097.1 340.037 1096.45 339.142C1098.31 339.321 1100.1 339.428 1101.82 339.464C1103.54 339.5 1104.78 339.518 1105.53 339.518C1106.14 339.518 1106.64 339.482 1107.04 339.41C1107.47 339.303 1107.84 339.106 1108.17 338.819C1108.74 338.354 1109.22 337.333 1109.62 335.756C1110.05 334.18 1110.42 331.941 1110.74 329.039C1111.07 326.138 1111.35 322.466 1111.6 318.024V317.056ZM1091.02 307.545H1098.22C1098.08 310.411 1097.85 313.313 1097.53 316.25C1097.24 319.152 1096.74 322.036 1096.02 324.902C1095.3 327.732 1094.27 330.437 1092.9 333.016C1091.54 335.595 1089.75 337.995 1087.53 340.216C1085.31 342.438 1082.5 344.408 1079.09 346.127C1078.63 345.232 1077.95 344.265 1077.05 343.226C1076.19 342.187 1075.35 341.327 1074.53 340.646C1077.64 339.213 1080.19 337.548 1082.16 335.649C1084.16 333.714 1085.74 331.637 1086.89 329.416C1088.03 327.159 1088.87 324.812 1089.41 322.376C1089.98 319.94 1090.36 317.468 1090.54 314.961C1090.75 312.453 1090.92 309.981 1091.02 307.545ZM1096.18 295.025H1102.9V306.309H1096.18V295.025ZM1167.76 298.786L1172 295.24C1172.83 295.777 1173.69 296.404 1174.58 297.12C1175.51 297.837 1176.37 298.553 1177.16 299.27C1177.99 299.986 1178.65 300.631 1179.15 301.204L1174.58 305.127C1174.15 304.482 1173.54 303.801 1172.76 303.085C1172 302.333 1171.18 301.58 1170.28 300.828C1169.42 300.076 1168.58 299.395 1167.76 298.786ZM1132.13 304.428H1180.49V310.716H1132.13V304.428ZM1134.17 316.841H1157.44V323.075H1134.17V316.841ZM1142.29 320.388H1148.74V338.604H1142.29V320.388ZM1132.13 337.745C1134.28 337.386 1136.81 336.974 1139.71 336.509C1142.65 336.007 1145.74 335.47 1149 334.897C1152.3 334.323 1155.58 333.732 1158.84 333.123L1159.27 338.873C1156.33 339.518 1153.36 340.163 1150.35 340.808C1147.34 341.417 1144.44 342.008 1141.64 342.581C1138.85 343.19 1136.27 343.745 1133.9 344.247L1132.13 337.745ZM1158.57 295.455H1165.5C1165.39 299.897 1165.45 304.231 1165.66 308.459C1165.91 312.686 1166.31 316.644 1166.84 320.334C1167.38 324.024 1168.03 327.266 1168.78 330.06C1169.53 332.855 1170.36 335.04 1171.25 336.616C1172.18 338.192 1173.17 338.981 1174.21 338.981C1174.82 338.981 1175.26 338.21 1175.55 336.67C1175.87 335.129 1176.11 332.658 1176.25 329.254C1177 330.007 1177.9 330.741 1178.94 331.458C1180.01 332.174 1181 332.693 1181.89 333.016C1181.6 336.419 1181.12 339.052 1180.44 340.915C1179.8 342.742 1178.92 343.996 1177.81 344.677C1176.73 345.393 1175.34 345.751 1173.62 345.751C1171.68 345.751 1169.96 345.089 1168.46 343.763C1166.95 342.438 1165.64 340.611 1164.53 338.282C1163.42 335.918 1162.49 333.141 1161.74 329.953C1160.99 326.765 1160.38 323.308 1159.91 319.582C1159.45 315.82 1159.11 311.898 1158.89 307.814C1158.68 303.73 1158.57 299.61 1158.57 295.455Z" fill="#F4A400"/>
<defs>
<radialGradient id="paint0_radial_12_224" cx="0" cy="0" r="1" gradientTransform="matrix(966.756 -2.61403e-07 4.04427 244.149 977.793 297.727)" gradientUnits="userSpaceOnUse">
<stop stop-color="#FFDFE6"/>
<stop offset="0.870128" stop-color="white" stop-opacity="0"/>
</radialGradient>
</defs>
</svg>
