<svg width="1990" height="1218" viewBox="0 0 1990 1218" fill="none" xmlns="http://www.w3.org/2000/svg">
<rect width="1990" height="1218" fill="white"/>
<rect x="688" y="465" width="128" height="88" rx="6" stroke="#0D99FF" stroke-width="2" stroke-linecap="round"/>
<path d="M739.292 497.864H741.092V500.624H739.292V497.864ZM739.244 510.488H741.068V519.92H739.244V510.488ZM730.148 499.64H750.404V503.12H748.676V501.176H731.828V503.12H730.148V499.64ZM729.86 503.696H750.668V505.184H729.86V503.696ZM729.476 512.48H751.004V514.04H729.476V512.48ZM738.044 501.464L739.748 501.968C738.188 504.104 736.124 506.72 734.684 508.424L733.004 507.872C734.516 506.192 736.604 503.504 738.044 501.464ZM734.396 507.704L735.428 506.576C739.988 507.416 746.108 508.976 749.492 510.272L748.412 511.592C745.268 510.32 739.1 508.616 734.396 507.704ZM738.596 513.296L739.94 513.896C737.78 516.44 733.82 518.624 730.172 519.608C729.908 519.176 729.404 518.48 729.02 518.144C732.644 517.352 736.628 515.432 738.596 513.296ZM741.788 513.248C743.828 515.432 747.884 517.328 751.556 518.12C751.148 518.504 750.644 519.176 750.38 519.632C746.732 518.648 742.676 516.464 740.468 513.872L741.788 513.248ZM744.38 504.536H746.3C744.644 508.784 740.924 510.728 731.084 511.424C731.036 511.016 730.748 510.344 730.508 509.984C739.892 509.408 743.012 507.776 744.38 504.536ZM759.116 499.088H767.828V500.696H759.116V499.088ZM761.468 504.104H766.052V505.712H760.964L761.468 504.104ZM760.076 509.552L760.844 508.184C762.164 509.048 763.748 510.296 764.492 511.112L763.7 512.672C762.956 511.76 761.396 510.464 760.076 509.552ZM767.972 500.576H769.604V514.424H767.972V500.576ZM772.34 498.224H774.044V517.664C774.044 518.816 773.756 519.32 773.06 519.608C772.364 519.896 771.164 519.944 769.292 519.944C769.196 519.488 768.932 518.696 768.692 518.192C770.132 518.24 771.404 518.216 771.812 518.216C772.196 518.192 772.34 518.072 772.34 517.664V498.224ZM761.444 499.64L763.196 499.88C762.548 504.032 761.324 509.096 758.732 512.144C758.468 511.784 757.964 511.208 757.604 510.896C759.956 508.088 761.012 503.336 761.444 499.64ZM765.356 504.104H765.692L766.004 504.032L767.036 504.368C766.1 512.192 763.46 517.352 759.764 519.992C759.524 519.56 758.948 518.888 758.588 518.624C762.116 516.2 764.564 511.496 765.356 504.488V504.104ZM757.34 497.936L759.02 498.416C757.652 502.544 755.516 506.744 753.14 509.528C752.972 509.12 752.492 508.136 752.18 507.704C754.292 505.304 756.188 501.632 757.34 497.936ZM755.42 503.864L757.028 502.232L757.076 502.28V519.92H755.42V503.864Z" fill="black" fill-opacity="0.8"/>
<rect x="512" y="777" width="128" height="88" rx="6" stroke="#0D99FF" stroke-width="2" stroke-linecap="round"/>
<path d="M563.292 809.864H565.092V812.624H563.292V809.864ZM563.244 822.488H565.068V831.92H563.244V822.488ZM554.148 811.64H574.404V815.12H572.676V813.176H555.828V815.12H554.148V811.64ZM553.86 815.696H574.668V817.184H553.86V815.696ZM553.476 824.48H575.004V826.04H553.476V824.48ZM562.044 813.464L563.748 813.968C562.188 816.104 560.124 818.72 558.684 820.424L557.004 819.872C558.516 818.192 560.604 815.504 562.044 813.464ZM558.396 819.704L559.428 818.576C563.988 819.416 570.108 820.976 573.492 822.272L572.412 823.592C569.268 822.32 563.1 820.616 558.396 819.704ZM562.596 825.296L563.94 825.896C561.78 828.44 557.82 830.624 554.172 831.608C553.908 831.176 553.404 830.48 553.02 830.144C556.644 829.352 560.628 827.432 562.596 825.296ZM565.788 825.248C567.828 827.432 571.884 829.328 575.556 830.12C575.148 830.504 574.644 831.176 574.38 831.632C570.732 830.648 566.676 828.464 564.468 825.872L565.788 825.248ZM568.38 816.536H570.3C568.644 820.784 564.924 822.728 555.084 823.424C555.036 823.016 554.748 822.344 554.508 821.984C563.892 821.408 567.012 819.776 568.38 816.536ZM583.116 811.088H591.828V812.696H583.116V811.088ZM585.468 816.104H590.052V817.712H584.964L585.468 816.104ZM584.076 821.552L584.844 820.184C586.164 821.048 587.748 822.296 588.492 823.112L587.7 824.672C586.956 823.76 585.396 822.464 584.076 821.552ZM591.972 812.576H593.604V826.424H591.972V812.576ZM596.34 810.224H598.044V829.664C598.044 830.816 597.756 831.32 597.06 831.608C596.364 831.896 595.164 831.944 593.292 831.944C593.196 831.488 592.932 830.696 592.692 830.192C594.132 830.24 595.404 830.216 595.812 830.216C596.196 830.192 596.34 830.072 596.34 829.664V810.224ZM585.444 811.64L587.196 811.88C586.548 816.032 585.324 821.096 582.732 824.144C582.468 823.784 581.964 823.208 581.604 822.896C583.956 820.088 585.012 815.336 585.444 811.64ZM589.356 816.104H589.692L590.004 816.032L591.036 816.368C590.1 824.192 587.46 829.352 583.764 831.992C583.524 831.56 582.948 830.888 582.588 830.624C586.116 828.2 588.564 823.496 589.356 816.488V816.104ZM581.34 809.936L583.02 810.416C581.652 814.544 579.516 818.744 577.14 821.528C576.972 821.12 576.492 820.136 576.18 819.704C578.292 817.304 580.188 813.632 581.34 809.936ZM579.42 815.864L581.028 814.232L581.076 814.28V831.92H579.42V815.864Z" fill="black" fill-opacity="0.8"/>
<rect x="960" y="929" width="128" height="88" rx="6" stroke="#0D99FF" stroke-width="2" stroke-linecap="round"/>
<path d="M1011.29 961.864H1013.09V964.624H1011.29V961.864ZM1011.24 974.488H1013.07V983.92H1011.24V974.488ZM1002.15 963.64H1022.4V967.12H1020.68V965.176H1003.83V967.12H1002.15V963.64ZM1001.86 967.696H1022.67V969.184H1001.86V967.696ZM1001.48 976.48H1023V978.04H1001.48V976.48ZM1010.04 965.464L1011.75 965.968C1010.19 968.104 1008.12 970.72 1006.68 972.424L1005 971.872C1006.52 970.192 1008.6 967.504 1010.04 965.464ZM1006.4 971.704L1007.43 970.576C1011.99 971.416 1018.11 972.976 1021.49 974.272L1020.41 975.592C1017.27 974.32 1011.1 972.616 1006.4 971.704ZM1010.6 977.296L1011.94 977.896C1009.78 980.44 1005.82 982.624 1002.17 983.608C1001.91 983.176 1001.4 982.48 1001.02 982.144C1004.64 981.352 1008.63 979.432 1010.6 977.296ZM1013.79 977.248C1015.83 979.432 1019.88 981.328 1023.56 982.12C1023.15 982.504 1022.64 983.176 1022.38 983.632C1018.73 982.648 1014.68 980.464 1012.47 977.872L1013.79 977.248ZM1016.38 968.536H1018.3C1016.64 972.784 1012.92 974.728 1003.08 975.424C1003.04 975.016 1002.75 974.344 1002.51 973.984C1011.89 973.408 1015.01 971.776 1016.38 968.536ZM1031.12 963.088H1039.83V964.696H1031.12V963.088ZM1033.47 968.104H1038.05V969.712H1032.96L1033.47 968.104ZM1032.08 973.552L1032.84 972.184C1034.16 973.048 1035.75 974.296 1036.49 975.112L1035.7 976.672C1034.96 975.76 1033.4 974.464 1032.08 973.552ZM1039.97 964.576H1041.6V978.424H1039.97V964.576ZM1044.34 962.224H1046.04V981.664C1046.04 982.816 1045.76 983.32 1045.06 983.608C1044.36 983.896 1043.16 983.944 1041.29 983.944C1041.2 983.488 1040.93 982.696 1040.69 982.192C1042.13 982.24 1043.4 982.216 1043.81 982.216C1044.2 982.192 1044.34 982.072 1044.34 981.664V962.224ZM1033.44 963.64L1035.2 963.88C1034.55 968.032 1033.32 973.096 1030.73 976.144C1030.47 975.784 1029.96 975.208 1029.6 974.896C1031.96 972.088 1033.01 967.336 1033.44 963.64ZM1037.36 968.104H1037.69L1038 968.032L1039.04 968.368C1038.1 976.192 1035.46 981.352 1031.76 983.992C1031.52 983.56 1030.95 982.888 1030.59 982.624C1034.12 980.2 1036.56 975.496 1037.36 968.488V968.104ZM1029.34 961.936L1031.02 962.416C1029.65 966.544 1027.52 970.744 1025.14 973.528C1024.97 973.12 1024.49 972.136 1024.18 971.704C1026.29 969.304 1028.19 965.632 1029.34 961.936ZM1027.42 967.864L1029.03 966.232L1029.08 966.28V983.92H1027.42V967.864Z" fill="black" fill-opacity="0.8"/>
<rect x="1200" y="601" width="128" height="88" rx="6" stroke="#0D99FF" stroke-width="2" stroke-linecap="round"/>
<path d="M1251.29 633.864H1253.09V636.624H1251.29V633.864ZM1251.24 646.488H1253.07V655.92H1251.24V646.488ZM1242.15 635.64H1262.4V639.12H1260.68V637.176H1243.83V639.12H1242.15V635.64ZM1241.86 639.696H1262.67V641.184H1241.86V639.696ZM1241.48 648.48H1263V650.04H1241.48V648.48ZM1250.04 637.464L1251.75 637.968C1250.19 640.104 1248.12 642.72 1246.68 644.424L1245 643.872C1246.52 642.192 1248.6 639.504 1250.04 637.464ZM1246.4 643.704L1247.43 642.576C1251.99 643.416 1258.11 644.976 1261.49 646.272L1260.41 647.592C1257.27 646.32 1251.1 644.616 1246.4 643.704ZM1250.6 649.296L1251.94 649.896C1249.78 652.44 1245.82 654.624 1242.17 655.608C1241.91 655.176 1241.4 654.48 1241.02 654.144C1244.64 653.352 1248.63 651.432 1250.6 649.296ZM1253.79 649.248C1255.83 651.432 1259.88 653.328 1263.56 654.12C1263.15 654.504 1262.64 655.176 1262.38 655.632C1258.73 654.648 1254.68 652.464 1252.47 649.872L1253.79 649.248ZM1256.38 640.536H1258.3C1256.64 644.784 1252.92 646.728 1243.08 647.424C1243.04 647.016 1242.75 646.344 1242.51 645.984C1251.89 645.408 1255.01 643.776 1256.38 640.536ZM1271.12 635.088H1279.83V636.696H1271.12V635.088ZM1273.47 640.104H1278.05V641.712H1272.96L1273.47 640.104ZM1272.08 645.552L1272.84 644.184C1274.16 645.048 1275.75 646.296 1276.49 647.112L1275.7 648.672C1274.96 647.76 1273.4 646.464 1272.08 645.552ZM1279.97 636.576H1281.6V650.424H1279.97V636.576ZM1284.34 634.224H1286.04V653.664C1286.04 654.816 1285.76 655.32 1285.06 655.608C1284.36 655.896 1283.16 655.944 1281.29 655.944C1281.2 655.488 1280.93 654.696 1280.69 654.192C1282.13 654.24 1283.4 654.216 1283.81 654.216C1284.2 654.192 1284.34 654.072 1284.34 653.664V634.224ZM1273.44 635.64L1275.2 635.88C1274.55 640.032 1273.32 645.096 1270.73 648.144C1270.47 647.784 1269.96 647.208 1269.6 646.896C1271.96 644.088 1273.01 639.336 1273.44 635.64ZM1277.36 640.104H1277.69L1278 640.032L1279.04 640.368C1278.1 648.192 1275.46 653.352 1271.76 655.992C1271.52 655.56 1270.95 654.888 1270.59 654.624C1274.12 652.2 1276.56 647.496 1277.36 640.488V640.104ZM1269.34 633.936L1271.02 634.416C1269.65 638.544 1267.52 642.744 1265.14 645.528C1264.97 645.12 1264.49 644.136 1264.18 643.704C1266.29 641.304 1268.19 637.632 1269.34 633.936ZM1267.42 639.864L1269.03 638.232L1269.08 638.28V655.92H1267.42V639.864Z" fill="black" fill-opacity="0.8"/>
<rect x="736" y="665" width="128" height="88" rx="6" stroke="#0D99FF" stroke-width="2" stroke-linecap="round"/>
<path d="M787.292 697.864H789.092V700.624H787.292V697.864ZM787.244 710.488H789.068V719.92H787.244V710.488ZM778.148 699.64H798.404V703.12H796.676V701.176H779.828V703.12H778.148V699.64ZM777.86 703.696H798.668V705.184H777.86V703.696ZM777.476 712.48H799.004V714.04H777.476V712.48ZM786.044 701.464L787.748 701.968C786.188 704.104 784.124 706.72 782.684 708.424L781.004 707.872C782.516 706.192 784.604 703.504 786.044 701.464ZM782.396 707.704L783.428 706.576C787.988 707.416 794.108 708.976 797.492 710.272L796.412 711.592C793.268 710.32 787.1 708.616 782.396 707.704ZM786.596 713.296L787.94 713.896C785.78 716.44 781.82 718.624 778.172 719.608C777.908 719.176 777.404 718.48 777.02 718.144C780.644 717.352 784.628 715.432 786.596 713.296ZM789.788 713.248C791.828 715.432 795.884 717.328 799.556 718.12C799.148 718.504 798.644 719.176 798.38 719.632C794.732 718.648 790.676 716.464 788.468 713.872L789.788 713.248ZM792.38 704.536H794.3C792.644 708.784 788.924 710.728 779.084 711.424C779.036 711.016 778.748 710.344 778.508 709.984C787.892 709.408 791.012 707.776 792.38 704.536ZM807.116 699.088H815.828V700.696H807.116V699.088ZM809.468 704.104H814.052V705.712H808.964L809.468 704.104ZM808.076 709.552L808.844 708.184C810.164 709.048 811.748 710.296 812.492 711.112L811.7 712.672C810.956 711.76 809.396 710.464 808.076 709.552ZM815.972 700.576H817.604V714.424H815.972V700.576ZM820.34 698.224H822.044V717.664C822.044 718.816 821.756 719.32 821.06 719.608C820.364 719.896 819.164 719.944 817.292 719.944C817.196 719.488 816.932 718.696 816.692 718.192C818.132 718.24 819.404 718.216 819.812 718.216C820.196 718.192 820.34 718.072 820.34 717.664V698.224ZM809.444 699.64L811.196 699.88C810.548 704.032 809.324 709.096 806.732 712.144C806.468 711.784 805.964 711.208 805.604 710.896C807.956 708.088 809.012 703.336 809.444 699.64ZM813.356 704.104H813.692L814.004 704.032L815.036 704.368C814.1 712.192 811.46 717.352 807.764 719.992C807.524 719.56 806.948 718.888 806.588 718.624C810.116 716.2 812.564 711.496 813.356 704.488V704.104ZM805.34 697.936L807.02 698.416C805.652 702.544 803.516 706.744 801.14 709.528C800.972 709.12 800.492 708.136 800.18 707.704C802.292 705.304 804.188 701.632 805.34 697.936ZM803.42 703.864L805.028 702.232L805.076 702.28V719.92H803.42V703.864Z" fill="black" fill-opacity="0.8"/>
<rect x="1008" y="737" width="128" height="88" rx="6" stroke="#0D99FF" stroke-width="2" stroke-linecap="round"/>
<path d="M1059.29 769.864H1061.09V772.624H1059.29V769.864ZM1059.24 782.488H1061.07V791.92H1059.24V782.488ZM1050.15 771.64H1070.4V775.12H1068.68V773.176H1051.83V775.12H1050.15V771.64ZM1049.86 775.696H1070.67V777.184H1049.86V775.696ZM1049.48 784.48H1071V786.04H1049.48V784.48ZM1058.04 773.464L1059.75 773.968C1058.19 776.104 1056.12 778.72 1054.68 780.424L1053 779.872C1054.52 778.192 1056.6 775.504 1058.04 773.464ZM1054.4 779.704L1055.43 778.576C1059.99 779.416 1066.11 780.976 1069.49 782.272L1068.41 783.592C1065.27 782.32 1059.1 780.616 1054.4 779.704ZM1058.6 785.296L1059.94 785.896C1057.78 788.44 1053.82 790.624 1050.17 791.608C1049.91 791.176 1049.4 790.48 1049.02 790.144C1052.64 789.352 1056.63 787.432 1058.6 785.296ZM1061.79 785.248C1063.83 787.432 1067.88 789.328 1071.56 790.12C1071.15 790.504 1070.64 791.176 1070.38 791.632C1066.73 790.648 1062.68 788.464 1060.47 785.872L1061.79 785.248ZM1064.38 776.536H1066.3C1064.64 780.784 1060.92 782.728 1051.08 783.424C1051.04 783.016 1050.75 782.344 1050.51 781.984C1059.89 781.408 1063.01 779.776 1064.38 776.536ZM1079.12 771.088H1087.83V772.696H1079.12V771.088ZM1081.47 776.104H1086.05V777.712H1080.96L1081.47 776.104ZM1080.08 781.552L1080.84 780.184C1082.16 781.048 1083.75 782.296 1084.49 783.112L1083.7 784.672C1082.96 783.76 1081.4 782.464 1080.08 781.552ZM1087.97 772.576H1089.6V786.424H1087.97V772.576ZM1092.34 770.224H1094.04V789.664C1094.04 790.816 1093.76 791.32 1093.06 791.608C1092.36 791.896 1091.16 791.944 1089.29 791.944C1089.2 791.488 1088.93 790.696 1088.69 790.192C1090.13 790.24 1091.4 790.216 1091.81 790.216C1092.2 790.192 1092.34 790.072 1092.34 789.664V770.224ZM1081.44 771.64L1083.2 771.88C1082.55 776.032 1081.32 781.096 1078.73 784.144C1078.47 783.784 1077.96 783.208 1077.6 782.896C1079.96 780.088 1081.01 775.336 1081.44 771.64ZM1085.36 776.104H1085.69L1086 776.032L1087.04 776.368C1086.1 784.192 1083.46 789.352 1079.76 791.992C1079.52 791.56 1078.95 790.888 1078.59 790.624C1082.12 788.2 1084.56 783.496 1085.36 776.488V776.104ZM1077.34 769.936L1079.02 770.416C1077.65 774.544 1075.52 778.744 1073.14 781.528C1072.97 781.12 1072.49 780.136 1072.18 779.704C1074.29 777.304 1076.19 773.632 1077.34 769.936ZM1075.42 775.864L1077.03 774.232L1077.08 774.28V791.92H1075.42V775.864Z" fill="black" fill-opacity="0.8"/>
<rect x="1056" y="201" width="128" height="88" rx="6" stroke="#0D99FF" stroke-width="2" stroke-linecap="round"/>
<path d="M1107.29 233.864H1109.09V236.624H1107.29V233.864ZM1107.24 246.488H1109.07V255.92H1107.24V246.488ZM1098.15 235.64H1118.4V239.12H1116.68V237.176H1099.83V239.12H1098.15V235.64ZM1097.86 239.696H1118.67V241.184H1097.86V239.696ZM1097.48 248.48H1119V250.04H1097.48V248.48ZM1106.04 237.464L1107.75 237.968C1106.19 240.104 1104.12 242.72 1102.68 244.424L1101 243.872C1102.52 242.192 1104.6 239.504 1106.04 237.464ZM1102.4 243.704L1103.43 242.576C1107.99 243.416 1114.11 244.976 1117.49 246.272L1116.41 247.592C1113.27 246.32 1107.1 244.616 1102.4 243.704ZM1106.6 249.296L1107.94 249.896C1105.78 252.44 1101.82 254.624 1098.17 255.608C1097.91 255.176 1097.4 254.48 1097.02 254.144C1100.64 253.352 1104.63 251.432 1106.6 249.296ZM1109.79 249.248C1111.83 251.432 1115.88 253.328 1119.56 254.12C1119.15 254.504 1118.64 255.176 1118.38 255.632C1114.73 254.648 1110.68 252.464 1108.47 249.872L1109.79 249.248ZM1112.38 240.536H1114.3C1112.64 244.784 1108.92 246.728 1099.08 247.424C1099.04 247.016 1098.75 246.344 1098.51 245.984C1107.89 245.408 1111.01 243.776 1112.38 240.536ZM1127.12 235.088H1135.83V236.696H1127.12V235.088ZM1129.47 240.104H1134.05V241.712H1128.96L1129.47 240.104ZM1128.08 245.552L1128.84 244.184C1130.16 245.048 1131.75 246.296 1132.49 247.112L1131.7 248.672C1130.96 247.76 1129.4 246.464 1128.08 245.552ZM1135.97 236.576H1137.6V250.424H1135.97V236.576ZM1140.34 234.224H1142.04V253.664C1142.04 254.816 1141.76 255.32 1141.06 255.608C1140.36 255.896 1139.16 255.944 1137.29 255.944C1137.2 255.488 1136.93 254.696 1136.69 254.192C1138.13 254.24 1139.4 254.216 1139.81 254.216C1140.2 254.192 1140.34 254.072 1140.34 253.664V234.224ZM1129.44 235.64L1131.2 235.88C1130.55 240.032 1129.32 245.096 1126.73 248.144C1126.47 247.784 1125.96 247.208 1125.6 246.896C1127.96 244.088 1129.01 239.336 1129.44 235.64ZM1133.36 240.104H1133.69L1134 240.032L1135.04 240.368C1134.1 248.192 1131.46 253.352 1127.76 255.992C1127.52 255.56 1126.95 254.888 1126.59 254.624C1130.12 252.2 1132.56 247.496 1133.36 240.488V240.104ZM1125.34 233.936L1127.02 234.416C1125.65 238.544 1123.52 242.744 1121.14 245.528C1120.97 245.12 1120.49 244.136 1120.18 243.704C1122.29 241.304 1124.19 237.632 1125.34 233.936ZM1123.42 239.864L1125.03 238.232L1125.08 238.28V255.92H1123.42V239.864Z" fill="black" fill-opacity="0.8"/>
<rect x="920" y="345" width="128" height="88" rx="6" stroke="#0D99FF" stroke-width="2" stroke-linecap="round"/>
<path d="M971.292 377.864H973.092V380.624H971.292V377.864ZM971.244 390.488H973.068V399.92H971.244V390.488ZM962.148 379.64H982.404V383.12H980.676V381.176H963.828V383.12H962.148V379.64ZM961.86 383.696H982.668V385.184H961.86V383.696ZM961.476 392.48H983.004V394.04H961.476V392.48ZM970.044 381.464L971.748 381.968C970.188 384.104 968.124 386.72 966.684 388.424L965.004 387.872C966.516 386.192 968.604 383.504 970.044 381.464ZM966.396 387.704L967.428 386.576C971.988 387.416 978.108 388.976 981.492 390.272L980.412 391.592C977.268 390.32 971.1 388.616 966.396 387.704ZM970.596 393.296L971.94 393.896C969.78 396.44 965.82 398.624 962.172 399.608C961.908 399.176 961.404 398.48 961.02 398.144C964.644 397.352 968.628 395.432 970.596 393.296ZM973.788 393.248C975.828 395.432 979.884 397.328 983.556 398.12C983.148 398.504 982.644 399.176 982.38 399.632C978.732 398.648 974.676 396.464 972.468 393.872L973.788 393.248ZM976.38 384.536H978.3C976.644 388.784 972.924 390.728 963.084 391.424C963.036 391.016 962.748 390.344 962.508 389.984C971.892 389.408 975.012 387.776 976.38 384.536ZM991.116 379.088H999.828V380.696H991.116V379.088ZM993.468 384.104H998.052V385.712H992.964L993.468 384.104ZM992.076 389.552L992.844 388.184C994.164 389.048 995.748 390.296 996.492 391.112L995.7 392.672C994.956 391.76 993.396 390.464 992.076 389.552ZM999.972 380.576H1001.6V394.424H999.972V380.576ZM1004.34 378.224H1006.04V397.664C1006.04 398.816 1005.76 399.32 1005.06 399.608C1004.36 399.896 1003.16 399.944 1001.29 399.944C1001.2 399.488 1000.93 398.696 1000.69 398.192C1002.13 398.24 1003.4 398.216 1003.81 398.216C1004.2 398.192 1004.34 398.072 1004.34 397.664V378.224ZM993.444 379.64L995.196 379.88C994.548 384.032 993.324 389.096 990.732 392.144C990.468 391.784 989.964 391.208 989.604 390.896C991.956 388.088 993.012 383.336 993.444 379.64ZM997.356 384.104H997.692L998.004 384.032L999.036 384.368C998.1 392.192 995.46 397.352 991.764 399.992C991.524 399.56 990.948 398.888 990.588 398.624C994.116 396.2 996.564 391.496 997.356 384.488V384.104ZM989.34 377.936L991.02 378.416C989.652 382.544 987.516 386.744 985.14 389.528C984.972 389.12 984.492 388.136 984.18 387.704C986.292 385.304 988.188 381.632 989.34 377.936ZM987.42 383.864L989.028 382.232L989.076 382.28V399.92H987.42V383.864Z" fill="black" fill-opacity="0.8"/>
<rect x="1160" y="413" width="128" height="88" rx="6" stroke="#0D99FF" stroke-width="2" stroke-linecap="round"/>
<path d="M1211.29 445.864H1213.09V448.624H1211.29V445.864ZM1211.24 458.488H1213.07V467.92H1211.24V458.488ZM1202.15 447.64H1222.4V451.12H1220.68V449.176H1203.83V451.12H1202.15V447.64ZM1201.86 451.696H1222.67V453.184H1201.86V451.696ZM1201.48 460.48H1223V462.04H1201.48V460.48ZM1210.04 449.464L1211.75 449.968C1210.19 452.104 1208.12 454.72 1206.68 456.424L1205 455.872C1206.52 454.192 1208.6 451.504 1210.04 449.464ZM1206.4 455.704L1207.43 454.576C1211.99 455.416 1218.11 456.976 1221.49 458.272L1220.41 459.592C1217.27 458.32 1211.1 456.616 1206.4 455.704ZM1210.6 461.296L1211.94 461.896C1209.78 464.44 1205.82 466.624 1202.17 467.608C1201.91 467.176 1201.4 466.48 1201.02 466.144C1204.64 465.352 1208.63 463.432 1210.6 461.296ZM1213.79 461.248C1215.83 463.432 1219.88 465.328 1223.56 466.12C1223.15 466.504 1222.64 467.176 1222.38 467.632C1218.73 466.648 1214.68 464.464 1212.47 461.872L1213.79 461.248ZM1216.38 452.536H1218.3C1216.64 456.784 1212.92 458.728 1203.08 459.424C1203.04 459.016 1202.75 458.344 1202.51 457.984C1211.89 457.408 1215.01 455.776 1216.38 452.536ZM1231.12 447.088H1239.83V448.696H1231.12V447.088ZM1233.47 452.104H1238.05V453.712H1232.96L1233.47 452.104ZM1232.08 457.552L1232.84 456.184C1234.16 457.048 1235.75 458.296 1236.49 459.112L1235.7 460.672C1234.96 459.76 1233.4 458.464 1232.08 457.552ZM1239.97 448.576H1241.6V462.424H1239.97V448.576ZM1244.34 446.224H1246.04V465.664C1246.04 466.816 1245.76 467.32 1245.06 467.608C1244.36 467.896 1243.16 467.944 1241.29 467.944C1241.2 467.488 1240.93 466.696 1240.69 466.192C1242.13 466.24 1243.4 466.216 1243.81 466.216C1244.2 466.192 1244.34 466.072 1244.34 465.664V446.224ZM1233.44 447.64L1235.2 447.88C1234.55 452.032 1233.32 457.096 1230.73 460.144C1230.47 459.784 1229.96 459.208 1229.6 458.896C1231.96 456.088 1233.01 451.336 1233.44 447.64ZM1237.36 452.104H1237.69L1238 452.032L1239.04 452.368C1238.1 460.192 1235.46 465.352 1231.76 467.992C1231.52 467.56 1230.95 466.888 1230.59 466.624C1234.12 464.2 1236.56 459.496 1237.36 452.488V452.104ZM1229.34 445.936L1231.02 446.416C1229.65 450.544 1227.52 454.744 1225.14 457.528C1224.97 457.12 1224.49 456.136 1224.18 455.704C1226.29 453.304 1228.19 449.632 1229.34 445.936ZM1227.42 451.864L1229.03 450.232L1229.08 450.28V467.92H1227.42V451.864Z" fill="black" fill-opacity="0.8"/>
<rect x="1424" y="689" width="128" height="88" rx="6" stroke="#0D99FF" stroke-width="2" stroke-linecap="round"/>
<path d="M1475.29 721.864H1477.09V724.624H1475.29V721.864ZM1475.24 734.488H1477.07V743.92H1475.24V734.488ZM1466.15 723.64H1486.4V727.12H1484.68V725.176H1467.83V727.12H1466.15V723.64ZM1465.86 727.696H1486.67V729.184H1465.86V727.696ZM1465.48 736.48H1487V738.04H1465.48V736.48ZM1474.04 725.464L1475.75 725.968C1474.19 728.104 1472.12 730.72 1470.68 732.424L1469 731.872C1470.52 730.192 1472.6 727.504 1474.04 725.464ZM1470.4 731.704L1471.43 730.576C1475.99 731.416 1482.11 732.976 1485.49 734.272L1484.41 735.592C1481.27 734.32 1475.1 732.616 1470.4 731.704ZM1474.6 737.296L1475.94 737.896C1473.78 740.44 1469.82 742.624 1466.17 743.608C1465.91 743.176 1465.4 742.48 1465.02 742.144C1468.64 741.352 1472.63 739.432 1474.6 737.296ZM1477.79 737.248C1479.83 739.432 1483.88 741.328 1487.56 742.12C1487.15 742.504 1486.64 743.176 1486.38 743.632C1482.73 742.648 1478.68 740.464 1476.47 737.872L1477.79 737.248ZM1480.38 728.536H1482.3C1480.64 732.784 1476.92 734.728 1467.08 735.424C1467.04 735.016 1466.75 734.344 1466.51 733.984C1475.89 733.408 1479.01 731.776 1480.38 728.536ZM1495.12 723.088H1503.83V724.696H1495.12V723.088ZM1497.47 728.104H1502.05V729.712H1496.96L1497.47 728.104ZM1496.08 733.552L1496.84 732.184C1498.16 733.048 1499.75 734.296 1500.49 735.112L1499.7 736.672C1498.96 735.76 1497.4 734.464 1496.08 733.552ZM1503.97 724.576H1505.6V738.424H1503.97V724.576ZM1508.34 722.224H1510.04V741.664C1510.04 742.816 1509.76 743.32 1509.06 743.608C1508.36 743.896 1507.16 743.944 1505.29 743.944C1505.2 743.488 1504.93 742.696 1504.69 742.192C1506.13 742.24 1507.4 742.216 1507.81 742.216C1508.2 742.192 1508.34 742.072 1508.34 741.664V722.224ZM1497.44 723.64L1499.2 723.88C1498.55 728.032 1497.32 733.096 1494.73 736.144C1494.47 735.784 1493.96 735.208 1493.6 734.896C1495.96 732.088 1497.01 727.336 1497.44 723.64ZM1501.36 728.104H1501.69L1502 728.032L1503.04 728.368C1502.1 736.192 1499.46 741.352 1495.76 743.992C1495.52 743.56 1494.95 742.888 1494.59 742.624C1498.12 740.2 1500.56 735.496 1501.36 728.488V728.104ZM1493.34 721.936L1495.02 722.416C1493.65 726.544 1491.52 730.744 1489.14 733.528C1488.97 733.12 1488.49 732.136 1488.18 731.704C1490.29 729.304 1492.19 725.632 1493.34 721.936ZM1491.42 727.864L1493.03 726.232L1493.08 726.28V743.92H1491.42V727.864Z" fill="black" fill-opacity="0.8"/>
<rect x="480" y="345" width="128" height="88" rx="6" stroke="#0D99FF" stroke-width="2" stroke-linecap="round"/>
<path d="M531.292 377.864H533.092V380.624H531.292V377.864ZM531.244 390.488H533.068V399.92H531.244V390.488ZM522.148 379.64H542.404V383.12H540.676V381.176H523.828V383.12H522.148V379.64ZM521.86 383.696H542.668V385.184H521.86V383.696ZM521.476 392.48H543.004V394.04H521.476V392.48ZM530.044 381.464L531.748 381.968C530.188 384.104 528.124 386.72 526.684 388.424L525.004 387.872C526.516 386.192 528.604 383.504 530.044 381.464ZM526.396 387.704L527.428 386.576C531.988 387.416 538.108 388.976 541.492 390.272L540.412 391.592C537.268 390.32 531.1 388.616 526.396 387.704ZM530.596 393.296L531.94 393.896C529.78 396.44 525.82 398.624 522.172 399.608C521.908 399.176 521.404 398.48 521.02 398.144C524.644 397.352 528.628 395.432 530.596 393.296ZM533.788 393.248C535.828 395.432 539.884 397.328 543.556 398.12C543.148 398.504 542.644 399.176 542.38 399.632C538.732 398.648 534.676 396.464 532.468 393.872L533.788 393.248ZM536.38 384.536H538.3C536.644 388.784 532.924 390.728 523.084 391.424C523.036 391.016 522.748 390.344 522.508 389.984C531.892 389.408 535.012 387.776 536.38 384.536ZM551.116 379.088H559.828V380.696H551.116V379.088ZM553.468 384.104H558.052V385.712H552.964L553.468 384.104ZM552.076 389.552L552.844 388.184C554.164 389.048 555.748 390.296 556.492 391.112L555.7 392.672C554.956 391.76 553.396 390.464 552.076 389.552ZM559.972 380.576H561.604V394.424H559.972V380.576ZM564.34 378.224H566.044V397.664C566.044 398.816 565.756 399.32 565.06 399.608C564.364 399.896 563.164 399.944 561.292 399.944C561.196 399.488 560.932 398.696 560.692 398.192C562.132 398.24 563.404 398.216 563.812 398.216C564.196 398.192 564.34 398.072 564.34 397.664V378.224ZM553.444 379.64L555.196 379.88C554.548 384.032 553.324 389.096 550.732 392.144C550.468 391.784 549.964 391.208 549.604 390.896C551.956 388.088 553.012 383.336 553.444 379.64ZM557.356 384.104H557.692L558.004 384.032L559.036 384.368C558.1 392.192 555.46 397.352 551.764 399.992C551.524 399.56 550.948 398.888 550.588 398.624C554.116 396.2 556.564 391.496 557.356 384.488V384.104ZM549.34 377.936L551.02 378.416C549.652 382.544 547.516 386.744 545.14 389.528C544.972 389.12 544.492 388.136 544.18 387.704C546.292 385.304 548.188 381.632 549.34 377.936ZM547.42 383.864L549.028 382.232L549.076 382.28V399.92H547.42V383.864Z" fill="black" fill-opacity="0.8"/>
<rect x="720" y="201" width="128" height="88" rx="6" fill="#0D99FF"/>
<path d="M758.032 246.416L759.04 246.08C759.664 246.896 760.264 247.976 760.456 248.696L759.424 249.104C759.232 248.36 758.656 247.256 758.032 246.416ZM754.12 244.328L754.84 243.608C755.8 244.28 756.856 245.264 757.36 245.984L756.616 246.824C756.136 246.08 755.08 245.048 754.12 244.328ZM756.976 242.024L758.128 242.504C757.48 243.368 756.712 244.28 756.112 244.904L755.224 244.496C755.8 243.8 756.568 242.72 756.976 242.024ZM758.704 243.704L759.76 244.184C758.608 245.552 757.072 247.208 755.848 248.24L755.056 247.808C756.256 246.728 757.84 244.904 758.704 243.704ZM761.152 249.104H762.496V255.488H761.152V249.104ZM753.808 247.64C755.32 247.568 757.384 247.472 759.568 247.328V248.384C757.528 248.552 755.584 248.672 753.976 248.768L753.808 247.64ZM764.512 246.296L765.544 245.96C766.216 246.8 766.912 247.976 767.152 248.792L766.096 249.2C765.856 248.384 765.208 247.184 764.512 246.296ZM759.952 244.304L760.744 243.584C761.704 244.28 762.832 245.312 763.312 246.056L762.52 246.872C762.04 246.104 760.936 245.024 759.952 244.304ZM762.976 241.976L764.128 242.456C763.432 243.392 762.616 244.376 761.944 245.048L761.056 244.64C761.68 243.92 762.52 242.72 762.976 241.976ZM764.68 243.752L765.76 244.28C764.56 245.624 762.928 247.256 761.632 248.264L760.84 247.832C762.088 246.776 763.768 244.976 764.68 243.752ZM760.264 247.64C761.824 247.568 763.912 247.448 766.192 247.304V248.36C764.176 248.528 762.16 248.648 760.528 248.768L760.264 247.64ZM754.768 249.464H755.992V251.72H758.92V252.848H754.768V249.464ZM764.824 249.464H766.072V252.848H762.112V251.72H764.824V249.464ZM758.272 249.104H759.592V251.264C759.592 253.064 759.16 254.72 756.16 255.776C755.992 255.464 755.584 254.96 755.272 254.72C757.936 253.904 758.272 252.56 758.272 251.24V249.104ZM751.48 237.992H758.224V239.216H751.48V237.992ZM762.52 237.992H769.432V239.216H762.52V237.992ZM768.76 234.872H770.512V253.664C770.512 254.672 770.32 255.224 769.672 255.536C769.024 255.848 767.992 255.872 766.504 255.872C766.432 255.392 766.192 254.552 765.952 254.072C767.008 254.12 768.016 254.12 768.352 254.096C768.664 254.096 768.76 253.976 768.76 253.664V234.872ZM751.624 234.872H759.352V242.264H751.624V240.944H757.648V236.192H751.624V234.872ZM769.624 234.872V236.192H763.192V240.944H769.624V242.264H761.488V234.872H769.624ZM750.544 234.872H752.272V255.944H750.544V234.872ZM781.096 235.424H784.36V237.032H781.096V235.424ZM785.392 239.072H793.096V240.536H785.392V239.072ZM793.12 239H795.208V240.608H793.12V239ZM786.16 245.624H794.224V247.136H786.16V245.624ZM785.608 249.008H794.896V250.52H785.608V249.008ZM789.04 233.912H790.552V253.136H789.04V233.912ZM783.952 235.424H784.144L784.408 235.328L785.464 235.568C784.768 238.088 783.592 241.88 782.608 244.712L781.144 244.424C782.152 241.64 783.376 237.632 783.952 235.616V235.424ZM786.496 235.904H793.912V243.8H786.52V242.384H792.544V237.296H786.496V235.904ZM782.56 245.72C783.688 252.656 786.376 253.928 790.312 253.928C790.96 253.928 794.488 253.928 795.352 253.904C795.088 254.312 794.848 255.056 794.8 255.488H790.24C785.536 255.488 782.656 253.952 781.312 246.08L782.56 245.72ZM782.44 242.6H785.032V244.088H782.008L782.44 242.6ZM784.48 242.6H784.792L785.056 242.552L785.992 242.744C785.392 249.944 783.52 253.928 780.424 255.968C780.184 255.656 779.584 255.104 779.248 254.888C782.272 253.04 784 249.416 784.48 242.888V242.6ZM772.912 253.592C774.976 253.232 778.096 252.632 781.12 252.008L781.264 253.544C778.456 254.144 775.528 254.744 773.32 255.2L772.912 253.592ZM774.16 239.816H780.472V241.328H774.16V239.816ZM773.176 243.872H780.856V245.432H773.176V243.872ZM773.584 247.04L774.736 246.776C775.216 248.216 775.552 250.088 775.624 251.312L774.376 251.624C774.328 250.376 773.992 248.48 773.584 247.04ZM779.488 246.512L780.736 246.776C780.4 248.24 780.04 249.968 779.704 251.096L778.6 250.832C778.912 249.68 779.32 247.76 779.488 246.512ZM776.488 240.488H778V253.256L776.488 253.472V240.488ZM776.632 233.864H777.568V234.248H778.072V234.704C777.208 236.552 775.768 239.096 773.512 241.208C773.272 240.848 772.744 240.32 772.384 240.08C774.448 238.256 775.888 235.784 776.632 233.864ZM776.848 233.864H778.12C779.392 235.136 780.88 236.936 781.576 238.112L780.4 239.408C779.728 238.232 778.36 236.24 777.136 235.04H776.848V233.864ZM801.136 240.8H812.656V242.456H801.136V240.8ZM797.224 246.824H817.912V248.528H797.224V246.824ZM806.608 245.024H808.504V253.688C808.504 254.768 808.24 255.296 807.376 255.584C806.536 255.872 805.264 255.896 803.224 255.896C803.104 255.368 802.744 254.6 802.432 254.096C804.064 254.144 805.624 254.144 806.056 254.12C806.488 254.096 806.608 254 806.608 253.664V245.024ZM812.104 240.8H812.584L812.992 240.704L814.168 241.592C812.584 243.344 810.208 245.216 808 246.344C807.784 246.008 807.304 245.552 807.016 245.312C808.888 244.304 811.024 242.504 812.104 241.16V240.8ZM806.56 233.816H808.456V237.68H806.56V233.816ZM797.464 236.456H817.6V242.096H815.752V238.16H799.24V242.096H797.464V236.456Z" fill="white"/>
<rect x="384" y="553" width="128" height="88" rx="6" fill="#0D99FF"/>
<path d="M422.032 598.416L423.04 598.08C423.664 598.896 424.264 599.976 424.456 600.696L423.424 601.104C423.232 600.36 422.656 599.256 422.032 598.416ZM418.12 596.328L418.84 595.608C419.8 596.28 420.856 597.264 421.36 597.984L420.616 598.824C420.136 598.08 419.08 597.048 418.12 596.328ZM420.976 594.024L422.128 594.504C421.48 595.368 420.712 596.28 420.112 596.904L419.224 596.496C419.8 595.8 420.568 594.72 420.976 594.024ZM422.704 595.704L423.76 596.184C422.608 597.552 421.072 599.208 419.848 600.24L419.056 599.808C420.256 598.728 421.84 596.904 422.704 595.704ZM425.152 601.104H426.496V607.488H425.152V601.104ZM417.808 599.64C419.32 599.568 421.384 599.472 423.568 599.328V600.384C421.528 600.552 419.584 600.672 417.976 600.768L417.808 599.64ZM428.512 598.296L429.544 597.96C430.216 598.8 430.912 599.976 431.152 600.792L430.096 601.2C429.856 600.384 429.208 599.184 428.512 598.296ZM423.952 596.304L424.744 595.584C425.704 596.28 426.832 597.312 427.312 598.056L426.52 598.872C426.04 598.104 424.936 597.024 423.952 596.304ZM426.976 593.976L428.128 594.456C427.432 595.392 426.616 596.376 425.944 597.048L425.056 596.64C425.68 595.92 426.52 594.72 426.976 593.976ZM428.68 595.752L429.76 596.28C428.56 597.624 426.928 599.256 425.632 600.264L424.84 599.832C426.088 598.776 427.768 596.976 428.68 595.752ZM424.264 599.64C425.824 599.568 427.912 599.448 430.192 599.304V600.36C428.176 600.528 426.16 600.648 424.528 600.768L424.264 599.64ZM418.768 601.464H419.992V603.72H422.92V604.848H418.768V601.464ZM428.824 601.464H430.072V604.848H426.112V603.72H428.824V601.464ZM422.272 601.104H423.592V603.264C423.592 605.064 423.16 606.72 420.16 607.776C419.992 607.464 419.584 606.96 419.272 606.72C421.936 605.904 422.272 604.56 422.272 603.24V601.104ZM415.48 589.992H422.224V591.216H415.48V589.992ZM426.52 589.992H433.432V591.216H426.52V589.992ZM432.76 586.872H434.512V605.664C434.512 606.672 434.32 607.224 433.672 607.536C433.024 607.848 431.992 607.872 430.504 607.872C430.432 607.392 430.192 606.552 429.952 606.072C431.008 606.12 432.016 606.12 432.352 606.096C432.664 606.096 432.76 605.976 432.76 605.664V586.872ZM415.624 586.872H423.352V594.264H415.624V592.944H421.648V588.192H415.624V586.872ZM433.624 586.872V588.192H427.192V592.944H433.624V594.264H425.488V586.872H433.624ZM414.544 586.872H416.272V607.944H414.544V586.872ZM445.096 587.424H448.36V589.032H445.096V587.424ZM449.392 591.072H457.096V592.536H449.392V591.072ZM457.12 591H459.208V592.608H457.12V591ZM450.16 597.624H458.224V599.136H450.16V597.624ZM449.608 601.008H458.896V602.52H449.608V601.008ZM453.04 585.912H454.552V605.136H453.04V585.912ZM447.952 587.424H448.144L448.408 587.328L449.464 587.568C448.768 590.088 447.592 593.88 446.608 596.712L445.144 596.424C446.152 593.64 447.376 589.632 447.952 587.616V587.424ZM450.496 587.904H457.912V595.8H450.52V594.384H456.544V589.296H450.496V587.904ZM446.56 597.72C447.688 604.656 450.376 605.928 454.312 605.928C454.96 605.928 458.488 605.928 459.352 605.904C459.088 606.312 458.848 607.056 458.8 607.488H454.24C449.536 607.488 446.656 605.952 445.312 598.08L446.56 597.72ZM446.44 594.6H449.032V596.088H446.008L446.44 594.6ZM448.48 594.6H448.792L449.056 594.552L449.992 594.744C449.392 601.944 447.52 605.928 444.424 607.968C444.184 607.656 443.584 607.104 443.248 606.888C446.272 605.04 448 601.416 448.48 594.888V594.6ZM436.912 605.592C438.976 605.232 442.096 604.632 445.12 604.008L445.264 605.544C442.456 606.144 439.528 606.744 437.32 607.2L436.912 605.592ZM438.16 591.816H444.472V593.328H438.16V591.816ZM437.176 595.872H444.856V597.432H437.176V595.872ZM437.584 599.04L438.736 598.776C439.216 600.216 439.552 602.088 439.624 603.312L438.376 603.624C438.328 602.376 437.992 600.48 437.584 599.04ZM443.488 598.512L444.736 598.776C444.4 600.24 444.04 601.968 443.704 603.096L442.6 602.832C442.912 601.68 443.32 599.76 443.488 598.512ZM440.488 592.488H442V605.256L440.488 605.472V592.488ZM440.632 585.864H441.568V586.248H442.072V586.704C441.208 588.552 439.768 591.096 437.512 593.208C437.272 592.848 436.744 592.32 436.384 592.08C438.448 590.256 439.888 587.784 440.632 585.864ZM440.848 585.864H442.12C443.392 587.136 444.88 588.936 445.576 590.112L444.4 591.408C443.728 590.232 442.36 588.24 441.136 587.04H440.848V585.864ZM465.136 592.8H476.656V594.456H465.136V592.8ZM461.224 598.824H481.912V600.528H461.224V598.824ZM470.608 597.024H472.504V605.688C472.504 606.768 472.24 607.296 471.376 607.584C470.536 607.872 469.264 607.896 467.224 607.896C467.104 607.368 466.744 606.6 466.432 606.096C468.064 606.144 469.624 606.144 470.056 606.12C470.488 606.096 470.608 606 470.608 605.664V597.024ZM476.104 592.8H476.584L476.992 592.704L478.168 593.592C476.584 595.344 474.208 597.216 472 598.344C471.784 598.008 471.304 597.552 471.016 597.312C472.888 596.304 475.024 594.504 476.104 593.16V592.8ZM470.56 585.816H472.456V589.68H470.56V585.816ZM461.464 588.456H481.6V594.096H479.752V590.16H463.24V594.096H461.464V588.456Z" fill="white"/>
<rect x="928" y="561" width="128" height="88" rx="6" fill="#0D99FF"/>
<path d="M966.032 606.416L967.04 606.08C967.664 606.896 968.264 607.976 968.456 608.696L967.424 609.104C967.232 608.36 966.656 607.256 966.032 606.416ZM962.12 604.328L962.84 603.608C963.8 604.28 964.856 605.264 965.36 605.984L964.616 606.824C964.136 606.08 963.08 605.048 962.12 604.328ZM964.976 602.024L966.128 602.504C965.48 603.368 964.712 604.28 964.112 604.904L963.224 604.496C963.8 603.8 964.568 602.72 964.976 602.024ZM966.704 603.704L967.76 604.184C966.608 605.552 965.072 607.208 963.848 608.24L963.056 607.808C964.256 606.728 965.84 604.904 966.704 603.704ZM969.152 609.104H970.496V615.488H969.152V609.104ZM961.808 607.64C963.32 607.568 965.384 607.472 967.568 607.328V608.384C965.528 608.552 963.584 608.672 961.976 608.768L961.808 607.64ZM972.512 606.296L973.544 605.96C974.216 606.8 974.912 607.976 975.152 608.792L974.096 609.2C973.856 608.384 973.208 607.184 972.512 606.296ZM967.952 604.304L968.744 603.584C969.704 604.28 970.832 605.312 971.312 606.056L970.52 606.872C970.04 606.104 968.936 605.024 967.952 604.304ZM970.976 601.976L972.128 602.456C971.432 603.392 970.616 604.376 969.944 605.048L969.056 604.64C969.68 603.92 970.52 602.72 970.976 601.976ZM972.68 603.752L973.76 604.28C972.56 605.624 970.928 607.256 969.632 608.264L968.84 607.832C970.088 606.776 971.768 604.976 972.68 603.752ZM968.264 607.64C969.824 607.568 971.912 607.448 974.192 607.304V608.36C972.176 608.528 970.16 608.648 968.528 608.768L968.264 607.64ZM962.768 609.464H963.992V611.72H966.92V612.848H962.768V609.464ZM972.824 609.464H974.072V612.848H970.112V611.72H972.824V609.464ZM966.272 609.104H967.592V611.264C967.592 613.064 967.16 614.72 964.16 615.776C963.992 615.464 963.584 614.96 963.272 614.72C965.936 613.904 966.272 612.56 966.272 611.24V609.104ZM959.48 597.992H966.224V599.216H959.48V597.992ZM970.52 597.992H977.432V599.216H970.52V597.992ZM976.76 594.872H978.512V613.664C978.512 614.672 978.32 615.224 977.672 615.536C977.024 615.848 975.992 615.872 974.504 615.872C974.432 615.392 974.192 614.552 973.952 614.072C975.008 614.12 976.016 614.12 976.352 614.096C976.664 614.096 976.76 613.976 976.76 613.664V594.872ZM959.624 594.872H967.352V602.264H959.624V600.944H965.648V596.192H959.624V594.872ZM977.624 594.872V596.192H971.192V600.944H977.624V602.264H969.488V594.872H977.624ZM958.544 594.872H960.272V615.944H958.544V594.872ZM989.096 595.424H992.36V597.032H989.096V595.424ZM993.392 599.072H1001.1V600.536H993.392V599.072ZM1001.12 599H1003.21V600.608H1001.12V599ZM994.16 605.624H1002.22V607.136H994.16V605.624ZM993.608 609.008H1002.9V610.52H993.608V609.008ZM997.04 593.912H998.552V613.136H997.04V593.912ZM991.952 595.424H992.144L992.408 595.328L993.464 595.568C992.768 598.088 991.592 601.88 990.608 604.712L989.144 604.424C990.152 601.64 991.376 597.632 991.952 595.616V595.424ZM994.496 595.904H1001.91V603.8H994.52V602.384H1000.54V597.296H994.496V595.904ZM990.56 605.72C991.688 612.656 994.376 613.928 998.312 613.928C998.96 613.928 1002.49 613.928 1003.35 613.904C1003.09 614.312 1002.85 615.056 1002.8 615.488H998.24C993.536 615.488 990.656 613.952 989.312 606.08L990.56 605.72ZM990.44 602.6H993.032V604.088H990.008L990.44 602.6ZM992.48 602.6H992.792L993.056 602.552L993.992 602.744C993.392 609.944 991.52 613.928 988.424 615.968C988.184 615.656 987.584 615.104 987.248 614.888C990.272 613.04 992 609.416 992.48 602.888V602.6ZM980.912 613.592C982.976 613.232 986.096 612.632 989.12 612.008L989.264 613.544C986.456 614.144 983.528 614.744 981.32 615.2L980.912 613.592ZM982.16 599.816H988.472V601.328H982.16V599.816ZM981.176 603.872H988.856V605.432H981.176V603.872ZM981.584 607.04L982.736 606.776C983.216 608.216 983.552 610.088 983.624 611.312L982.376 611.624C982.328 610.376 981.992 608.48 981.584 607.04ZM987.488 606.512L988.736 606.776C988.4 608.24 988.04 609.968 987.704 611.096L986.6 610.832C986.912 609.68 987.32 607.76 987.488 606.512ZM984.488 600.488H986V613.256L984.488 613.472V600.488ZM984.632 593.864H985.568V594.248H986.072V594.704C985.208 596.552 983.768 599.096 981.512 601.208C981.272 600.848 980.744 600.32 980.384 600.08C982.448 598.256 983.888 595.784 984.632 593.864ZM984.848 593.864H986.12C987.392 595.136 988.88 596.936 989.576 598.112L988.4 599.408C987.728 598.232 986.36 596.24 985.136 595.04H984.848V593.864ZM1009.14 600.8H1020.66V602.456H1009.14V600.8ZM1005.22 606.824H1025.91V608.528H1005.22V606.824ZM1014.61 605.024H1016.5V613.688C1016.5 614.768 1016.24 615.296 1015.38 615.584C1014.54 615.872 1013.26 615.896 1011.22 615.896C1011.1 615.368 1010.74 614.6 1010.43 614.096C1012.06 614.144 1013.62 614.144 1014.06 614.12C1014.49 614.096 1014.61 614 1014.61 613.664V605.024ZM1020.1 600.8H1020.58L1020.99 600.704L1022.17 601.592C1020.58 603.344 1018.21 605.216 1016 606.344C1015.78 606.008 1015.3 605.552 1015.02 605.312C1016.89 604.304 1019.02 602.504 1020.1 601.16V600.8ZM1014.56 593.816H1016.46V597.68H1014.56V593.816ZM1005.46 596.456H1025.6V602.096H1023.75V598.16H1007.24V602.096H1005.46V596.456Z" fill="white"/>
<rect x="720" y="865" width="128" height="88" rx="6" fill="#0D99FF"/>
<path d="M758.032 910.416L759.04 910.08C759.664 910.896 760.264 911.976 760.456 912.696L759.424 913.104C759.232 912.36 758.656 911.256 758.032 910.416ZM754.12 908.328L754.84 907.608C755.8 908.28 756.856 909.264 757.36 909.984L756.616 910.824C756.136 910.08 755.08 909.048 754.12 908.328ZM756.976 906.024L758.128 906.504C757.48 907.368 756.712 908.28 756.112 908.904L755.224 908.496C755.8 907.8 756.568 906.72 756.976 906.024ZM758.704 907.704L759.76 908.184C758.608 909.552 757.072 911.208 755.848 912.24L755.056 911.808C756.256 910.728 757.84 908.904 758.704 907.704ZM761.152 913.104H762.496V919.488H761.152V913.104ZM753.808 911.64C755.32 911.568 757.384 911.472 759.568 911.328V912.384C757.528 912.552 755.584 912.672 753.976 912.768L753.808 911.64ZM764.512 910.296L765.544 909.96C766.216 910.8 766.912 911.976 767.152 912.792L766.096 913.2C765.856 912.384 765.208 911.184 764.512 910.296ZM759.952 908.304L760.744 907.584C761.704 908.28 762.832 909.312 763.312 910.056L762.52 910.872C762.04 910.104 760.936 909.024 759.952 908.304ZM762.976 905.976L764.128 906.456C763.432 907.392 762.616 908.376 761.944 909.048L761.056 908.64C761.68 907.92 762.52 906.72 762.976 905.976ZM764.68 907.752L765.76 908.28C764.56 909.624 762.928 911.256 761.632 912.264L760.84 911.832C762.088 910.776 763.768 908.976 764.68 907.752ZM760.264 911.64C761.824 911.568 763.912 911.448 766.192 911.304V912.36C764.176 912.528 762.16 912.648 760.528 912.768L760.264 911.64ZM754.768 913.464H755.992V915.72H758.92V916.848H754.768V913.464ZM764.824 913.464H766.072V916.848H762.112V915.72H764.824V913.464ZM758.272 913.104H759.592V915.264C759.592 917.064 759.16 918.72 756.16 919.776C755.992 919.464 755.584 918.96 755.272 918.72C757.936 917.904 758.272 916.56 758.272 915.24V913.104ZM751.48 901.992H758.224V903.216H751.48V901.992ZM762.52 901.992H769.432V903.216H762.52V901.992ZM768.76 898.872H770.512V917.664C770.512 918.672 770.32 919.224 769.672 919.536C769.024 919.848 767.992 919.872 766.504 919.872C766.432 919.392 766.192 918.552 765.952 918.072C767.008 918.12 768.016 918.12 768.352 918.096C768.664 918.096 768.76 917.976 768.76 917.664V898.872ZM751.624 898.872H759.352V906.264H751.624V904.944H757.648V900.192H751.624V898.872ZM769.624 898.872V900.192H763.192V904.944H769.624V906.264H761.488V898.872H769.624ZM750.544 898.872H752.272V919.944H750.544V898.872ZM781.096 899.424H784.36V901.032H781.096V899.424ZM785.392 903.072H793.096V904.536H785.392V903.072ZM793.12 903H795.208V904.608H793.12V903ZM786.16 909.624H794.224V911.136H786.16V909.624ZM785.608 913.008H794.896V914.52H785.608V913.008ZM789.04 897.912H790.552V917.136H789.04V897.912ZM783.952 899.424H784.144L784.408 899.328L785.464 899.568C784.768 902.088 783.592 905.88 782.608 908.712L781.144 908.424C782.152 905.64 783.376 901.632 783.952 899.616V899.424ZM786.496 899.904H793.912V907.8H786.52V906.384H792.544V901.296H786.496V899.904ZM782.56 909.72C783.688 916.656 786.376 917.928 790.312 917.928C790.96 917.928 794.488 917.928 795.352 917.904C795.088 918.312 794.848 919.056 794.8 919.488H790.24C785.536 919.488 782.656 917.952 781.312 910.08L782.56 909.72ZM782.44 906.6H785.032V908.088H782.008L782.44 906.6ZM784.48 906.6H784.792L785.056 906.552L785.992 906.744C785.392 913.944 783.52 917.928 780.424 919.968C780.184 919.656 779.584 919.104 779.248 918.888C782.272 917.04 784 913.416 784.48 906.888V906.6ZM772.912 917.592C774.976 917.232 778.096 916.632 781.12 916.008L781.264 917.544C778.456 918.144 775.528 918.744 773.32 919.2L772.912 917.592ZM774.16 903.816H780.472V905.328H774.16V903.816ZM773.176 907.872H780.856V909.432H773.176V907.872ZM773.584 911.04L774.736 910.776C775.216 912.216 775.552 914.088 775.624 915.312L774.376 915.624C774.328 914.376 773.992 912.48 773.584 911.04ZM779.488 910.512L780.736 910.776C780.4 912.24 780.04 913.968 779.704 915.096L778.6 914.832C778.912 913.68 779.32 911.76 779.488 910.512ZM776.488 904.488H778V917.256L776.488 917.472V904.488ZM776.632 897.864H777.568V898.248H778.072V898.704C777.208 900.552 775.768 903.096 773.512 905.208C773.272 904.848 772.744 904.32 772.384 904.08C774.448 902.256 775.888 899.784 776.632 897.864ZM776.848 897.864H778.12C779.392 899.136 780.88 900.936 781.576 902.112L780.4 903.408C779.728 902.232 778.36 900.24 777.136 899.04H776.848V897.864ZM801.136 904.8H812.656V906.456H801.136V904.8ZM797.224 910.824H817.912V912.528H797.224V910.824ZM806.608 909.024H808.504V917.688C808.504 918.768 808.24 919.296 807.376 919.584C806.536 919.872 805.264 919.896 803.224 919.896C803.104 919.368 802.744 918.6 802.432 918.096C804.064 918.144 805.624 918.144 806.056 918.12C806.488 918.096 806.608 918 806.608 917.664V909.024ZM812.104 904.8H812.584L812.992 904.704L814.168 905.592C812.584 907.344 810.208 909.216 808 910.344C807.784 910.008 807.304 909.552 807.016 909.312C808.888 908.304 811.024 906.504 812.104 905.16V904.8ZM806.56 897.816H808.456V901.68H806.56V897.816ZM797.464 900.456H817.6V906.096H815.752V902.16H799.24V906.096H797.464V900.456Z" fill="white"/>
<rect x="1232" y="865" width="128" height="88" rx="6" fill="#0D99FF"/>
<path d="M1270.03 910.416L1271.04 910.08C1271.66 910.896 1272.26 911.976 1272.46 912.696L1271.42 913.104C1271.23 912.36 1270.66 911.256 1270.03 910.416ZM1266.12 908.328L1266.84 907.608C1267.8 908.28 1268.86 909.264 1269.36 909.984L1268.62 910.824C1268.14 910.08 1267.08 909.048 1266.12 908.328ZM1268.98 906.024L1270.13 906.504C1269.48 907.368 1268.71 908.28 1268.11 908.904L1267.22 908.496C1267.8 907.8 1268.57 906.72 1268.98 906.024ZM1270.7 907.704L1271.76 908.184C1270.61 909.552 1269.07 911.208 1267.85 912.24L1267.06 911.808C1268.26 910.728 1269.84 908.904 1270.7 907.704ZM1273.15 913.104H1274.5V919.488H1273.15V913.104ZM1265.81 911.64C1267.32 911.568 1269.38 911.472 1271.57 911.328V912.384C1269.53 912.552 1267.58 912.672 1265.98 912.768L1265.81 911.64ZM1276.51 910.296L1277.54 909.96C1278.22 910.8 1278.91 911.976 1279.15 912.792L1278.1 913.2C1277.86 912.384 1277.21 911.184 1276.51 910.296ZM1271.95 908.304L1272.74 907.584C1273.7 908.28 1274.83 909.312 1275.31 910.056L1274.52 910.872C1274.04 910.104 1272.94 909.024 1271.95 908.304ZM1274.98 905.976L1276.13 906.456C1275.43 907.392 1274.62 908.376 1273.94 909.048L1273.06 908.64C1273.68 907.92 1274.52 906.72 1274.98 905.976ZM1276.68 907.752L1277.76 908.28C1276.56 909.624 1274.93 911.256 1273.63 912.264L1272.84 911.832C1274.09 910.776 1275.77 908.976 1276.68 907.752ZM1272.26 911.64C1273.82 911.568 1275.91 911.448 1278.19 911.304V912.36C1276.18 912.528 1274.16 912.648 1272.53 912.768L1272.26 911.64ZM1266.77 913.464H1267.99V915.72H1270.92V916.848H1266.77V913.464ZM1276.82 913.464H1278.07V916.848H1274.11V915.72H1276.82V913.464ZM1270.27 913.104H1271.59V915.264C1271.59 917.064 1271.16 918.72 1268.16 919.776C1267.99 919.464 1267.58 918.96 1267.27 918.72C1269.94 917.904 1270.27 916.56 1270.27 915.24V913.104ZM1263.48 901.992H1270.22V903.216H1263.48V901.992ZM1274.52 901.992H1281.43V903.216H1274.52V901.992ZM1280.76 898.872H1282.51V917.664C1282.51 918.672 1282.32 919.224 1281.67 919.536C1281.02 919.848 1279.99 919.872 1278.5 919.872C1278.43 919.392 1278.19 918.552 1277.95 918.072C1279.01 918.12 1280.02 918.12 1280.35 918.096C1280.66 918.096 1280.76 917.976 1280.76 917.664V898.872ZM1263.62 898.872H1271.35V906.264H1263.62V904.944H1269.65V900.192H1263.62V898.872ZM1281.62 898.872V900.192H1275.19V904.944H1281.62V906.264H1273.49V898.872H1281.62ZM1262.54 898.872H1264.27V919.944H1262.54V898.872ZM1293.1 899.424H1296.36V901.032H1293.1V899.424ZM1297.39 903.072H1305.1V904.536H1297.39V903.072ZM1305.12 903H1307.21V904.608H1305.12V903ZM1298.16 909.624H1306.22V911.136H1298.16V909.624ZM1297.61 913.008H1306.9V914.52H1297.61V913.008ZM1301.04 897.912H1302.55V917.136H1301.04V897.912ZM1295.95 899.424H1296.14L1296.41 899.328L1297.46 899.568C1296.77 902.088 1295.59 905.88 1294.61 908.712L1293.14 908.424C1294.15 905.64 1295.38 901.632 1295.95 899.616V899.424ZM1298.5 899.904H1305.91V907.8H1298.52V906.384H1304.54V901.296H1298.5V899.904ZM1294.56 909.72C1295.69 916.656 1298.38 917.928 1302.31 917.928C1302.96 917.928 1306.49 917.928 1307.35 917.904C1307.09 918.312 1306.85 919.056 1306.8 919.488H1302.24C1297.54 919.488 1294.66 917.952 1293.31 910.08L1294.56 909.72ZM1294.44 906.6H1297.03V908.088H1294.01L1294.44 906.6ZM1296.48 906.6H1296.79L1297.06 906.552L1297.99 906.744C1297.39 913.944 1295.52 917.928 1292.42 919.968C1292.18 919.656 1291.58 919.104 1291.25 918.888C1294.27 917.04 1296 913.416 1296.48 906.888V906.6ZM1284.91 917.592C1286.98 917.232 1290.1 916.632 1293.12 916.008L1293.26 917.544C1290.46 918.144 1287.53 918.744 1285.32 919.2L1284.91 917.592ZM1286.16 903.816H1292.47V905.328H1286.16V903.816ZM1285.18 907.872H1292.86V909.432H1285.18V907.872ZM1285.58 911.04L1286.74 910.776C1287.22 912.216 1287.55 914.088 1287.62 915.312L1286.38 915.624C1286.33 914.376 1285.99 912.48 1285.58 911.04ZM1291.49 910.512L1292.74 910.776C1292.4 912.24 1292.04 913.968 1291.7 915.096L1290.6 914.832C1290.91 913.68 1291.32 911.76 1291.49 910.512ZM1288.49 904.488H1290V917.256L1288.49 917.472V904.488ZM1288.63 897.864H1289.57V898.248H1290.07V898.704C1289.21 900.552 1287.77 903.096 1285.51 905.208C1285.27 904.848 1284.74 904.32 1284.38 904.08C1286.45 902.256 1287.89 899.784 1288.63 897.864ZM1288.85 897.864H1290.12C1291.39 899.136 1292.88 900.936 1293.58 902.112L1292.4 903.408C1291.73 902.232 1290.36 900.24 1289.14 899.04H1288.85V897.864ZM1313.14 904.8H1324.66V906.456H1313.14V904.8ZM1309.22 910.824H1329.91V912.528H1309.22V910.824ZM1318.61 909.024H1320.5V917.688C1320.5 918.768 1320.24 919.296 1319.38 919.584C1318.54 919.872 1317.26 919.896 1315.22 919.896C1315.1 919.368 1314.74 918.6 1314.43 918.096C1316.06 918.144 1317.62 918.144 1318.06 918.12C1318.49 918.096 1318.61 918 1318.61 917.664V909.024ZM1324.1 904.8H1324.58L1324.99 904.704L1326.17 905.592C1324.58 907.344 1322.21 909.216 1320 910.344C1319.78 910.008 1319.3 909.552 1319.02 909.312C1320.89 908.304 1323.02 906.504 1324.1 905.16V904.8ZM1318.56 897.816H1320.46V901.68H1318.56V897.816ZM1309.46 900.456H1329.6V906.096H1327.75V902.16H1311.24V906.096H1309.46V900.456Z" fill="white"/>
<rect x="1392" y="377" width="128" height="88" rx="6" fill="#0D99FF"/>
<path d="M1430.03 422.416L1431.04 422.08C1431.66 422.896 1432.26 423.976 1432.46 424.696L1431.42 425.104C1431.23 424.36 1430.66 423.256 1430.03 422.416ZM1426.12 420.328L1426.84 419.608C1427.8 420.28 1428.86 421.264 1429.36 421.984L1428.62 422.824C1428.14 422.08 1427.08 421.048 1426.12 420.328ZM1428.98 418.024L1430.13 418.504C1429.48 419.368 1428.71 420.28 1428.11 420.904L1427.22 420.496C1427.8 419.8 1428.57 418.72 1428.98 418.024ZM1430.7 419.704L1431.76 420.184C1430.61 421.552 1429.07 423.208 1427.85 424.24L1427.06 423.808C1428.26 422.728 1429.84 420.904 1430.7 419.704ZM1433.15 425.104H1434.5V431.488H1433.15V425.104ZM1425.81 423.64C1427.32 423.568 1429.38 423.472 1431.57 423.328V424.384C1429.53 424.552 1427.58 424.672 1425.98 424.768L1425.81 423.64ZM1436.51 422.296L1437.54 421.96C1438.22 422.8 1438.91 423.976 1439.15 424.792L1438.1 425.2C1437.86 424.384 1437.21 423.184 1436.51 422.296ZM1431.95 420.304L1432.74 419.584C1433.7 420.28 1434.83 421.312 1435.31 422.056L1434.52 422.872C1434.04 422.104 1432.94 421.024 1431.95 420.304ZM1434.98 417.976L1436.13 418.456C1435.43 419.392 1434.62 420.376 1433.94 421.048L1433.06 420.64C1433.68 419.92 1434.52 418.72 1434.98 417.976ZM1436.68 419.752L1437.76 420.28C1436.56 421.624 1434.93 423.256 1433.63 424.264L1432.84 423.832C1434.09 422.776 1435.77 420.976 1436.68 419.752ZM1432.26 423.64C1433.82 423.568 1435.91 423.448 1438.19 423.304V424.36C1436.18 424.528 1434.16 424.648 1432.53 424.768L1432.26 423.64ZM1426.77 425.464H1427.99V427.72H1430.92V428.848H1426.77V425.464ZM1436.82 425.464H1438.07V428.848H1434.11V427.72H1436.82V425.464ZM1430.27 425.104H1431.59V427.264C1431.59 429.064 1431.16 430.72 1428.16 431.776C1427.99 431.464 1427.58 430.96 1427.27 430.72C1429.94 429.904 1430.27 428.56 1430.27 427.24V425.104ZM1423.48 413.992H1430.22V415.216H1423.48V413.992ZM1434.52 413.992H1441.43V415.216H1434.52V413.992ZM1440.76 410.872H1442.51V429.664C1442.51 430.672 1442.32 431.224 1441.67 431.536C1441.02 431.848 1439.99 431.872 1438.5 431.872C1438.43 431.392 1438.19 430.552 1437.95 430.072C1439.01 430.12 1440.02 430.12 1440.35 430.096C1440.66 430.096 1440.76 429.976 1440.76 429.664V410.872ZM1423.62 410.872H1431.35V418.264H1423.62V416.944H1429.65V412.192H1423.62V410.872ZM1441.62 410.872V412.192H1435.19V416.944H1441.62V418.264H1433.49V410.872H1441.62ZM1422.54 410.872H1424.27V431.944H1422.54V410.872ZM1453.1 411.424H1456.36V413.032H1453.1V411.424ZM1457.39 415.072H1465.1V416.536H1457.39V415.072ZM1465.12 415H1467.21V416.608H1465.12V415ZM1458.16 421.624H1466.22V423.136H1458.16V421.624ZM1457.61 425.008H1466.9V426.52H1457.61V425.008ZM1461.04 409.912H1462.55V429.136H1461.04V409.912ZM1455.95 411.424H1456.14L1456.41 411.328L1457.46 411.568C1456.77 414.088 1455.59 417.88 1454.61 420.712L1453.14 420.424C1454.15 417.64 1455.38 413.632 1455.95 411.616V411.424ZM1458.5 411.904H1465.91V419.8H1458.52V418.384H1464.54V413.296H1458.5V411.904ZM1454.56 421.72C1455.69 428.656 1458.38 429.928 1462.31 429.928C1462.96 429.928 1466.49 429.928 1467.35 429.904C1467.09 430.312 1466.85 431.056 1466.8 431.488H1462.24C1457.54 431.488 1454.66 429.952 1453.31 422.08L1454.56 421.72ZM1454.44 418.6H1457.03V420.088H1454.01L1454.44 418.6ZM1456.48 418.6H1456.79L1457.06 418.552L1457.99 418.744C1457.39 425.944 1455.52 429.928 1452.42 431.968C1452.18 431.656 1451.58 431.104 1451.25 430.888C1454.27 429.04 1456 425.416 1456.48 418.888V418.6ZM1444.91 429.592C1446.98 429.232 1450.1 428.632 1453.12 428.008L1453.26 429.544C1450.46 430.144 1447.53 430.744 1445.32 431.2L1444.91 429.592ZM1446.16 415.816H1452.47V417.328H1446.16V415.816ZM1445.18 419.872H1452.86V421.432H1445.18V419.872ZM1445.58 423.04L1446.74 422.776C1447.22 424.216 1447.55 426.088 1447.62 427.312L1446.38 427.624C1446.33 426.376 1445.99 424.48 1445.58 423.04ZM1451.49 422.512L1452.74 422.776C1452.4 424.24 1452.04 425.968 1451.7 427.096L1450.6 426.832C1450.91 425.68 1451.32 423.76 1451.49 422.512ZM1448.49 416.488H1450V429.256L1448.49 429.472V416.488ZM1448.63 409.864H1449.57V410.248H1450.07V410.704C1449.21 412.552 1447.77 415.096 1445.51 417.208C1445.27 416.848 1444.74 416.32 1444.38 416.08C1446.45 414.256 1447.89 411.784 1448.63 409.864ZM1448.85 409.864H1450.12C1451.39 411.136 1452.88 412.936 1453.58 414.112L1452.4 415.408C1451.73 414.232 1450.36 412.24 1449.14 411.04H1448.85V409.864ZM1473.14 416.8H1484.66V418.456H1473.14V416.8ZM1469.22 422.824H1489.91V424.528H1469.22V422.824ZM1478.61 421.024H1480.5V429.688C1480.5 430.768 1480.24 431.296 1479.38 431.584C1478.54 431.872 1477.26 431.896 1475.22 431.896C1475.1 431.368 1474.74 430.6 1474.43 430.096C1476.06 430.144 1477.62 430.144 1478.06 430.12C1478.49 430.096 1478.61 430 1478.61 429.664V421.024ZM1484.1 416.8H1484.58L1484.99 416.704L1486.17 417.592C1484.58 419.344 1482.21 421.216 1480 422.344C1479.78 422.008 1479.3 421.552 1479.02 421.312C1480.89 420.304 1483.02 418.504 1484.1 417.16V416.8ZM1478.56 409.816H1480.46V413.68H1478.56V409.816ZM1469.46 412.456H1489.6V418.096H1487.75V414.16H1471.24V418.096H1469.46V412.456Z" fill="white"/>
<path d="M852 245H1052" stroke="#B3B3B3" stroke-width="2" stroke-linecap="round" stroke-linejoin="bevel"/>
<path d="M1187.54 280.38L1388.46 385.62" stroke="#B3B3B3" stroke-width="2" stroke-linecap="round" stroke-linejoin="bevel"/>
<path d="M1460.92 468.979L1483.08 685.02" stroke="#B3B3B3" stroke-width="2" stroke-linecap="round" stroke-linejoin="bevel"/>
<path d="M1437.05 779.702L1346.95 862.296" stroke="#B3B3B3" stroke-width="2" stroke-linecap="round" stroke-linejoin="bevel"/>
<path d="M1228.11 924.976L1091.89 957.026" stroke="#B3B3B3" stroke-width="2" stroke-linecap="round" stroke-linejoin="bevel"/>
<path d="M956.137 954.902L851.867 927.097" stroke="#B3B3B3" stroke-width="2" stroke-linecap="round" stroke-linejoin="bevel"/>
<path d="M716.316 880.365L643.684 849.636" stroke="#B3B3B3" stroke-width="2" stroke-linecap="round" stroke-linejoin="bevel"/>
<path d="M548.874 773.528L475.129 644.474" stroke="#B3B3B3" stroke-width="2" stroke-linecap="round" stroke-linejoin="bevel"/>
<path d="M469.984 549.368L522.017 436.632" stroke="#B3B3B3" stroke-width="2" stroke-linecap="round" stroke-linejoin="bevel"/>
<path d="M611.43 348.542L716.57 285.458" stroke="#B3B3B3" stroke-width="2" stroke-linecap="round" stroke-linejoin="bevel"/>
<path d="M757.816 461.03L778.187 292.972" stroke="#B3B3B3" stroke-width="2" stroke-linecap="round" stroke-linejoin="bevel"/>
<path d="M684.155 528.639L515.84 577.362" stroke="#B3B3B3" stroke-width="2" stroke-linecap="round" stroke-linejoin="bevel"/>
<path d="M732.189 687.423L515.812 618.576" stroke="#B3B3B3" stroke-width="2" stroke-linecap="round" stroke-linejoin="bevel"/>
<path d="M611.602 421.595L924.395 572.406" stroke="#B3B3B3" stroke-width="2" stroke-linecap="round" stroke-linejoin="bevel"/>
<path d="M796.162 756.987L787.84 861.013" stroke="#B3B3B3" stroke-width="2" stroke-linecap="round" stroke-linejoin="bevel"/>
<path d="M867.516 672.429L924.481 641.572" stroke="#B3B3B3" stroke-width="2" stroke-linecap="round" stroke-linejoin="bevel"/>
<path d="M1013.65 652.642L1050.34 733.359" stroke="#B3B3B3" stroke-width="2" stroke-linecap="round" stroke-linejoin="bevel"/>
<path d="M1019.83 925.015L996.176 652.985" stroke="#B3B3B3" stroke-width="2" stroke-linecap="round" stroke-linejoin="bevel"/>
<path d="M985.777 436.997L990.222 557.003" stroke="#B3B3B3" stroke-width="2" stroke-linecap="round" stroke-linejoin="bevel"/>
<path d="M919.641 342.663L848.355 291.338" stroke="#B3B3B3" stroke-width="2" stroke-linecap="round" stroke-linejoin="bevel"/>
<path d="M1103.02 292.769L1008.98 557.231" stroke="#B3B3B3" stroke-width="2" stroke-linecap="round" stroke-linejoin="bevel"/>
<path d="M1059.96 614.994L1196.04 635.007" stroke="#B3B3B3" stroke-width="2" stroke-linecap="round" stroke-linejoin="bevel"/>
<path d="M1269.81 692.972L1290.18 861.03" stroke="#B3B3B3" stroke-width="2" stroke-linecap="round" stroke-linejoin="bevel"/>
<path d="M1304.32 597.963L1415.68 468.037" stroke="#B3B3B3" stroke-width="2" stroke-linecap="round" stroke-linejoin="bevel"/>
<path d="M1291.95 446.456L1388.05 431.545" stroke="#B3B3B3" stroke-width="2" stroke-linecap="round" stroke-linejoin="bevel"/>
<path d="M1156.63 499.979L1059.38 562.022" stroke="#B3B3B3" stroke-width="2" stroke-linecap="round" stroke-linejoin="bevel"/>
</svg>
