<svg width="8" height="87" viewBox="0 0 8 87" fill="none" xmlns="http://www.w3.org/2000/svg">
<path d="M3.64644 86.3536C3.8417 86.5488 4.15829 86.5488 4.35355 86.3536L7.53553 83.1716C7.73079 82.9763 7.73079 82.6597 7.53553 82.4645C7.34027 82.2692 7.02369 82.2692 6.82842 82.4645L4 85.2929L1.17157 82.4645C0.976307 82.2692 0.659725 82.2692 0.464462 82.4645C0.2692 82.6597 0.2692 82.9763 0.464462 83.1716L3.64644 86.3536ZM3.5 -2.18557e-08L3.5 1.95455L4.5 1.95455L4.5 2.18557e-08L3.5 -2.18557e-08ZM3.5 5.86364L3.5 9.77273L4.5 9.77273L4.5 5.86364L3.5 5.86364ZM3.5 13.6818L3.5 17.5909L4.5 17.5909L4.5 13.6818L3.5 13.6818ZM3.5 21.5L3.5 25.4091L4.5 25.4091L4.5 21.5L3.5 21.5ZM3.5 29.3182L3.5 33.2273L4.5 33.2273L4.5 29.3182L3.5 29.3182ZM3.5 37.1364L3.5 41.0455L4.5 41.0455L4.5 37.1364L3.5 37.1364ZM3.5 44.9546L3.5 48.8636L4.5 48.8636L4.5 44.9546L3.5 44.9546ZM3.5 52.7727L3.5 56.6818L4.5 56.6818L4.5 52.7727L3.5 52.7727ZM3.5 60.5909L3.5 64.5L4.5 64.5L4.5 60.5909L3.5 60.5909ZM3.5 68.4091L3.5 72.3182L4.5 72.3182L4.5 68.4091L3.5 68.4091ZM3.5 76.2273L3.5 80.1364L4.5 80.1364L4.5 76.2273L3.5 76.2273ZM3.5 84.0454L3.5 86L4.5 86L4.5 84.0454L3.5 84.0454ZM3.64644 86.3536C3.8417 86.5488 4.15829 86.5488 4.35355 86.3536L7.53553 83.1716C7.73079 82.9763 7.73079 82.6597 7.53553 82.4645C7.34027 82.2692 7.02369 82.2692 6.82842 82.4645L4 85.2929L1.17157 82.4645C0.976307 82.2692 0.659725 82.2692 0.464462 82.4645C0.2692 82.6597 0.2692 82.9763 0.464462 83.1716L3.64644 86.3536ZM3.5 -2.18557e-08L3.5 1.95455L4.5 1.95455L4.5 2.18557e-08L3.5 -2.18557e-08ZM3.5 5.86364L3.5 9.77273L4.5 9.77273L4.5 5.86364L3.5 5.86364ZM3.5 13.6818L3.5 17.5909L4.5 17.5909L4.5 13.6818L3.5 13.6818ZM3.5 21.5L3.5 25.4091L4.5 25.4091L4.5 21.5L3.5 21.5ZM3.5 29.3182L3.5 33.2273L4.5 33.2273L4.5 29.3182L3.5 29.3182ZM3.5 37.1364L3.5 41.0455L4.5 41.0455L4.5 37.1364L3.5 37.1364ZM3.5 44.9546L3.5 48.8636L4.5 48.8636L4.5 44.9546L3.5 44.9546ZM3.5 52.7727L3.5 56.6818L4.5 56.6818L4.5 52.7727L3.5 52.7727ZM3.5 60.5909L3.5 64.5L4.5 64.5L4.5 60.5909L3.5 60.5909ZM3.5 68.4091L3.5 72.3182L4.5 72.3182L4.5 68.4091L3.5 68.4091ZM3.5 76.2273L3.5 80.1364L4.5 80.1364L4.5 76.2273L3.5 76.2273ZM3.5 84.0454L3.5 86L4.5 86L4.5 84.0454L3.5 84.0454Z" fill="#989898"/>
</svg>
