<svg width="1052" height="88" viewBox="0 0 1052 88" fill="none" xmlns="http://www.w3.org/2000/svg">
<g clip-path="url(#clip0_529_17122)">
<path d="M415.459 87.2422C439.288 87.2422 458.605 67.7666 458.605 43.7422C458.605 19.7178 439.288 0.242188 415.459 0.242188C391.63 0.242188 372.312 19.7178 372.312 43.7422C372.312 67.7666 391.63 87.2422 415.459 87.2422Z" fill="#BBC226"/>
<path d="M490.619 23.1424C489.952 23.8431 489.591 24.712 489.591 25.6649V51.5631C489.591 54.5622 489.035 56.6923 487.95 57.8415C486.866 58.9906 485.337 59.5792 483.252 59.5792C481.473 59.5792 479.749 59.1588 478.137 58.374C477.748 58.1498 477.247 58.0377 476.691 58.0377C475.802 58.0377 475.023 58.4021 474.439 59.1028C473.883 59.7754 473.605 60.5322 473.605 61.345C473.605 62.5783 474.189 63.5873 475.273 64.288H475.301C477.831 65.7175 480.639 66.4462 483.641 66.4462C487.895 66.4462 491.175 65.1289 493.399 62.5222C495.596 59.9436 496.708 56.1598 496.708 51.2268V25.6649C496.708 24.684 496.346 23.8431 495.651 23.1424C494.233 21.713 492.009 21.713 490.647 23.1424H490.619Z" fill="#3A3A3A"/>
<path d="M527.678 35.0819C525.287 33.7085 522.479 33.0078 519.338 33.0078C516.196 33.0078 513.388 33.7085 510.97 35.0819C508.523 36.4553 506.633 38.4733 505.298 41.0239C503.992 43.5465 503.297 46.4895 503.297 49.7127C503.297 52.936 503.964 55.7949 505.298 58.3454C506.633 60.896 508.523 62.9141 510.942 64.3435C513.333 65.7169 516.168 66.4176 519.338 66.4176C522.507 66.4176 525.231 65.7169 527.65 64.3435C530.096 62.9701 532.015 60.9521 533.377 58.3454C534.711 55.8509 535.379 52.936 535.379 49.7127C535.379 46.4895 534.711 43.5745 533.377 41.0519C532.043 38.5294 530.124 36.5114 527.678 35.0819ZM528.289 49.6567C528.289 51.8989 527.872 53.8049 527.011 55.3464C526.177 56.8599 525.065 57.9811 523.675 58.7098C520.756 60.1673 517.392 60.0552 514.89 58.6538C513.583 57.925 512.527 56.8599 511.72 55.4025C510.859 53.973 510.414 52.0391 510.414 49.6567C510.414 47.4144 510.831 45.5085 511.665 43.9949C512.499 42.5094 513.611 41.3883 515.001 40.6596C516.391 39.9869 517.864 39.6505 519.338 39.6505C520.978 39.6505 522.479 40.0149 523.786 40.7436C525.092 41.4724 526.149 42.5375 526.955 43.9389C527.817 45.3683 528.262 47.2742 528.262 49.6286L528.289 49.6567Z" fill="#3A3A3A"/>
<path d="M563.623 34.3262C562.9 35.0269 562.566 35.8678 562.566 36.8488V54.5066C561.176 56.1883 559.786 57.5057 558.396 58.3746C557.006 59.2434 555.422 59.6919 553.67 59.6919C549.806 59.6919 547.999 57.6458 547.999 53.2454V36.8488C547.999 35.8678 547.665 35.0269 546.97 34.3543C545.608 32.9809 543.384 32.9809 541.994 34.3543C541.271 35.055 540.938 35.8958 540.938 36.8768V53.862C540.938 56.1603 541.41 58.2905 542.328 60.1964C543.245 62.1023 544.579 63.6439 546.275 64.765C548.054 65.8862 550.112 66.4467 552.391 66.4467C554.671 66.4467 556.839 65.9422 558.702 64.9892C560.036 64.2885 561.343 63.3356 562.594 62.1864V62.5508C562.594 63.5318 562.955 64.3726 563.65 65.0733C565.068 66.5028 567.292 66.5028 568.655 65.0733C569.322 64.3726 569.683 63.5037 569.683 62.5508V36.8488C569.683 35.8678 569.35 35.0269 568.655 34.3543C567.292 32.9809 565.068 32.9809 563.678 34.3543L563.623 34.3262Z" fill="#3A3A3A"/>
<path d="M593.202 33.0085H592.896C589.811 33.0085 586.947 34.3819 584.417 37.1287V36.9044C584.417 35.9234 584.056 35.0826 583.361 34.3819C581.943 32.9524 579.719 32.9524 578.357 34.3819C577.69 35.0826 577.328 35.9515 577.328 36.9044V62.5784C577.328 63.5594 577.662 64.4002 578.357 65.0729C579.052 65.7736 579.886 66.11 580.831 66.11C581.776 66.11 582.638 65.7736 583.333 65.0729C584.056 64.3722 584.417 63.5314 584.417 62.5504V44.6122C585.418 43.1548 586.641 42.0056 588.031 41.1928C589.477 40.38 591.062 39.9595 592.785 39.9595H593.091C594.092 39.9595 594.926 39.6232 595.621 39.0066C596.316 38.3619 596.677 37.5211 596.677 36.5401C596.677 35.5591 596.344 34.7463 595.676 34.0455C595.009 33.3448 594.175 32.9805 593.202 32.9805V33.0085Z" fill="#3A3A3A"/>
<path d="M623.505 34.6622C621.725 33.541 619.64 32.9805 617.333 32.9805C615.025 32.9805 612.885 33.485 611.022 34.4379C609.688 35.1387 608.381 36.0916 607.13 37.2408V36.8764C607.13 35.8954 606.769 35.0546 606.074 34.3539C604.656 32.9244 602.432 32.9244 601.07 34.3539C600.402 35.0546 600.041 35.9234 600.041 36.8764V62.5504C600.041 63.5314 600.375 64.3722 601.07 65.0449C602.432 66.4183 604.656 66.4183 606.046 65.0449C606.769 64.3442 607.102 63.5033 607.102 62.5223V44.8645C608.492 43.1828 609.882 41.8655 611.272 40.9966C612.662 40.1277 614.247 39.6792 615.998 39.6792C619.863 39.6792 621.67 41.7253 621.67 46.1258V62.5223C621.67 63.5033 622.031 64.3442 622.698 65.0169C623.366 65.6896 624.227 66.0539 625.173 66.0539C626.118 66.0539 626.98 65.7176 627.675 65.0169C628.397 64.3162 628.731 63.4753 628.731 62.4943V45.5091C628.731 43.2108 628.286 41.0807 627.369 39.1747C626.451 37.2408 625.145 35.7272 623.421 34.6061L623.505 34.6622Z" fill="#3A3A3A"/>
<path d="M637.21 34.3816C636.543 35.0823 636.182 35.9512 636.182 36.9041V62.5781C636.182 63.5591 636.543 64.4 637.21 65.0726C637.905 65.7733 638.739 66.1097 639.684 66.1097C640.63 66.1097 641.492 65.7733 642.187 65.0726C642.909 64.3719 643.243 63.5311 643.243 62.5501V36.9041C643.243 35.8951 642.882 35.0262 642.214 34.3536C640.852 33.0082 638.572 32.9241 637.182 34.3816H637.21Z" fill="#3A3A3A"/>
<path d="M639.935 21.0391H639.573C638.517 21.0391 637.599 21.4315 636.849 22.1882C636.07 22.945 635.709 23.8699 635.709 24.935V25.1873C635.709 26.2523 636.098 27.1492 636.849 27.934C637.599 28.6908 638.517 29.0832 639.573 29.0832H639.935C640.991 29.0832 641.881 28.6908 642.659 27.934C643.437 27.1773 643.799 26.2523 643.799 25.1873V24.935C643.799 23.8699 643.41 22.973 642.659 22.1882C641.881 21.4315 640.991 21.0391 639.935 21.0391Z" fill="#3A3A3A"/>
<path d="M678.355 39.2581C677.437 37.3522 676.131 35.8106 674.407 34.6895C672.628 33.5684 670.543 33.0078 668.235 33.0078C665.928 33.0078 663.787 33.5123 661.925 34.4653C660.59 35.166 659.283 36.119 658.032 37.2681V36.9038C658.032 35.9228 657.671 35.0819 656.976 34.3812C655.558 32.9518 653.334 32.9518 651.972 34.3812C651.305 35.0819 650.943 35.9508 650.943 36.9038V62.5777C650.943 63.5587 651.305 64.3996 651.972 65.0722C653.334 66.4456 655.558 66.4456 656.948 65.0722C657.671 64.3715 658.032 63.5307 658.032 62.5497V44.8918C659.422 43.2101 660.812 41.8928 662.203 41.0239C663.593 40.155 665.177 39.7066 666.929 39.7066C670.821 39.7066 672.6 41.7527 672.6 46.1531V62.5497C672.6 63.5307 672.933 64.3715 673.628 65.0442C674.323 65.7449 675.158 66.0813 676.103 66.0813C677.048 66.0813 677.91 65.7449 678.605 65.0442C679.328 64.3435 679.689 63.5027 679.689 62.5217V45.5365C679.689 43.2382 679.244 41.108 678.327 39.2021L678.355 39.2581Z" fill="#3A3A3A"/>
<path d="M432.964 20.7855C431.851 19.6644 430.403 19.0197 428.817 19.0478C427.286 19.0478 425.839 19.6924 424.781 20.8135C423.695 21.9347 423.139 23.3641 423.139 24.9057V48.3654C423.139 51.7849 422.554 54.2233 421.441 55.4005C420.327 56.5777 418.685 57.1663 416.43 57.1663C414.399 57.1663 412.394 56.6898 410.585 55.8209C408.776 54.7839 405.825 55.1202 404.239 57.0262C403.32 58.1193 402.875 59.3525 402.875 60.7259C402.875 62.7159 403.849 64.4257 405.714 65.6309C409.11 67.5368 412.868 68.4898 416.904 68.4898C422.693 68.4898 427.175 66.6679 430.236 63.0803C433.215 59.5767 434.746 54.5036 434.746 47.945V24.9057C434.746 23.3361 434.161 21.9066 433.02 20.7855H432.964Z" fill="white"/>
<path d="M403.738 45.6455C407.827 45.6455 411.142 42.3075 411.142 38.1899C411.142 34.0723 407.827 30.7344 403.738 30.7344C399.649 30.7344 396.334 34.0723 396.334 38.1899C396.334 42.3075 399.649 45.6455 403.738 45.6455Z" fill="white"/>
</g>
<defs>
<clipPath id="clip0_529_17122">
<rect width="1052" height="87" fill="white" transform="translate(0 0.242188)"/>
</clipPath>
</defs>
</svg>
