<svg width="1133" height="166" viewBox="0 0 1133 166" fill="none" xmlns="http://www.w3.org/2000/svg">
<circle cx="41.6647" cy="74.6647" r="40.6647" fill="#F9ECC6" stroke="#DDBC00" stroke-linecap="round"/>
<path d="M20.6761 75.236H26.6281V75.98H20.6761V75.236ZM20.4481 77.288H26.8801V78.056H20.4481V77.288ZM24.4441 75.476H25.2601V80.744H24.4441V75.476ZM21.9841 75.512H22.7641V77.696C22.7641 78.428 22.4761 80 21.1201 80.912C21.0001 80.744 20.7241 80.492 20.5201 80.372C21.7321 79.628 21.9841 78.356 21.9841 77.696V75.512ZM19.1881 72.104H22.5601V72.752H19.1881V72.104ZM24.7201 72.104H28.1161V72.752H24.7201V72.104ZM27.7681 70.436H28.6561V79.796C28.6561 80.336 28.5361 80.624 28.1761 80.78C27.8161 80.936 27.2161 80.948 26.3041 80.948C26.2681 80.708 26.1481 80.288 26.0161 80.036C26.6761 80.06 27.3241 80.06 27.5161 80.048C27.7081 80.048 27.7681 79.976 27.7681 79.796V70.436ZM19.2601 70.436H23.1121V74.48H19.2601V73.796H22.2601V71.132H19.2601V70.436ZM28.2001 70.436V71.132H25.0321V73.808H28.2001V74.492H24.1681V70.436H28.2001ZM18.7201 70.436H19.6081V80.972H18.7201V70.436ZM36.0001 79.616H40.1881V80.432H36.0001V79.616ZM35.5321 76.1H40.6561V80.924H39.7681V76.928H36.3961V80.972H35.5321V76.1ZM34.7161 74.084C36.1321 74.012 38.3641 73.892 40.5001 73.748L40.4881 74.552C38.4601 74.708 36.3121 74.876 34.8241 74.972L34.7161 74.084ZM38.6881 72.152L39.4081 71.78C40.2121 72.776 41.0401 74.12 41.3641 75.008L40.5721 75.44C40.2841 74.54 39.4801 73.172 38.6881 72.152ZM37.0561 69.92L38.0401 70.124C37.5481 71.588 36.8641 73.424 36.3001 74.564L35.5321 74.348C36.0721 73.184 36.7201 71.264 37.0561 69.92ZM30.1801 72.404H34.1401V73.256H30.1801V72.404ZM32.0041 69.92L32.8681 70.016C32.3761 72.416 31.6081 75.656 31.0441 77.66L30.3001 77.252C30.8401 75.428 31.5841 72.2 32.0041 69.92ZM30.7801 76.892L31.2841 76.256C32.6281 77.012 34.2241 78.164 34.9441 79.052L34.3921 79.784C33.6841 78.884 32.1241 77.672 30.7801 76.892ZM33.7921 72.404H33.9481L34.1041 72.38L34.6441 72.488C34.3201 77.132 33.0241 79.676 30.8161 80.996C30.6841 80.78 30.4441 80.456 30.2521 80.276C32.2441 79.22 33.5041 76.664 33.7921 72.596V72.404ZM48.3241 70.364L48.9841 70.964C48.3721 71.324 47.5801 71.636 46.9081 71.852C46.8601 71.684 46.7401 71.42 46.6321 71.24C47.2441 71.012 47.9281 70.676 48.3241 70.364ZM46.4641 70.988L47.2561 71.24V75.104H46.4641V70.988ZM46.4641 74.696H51.8881V71.648H50.3641V70.916H52.7041V75.44H46.4641V74.696ZM46.8121 72.812H48.5641V73.496H46.8121V72.812ZM50.4121 72.812H52.2481V73.496H50.4121V72.812ZM49.1041 69.932H49.9201V76.7H49.1041V69.932ZM46.1401 76.532H52.0321V77.3H46.1401V76.532ZM51.7801 76.532H51.9481L52.1041 76.496L52.6681 76.772C51.5281 79.328 48.7921 80.504 45.8521 80.984C45.7801 80.756 45.6121 80.408 45.4561 80.216C48.2041 79.856 50.8321 78.8 51.7801 76.664V76.532ZM47.7121 77.216C48.6841 78.824 50.7841 79.856 53.3041 80.252C53.1001 80.444 52.8601 80.792 52.7401 81.044C50.1601 80.552 48.0481 79.376 46.9201 77.516L47.7121 77.216ZM42.0001 76.304C43.0321 76.04 44.5681 75.584 46.0561 75.152L46.1641 75.968C44.7961 76.4 43.3561 76.856 42.2401 77.18L42.0001 76.304ZM42.1561 72.344H46.0441V73.184H42.1561V72.344ZM43.8241 69.932H44.7001V79.928C44.7001 80.42 44.5801 80.672 44.2681 80.804C43.9561 80.948 43.4761 80.972 42.6721 80.96C42.6481 80.744 42.5161 80.384 42.4081 80.144C42.9481 80.156 43.4521 80.156 43.5961 80.156C43.7641 80.156 43.8241 80.096 43.8241 79.928V69.932ZM55.6081 70.412H63.5161V73.748H55.5361V73.1H62.6281V71.048H55.6081V70.412ZM60.7561 74.996V76.16H63.5161V74.996H60.7561ZM59.9041 74.348H64.3921V76.796H59.9041V74.348ZM55.8961 71.768H63.0121V72.38H55.8961V71.768ZM54.6841 74.348H59.0761V75.032H54.6841V74.348ZM54.2161 77.576H65.1121V78.332H54.2161V77.576ZM61.7401 76.784H62.6281V79.976C62.6281 80.468 62.5201 80.708 62.1241 80.828C61.7281 80.96 61.0921 80.972 60.0601 80.972C60.0241 80.732 59.8801 80.408 59.7601 80.168C60.5641 80.192 61.2721 80.192 61.4761 80.18C61.6921 80.168 61.7401 80.12 61.7401 79.964V76.784ZM56.4361 74.6H57.2761V76.376H56.4361V74.6ZM54.4441 76.352C55.6681 76.28 57.5041 76.148 59.3161 76.016V76.7C57.5881 76.844 55.8001 76.976 54.5281 77.072L54.4441 76.352ZM56.2081 78.776L56.8201 78.26C57.5281 78.644 58.3561 79.256 58.7641 79.712L58.1161 80.3C57.7321 79.832 56.9161 79.196 56.2081 78.776Z" fill="#0D0C0C" fill-opacity="0.8"/>
<rect x="109.438" y="34.8477" width="104.211" height="79.7529" rx="3" fill="#88CBE8" fill-opacity="0.3" stroke="#88CBE8" stroke-linecap="round"/>
<path d="M145.777 62.0997H153.481V62.9397H145.777V62.0997ZM146.965 64.8717V66.6717H152.209V64.8717H146.965ZM146.137 64.1037H153.085V67.4397H146.137V64.1037ZM146.881 67.6797C148.009 69.5637 150.469 70.6797 153.589 71.0277C153.397 71.2197 153.169 71.5797 153.049 71.8317C149.869 71.3757 147.409 70.1277 146.137 67.9317L146.881 67.6797ZM149.113 60.8157H150.001V66.1317C150.001 68.4477 149.605 70.7517 145.885 71.8557C145.777 71.6517 145.525 71.2917 145.345 71.0997C148.909 70.1997 149.113 68.1477 149.113 66.1197V60.8157ZM145.261 60.7437L146.113 61.0077C145.297 63.0357 144.013 65.0517 142.681 66.3837C142.597 66.1797 142.345 65.7117 142.177 65.4957C143.389 64.3557 144.565 62.5677 145.261 60.7437ZM144.001 63.8877L144.853 63.0357L144.865 63.0477V71.8677H144.001V63.8877ZM156.277 61.6197H164.041V62.4837H156.277V61.6197ZM156.277 64.4157H164.029V65.2677H156.277V64.4157ZM156.217 67.2837H164.053V68.1357H156.217V67.2837ZM155.773 61.6197H156.661V65.9757C156.661 67.7997 156.445 70.2837 155.017 71.8797C154.873 71.6997 154.513 71.3997 154.321 71.2797C155.641 69.7917 155.773 67.6557 155.773 65.9637V61.6197ZM163.681 61.6197H164.569V70.5837C164.569 71.1717 164.425 71.4477 164.029 71.6037C163.621 71.7477 162.925 71.7597 161.785 71.7477C161.749 71.5077 161.605 71.1117 161.473 70.8717C162.325 70.9077 163.141 70.8957 163.369 70.8957C163.597 70.8837 163.681 70.8117 163.681 70.5837V61.6197ZM159.541 61.9437H160.453V71.6997H159.541V61.9437ZM166.585 64.6317H177.277V65.4357H166.585V64.6317ZM167.641 62.2797H174.589V63.0837H167.641V62.2797ZM169.585 68.6517H175.237V69.3717H169.585V68.6517ZM169.585 70.6437H175.237V71.4237H169.585V70.6437ZM170.725 60.7677H171.601V65.0637H170.725V60.7677ZM175.981 61.1877L176.749 61.5957C174.337 64.7517 170.725 67.1157 166.885 68.5917C166.777 68.3877 166.489 68.0157 166.309 67.8357C170.185 66.4917 173.761 64.1637 175.981 61.1877ZM169.093 66.7077H175.813V71.7717H174.877V67.4637H169.993V71.8197H169.093V66.7077ZM178.801 70.1997C178.801 69.9037 178.873 69.6957 179.017 69.5757C179.161 69.4557 179.333 69.3957 179.533 69.3957C179.741 69.3957 179.917 69.4557 180.061 69.5757C180.213 69.6957 180.289 69.9037 180.289 70.1997C180.289 70.4877 180.213 70.6957 180.061 70.8237C179.917 70.9517 179.741 71.0157 179.533 71.0157C179.333 71.0157 179.161 70.9517 179.017 70.8237C178.873 70.6957 178.801 70.4877 178.801 70.1997ZM178.801 65.0637C178.801 64.7597 178.873 64.5477 179.017 64.4277C179.161 64.3077 179.333 64.2477 179.533 64.2477C179.741 64.2477 179.917 64.3077 180.061 64.4277C180.213 64.5477 180.289 64.7597 180.289 65.0637C180.289 65.3517 180.213 65.5597 180.061 65.6877C179.917 65.8157 179.741 65.8797 179.533 65.8797C179.333 65.8797 179.161 65.8157 179.017 65.6877C178.873 65.5597 178.801 65.3517 178.801 65.0637ZM137.879 84.4797H142.595V89.7597H141.731V85.3077H138.707V89.8077H137.879V84.4797ZM139.619 78.7917H140.507V84.7437H139.619V78.7917ZM140.135 81.3957H143.075V82.2357H140.135V81.3957ZM138.311 88.4157H142.151V89.2437H138.311V88.4157ZM133.175 79.8717V82.7757H136.475V79.8717H133.175ZM132.467 79.2117H137.207V83.4357H132.467V79.2117ZM133.343 80.4597L133.799 80.3397C134.003 80.9277 134.159 81.6837 134.195 82.1637L133.727 82.3077C133.703 81.8037 133.547 81.0477 133.343 80.4597ZM133.751 87.3357L134.339 87.2517C134.531 87.9117 134.651 88.7757 134.663 89.3397L134.039 89.4237C134.039 88.8597 133.919 87.9957 133.751 87.3357ZM134.903 87.2637L135.479 87.1437C135.755 87.7437 136.019 88.5477 136.103 89.0757L135.491 89.2077C135.419 88.6797 135.167 87.8757 134.903 87.2637ZM136.043 87.0957L136.607 86.8797C137.039 87.4317 137.471 88.1757 137.651 88.6677L137.051 88.9437C136.871 88.4277 136.451 87.6597 136.043 87.0957ZM132.731 87.2877L133.367 87.4557C133.247 88.3437 133.055 89.2797 132.539 89.8197L131.927 89.4837C132.395 88.9917 132.623 88.1157 132.731 87.2877ZM135.803 80.3037L136.331 80.5077C136.115 81.1197 135.875 81.8997 135.671 82.3797L135.275 82.2237C135.455 81.7077 135.695 80.8557 135.803 80.3037ZM132.119 86.0157C133.451 85.9557 135.491 85.8597 137.483 85.7397L137.459 86.4597C135.539 86.6037 133.547 86.7237 132.167 86.8077L132.119 86.0157ZM132.383 84.2517H137.291V84.9837H132.383V84.2517ZM134.483 79.5237H135.095V83.1237H135.191V86.2197H134.387V83.1237H134.483V79.5237ZM144.995 86.1597H154.187V86.7717H144.995V86.1597ZM144.263 87.4197H154.859V88.0557H144.263V87.4197ZM149.087 85.1037H149.987V88.9317C149.987 89.3997 149.855 89.5917 149.483 89.7117C149.111 89.8197 148.511 89.8197 147.527 89.8197C147.479 89.6157 147.347 89.3277 147.239 89.1237C147.947 89.1477 148.643 89.1477 148.835 89.1357C149.027 89.1237 149.087 89.0757 149.087 88.9077V85.1037ZM152.531 84.6117L153.155 85.1157C151.247 85.4997 148.079 85.6317 145.511 85.6197C145.499 85.4757 145.415 85.2117 145.343 85.0677C147.851 85.0557 150.971 84.9237 152.531 84.6117ZM144.287 79.3677H149.459V79.9077H144.287V79.3677ZM144.131 82.7757H149.531V83.2917H144.131V82.7757ZM145.319 81.5397V81.9717H148.415V81.5397H145.319ZM145.319 80.7237V81.1317H148.415V80.7237H145.319ZM144.671 80.3037H149.075V82.3917H144.671V80.3037ZM146.471 78.7797H147.203V84.4797H146.471V78.7797ZM149.735 81.7317H153.863V82.3557H149.735V81.7317ZM150.815 79.1517H153.071V79.7997H150.815V79.1517ZM153.551 81.7317H153.707L153.863 81.7077L154.295 81.8517C153.599 83.6397 151.847 84.3837 149.783 84.7317C149.723 84.5397 149.579 84.2637 149.435 84.1077C151.307 83.8797 152.975 83.2317 153.551 81.8277V81.7317ZM150.923 82.2957C151.619 83.4117 153.191 84.1317 155.099 84.3837C154.931 84.5397 154.715 84.8397 154.619 85.0317C152.651 84.6957 151.031 83.8317 150.251 82.4997L150.923 82.2957ZM150.371 79.1517H151.139V79.8717C151.139 80.5197 150.923 81.2397 149.975 81.7437C149.867 81.5757 149.555 81.2757 149.399 81.1797C150.227 80.7837 150.371 80.3037 150.371 79.8597V79.1517ZM152.651 79.1517H153.431V80.3757C153.431 80.5437 153.443 80.6517 153.479 80.6877C153.527 80.7117 153.575 80.7237 153.659 80.7237C153.731 80.7237 153.887 80.7237 153.983 80.7237C154.067 80.7237 154.175 80.7117 154.211 80.6997C154.259 80.6757 154.307 80.6397 154.331 80.5437C154.367 80.4597 154.379 80.2437 154.391 79.9557C154.523 80.0877 154.763 80.2077 154.955 80.2557C154.943 80.5677 154.895 80.9037 154.835 81.0357C154.763 81.1677 154.655 81.2637 154.523 81.3117C154.403 81.3597 154.187 81.3837 154.019 81.3837C153.899 81.3837 153.587 81.3837 153.467 81.3837C153.263 81.3837 152.999 81.3237 152.855 81.1917C152.699 81.0597 152.651 80.8677 152.651 80.3397V79.1517ZM144.755 83.4117H145.415V84.0837H148.331V83.4117H149.027V84.6237H144.755V83.4117ZM162.203 79.2117L162.863 79.8117C162.251 80.1717 161.459 80.4837 160.787 80.6997C160.739 80.5317 160.619 80.2677 160.511 80.0877C161.123 79.8597 161.807 79.5237 162.203 79.2117ZM160.343 79.8357L161.135 80.0877V83.9517H160.343V79.8357ZM160.343 83.5437H165.767V80.4957H164.243V79.7637H166.583V84.2877H160.343V83.5437ZM160.691 81.6597H162.443V82.3437H160.691V81.6597ZM164.291 81.6597H166.127V82.3437H164.291V81.6597ZM162.983 78.7797H163.799V85.5477H162.983V78.7797ZM160.019 85.3797H165.911V86.1477H160.019V85.3797ZM165.659 85.3797H165.827L165.983 85.3437L166.547 85.6197C165.407 88.1757 162.671 89.3517 159.731 89.8317C159.659 89.6037 159.491 89.2557 159.335 89.0637C162.083 88.7037 164.711 87.6477 165.659 85.5117V85.3797ZM161.591 86.0637C162.563 87.6717 164.663 88.7037 167.183 89.0997C166.979 89.2917 166.739 89.6397 166.619 89.8917C164.039 89.3997 161.927 88.2237 160.799 86.3637L161.591 86.0637ZM155.879 85.1517C156.911 84.8877 158.447 84.4317 159.935 83.9997L160.043 84.8157C158.675 85.2477 157.235 85.7037 156.119 86.0277L155.879 85.1517ZM156.035 81.1917H159.923V82.0317H156.035V81.1917ZM157.703 78.7797H158.579V88.7757C158.579 89.2677 158.459 89.5197 158.147 89.6517C157.835 89.7957 157.355 89.8197 156.551 89.8077C156.527 89.5917 156.395 89.2317 156.287 88.9917C156.827 89.0037 157.331 89.0037 157.475 89.0037C157.643 89.0037 157.703 88.9437 157.703 88.7757V78.7797ZM169.487 79.2597H177.395V82.5957H169.415V81.9477H176.507V79.8957H169.487V79.2597ZM174.635 83.8437V85.0077H177.395V83.8437H174.635ZM173.783 83.1957H178.271V85.6437H173.783V83.1957ZM169.775 80.6157H176.891V81.2277H169.775V80.6157ZM168.563 83.1957H172.955V83.8797H168.563V83.1957ZM168.095 86.4237H178.991V87.1797H168.095V86.4237ZM175.619 85.6317H176.507V88.8237C176.507 89.3157 176.399 89.5557 176.003 89.6757C175.607 89.8077 174.971 89.8197 173.939 89.8197C173.903 89.5797 173.759 89.2557 173.639 89.0157C174.443 89.0397 175.151 89.0397 175.355 89.0277C175.571 89.0157 175.619 88.9677 175.619 88.8117V85.6317ZM170.315 83.4477H171.155V85.2237H170.315V83.4477ZM168.323 85.1997C169.547 85.1277 171.383 84.9957 173.195 84.8637V85.5477C171.467 85.6917 169.679 85.8237 168.407 85.9197L168.323 85.1997ZM170.087 87.6237L170.699 87.1077C171.407 87.4917 172.235 88.1037 172.643 88.5597L171.995 89.1477C171.611 88.6797 170.795 88.0437 170.087 87.6237ZM184.331 79.1757H186.959V82.8357H184.331V82.1517H186.239V79.8717H184.331V79.1757ZM183.911 79.1757H184.691V89.8197H183.911V79.1757ZM190.427 79.1757V79.8717H188.303V82.1517H190.427V82.8357H187.571V79.1757H190.427ZM184.283 80.6757H186.539V81.2877H184.283V80.6757ZM187.943 80.6757H190.271V81.2997H187.943V80.6757ZM185.171 83.6277H189.467V84.1797H185.171V83.6277ZM186.947 83.0397H187.619V84.9357H186.947V83.0397ZM189.899 79.1757H190.703V88.8957C190.703 89.3157 190.619 89.5557 190.355 89.6757C190.091 89.8077 189.707 89.8437 189.059 89.8317C189.023 89.6277 188.915 89.2797 188.807 89.0637C189.227 89.0757 189.599 89.0757 189.707 89.0757C189.851 89.0637 189.899 89.0277 189.899 88.8837V79.1757ZM186.023 86.1717V86.6997H188.603V86.1717H186.023ZM186.023 85.1517V85.6677H188.603V85.1517H186.023ZM185.435 84.6477H189.203V87.2157H185.435V84.6477ZM186.911 86.8677L187.427 87.0837C186.983 87.9117 186.107 88.7997 185.339 89.2557C185.231 89.0877 185.015 88.8477 184.859 88.7277C185.627 88.3677 186.479 87.5997 186.911 86.8677ZM180.155 81.3717H183.719V82.2117H180.155V81.3717ZM181.679 78.7677H182.495V89.7957H181.679V78.7677ZM181.643 81.8757L182.183 82.0437C181.847 83.9397 181.139 86.3037 180.347 87.5037C180.251 87.2877 180.047 86.9517 179.903 86.7597C180.635 85.6797 181.355 83.5797 181.643 81.8757ZM182.435 83.0397C182.687 83.3757 183.647 84.8877 183.851 85.2357L183.383 85.8957C183.143 85.2957 182.351 83.8557 182.063 83.3877L182.435 83.0397ZM187.775 86.9757C188.183 87.6117 188.939 88.3317 189.599 88.6677C189.443 88.7997 189.227 89.0277 189.107 89.1837C188.471 88.7517 187.691 87.9117 187.295 87.1917L187.775 86.9757ZM187.007 84.8757H187.583V87.0117H187.643V89.5317H186.947V87.0117H187.007V84.8757Z" fill="black" fill-opacity="0.8"/>
<rect x="240.76" y="34.8477" width="104.211" height="79.532" rx="3" fill="#88CBE8" fill-opacity="0.3" stroke="#88CBE8" stroke-linecap="round"/>
<path d="M277.1 53.0997H284.804V53.9397H277.1V53.0997ZM278.288 55.8717V57.6717H283.532V55.8717H278.288ZM277.46 55.1037H284.408V58.4397H277.46V55.1037ZM278.204 58.6797C279.332 60.5637 281.792 61.6797 284.912 62.0277C284.72 62.2197 284.492 62.5797 284.372 62.8317C281.192 62.3757 278.732 61.1277 277.46 58.9317L278.204 58.6797ZM280.436 51.8157H281.324V57.1317C281.324 59.4477 280.928 61.7517 277.208 62.8557C277.1 62.6517 276.848 62.2917 276.668 62.0997C280.232 61.1997 280.436 59.1477 280.436 57.1197V51.8157ZM276.584 51.7437L277.436 52.0077C276.62 54.0357 275.336 56.0517 274.004 57.3837C273.92 57.1797 273.668 56.7117 273.5 56.4957C274.712 55.3557 275.888 53.5677 276.584 51.7437ZM275.324 54.8877L276.176 54.0357L276.188 54.0477V62.8677H275.324V54.8877ZM287.6 52.6197H295.364V53.4837H287.6V52.6197ZM287.6 55.4157H295.352V56.2677H287.6V55.4157ZM287.54 58.2837H295.376V59.1357H287.54V58.2837ZM287.096 52.6197H287.984V56.9757C287.984 58.7997 287.768 61.2837 286.34 62.8797C286.196 62.6997 285.836 62.3997 285.644 62.2797C286.964 60.7917 287.096 58.6557 287.096 56.9637V52.6197ZM295.004 52.6197H295.892V61.5837C295.892 62.1717 295.748 62.4477 295.352 62.6037C294.944 62.7477 294.248 62.7597 293.108 62.7477C293.072 62.5077 292.928 62.1117 292.796 61.8717C293.648 61.9077 294.464 61.8957 294.692 61.8957C294.92 61.8837 295.004 61.8117 295.004 61.5837V52.6197ZM290.864 52.9437H291.776V62.6997H290.864V52.9437ZM297.908 55.6317H308.6V56.4357H297.908V55.6317ZM298.964 53.2797H305.912V54.0837H298.964V53.2797ZM300.908 59.6517H306.56V60.3717H300.908V59.6517ZM300.908 61.6437H306.56V62.4237H300.908V61.6437ZM302.048 51.7677H302.924V56.0637H302.048V51.7677ZM307.304 52.1877L308.072 52.5957C305.66 55.7517 302.048 58.1157 298.208 59.5917C298.1 59.3877 297.812 59.0157 297.632 58.8357C301.508 57.4917 305.084 55.1637 307.304 52.1877ZM300.416 57.7077H307.136V62.7717H306.2V58.4637H301.316V62.8197H300.416V57.7077ZM310.124 61.1997C310.124 60.9037 310.196 60.6957 310.34 60.5757C310.484 60.4557 310.656 60.3957 310.856 60.3957C311.064 60.3957 311.24 60.4557 311.384 60.5757C311.536 60.6957 311.612 60.9037 311.612 61.1997C311.612 61.4877 311.536 61.6957 311.384 61.8237C311.24 61.9517 311.064 62.0157 310.856 62.0157C310.656 62.0157 310.484 61.9517 310.34 61.8237C310.196 61.6957 310.124 61.4877 310.124 61.1997ZM310.124 56.0637C310.124 55.7597 310.196 55.5477 310.34 55.4277C310.484 55.3077 310.656 55.2477 310.856 55.2477C311.064 55.2477 311.24 55.3077 311.384 55.4277C311.536 55.5477 311.612 55.7597 311.612 56.0637C311.612 56.3517 311.536 56.5597 311.384 56.6877C311.24 56.8157 311.064 56.8797 310.856 56.8797C310.656 56.8797 310.484 56.8157 310.34 56.6877C310.196 56.5597 310.124 56.3517 310.124 56.0637ZM269.525 72.8397H272.849V73.5837H269.525V72.8397ZM268.757 76.1157H270.725V76.7637H268.757V76.1157ZM268.757 77.7597H270.725V78.4437H268.757V77.7597ZM271.733 74.7717H272.393V78.9957H271.733V74.7717ZM271.193 70.6557C270.593 71.7117 269.477 72.9477 268.265 73.7277C268.169 73.4997 267.965 73.1877 267.821 72.9957C269.021 72.2637 270.185 70.9557 270.749 69.8157H271.565C272.309 71.0397 273.521 72.2397 274.649 72.8397C274.469 73.0557 274.289 73.3797 274.157 73.6317C273.053 72.9237 271.865 71.7357 271.193 70.6557ZM268.349 74.5077H270.593V75.1917H269.009V80.7717H268.349V74.5077ZM270.389 74.5077H271.049V80.0397C271.049 80.3637 270.989 80.5557 270.797 80.6877C270.581 80.7957 270.293 80.8077 269.861 80.8077C269.837 80.6277 269.741 80.3397 269.669 80.1597C269.945 80.1597 270.185 80.1597 270.269 80.1597C270.353 80.1597 270.389 80.1237 270.389 80.0277V74.5077ZM273.341 74.3157H274.085V79.9317C274.085 80.3277 274.001 80.5317 273.737 80.6637C273.449 80.7717 273.017 80.7717 272.309 80.7717C272.285 80.5917 272.177 80.2917 272.081 80.0997C272.585 80.1117 273.029 80.1117 273.161 80.0997C273.293 80.0877 273.341 80.0517 273.341 79.9197V74.3157ZM263.477 71.0637H268.049V71.8677H263.477V71.0637ZM263.333 77.9157H268.013V78.7197H263.333V77.9157ZM265.313 69.7677H266.117V73.0677H265.313V69.7677ZM265.409 73.1157H266.021V76.6077H266.117V80.8317H265.313V76.6077H265.409V73.1157ZM264.329 75.1797V76.2717H267.101V75.1797H264.329ZM264.329 73.4517V74.5317H267.101V73.4517H264.329ZM263.657 72.7677H267.785V76.9437H263.657V72.7677ZM277.589 70.4997H280.985V71.4117H277.589V70.4997ZM280.529 70.4997H281.453C281.453 72.6477 281.717 77.2077 286.457 80.0157C286.253 80.1717 285.893 80.5557 285.725 80.7717C280.925 77.8677 280.529 72.7557 280.529 70.4997ZM280.193 72.8517L281.213 73.0437C280.349 76.7037 278.765 79.2357 276.113 80.7957C275.945 80.6037 275.537 80.2317 275.297 80.0637C277.961 78.6717 279.461 76.2477 280.193 72.8517ZM289.373 73.3557H296.321V74.2077H289.373V73.3557ZM289.373 76.1997H296.321V77.0517H289.373V76.1997ZM289.373 79.0557H296.321V79.9317H289.373V79.0557ZM288.749 70.5117H296.897V80.7477H295.961V71.3997H289.649V80.7477H288.749V70.5117ZM300.437 71.6997H304.085V79.5477H300.437V78.7317H303.245V72.5037H300.437V71.6997ZM299.897 71.6997H300.737V80.5077H299.897V71.6997ZM300.377 75.0357H303.689V75.8397H300.377V75.0357ZM301.733 69.7437L302.705 69.9237C302.465 70.6677 302.165 71.4957 301.925 72.0357L301.205 71.8557C301.409 71.2797 301.637 70.3677 301.733 69.7437ZM305.789 71.6637H309.473V72.5037H305.789V71.6637ZM309.161 71.6637H310.001C310.001 71.6637 310.001 71.9997 310.001 72.1317C309.809 77.6397 309.641 79.4997 309.161 80.0877C308.897 80.4357 308.621 80.5437 308.201 80.5797C307.793 80.6277 307.085 80.6037 306.413 80.5677C306.389 80.3037 306.281 79.9317 306.113 79.6917C306.893 79.7517 307.613 79.7637 307.889 79.7637C308.129 79.7637 308.273 79.7277 308.405 79.5717C308.801 79.1397 308.993 77.1477 309.161 71.8557V71.6637ZM306.041 69.7197L306.905 69.9237C306.461 71.7117 305.753 73.4757 304.925 74.6157C304.769 74.4717 304.397 74.2197 304.181 74.0997C304.997 73.0437 305.657 71.3877 306.041 69.7197ZM305.489 74.7837L306.185 74.3757C306.869 75.2277 307.697 76.3917 308.081 77.0997L307.313 77.5797C306.953 76.8477 306.149 75.6597 305.489 74.7837ZM318.485 69.7677H319.337V78.1317H318.485V69.7677ZM314.705 74.7237L321.173 71.9997L321.509 72.7677L315.053 75.5157L314.705 74.7237ZM316.001 70.8957H316.865V78.9237C316.865 79.5837 317.009 79.7277 317.813 79.7277C318.209 79.7277 320.225 79.7277 320.705 79.7277C321.413 79.7277 321.533 79.4037 321.617 78.0237C321.833 78.1677 322.181 78.3117 322.433 78.3597C322.289 80.0157 322.001 80.5437 320.741 80.5437C320.417 80.5437 318.089 80.5437 317.789 80.5437C316.409 80.5437 316.001 80.2197 316.001 78.9117V70.8957ZM321.017 72.1197H320.909L321.125 71.9397L321.281 71.8077L321.917 72.0477L321.881 72.2157C321.881 74.4717 321.845 76.2717 321.761 76.7397C321.689 77.2197 321.461 77.4477 321.113 77.5317C320.789 77.6157 320.309 77.6157 319.985 77.6157C319.949 77.3757 319.877 77.0397 319.769 76.8357C320.045 76.8477 320.441 76.8477 320.573 76.8477C320.753 76.8477 320.873 76.7997 320.933 76.5237C321.005 76.2117 321.017 74.5077 321.017 72.1197ZM311.357 72.6597H315.173V73.5117H311.357V72.6597ZM312.905 69.9117H313.757V77.6997H312.905V69.9117ZM311.249 78.0117C312.221 77.6517 313.697 77.0277 315.125 76.4157L315.317 77.2197C314.033 77.8317 312.677 78.4437 311.609 78.8997L311.249 78.0117ZM274.63 94.5597C274.63 93.9037 274.69 93.2637 274.81 92.6397C274.938 92.0157 275.134 91.4197 275.398 90.8517C275.662 90.2837 275.994 89.7597 276.394 89.2797H277.39C277.022 89.7757 276.71 90.3117 276.454 90.8877C276.206 91.4637 276.018 92.0597 275.89 92.6757C275.762 93.2917 275.698 93.9157 275.698 94.5477C275.698 95.1637 275.762 95.7757 275.89 96.3837C276.018 96.9917 276.206 97.5757 276.454 98.1357C276.702 98.7037 277.01 99.2397 277.378 99.7437H276.394C275.994 99.2717 275.662 98.7557 275.398 98.1957C275.134 97.6437 274.938 97.0597 274.81 96.4437C274.69 95.8277 274.63 95.1997 274.63 94.5597ZM284.549 90.6837H285.485V97.1397C285.485 97.7037 285.629 97.8117 286.301 97.8117C286.637 97.8117 288.197 97.8117 288.629 97.8117C289.325 97.8117 289.433 97.4157 289.529 95.5077C289.757 95.6757 290.141 95.8437 290.405 95.9037C290.261 98.0637 289.985 98.7117 288.677 98.7117C288.365 98.7117 286.529 98.7117 286.229 98.7117C284.921 98.7117 284.549 98.3757 284.549 97.1157V90.6837ZM284.573 88.4397L285.161 87.8037C286.193 88.4757 287.501 89.4597 288.197 90.0237L287.597 90.7557C286.901 90.1437 285.581 89.1357 284.573 88.4397ZM282.629 91.4037L283.469 91.6197C283.205 92.9517 282.761 94.6797 282.089 95.7357L281.237 95.3877C281.921 94.3437 282.389 92.7117 282.629 91.4037ZM289.721 92.1837L290.525 91.8117C291.365 93.0117 292.169 94.5837 292.505 95.6397L291.641 96.0717C291.341 95.0037 290.525 93.3837 289.721 92.1837ZM290.357 88.4877L291.245 88.8597C289.277 92.6037 286.109 96.0597 281.837 98.0997C281.705 97.8957 281.441 97.5717 281.249 97.3917C285.389 95.5077 288.617 92.0397 290.357 88.4877ZM296.993 88.7757H304.241V89.5317H296.993V88.7757ZM296.657 95.7837H304.397V96.5517H296.657V95.7837ZM300.149 87.7677H301.025V90.7557H300.149V87.7677ZM298.769 92.3397V93.1077H302.453V92.3397H298.769ZM298.769 93.7077V94.4757H302.453V93.7077H298.769ZM298.769 91.0077V91.7517H302.453V91.0077H298.769ZM297.941 90.3837H303.317V95.0997H297.941V90.3837ZM301.241 97.1637L301.865 96.7077C302.813 97.2237 303.857 97.8717 304.481 98.3637L303.653 98.8197C303.101 98.3397 302.141 97.6797 301.241 97.1637ZM299.033 96.7437L299.873 97.0317C299.129 97.7397 297.965 98.4117 296.981 98.8317C296.837 98.6637 296.501 98.3397 296.309 98.1957C297.305 97.8477 298.385 97.3077 299.033 96.7437ZM293.489 90.7077H297.029V91.5597H293.489V90.7077ZM294.893 87.9237H295.745V95.7477H294.893V87.9237ZM293.261 95.9997C294.233 95.6397 295.697 95.0157 297.113 94.4157L297.317 95.2557C296.045 95.8437 294.665 96.4437 293.609 96.8997L293.261 95.9997ZM311.102 94.5597C311.102 95.1997 311.038 95.8277 310.91 96.4437C310.79 97.0597 310.598 97.6437 310.334 98.1957C310.078 98.7557 309.746 99.2717 309.338 99.7437H308.354C308.722 99.2397 309.03 98.7037 309.278 98.1357C309.526 97.5757 309.714 96.9917 309.842 96.3837C309.97 95.7757 310.034 95.1637 310.034 94.5477C310.034 93.9157 309.97 93.2917 309.842 92.6757C309.714 92.0597 309.526 91.4637 309.278 90.8877C309.03 90.3117 308.718 89.7757 308.342 89.2797H309.338C309.746 89.7597 310.078 90.2837 310.334 90.8517C310.598 91.4197 310.79 92.0157 310.91 92.6397C311.038 93.2637 311.102 93.9037 311.102 94.5597Z" fill="black" fill-opacity="0.8"/>
<path d="M217.648 74.1133C217.372 74.1133 217.148 74.3371 217.148 74.6133C217.148 74.8894 217.372 75.1133 217.648 75.1133V74.1133ZM237.113 74.9668C237.309 74.7716 237.309 74.455 237.113 74.2597L233.931 71.0777C233.736 70.8825 233.42 70.8825 233.224 71.0777C233.029 71.273 233.029 71.5896 233.224 71.7849L236.053 74.6133L233.224 77.4417C233.029 77.637 233.029 77.9536 233.224 78.1488C233.42 78.3441 233.736 78.3441 233.931 78.1488L237.113 74.9668ZM217.648 75.1133H236.76V74.1133H217.648V75.1133Z" fill="#B3B3B3"/>
<rect x="372.08" y="34.8477" width="104.211" height="79.532" rx="3" fill="#88CBE8" fill-opacity="0.3" stroke="#88CBE8" stroke-linecap="round"/>
<path d="M408.42 53.0997H416.124V53.9397H408.42V53.0997ZM409.608 55.8717V57.6717H414.852V55.8717H409.608ZM408.78 55.1037H415.728V58.4397H408.78V55.1037ZM409.524 58.6797C410.652 60.5637 413.112 61.6797 416.232 62.0277C416.04 62.2197 415.812 62.5797 415.692 62.8317C412.512 62.3757 410.052 61.1277 408.78 58.9317L409.524 58.6797ZM411.756 51.8157H412.644V57.1317C412.644 59.4477 412.248 61.7517 408.528 62.8557C408.42 62.6517 408.168 62.2917 407.988 62.0997C411.552 61.1997 411.756 59.1477 411.756 57.1197V51.8157ZM407.904 51.7437L408.756 52.0077C407.94 54.0357 406.656 56.0517 405.324 57.3837C405.24 57.1797 404.988 56.7117 404.82 56.4957C406.032 55.3557 407.208 53.5677 407.904 51.7437ZM406.644 54.8877L407.496 54.0357L407.508 54.0477V62.8677H406.644V54.8877ZM418.92 52.6197H426.684V53.4837H418.92V52.6197ZM418.92 55.4157H426.672V56.2677H418.92V55.4157ZM418.86 58.2837H426.696V59.1357H418.86V58.2837ZM418.416 52.6197H419.304V56.9757C419.304 58.7997 419.088 61.2837 417.66 62.8797C417.516 62.6997 417.156 62.3997 416.964 62.2797C418.284 60.7917 418.416 58.6557 418.416 56.9637V52.6197ZM426.324 52.6197H427.212V61.5837C427.212 62.1717 427.068 62.4477 426.672 62.6037C426.264 62.7477 425.568 62.7597 424.428 62.7477C424.392 62.5077 424.248 62.1117 424.116 61.8717C424.968 61.9077 425.784 61.8957 426.012 61.8957C426.24 61.8837 426.324 61.8117 426.324 61.5837V52.6197ZM422.184 52.9437H423.096V62.6997H422.184V52.9437ZM429.228 55.6317H439.92V56.4357H429.228V55.6317ZM430.284 53.2797H437.232V54.0837H430.284V53.2797ZM432.228 59.6517H437.88V60.3717H432.228V59.6517ZM432.228 61.6437H437.88V62.4237H432.228V61.6437ZM433.368 51.7677H434.244V56.0637H433.368V51.7677ZM438.624 52.1877L439.392 52.5957C436.98 55.7517 433.368 58.1157 429.528 59.5917C429.42 59.3877 429.132 59.0157 428.952 58.8357C432.828 57.4917 436.404 55.1637 438.624 52.1877ZM431.736 57.7077H438.456V62.7717H437.52V58.4637H432.636V62.8197H431.736V57.7077ZM441.444 61.1997C441.444 60.9037 441.516 60.6957 441.66 60.5757C441.804 60.4557 441.976 60.3957 442.176 60.3957C442.384 60.3957 442.56 60.4557 442.704 60.5757C442.856 60.6957 442.932 60.9037 442.932 61.1997C442.932 61.4877 442.856 61.6957 442.704 61.8237C442.56 61.9517 442.384 62.0157 442.176 62.0157C441.976 62.0157 441.804 61.9517 441.66 61.8237C441.516 61.6957 441.444 61.4877 441.444 61.1997ZM441.444 56.0637C441.444 55.7597 441.516 55.5477 441.66 55.4277C441.804 55.3077 441.976 55.2477 442.176 55.2477C442.384 55.2477 442.56 55.3077 442.704 55.4277C442.856 55.5477 442.932 55.7597 442.932 56.0637C442.932 56.3517 442.856 56.5597 442.704 56.6877C442.56 56.8157 442.384 56.8797 442.176 56.8797C441.976 56.8797 441.804 56.8157 441.66 56.6877C441.516 56.5597 441.444 56.3517 441.444 56.0637ZM406.845 72.8397H410.169V73.5837H406.845V72.8397ZM406.077 76.1157H408.045V76.7637H406.077V76.1157ZM406.077 77.7597H408.045V78.4437H406.077V77.7597ZM409.053 74.7717H409.713V78.9957H409.053V74.7717ZM408.513 70.6557C407.913 71.7117 406.797 72.9477 405.585 73.7277C405.489 73.4997 405.285 73.1877 405.141 72.9957C406.341 72.2637 407.505 70.9557 408.069 69.8157H408.885C409.629 71.0397 410.841 72.2397 411.969 72.8397C411.789 73.0557 411.609 73.3797 411.477 73.6317C410.373 72.9237 409.185 71.7357 408.513 70.6557ZM405.669 74.5077H407.913V75.1917H406.329V80.7717H405.669V74.5077ZM407.709 74.5077H408.369V80.0397C408.369 80.3637 408.309 80.5557 408.117 80.6877C407.901 80.7957 407.613 80.8077 407.181 80.8077C407.157 80.6277 407.061 80.3397 406.989 80.1597C407.265 80.1597 407.505 80.1597 407.589 80.1597C407.673 80.1597 407.709 80.1237 407.709 80.0277V74.5077ZM410.661 74.3157H411.405V79.9317C411.405 80.3277 411.321 80.5317 411.057 80.6637C410.769 80.7717 410.337 80.7717 409.629 80.7717C409.605 80.5917 409.497 80.2917 409.401 80.0997C409.905 80.1117 410.349 80.1117 410.481 80.0997C410.613 80.0877 410.661 80.0517 410.661 79.9197V74.3157ZM400.797 71.0637H405.369V71.8677H400.797V71.0637ZM400.653 77.9157H405.333V78.7197H400.653V77.9157ZM402.633 69.7677H403.437V73.0677H402.633V69.7677ZM402.729 73.1157H403.341V76.6077H403.437V80.8317H402.633V76.6077H402.729V73.1157ZM401.649 75.1797V76.2717H404.421V75.1797H401.649ZM401.649 73.4517V74.5317H404.421V73.4517H401.649ZM400.977 72.7677H405.105V76.9437H400.977V72.7677ZM414.909 70.4997H418.305V71.4117H414.909V70.4997ZM417.849 70.4997H418.773C418.773 72.6477 419.037 77.2077 423.777 80.0157C423.573 80.1717 423.213 80.5557 423.045 80.7717C418.245 77.8677 417.849 72.7557 417.849 70.4997ZM417.513 72.8517L418.533 73.0437C417.669 76.7037 416.085 79.2357 413.433 80.7957C413.265 80.6037 412.857 80.2317 412.617 80.0637C415.281 78.6717 416.781 76.2477 417.513 72.8517ZM426.297 70.5837H434.157V80.6277H433.209V71.4957H427.221V80.6757H426.297V70.5837ZM426.909 74.7477H433.605V75.6357H426.909V74.7477ZM426.897 78.9957H433.629V79.8957H426.897V78.9957ZM443.505 70.3677H446.841V71.1957H443.505V70.3677ZM443.505 73.1277H446.841V73.9317H443.505V73.1277ZM443.493 75.9237H446.865V76.7397H443.493V75.9237ZM446.433 70.3677H447.309V79.6677C447.309 80.1837 447.189 80.4597 446.841 80.6037C446.505 80.7477 445.941 80.7717 445.053 80.7717C445.029 80.5197 444.897 80.1237 444.777 79.8957C445.413 79.9077 446.013 79.9077 446.193 79.8957C446.373 79.8957 446.433 79.8357 446.433 79.6557V70.3677ZM443.133 70.3677H443.985V74.7237C443.985 76.5717 443.841 79.1637 442.761 80.8677C442.605 80.6997 442.245 80.4357 442.041 80.3517C443.049 78.7437 443.133 76.4637 443.133 74.7237V70.3677ZM436.797 71.3757H442.545V72.1677H436.797V71.3757ZM438.213 73.2357H441.249V73.9677H438.213V73.2357ZM438.213 75.1437H441.261V75.8637H438.213V75.1437ZM436.641 77.0757H442.545V77.8797H436.641V77.0757ZM437.817 69.9117H438.645V77.3997H437.817V69.9117ZM440.829 69.9117H441.657V77.3997H440.829V69.9117ZM438.309 78.1437L439.173 78.3837C438.729 79.2957 438.033 80.2197 437.385 80.8197C437.217 80.6757 436.869 80.4117 436.653 80.2917C437.325 79.7517 437.949 78.9477 438.309 78.1437ZM440.037 78.5157L440.733 78.1437C441.201 78.6837 441.765 79.4277 442.005 79.9197L441.273 80.3517C441.045 79.8717 440.505 79.0797 440.037 78.5157ZM405.951 94.5597C405.951 93.9037 406.011 93.2637 406.131 92.6397C406.259 92.0157 406.455 91.4197 406.719 90.8517C406.983 90.2837 407.315 89.7597 407.715 89.2797H408.711C408.343 89.7757 408.031 90.3117 407.775 90.8877C407.527 91.4637 407.339 92.0597 407.211 92.6757C407.083 93.2917 407.019 93.9157 407.019 94.5477C407.019 95.1637 407.083 95.7757 407.211 96.3837C407.339 96.9917 407.527 97.5757 407.775 98.1357C408.023 98.7037 408.331 99.2397 408.699 99.7437H407.715C407.315 99.2717 406.983 98.7557 406.719 98.1957C406.455 97.6437 406.259 97.0597 406.131 96.4437C406.011 95.8277 405.951 95.1997 405.951 94.5597ZM415.053 92.5077V96.7557H414.201V93.3477H412.725V92.5077H415.053ZM415.053 96.3957C415.617 97.2957 416.685 97.7037 418.113 97.7637C419.469 97.8237 422.289 97.7877 423.765 97.6917C423.657 97.8837 423.513 98.2917 423.477 98.5437C422.109 98.6037 419.493 98.6277 418.125 98.5797C416.529 98.5197 415.437 98.0877 414.681 97.1397C414.165 97.6557 413.625 98.1717 413.049 98.7117L412.581 97.8597C413.097 97.4637 413.733 96.9237 414.285 96.3957H415.053ZM412.785 88.5117L413.481 88.0557C414.189 88.6317 414.993 89.4597 415.329 90.0597L414.573 90.5757C414.261 89.9757 413.481 89.1117 412.785 88.5117ZM415.941 92.8437H423.225V93.5397H415.941V92.8437ZM415.557 94.6917H423.597V95.3997H415.557V94.6917ZM417.717 91.9797H418.581V95.0397H417.717V91.9797ZM420.549 91.9797H421.401V95.0397H420.549V91.9797ZM416.241 89.6517H418.353V88.8717H415.785V88.2477H419.145V90.2877H416.241V89.6517ZM415.989 89.6517H416.757V90.8997C416.757 91.1277 416.817 91.1757 417.201 91.1757C417.369 91.1757 418.281 91.1757 418.509 91.1757C418.797 91.1757 418.857 91.1037 418.893 90.5757C419.037 90.6957 419.337 90.7917 419.553 90.8277C419.469 91.6077 419.241 91.8117 418.629 91.8117C418.437 91.8117 417.297 91.8117 417.117 91.8117C416.229 91.8117 415.989 91.6317 415.989 90.9117V89.6517ZM420.201 89.6517H422.277V88.8717H419.721V88.2477H423.057V90.2877H420.201V89.6517ZM419.937 89.6517H420.705V90.8997C420.705 91.1277 420.777 91.1757 421.185 91.1757C421.377 91.1757 422.361 91.1757 422.601 91.1757C422.901 91.1757 422.961 91.1037 422.997 90.5397C423.153 90.6477 423.453 90.7437 423.669 90.7917C423.585 91.6077 423.357 91.8117 422.709 91.8117C422.517 91.8117 421.293 91.8117 421.101 91.8117C420.189 91.8117 419.937 91.6317 419.937 90.8997V89.6517ZM420.333 95.9397L420.981 95.5437C421.857 95.9637 422.841 96.5517 423.417 96.9957L422.529 97.3917C422.049 96.9477 421.161 96.3717 420.333 95.9397ZM418.137 95.5197L418.929 95.7957C418.317 96.3837 417.345 96.9717 416.541 97.3557C416.409 97.1997 416.073 96.9117 415.881 96.7917C416.697 96.4677 417.597 96.0117 418.137 95.5197ZM428.313 88.7757H435.561V89.5317H428.313V88.7757ZM427.977 95.7837H435.717V96.5517H427.977V95.7837ZM431.469 87.7677H432.345V90.7557H431.469V87.7677ZM430.089 92.3397V93.1077H433.773V92.3397H430.089ZM430.089 93.7077V94.4757H433.773V93.7077H430.089ZM430.089 91.0077V91.7517H433.773V91.0077H430.089ZM429.261 90.3837H434.637V95.0997H429.261V90.3837ZM432.561 97.1637L433.185 96.7077C434.133 97.2237 435.177 97.8717 435.801 98.3637L434.973 98.8197C434.421 98.3397 433.461 97.6797 432.561 97.1637ZM430.353 96.7437L431.193 97.0317C430.449 97.7397 429.285 98.4117 428.301 98.8317C428.157 98.6637 427.821 98.3397 427.629 98.1957C428.625 97.8477 429.705 97.3077 430.353 96.7437ZM424.809 90.7077H428.349V91.5597H424.809V90.7077ZM426.213 87.9237H427.065V95.7477H426.213V87.9237ZM424.581 95.9997C425.553 95.6397 427.017 95.0157 428.433 94.4157L428.637 95.2557C427.365 95.8437 425.985 96.4437 424.929 96.8997L424.581 95.9997ZM442.423 94.5597C442.423 95.1997 442.359 95.8277 442.231 96.4437C442.111 97.0597 441.919 97.6437 441.655 98.1957C441.399 98.7557 441.067 99.2717 440.659 99.7437H439.675C440.043 99.2397 440.351 98.7037 440.599 98.1357C440.847 97.5757 441.035 96.9917 441.163 96.3837C441.291 95.7757 441.355 95.1637 441.355 94.5477C441.355 93.9157 441.291 93.2917 441.163 92.6757C441.035 92.0597 440.847 91.4637 440.599 90.8877C440.351 90.3117 440.039 89.7757 439.663 89.2797H440.659C441.067 89.7597 441.399 90.2837 441.655 90.8517C441.919 91.4197 442.111 92.0157 442.231 92.6397C442.359 93.2637 442.423 93.9037 442.423 94.5597Z" fill="black" fill-opacity="0.8"/>
<rect x="503.398" y="34.8477" width="104.211" height="79.532" rx="3" fill="#88CBE8" fill-opacity="0.3" stroke="#88CBE8" stroke-linecap="round"/>
<path d="M539.738 53.0997H547.442V53.9397H539.738V53.0997ZM540.926 55.8717V57.6717H546.17V55.8717H540.926ZM540.098 55.1037H547.046V58.4397H540.098V55.1037ZM540.842 58.6797C541.97 60.5637 544.43 61.6797 547.55 62.0277C547.358 62.2197 547.13 62.5797 547.01 62.8317C543.83 62.3757 541.37 61.1277 540.098 58.9317L540.842 58.6797ZM543.074 51.8157H543.962V57.1317C543.962 59.4477 543.566 61.7517 539.846 62.8557C539.738 62.6517 539.486 62.2917 539.306 62.0997C542.87 61.1997 543.074 59.1477 543.074 57.1197V51.8157ZM539.222 51.7437L540.074 52.0077C539.258 54.0357 537.974 56.0517 536.642 57.3837C536.558 57.1797 536.306 56.7117 536.138 56.4957C537.35 55.3557 538.526 53.5677 539.222 51.7437ZM537.962 54.8877L538.814 54.0357L538.826 54.0477V62.8677H537.962V54.8877ZM550.238 52.6197H558.002V53.4837H550.238V52.6197ZM550.238 55.4157H557.99V56.2677H550.238V55.4157ZM550.178 58.2837H558.014V59.1357H550.178V58.2837ZM549.734 52.6197H550.622V56.9757C550.622 58.7997 550.406 61.2837 548.978 62.8797C548.834 62.6997 548.474 62.3997 548.282 62.2797C549.602 60.7917 549.734 58.6557 549.734 56.9637V52.6197ZM557.642 52.6197H558.53V61.5837C558.53 62.1717 558.386 62.4477 557.99 62.6037C557.582 62.7477 556.886 62.7597 555.746 62.7477C555.71 62.5077 555.566 62.1117 555.434 61.8717C556.286 61.9077 557.102 61.8957 557.33 61.8957C557.558 61.8837 557.642 61.8117 557.642 61.5837V52.6197ZM553.502 52.9437H554.414V62.6997H553.502V52.9437ZM560.546 55.6317H571.238V56.4357H560.546V55.6317ZM561.602 53.2797H568.55V54.0837H561.602V53.2797ZM563.546 59.6517H569.198V60.3717H563.546V59.6517ZM563.546 61.6437H569.198V62.4237H563.546V61.6437ZM564.686 51.7677H565.562V56.0637H564.686V51.7677ZM569.942 52.1877L570.71 52.5957C568.298 55.7517 564.686 58.1157 560.846 59.5917C560.738 59.3877 560.45 59.0157 560.27 58.8357C564.146 57.4917 567.722 55.1637 569.942 52.1877ZM563.054 57.7077H569.774V62.7717H568.838V58.4637H563.954V62.8197H563.054V57.7077ZM572.762 61.1997C572.762 60.9037 572.834 60.6957 572.978 60.5757C573.122 60.4557 573.294 60.3957 573.494 60.3957C573.702 60.3957 573.878 60.4557 574.022 60.5757C574.174 60.6957 574.25 60.9037 574.25 61.1997C574.25 61.4877 574.174 61.6957 574.022 61.8237C573.878 61.9517 573.702 62.0157 573.494 62.0157C573.294 62.0157 573.122 61.9517 572.978 61.8237C572.834 61.6957 572.762 61.4877 572.762 61.1997ZM572.762 56.0637C572.762 55.7597 572.834 55.5477 572.978 55.4277C573.122 55.3077 573.294 55.2477 573.494 55.2477C573.702 55.2477 573.878 55.3077 574.022 55.4277C574.174 55.5477 574.25 55.7597 574.25 56.0637C574.25 56.3517 574.174 56.5597 574.022 56.6877C573.878 56.8157 573.702 56.8797 573.494 56.8797C573.294 56.8797 573.122 56.8157 572.978 56.6877C572.834 56.5597 572.762 56.3517 572.762 56.0637ZM520.164 72.8397H523.488V73.5837H520.164V72.8397ZM519.396 76.1157H521.364V76.7637H519.396V76.1157ZM519.396 77.7597H521.364V78.4437H519.396V77.7597ZM522.372 74.7717H523.032V78.9957H522.372V74.7717ZM521.832 70.6557C521.232 71.7117 520.116 72.9477 518.904 73.7277C518.808 73.4997 518.604 73.1877 518.46 72.9957C519.66 72.2637 520.824 70.9557 521.388 69.8157H522.204C522.948 71.0397 524.16 72.2397 525.288 72.8397C525.108 73.0557 524.928 73.3797 524.796 73.6317C523.692 72.9237 522.504 71.7357 521.832 70.6557ZM518.988 74.5077H521.232V75.1917H519.648V80.7717H518.988V74.5077ZM521.028 74.5077H521.688V80.0397C521.688 80.3637 521.628 80.5557 521.436 80.6877C521.22 80.7957 520.932 80.8077 520.5 80.8077C520.476 80.6277 520.38 80.3397 520.308 80.1597C520.584 80.1597 520.824 80.1597 520.908 80.1597C520.992 80.1597 521.028 80.1237 521.028 80.0277V74.5077ZM523.98 74.3157H524.724V79.9317C524.724 80.3277 524.64 80.5317 524.376 80.6637C524.088 80.7717 523.656 80.7717 522.948 80.7717C522.924 80.5917 522.816 80.2917 522.72 80.0997C523.224 80.1117 523.668 80.1117 523.8 80.0997C523.932 80.0877 523.98 80.0517 523.98 79.9197V74.3157ZM514.116 71.0637H518.688V71.8677H514.116V71.0637ZM513.972 77.9157H518.652V78.7197H513.972V77.9157ZM515.952 69.7677H516.756V73.0677H515.952V69.7677ZM516.048 73.1157H516.66V76.6077H516.756V80.8317H515.952V76.6077H516.048V73.1157ZM514.968 75.1797V76.2717H517.74V75.1797H514.968ZM514.968 73.4517V74.5317H517.74V73.4517H514.968ZM514.296 72.7677H518.424V76.9437H514.296V72.7677ZM528.228 70.4997H531.624V71.4117H528.228V70.4997ZM531.168 70.4997H532.092C532.092 72.6477 532.356 77.2077 537.096 80.0157C536.892 80.1717 536.532 80.5557 536.364 80.7717C531.564 77.8677 531.168 72.7557 531.168 70.4997ZM530.832 72.8517L531.852 73.0437C530.988 76.7037 529.404 79.2357 526.752 80.7957C526.584 80.6037 526.176 80.2317 525.936 80.0637C528.6 78.6717 530.1 76.2477 530.832 72.8517ZM539.34 72.0477H540.216V74.7357C540.216 76.4997 540 78.9597 538.608 80.5917C538.452 80.4357 538.068 80.1837 537.852 80.0877C539.184 78.5277 539.34 76.3437 539.34 74.7237V72.0477ZM539.784 72.0477H547.848V74.6397H539.784V73.9437H546.96V72.7437H539.784V72.0477ZM538.476 70.4157H548.556V71.2317H538.476V70.4157ZM539.736 75.6837H548.856V76.4277H539.736V75.6837ZM542.94 77.3877H547.02V78.1077H542.94V77.3877ZM543.48 74.5437H544.368V76.0557H543.48V74.5437ZM546.792 77.3877H547.692C547.692 77.3877 547.68 77.6277 547.656 77.7477C547.5 79.5237 547.332 80.2677 547.02 80.5677C546.816 80.7717 546.564 80.8437 546.228 80.8557C545.904 80.8797 545.256 80.8797 544.596 80.8317C544.572 80.6037 544.488 80.2917 544.356 80.0757C544.992 80.1357 545.628 80.1477 545.856 80.1477C546.072 80.1477 546.192 80.1237 546.3 80.0277C546.504 79.8357 546.648 79.1757 546.792 77.5077V77.3877ZM542.76 76.0557H543.648C543.42 78.3717 542.772 80.0037 540 80.8437C539.916 80.6397 539.676 80.3157 539.496 80.1477C542.04 79.4517 542.556 78.0237 542.76 76.0557ZM557.148 71.9997H561.024V72.8397H557.148V71.9997ZM557.388 69.7677L558.264 69.8997C557.916 72.1797 557.34 74.3877 556.44 75.8157C556.308 75.6597 555.96 75.3357 555.756 75.1917C556.608 73.8837 557.112 71.8437 557.388 69.7677ZM559.512 72.4437L560.364 72.5277C559.872 76.5117 558.816 79.1637 556.212 80.8437C556.128 80.6517 555.864 80.2797 555.708 80.0997C558.144 78.6597 559.104 76.1037 559.512 72.4437ZM557.592 72.7557C558.048 76.0437 559.044 78.8997 561.084 80.1117C560.88 80.2797 560.604 80.6037 560.46 80.8197C558.336 79.4277 557.34 76.4637 556.824 72.8757L557.592 72.7557ZM552.756 69.7677H553.56V76.0677H552.756V69.7677ZM551.568 71.1357V73.1397H554.844V71.1357H551.568ZM550.8 70.4997H555.636V73.7757H550.8V70.4997ZM551.28 74.9397V75.7197H555.12V74.9397H551.28ZM550.5 74.3277H555.924V76.3317H550.5V74.3277ZM549.984 77.0997C551.604 77.0997 554.124 77.0637 556.56 77.0157L556.524 77.6997C554.136 77.7597 551.652 77.7957 550.008 77.8197L549.984 77.0997ZM552.384 76.1397L553.152 76.3197C552.648 77.2917 551.964 78.4917 551.484 79.2717L550.74 79.0557C551.232 78.2877 551.916 77.0637 552.384 76.1397ZM551.424 78.8397L551.868 78.2997C553.272 78.7797 554.748 79.4637 555.624 80.0517L555.048 80.6157C554.22 80.0277 552.816 79.3437 551.424 78.8397ZM554.544 77.3877L555.324 77.5197C554.844 79.4757 553.356 80.3877 550.62 80.8557C550.572 80.6277 550.416 80.3277 550.272 80.1477C552.756 79.8477 554.1 79.0797 554.544 77.3877ZM549.972 71.7837H551.124V71.8317H555.264V71.7837H556.488V72.4797H555.264V72.4317H551.124V72.4797H549.972V71.7837ZM569.352 70.5237H571.572V71.3277H569.352V70.5237ZM566.58 71.1117H569.112V71.8797H566.58V71.1117ZM569.472 72.7437H571.548V73.4997H569.472V72.7437ZM569.448 74.9877H571.488V75.7437H569.448V74.9877ZM563.532 72.7437H565.572V73.4997H563.532V72.7437ZM563.58 74.9757H565.584V75.7437H563.58V74.9757ZM563.052 70.6077L564.12 70.9317C564.096 71.0037 564.036 71.0517 563.892 71.0757L564.108 77.5797H563.292L563.052 70.6077ZM571.08 70.5237H571.92C571.908 72.7797 571.836 75.8277 571.716 77.5557H570.864C570.996 75.7917 571.092 72.7317 571.08 70.5237ZM565.26 69.8877L565.968 70.5357C565.236 70.9197 564.336 71.3037 563.568 71.5917C563.52 71.4357 563.376 71.1477 563.28 70.9677C563.976 70.6437 564.78 70.2117 565.26 69.8877ZM566.184 74.3877H566.928V77.5077H566.184V74.3877ZM566.196 69.8757H566.976V73.1277H568.536V73.8597H566.196V69.8757ZM568.092 73.1277H568.872V77.4957H568.092V73.1277ZM562.032 77.1957H572.988V78.0357H562.032V77.1957ZM568.62 78.8037L569.256 78.2037C570.588 78.8277 572.04 79.6317 572.916 80.2317L572.076 80.8437C571.272 80.2557 569.904 79.4397 568.62 78.8037ZM565.476 78.2277L566.316 78.7677C565.368 79.5117 563.952 80.3277 562.812 80.8317C562.656 80.6517 562.344 80.3637 562.128 80.1957C563.292 79.7157 564.732 78.8877 565.476 78.2277ZM578.88 70.1397H579.876C579.78 72.0237 579.6 78.0117 574.632 80.7117C574.476 80.4837 574.176 80.2077 573.9 80.0037C578.796 77.5077 578.796 71.7357 578.88 70.1397ZM579.84 70.3797C579.876 71.3157 580.224 77.6877 585.168 79.9557C584.904 80.1597 584.628 80.4597 584.484 80.7117C579.396 78.2757 579.06 71.5677 578.976 70.4637L579.84 70.3797ZM593.148 71.9997H597.024V72.8397H593.148V71.9997ZM593.388 69.7677L594.264 69.8997C593.916 72.1797 593.34 74.3877 592.44 75.8157C592.308 75.6597 591.96 75.3357 591.756 75.1917C592.608 73.8837 593.112 71.8437 593.388 69.7677ZM595.512 72.4437L596.364 72.5277C595.872 76.5117 594.816 79.1637 592.212 80.8437C592.128 80.6517 591.864 80.2797 591.708 80.0997C594.144 78.6597 595.104 76.1037 595.512 72.4437ZM593.592 72.7557C594.048 76.0437 595.044 78.8997 597.084 80.1117C596.88 80.2797 596.604 80.6037 596.46 80.8197C594.336 79.4277 593.34 76.4637 592.824 72.8757L593.592 72.7557ZM588.756 69.7677H589.56V76.0677H588.756V69.7677ZM587.568 71.1357V73.1397H590.844V71.1357H587.568ZM586.8 70.4997H591.636V73.7757H586.8V70.4997ZM587.28 74.9397V75.7197H591.12V74.9397H587.28ZM586.5 74.3277H591.924V76.3317H586.5V74.3277ZM585.984 77.0997C587.604 77.0997 590.124 77.0637 592.56 77.0157L592.524 77.6997C590.136 77.7597 587.652 77.7957 586.008 77.8197L585.984 77.0997ZM588.384 76.1397L589.152 76.3197C588.648 77.2917 587.964 78.4917 587.484 79.2717L586.74 79.0557C587.232 78.2877 587.916 77.0637 588.384 76.1397ZM587.424 78.8397L587.868 78.2997C589.272 78.7797 590.748 79.4637 591.624 80.0517L591.048 80.6157C590.22 80.0277 588.816 79.3437 587.424 78.8397ZM590.544 77.3877L591.324 77.5197C590.844 79.4757 589.356 80.3877 586.62 80.8557C586.572 80.6277 586.416 80.3277 586.272 80.1477C588.756 79.8477 590.1 79.0797 590.544 77.3877ZM585.972 71.7837H587.124V71.8317H591.264V71.7837H592.488V72.4797H591.264V72.4317H587.124V72.4797H585.972V71.7837ZM538.828 94.5597C538.828 93.9037 538.888 93.2637 539.008 92.6397C539.136 92.0157 539.332 91.4197 539.596 90.8517C539.86 90.2837 540.192 89.7597 540.592 89.2797H541.588C541.22 89.7757 540.908 90.3117 540.652 90.8877C540.404 91.4637 540.216 92.0597 540.088 92.6757C539.96 93.2917 539.896 93.9157 539.896 94.5477C539.896 95.1637 539.96 95.7757 540.088 96.3837C540.216 96.9917 540.404 97.5757 540.652 98.1357C540.9 98.7037 541.208 99.2397 541.576 99.7437H540.592C540.192 99.2717 539.86 98.7557 539.596 98.1957C539.332 97.6437 539.136 97.0597 539.008 96.4437C538.888 95.8277 538.828 95.1997 538.828 94.5597ZM544.813 92.5077V96.7557H543.961V93.3477H542.485V92.5077H544.813ZM544.813 96.3957C545.377 97.2957 546.445 97.7037 547.873 97.7637C549.229 97.8237 552.049 97.7877 553.525 97.6917C553.417 97.8837 553.273 98.2917 553.237 98.5437C551.869 98.6037 549.253 98.6277 547.885 98.5797C546.289 98.5197 545.197 98.0877 544.441 97.1397C543.925 97.6557 543.385 98.1717 542.809 98.7117L542.341 97.8597C542.857 97.4637 543.493 96.9237 544.045 96.3957H544.813ZM542.545 88.5117L543.241 88.0557C543.949 88.6317 544.753 89.4597 545.089 90.0597L544.333 90.5757C544.021 89.9757 543.241 89.1117 542.545 88.5117ZM545.701 92.8437H552.985V93.5397H545.701V92.8437ZM545.317 94.6917H553.357V95.3997H545.317V94.6917ZM547.477 91.9797H548.341V95.0397H547.477V91.9797ZM550.309 91.9797H551.161V95.0397H550.309V91.9797ZM546.001 89.6517H548.113V88.8717H545.545V88.2477H548.905V90.2877H546.001V89.6517ZM545.749 89.6517H546.517V90.8997C546.517 91.1277 546.577 91.1757 546.961 91.1757C547.129 91.1757 548.041 91.1757 548.269 91.1757C548.557 91.1757 548.617 91.1037 548.653 90.5757C548.797 90.6957 549.097 90.7917 549.313 90.8277C549.229 91.6077 549.001 91.8117 548.389 91.8117C548.197 91.8117 547.057 91.8117 546.877 91.8117C545.989 91.8117 545.749 91.6317 545.749 90.9117V89.6517ZM549.961 89.6517H552.037V88.8717H549.481V88.2477H552.817V90.2877H549.961V89.6517ZM549.697 89.6517H550.465V90.8997C550.465 91.1277 550.537 91.1757 550.945 91.1757C551.137 91.1757 552.121 91.1757 552.361 91.1757C552.661 91.1757 552.721 91.1037 552.757 90.5397C552.913 90.6477 553.213 90.7437 553.429 90.7917C553.345 91.6077 553.117 91.8117 552.469 91.8117C552.277 91.8117 551.053 91.8117 550.861 91.8117C549.949 91.8117 549.697 91.6317 549.697 90.8997V89.6517ZM550.093 95.9397L550.741 95.5437C551.617 95.9637 552.601 96.5517 553.177 96.9957L552.289 97.3917C551.809 96.9477 550.921 96.3717 550.093 95.9397ZM547.897 95.5197L548.689 95.7957C548.077 96.3837 547.105 96.9717 546.301 97.3557C546.169 97.1997 545.833 96.9117 545.641 96.7917C546.457 96.4677 547.357 96.0117 547.897 95.5197ZM558.073 88.7757H565.321V89.5317H558.073V88.7757ZM557.737 95.7837H565.477V96.5517H557.737V95.7837ZM561.229 87.7677H562.105V90.7557H561.229V87.7677ZM559.849 92.3397V93.1077H563.533V92.3397H559.849ZM559.849 93.7077V94.4757H563.533V93.7077H559.849ZM559.849 91.0077V91.7517H563.533V91.0077H559.849ZM559.021 90.3837H564.397V95.0997H559.021V90.3837ZM562.321 97.1637L562.945 96.7077C563.893 97.2237 564.937 97.8717 565.561 98.3637L564.733 98.8197C564.181 98.3397 563.221 97.6797 562.321 97.1637ZM560.113 96.7437L560.953 97.0317C560.209 97.7397 559.045 98.4117 558.061 98.8317C557.917 98.6637 557.581 98.3397 557.389 98.1957C558.385 97.8477 559.465 97.3077 560.113 96.7437ZM554.569 90.7077H558.109V91.5597H554.569V90.7077ZM555.973 87.9237H556.825V95.7477H555.973V87.9237ZM554.341 95.9997C555.313 95.6397 556.777 95.0157 558.193 94.4157L558.397 95.2557C557.125 95.8437 555.745 96.4437 554.689 96.8997L554.341 95.9997ZM572.182 94.5597C572.182 95.1997 572.118 95.8277 571.99 96.4437C571.87 97.0597 571.678 97.6437 571.414 98.1957C571.158 98.7557 570.826 99.2717 570.418 99.7437H569.434C569.802 99.2397 570.11 98.7037 570.358 98.1357C570.606 97.5757 570.794 96.9917 570.922 96.3837C571.05 95.7757 571.114 95.1637 571.114 94.5477C571.114 93.9157 571.05 93.2917 570.922 92.6757C570.794 92.0597 570.606 91.4637 570.358 90.8877C570.11 90.3117 569.798 89.7757 569.422 89.2797H570.418C570.826 89.7597 571.158 90.2837 571.414 90.8517C571.678 91.4197 571.87 92.0157 571.99 92.6397C572.118 93.2637 572.182 93.9037 572.182 94.5597Z" fill="black" fill-opacity="0.8"/>
<path d="M348.971 74.1133C348.695 74.1133 348.471 74.3371 348.471 74.6133C348.471 74.8894 348.695 75.1133 348.971 75.1133V74.1133ZM368.434 74.9668C368.629 74.7716 368.629 74.455 368.434 74.2597L365.252 71.0777C365.057 70.8825 364.74 70.8825 364.545 71.0777C364.349 71.273 364.349 71.5896 364.545 71.7849L367.373 74.6133L364.545 77.4417C364.349 77.637 364.349 77.9536 364.545 78.1488C364.74 78.3441 365.057 78.3441 365.252 78.1488L368.434 74.9668ZM348.971 75.1133H368.08V74.1133H348.971V75.1133Z" fill="#B3B3B3"/>
<path d="M480.291 74.1133C480.015 74.1133 479.791 74.3371 479.791 74.6133C479.791 74.8894 480.015 75.1133 480.291 75.1133V74.1133ZM499.752 74.9668C499.947 74.7716 499.947 74.455 499.752 74.2597L496.57 71.0777C496.375 70.8825 496.058 70.8825 495.863 71.0777C495.668 71.273 495.668 71.5896 495.863 71.7849L498.691 74.6133L495.863 77.4417C495.668 77.637 495.668 77.9536 495.863 78.1488C496.058 78.3441 496.375 78.3441 496.57 78.1488L499.752 74.9668ZM480.291 75.1133H499.399V74.1133H480.291V75.1133Z" fill="#B3B3B3"/>
<rect x="634.721" y="34.8477" width="104.211" height="79.532" rx="3" fill="#88CBE8" fill-opacity="0.3" stroke="#88CBE8" stroke-linecap="round"/>
<path d="M671.061 62.0997H678.765V62.9397H671.061V62.0997ZM672.249 64.8717V66.6717H677.493V64.8717H672.249ZM671.421 64.1037H678.369V67.4397H671.421V64.1037ZM672.165 67.6797C673.293 69.5637 675.753 70.6797 678.873 71.0277C678.681 71.2197 678.453 71.5797 678.333 71.8317C675.153 71.3757 672.693 70.1277 671.421 67.9317L672.165 67.6797ZM674.397 60.8157H675.285V66.1317C675.285 68.4477 674.889 70.7517 671.169 71.8557C671.061 71.6517 670.809 71.2917 670.629 71.0997C674.193 70.1997 674.397 68.1477 674.397 66.1197V60.8157ZM670.545 60.7437L671.397 61.0077C670.581 63.0357 669.297 65.0517 667.965 66.3837C667.881 66.1797 667.629 65.7117 667.461 65.4957C668.673 64.3557 669.849 62.5677 670.545 60.7437ZM669.285 63.8877L670.137 63.0357L670.149 63.0477V71.8677H669.285V63.8877ZM681.561 61.6197H689.325V62.4837H681.561V61.6197ZM681.561 64.4157H689.313V65.2677H681.561V64.4157ZM681.501 67.2837H689.337V68.1357H681.501V67.2837ZM681.057 61.6197H681.945V65.9757C681.945 67.7997 681.729 70.2837 680.301 71.8797C680.157 71.6997 679.797 71.3997 679.605 71.2797C680.925 69.7917 681.057 67.6557 681.057 65.9637V61.6197ZM688.965 61.6197H689.853V70.5837C689.853 71.1717 689.709 71.4477 689.313 71.6037C688.905 71.7477 688.209 71.7597 687.069 71.7477C687.033 71.5077 686.889 71.1117 686.757 70.8717C687.609 70.9077 688.425 70.8957 688.653 70.8957C688.881 70.8837 688.965 70.8117 688.965 70.5837V61.6197ZM684.825 61.9437H685.737V71.6997H684.825V61.9437ZM691.869 64.6317H702.561V65.4357H691.869V64.6317ZM692.925 62.2797H699.873V63.0837H692.925V62.2797ZM694.869 68.6517H700.521V69.3717H694.869V68.6517ZM694.869 70.6437H700.521V71.4237H694.869V70.6437ZM696.009 60.7677H696.885V65.0637H696.009V60.7677ZM701.265 61.1877L702.033 61.5957C699.621 64.7517 696.009 67.1157 692.169 68.5917C692.061 68.3877 691.773 68.0157 691.593 67.8357C695.469 66.4917 699.045 64.1637 701.265 61.1877ZM694.377 66.7077H701.097V71.7717H700.161V67.4637H695.277V71.8197H694.377V66.7077ZM704.085 70.1997C704.085 69.9037 704.157 69.6957 704.301 69.5757C704.445 69.4557 704.617 69.3957 704.817 69.3957C705.025 69.3957 705.201 69.4557 705.345 69.5757C705.497 69.6957 705.573 69.9037 705.573 70.1997C705.573 70.4877 705.497 70.6957 705.345 70.8237C705.201 70.9517 705.025 71.0157 704.817 71.0157C704.617 71.0157 704.445 70.9517 704.301 70.8237C704.157 70.6957 704.085 70.4877 704.085 70.1997ZM704.085 65.0637C704.085 64.7597 704.157 64.5477 704.301 64.4277C704.445 64.3077 704.617 64.2477 704.817 64.2477C705.025 64.2477 705.201 64.3077 705.345 64.4277C705.497 64.5477 705.573 64.7597 705.573 65.0637C705.573 65.3517 705.497 65.5597 705.345 65.6877C705.201 65.8157 705.025 65.8797 704.817 65.8797C704.617 65.8797 704.445 65.8157 704.301 65.6877C704.157 65.5597 704.085 65.3517 704.085 65.0637ZM669.162 84.4797H673.878V89.7597H673.014V85.3077H669.99V89.8077H669.162V84.4797ZM670.902 78.7917H671.79V84.7437H670.902V78.7917ZM671.418 81.3957H674.358V82.2357H671.418V81.3957ZM669.594 88.4157H673.434V89.2437H669.594V88.4157ZM664.458 79.8717V82.7757H667.758V79.8717H664.458ZM663.75 79.2117H668.49V83.4357H663.75V79.2117ZM664.626 80.4597L665.082 80.3397C665.286 80.9277 665.442 81.6837 665.478 82.1637L665.01 82.3077C664.986 81.8037 664.83 81.0477 664.626 80.4597ZM665.034 87.3357L665.622 87.2517C665.814 87.9117 665.934 88.7757 665.946 89.3397L665.322 89.4237C665.322 88.8597 665.202 87.9957 665.034 87.3357ZM666.186 87.2637L666.762 87.1437C667.038 87.7437 667.302 88.5477 667.386 89.0757L666.774 89.2077C666.702 88.6797 666.45 87.8757 666.186 87.2637ZM667.326 87.0957L667.89 86.8797C668.322 87.4317 668.754 88.1757 668.934 88.6677L668.334 88.9437C668.154 88.4277 667.734 87.6597 667.326 87.0957ZM664.014 87.2877L664.65 87.4557C664.53 88.3437 664.338 89.2797 663.822 89.8197L663.21 89.4837C663.678 88.9917 663.906 88.1157 664.014 87.2877ZM667.086 80.3037L667.614 80.5077C667.398 81.1197 667.158 81.8997 666.954 82.3797L666.558 82.2237C666.738 81.7077 666.978 80.8557 667.086 80.3037ZM663.402 86.0157C664.734 85.9557 666.774 85.8597 668.766 85.7397L668.742 86.4597C666.822 86.6037 664.83 86.7237 663.45 86.8077L663.402 86.0157ZM663.666 84.2517H668.574V84.9837H663.666V84.2517ZM665.766 79.5237H666.378V83.1237H666.474V86.2197H665.67V83.1237H665.766V79.5237ZM676.278 86.1597H685.47V86.7717H676.278V86.1597ZM675.546 87.4197H686.142V88.0557H675.546V87.4197ZM680.37 85.1037H681.27V88.9317C681.27 89.3997 681.138 89.5917 680.766 89.7117C680.394 89.8197 679.794 89.8197 678.81 89.8197C678.762 89.6157 678.63 89.3277 678.522 89.1237C679.23 89.1477 679.926 89.1477 680.118 89.1357C680.31 89.1237 680.37 89.0757 680.37 88.9077V85.1037ZM683.814 84.6117L684.438 85.1157C682.53 85.4997 679.362 85.6317 676.794 85.6197C676.782 85.4757 676.698 85.2117 676.626 85.0677C679.134 85.0557 682.254 84.9237 683.814 84.6117ZM675.57 79.3677H680.742V79.9077H675.57V79.3677ZM675.414 82.7757H680.814V83.2917H675.414V82.7757ZM676.602 81.5397V81.9717H679.698V81.5397H676.602ZM676.602 80.7237V81.1317H679.698V80.7237H676.602ZM675.954 80.3037H680.358V82.3917H675.954V80.3037ZM677.754 78.7797H678.486V84.4797H677.754V78.7797ZM681.018 81.7317H685.146V82.3557H681.018V81.7317ZM682.098 79.1517H684.354V79.7997H682.098V79.1517ZM684.834 81.7317H684.99L685.146 81.7077L685.578 81.8517C684.882 83.6397 683.13 84.3837 681.066 84.7317C681.006 84.5397 680.862 84.2637 680.718 84.1077C682.59 83.8797 684.258 83.2317 684.834 81.8277V81.7317ZM682.206 82.2957C682.902 83.4117 684.474 84.1317 686.382 84.3837C686.214 84.5397 685.998 84.8397 685.902 85.0317C683.934 84.6957 682.314 83.8317 681.534 82.4997L682.206 82.2957ZM681.654 79.1517H682.422V79.8717C682.422 80.5197 682.206 81.2397 681.258 81.7437C681.15 81.5757 680.838 81.2757 680.682 81.1797C681.51 80.7837 681.654 80.3037 681.654 79.8597V79.1517ZM683.934 79.1517H684.714V80.3757C684.714 80.5437 684.726 80.6517 684.762 80.6877C684.81 80.7117 684.858 80.7237 684.942 80.7237C685.014 80.7237 685.17 80.7237 685.266 80.7237C685.35 80.7237 685.458 80.7117 685.494 80.6997C685.542 80.6757 685.59 80.6397 685.614 80.5437C685.65 80.4597 685.662 80.2437 685.674 79.9557C685.806 80.0877 686.046 80.2077 686.238 80.2557C686.226 80.5677 686.178 80.9037 686.118 81.0357C686.046 81.1677 685.938 81.2637 685.806 81.3117C685.686 81.3597 685.47 81.3837 685.302 81.3837C685.182 81.3837 684.87 81.3837 684.75 81.3837C684.546 81.3837 684.282 81.3237 684.138 81.1917C683.982 81.0597 683.934 80.8677 683.934 80.3397V79.1517ZM676.038 83.4117H676.698V84.0837H679.614V83.4117H680.31V84.6237H676.038V83.4117ZM693.486 79.2117L694.146 79.8117C693.534 80.1717 692.742 80.4837 692.07 80.6997C692.022 80.5317 691.902 80.2677 691.794 80.0877C692.406 79.8597 693.09 79.5237 693.486 79.2117ZM691.626 79.8357L692.418 80.0877V83.9517H691.626V79.8357ZM691.626 83.5437H697.05V80.4957H695.526V79.7637H697.866V84.2877H691.626V83.5437ZM691.974 81.6597H693.726V82.3437H691.974V81.6597ZM695.574 81.6597H697.41V82.3437H695.574V81.6597ZM694.266 78.7797H695.082V85.5477H694.266V78.7797ZM691.302 85.3797H697.194V86.1477H691.302V85.3797ZM696.942 85.3797H697.11L697.266 85.3437L697.83 85.6197C696.69 88.1757 693.954 89.3517 691.014 89.8317C690.942 89.6037 690.774 89.2557 690.618 89.0637C693.366 88.7037 695.994 87.6477 696.942 85.5117V85.3797ZM692.874 86.0637C693.846 87.6717 695.946 88.7037 698.466 89.0997C698.262 89.2917 698.022 89.6397 697.902 89.8917C695.322 89.3997 693.21 88.2237 692.082 86.3637L692.874 86.0637ZM687.162 85.1517C688.194 84.8877 689.73 84.4317 691.218 83.9997L691.326 84.8157C689.958 85.2477 688.518 85.7037 687.402 86.0277L687.162 85.1517ZM687.318 81.1917H691.206V82.0317H687.318V81.1917ZM688.986 78.7797H689.862V88.7757C689.862 89.2677 689.742 89.5197 689.43 89.6517C689.118 89.7957 688.638 89.8197 687.834 89.8077C687.81 89.5917 687.678 89.2317 687.57 88.9917C688.11 89.0037 688.614 89.0037 688.758 89.0037C688.926 89.0037 688.986 88.9437 688.986 88.7757V78.7797ZM700.77 79.2597H708.678V82.5957H700.698V81.9477H707.79V79.8957H700.77V79.2597ZM705.918 83.8437V85.0077H708.678V83.8437H705.918ZM705.066 83.1957H709.554V85.6437H705.066V83.1957ZM701.058 80.6157H708.174V81.2277H701.058V80.6157ZM699.846 83.1957H704.238V83.8797H699.846V83.1957ZM699.378 86.4237H710.274V87.1797H699.378V86.4237ZM706.902 85.6317H707.79V88.8237C707.79 89.3157 707.682 89.5557 707.286 89.6757C706.89 89.8077 706.254 89.8197 705.222 89.8197C705.186 89.5797 705.042 89.2557 704.922 89.0157C705.726 89.0397 706.434 89.0397 706.638 89.0277C706.854 89.0157 706.902 88.9677 706.902 88.8117V85.6317ZM701.598 83.4477H702.438V85.2237H701.598V83.4477ZM699.606 85.1997C700.83 85.1277 702.666 84.9957 704.478 84.8637V85.5477C702.75 85.6917 700.962 85.8237 699.69 85.9197L699.606 85.1997ZM701.37 87.6237L701.982 87.1077C702.69 87.4917 703.518 88.1037 703.926 88.5597L703.278 89.1477C702.894 88.6797 702.078 88.0437 701.37 87.6237Z" fill="black" fill-opacity="0.8"/>
<path d="M611.609 74.1133C611.333 74.1133 611.109 74.3371 611.109 74.6133C611.109 74.8894 611.333 75.1133 611.609 75.1133V74.1133ZM631.074 74.9668C631.27 74.7716 631.27 74.455 631.074 74.2597L627.892 71.0777C627.697 70.8825 627.381 70.8825 627.185 71.0777C626.99 71.273 626.99 71.5896 627.185 71.7849L630.014 74.6133L627.185 77.4417C626.99 77.637 626.99 77.9536 627.185 78.1488C627.381 78.3441 627.697 78.3441 627.892 78.1488L631.074 74.9668ZM611.609 75.1133H630.721V74.1133H611.609V75.1133Z" fill="#B3B3B3"/>
<rect x="766.041" y="34.8477" width="104.211" height="79.532" rx="3" fill="#88CBE8" fill-opacity="0.3" stroke="#88CBE8" stroke-linecap="round"/>
<path d="M807.757 59.5557L808.681 59.9037C807.913 60.8877 806.773 61.9077 805.801 62.5677C805.621 62.3877 805.237 62.0877 804.997 61.9437C806.005 61.3677 807.085 60.4437 807.757 59.5557ZM812.233 60.0117L812.965 59.5077C813.985 60.2397 815.305 61.2957 815.965 61.9797L815.173 62.5437C814.561 61.8597 813.277 60.7677 812.233 60.0117ZM806.089 55.2357L806.713 54.6837C807.793 55.2837 809.149 56.2197 809.809 56.9037L809.149 57.5517C808.525 56.8677 807.193 55.8837 806.089 55.2357ZM812.365 56.7717L813.085 56.3037C814.141 57.1437 815.425 58.3557 816.049 59.1837L815.245 59.7117C814.681 58.8957 813.421 57.6477 812.365 56.7717ZM810.037 58.4517H810.985V62.8197H810.037V58.4517ZM805.201 58.1037C807.529 58.0917 811.297 58.0197 814.777 57.9477L814.729 58.7517C811.309 58.8717 807.673 58.9557 805.297 59.0037L805.201 58.1037ZM812.545 53.7477L813.409 54.2037C811.945 55.7637 809.869 57.5757 808.285 58.7037L807.589 58.2477C809.197 57.1197 811.285 55.2117 812.545 53.7477ZM809.437 52.9317L810.301 53.3757C809.593 54.2397 808.645 55.2357 807.913 55.8717L807.205 55.4757C807.925 54.8277 808.885 53.7357 809.437 52.9317ZM814.441 51.9477L815.101 52.7157C812.665 53.1837 808.921 53.4357 805.801 53.5077C805.777 53.2797 805.669 52.9197 805.585 52.7037C808.681 52.6077 812.377 52.3557 814.441 51.9477ZM824.041 51.7677H824.953V53.7117H824.041V51.7677ZM823.357 53.8917L824.317 54.1677C823.921 55.0917 823.441 56.2077 823.045 56.9037L822.289 56.6517C822.673 55.9317 823.129 54.7317 823.357 53.8917ZM825.409 55.0077L826.105 54.6357C826.861 55.4757 827.701 56.6397 828.061 57.3957L827.305 57.8277C826.957 57.0717 826.153 55.8837 825.409 55.0077ZM821.305 53.3637H827.869V54.1797H821.305V53.3637ZM821.353 56.4357C822.757 56.3757 824.905 56.2437 826.981 56.0997L826.969 56.8917C824.977 57.0357 822.889 57.1797 821.437 57.2757L821.353 56.4357ZM825.133 57.7077H825.985V61.5837C825.985 61.8837 826.033 61.9197 826.285 61.9197C826.405 61.9197 826.957 61.9197 827.113 61.9197C827.353 61.9197 827.401 61.7277 827.437 60.4077C827.617 60.5637 827.977 60.7077 828.205 60.7557C828.133 62.3277 827.917 62.7357 827.197 62.7357C827.029 62.7357 826.321 62.7357 826.153 62.7357C825.337 62.7357 825.133 62.4717 825.133 61.5837V57.7077ZM818.881 51.7797L819.673 52.0917C819.217 52.9677 818.653 54.0357 818.185 54.6957L817.561 54.4077C818.017 53.7237 818.569 52.5717 818.881 51.7797ZM820.225 53.1477L820.981 53.4837C820.165 54.8637 819.013 56.6037 818.125 57.6597L817.573 57.3477C818.461 56.2677 819.589 54.4437 820.225 53.1477ZM816.985 54.2997L817.441 53.7117C818.113 54.2757 818.869 55.0557 819.193 55.5957L818.713 56.2797C818.389 55.7157 817.633 54.8757 816.985 54.2997ZM819.805 55.9317L820.429 55.6797C820.921 56.4477 821.401 57.4797 821.569 58.1397L820.897 58.4517C820.729 57.7797 820.285 56.7237 819.805 55.9317ZM816.949 57.1557C817.993 57.1197 819.493 57.0597 821.017 56.9757L821.005 57.7197C819.565 57.8157 818.113 57.8997 817.021 57.9717L816.949 57.1557ZM820.117 58.7637L820.765 58.5597C821.101 59.2317 821.425 60.1437 821.545 60.7437L820.849 60.9837C820.741 60.3837 820.417 59.4597 820.117 58.7637ZM817.621 58.6317L818.401 58.7757C818.233 59.9037 817.933 61.0677 817.549 61.8357C817.393 61.7397 817.033 61.5717 816.841 61.4877C817.237 60.7557 817.477 59.6877 817.621 58.6317ZM818.917 57.4917H819.721V62.8437H818.917V57.4917ZM822.913 57.7197H823.777C823.669 60.3477 823.273 61.9677 821.137 62.8557C821.029 62.6517 820.789 62.3517 820.609 62.1957C822.529 61.4397 822.817 60.0477 822.913 57.7197ZM829.405 61.1997C829.405 60.9037 829.477 60.6957 829.621 60.5757C829.765 60.4557 829.937 60.3957 830.137 60.3957C830.345 60.3957 830.521 60.4557 830.665 60.5757C830.817 60.6957 830.893 60.9037 830.893 61.1997C830.893 61.4877 830.817 61.6957 830.665 61.8237C830.521 61.9517 830.345 62.0157 830.137 62.0157C829.937 62.0157 829.765 61.9517 829.621 61.8237C829.477 61.6957 829.405 61.4877 829.405 61.1997ZM829.405 56.0637C829.405 55.7597 829.477 55.5477 829.621 55.4277C829.765 55.3077 829.937 55.2477 830.137 55.2477C830.345 55.2477 830.521 55.3077 830.665 55.4277C830.817 55.5477 830.893 55.7597 830.893 56.0637C830.893 56.3517 830.817 56.5597 830.665 56.6877C830.521 56.8157 830.345 56.8797 830.137 56.8797C829.937 56.8797 829.765 56.8157 829.621 56.6877C829.477 56.5597 829.405 56.3517 829.405 56.0637ZM783.958 73.7157L784.654 73.9557C784.33 74.5317 783.946 75.1797 783.646 75.6117L783.106 75.4077C783.406 74.9517 783.766 74.2077 783.958 73.7157ZM784.966 74.6757L785.626 74.9877C785.014 75.8757 784.246 76.9677 783.622 77.6397L783.13 77.3757C783.754 76.6797 784.534 75.4917 784.966 74.6757ZM783.982 72.4077V73.2717H787.366V72.4077H783.982ZM783.982 70.9677V71.8197H787.366V70.9677H783.982ZM783.19 70.3557H788.158V73.8957H783.19V70.3557ZM782.662 75.2637L783.022 74.7597C783.562 75.1197 784.15 75.6477 784.438 76.0077L784.042 76.5717C783.754 76.1997 783.178 75.6357 782.662 75.2637ZM784.666 76.4997L785.17 76.3077C785.434 76.8237 785.662 77.4837 785.746 77.9157L785.194 78.1317C785.122 77.6877 784.894 77.0157 784.666 76.4997ZM784.522 78.5757L785.146 78.4917C785.278 79.1037 785.386 79.8957 785.422 80.4117L784.75 80.5197C784.738 79.9917 784.642 79.1997 784.522 78.5757ZM785.77 78.4917L786.358 78.3357C786.598 78.8877 786.826 79.5957 786.91 80.0637L786.298 80.2317C786.214 79.7757 785.998 79.0437 785.77 78.4917ZM786.97 78.3357L787.534 78.1077C787.858 78.5517 788.206 79.1397 788.374 79.5237L787.786 79.7997C787.63 79.4037 787.282 78.7797 786.97 78.3357ZM783.406 78.3477L784.054 78.5637C783.91 79.3437 783.646 80.2317 783.13 80.7717L782.506 80.3877C782.962 79.9197 783.262 79.0797 783.406 78.3477ZM782.626 77.2437C783.37 77.2317 784.342 77.1837 785.398 77.1477L785.386 77.7597C784.402 77.8317 783.478 77.8797 782.686 77.9277L782.626 77.2437ZM786.634 73.7157L787.342 73.9557C787.006 74.5317 786.634 75.1797 786.334 75.6117L785.794 75.4077C786.082 74.9517 786.454 74.2077 786.634 73.7157ZM787.678 74.6517L788.326 74.9637C787.714 75.8517 786.922 76.9437 786.286 77.6277L785.806 77.3517C786.43 76.6557 787.222 75.4797 787.678 74.6517ZM785.374 75.2757L785.734 74.7717C786.262 75.1317 786.838 75.6477 787.126 76.0077L786.73 76.5717C786.454 76.2117 785.878 75.6597 785.374 75.2757ZM787.39 76.4757L787.918 76.2597C788.23 76.7877 788.542 77.4837 788.662 77.9397L788.086 78.2037C787.978 77.7237 787.69 77.0157 787.39 76.4757ZM785.626 77.2557C786.322 77.2317 787.21 77.1837 788.17 77.1237V77.7597C787.294 77.8197 786.454 77.8917 785.722 77.9397L785.626 77.2557ZM788.662 70.3437H793.498V71.1237H788.662V70.3437ZM789.766 74.7957V75.9477H792.49V74.7957H789.766ZM789.766 76.6317V77.8077H792.49V76.6317H789.766ZM789.766 72.9597V74.0997H792.49V72.9597H789.766ZM788.998 72.2517H793.27V78.5157H788.998V72.2517ZM790.642 70.7037L791.59 70.8357C791.422 71.5077 791.266 72.2637 791.122 72.7677L790.39 72.6237C790.498 72.0837 790.606 71.2677 790.642 70.7037ZM790.054 78.8157L790.822 79.2477C790.27 79.8357 789.394 80.4717 788.662 80.8437C788.53 80.6757 788.254 80.4357 788.062 80.2797C788.806 79.9317 789.646 79.3197 790.054 78.8157ZM791.542 79.2597L792.202 78.8517C792.754 79.2837 793.45 79.9317 793.81 80.3757L793.114 80.8317C792.79 80.3997 792.106 79.7277 791.542 79.2597ZM799.666 74.0517H800.638V79.6437C800.638 80.2197 800.494 80.4957 800.074 80.6517C799.642 80.7837 798.934 80.7957 797.878 80.7957C797.83 80.5317 797.686 80.1357 797.542 79.8597C798.358 79.8837 799.15 79.8837 799.378 79.8717C799.606 79.8717 799.666 79.8117 799.666 79.6197V74.0517ZM796.942 75.6477L797.878 75.8877C797.29 77.3637 796.342 78.8037 795.382 79.7277C795.202 79.5597 794.794 79.3077 794.554 79.1757C795.538 78.3237 796.426 77.0037 796.942 75.6477ZM802.342 76.0077L803.17 75.6597C804.058 76.7877 804.994 78.3117 805.342 79.3317L804.442 79.7277C804.118 78.7317 803.218 77.1597 802.342 76.0077ZM795.934 70.6677H804.37V71.5557H795.934V70.6677ZM794.854 73.5717H805.438V74.4717H794.854V73.5717ZM812.806 70.2117L813.466 70.8117C812.854 71.1717 812.062 71.4837 811.39 71.6997C811.342 71.5317 811.222 71.2677 811.114 71.0877C811.726 70.8597 812.41 70.5237 812.806 70.2117ZM810.946 70.8357L811.738 71.0877V74.9517H810.946V70.8357ZM810.946 74.5437H816.37V71.4957H814.846V70.7637H817.186V75.2877H810.946V74.5437ZM811.294 72.6597H813.046V73.3437H811.294V72.6597ZM814.894 72.6597H816.73V73.3437H814.894V72.6597ZM813.586 69.7797H814.402V76.5477H813.586V69.7797ZM810.622 76.3797H816.514V77.1477H810.622V76.3797ZM816.262 76.3797H816.43L816.586 76.3437L817.15 76.6197C816.01 79.1757 813.274 80.3517 810.334 80.8317C810.262 80.6037 810.094 80.2557 809.938 80.0637C812.686 79.7037 815.314 78.6477 816.262 76.5117V76.3797ZM812.194 77.0637C813.166 78.6717 815.266 79.7037 817.786 80.0997C817.582 80.2917 817.342 80.6397 817.222 80.8917C814.642 80.3997 812.53 79.2237 811.402 77.3637L812.194 77.0637ZM806.482 76.1517C807.514 75.8877 809.05 75.4317 810.538 74.9997L810.646 75.8157C809.278 76.2477 807.838 76.7037 806.722 77.0277L806.482 76.1517ZM806.638 72.1917H810.526V73.0317H806.638V72.1917ZM808.306 69.7797H809.182V79.7757C809.182 80.2677 809.062 80.5197 808.75 80.6517C808.438 80.7957 807.958 80.8197 807.154 80.8077C807.13 80.5917 806.998 80.2317 806.89 79.9917C807.43 80.0037 807.934 80.0037 808.078 80.0037C808.246 80.0037 808.306 79.9437 808.306 79.7757V69.7797ZM820.09 70.2597H827.998V73.5957H820.018V72.9477H827.11V70.8957H820.09V70.2597ZM825.238 74.8437V76.0077H827.998V74.8437H825.238ZM824.386 74.1957H828.874V76.6437H824.386V74.1957ZM820.378 71.6157H827.494V72.2277H820.378V71.6157ZM819.166 74.1957H823.558V74.8797H819.166V74.1957ZM818.698 77.4237H829.594V78.1797H818.698V77.4237ZM826.222 76.6317H827.11V79.8237C827.11 80.3157 827.002 80.5557 826.606 80.6757C826.21 80.8077 825.574 80.8197 824.542 80.8197C824.506 80.5797 824.362 80.2557 824.242 80.0157C825.046 80.0397 825.754 80.0397 825.958 80.0277C826.174 80.0157 826.222 79.9677 826.222 79.8117V76.6317ZM820.918 74.4477H821.758V76.2237H820.918V74.4477ZM818.926 76.1997C820.15 76.1277 821.986 75.9957 823.798 75.8637V76.5477C822.07 76.6917 820.282 76.8237 819.01 76.9197L818.926 76.1997ZM820.69 78.6237L821.302 78.1077C822.01 78.4917 822.838 79.1037 823.246 79.5597L822.598 80.1477C822.214 79.6797 821.398 79.0437 820.69 78.6237ZM837.898 69.7677H838.798V74.4837H837.898V69.7677ZM836.338 79.3797H840.622V80.2077H836.338V79.3797ZM835.114 71.4717H841.666V72.2997H835.114V71.4717ZM835.498 74.0997H841.402V74.9277H835.498V74.0997ZM835.882 76.2357H841.066V80.7717H840.19V77.0517H836.722V80.7957H835.882V76.2357ZM832.486 69.7797L833.29 70.0797C832.834 70.9677 832.258 72.0357 831.79 72.6837L831.166 72.4197C831.622 71.7237 832.174 70.5717 832.486 69.7797ZM833.938 71.1477L834.718 71.4837C833.878 72.8277 832.702 74.5557 831.79 75.5877L831.214 75.2877C832.138 74.2197 833.278 72.4197 833.938 71.1477ZM830.59 72.2997L831.046 71.6997C831.718 72.2637 832.474 73.0557 832.798 73.5837L832.318 74.2677C831.994 73.7037 831.238 72.8757 830.59 72.2997ZM833.554 73.9317L834.226 73.6437C834.73 74.4117 835.246 75.4437 835.426 76.1037L834.706 76.4397C834.526 75.7677 834.046 74.7237 833.554 73.9317ZM830.566 75.1437C831.646 75.1077 833.206 75.0477 834.766 74.9757L834.754 75.7077C833.266 75.8037 831.754 75.8997 830.638 75.9477L830.566 75.1437ZM833.854 76.7997L834.538 76.5837C834.886 77.3157 835.222 78.2637 835.354 78.8877L834.622 79.1397C834.514 78.5157 834.19 77.5437 833.854 76.7997ZM831.226 76.6317L832.006 76.7757C831.838 77.9037 831.538 79.0677 831.154 79.8357C830.998 79.7397 830.638 79.5717 830.446 79.4877C830.842 78.7557 831.082 77.6877 831.226 76.6317ZM832.606 75.4917H833.422V80.8437H832.606V75.4917ZM842.878 76.1397H853.414V76.9797H842.878V76.1397ZM847.666 70.6437H848.614V80.8077H847.666V70.6437ZM847.342 76.4997L848.098 76.8237C846.982 78.3597 844.99 79.7277 843.19 80.4117C843.058 80.1957 842.77 79.8597 842.578 79.6797C844.354 79.0917 846.334 77.8197 847.342 76.4997ZM848.89 76.4637C849.934 77.7477 851.974 79.0197 853.726 79.6077C853.522 79.7877 853.246 80.1357 853.102 80.3637C851.362 79.6677 849.322 78.2637 848.17 76.7877L848.89 76.4637ZM844.966 73.0917V74.3517H851.35V73.0917H844.966ZM844.966 71.1237V72.3597H851.35V71.1237H844.966ZM844.042 70.3557H852.31V75.1197H844.042V70.3557ZM775.912 94.5597C775.912 93.9037 775.972 93.2637 776.092 92.6397C776.22 92.0157 776.416 91.4197 776.68 90.8517C776.944 90.2837 777.276 89.7597 777.676 89.2797H778.672C778.304 89.7757 777.992 90.3117 777.736 90.8877C777.488 91.4637 777.3 92.0597 777.172 92.6757C777.044 93.2917 776.98 93.9157 776.98 94.5477C776.98 95.1637 777.044 95.7757 777.172 96.3837C777.3 96.9917 777.488 97.5757 777.736 98.1357C777.984 98.7037 778.292 99.2397 778.66 99.7437H777.676C777.276 99.2717 776.944 98.7557 776.68 98.1957C776.416 97.6437 776.22 97.0597 776.092 96.4437C775.972 95.8277 775.912 95.1997 775.912 94.5597ZM783.982 90.0477H784.858V92.7357C784.858 94.4997 784.642 96.9597 783.25 98.5917C783.094 98.4357 782.71 98.1837 782.494 98.0877C783.826 96.5277 783.982 94.3437 783.982 92.7237V90.0477ZM784.426 90.0477H792.49V92.6397H784.426V91.9437H791.602V90.7437H784.426V90.0477ZM783.118 88.4157H793.198V89.2317H783.118V88.4157ZM784.378 93.6837H793.498V94.4277H784.378V93.6837ZM787.582 95.3877H791.662V96.1077H787.582V95.3877ZM788.122 92.5437H789.01V94.0557H788.122V92.5437ZM791.434 95.3877H792.334C792.334 95.3877 792.322 95.6277 792.298 95.7477C792.142 97.5237 791.974 98.2677 791.662 98.5677C791.458 98.7717 791.206 98.8437 790.87 98.8557C790.546 98.8797 789.898 98.8797 789.238 98.8317C789.214 98.6037 789.13 98.2917 788.998 98.0757C789.634 98.1357 790.27 98.1477 790.498 98.1477C790.714 98.1477 790.834 98.1237 790.942 98.0277C791.146 97.8357 791.29 97.1757 791.434 95.5077V95.3877ZM787.402 94.0557H788.29C788.062 96.3717 787.414 98.0037 784.642 98.8437C784.558 98.6397 784.318 98.3157 784.138 98.1477C786.682 97.4517 787.198 96.0237 787.402 94.0557ZM798.502 88.3557H805.546V89.1837H798.502V88.3557ZM798.202 88.3557H799.078V91.6557C799.078 93.7437 798.874 96.7557 797.458 98.7717C797.29 98.6157 796.918 98.3757 796.702 98.2917C798.07 96.3597 798.202 93.6357 798.202 91.6557V88.3557ZM800.59 92.8917V93.9477H804.25V92.8917H800.59ZM800.59 91.1877V92.2317H804.25V91.1877H800.59ZM799.774 90.4917H805.09V94.6437H799.774V90.4917ZM800.194 95.3157L801.01 95.5077C800.638 96.4797 800.038 97.4757 799.45 98.1237C799.282 97.9917 798.934 97.7637 798.742 97.6557C799.33 97.0437 799.87 96.1797 800.194 95.3157ZM803.59 95.5317L804.37 95.2077C804.922 95.9517 805.546 96.9477 805.786 97.6077L804.97 97.9797C804.742 97.3197 804.154 96.2877 803.59 95.5317ZM801.982 89.0037L802.954 89.1957C802.774 89.8197 802.582 90.5157 802.414 90.9717L801.622 90.7797C801.754 90.2877 801.922 89.5197 801.982 89.0037ZM801.934 94.3677H802.786V97.8717C802.786 98.3157 802.714 98.5557 802.378 98.6757C802.054 98.8077 801.538 98.8197 800.734 98.8077C800.698 98.5797 800.59 98.2557 800.482 98.0277C801.058 98.0517 801.574 98.0397 801.73 98.0397C801.886 98.0277 801.934 97.9917 801.934 97.8597V94.3677ZM795.178 88.5357L795.694 87.8877C796.414 88.2237 797.29 88.7637 797.71 89.1837L797.17 89.9037C796.762 89.4717 795.898 88.8957 795.178 88.5357ZM794.59 91.7757L795.106 91.1037C795.826 91.4157 796.702 91.9197 797.146 92.3157L796.618 93.0477C796.198 92.6397 795.322 92.0997 794.59 91.7757ZM794.842 98.1357C795.382 97.1997 796.126 95.6157 796.666 94.2597L797.398 94.7637C796.894 96.0357 796.222 97.5237 795.646 98.6397L794.842 98.1357ZM806.77 92.1957H817.534V93.0837H806.77V92.1957ZM811.978 89.4957H816.238V90.3717H811.978V89.4957ZM811.438 87.7677H812.374V92.6157H811.438V87.7677ZM811.438 92.7957H812.374V98.8077H811.438V92.7957ZM812.11 94.7997L812.554 94.0797C813.874 94.4277 815.698 95.0277 816.67 95.4957L816.202 96.2997C815.278 95.8437 813.466 95.1837 812.11 94.7997ZM820.774 90.8757H828.982V91.8117H820.774V90.8757ZM824.65 87.7917H825.598V91.3077H824.65V87.7917ZM820.294 88.0797H821.23V92.0877C821.23 94.4757 821.026 96.9477 819.298 98.8317C819.154 98.6277 818.818 98.2917 818.602 98.1357C820.126 96.4317 820.294 94.2117 820.294 92.0877V88.0797ZM820.738 93.7197H827.122V98.8197H826.15V94.6557H820.738V93.7197ZM837.298 89.1477H838.174V95.7117H837.298V89.1477ZM840.214 87.9957H841.114V97.6317C841.114 98.2437 840.946 98.5077 840.586 98.6517C840.19 98.8077 839.542 98.8317 838.45 98.8197C838.39 98.5797 838.258 98.1837 838.126 97.9317C838.942 97.9557 839.686 97.9437 839.902 97.9437C840.13 97.9317 840.214 97.8597 840.214 97.6437V87.9957ZM832.606 91.0077H835.87V91.8477H832.606V91.0077ZM830.854 88.3917H836.83V89.2317H830.854V88.3917ZM831.754 93.5397L832.174 92.8797C833.074 93.3837 834.238 94.1277 834.814 94.6077L834.358 95.3637C833.794 94.8597 832.642 94.0797 831.754 93.5397ZM835.534 91.0077H835.714L835.882 90.9717L836.446 91.1757C835.786 95.0997 834.046 97.5717 831.826 98.8437C831.694 98.6397 831.358 98.3157 831.154 98.1717C833.338 97.0077 834.982 94.7397 835.534 91.2117V91.0077ZM833.026 88.7877L833.938 88.9557C833.422 91.0317 832.534 93.3597 831.034 94.7877C830.878 94.6197 830.59 94.3437 830.41 94.1877C831.802 92.8677 832.654 90.6477 833.026 88.7877ZM843.334 88.7757H852.97V89.5557H843.334V88.7757ZM843.886 90.5397H852.502V91.2957H843.886V90.5397ZM842.89 92.3757H853.378V93.1677H842.89V92.3757ZM847.654 87.7677H848.566V92.9877H847.654V87.7677ZM847.618 92.6397L848.398 93.0117C847.15 94.3797 844.93 95.6397 843.07 96.2517C842.926 96.0237 842.674 95.6877 842.482 95.5077C844.33 94.9797 846.502 93.8277 847.618 92.6397ZM848.926 92.7597C849.646 95.3277 851.206 97.2237 853.75 97.9797C853.546 98.1597 853.294 98.5317 853.162 98.7717C850.51 97.8597 848.938 95.8317 848.11 92.9277L848.926 92.7597ZM852.346 93.5637L853.066 94.1277C852.214 94.8117 851.074 95.5437 850.21 96.0237L849.658 95.5317C850.498 95.0277 851.662 94.1997 852.346 93.5637ZM843.814 97.9797C845.194 97.6797 847.354 97.1397 849.406 96.6357L849.49 97.4397C847.594 97.9317 845.542 98.4477 844.102 98.8077L843.814 97.9797ZM845.506 94.8717L846.154 94.2237L846.406 94.2957V97.9197H845.506V94.8717ZM860.384 94.5597C860.384 95.1997 860.32 95.8277 860.192 96.4437C860.072 97.0597 859.88 97.6437 859.616 98.1957C859.36 98.7557 859.028 99.2717 858.62 99.7437H857.636C858.004 99.2397 858.312 98.7037 858.56 98.1357C858.808 97.5757 858.996 96.9917 859.124 96.3837C859.252 95.7757 859.316 95.1637 859.316 94.5477C859.316 93.9157 859.252 93.2917 859.124 92.6757C858.996 92.0597 858.808 91.4637 858.56 90.8877C858.312 90.3117 858 89.7757 857.624 89.2797H858.62C859.028 89.7597 859.36 90.2837 859.616 90.8517C859.88 91.4197 860.072 92.0157 860.192 92.6397C860.32 93.2637 860.384 93.9037 860.384 94.5597Z" fill="black" fill-opacity="0.8"/>
<path d="M742.932 74.1133C742.655 74.1133 742.432 74.3371 742.432 74.6133C742.432 74.8894 742.655 75.1133 742.932 75.1133V74.1133ZM762.395 74.9668C762.59 74.7716 762.59 74.455 762.395 74.2597L759.213 71.0777C759.017 70.8825 758.701 70.8825 758.506 71.0777C758.31 71.273 758.31 71.5896 758.506 71.7849L761.334 74.6133L758.506 77.4417C758.31 77.637 758.31 77.9536 758.506 78.1488C758.701 78.3441 759.017 78.3441 759.213 78.1488L762.395 74.9668ZM742.932 75.1133H762.041V74.1133H742.932V75.1133Z" fill="#B3B3B3"/>
<rect x="897.361" y="34.8477" width="104.211" height="79.532" rx="3" fill="#88CBE8" fill-opacity="0.3" stroke="#88CBE8" stroke-linecap="round"/>
<path d="M933.701 62.0997H941.405V62.9397H933.701V62.0997ZM934.889 64.8717V66.6717H940.133V64.8717H934.889ZM934.061 64.1037H941.009V67.4397H934.061V64.1037ZM934.805 67.6797C935.933 69.5637 938.393 70.6797 941.513 71.0277C941.321 71.2197 941.093 71.5797 940.973 71.8317C937.793 71.3757 935.333 70.1277 934.061 67.9317L934.805 67.6797ZM937.037 60.8157H937.925V66.1317C937.925 68.4477 937.529 70.7517 933.809 71.8557C933.701 71.6517 933.449 71.2917 933.269 71.0997C936.833 70.1997 937.037 68.1477 937.037 66.1197V60.8157ZM933.185 60.7437L934.037 61.0077C933.221 63.0357 931.937 65.0517 930.605 66.3837C930.521 66.1797 930.269 65.7117 930.101 65.4957C931.313 64.3557 932.489 62.5677 933.185 60.7437ZM931.925 63.8877L932.777 63.0357L932.789 63.0477V71.8677H931.925V63.8877ZM944.201 61.6197H951.965V62.4837H944.201V61.6197ZM944.201 64.4157H951.953V65.2677H944.201V64.4157ZM944.141 67.2837H951.977V68.1357H944.141V67.2837ZM943.697 61.6197H944.585V65.9757C944.585 67.7997 944.369 70.2837 942.941 71.8797C942.797 71.6997 942.437 71.3997 942.245 71.2797C943.565 69.7917 943.697 67.6557 943.697 65.9637V61.6197ZM951.605 61.6197H952.493V70.5837C952.493 71.1717 952.349 71.4477 951.953 71.6037C951.545 71.7477 950.849 71.7597 949.709 71.7477C949.673 71.5077 949.529 71.1117 949.397 70.8717C950.249 70.9077 951.065 70.8957 951.293 70.8957C951.521 70.8837 951.605 70.8117 951.605 70.5837V61.6197ZM947.465 61.9437H948.377V71.6997H947.465V61.9437ZM954.509 64.6317H965.201V65.4357H954.509V64.6317ZM955.565 62.2797H962.513V63.0837H955.565V62.2797ZM957.509 68.6517H963.161V69.3717H957.509V68.6517ZM957.509 70.6437H963.161V71.4237H957.509V70.6437ZM958.649 60.7677H959.525V65.0637H958.649V60.7677ZM963.905 61.1877L964.673 61.5957C962.261 64.7517 958.649 67.1157 954.809 68.5917C954.701 68.3877 954.413 68.0157 954.233 67.8357C958.109 66.4917 961.685 64.1637 963.905 61.1877ZM957.017 66.7077H963.737V71.7717H962.801V67.4637H957.917V71.8197H957.017V66.7077ZM966.725 70.1997C966.725 69.9037 966.797 69.6957 966.941 69.5757C967.085 69.4557 967.257 69.3957 967.457 69.3957C967.665 69.3957 967.841 69.4557 967.985 69.5757C968.137 69.6957 968.213 69.9037 968.213 70.1997C968.213 70.4877 968.137 70.6957 967.985 70.8237C967.841 70.9517 967.665 71.0157 967.457 71.0157C967.257 71.0157 967.085 70.9517 966.941 70.8237C966.797 70.6957 966.725 70.4877 966.725 70.1997ZM966.725 65.0637C966.725 64.7597 966.797 64.5477 966.941 64.4277C967.085 64.3077 967.257 64.2477 967.457 64.2477C967.665 64.2477 967.841 64.3077 967.985 64.4277C968.137 64.5477 968.213 64.7597 968.213 65.0637C968.213 65.3517 968.137 65.5597 967.985 65.6877C967.841 65.8157 967.665 65.8797 967.457 65.8797C967.257 65.8797 967.085 65.8157 966.941 65.6877C966.797 65.5597 966.725 65.3517 966.725 65.0637ZM919.803 84.4797H924.519V89.7597H923.655V85.3077H920.631V89.8077H919.803V84.4797ZM921.543 78.7917H922.431V84.7437H921.543V78.7917ZM922.059 81.3957H924.999V82.2357H922.059V81.3957ZM920.235 88.4157H924.075V89.2437H920.235V88.4157ZM915.099 79.8717V82.7757H918.399V79.8717H915.099ZM914.391 79.2117H919.131V83.4357H914.391V79.2117ZM915.267 80.4597L915.723 80.3397C915.927 80.9277 916.083 81.6837 916.119 82.1637L915.651 82.3077C915.627 81.8037 915.471 81.0477 915.267 80.4597ZM915.675 87.3357L916.263 87.2517C916.455 87.9117 916.575 88.7757 916.587 89.3397L915.963 89.4237C915.963 88.8597 915.843 87.9957 915.675 87.3357ZM916.827 87.2637L917.403 87.1437C917.679 87.7437 917.943 88.5477 918.027 89.0757L917.415 89.2077C917.343 88.6797 917.091 87.8757 916.827 87.2637ZM917.967 87.0957L918.531 86.8797C918.963 87.4317 919.395 88.1757 919.575 88.6677L918.975 88.9437C918.795 88.4277 918.375 87.6597 917.967 87.0957ZM914.655 87.2877L915.291 87.4557C915.171 88.3437 914.979 89.2797 914.463 89.8197L913.851 89.4837C914.319 88.9917 914.547 88.1157 914.655 87.2877ZM917.727 80.3037L918.255 80.5077C918.039 81.1197 917.799 81.8997 917.595 82.3797L917.199 82.2237C917.379 81.7077 917.619 80.8557 917.727 80.3037ZM914.043 86.0157C915.375 85.9557 917.415 85.8597 919.407 85.7397L919.383 86.4597C917.463 86.6037 915.471 86.7237 914.091 86.8077L914.043 86.0157ZM914.307 84.2517H919.215V84.9837H914.307V84.2517ZM916.407 79.5237H917.019V83.1237H917.115V86.2197H916.311V83.1237H916.407V79.5237ZM926.919 86.1597H936.111V86.7717H926.919V86.1597ZM926.187 87.4197H936.783V88.0557H926.187V87.4197ZM931.011 85.1037H931.911V88.9317C931.911 89.3997 931.779 89.5917 931.407 89.7117C931.035 89.8197 930.435 89.8197 929.451 89.8197C929.403 89.6157 929.271 89.3277 929.163 89.1237C929.871 89.1477 930.567 89.1477 930.759 89.1357C930.951 89.1237 931.011 89.0757 931.011 88.9077V85.1037ZM934.455 84.6117L935.079 85.1157C933.171 85.4997 930.003 85.6317 927.435 85.6197C927.423 85.4757 927.339 85.2117 927.267 85.0677C929.775 85.0557 932.895 84.9237 934.455 84.6117ZM926.211 79.3677H931.383V79.9077H926.211V79.3677ZM926.055 82.7757H931.455V83.2917H926.055V82.7757ZM927.243 81.5397V81.9717H930.339V81.5397H927.243ZM927.243 80.7237V81.1317H930.339V80.7237H927.243ZM926.595 80.3037H930.999V82.3917H926.595V80.3037ZM928.395 78.7797H929.127V84.4797H928.395V78.7797ZM931.659 81.7317H935.787V82.3557H931.659V81.7317ZM932.739 79.1517H934.995V79.7997H932.739V79.1517ZM935.475 81.7317H935.631L935.787 81.7077L936.219 81.8517C935.523 83.6397 933.771 84.3837 931.707 84.7317C931.647 84.5397 931.503 84.2637 931.359 84.1077C933.231 83.8797 934.899 83.2317 935.475 81.8277V81.7317ZM932.847 82.2957C933.543 83.4117 935.115 84.1317 937.023 84.3837C936.855 84.5397 936.639 84.8397 936.543 85.0317C934.575 84.6957 932.955 83.8317 932.175 82.4997L932.847 82.2957ZM932.295 79.1517H933.063V79.8717C933.063 80.5197 932.847 81.2397 931.899 81.7437C931.791 81.5757 931.479 81.2757 931.323 81.1797C932.151 80.7837 932.295 80.3037 932.295 79.8597V79.1517ZM934.575 79.1517H935.355V80.3757C935.355 80.5437 935.367 80.6517 935.403 80.6877C935.451 80.7117 935.499 80.7237 935.583 80.7237C935.655 80.7237 935.811 80.7237 935.907 80.7237C935.991 80.7237 936.099 80.7117 936.135 80.6997C936.183 80.6757 936.231 80.6397 936.255 80.5437C936.291 80.4597 936.303 80.2437 936.315 79.9557C936.447 80.0877 936.687 80.2077 936.879 80.2557C936.867 80.5677 936.819 80.9037 936.759 81.0357C936.687 81.1677 936.579 81.2637 936.447 81.3117C936.327 81.3597 936.111 81.3837 935.943 81.3837C935.823 81.3837 935.511 81.3837 935.391 81.3837C935.187 81.3837 934.923 81.3237 934.779 81.1917C934.623 81.0597 934.575 80.8677 934.575 80.3397V79.1517ZM926.679 83.4117H927.339V84.0837H930.255V83.4117H930.951V84.6237H926.679V83.4117ZM938.091 83.1957H948.855V84.0837H938.091V83.1957ZM943.299 80.4957H947.559V81.3717H943.299V80.4957ZM942.759 78.7677H943.695V83.6157H942.759V78.7677ZM942.759 83.7957H943.695V89.8077H942.759V83.7957ZM943.431 85.7997L943.875 85.0797C945.195 85.4277 947.019 86.0277 947.991 86.4957L947.523 87.2997C946.599 86.8437 944.787 86.1837 943.431 85.7997ZM952.095 81.8757H960.303V82.8117H952.095V81.8757ZM955.971 78.7917H956.919V82.3077H955.971V78.7917ZM951.615 79.0797H952.551V83.0877C952.551 85.4757 952.347 87.9477 950.619 89.8317C950.475 89.6277 950.139 89.2917 949.923 89.1357C951.447 87.4317 951.615 85.2117 951.615 83.0877V79.0797ZM952.059 84.7197H958.443V89.8197H957.471V85.6557H952.059V84.7197ZM965.007 86.2437V87.2397H969.867V86.2437H965.007ZM965.007 84.6237V85.6077H969.867V84.6237H965.007ZM964.119 83.9757H970.791V87.8877H964.119V83.9757ZM962.151 80.3037H972.795V81.0957H962.151V80.3037ZM966.975 78.7677H967.875V83.6037H966.975V78.7677ZM966.459 80.5317L967.215 80.8317C966.135 82.3797 964.239 83.7837 962.475 84.4797C962.343 84.2637 962.079 83.9397 961.887 83.7597C963.615 83.1717 965.499 81.8757 966.459 80.5317ZM968.367 80.5437C969.339 81.8517 971.259 83.0877 973.035 83.6517C972.831 83.8197 972.567 84.1557 972.435 84.3957C970.647 83.7237 968.727 82.3437 967.635 80.8317L968.367 80.5437ZM962.343 88.6197H972.627V89.4237H962.343V88.6197ZM976.575 84.1077H983.571V89.8437H982.671V84.8277H977.439V89.8437H976.575V84.1077ZM974.163 82.5237H984.759V83.2677H974.163V82.5237ZM975.039 80.9157H984.063V81.6357H975.039V80.9157ZM977.163 85.6437H983.055V86.2797H977.163V85.6437ZM977.163 87.1317H983.055V87.7557H977.163V87.1317ZM977.079 88.6437H983.055V89.3637H977.079V88.6437ZM983.367 78.8637L983.943 79.5237C981.711 79.9677 978.027 80.1477 975.063 80.1597C975.039 79.9557 974.955 79.6437 974.871 79.4517C977.799 79.4277 981.459 79.2597 983.367 78.8637ZM978.447 79.6917L979.383 79.8837C978.579 82.7877 977.115 85.5357 974.427 87.1317C974.307 86.9397 974.043 86.6037 973.863 86.4357C976.407 84.9717 977.811 82.3437 978.447 79.6917Z" fill="black" fill-opacity="0.8"/>
<path d="M874.252 74.1133C873.976 74.1133 873.752 74.3371 873.752 74.6133C873.752 74.8894 873.976 75.1133 874.252 75.1133V74.1133ZM893.715 74.9668C893.91 74.7716 893.91 74.455 893.715 74.2597L890.533 71.0777C890.338 70.8825 890.021 70.8825 889.826 71.0777C889.631 71.273 889.631 71.5896 889.826 71.7849L892.654 74.6133L889.826 77.4417C889.631 77.637 889.631 77.9536 889.826 78.1488C890.021 78.3441 890.338 78.3441 890.533 78.1488L893.715 74.9668ZM874.252 75.1133H893.361V74.1133H874.252V75.1133Z" fill="#B3B3B3"/>
<circle cx="1069.35" cy="74.6647" r="40.6647" fill="#F9ECC6" stroke="#DDBC00" stroke-linecap="round"/>
<path d="M1048.07 73.412H1054.6V74.228H1048.07V73.412ZM1046.02 75.62H1056.66V76.472H1046.02V75.62ZM1049.17 76.208H1050.13C1049.88 78.548 1049.21 80.168 1046.28 80.984C1046.19 80.756 1045.95 80.396 1045.75 80.216C1048.45 79.544 1048.97 78.164 1049.17 76.208ZM1052.21 76.136H1053.11V79.508C1053.11 79.868 1053.19 79.928 1053.7 79.928C1053.94 79.928 1055.08 79.928 1055.39 79.928C1055.85 79.928 1055.93 79.712 1055.97 78.332C1056.16 78.476 1056.54 78.62 1056.78 78.692C1056.69 80.336 1056.42 80.756 1055.46 80.756C1055.22 80.756 1053.84 80.756 1053.6 80.756C1052.5 80.756 1052.21 80.48 1052.21 79.52V76.136ZM1050.84 69.932H1051.79V71.84H1050.84V69.932ZM1046.29 71.216H1056.39V73.76H1055.44V72.068H1047.21V73.76H1046.29V71.216ZM1059.39 74.42H1062.37V75.26H1059.39V74.42ZM1062.01 74.42H1062.89C1062.89 74.42 1062.89 74.684 1062.89 74.804C1062.83 77.516 1062.76 78.524 1062.51 78.86C1062.31 79.076 1062.12 79.16 1061.79 79.196C1061.47 79.232 1060.93 79.22 1060.35 79.196C1060.32 78.932 1060.23 78.584 1060.09 78.356C1060.63 78.404 1061.16 78.404 1061.37 78.404C1061.53 78.404 1061.65 78.392 1061.74 78.284C1061.92 78.068 1061.98 77.168 1062.01 74.576V74.42ZM1065.4 70.532L1065.94 69.968C1066.68 70.352 1067.63 70.928 1068.1 71.348L1067.53 71.96C1067.08 71.54 1066.15 70.928 1065.4 70.532ZM1067.11 73.784L1068.01 74C1066.99 77.132 1065.21 79.448 1062.75 80.9C1062.61 80.72 1062.28 80.348 1062.09 80.168C1064.52 78.872 1066.21 76.676 1067.11 73.784ZM1059.46 71.96H1068.75V72.848H1059.46V71.96ZM1058.88 71.96H1059.82V75.344C1059.82 77.048 1059.63 79.472 1058.53 81.044C1058.38 80.864 1057.99 80.552 1057.78 80.444C1058.77 78.968 1058.88 76.904 1058.88 75.332V71.96ZM1063.86 69.944H1064.8C1064.77 75.464 1065.95 79.964 1067.51 79.964C1067.85 79.964 1068 79.34 1068.07 77.744C1068.28 77.948 1068.61 78.152 1068.85 78.236C1068.69 80.288 1068.35 80.876 1067.44 80.876C1064.99 80.876 1063.91 75.692 1063.86 69.944ZM1076.01 70.364L1076.67 70.964C1076.05 71.324 1075.26 71.636 1074.59 71.852C1074.54 71.684 1074.42 71.42 1074.31 71.24C1074.93 71.012 1075.61 70.676 1076.01 70.364ZM1074.15 70.988L1074.94 71.24V75.104H1074.15V70.988ZM1074.15 74.696H1079.57V71.648H1078.05V70.916H1080.39V75.44H1074.15V74.696ZM1074.49 72.812H1076.25V73.496H1074.49V72.812ZM1078.09 72.812H1079.93V73.496H1078.09V72.812ZM1076.79 69.932H1077.6V76.7H1076.79V69.932ZM1073.82 76.532H1079.71V77.3H1073.82V76.532ZM1079.46 76.532H1079.63L1079.79 76.496L1080.35 76.772C1079.21 79.328 1076.47 80.504 1073.53 80.984C1073.46 80.756 1073.29 80.408 1073.14 80.216C1075.89 79.856 1078.51 78.8 1079.46 76.664V76.532ZM1075.39 77.216C1076.37 78.824 1078.47 79.856 1080.99 80.252C1080.78 80.444 1080.54 80.792 1080.42 81.044C1077.84 80.552 1075.73 79.376 1074.6 77.516L1075.39 77.216ZM1069.68 76.304C1070.71 76.04 1072.25 75.584 1073.74 75.152L1073.85 75.968C1072.48 76.4 1071.04 76.856 1069.92 77.18L1069.68 76.304ZM1069.84 72.344H1073.73V73.184H1069.84V72.344ZM1071.51 69.932H1072.38V79.928C1072.38 80.42 1072.26 80.672 1071.95 80.804C1071.64 80.948 1071.16 80.972 1070.35 80.96C1070.33 80.744 1070.2 80.384 1070.09 80.144C1070.63 80.156 1071.13 80.156 1071.28 80.156C1071.45 80.156 1071.51 80.096 1071.51 79.928V69.932ZM1083.29 70.412H1091.2V73.748H1083.22V73.1H1090.31V71.048H1083.29V70.412ZM1088.44 74.996V76.16H1091.2V74.996H1088.44ZM1087.59 74.348H1092.07V76.796H1087.59V74.348ZM1083.58 71.768H1090.69V72.38H1083.58V71.768ZM1082.37 74.348H1086.76V75.032H1082.37V74.348ZM1081.9 77.576H1092.79V78.332H1081.9V77.576ZM1089.42 76.784H1090.31V79.976C1090.31 80.468 1090.2 80.708 1089.81 80.828C1089.41 80.96 1088.77 80.972 1087.74 80.972C1087.71 80.732 1087.56 80.408 1087.44 80.168C1088.25 80.192 1088.95 80.192 1089.16 80.18C1089.37 80.168 1089.42 80.12 1089.42 79.964V76.784ZM1084.12 74.6H1084.96V76.376H1084.12V74.6ZM1082.13 76.352C1083.35 76.28 1085.19 76.148 1087 76.016V76.7C1085.27 76.844 1083.48 76.976 1082.21 77.072L1082.13 76.352ZM1083.89 78.776L1084.5 78.26C1085.21 78.644 1086.04 79.256 1086.45 79.712L1085.8 80.3C1085.41 79.832 1084.6 79.196 1083.89 78.776Z" fill="#0D0C0C" fill-opacity="0.8"/>
<path d="M86.3301 74.1641C86.0539 74.1641 85.8301 74.3879 85.8301 74.6641C85.8301 74.9402 86.0539 75.1641 86.3301 75.1641V74.1641ZM105.792 75.0176C105.987 74.8224 105.987 74.5058 105.792 74.3105L102.61 71.1285C102.415 70.9333 102.098 70.9333 101.903 71.1285C101.707 71.3238 101.707 71.6404 101.903 71.8356L104.731 74.6641L101.903 77.4925C101.707 77.6878 101.707 78.0043 101.903 78.1996C102.098 78.3949 102.415 78.3949 102.61 78.1996L105.792 75.0176ZM86.3301 75.1641H105.438V74.1641H86.3301V75.1641Z" fill="white"/>
<path d="M86.3301 74.1641C86.0539 74.1641 85.8301 74.3879 85.8301 74.6641C85.8301 74.9402 86.0539 75.1641 86.3301 75.1641V74.1641ZM105.792 75.0176C105.987 74.8224 105.987 74.5058 105.792 74.3105L102.61 71.1285C102.415 70.9333 102.098 70.9333 101.903 71.1285C101.707 71.3238 101.707 71.6404 101.903 71.8356L104.731 74.6641L101.903 77.4925C101.707 77.6878 101.707 78.0043 101.903 78.1996C102.098 78.3949 102.415 78.3949 102.61 78.1996L105.792 75.0176ZM86.3301 75.1641H105.438V74.1641H86.3301V75.1641Z" fill="#B3B3B3"/>
<path d="M1005.57 74.1641C1005.3 74.1641 1005.07 74.3879 1005.07 74.6641C1005.07 74.9402 1005.3 75.1641 1005.57 75.1641V74.1641ZM1025.04 75.0176C1025.23 74.8224 1025.23 74.5058 1025.04 74.3105L1021.85 71.1285C1021.66 70.9333 1021.34 70.9333 1021.15 71.1285C1020.95 71.3238 1020.95 71.6404 1021.15 71.8356L1023.97 74.6641L1021.15 77.4925C1020.95 77.6878 1020.95 78.0043 1021.15 78.1996C1021.34 78.3949 1021.66 78.3949 1021.85 78.1996L1025.04 75.0176ZM1005.57 75.1641H1024.68V74.1641H1005.57V75.1641Z" fill="#B3B3B3"/>
</svg>
