<svg width="1133" height="166" viewBox="0 0 1133 166" fill="none" xmlns="http://www.w3.org/2000/svg">
<circle cx="64.0358" cy="74.3365" r="40.6647" fill="#F9ECC6" stroke="#DDBC00" stroke-linecap="round"/>
<path d="M43.0472 74.9079H48.9992V75.6519H43.0472V74.9079ZM42.8192 76.9599H49.2512V77.7279H42.8192V76.9599ZM46.8152 75.1479H47.6312V80.4159H46.8152V75.1479ZM44.3552 75.1839H45.1352V77.3679C45.1352 78.0999 44.8472 79.6719 43.4912 80.5839C43.3712 80.4159 43.0952 80.1639 42.8912 80.0439C44.1032 79.2999 44.3552 78.0279 44.3552 77.3679V75.1839ZM41.5592 71.7759H44.9312V72.4239H41.5592V71.7759ZM47.0912 71.7759H50.4872V72.4239H47.0912V71.7759ZM50.1392 70.1079H51.0272V79.4679C51.0272 80.0079 50.9072 80.2959 50.5472 80.4519C50.1872 80.6079 49.5872 80.6199 48.6752 80.6199C48.6392 80.3799 48.5192 79.9599 48.3872 79.7079C49.0472 79.7319 49.6952 79.7319 49.8872 79.7199C50.0792 79.7199 50.1392 79.6479 50.1392 79.4679V70.1079ZM41.6312 70.1079H45.4832V74.1519H41.6312V73.4679H44.6312V70.8039H41.6312V70.1079ZM50.5712 70.1079V70.8039H47.4032V73.4799H50.5712V74.1639H46.5392V70.1079H50.5712ZM41.0912 70.1079H41.9792V80.6439H41.0912V70.1079ZM58.3712 79.2879H62.5592V80.1039H58.3712V79.2879ZM57.9032 75.7719H63.0272V80.5959H62.1392V76.5999H58.7672V80.6439H57.9032V75.7719ZM57.0872 73.7559C58.5032 73.6839 60.7352 73.5639 62.8712 73.4199L62.8592 74.2239C60.8312 74.3799 58.6832 74.5479 57.1952 74.6439L57.0872 73.7559ZM61.0592 71.8239L61.7792 71.4519C62.5832 72.4479 63.4112 73.7919 63.7352 74.6799L62.9432 75.1119C62.6552 74.2119 61.8512 72.8439 61.0592 71.8239ZM59.4272 69.5919L60.4112 69.7959C59.9192 71.2599 59.2352 73.0959 58.6712 74.2359L57.9032 74.0199C58.4432 72.8559 59.0912 70.9359 59.4272 69.5919ZM52.5512 72.0759H56.5112V72.9279H52.5512V72.0759ZM54.3752 69.5919L55.2392 69.6879C54.7472 72.0879 53.9792 75.3279 53.4152 77.3319L52.6712 76.9239C53.2112 75.0999 53.9552 71.8719 54.3752 69.5919ZM53.1512 76.5639L53.6552 75.9279C54.9992 76.6839 56.5952 77.8359 57.3152 78.7239L56.7632 79.4559C56.0552 78.5559 54.4952 77.3439 53.1512 76.5639ZM56.1632 72.0759H56.3192L56.4752 72.0519L57.0152 72.1599C56.6912 76.8039 55.3952 79.3479 53.1872 80.6679C53.0552 80.4519 52.8152 80.1279 52.6232 79.9479C54.6152 78.8919 55.8752 76.3359 56.1632 72.2679V72.0759ZM70.6952 70.0359L71.3552 70.6359C70.7432 70.9959 69.9512 71.3079 69.2792 71.5239C69.2312 71.3559 69.1112 71.0919 69.0032 70.9119C69.6152 70.6839 70.2992 70.3479 70.6952 70.0359ZM68.8352 70.6599L69.6272 70.9119V74.7759H68.8352V70.6599ZM68.8352 74.3679H74.2592V71.3199H72.7352V70.5879H75.0752V75.1119H68.8352V74.3679ZM69.1832 72.4839H70.9352V73.1679H69.1832V72.4839ZM72.7832 72.4839H74.6192V73.1679H72.7832V72.4839ZM71.4752 69.6039H72.2912V76.3719H71.4752V69.6039ZM68.5112 76.2039H74.4032V76.9719H68.5112V76.2039ZM74.1512 76.2039H74.3192L74.4752 76.1679L75.0392 76.4439C73.8992 78.9999 71.1632 80.1759 68.2232 80.6559C68.1512 80.4279 67.9832 80.0799 67.8272 79.8879C70.5752 79.5279 73.2032 78.4719 74.1512 76.3359V76.2039ZM70.0832 76.8879C71.0552 78.4959 73.1552 79.5279 75.6752 79.9239C75.4712 80.1159 75.2312 80.4639 75.1112 80.7159C72.5312 80.2239 70.4192 79.0479 69.2912 77.1879L70.0832 76.8879ZM64.3712 75.9759C65.4032 75.7119 66.9392 75.2559 68.4272 74.8239L68.5352 75.6399C67.1672 76.0719 65.7272 76.5279 64.6112 76.8519L64.3712 75.9759ZM64.5272 72.0159H68.4152V72.8559H64.5272V72.0159ZM66.1952 69.6039H67.0712V79.5999C67.0712 80.0919 66.9512 80.3439 66.6392 80.4759C66.3272 80.6199 65.8472 80.6439 65.0432 80.6319C65.0192 80.4159 64.8872 80.0559 64.7792 79.8159C65.3192 79.8279 65.8232 79.8279 65.9672 79.8279C66.1352 79.8279 66.1952 79.7679 66.1952 79.5999V69.6039ZM77.9792 70.0839H85.8872V73.4199H77.9072V72.7719H84.9992V70.7199H77.9792V70.0839ZM83.1272 74.6679V75.8319H85.8872V74.6679H83.1272ZM82.2752 74.0199H86.7632V76.4679H82.2752V74.0199ZM78.2672 71.4399H85.3832V72.0519H78.2672V71.4399ZM77.0552 74.0199H81.4472V74.7039H77.0552V74.0199ZM76.5872 77.2479H87.4832V78.0039H76.5872V77.2479ZM84.1112 76.4559H84.9992V79.6479C84.9992 80.1399 84.8912 80.3799 84.4952 80.4999C84.0992 80.6319 83.4632 80.6439 82.4312 80.6439C82.3952 80.4039 82.2512 80.0799 82.1312 79.8399C82.9352 79.8639 83.6432 79.8639 83.8472 79.8519C84.0632 79.8399 84.1112 79.7919 84.1112 79.6359V76.4559ZM78.8072 74.2719H79.6472V76.0479H78.8072V74.2719ZM76.8152 76.0239C78.0392 75.9519 79.8752 75.8199 81.6872 75.6879V76.3719C79.9592 76.5159 78.1712 76.6479 76.8992 76.7439L76.8152 76.0239ZM78.5792 78.4479L79.1912 77.9319C79.8992 78.3159 80.7272 78.9279 81.1352 79.3839L80.4872 79.9719C80.1032 79.5039 79.2872 78.8679 78.5792 78.4479Z" fill="#0D0C0C" fill-opacity="0.8"/>
<rect x="131.809" y="34.5195" width="104.211" height="79.7529" rx="3" fill="#75AEC7" fill-opacity="0.3" stroke="#75AEC7" stroke-linecap="round"/>
<path d="M168.149 61.7715H175.853V62.6115H168.149V61.7715ZM169.337 64.5435V66.3435H174.581V64.5435H169.337ZM168.509 63.7755H175.457V67.1115H168.509V63.7755ZM169.253 67.3515C170.381 69.2355 172.841 70.3515 175.961 70.6995C175.769 70.8915 175.541 71.2515 175.421 71.5035C172.241 71.0475 169.781 69.7995 168.509 67.6035L169.253 67.3515ZM171.485 60.4875H172.373V65.8035C172.373 68.1195 171.977 70.4235 168.257 71.5275C168.149 71.3235 167.897 70.9635 167.717 70.7715C171.281 69.8715 171.485 67.8195 171.485 65.7915V60.4875ZM167.633 60.4155L168.485 60.6795C167.669 62.7075 166.385 64.7235 165.053 66.0555C164.969 65.8515 164.717 65.3835 164.549 65.1675C165.761 64.0275 166.937 62.2395 167.633 60.4155ZM166.373 63.5595L167.225 62.7075L167.237 62.7195V71.5395H166.373V63.5595ZM178.649 61.2915H186.413V62.1555H178.649V61.2915ZM178.649 64.0875H186.401V64.9395H178.649V64.0875ZM178.589 66.9555H186.425V67.8075H178.589V66.9555ZM178.145 61.2915H179.033V65.6475C179.033 67.4715 178.817 69.9555 177.389 71.5515C177.245 71.3715 176.885 71.0715 176.693 70.9515C178.013 69.4635 178.145 67.3275 178.145 65.6355V61.2915ZM186.053 61.2915H186.941V70.2555C186.941 70.8435 186.797 71.1195 186.401 71.2755C185.993 71.4195 185.297 71.4315 184.157 71.4195C184.121 71.1795 183.977 70.7835 183.845 70.5435C184.697 70.5795 185.513 70.5675 185.741 70.5675C185.969 70.5555 186.053 70.4835 186.053 70.2555V61.2915ZM181.913 61.6155H182.825V71.3715H181.913V61.6155ZM188.957 64.3035H199.649V65.1075H188.957V64.3035ZM190.013 61.9515H196.961V62.7555H190.013V61.9515ZM191.957 68.3235H197.609V69.0435H191.957V68.3235ZM191.957 70.3155H197.609V71.0955H191.957V70.3155ZM193.097 60.4395H193.973V64.7355H193.097V60.4395ZM198.353 60.8595L199.121 61.2675C196.709 64.4235 193.097 66.7875 189.257 68.2635C189.149 68.0595 188.861 67.6875 188.681 67.5075C192.557 66.1635 196.133 63.8355 198.353 60.8595ZM191.465 66.3795H198.185V71.4435H197.249V67.1355H192.365V71.4915H191.465V66.3795ZM201.173 69.8715C201.173 69.5755 201.245 69.3675 201.389 69.2475C201.533 69.1275 201.705 69.0675 201.905 69.0675C202.113 69.0675 202.289 69.1275 202.433 69.2475C202.585 69.3675 202.661 69.5755 202.661 69.8715C202.661 70.1595 202.585 70.3675 202.433 70.4955C202.289 70.6235 202.113 70.6875 201.905 70.6875C201.705 70.6875 201.533 70.6235 201.389 70.4955C201.245 70.3675 201.173 70.1595 201.173 69.8715ZM201.173 64.7355C201.173 64.4315 201.245 64.2195 201.389 64.0995C201.533 63.9795 201.705 63.9195 201.905 63.9195C202.113 63.9195 202.289 63.9795 202.433 64.0995C202.585 64.2195 202.661 64.4315 202.661 64.7355C202.661 65.0235 202.585 65.2315 202.433 65.3595C202.289 65.4875 202.113 65.5515 201.905 65.5515C201.705 65.5515 201.533 65.4875 201.389 65.3595C201.245 65.2315 201.173 65.0235 201.173 64.7355ZM160.25 84.1515H164.966V89.4315H164.102V84.9795H161.078V89.4795H160.25V84.1515ZM161.99 78.4635H162.878V84.4155H161.99V78.4635ZM162.506 81.0675H165.446V81.9075H162.506V81.0675ZM160.682 88.0875H164.522V88.9155H160.682V88.0875ZM155.546 79.5435V82.4475H158.846V79.5435H155.546ZM154.838 78.8835H159.578V83.1075H154.838V78.8835ZM155.714 80.1315L156.17 80.0115C156.374 80.5995 156.53 81.3555 156.566 81.8355L156.098 81.9795C156.074 81.4755 155.918 80.7195 155.714 80.1315ZM156.122 87.0075L156.71 86.9235C156.902 87.5835 157.022 88.4475 157.034 89.0115L156.41 89.0955C156.41 88.5315 156.29 87.6675 156.122 87.0075ZM157.274 86.9355L157.85 86.8155C158.126 87.4155 158.39 88.2195 158.474 88.7475L157.862 88.8795C157.79 88.3515 157.538 87.5475 157.274 86.9355ZM158.414 86.7675L158.978 86.5515C159.41 87.1035 159.842 87.8475 160.022 88.3395L159.422 88.6155C159.242 88.0995 158.822 87.3315 158.414 86.7675ZM155.102 86.9595L155.738 87.1275C155.618 88.0155 155.426 88.9515 154.91 89.4915L154.298 89.1555C154.766 88.6635 154.994 87.7875 155.102 86.9595ZM158.174 79.9755L158.702 80.1795C158.486 80.7915 158.246 81.5715 158.042 82.0515L157.646 81.8955C157.826 81.3795 158.066 80.5275 158.174 79.9755ZM154.49 85.6875C155.822 85.6275 157.862 85.5315 159.854 85.4115L159.83 86.1315C157.91 86.2755 155.918 86.3955 154.538 86.4795L154.49 85.6875ZM154.754 83.9235H159.662V84.6555H154.754V83.9235ZM156.854 79.1955H157.466V82.7955H157.562V85.8915H156.758V82.7955H156.854V79.1955ZM167.366 85.8315H176.558V86.4435H167.366V85.8315ZM166.634 87.0915H177.23V87.7275H166.634V87.0915ZM171.458 84.7755H172.358V88.6035C172.358 89.0715 172.226 89.2635 171.854 89.3835C171.482 89.4915 170.882 89.4915 169.898 89.4915C169.85 89.2875 169.718 88.9995 169.61 88.7955C170.318 88.8195 171.014 88.8195 171.206 88.8075C171.398 88.7955 171.458 88.7475 171.458 88.5795V84.7755ZM174.902 84.2835L175.526 84.7875C173.618 85.1715 170.45 85.3035 167.882 85.2915C167.87 85.1475 167.786 84.8835 167.714 84.7395C170.222 84.7275 173.342 84.5955 174.902 84.2835ZM166.658 79.0395H171.83V79.5795H166.658V79.0395ZM166.502 82.4475H171.902V82.9635H166.502V82.4475ZM167.69 81.2115V81.6435H170.786V81.2115H167.69ZM167.69 80.3955V80.8035H170.786V80.3955H167.69ZM167.042 79.9755H171.446V82.0635H167.042V79.9755ZM168.842 78.4515H169.574V84.1515H168.842V78.4515ZM172.106 81.4035H176.234V82.0275H172.106V81.4035ZM173.186 78.8235H175.442V79.4715H173.186V78.8235ZM175.922 81.4035H176.078L176.234 81.3795L176.666 81.5235C175.97 83.3115 174.218 84.0555 172.154 84.4035C172.094 84.2115 171.95 83.9355 171.806 83.7795C173.678 83.5515 175.346 82.9035 175.922 81.4995V81.4035ZM173.294 81.9675C173.99 83.0835 175.562 83.8035 177.47 84.0555C177.302 84.2115 177.086 84.5115 176.99 84.7035C175.022 84.3675 173.402 83.5035 172.622 82.1715L173.294 81.9675ZM172.742 78.8235H173.51V79.5435C173.51 80.1915 173.294 80.9115 172.346 81.4155C172.238 81.2475 171.926 80.9475 171.77 80.8515C172.598 80.4555 172.742 79.9755 172.742 79.5315V78.8235ZM175.022 78.8235H175.802V80.0475C175.802 80.2155 175.814 80.3235 175.85 80.3595C175.898 80.3835 175.946 80.3955 176.03 80.3955C176.102 80.3955 176.258 80.3955 176.354 80.3955C176.438 80.3955 176.546 80.3835 176.582 80.3715C176.63 80.3475 176.678 80.3115 176.702 80.2155C176.738 80.1315 176.75 79.9155 176.762 79.6275C176.894 79.7595 177.134 79.8795 177.326 79.9275C177.314 80.2395 177.266 80.5755 177.206 80.7075C177.134 80.8395 177.026 80.9355 176.894 80.9835C176.774 81.0315 176.558 81.0555 176.39 81.0555C176.27 81.0555 175.958 81.0555 175.838 81.0555C175.634 81.0555 175.37 80.9955 175.226 80.8635C175.07 80.7315 175.022 80.5395 175.022 80.0115V78.8235ZM167.126 83.0835H167.786V83.7555H170.702V83.0835H171.398V84.2955H167.126V83.0835ZM184.574 78.8835L185.234 79.4835C184.622 79.8435 183.83 80.1555 183.158 80.3715C183.11 80.2035 182.99 79.9395 182.882 79.7595C183.494 79.5315 184.178 79.1955 184.574 78.8835ZM182.714 79.5075L183.506 79.7595V83.6235H182.714V79.5075ZM182.714 83.2155H188.138V80.1675H186.614V79.4355H188.954V83.9595H182.714V83.2155ZM183.062 81.3315H184.814V82.0155H183.062V81.3315ZM186.662 81.3315H188.498V82.0155H186.662V81.3315ZM185.354 78.4515H186.17V85.2195H185.354V78.4515ZM182.39 85.0515H188.282V85.8195H182.39V85.0515ZM188.03 85.0515H188.198L188.354 85.0155L188.918 85.2915C187.778 87.8475 185.042 89.0235 182.102 89.5035C182.03 89.2755 181.862 88.9275 181.706 88.7355C184.454 88.3755 187.082 87.3195 188.03 85.1835V85.0515ZM183.962 85.7355C184.934 87.3435 187.034 88.3755 189.554 88.7715C189.35 88.9635 189.11 89.3115 188.99 89.5635C186.41 89.0715 184.298 87.8955 183.17 86.0355L183.962 85.7355ZM178.25 84.8235C179.282 84.5595 180.818 84.1035 182.306 83.6715L182.414 84.4875C181.046 84.9195 179.606 85.3755 178.49 85.6995L178.25 84.8235ZM178.406 80.8635H182.294V81.7035H178.406V80.8635ZM180.074 78.4515H180.95V88.4475C180.95 88.9395 180.83 89.1915 180.518 89.3235C180.206 89.4675 179.726 89.4915 178.922 89.4795C178.898 89.2635 178.766 88.9035 178.658 88.6635C179.198 88.6755 179.702 88.6755 179.846 88.6755C180.014 88.6755 180.074 88.6155 180.074 88.4475V78.4515ZM191.858 78.9315H199.766V82.2675H191.786V81.6195H198.878V79.5675H191.858V78.9315ZM197.006 83.5155V84.6795H199.766V83.5155H197.006ZM196.154 82.8675H200.642V85.3155H196.154V82.8675ZM192.146 80.2875H199.262V80.8995H192.146V80.2875ZM190.934 82.8675H195.326V83.5515H190.934V82.8675ZM190.466 86.0955H201.362V86.8515H190.466V86.0955ZM197.99 85.3035H198.878V88.4955C198.878 88.9875 198.77 89.2275 198.374 89.3475C197.978 89.4795 197.342 89.4915 196.31 89.4915C196.274 89.2515 196.13 88.9275 196.01 88.6875C196.814 88.7115 197.522 88.7115 197.726 88.6995C197.942 88.6875 197.99 88.6395 197.99 88.4835V85.3035ZM192.686 83.1195H193.526V84.8955H192.686V83.1195ZM190.694 84.8715C191.918 84.7995 193.754 84.6675 195.566 84.5355V85.2195C193.838 85.3635 192.05 85.4955 190.778 85.5915L190.694 84.8715ZM192.458 87.2955L193.07 86.7795C193.778 87.1635 194.606 87.7755 195.014 88.2315L194.366 88.8195C193.982 88.3515 193.166 87.7155 192.458 87.2955ZM206.702 78.8475H209.33V82.5075H206.702V81.8235H208.61V79.5435H206.702V78.8475ZM206.282 78.8475H207.062V89.4915H206.282V78.8475ZM212.798 78.8475V79.5435H210.674V81.8235H212.798V82.5075H209.942V78.8475H212.798ZM206.654 80.3475H208.91V80.9595H206.654V80.3475ZM210.314 80.3475H212.642V80.9715H210.314V80.3475ZM207.542 83.2995H211.838V83.8515H207.542V83.2995ZM209.318 82.7115H209.99V84.6075H209.318V82.7115ZM212.27 78.8475H213.074V88.5675C213.074 88.9875 212.99 89.2275 212.726 89.3475C212.462 89.4795 212.078 89.5155 211.43 89.5035C211.394 89.2995 211.286 88.9515 211.178 88.7355C211.598 88.7475 211.97 88.7475 212.078 88.7475C212.222 88.7355 212.27 88.6995 212.27 88.5555V78.8475ZM208.394 85.8435V86.3715H210.974V85.8435H208.394ZM208.394 84.8235V85.3395H210.974V84.8235H208.394ZM207.806 84.3195H211.574V86.8875H207.806V84.3195ZM209.282 86.5395L209.798 86.7555C209.354 87.5835 208.478 88.4715 207.71 88.9275C207.602 88.7595 207.386 88.5195 207.23 88.3995C207.998 88.0395 208.85 87.2715 209.282 86.5395ZM202.526 81.0435H206.09V81.8835H202.526V81.0435ZM204.05 78.4395H204.866V89.4675H204.05V78.4395ZM204.014 81.5475L204.554 81.7155C204.218 83.6115 203.51 85.9755 202.718 87.1755C202.622 86.9595 202.418 86.6235 202.274 86.4315C203.006 85.3515 203.726 83.2515 204.014 81.5475ZM204.806 82.7115C205.058 83.0475 206.018 84.5595 206.222 84.9075L205.754 85.5675C205.514 84.9675 204.722 83.5275 204.434 83.0595L204.806 82.7115ZM210.146 86.6475C210.554 87.2835 211.31 88.0035 211.97 88.3395C211.814 88.4715 211.598 88.6995 211.478 88.8555C210.842 88.4235 210.062 87.5835 209.666 86.8635L210.146 86.6475ZM209.378 84.5475H209.954V86.6835H210.014V89.2035H209.318V86.6835H209.378V84.5475Z" fill="black" fill-opacity="0.8"/>
<rect x="263.131" y="34.5195" width="104.211" height="79.532" rx="3" fill="#75AEC7" fill-opacity="0.3" stroke="#75AEC7" stroke-linecap="round"/>
<path d="M299.471 52.7715H307.175V53.6115H299.471V52.7715ZM300.659 55.5435V57.3435H305.903V55.5435H300.659ZM299.831 54.7755H306.779V58.1115H299.831V54.7755ZM300.575 58.3515C301.703 60.2355 304.163 61.3515 307.283 61.6995C307.091 61.8915 306.863 62.2515 306.743 62.5035C303.563 62.0475 301.103 60.7995 299.831 58.6035L300.575 58.3515ZM302.807 51.4875H303.695V56.8035C303.695 59.1195 303.299 61.4235 299.579 62.5275C299.471 62.3235 299.219 61.9635 299.039 61.7715C302.603 60.8715 302.807 58.8195 302.807 56.7915V51.4875ZM298.955 51.4155L299.807 51.6795C298.991 53.7075 297.707 55.7235 296.375 57.0555C296.291 56.8515 296.039 56.3835 295.871 56.1675C297.083 55.0275 298.259 53.2395 298.955 51.4155ZM297.695 54.5595L298.547 53.7075L298.559 53.7195V62.5395H297.695V54.5595ZM309.971 52.2915H317.735V53.1555H309.971V52.2915ZM309.971 55.0875H317.723V55.9395H309.971V55.0875ZM309.911 57.9555H317.747V58.8075H309.911V57.9555ZM309.467 52.2915H310.355V56.6475C310.355 58.4715 310.139 60.9555 308.711 62.5515C308.567 62.3715 308.207 62.0715 308.015 61.9515C309.335 60.4635 309.467 58.3275 309.467 56.6355V52.2915ZM317.375 52.2915H318.263V61.2555C318.263 61.8435 318.119 62.1195 317.723 62.2755C317.315 62.4195 316.619 62.4315 315.479 62.4195C315.443 62.1795 315.299 61.7835 315.167 61.5435C316.019 61.5795 316.835 61.5675 317.063 61.5675C317.291 61.5555 317.375 61.4835 317.375 61.2555V52.2915ZM313.235 52.6155H314.147V62.3715H313.235V52.6155ZM320.279 55.3035H330.971V56.1075H320.279V55.3035ZM321.335 52.9515H328.283V53.7555H321.335V52.9515ZM323.279 59.3235H328.931V60.0435H323.279V59.3235ZM323.279 61.3155H328.931V62.0955H323.279V61.3155ZM324.419 51.4395H325.295V55.7355H324.419V51.4395ZM329.675 51.8595L330.443 52.2675C328.031 55.4235 324.419 57.7875 320.579 59.2635C320.471 59.0595 320.183 58.6875 320.003 58.5075C323.879 57.1635 327.455 54.8355 329.675 51.8595ZM322.787 57.3795H329.507V62.4435H328.571V58.1355H323.687V62.4915H322.787V57.3795ZM332.495 60.8715C332.495 60.5755 332.567 60.3675 332.711 60.2475C332.855 60.1275 333.027 60.0675 333.227 60.0675C333.435 60.0675 333.611 60.1275 333.755 60.2475C333.907 60.3675 333.983 60.5755 333.983 60.8715C333.983 61.1595 333.907 61.3675 333.755 61.4955C333.611 61.6235 333.435 61.6875 333.227 61.6875C333.027 61.6875 332.855 61.6235 332.711 61.4955C332.567 61.3675 332.495 61.1595 332.495 60.8715ZM332.495 55.7355C332.495 55.4315 332.567 55.2195 332.711 55.0995C332.855 54.9795 333.027 54.9195 333.227 54.9195C333.435 54.9195 333.611 54.9795 333.755 55.0995C333.907 55.2195 333.983 55.4315 333.983 55.7355C333.983 56.0235 333.907 56.2315 333.755 56.3595C333.611 56.4875 333.435 56.5515 333.227 56.5515C333.027 56.5515 332.855 56.4875 332.711 56.3595C332.567 56.2315 332.495 56.0235 332.495 55.7355ZM291.896 72.5115H295.22V73.2555H291.896V72.5115ZM291.128 75.7875H293.096V76.4355H291.128V75.7875ZM291.128 77.4315H293.096V78.1155H291.128V77.4315ZM294.104 74.4435H294.764V78.6675H294.104V74.4435ZM293.564 70.3275C292.964 71.3835 291.848 72.6195 290.636 73.3995C290.54 73.1715 290.336 72.8595 290.192 72.6675C291.392 71.9355 292.556 70.6275 293.12 69.4875H293.936C294.68 70.7115 295.892 71.9115 297.02 72.5115C296.84 72.7275 296.66 73.0515 296.528 73.3035C295.424 72.5955 294.236 71.4075 293.564 70.3275ZM290.72 74.1795H292.964V74.8635H291.38V80.4435H290.72V74.1795ZM292.76 74.1795H293.42V79.7115C293.42 80.0355 293.36 80.2275 293.168 80.3595C292.952 80.4675 292.664 80.4795 292.232 80.4795C292.208 80.2995 292.112 80.0115 292.04 79.8315C292.316 79.8315 292.556 79.8315 292.64 79.8315C292.724 79.8315 292.76 79.7955 292.76 79.6995V74.1795ZM295.712 73.9875H296.456V79.6035C296.456 79.9995 296.372 80.2035 296.108 80.3355C295.82 80.4435 295.388 80.4435 294.68 80.4435C294.656 80.2635 294.548 79.9635 294.452 79.7715C294.956 79.7835 295.4 79.7835 295.532 79.7715C295.664 79.7595 295.712 79.7235 295.712 79.5915V73.9875ZM285.848 70.7355H290.42V71.5395H285.848V70.7355ZM285.704 77.5875H290.384V78.3915H285.704V77.5875ZM287.684 69.4395H288.488V72.7395H287.684V69.4395ZM287.78 72.7875H288.392V76.2795H288.488V80.5035H287.684V76.2795H287.78V72.7875ZM286.7 74.8515V75.9435H289.472V74.8515H286.7ZM286.7 73.1235V74.2035H289.472V73.1235H286.7ZM286.028 72.4395H290.156V76.6155H286.028V72.4395ZM299.96 70.1715H303.356V71.0835H299.96V70.1715ZM302.9 70.1715H303.824C303.824 72.3195 304.088 76.8795 308.828 79.6875C308.624 79.8435 308.264 80.2275 308.096 80.4435C303.296 77.5395 302.9 72.4275 302.9 70.1715ZM302.564 72.5235L303.584 72.7155C302.72 76.3755 301.136 78.9075 298.484 80.4675C298.316 80.2755 297.908 79.9035 297.668 79.7355C300.332 78.3435 301.832 75.9195 302.564 72.5235ZM311.744 73.0275H318.692V73.8795H311.744V73.0275ZM311.744 75.8715H318.692V76.7235H311.744V75.8715ZM311.744 78.7275H318.692V79.6035H311.744V78.7275ZM311.12 70.1835H319.268V80.4195H318.332V71.0715H312.02V80.4195H311.12V70.1835ZM322.808 71.3715H326.456V79.2195H322.808V78.4035H325.616V72.1755H322.808V71.3715ZM322.268 71.3715H323.108V80.1795H322.268V71.3715ZM322.748 74.7075H326.06V75.5115H322.748V74.7075ZM324.104 69.4155L325.076 69.5955C324.836 70.3395 324.536 71.1675 324.296 71.7075L323.576 71.5275C323.78 70.9515 324.008 70.0395 324.104 69.4155ZM328.16 71.3355H331.844V72.1755H328.16V71.3355ZM331.532 71.3355H332.372C332.372 71.3355 332.372 71.6715 332.372 71.8035C332.18 77.3115 332.012 79.1715 331.532 79.7595C331.268 80.1075 330.992 80.2155 330.572 80.2515C330.164 80.2995 329.456 80.2755 328.784 80.2395C328.76 79.9755 328.652 79.6035 328.484 79.3635C329.264 79.4235 329.984 79.4355 330.26 79.4355C330.5 79.4355 330.644 79.3995 330.776 79.2435C331.172 78.8115 331.364 76.8195 331.532 71.5275V71.3355ZM328.412 69.3915L329.276 69.5955C328.832 71.3835 328.124 73.1475 327.296 74.2875C327.14 74.1435 326.768 73.8915 326.552 73.7715C327.368 72.7155 328.028 71.0595 328.412 69.3915ZM327.86 74.4555L328.556 74.0475C329.24 74.8995 330.068 76.0635 330.452 76.7715L329.684 77.2515C329.324 76.5195 328.52 75.3315 327.86 74.4555ZM340.856 69.4395H341.708V77.8035H340.856V69.4395ZM337.076 74.3955L343.544 71.6715L343.88 72.4395L337.424 75.1875L337.076 74.3955ZM338.372 70.5675H339.236V78.5955C339.236 79.2555 339.38 79.3995 340.184 79.3995C340.58 79.3995 342.596 79.3995 343.076 79.3995C343.784 79.3995 343.904 79.0755 343.988 77.6955C344.204 77.8395 344.552 77.9835 344.804 78.0315C344.66 79.6875 344.372 80.2155 343.112 80.2155C342.788 80.2155 340.46 80.2155 340.16 80.2155C338.78 80.2155 338.372 79.8915 338.372 78.5835V70.5675ZM343.388 71.7915H343.28L343.496 71.6115L343.652 71.4795L344.288 71.7195L344.252 71.8875C344.252 74.1435 344.216 75.9435 344.132 76.4115C344.06 76.8915 343.832 77.1195 343.484 77.2035C343.16 77.2875 342.68 77.2875 342.356 77.2875C342.32 77.0475 342.248 76.7115 342.14 76.5075C342.416 76.5195 342.812 76.5195 342.944 76.5195C343.124 76.5195 343.244 76.4715 343.304 76.1955C343.376 75.8835 343.388 74.1795 343.388 71.7915ZM333.728 72.3315H337.544V73.1835H333.728V72.3315ZM335.276 69.5835H336.128V77.3715H335.276V69.5835ZM333.62 77.6835C334.592 77.3235 336.068 76.6995 337.496 76.0875L337.688 76.8915C336.404 77.5035 335.048 78.1155 333.98 78.5715L333.62 77.6835ZM297.001 94.2315C297.001 93.5755 297.061 92.9355 297.181 92.3115C297.309 91.6875 297.505 91.0915 297.769 90.5235C298.033 89.9555 298.365 89.4315 298.765 88.9515H299.761C299.393 89.4475 299.081 89.9835 298.825 90.5595C298.577 91.1355 298.389 91.7315 298.261 92.3475C298.133 92.9635 298.069 93.5875 298.069 94.2195C298.069 94.8355 298.133 95.4475 298.261 96.0555C298.389 96.6635 298.577 97.2475 298.825 97.8075C299.073 98.3755 299.381 98.9115 299.749 99.4155H298.765C298.365 98.9435 298.033 98.4275 297.769 97.8675C297.505 97.3155 297.309 96.7315 297.181 96.1155C297.061 95.4995 297.001 94.8715 297.001 94.2315ZM306.92 90.3555H307.856V96.8115C307.856 97.3755 308 97.4835 308.672 97.4835C309.008 97.4835 310.568 97.4835 311 97.4835C311.696 97.4835 311.804 97.0875 311.9 95.1795C312.128 95.3475 312.512 95.5155 312.776 95.5755C312.632 97.7355 312.356 98.3835 311.048 98.3835C310.736 98.3835 308.9 98.3835 308.6 98.3835C307.292 98.3835 306.92 98.0475 306.92 96.7875V90.3555ZM306.944 88.1115L307.532 87.4755C308.564 88.1475 309.872 89.1315 310.568 89.6955L309.968 90.4275C309.272 89.8155 307.952 88.8075 306.944 88.1115ZM305 91.0755L305.84 91.2915C305.576 92.6235 305.132 94.3515 304.46 95.4075L303.608 95.0595C304.292 94.0155 304.76 92.3835 305 91.0755ZM312.092 91.8555L312.896 91.4835C313.736 92.6835 314.54 94.2555 314.876 95.3115L314.012 95.7435C313.712 94.6755 312.896 93.0555 312.092 91.8555ZM312.728 88.1595L313.616 88.5315C311.648 92.2755 308.48 95.7315 304.208 97.7715C304.076 97.5675 303.812 97.2435 303.62 97.0635C307.76 95.1795 310.988 91.7115 312.728 88.1595ZM319.364 88.4475H326.612V89.2035H319.364V88.4475ZM319.028 95.4555H326.768V96.2235H319.028V95.4555ZM322.52 87.4395H323.396V90.4275H322.52V87.4395ZM321.14 92.0115V92.7795H324.824V92.0115H321.14ZM321.14 93.3795V94.1475H324.824V93.3795H321.14ZM321.14 90.6795V91.4235H324.824V90.6795H321.14ZM320.312 90.0555H325.688V94.7715H320.312V90.0555ZM323.612 96.8355L324.236 96.3795C325.184 96.8955 326.228 97.5435 326.852 98.0355L326.024 98.4915C325.472 98.0115 324.512 97.3515 323.612 96.8355ZM321.404 96.4155L322.244 96.7035C321.5 97.4115 320.336 98.0835 319.352 98.5035C319.208 98.3355 318.872 98.0115 318.68 97.8675C319.676 97.5195 320.756 96.9795 321.404 96.4155ZM315.86 90.3795H319.4V91.2315H315.86V90.3795ZM317.264 87.5955H318.116V95.4195H317.264V87.5955ZM315.632 95.6715C316.604 95.3115 318.068 94.6875 319.484 94.0875L319.688 94.9275C318.416 95.5155 317.036 96.1155 315.98 96.5715L315.632 95.6715ZM333.473 94.2315C333.473 94.8715 333.409 95.4995 333.281 96.1155C333.161 96.7315 332.969 97.3155 332.705 97.8675C332.449 98.4275 332.117 98.9435 331.709 99.4155H330.725C331.093 98.9115 331.401 98.3755 331.649 97.8075C331.897 97.2475 332.085 96.6635 332.213 96.0555C332.341 95.4475 332.405 94.8355 332.405 94.2195C332.405 93.5875 332.341 92.9635 332.213 92.3475C332.085 91.7315 331.897 91.1355 331.649 90.5595C331.401 89.9835 331.089 89.4475 330.713 88.9515H331.709C332.117 89.4315 332.449 89.9555 332.705 90.5235C332.969 91.0915 333.161 91.6875 333.281 92.3115C333.409 92.9355 333.473 93.5755 333.473 94.2315Z" fill="black" fill-opacity="0.8"/>
<path d="M240.02 73.7852C239.743 73.7852 239.52 74.009 239.52 74.2852C239.52 74.5613 239.743 74.7852 240.02 74.7852V73.7852ZM259.485 74.6387C259.68 74.4434 259.68 74.1269 259.485 73.9316L256.303 70.7496C256.107 70.5544 255.791 70.5544 255.595 70.7496C255.4 70.9449 255.4 71.2615 255.595 71.4567L258.424 74.2852L255.595 77.1136C255.4 77.3088 255.4 77.6254 255.595 77.8207C255.791 78.016 256.107 78.016 256.303 77.8207L259.485 74.6387ZM240.02 74.7852H259.131V73.7852H240.02V74.7852Z" fill="#B3B3B3"/>
<rect x="394.451" y="34.5195" width="104.211" height="79.532" rx="3" fill="#75AEC7" fill-opacity="0.3" stroke="#75AEC7" stroke-linecap="round"/>
<path d="M430.791 52.7715H438.495V53.6115H430.791V52.7715ZM431.979 55.5435V57.3435H437.223V55.5435H431.979ZM431.151 54.7755H438.099V58.1115H431.151V54.7755ZM431.895 58.3515C433.023 60.2355 435.483 61.3515 438.603 61.6995C438.411 61.8915 438.183 62.2515 438.063 62.5035C434.883 62.0475 432.423 60.7995 431.151 58.6035L431.895 58.3515ZM434.127 51.4875H435.015V56.8035C435.015 59.1195 434.619 61.4235 430.899 62.5275C430.791 62.3235 430.539 61.9635 430.359 61.7715C433.923 60.8715 434.127 58.8195 434.127 56.7915V51.4875ZM430.275 51.4155L431.127 51.6795C430.311 53.7075 429.027 55.7235 427.695 57.0555C427.611 56.8515 427.359 56.3835 427.191 56.1675C428.403 55.0275 429.579 53.2395 430.275 51.4155ZM429.015 54.5595L429.867 53.7075L429.879 53.7195V62.5395H429.015V54.5595ZM441.291 52.2915H449.055V53.1555H441.291V52.2915ZM441.291 55.0875H449.043V55.9395H441.291V55.0875ZM441.231 57.9555H449.067V58.8075H441.231V57.9555ZM440.787 52.2915H441.675V56.6475C441.675 58.4715 441.459 60.9555 440.031 62.5515C439.887 62.3715 439.527 62.0715 439.335 61.9515C440.655 60.4635 440.787 58.3275 440.787 56.6355V52.2915ZM448.695 52.2915H449.583V61.2555C449.583 61.8435 449.439 62.1195 449.043 62.2755C448.635 62.4195 447.939 62.4315 446.799 62.4195C446.763 62.1795 446.619 61.7835 446.487 61.5435C447.339 61.5795 448.155 61.5675 448.383 61.5675C448.611 61.5555 448.695 61.4835 448.695 61.2555V52.2915ZM444.555 52.6155H445.467V62.3715H444.555V52.6155ZM451.599 55.3035H462.291V56.1075H451.599V55.3035ZM452.655 52.9515H459.603V53.7555H452.655V52.9515ZM454.599 59.3235H460.251V60.0435H454.599V59.3235ZM454.599 61.3155H460.251V62.0955H454.599V61.3155ZM455.739 51.4395H456.615V55.7355H455.739V51.4395ZM460.995 51.8595L461.763 52.2675C459.351 55.4235 455.739 57.7875 451.899 59.2635C451.791 59.0595 451.503 58.6875 451.323 58.5075C455.199 57.1635 458.775 54.8355 460.995 51.8595ZM454.107 57.3795H460.827V62.4435H459.891V58.1355H455.007V62.4915H454.107V57.3795ZM463.815 60.8715C463.815 60.5755 463.887 60.3675 464.031 60.2475C464.175 60.1275 464.347 60.0675 464.547 60.0675C464.755 60.0675 464.931 60.1275 465.075 60.2475C465.227 60.3675 465.303 60.5755 465.303 60.8715C465.303 61.1595 465.227 61.3675 465.075 61.4955C464.931 61.6235 464.755 61.6875 464.547 61.6875C464.347 61.6875 464.175 61.6235 464.031 61.4955C463.887 61.3675 463.815 61.1595 463.815 60.8715ZM463.815 55.7355C463.815 55.4315 463.887 55.2195 464.031 55.0995C464.175 54.9795 464.347 54.9195 464.547 54.9195C464.755 54.9195 464.931 54.9795 465.075 55.0995C465.227 55.2195 465.303 55.4315 465.303 55.7355C465.303 56.0235 465.227 56.2315 465.075 56.3595C464.931 56.4875 464.755 56.5515 464.547 56.5515C464.347 56.5515 464.175 56.4875 464.031 56.3595C463.887 56.2315 463.815 56.0235 463.815 55.7355ZM429.217 72.5115H432.541V73.2555H429.217V72.5115ZM428.449 75.7875H430.417V76.4355H428.449V75.7875ZM428.449 77.4315H430.417V78.1155H428.449V77.4315ZM431.425 74.4435H432.085V78.6675H431.425V74.4435ZM430.885 70.3275C430.285 71.3835 429.169 72.6195 427.957 73.3995C427.861 73.1715 427.657 72.8595 427.513 72.6675C428.713 71.9355 429.877 70.6275 430.441 69.4875H431.257C432.001 70.7115 433.213 71.9115 434.341 72.5115C434.161 72.7275 433.981 73.0515 433.849 73.3035C432.745 72.5955 431.557 71.4075 430.885 70.3275ZM428.041 74.1795H430.285V74.8635H428.701V80.4435H428.041V74.1795ZM430.081 74.1795H430.741V79.7115C430.741 80.0355 430.681 80.2275 430.489 80.3595C430.273 80.4675 429.985 80.4795 429.553 80.4795C429.529 80.2995 429.433 80.0115 429.361 79.8315C429.637 79.8315 429.877 79.8315 429.961 79.8315C430.045 79.8315 430.081 79.7955 430.081 79.6995V74.1795ZM433.033 73.9875H433.777V79.6035C433.777 79.9995 433.693 80.2035 433.429 80.3355C433.141 80.4435 432.709 80.4435 432.001 80.4435C431.977 80.2635 431.869 79.9635 431.773 79.7715C432.277 79.7835 432.721 79.7835 432.853 79.7715C432.985 79.7595 433.033 79.7235 433.033 79.5915V73.9875ZM423.169 70.7355H427.741V71.5395H423.169V70.7355ZM423.025 77.5875H427.705V78.3915H423.025V77.5875ZM425.005 69.4395H425.809V72.7395H425.005V69.4395ZM425.101 72.7875H425.713V76.2795H425.809V80.5035H425.005V76.2795H425.101V72.7875ZM424.021 74.8515V75.9435H426.793V74.8515H424.021ZM424.021 73.1235V74.2035H426.793V73.1235H424.021ZM423.349 72.4395H427.477V76.6155H423.349V72.4395ZM437.281 70.1715H440.677V71.0835H437.281V70.1715ZM440.221 70.1715H441.145C441.145 72.3195 441.409 76.8795 446.149 79.6875C445.945 79.8435 445.585 80.2275 445.417 80.4435C440.617 77.5395 440.221 72.4275 440.221 70.1715ZM439.885 72.5235L440.905 72.7155C440.041 76.3755 438.457 78.9075 435.805 80.4675C435.637 80.2755 435.229 79.9035 434.989 79.7355C437.653 78.3435 439.153 75.9195 439.885 72.5235ZM448.669 70.2555H456.529V80.2995H455.581V71.1675H449.593V80.3475H448.669V70.2555ZM449.281 74.4195H455.977V75.3075H449.281V74.4195ZM449.269 78.6675H456.001V79.5675H449.269V78.6675ZM465.877 70.0395H469.213V70.8675H465.877V70.0395ZM465.877 72.7995H469.213V73.6035H465.877V72.7995ZM465.865 75.5955H469.237V76.4115H465.865V75.5955ZM468.805 70.0395H469.681V79.3395C469.681 79.8555 469.561 80.1315 469.213 80.2755C468.877 80.4195 468.313 80.4435 467.425 80.4435C467.401 80.1915 467.269 79.7955 467.149 79.5675C467.785 79.5795 468.385 79.5795 468.565 79.5675C468.745 79.5675 468.805 79.5075 468.805 79.3275V70.0395ZM465.505 70.0395H466.357V74.3955C466.357 76.2435 466.213 78.8355 465.133 80.5395C464.977 80.3715 464.617 80.1075 464.413 80.0235C465.421 78.4155 465.505 76.1355 465.505 74.3955V70.0395ZM459.169 71.0475H464.917V71.8395H459.169V71.0475ZM460.585 72.9075H463.621V73.6395H460.585V72.9075ZM460.585 74.8155H463.633V75.5355H460.585V74.8155ZM459.013 76.7475H464.917V77.5515H459.013V76.7475ZM460.189 69.5835H461.017V77.0715H460.189V69.5835ZM463.201 69.5835H464.029V77.0715H463.201V69.5835ZM460.681 77.8155L461.545 78.0555C461.101 78.9675 460.405 79.8915 459.757 80.4915C459.589 80.3475 459.241 80.0835 459.025 79.9635C459.697 79.4235 460.321 78.6195 460.681 77.8155ZM462.409 78.1875L463.105 77.8155C463.573 78.3555 464.137 79.0995 464.377 79.5915L463.645 80.0235C463.417 79.5435 462.877 78.7515 462.409 78.1875ZM428.322 94.2315C428.322 93.5755 428.382 92.9355 428.502 92.3115C428.63 91.6875 428.826 91.0915 429.09 90.5235C429.354 89.9555 429.686 89.4315 430.086 88.9515H431.082C430.714 89.4475 430.402 89.9835 430.146 90.5595C429.898 91.1355 429.71 91.7315 429.582 92.3475C429.454 92.9635 429.39 93.5875 429.39 94.2195C429.39 94.8355 429.454 95.4475 429.582 96.0555C429.71 96.6635 429.898 97.2475 430.146 97.8075C430.394 98.3755 430.702 98.9115 431.07 99.4155H430.086C429.686 98.9435 429.354 98.4275 429.09 97.8675C428.826 97.3155 428.63 96.7315 428.502 96.1155C428.382 95.4995 428.322 94.8715 428.322 94.2315ZM437.425 92.1795V96.4275H436.573V93.0195H435.097V92.1795H437.425ZM437.425 96.0675C437.989 96.9675 439.057 97.3755 440.485 97.4355C441.841 97.4955 444.661 97.4595 446.137 97.3635C446.029 97.5555 445.885 97.9635 445.849 98.2155C444.481 98.2755 441.865 98.2995 440.497 98.2515C438.901 98.1915 437.809 97.7595 437.053 96.8115C436.537 97.3275 435.997 97.8435 435.421 98.3835L434.953 97.5315C435.469 97.1355 436.105 96.5955 436.657 96.0675H437.425ZM435.157 88.1835L435.853 87.7275C436.561 88.3035 437.365 89.1315 437.701 89.7315L436.945 90.2475C436.633 89.6475 435.853 88.7835 435.157 88.1835ZM438.313 92.5155H445.597V93.2115H438.313V92.5155ZM437.929 94.3635H445.969V95.0715H437.929V94.3635ZM440.089 91.6515H440.953V94.7115H440.089V91.6515ZM442.921 91.6515H443.773V94.7115H442.921V91.6515ZM438.613 89.3235H440.725V88.5435H438.157V87.9195H441.517V89.9595H438.613V89.3235ZM438.361 89.3235H439.129V90.5715C439.129 90.7995 439.189 90.8475 439.573 90.8475C439.741 90.8475 440.653 90.8475 440.881 90.8475C441.169 90.8475 441.229 90.7755 441.265 90.2475C441.409 90.3675 441.709 90.4635 441.925 90.4995C441.841 91.2795 441.613 91.4835 441.001 91.4835C440.809 91.4835 439.669 91.4835 439.489 91.4835C438.601 91.4835 438.361 91.3035 438.361 90.5835V89.3235ZM442.573 89.3235H444.649V88.5435H442.093V87.9195H445.429V89.9595H442.573V89.3235ZM442.309 89.3235H443.077V90.5715C443.077 90.7995 443.149 90.8475 443.557 90.8475C443.749 90.8475 444.733 90.8475 444.973 90.8475C445.273 90.8475 445.333 90.7755 445.369 90.2115C445.525 90.3195 445.825 90.4155 446.041 90.4635C445.957 91.2795 445.729 91.4835 445.081 91.4835C444.889 91.4835 443.665 91.4835 443.473 91.4835C442.561 91.4835 442.309 91.3035 442.309 90.5715V89.3235ZM442.705 95.6115L443.353 95.2155C444.229 95.6355 445.213 96.2235 445.789 96.6675L444.901 97.0635C444.421 96.6195 443.533 96.0435 442.705 95.6115ZM440.509 95.1915L441.301 95.4675C440.689 96.0555 439.717 96.6435 438.913 97.0275C438.781 96.8715 438.445 96.5835 438.253 96.4635C439.069 96.1395 439.969 95.6835 440.509 95.1915ZM450.685 88.4475H457.933V89.2035H450.685V88.4475ZM450.349 95.4555H458.089V96.2235H450.349V95.4555ZM453.841 87.4395H454.717V90.4275H453.841V87.4395ZM452.461 92.0115V92.7795H456.145V92.0115H452.461ZM452.461 93.3795V94.1475H456.145V93.3795H452.461ZM452.461 90.6795V91.4235H456.145V90.6795H452.461ZM451.633 90.0555H457.009V94.7715H451.633V90.0555ZM454.933 96.8355L455.557 96.3795C456.505 96.8955 457.549 97.5435 458.173 98.0355L457.345 98.4915C456.793 98.0115 455.833 97.3515 454.933 96.8355ZM452.725 96.4155L453.565 96.7035C452.821 97.4115 451.657 98.0835 450.673 98.5035C450.529 98.3355 450.193 98.0115 450.001 97.8675C450.997 97.5195 452.077 96.9795 452.725 96.4155ZM447.181 90.3795H450.721V91.2315H447.181V90.3795ZM448.585 87.5955H449.437V95.4195H448.585V87.5955ZM446.953 95.6715C447.925 95.3115 449.389 94.6875 450.805 94.0875L451.009 94.9275C449.737 95.5155 448.357 96.1155 447.301 96.5715L446.953 95.6715ZM464.794 94.2315C464.794 94.8715 464.73 95.4995 464.602 96.1155C464.482 96.7315 464.29 97.3155 464.026 97.8675C463.77 98.4275 463.438 98.9435 463.03 99.4155H462.046C462.414 98.9115 462.722 98.3755 462.97 97.8075C463.218 97.2475 463.406 96.6635 463.534 96.0555C463.662 95.4475 463.726 94.8355 463.726 94.2195C463.726 93.5875 463.662 92.9635 463.534 92.3475C463.406 91.7315 463.218 91.1355 462.97 90.5595C462.722 89.9835 462.41 89.4475 462.034 88.9515H463.03C463.438 89.4315 463.77 89.9555 464.026 90.5235C464.29 91.0915 464.482 91.6875 464.602 92.3115C464.73 92.9355 464.794 93.5755 464.794 94.2315Z" fill="black" fill-opacity="0.8"/>
<rect x="525.77" y="34.5195" width="104.211" height="79.532" rx="3" fill="#75AEC7" fill-opacity="0.3" stroke="#75AEC7" stroke-linecap="round"/>
<path d="M562.109 52.7715H569.813V53.6115H562.109V52.7715ZM563.297 55.5435V57.3435H568.541V55.5435H563.297ZM562.469 54.7755H569.417V58.1115H562.469V54.7755ZM563.213 58.3515C564.341 60.2355 566.801 61.3515 569.921 61.6995C569.729 61.8915 569.501 62.2515 569.381 62.5035C566.201 62.0475 563.741 60.7995 562.469 58.6035L563.213 58.3515ZM565.445 51.4875H566.333V56.8035C566.333 59.1195 565.937 61.4235 562.217 62.5275C562.109 62.3235 561.857 61.9635 561.677 61.7715C565.241 60.8715 565.445 58.8195 565.445 56.7915V51.4875ZM561.593 51.4155L562.445 51.6795C561.629 53.7075 560.345 55.7235 559.013 57.0555C558.929 56.8515 558.677 56.3835 558.509 56.1675C559.721 55.0275 560.897 53.2395 561.593 51.4155ZM560.333 54.5595L561.185 53.7075L561.197 53.7195V62.5395H560.333V54.5595ZM572.609 52.2915H580.373V53.1555H572.609V52.2915ZM572.609 55.0875H580.361V55.9395H572.609V55.0875ZM572.549 57.9555H580.385V58.8075H572.549V57.9555ZM572.105 52.2915H572.993V56.6475C572.993 58.4715 572.777 60.9555 571.349 62.5515C571.205 62.3715 570.845 62.0715 570.653 61.9515C571.973 60.4635 572.105 58.3275 572.105 56.6355V52.2915ZM580.013 52.2915H580.901V61.2555C580.901 61.8435 580.757 62.1195 580.361 62.2755C579.953 62.4195 579.257 62.4315 578.117 62.4195C578.081 62.1795 577.937 61.7835 577.805 61.5435C578.657 61.5795 579.473 61.5675 579.701 61.5675C579.929 61.5555 580.013 61.4835 580.013 61.2555V52.2915ZM575.873 52.6155H576.785V62.3715H575.873V52.6155ZM582.917 55.3035H593.609V56.1075H582.917V55.3035ZM583.973 52.9515H590.921V53.7555H583.973V52.9515ZM585.917 59.3235H591.569V60.0435H585.917V59.3235ZM585.917 61.3155H591.569V62.0955H585.917V61.3155ZM587.057 51.4395H587.933V55.7355H587.057V51.4395ZM592.313 51.8595L593.081 52.2675C590.669 55.4235 587.057 57.7875 583.217 59.2635C583.109 59.0595 582.821 58.6875 582.641 58.5075C586.517 57.1635 590.093 54.8355 592.313 51.8595ZM585.425 57.3795H592.145V62.4435H591.209V58.1355H586.325V62.4915H585.425V57.3795ZM595.133 60.8715C595.133 60.5755 595.205 60.3675 595.349 60.2475C595.493 60.1275 595.665 60.0675 595.865 60.0675C596.073 60.0675 596.249 60.1275 596.393 60.2475C596.545 60.3675 596.621 60.5755 596.621 60.8715C596.621 61.1595 596.545 61.3675 596.393 61.4955C596.249 61.6235 596.073 61.6875 595.865 61.6875C595.665 61.6875 595.493 61.6235 595.349 61.4955C595.205 61.3675 595.133 61.1595 595.133 60.8715ZM595.133 55.7355C595.133 55.4315 595.205 55.2195 595.349 55.0995C595.493 54.9795 595.665 54.9195 595.865 54.9195C596.073 54.9195 596.249 54.9795 596.393 55.0995C596.545 55.2195 596.621 55.4315 596.621 55.7355C596.621 56.0235 596.545 56.2315 596.393 56.3595C596.249 56.4875 596.073 56.5515 595.865 56.5515C595.665 56.5515 595.493 56.4875 595.349 56.3595C595.205 56.2315 595.133 56.0235 595.133 55.7355ZM542.535 72.5115H545.859V73.2555H542.535V72.5115ZM541.767 75.7875H543.735V76.4355H541.767V75.7875ZM541.767 77.4315H543.735V78.1155H541.767V77.4315ZM544.743 74.4435H545.403V78.6675H544.743V74.4435ZM544.203 70.3275C543.603 71.3835 542.487 72.6195 541.275 73.3995C541.179 73.1715 540.975 72.8595 540.831 72.6675C542.031 71.9355 543.195 70.6275 543.759 69.4875H544.575C545.319 70.7115 546.531 71.9115 547.659 72.5115C547.479 72.7275 547.299 73.0515 547.167 73.3035C546.063 72.5955 544.875 71.4075 544.203 70.3275ZM541.359 74.1795H543.603V74.8635H542.019V80.4435H541.359V74.1795ZM543.399 74.1795H544.059V79.7115C544.059 80.0355 543.999 80.2275 543.807 80.3595C543.591 80.4675 543.303 80.4795 542.871 80.4795C542.847 80.2995 542.751 80.0115 542.679 79.8315C542.955 79.8315 543.195 79.8315 543.279 79.8315C543.363 79.8315 543.399 79.7955 543.399 79.6995V74.1795ZM546.351 73.9875H547.095V79.6035C547.095 79.9995 547.011 80.2035 546.747 80.3355C546.459 80.4435 546.027 80.4435 545.319 80.4435C545.295 80.2635 545.187 79.9635 545.091 79.7715C545.595 79.7835 546.039 79.7835 546.171 79.7715C546.303 79.7595 546.351 79.7235 546.351 79.5915V73.9875ZM536.487 70.7355H541.059V71.5395H536.487V70.7355ZM536.343 77.5875H541.023V78.3915H536.343V77.5875ZM538.323 69.4395H539.127V72.7395H538.323V69.4395ZM538.419 72.7875H539.031V76.2795H539.127V80.5035H538.323V76.2795H538.419V72.7875ZM537.339 74.8515V75.9435H540.111V74.8515H537.339ZM537.339 73.1235V74.2035H540.111V73.1235H537.339ZM536.667 72.4395H540.795V76.6155H536.667V72.4395ZM550.599 70.1715H553.995V71.0835H550.599V70.1715ZM553.539 70.1715H554.463C554.463 72.3195 554.727 76.8795 559.467 79.6875C559.263 79.8435 558.903 80.2275 558.735 80.4435C553.935 77.5395 553.539 72.4275 553.539 70.1715ZM553.203 72.5235L554.223 72.7155C553.359 76.3755 551.775 78.9075 549.123 80.4675C548.955 80.2755 548.547 79.9035 548.307 79.7355C550.971 78.3435 552.471 75.9195 553.203 72.5235ZM561.711 71.7195H562.587V74.4075C562.587 76.1715 562.371 78.6315 560.979 80.2635C560.823 80.1075 560.439 79.8555 560.223 79.7595C561.555 78.1995 561.711 76.0155 561.711 74.3955V71.7195ZM562.155 71.7195H570.219V74.3115H562.155V73.6155H569.331V72.4155H562.155V71.7195ZM560.847 70.0875H570.927V70.9035H560.847V70.0875ZM562.107 75.3555H571.227V76.0995H562.107V75.3555ZM565.311 77.0595H569.391V77.7795H565.311V77.0595ZM565.851 74.2155H566.739V75.7275H565.851V74.2155ZM569.163 77.0595H570.063C570.063 77.0595 570.051 77.2995 570.027 77.4195C569.871 79.1955 569.703 79.9395 569.391 80.2395C569.187 80.4435 568.935 80.5155 568.599 80.5275C568.275 80.5515 567.627 80.5515 566.967 80.5035C566.943 80.2755 566.859 79.9635 566.727 79.7475C567.363 79.8075 567.999 79.8195 568.227 79.8195C568.443 79.8195 568.563 79.7955 568.671 79.6995C568.875 79.5075 569.019 78.8475 569.163 77.1795V77.0595ZM565.131 75.7275H566.019C565.791 78.0435 565.143 79.6755 562.371 80.5155C562.287 80.3115 562.047 79.9875 561.867 79.8195C564.411 79.1235 564.927 77.6955 565.131 75.7275ZM579.519 71.6715H583.395V72.5115H579.519V71.6715ZM579.759 69.4395L580.635 69.5715C580.287 71.8515 579.711 74.0595 578.811 75.4875C578.679 75.3315 578.331 75.0075 578.127 74.8635C578.979 73.5555 579.483 71.5155 579.759 69.4395ZM581.883 72.1155L582.735 72.1995C582.243 76.1835 581.187 78.8355 578.583 80.5155C578.499 80.3235 578.235 79.9515 578.079 79.7715C580.515 78.3315 581.475 75.7755 581.883 72.1155ZM579.963 72.4275C580.419 75.7155 581.415 78.5715 583.455 79.7835C583.251 79.9515 582.975 80.2755 582.831 80.4915C580.707 79.0995 579.711 76.1355 579.195 72.5475L579.963 72.4275ZM575.127 69.4395H575.931V75.7395H575.127V69.4395ZM573.939 70.8075V72.8115H577.215V70.8075H573.939ZM573.171 70.1715H578.007V73.4475H573.171V70.1715ZM573.651 74.6115V75.3915H577.491V74.6115H573.651ZM572.871 73.9995H578.295V76.0035H572.871V73.9995ZM572.355 76.7715C573.975 76.7715 576.495 76.7355 578.931 76.6875L578.895 77.3715C576.507 77.4315 574.023 77.4675 572.379 77.4915L572.355 76.7715ZM574.755 75.8115L575.523 75.9915C575.019 76.9635 574.335 78.1635 573.855 78.9435L573.111 78.7275C573.603 77.9595 574.287 76.7355 574.755 75.8115ZM573.795 78.5115L574.239 77.9715C575.643 78.4515 577.119 79.1355 577.995 79.7235L577.419 80.2875C576.591 79.6995 575.187 79.0155 573.795 78.5115ZM576.915 77.0595L577.695 77.1915C577.215 79.1475 575.727 80.0595 572.991 80.5275C572.943 80.2995 572.787 79.9995 572.643 79.8195C575.127 79.5195 576.471 78.7515 576.915 77.0595ZM572.343 71.4555H573.495V71.5035H577.635V71.4555H578.859V72.1515H577.635V72.1035H573.495V72.1515H572.343V71.4555ZM591.723 70.1955H593.943V70.9995H591.723V70.1955ZM588.951 70.7835H591.483V71.5515H588.951V70.7835ZM591.843 72.4155H593.919V73.1715H591.843V72.4155ZM591.819 74.6595H593.859V75.4155H591.819V74.6595ZM585.903 72.4155H587.943V73.1715H585.903V72.4155ZM585.951 74.6475H587.955V75.4155H585.951V74.6475ZM585.423 70.2795L586.491 70.6035C586.467 70.6755 586.407 70.7235 586.263 70.7475L586.479 77.2515H585.663L585.423 70.2795ZM593.451 70.1955H594.291C594.279 72.4515 594.207 75.4995 594.087 77.2275H593.235C593.367 75.4635 593.463 72.4035 593.451 70.1955ZM587.631 69.5595L588.339 70.2075C587.607 70.5915 586.707 70.9755 585.939 71.2635C585.891 71.1075 585.747 70.8195 585.651 70.6395C586.347 70.3155 587.151 69.8835 587.631 69.5595ZM588.555 74.0595H589.299V77.1795H588.555V74.0595ZM588.567 69.5475H589.347V72.7995H590.907V73.5315H588.567V69.5475ZM590.463 72.7995H591.243V77.1675H590.463V72.7995ZM584.403 76.8675H595.359V77.7075H584.403V76.8675ZM590.991 78.4755L591.627 77.8755C592.959 78.4995 594.411 79.3035 595.287 79.9035L594.447 80.5155C593.643 79.9275 592.275 79.1115 590.991 78.4755ZM587.847 77.8995L588.687 78.4395C587.739 79.1835 586.323 79.9995 585.183 80.5035C585.027 80.3235 584.715 80.0355 584.499 79.8675C585.663 79.3875 587.103 78.5595 587.847 77.8995ZM601.251 69.8115H602.247C602.151 71.6955 601.971 77.6835 597.003 80.3835C596.847 80.1555 596.547 79.8795 596.271 79.6755C601.167 77.1795 601.167 71.4075 601.251 69.8115ZM602.211 70.0515C602.247 70.9875 602.595 77.3595 607.539 79.6275C607.275 79.8315 606.999 80.1315 606.855 80.3835C601.767 77.9475 601.431 71.2395 601.347 70.1355L602.211 70.0515ZM615.519 71.6715H619.395V72.5115H615.519V71.6715ZM615.759 69.4395L616.635 69.5715C616.287 71.8515 615.711 74.0595 614.811 75.4875C614.679 75.3315 614.331 75.0075 614.127 74.8635C614.979 73.5555 615.483 71.5155 615.759 69.4395ZM617.883 72.1155L618.735 72.1995C618.243 76.1835 617.187 78.8355 614.583 80.5155C614.499 80.3235 614.235 79.9515 614.079 79.7715C616.515 78.3315 617.475 75.7755 617.883 72.1155ZM615.963 72.4275C616.419 75.7155 617.415 78.5715 619.455 79.7835C619.251 79.9515 618.975 80.2755 618.831 80.4915C616.707 79.0995 615.711 76.1355 615.195 72.5475L615.963 72.4275ZM611.127 69.4395H611.931V75.7395H611.127V69.4395ZM609.939 70.8075V72.8115H613.215V70.8075H609.939ZM609.171 70.1715H614.007V73.4475H609.171V70.1715ZM609.651 74.6115V75.3915H613.491V74.6115H609.651ZM608.871 73.9995H614.295V76.0035H608.871V73.9995ZM608.355 76.7715C609.975 76.7715 612.495 76.7355 614.931 76.6875L614.895 77.3715C612.507 77.4315 610.023 77.4675 608.379 77.4915L608.355 76.7715ZM610.755 75.8115L611.523 75.9915C611.019 76.9635 610.335 78.1635 609.855 78.9435L609.111 78.7275C609.603 77.9595 610.287 76.7355 610.755 75.8115ZM609.795 78.5115L610.239 77.9715C611.643 78.4515 613.119 79.1355 613.995 79.7235L613.419 80.2875C612.591 79.6995 611.187 79.0155 609.795 78.5115ZM612.915 77.0595L613.695 77.1915C613.215 79.1475 611.727 80.0595 608.991 80.5275C608.943 80.2995 608.787 79.9995 608.643 79.8195C611.127 79.5195 612.471 78.7515 612.915 77.0595ZM608.343 71.4555H609.495V71.5035H613.635V71.4555H614.859V72.1515H613.635V72.1035H609.495V72.1515H608.343V71.4555ZM561.199 94.2315C561.199 93.5755 561.259 92.9355 561.379 92.3115C561.507 91.6875 561.703 91.0915 561.967 90.5235C562.231 89.9555 562.563 89.4315 562.963 88.9515H563.959C563.591 89.4475 563.279 89.9835 563.023 90.5595C562.775 91.1355 562.587 91.7315 562.459 92.3475C562.331 92.9635 562.267 93.5875 562.267 94.2195C562.267 94.8355 562.331 95.4475 562.459 96.0555C562.587 96.6635 562.775 97.2475 563.023 97.8075C563.271 98.3755 563.579 98.9115 563.947 99.4155H562.963C562.563 98.9435 562.231 98.4275 561.967 97.8675C561.703 97.3155 561.507 96.7315 561.379 96.1155C561.259 95.4995 561.199 94.8715 561.199 94.2315ZM567.184 92.1795V96.4275H566.332V93.0195H564.856V92.1795H567.184ZM567.184 96.0675C567.748 96.9675 568.816 97.3755 570.244 97.4355C571.6 97.4955 574.42 97.4595 575.896 97.3635C575.788 97.5555 575.644 97.9635 575.608 98.2155C574.24 98.2755 571.624 98.2995 570.256 98.2515C568.66 98.1915 567.568 97.7595 566.812 96.8115C566.296 97.3275 565.756 97.8435 565.18 98.3835L564.712 97.5315C565.228 97.1355 565.864 96.5955 566.416 96.0675H567.184ZM564.916 88.1835L565.612 87.7275C566.32 88.3035 567.124 89.1315 567.46 89.7315L566.704 90.2475C566.392 89.6475 565.612 88.7835 564.916 88.1835ZM568.072 92.5155H575.356V93.2115H568.072V92.5155ZM567.688 94.3635H575.728V95.0715H567.688V94.3635ZM569.848 91.6515H570.712V94.7115H569.848V91.6515ZM572.68 91.6515H573.532V94.7115H572.68V91.6515ZM568.372 89.3235H570.484V88.5435H567.916V87.9195H571.276V89.9595H568.372V89.3235ZM568.12 89.3235H568.888V90.5715C568.888 90.7995 568.948 90.8475 569.332 90.8475C569.5 90.8475 570.412 90.8475 570.64 90.8475C570.928 90.8475 570.988 90.7755 571.024 90.2475C571.168 90.3675 571.468 90.4635 571.684 90.4995C571.6 91.2795 571.372 91.4835 570.76 91.4835C570.568 91.4835 569.428 91.4835 569.248 91.4835C568.36 91.4835 568.12 91.3035 568.12 90.5835V89.3235ZM572.332 89.3235H574.408V88.5435H571.852V87.9195H575.188V89.9595H572.332V89.3235ZM572.068 89.3235H572.836V90.5715C572.836 90.7995 572.908 90.8475 573.316 90.8475C573.508 90.8475 574.492 90.8475 574.732 90.8475C575.032 90.8475 575.092 90.7755 575.128 90.2115C575.284 90.3195 575.584 90.4155 575.8 90.4635C575.716 91.2795 575.488 91.4835 574.84 91.4835C574.648 91.4835 573.424 91.4835 573.232 91.4835C572.32 91.4835 572.068 91.3035 572.068 90.5715V89.3235ZM572.464 95.6115L573.112 95.2155C573.988 95.6355 574.972 96.2235 575.548 96.6675L574.66 97.0635C574.18 96.6195 573.292 96.0435 572.464 95.6115ZM570.268 95.1915L571.06 95.4675C570.448 96.0555 569.476 96.6435 568.672 97.0275C568.54 96.8715 568.204 96.5835 568.012 96.4635C568.828 96.1395 569.728 95.6835 570.268 95.1915ZM580.444 88.4475H587.692V89.2035H580.444V88.4475ZM580.108 95.4555H587.848V96.2235H580.108V95.4555ZM583.6 87.4395H584.476V90.4275H583.6V87.4395ZM582.22 92.0115V92.7795H585.904V92.0115H582.22ZM582.22 93.3795V94.1475H585.904V93.3795H582.22ZM582.22 90.6795V91.4235H585.904V90.6795H582.22ZM581.392 90.0555H586.768V94.7715H581.392V90.0555ZM584.692 96.8355L585.316 96.3795C586.264 96.8955 587.308 97.5435 587.932 98.0355L587.104 98.4915C586.552 98.0115 585.592 97.3515 584.692 96.8355ZM582.484 96.4155L583.324 96.7035C582.58 97.4115 581.416 98.0835 580.432 98.5035C580.288 98.3355 579.952 98.0115 579.76 97.8675C580.756 97.5195 581.836 96.9795 582.484 96.4155ZM576.94 90.3795H580.48V91.2315H576.94V90.3795ZM578.344 87.5955H579.196V95.4195H578.344V87.5955ZM576.712 95.6715C577.684 95.3115 579.148 94.6875 580.564 94.0875L580.768 94.9275C579.496 95.5155 578.116 96.1155 577.06 96.5715L576.712 95.6715ZM594.554 94.2315C594.554 94.8715 594.49 95.4995 594.362 96.1155C594.242 96.7315 594.05 97.3155 593.786 97.8675C593.53 98.4275 593.198 98.9435 592.79 99.4155H591.806C592.174 98.9115 592.482 98.3755 592.73 97.8075C592.978 97.2475 593.166 96.6635 593.294 96.0555C593.422 95.4475 593.486 94.8355 593.486 94.2195C593.486 93.5875 593.422 92.9635 593.294 92.3475C593.166 91.7315 592.978 91.1355 592.73 90.5595C592.482 89.9835 592.17 89.4475 591.794 88.9515H592.79C593.198 89.4315 593.53 89.9555 593.786 90.5235C594.05 91.0915 594.242 91.6875 594.362 92.3115C594.49 92.9355 594.554 93.5755 594.554 94.2315Z" fill="black" fill-opacity="0.8"/>
<path d="M371.342 73.7852C371.066 73.7852 370.842 74.009 370.842 74.2852C370.842 74.5613 371.066 74.7852 371.342 74.7852V73.7852ZM390.805 74.6387C391 74.4434 391 74.1269 390.805 73.9316L387.623 70.7496C387.428 70.5544 387.111 70.5544 386.916 70.7496C386.721 70.9449 386.721 71.2615 386.916 71.4567L389.744 74.2852L386.916 77.1136C386.721 77.3088 386.721 77.6254 386.916 77.8207C387.111 78.016 387.428 78.016 387.623 77.8207L390.805 74.6387ZM371.342 74.7852H390.451V73.7852H371.342V74.7852Z" fill="#B3B3B3"/>
<path d="M502.662 73.7852C502.386 73.7852 502.162 74.009 502.162 74.2852C502.162 74.5613 502.386 74.7852 502.662 74.7852V73.7852ZM522.123 74.6387C522.318 74.4434 522.318 74.1269 522.123 73.9316L518.941 70.7496C518.746 70.5544 518.429 70.5544 518.234 70.7496C518.039 70.9449 518.039 71.2615 518.234 71.4567L521.063 74.2852L518.234 77.1136C518.039 77.3088 518.039 77.6254 518.234 77.8207C518.429 78.016 518.746 78.016 518.941 77.8207L522.123 74.6387ZM502.662 74.7852H521.77V73.7852H502.662V74.7852Z" fill="#B3B3B3"/>
<rect x="657.092" y="34.5195" width="104.211" height="79.532" rx="3" fill="#75AEC7" fill-opacity="0.3" stroke="#75AEC7" stroke-linecap="round"/>
<path d="M693.432 61.7715H701.136V62.6115H693.432V61.7715ZM694.62 64.5435V66.3435H699.864V64.5435H694.62ZM693.792 63.7755H700.74V67.1115H693.792V63.7755ZM694.536 67.3515C695.664 69.2355 698.124 70.3515 701.244 70.6995C701.052 70.8915 700.824 71.2515 700.704 71.5035C697.524 71.0475 695.064 69.7995 693.792 67.6035L694.536 67.3515ZM696.768 60.4875H697.656V65.8035C697.656 68.1195 697.26 70.4235 693.54 71.5275C693.432 71.3235 693.18 70.9635 693 70.7715C696.564 69.8715 696.768 67.8195 696.768 65.7915V60.4875ZM692.916 60.4155L693.768 60.6795C692.952 62.7075 691.668 64.7235 690.336 66.0555C690.252 65.8515 690 65.3835 689.832 65.1675C691.044 64.0275 692.22 62.2395 692.916 60.4155ZM691.656 63.5595L692.508 62.7075L692.52 62.7195V71.5395H691.656V63.5595ZM703.932 61.2915H711.696V62.1555H703.932V61.2915ZM703.932 64.0875H711.684V64.9395H703.932V64.0875ZM703.872 66.9555H711.708V67.8075H703.872V66.9555ZM703.428 61.2915H704.316V65.6475C704.316 67.4715 704.1 69.9555 702.672 71.5515C702.528 71.3715 702.168 71.0715 701.976 70.9515C703.296 69.4635 703.428 67.3275 703.428 65.6355V61.2915ZM711.336 61.2915H712.224V70.2555C712.224 70.8435 712.08 71.1195 711.684 71.2755C711.276 71.4195 710.58 71.4315 709.44 71.4195C709.404 71.1795 709.26 70.7835 709.128 70.5435C709.98 70.5795 710.796 70.5675 711.024 70.5675C711.252 70.5555 711.336 70.4835 711.336 70.2555V61.2915ZM707.196 61.6155H708.108V71.3715H707.196V61.6155ZM714.24 64.3035H724.932V65.1075H714.24V64.3035ZM715.296 61.9515H722.244V62.7555H715.296V61.9515ZM717.24 68.3235H722.892V69.0435H717.24V68.3235ZM717.24 70.3155H722.892V71.0955H717.24V70.3155ZM718.38 60.4395H719.256V64.7355H718.38V60.4395ZM723.636 60.8595L724.404 61.2675C721.992 64.4235 718.38 66.7875 714.54 68.2635C714.432 68.0595 714.144 67.6875 713.964 67.5075C717.84 66.1635 721.416 63.8355 723.636 60.8595ZM716.748 66.3795H723.468V71.4435H722.532V67.1355H717.648V71.4915H716.748V66.3795ZM726.456 69.8715C726.456 69.5755 726.528 69.3675 726.672 69.2475C726.816 69.1275 726.988 69.0675 727.188 69.0675C727.396 69.0675 727.572 69.1275 727.716 69.2475C727.868 69.3675 727.944 69.5755 727.944 69.8715C727.944 70.1595 727.868 70.3675 727.716 70.4955C727.572 70.6235 727.396 70.6875 727.188 70.6875C726.988 70.6875 726.816 70.6235 726.672 70.4955C726.528 70.3675 726.456 70.1595 726.456 69.8715ZM726.456 64.7355C726.456 64.4315 726.528 64.2195 726.672 64.0995C726.816 63.9795 726.988 63.9195 727.188 63.9195C727.396 63.9195 727.572 63.9795 727.716 64.0995C727.868 64.2195 727.944 64.4315 727.944 64.7355C727.944 65.0235 727.868 65.2315 727.716 65.3595C727.572 65.4875 727.396 65.5515 727.188 65.5515C726.988 65.5515 726.816 65.4875 726.672 65.3595C726.528 65.2315 726.456 65.0235 726.456 64.7355ZM691.533 84.1515H696.249V89.4315H695.385V84.9795H692.361V89.4795H691.533V84.1515ZM693.273 78.4635H694.161V84.4155H693.273V78.4635ZM693.789 81.0675H696.729V81.9075H693.789V81.0675ZM691.965 88.0875H695.805V88.9155H691.965V88.0875ZM686.829 79.5435V82.4475H690.129V79.5435H686.829ZM686.121 78.8835H690.861V83.1075H686.121V78.8835ZM686.997 80.1315L687.453 80.0115C687.657 80.5995 687.813 81.3555 687.849 81.8355L687.381 81.9795C687.357 81.4755 687.201 80.7195 686.997 80.1315ZM687.405 87.0075L687.993 86.9235C688.185 87.5835 688.305 88.4475 688.317 89.0115L687.693 89.0955C687.693 88.5315 687.573 87.6675 687.405 87.0075ZM688.557 86.9355L689.133 86.8155C689.409 87.4155 689.673 88.2195 689.757 88.7475L689.145 88.8795C689.073 88.3515 688.821 87.5475 688.557 86.9355ZM689.697 86.7675L690.261 86.5515C690.693 87.1035 691.125 87.8475 691.305 88.3395L690.705 88.6155C690.525 88.0995 690.105 87.3315 689.697 86.7675ZM686.385 86.9595L687.021 87.1275C686.901 88.0155 686.709 88.9515 686.193 89.4915L685.581 89.1555C686.049 88.6635 686.277 87.7875 686.385 86.9595ZM689.457 79.9755L689.985 80.1795C689.769 80.7915 689.529 81.5715 689.325 82.0515L688.929 81.8955C689.109 81.3795 689.349 80.5275 689.457 79.9755ZM685.773 85.6875C687.105 85.6275 689.145 85.5315 691.137 85.4115L691.113 86.1315C689.193 86.2755 687.201 86.3955 685.821 86.4795L685.773 85.6875ZM686.037 83.9235H690.945V84.6555H686.037V83.9235ZM688.137 79.1955H688.749V82.7955H688.845V85.8915H688.041V82.7955H688.137V79.1955ZM698.649 85.8315H707.841V86.4435H698.649V85.8315ZM697.917 87.0915H708.513V87.7275H697.917V87.0915ZM702.741 84.7755H703.641V88.6035C703.641 89.0715 703.509 89.2635 703.137 89.3835C702.765 89.4915 702.165 89.4915 701.181 89.4915C701.133 89.2875 701.001 88.9995 700.893 88.7955C701.601 88.8195 702.297 88.8195 702.489 88.8075C702.681 88.7955 702.741 88.7475 702.741 88.5795V84.7755ZM706.185 84.2835L706.809 84.7875C704.901 85.1715 701.733 85.3035 699.165 85.2915C699.153 85.1475 699.069 84.8835 698.997 84.7395C701.505 84.7275 704.625 84.5955 706.185 84.2835ZM697.941 79.0395H703.113V79.5795H697.941V79.0395ZM697.785 82.4475H703.185V82.9635H697.785V82.4475ZM698.973 81.2115V81.6435H702.069V81.2115H698.973ZM698.973 80.3955V80.8035H702.069V80.3955H698.973ZM698.325 79.9755H702.729V82.0635H698.325V79.9755ZM700.125 78.4515H700.857V84.1515H700.125V78.4515ZM703.389 81.4035H707.517V82.0275H703.389V81.4035ZM704.469 78.8235H706.725V79.4715H704.469V78.8235ZM707.205 81.4035H707.361L707.517 81.3795L707.949 81.5235C707.253 83.3115 705.501 84.0555 703.437 84.4035C703.377 84.2115 703.233 83.9355 703.089 83.7795C704.961 83.5515 706.629 82.9035 707.205 81.4995V81.4035ZM704.577 81.9675C705.273 83.0835 706.845 83.8035 708.753 84.0555C708.585 84.2115 708.369 84.5115 708.273 84.7035C706.305 84.3675 704.685 83.5035 703.905 82.1715L704.577 81.9675ZM704.025 78.8235H704.793V79.5435C704.793 80.1915 704.577 80.9115 703.629 81.4155C703.521 81.2475 703.209 80.9475 703.053 80.8515C703.881 80.4555 704.025 79.9755 704.025 79.5315V78.8235ZM706.305 78.8235H707.085V80.0475C707.085 80.2155 707.097 80.3235 707.133 80.3595C707.181 80.3835 707.229 80.3955 707.313 80.3955C707.385 80.3955 707.541 80.3955 707.637 80.3955C707.721 80.3955 707.829 80.3835 707.865 80.3715C707.913 80.3475 707.961 80.3115 707.985 80.2155C708.021 80.1315 708.033 79.9155 708.045 79.6275C708.177 79.7595 708.417 79.8795 708.609 79.9275C708.597 80.2395 708.549 80.5755 708.489 80.7075C708.417 80.8395 708.309 80.9355 708.177 80.9835C708.057 81.0315 707.841 81.0555 707.673 81.0555C707.553 81.0555 707.241 81.0555 707.121 81.0555C706.917 81.0555 706.653 80.9955 706.509 80.8635C706.353 80.7315 706.305 80.5395 706.305 80.0115V78.8235ZM698.409 83.0835H699.069V83.7555H701.985V83.0835H702.681V84.2955H698.409V83.0835ZM715.857 78.8835L716.517 79.4835C715.905 79.8435 715.113 80.1555 714.441 80.3715C714.393 80.2035 714.273 79.9395 714.165 79.7595C714.777 79.5315 715.461 79.1955 715.857 78.8835ZM713.997 79.5075L714.789 79.7595V83.6235H713.997V79.5075ZM713.997 83.2155H719.421V80.1675H717.897V79.4355H720.237V83.9595H713.997V83.2155ZM714.345 81.3315H716.097V82.0155H714.345V81.3315ZM717.945 81.3315H719.781V82.0155H717.945V81.3315ZM716.637 78.4515H717.453V85.2195H716.637V78.4515ZM713.673 85.0515H719.565V85.8195H713.673V85.0515ZM719.313 85.0515H719.481L719.637 85.0155L720.201 85.2915C719.061 87.8475 716.325 89.0235 713.385 89.5035C713.313 89.2755 713.145 88.9275 712.989 88.7355C715.737 88.3755 718.365 87.3195 719.313 85.1835V85.0515ZM715.245 85.7355C716.217 87.3435 718.317 88.3755 720.837 88.7715C720.633 88.9635 720.393 89.3115 720.273 89.5635C717.693 89.0715 715.581 87.8955 714.453 86.0355L715.245 85.7355ZM709.533 84.8235C710.565 84.5595 712.101 84.1035 713.589 83.6715L713.697 84.4875C712.329 84.9195 710.889 85.3755 709.773 85.6995L709.533 84.8235ZM709.689 80.8635H713.577V81.7035H709.689V80.8635ZM711.357 78.4515H712.233V88.4475C712.233 88.9395 712.113 89.1915 711.801 89.3235C711.489 89.4675 711.009 89.4915 710.205 89.4795C710.181 89.2635 710.049 88.9035 709.941 88.6635C710.481 88.6755 710.985 88.6755 711.129 88.6755C711.297 88.6755 711.357 88.6155 711.357 88.4475V78.4515ZM723.141 78.9315H731.049V82.2675H723.069V81.6195H730.161V79.5675H723.141V78.9315ZM728.289 83.5155V84.6795H731.049V83.5155H728.289ZM727.437 82.8675H731.925V85.3155H727.437V82.8675ZM723.429 80.2875H730.545V80.8995H723.429V80.2875ZM722.217 82.8675H726.609V83.5515H722.217V82.8675ZM721.749 86.0955H732.645V86.8515H721.749V86.0955ZM729.273 85.3035H730.161V88.4955C730.161 88.9875 730.053 89.2275 729.657 89.3475C729.261 89.4795 728.625 89.4915 727.593 89.4915C727.557 89.2515 727.413 88.9275 727.293 88.6875C728.097 88.7115 728.805 88.7115 729.009 88.6995C729.225 88.6875 729.273 88.6395 729.273 88.4835V85.3035ZM723.969 83.1195H724.809V84.8955H723.969V83.1195ZM721.977 84.8715C723.201 84.7995 725.037 84.6675 726.849 84.5355V85.2195C725.121 85.3635 723.333 85.4955 722.061 85.5915L721.977 84.8715ZM723.741 87.2955L724.353 86.7795C725.061 87.1635 725.889 87.7755 726.297 88.2315L725.649 88.8195C725.265 88.3515 724.449 87.7155 723.741 87.2955Z" fill="black" fill-opacity="0.8"/>
<path d="M633.98 73.7852C633.704 73.7852 633.48 74.009 633.48 74.2852C633.48 74.5613 633.704 74.7852 633.98 74.7852V73.7852ZM653.446 74.6387C653.641 74.4434 653.641 74.1269 653.446 73.9316L650.264 70.7496C650.068 70.5544 649.752 70.5544 649.556 70.7496C649.361 70.9449 649.361 71.2615 649.556 71.4567L652.385 74.2852L649.556 77.1136C649.361 77.3088 649.361 77.6254 649.556 77.8207C649.752 78.016 650.068 78.016 650.264 77.8207L653.446 74.6387ZM633.98 74.7852H653.092V73.7852H633.98V74.7852Z" fill="#B3B3B3"/>
<rect x="788.412" y="34.5195" width="104.211" height="79.532" rx="3" fill="#75AEC7" fill-opacity="0.3" stroke="#75AEC7" stroke-linecap="round"/>
<path d="M830.128 59.2275L831.052 59.5755C830.284 60.5595 829.144 61.5795 828.172 62.2395C827.992 62.0595 827.608 61.7595 827.368 61.6155C828.376 61.0395 829.456 60.1155 830.128 59.2275ZM834.604 59.6835L835.336 59.1795C836.356 59.9115 837.676 60.9675 838.336 61.6515L837.544 62.2155C836.932 61.5315 835.648 60.4395 834.604 59.6835ZM828.46 54.9075L829.084 54.3555C830.164 54.9555 831.52 55.8915 832.18 56.5755L831.52 57.2235C830.896 56.5395 829.564 55.5555 828.46 54.9075ZM834.736 56.4435L835.456 55.9755C836.512 56.8155 837.796 58.0275 838.42 58.8555L837.616 59.3835C837.052 58.5675 835.792 57.3195 834.736 56.4435ZM832.408 58.1235H833.356V62.4915H832.408V58.1235ZM827.572 57.7755C829.9 57.7635 833.668 57.6915 837.148 57.6195L837.1 58.4235C833.68 58.5435 830.044 58.6275 827.668 58.6755L827.572 57.7755ZM834.916 53.4195L835.78 53.8755C834.316 55.4355 832.24 57.2475 830.656 58.3755L829.96 57.9195C831.568 56.7915 833.656 54.8835 834.916 53.4195ZM831.808 52.6035L832.672 53.0475C831.964 53.9115 831.016 54.9075 830.284 55.5435L829.576 55.1475C830.296 54.4995 831.256 53.4075 831.808 52.6035ZM836.812 51.6195L837.472 52.3875C835.036 52.8555 831.292 53.1075 828.172 53.1795C828.148 52.9515 828.04 52.5915 827.956 52.3755C831.052 52.2795 834.748 52.0275 836.812 51.6195ZM846.412 51.4395H847.324V53.3835H846.412V51.4395ZM845.728 53.5635L846.688 53.8395C846.292 54.7635 845.812 55.8795 845.416 56.5755L844.66 56.3235C845.044 55.6035 845.5 54.4035 845.728 53.5635ZM847.78 54.6795L848.476 54.3075C849.232 55.1475 850.072 56.3115 850.432 57.0675L849.676 57.4995C849.328 56.7435 848.524 55.5555 847.78 54.6795ZM843.676 53.0355H850.24V53.8515H843.676V53.0355ZM843.724 56.1075C845.128 56.0475 847.276 55.9155 849.352 55.7715L849.34 56.5635C847.348 56.7075 845.26 56.8515 843.808 56.9475L843.724 56.1075ZM847.504 57.3795H848.356V61.2555C848.356 61.5555 848.404 61.5915 848.656 61.5915C848.776 61.5915 849.328 61.5915 849.484 61.5915C849.724 61.5915 849.772 61.3995 849.808 60.0795C849.988 60.2355 850.348 60.3795 850.576 60.4275C850.504 61.9995 850.288 62.4075 849.568 62.4075C849.4 62.4075 848.692 62.4075 848.524 62.4075C847.708 62.4075 847.504 62.1435 847.504 61.2555V57.3795ZM841.252 51.4515L842.044 51.7635C841.588 52.6395 841.024 53.7075 840.556 54.3675L839.932 54.0795C840.388 53.3955 840.94 52.2435 841.252 51.4515ZM842.596 52.8195L843.352 53.1555C842.536 54.5355 841.384 56.2755 840.496 57.3315L839.944 57.0195C840.832 55.9395 841.96 54.1155 842.596 52.8195ZM839.356 53.9715L839.812 53.3835C840.484 53.9475 841.24 54.7275 841.564 55.2675L841.084 55.9515C840.76 55.3875 840.004 54.5475 839.356 53.9715ZM842.176 55.6035L842.8 55.3515C843.292 56.1195 843.772 57.1515 843.94 57.8115L843.268 58.1235C843.1 57.4515 842.656 56.3955 842.176 55.6035ZM839.32 56.8275C840.364 56.7915 841.864 56.7315 843.388 56.6475L843.376 57.3915C841.936 57.4875 840.484 57.5715 839.392 57.6435L839.32 56.8275ZM842.488 58.4355L843.136 58.2315C843.472 58.9035 843.796 59.8155 843.916 60.4155L843.22 60.6555C843.112 60.0555 842.788 59.1315 842.488 58.4355ZM839.992 58.3035L840.772 58.4475C840.604 59.5755 840.304 60.7395 839.92 61.5075C839.764 61.4115 839.404 61.2435 839.212 61.1595C839.608 60.4275 839.848 59.3595 839.992 58.3035ZM841.288 57.1635H842.092V62.5155H841.288V57.1635ZM845.284 57.3915H846.148C846.04 60.0195 845.644 61.6395 843.508 62.5275C843.4 62.3235 843.16 62.0235 842.98 61.8675C844.9 61.1115 845.188 59.7195 845.284 57.3915ZM851.776 60.8715C851.776 60.5755 851.848 60.3675 851.992 60.2475C852.136 60.1275 852.308 60.0675 852.508 60.0675C852.716 60.0675 852.892 60.1275 853.036 60.2475C853.188 60.3675 853.264 60.5755 853.264 60.8715C853.264 61.1595 853.188 61.3675 853.036 61.4955C852.892 61.6235 852.716 61.6875 852.508 61.6875C852.308 61.6875 852.136 61.6235 851.992 61.4955C851.848 61.3675 851.776 61.1595 851.776 60.8715ZM851.776 55.7355C851.776 55.4315 851.848 55.2195 851.992 55.0995C852.136 54.9795 852.308 54.9195 852.508 54.9195C852.716 54.9195 852.892 54.9795 853.036 55.0995C853.188 55.2195 853.264 55.4315 853.264 55.7355C853.264 56.0235 853.188 56.2315 853.036 56.3595C852.892 56.4875 852.716 56.5515 852.508 56.5515C852.308 56.5515 852.136 56.4875 851.992 56.3595C851.848 56.2315 851.776 56.0235 851.776 55.7355ZM806.33 73.3875L807.026 73.6275C806.702 74.2035 806.318 74.8515 806.018 75.2835L805.478 75.0795C805.778 74.6235 806.138 73.8795 806.33 73.3875ZM807.338 74.3475L807.998 74.6595C807.386 75.5475 806.618 76.6395 805.994 77.3115L805.502 77.0475C806.126 76.3515 806.906 75.1635 807.338 74.3475ZM806.354 72.0795V72.9435H809.738V72.0795H806.354ZM806.354 70.6395V71.4915H809.738V70.6395H806.354ZM805.562 70.0275H810.53V73.5675H805.562V70.0275ZM805.034 74.9355L805.394 74.4315C805.934 74.7915 806.522 75.3195 806.81 75.6795L806.414 76.2435C806.126 75.8715 805.55 75.3075 805.034 74.9355ZM807.038 76.1715L807.542 75.9795C807.806 76.4955 808.034 77.1555 808.118 77.5875L807.566 77.8035C807.494 77.3595 807.266 76.6875 807.038 76.1715ZM806.894 78.2475L807.518 78.1635C807.65 78.7755 807.758 79.5675 807.794 80.0835L807.122 80.1915C807.11 79.6635 807.014 78.8715 806.894 78.2475ZM808.142 78.1635L808.73 78.0075C808.97 78.5595 809.198 79.2675 809.282 79.7355L808.67 79.9035C808.586 79.4475 808.37 78.7155 808.142 78.1635ZM809.342 78.0075L809.906 77.7795C810.23 78.2235 810.578 78.8115 810.746 79.1955L810.158 79.4715C810.002 79.0755 809.654 78.4515 809.342 78.0075ZM805.778 78.0195L806.426 78.2355C806.282 79.0155 806.018 79.9035 805.502 80.4435L804.878 80.0595C805.334 79.5915 805.634 78.7515 805.778 78.0195ZM804.998 76.9155C805.742 76.9035 806.714 76.8555 807.77 76.8195L807.758 77.4315C806.774 77.5035 805.85 77.5515 805.058 77.5995L804.998 76.9155ZM809.006 73.3875L809.714 73.6275C809.378 74.2035 809.006 74.8515 808.706 75.2835L808.166 75.0795C808.454 74.6235 808.826 73.8795 809.006 73.3875ZM810.05 74.3235L810.698 74.6355C810.086 75.5235 809.294 76.6155 808.658 77.2995L808.178 77.0235C808.802 76.3275 809.594 75.1515 810.05 74.3235ZM807.746 74.9475L808.106 74.4435C808.634 74.8035 809.21 75.3195 809.498 75.6795L809.102 76.2435C808.826 75.8835 808.25 75.3315 807.746 74.9475ZM809.762 76.1475L810.29 75.9315C810.602 76.4595 810.914 77.1555 811.034 77.6115L810.458 77.8755C810.35 77.3955 810.062 76.6875 809.762 76.1475ZM807.998 76.9275C808.694 76.9035 809.582 76.8555 810.542 76.7955V77.4315C809.666 77.4915 808.826 77.5635 808.094 77.6115L807.998 76.9275ZM811.034 70.0155H815.87V70.7955H811.034V70.0155ZM812.138 74.4675V75.6195H814.862V74.4675H812.138ZM812.138 76.3035V77.4795H814.862V76.3035H812.138ZM812.138 72.6315V73.7715H814.862V72.6315H812.138ZM811.37 71.9235H815.642V78.1875H811.37V71.9235ZM813.014 70.3755L813.962 70.5075C813.794 71.1795 813.638 71.9355 813.494 72.4395L812.762 72.2955C812.87 71.7555 812.978 70.9395 813.014 70.3755ZM812.426 78.4875L813.194 78.9195C812.642 79.5075 811.766 80.1435 811.034 80.5155C810.902 80.3475 810.626 80.1075 810.434 79.9515C811.178 79.6035 812.018 78.9915 812.426 78.4875ZM813.914 78.9315L814.574 78.5235C815.126 78.9555 815.822 79.6035 816.182 80.0475L815.486 80.5035C815.162 80.0715 814.478 79.3995 813.914 78.9315ZM822.038 73.7235H823.01V79.3155C823.01 79.8915 822.866 80.1675 822.446 80.3235C822.014 80.4555 821.306 80.4675 820.25 80.4675C820.202 80.2035 820.058 79.8075 819.914 79.5315C820.73 79.5555 821.522 79.5555 821.75 79.5435C821.978 79.5435 822.038 79.4835 822.038 79.2915V73.7235ZM819.314 75.3195L820.25 75.5595C819.662 77.0355 818.714 78.4755 817.754 79.3995C817.574 79.2315 817.166 78.9795 816.926 78.8475C817.91 77.9955 818.798 76.6755 819.314 75.3195ZM824.714 75.6795L825.542 75.3315C826.43 76.4595 827.366 77.9835 827.714 79.0035L826.814 79.3995C826.49 78.4035 825.59 76.8315 824.714 75.6795ZM818.306 70.3395H826.742V71.2275H818.306V70.3395ZM817.226 73.2435H827.81V74.1435H817.226V73.2435ZM835.178 69.8835L835.838 70.4835C835.226 70.8435 834.434 71.1555 833.762 71.3715C833.714 71.2035 833.594 70.9395 833.486 70.7595C834.098 70.5315 834.782 70.1955 835.178 69.8835ZM833.318 70.5075L834.11 70.7595V74.6235H833.318V70.5075ZM833.318 74.2155H838.742V71.1675H837.218V70.4355H839.558V74.9595H833.318V74.2155ZM833.666 72.3315H835.418V73.0155H833.666V72.3315ZM837.266 72.3315H839.102V73.0155H837.266V72.3315ZM835.958 69.4515H836.774V76.2195H835.958V69.4515ZM832.994 76.0515H838.886V76.8195H832.994V76.0515ZM838.634 76.0515H838.802L838.958 76.0155L839.522 76.2915C838.382 78.8475 835.646 80.0235 832.706 80.5035C832.634 80.2755 832.466 79.9275 832.31 79.7355C835.058 79.3755 837.686 78.3195 838.634 76.1835V76.0515ZM834.566 76.7355C835.538 78.3435 837.638 79.3755 840.158 79.7715C839.954 79.9635 839.714 80.3115 839.594 80.5635C837.014 80.0715 834.902 78.8955 833.774 77.0355L834.566 76.7355ZM828.854 75.8235C829.886 75.5595 831.422 75.1035 832.91 74.6715L833.018 75.4875C831.65 75.9195 830.21 76.3755 829.094 76.6995L828.854 75.8235ZM829.01 71.8635H832.898V72.7035H829.01V71.8635ZM830.678 69.4515H831.554V79.4475C831.554 79.9395 831.434 80.1915 831.122 80.3235C830.81 80.4675 830.33 80.4915 829.526 80.4795C829.502 80.2635 829.37 79.9035 829.262 79.6635C829.802 79.6755 830.306 79.6755 830.45 79.6755C830.618 79.6755 830.678 79.6155 830.678 79.4475V69.4515ZM842.462 69.9315H850.37V73.2675H842.39V72.6195H849.482V70.5675H842.462V69.9315ZM847.61 74.5155V75.6795H850.37V74.5155H847.61ZM846.758 73.8675H851.246V76.3155H846.758V73.8675ZM842.75 71.2875H849.866V71.8995H842.75V71.2875ZM841.538 73.8675H845.93V74.5515H841.538V73.8675ZM841.07 77.0955H851.966V77.8515H841.07V77.0955ZM848.594 76.3035H849.482V79.4955C849.482 79.9875 849.374 80.2275 848.978 80.3475C848.582 80.4795 847.946 80.4915 846.914 80.4915C846.878 80.2515 846.734 79.9275 846.614 79.6875C847.418 79.7115 848.126 79.7115 848.33 79.6995C848.546 79.6875 848.594 79.6395 848.594 79.4835V76.3035ZM843.29 74.1195H844.13V75.8955H843.29V74.1195ZM841.298 75.8715C842.522 75.7995 844.358 75.6675 846.17 75.5355V76.2195C844.442 76.3635 842.654 76.4955 841.382 76.5915L841.298 75.8715ZM843.062 78.2955L843.674 77.7795C844.382 78.1635 845.21 78.7755 845.618 79.2315L844.97 79.8195C844.586 79.3515 843.77 78.7155 843.062 78.2955ZM860.27 69.4395H861.17V74.1555H860.27V69.4395ZM858.71 79.0515H862.994V79.8795H858.71V79.0515ZM857.486 71.1435H864.038V71.9715H857.486V71.1435ZM857.87 73.7715H863.774V74.5995H857.87V73.7715ZM858.254 75.9075H863.438V80.4435H862.562V76.7235H859.094V80.4675H858.254V75.9075ZM854.858 69.4515L855.662 69.7515C855.206 70.6395 854.63 71.7075 854.162 72.3555L853.538 72.0915C853.994 71.3955 854.546 70.2435 854.858 69.4515ZM856.31 70.8195L857.09 71.1555C856.25 72.4995 855.074 74.2275 854.162 75.2595L853.586 74.9595C854.51 73.8915 855.65 72.0915 856.31 70.8195ZM852.962 71.9715L853.418 71.3715C854.09 71.9355 854.846 72.7275 855.17 73.2555L854.69 73.9395C854.366 73.3755 853.61 72.5475 852.962 71.9715ZM855.926 73.6035L856.598 73.3155C857.102 74.0835 857.618 75.1155 857.798 75.7755L857.078 76.1115C856.898 75.4395 856.418 74.3955 855.926 73.6035ZM852.938 74.8155C854.018 74.7795 855.578 74.7195 857.138 74.6475L857.126 75.3795C855.638 75.4755 854.126 75.5715 853.01 75.6195L852.938 74.8155ZM856.226 76.4715L856.91 76.2555C857.258 76.9875 857.594 77.9355 857.726 78.5595L856.994 78.8115C856.886 78.1875 856.562 77.2155 856.226 76.4715ZM853.598 76.3035L854.378 76.4475C854.21 77.5755 853.91 78.7395 853.526 79.5075C853.37 79.4115 853.01 79.2435 852.818 79.1595C853.214 78.4275 853.454 77.3595 853.598 76.3035ZM854.978 75.1635H855.794V80.5155H854.978V75.1635ZM865.25 75.8115H875.786V76.6515H865.25V75.8115ZM870.038 70.3155H870.986V80.4795H870.038V70.3155ZM869.714 76.1715L870.47 76.4955C869.354 78.0315 867.362 79.3995 865.562 80.0835C865.43 79.8675 865.142 79.5315 864.95 79.3515C866.726 78.7635 868.706 77.4915 869.714 76.1715ZM871.262 76.1355C872.306 77.4195 874.346 78.6915 876.098 79.2795C875.894 79.4595 875.618 79.8075 875.474 80.0355C873.734 79.3395 871.694 77.9355 870.542 76.4595L871.262 76.1355ZM867.338 72.7635V74.0235H873.722V72.7635H867.338ZM867.338 70.7955V72.0315H873.722V70.7955H867.338ZM866.414 70.0275H874.682V74.7915H866.414V70.0275ZM798.283 94.2315C798.283 93.5755 798.343 92.9355 798.463 92.3115C798.591 91.6875 798.787 91.0915 799.051 90.5235C799.315 89.9555 799.647 89.4315 800.047 88.9515H801.043C800.675 89.4475 800.363 89.9835 800.107 90.5595C799.859 91.1355 799.671 91.7315 799.543 92.3475C799.415 92.9635 799.351 93.5875 799.351 94.2195C799.351 94.8355 799.415 95.4475 799.543 96.0555C799.671 96.6635 799.859 97.2475 800.107 97.8075C800.355 98.3755 800.663 98.9115 801.031 99.4155H800.047C799.647 98.9435 799.315 98.4275 799.051 97.8675C798.787 97.3155 798.591 96.7315 798.463 96.1155C798.343 95.4995 798.283 94.8715 798.283 94.2315ZM806.354 89.7195H807.23V92.4075C807.23 94.1715 807.014 96.6315 805.622 98.2635C805.466 98.1075 805.082 97.8555 804.866 97.7595C806.198 96.1995 806.354 94.0155 806.354 92.3955V89.7195ZM806.798 89.7195H814.862V92.3115H806.798V91.6155H813.974V90.4155H806.798V89.7195ZM805.49 88.0875H815.57V88.9035H805.49V88.0875ZM806.75 93.3555H815.87V94.0995H806.75V93.3555ZM809.954 95.0595H814.034V95.7795H809.954V95.0595ZM810.494 92.2155H811.382V93.7275H810.494V92.2155ZM813.806 95.0595H814.706C814.706 95.0595 814.694 95.2995 814.67 95.4195C814.514 97.1955 814.346 97.9395 814.034 98.2395C813.83 98.4435 813.578 98.5155 813.242 98.5275C812.918 98.5515 812.27 98.5515 811.61 98.5035C811.586 98.2755 811.502 97.9635 811.37 97.7475C812.006 97.8075 812.642 97.8195 812.87 97.8195C813.086 97.8195 813.206 97.7955 813.314 97.6995C813.518 97.5075 813.662 96.8475 813.806 95.1795V95.0595ZM809.774 93.7275H810.662C810.434 96.0435 809.786 97.6755 807.014 98.5155C806.93 98.3115 806.69 97.9875 806.51 97.8195C809.054 97.1235 809.57 95.6955 809.774 93.7275ZM820.874 88.0275H827.918V88.8555H820.874V88.0275ZM820.574 88.0275H821.45V91.3275C821.45 93.4155 821.246 96.4275 819.83 98.4435C819.662 98.2875 819.29 98.0475 819.074 97.9635C820.442 96.0315 820.574 93.3075 820.574 91.3275V88.0275ZM822.962 92.5635V93.6195H826.622V92.5635H822.962ZM822.962 90.8595V91.9035H826.622V90.8595H822.962ZM822.146 90.1635H827.462V94.3155H822.146V90.1635ZM822.566 94.9875L823.382 95.1795C823.01 96.1515 822.41 97.1475 821.822 97.7955C821.654 97.6635 821.306 97.4355 821.114 97.3275C821.702 96.7155 822.242 95.8515 822.566 94.9875ZM825.962 95.2035L826.742 94.8795C827.294 95.6235 827.918 96.6195 828.158 97.2795L827.342 97.6515C827.114 96.9915 826.526 95.9595 825.962 95.2035ZM824.354 88.6755L825.326 88.8675C825.146 89.4915 824.954 90.1875 824.786 90.6435L823.994 90.4515C824.126 89.9595 824.294 89.1915 824.354 88.6755ZM824.306 94.0395H825.158V97.5435C825.158 97.9875 825.086 98.2275 824.75 98.3475C824.426 98.4795 823.91 98.4915 823.106 98.4795C823.07 98.2515 822.962 97.9275 822.854 97.6995C823.43 97.7235 823.946 97.7115 824.102 97.7115C824.258 97.6995 824.306 97.6635 824.306 97.5315V94.0395ZM817.55 88.2075L818.066 87.5595C818.786 87.8955 819.662 88.4355 820.082 88.8555L819.542 89.5755C819.134 89.1435 818.27 88.5675 817.55 88.2075ZM816.962 91.4475L817.478 90.7755C818.198 91.0875 819.074 91.5915 819.518 91.9875L818.99 92.7195C818.57 92.3115 817.694 91.7715 816.962 91.4475ZM817.214 97.8075C817.754 96.8715 818.498 95.2875 819.038 93.9315L819.77 94.4355C819.266 95.7075 818.594 97.1955 818.018 98.3115L817.214 97.8075ZM829.142 91.8675H839.906V92.7555H829.142V91.8675ZM834.35 89.1675H838.61V90.0435H834.35V89.1675ZM833.81 87.4395H834.746V92.2875H833.81V87.4395ZM833.81 92.4675H834.746V98.4795H833.81V92.4675ZM834.482 94.4715L834.926 93.7515C836.246 94.0995 838.07 94.6995 839.042 95.1675L838.574 95.9715C837.65 95.5155 835.838 94.8555 834.482 94.4715ZM843.146 90.5475H851.354V91.4835H843.146V90.5475ZM847.022 87.4635H847.97V90.9795H847.022V87.4635ZM842.666 87.7515H843.602V91.7595C843.602 94.1475 843.398 96.6195 841.67 98.5035C841.526 98.2995 841.19 97.9635 840.974 97.8075C842.498 96.1035 842.666 93.8835 842.666 91.7595V87.7515ZM843.11 93.3915H849.494V98.4915H848.522V94.3275H843.11V93.3915ZM859.67 88.8195H860.546V95.3835H859.67V88.8195ZM862.586 87.6675H863.486V97.3035C863.486 97.9155 863.318 98.1795 862.958 98.3235C862.562 98.4795 861.914 98.5035 860.822 98.4915C860.762 98.2515 860.63 97.8555 860.498 97.6035C861.314 97.6275 862.058 97.6155 862.274 97.6155C862.502 97.6035 862.586 97.5315 862.586 97.3155V87.6675ZM854.978 90.6795H858.242V91.5195H854.978V90.6795ZM853.226 88.0635H859.202V88.9035H853.226V88.0635ZM854.126 93.2115L854.546 92.5515C855.446 93.0555 856.61 93.7995 857.186 94.2795L856.73 95.0355C856.166 94.5315 855.014 93.7515 854.126 93.2115ZM857.906 90.6795H858.086L858.254 90.6435L858.818 90.8475C858.158 94.7715 856.418 97.2435 854.198 98.5155C854.066 98.3115 853.73 97.9875 853.526 97.8435C855.71 96.6795 857.354 94.4115 857.906 90.8835V90.6795ZM855.398 88.4595L856.31 88.6275C855.794 90.7035 854.906 93.0315 853.406 94.4595C853.25 94.2915 852.962 94.0155 852.782 93.8595C854.174 92.5395 855.026 90.3195 855.398 88.4595ZM865.706 88.4475H875.342V89.2275H865.706V88.4475ZM866.258 90.2115H874.874V90.9675H866.258V90.2115ZM865.262 92.0475H875.75V92.8395H865.262V92.0475ZM870.026 87.4395H870.938V92.6595H870.026V87.4395ZM869.99 92.3115L870.77 92.6835C869.522 94.0515 867.302 95.3115 865.442 95.9235C865.298 95.6955 865.046 95.3595 864.854 95.1795C866.702 94.6515 868.874 93.4995 869.99 92.3115ZM871.298 92.4315C872.018 94.9995 873.578 96.8955 876.122 97.6515C875.918 97.8315 875.666 98.2035 875.534 98.4435C872.882 97.5315 871.31 95.5035 870.482 92.5995L871.298 92.4315ZM874.718 93.2355L875.438 93.7995C874.586 94.4835 873.446 95.2155 872.582 95.6955L872.03 95.2035C872.87 94.6995 874.034 93.8715 874.718 93.2355ZM866.186 97.6515C867.566 97.3515 869.726 96.8115 871.778 96.3075L871.862 97.1115C869.966 97.6035 867.914 98.1195 866.474 98.4795L866.186 97.6515ZM867.878 94.5435L868.526 93.8955L868.778 93.9675V97.5915H867.878V94.5435ZM882.755 94.2315C882.755 94.8715 882.691 95.4995 882.563 96.1155C882.443 96.7315 882.251 97.3155 881.987 97.8675C881.731 98.4275 881.399 98.9435 880.991 99.4155H880.007C880.375 98.9115 880.683 98.3755 880.931 97.8075C881.179 97.2475 881.367 96.6635 881.495 96.0555C881.623 95.4475 881.687 94.8355 881.687 94.2195C881.687 93.5875 881.623 92.9635 881.495 92.3475C881.367 91.7315 881.179 91.1355 880.931 90.5595C880.683 89.9835 880.371 89.4475 879.995 88.9515H880.991C881.399 89.4315 881.731 89.9555 881.987 90.5235C882.251 91.0915 882.443 91.6875 882.563 92.3115C882.691 92.9355 882.755 93.5755 882.755 94.2315Z" fill="black" fill-opacity="0.8"/>
<path d="M765.303 73.7852C765.027 73.7852 764.803 74.009 764.803 74.2852C764.803 74.5613 765.027 74.7852 765.303 74.7852V73.7852ZM784.766 74.6387C784.961 74.4434 784.961 74.1269 784.766 73.9316L781.584 70.7496C781.389 70.5544 781.072 70.5544 780.877 70.7496C780.681 70.9449 780.681 71.2615 780.877 71.4567L783.705 74.2852L780.877 77.1136C780.681 77.3088 780.681 77.6254 780.877 77.8207C781.072 78.016 781.389 78.016 781.584 77.8207L784.766 74.6387ZM765.303 74.7852H784.412V73.7852H765.303V74.7852Z" fill="#B3B3B3"/>
<rect x="919.732" y="34.5195" width="104.211" height="79.532" rx="3" fill="#75AEC7" fill-opacity="0.3" stroke="#75AEC7" stroke-linecap="round"/>
<path d="M956.072 61.7715H963.776V62.6115H956.072V61.7715ZM957.26 64.5435V66.3435H962.504V64.5435H957.26ZM956.432 63.7755H963.38V67.1115H956.432V63.7755ZM957.176 67.3515C958.304 69.2355 960.764 70.3515 963.884 70.6995C963.692 70.8915 963.464 71.2515 963.344 71.5035C960.164 71.0475 957.704 69.7995 956.432 67.6035L957.176 67.3515ZM959.408 60.4875H960.296V65.8035C960.296 68.1195 959.9 70.4235 956.18 71.5275C956.072 71.3235 955.82 70.9635 955.64 70.7715C959.204 69.8715 959.408 67.8195 959.408 65.7915V60.4875ZM955.556 60.4155L956.408 60.6795C955.592 62.7075 954.308 64.7235 952.976 66.0555C952.892 65.8515 952.64 65.3835 952.472 65.1675C953.684 64.0275 954.86 62.2395 955.556 60.4155ZM954.296 63.5595L955.148 62.7075L955.16 62.7195V71.5395H954.296V63.5595ZM966.572 61.2915H974.336V62.1555H966.572V61.2915ZM966.572 64.0875H974.324V64.9395H966.572V64.0875ZM966.512 66.9555H974.348V67.8075H966.512V66.9555ZM966.068 61.2915H966.956V65.6475C966.956 67.4715 966.74 69.9555 965.312 71.5515C965.168 71.3715 964.808 71.0715 964.616 70.9515C965.936 69.4635 966.068 67.3275 966.068 65.6355V61.2915ZM973.976 61.2915H974.864V70.2555C974.864 70.8435 974.72 71.1195 974.324 71.2755C973.916 71.4195 973.22 71.4315 972.08 71.4195C972.044 71.1795 971.9 70.7835 971.768 70.5435C972.62 70.5795 973.436 70.5675 973.664 70.5675C973.892 70.5555 973.976 70.4835 973.976 70.2555V61.2915ZM969.836 61.6155H970.748V71.3715H969.836V61.6155ZM976.88 64.3035H987.572V65.1075H976.88V64.3035ZM977.936 61.9515H984.884V62.7555H977.936V61.9515ZM979.88 68.3235H985.532V69.0435H979.88V68.3235ZM979.88 70.3155H985.532V71.0955H979.88V70.3155ZM981.02 60.4395H981.896V64.7355H981.02V60.4395ZM986.276 60.8595L987.044 61.2675C984.632 64.4235 981.02 66.7875 977.18 68.2635C977.072 68.0595 976.784 67.6875 976.604 67.5075C980.48 66.1635 984.056 63.8355 986.276 60.8595ZM979.388 66.3795H986.108V71.4435H985.172V67.1355H980.288V71.4915H979.388V66.3795ZM989.096 69.8715C989.096 69.5755 989.168 69.3675 989.312 69.2475C989.456 69.1275 989.628 69.0675 989.828 69.0675C990.036 69.0675 990.212 69.1275 990.356 69.2475C990.508 69.3675 990.584 69.5755 990.584 69.8715C990.584 70.1595 990.508 70.3675 990.356 70.4955C990.212 70.6235 990.036 70.6875 989.828 70.6875C989.628 70.6875 989.456 70.6235 989.312 70.4955C989.168 70.3675 989.096 70.1595 989.096 69.8715ZM989.096 64.7355C989.096 64.4315 989.168 64.2195 989.312 64.0995C989.456 63.9795 989.628 63.9195 989.828 63.9195C990.036 63.9195 990.212 63.9795 990.356 64.0995C990.508 64.2195 990.584 64.4315 990.584 64.7355C990.584 65.0235 990.508 65.2315 990.356 65.3595C990.212 65.4875 990.036 65.5515 989.828 65.5515C989.628 65.5515 989.456 65.4875 989.312 65.3595C989.168 65.2315 989.096 65.0235 989.096 64.7355ZM942.174 84.1515H946.89V89.4315H946.026V84.9795H943.002V89.4795H942.174V84.1515ZM943.914 78.4635H944.802V84.4155H943.914V78.4635ZM944.43 81.0675H947.37V81.9075H944.43V81.0675ZM942.606 88.0875H946.446V88.9155H942.606V88.0875ZM937.47 79.5435V82.4475H940.77V79.5435H937.47ZM936.762 78.8835H941.502V83.1075H936.762V78.8835ZM937.638 80.1315L938.094 80.0115C938.298 80.5995 938.454 81.3555 938.49 81.8355L938.022 81.9795C937.998 81.4755 937.842 80.7195 937.638 80.1315ZM938.046 87.0075L938.634 86.9235C938.826 87.5835 938.946 88.4475 938.958 89.0115L938.334 89.0955C938.334 88.5315 938.214 87.6675 938.046 87.0075ZM939.198 86.9355L939.774 86.8155C940.05 87.4155 940.314 88.2195 940.398 88.7475L939.786 88.8795C939.714 88.3515 939.462 87.5475 939.198 86.9355ZM940.338 86.7675L940.902 86.5515C941.334 87.1035 941.766 87.8475 941.946 88.3395L941.346 88.6155C941.166 88.0995 940.746 87.3315 940.338 86.7675ZM937.026 86.9595L937.662 87.1275C937.542 88.0155 937.35 88.9515 936.834 89.4915L936.222 89.1555C936.69 88.6635 936.918 87.7875 937.026 86.9595ZM940.098 79.9755L940.626 80.1795C940.41 80.7915 940.17 81.5715 939.966 82.0515L939.57 81.8955C939.75 81.3795 939.99 80.5275 940.098 79.9755ZM936.414 85.6875C937.746 85.6275 939.786 85.5315 941.778 85.4115L941.754 86.1315C939.834 86.2755 937.842 86.3955 936.462 86.4795L936.414 85.6875ZM936.678 83.9235H941.586V84.6555H936.678V83.9235ZM938.778 79.1955H939.39V82.7955H939.486V85.8915H938.682V82.7955H938.778V79.1955ZM949.29 85.8315H958.482V86.4435H949.29V85.8315ZM948.558 87.0915H959.154V87.7275H948.558V87.0915ZM953.382 84.7755H954.282V88.6035C954.282 89.0715 954.15 89.2635 953.778 89.3835C953.406 89.4915 952.806 89.4915 951.822 89.4915C951.774 89.2875 951.642 88.9995 951.534 88.7955C952.242 88.8195 952.938 88.8195 953.13 88.8075C953.322 88.7955 953.382 88.7475 953.382 88.5795V84.7755ZM956.826 84.2835L957.45 84.7875C955.542 85.1715 952.374 85.3035 949.806 85.2915C949.794 85.1475 949.71 84.8835 949.638 84.7395C952.146 84.7275 955.266 84.5955 956.826 84.2835ZM948.582 79.0395H953.754V79.5795H948.582V79.0395ZM948.426 82.4475H953.826V82.9635H948.426V82.4475ZM949.614 81.2115V81.6435H952.71V81.2115H949.614ZM949.614 80.3955V80.8035H952.71V80.3955H949.614ZM948.966 79.9755H953.37V82.0635H948.966V79.9755ZM950.766 78.4515H951.498V84.1515H950.766V78.4515ZM954.03 81.4035H958.158V82.0275H954.03V81.4035ZM955.11 78.8235H957.366V79.4715H955.11V78.8235ZM957.846 81.4035H958.002L958.158 81.3795L958.59 81.5235C957.894 83.3115 956.142 84.0555 954.078 84.4035C954.018 84.2115 953.874 83.9355 953.73 83.7795C955.602 83.5515 957.27 82.9035 957.846 81.4995V81.4035ZM955.218 81.9675C955.914 83.0835 957.486 83.8035 959.394 84.0555C959.226 84.2115 959.01 84.5115 958.914 84.7035C956.946 84.3675 955.326 83.5035 954.546 82.1715L955.218 81.9675ZM954.666 78.8235H955.434V79.5435C955.434 80.1915 955.218 80.9115 954.27 81.4155C954.162 81.2475 953.85 80.9475 953.694 80.8515C954.522 80.4555 954.666 79.9755 954.666 79.5315V78.8235ZM956.946 78.8235H957.726V80.0475C957.726 80.2155 957.738 80.3235 957.774 80.3595C957.822 80.3835 957.87 80.3955 957.954 80.3955C958.026 80.3955 958.182 80.3955 958.278 80.3955C958.362 80.3955 958.47 80.3835 958.506 80.3715C958.554 80.3475 958.602 80.3115 958.626 80.2155C958.662 80.1315 958.674 79.9155 958.686 79.6275C958.818 79.7595 959.058 79.8795 959.25 79.9275C959.238 80.2395 959.19 80.5755 959.13 80.7075C959.058 80.8395 958.95 80.9355 958.818 80.9835C958.698 81.0315 958.482 81.0555 958.314 81.0555C958.194 81.0555 957.882 81.0555 957.762 81.0555C957.558 81.0555 957.294 80.9955 957.15 80.8635C956.994 80.7315 956.946 80.5395 956.946 80.0115V78.8235ZM949.05 83.0835H949.71V83.7555H952.626V83.0835H953.322V84.2955H949.05V83.0835ZM960.462 82.8675H971.226V83.7555H960.462V82.8675ZM965.67 80.1675H969.93V81.0435H965.67V80.1675ZM965.13 78.4395H966.066V83.2875H965.13V78.4395ZM965.13 83.4675H966.066V89.4795H965.13V83.4675ZM965.802 85.4715L966.246 84.7515C967.566 85.0995 969.39 85.6995 970.362 86.1675L969.894 86.9715C968.97 86.5155 967.158 85.8555 965.802 85.4715ZM974.466 81.5475H982.674V82.4835H974.466V81.5475ZM978.342 78.4635H979.29V81.9795H978.342V78.4635ZM973.986 78.7515H974.922V82.7595C974.922 85.1475 974.718 87.6195 972.99 89.5035C972.846 89.2995 972.51 88.9635 972.294 88.8075C973.818 87.1035 973.986 84.8835 973.986 82.7595V78.7515ZM974.43 84.3915H980.814V89.4915H979.842V85.3275H974.43V84.3915ZM987.378 85.9155V86.9115H992.238V85.9155H987.378ZM987.378 84.2955V85.2795H992.238V84.2955H987.378ZM986.49 83.6475H993.162V87.5595H986.49V83.6475ZM984.522 79.9755H995.166V80.7675H984.522V79.9755ZM989.346 78.4395H990.246V83.2755H989.346V78.4395ZM988.83 80.2035L989.586 80.5035C988.506 82.0515 986.61 83.4555 984.846 84.1515C984.714 83.9355 984.45 83.6115 984.258 83.4315C985.986 82.8435 987.87 81.5475 988.83 80.2035ZM990.738 80.2155C991.71 81.5235 993.63 82.7595 995.406 83.3235C995.202 83.4915 994.938 83.8275 994.806 84.0675C993.018 83.3955 991.098 82.0155 990.006 80.5035L990.738 80.2155ZM984.714 88.2915H994.998V89.0955H984.714V88.2915ZM998.946 83.7795H1005.94V89.5155H1005.04V84.4995H999.81V89.5155H998.946V83.7795ZM996.534 82.1955H1007.13V82.9395H996.534V82.1955ZM997.41 80.5875H1006.43V81.3075H997.41V80.5875ZM999.534 85.3155H1005.43V85.9515H999.534V85.3155ZM999.534 86.8035H1005.43V87.4275H999.534V86.8035ZM999.45 88.3155H1005.43V89.0355H999.45V88.3155ZM1005.74 78.5355L1006.31 79.1955C1004.08 79.6395 1000.4 79.8195 997.434 79.8315C997.41 79.6275 997.326 79.3155 997.242 79.1235C1000.17 79.0995 1003.83 78.9315 1005.74 78.5355ZM1000.82 79.3635L1001.75 79.5555C1000.95 82.4595 999.486 85.2075 996.798 86.8035C996.678 86.6115 996.414 86.2755 996.234 86.1075C998.778 84.6435 1000.18 82.0155 1000.82 79.3635Z" fill="black" fill-opacity="0.8"/>
<path d="M896.623 73.7852C896.347 73.7852 896.123 74.009 896.123 74.2852C896.123 74.5613 896.347 74.7852 896.623 74.7852V73.7852ZM916.086 74.6387C916.281 74.4434 916.281 74.1269 916.086 73.9316L912.904 70.7496C912.709 70.5544 912.392 70.5544 912.197 70.7496C912.002 70.9449 912.002 71.2615 912.197 71.4567L915.025 74.2852L912.197 77.1136C912.002 77.3088 912.002 77.6254 912.197 77.8207C912.392 78.016 912.709 78.016 912.904 77.8207L916.086 74.6387ZM896.623 74.7852H915.733V73.7852H896.623V74.7852Z" fill="#B3B3B3"/>
<circle cx="1091.72" cy="74.3365" r="40.6647" fill="#F9ECC6" stroke="#DDBC00" stroke-linecap="round"/>
<path d="M1070.44 73.0839H1076.97V73.8999H1070.44V73.0839ZM1068.39 75.2919H1079.03V76.1439H1068.39V75.2919ZM1071.54 75.8799H1072.5C1072.25 78.2199 1071.58 79.8399 1068.65 80.6559C1068.56 80.4279 1068.32 80.0679 1068.12 79.8879C1070.82 79.2159 1071.34 77.8359 1071.54 75.8799ZM1074.58 75.8079H1075.48V79.1799C1075.48 79.5399 1075.56 79.5999 1076.07 79.5999C1076.31 79.5999 1077.45 79.5999 1077.76 79.5999C1078.22 79.5999 1078.3 79.3839 1078.34 78.0039C1078.53 78.1479 1078.91 78.2919 1079.15 78.3639C1079.06 80.0079 1078.79 80.4279 1077.83 80.4279C1077.59 80.4279 1076.21 80.4279 1075.97 80.4279C1074.87 80.4279 1074.58 80.1519 1074.58 79.1919V75.8079ZM1073.21 69.6039H1074.16V71.5119H1073.21V69.6039ZM1068.66 70.8879H1078.76V73.4319H1077.81V71.7399H1069.58V73.4319H1068.66V70.8879ZM1081.76 74.0919H1084.74V74.9319H1081.76V74.0919ZM1084.38 74.0919H1085.26C1085.26 74.0919 1085.26 74.3559 1085.26 74.4759C1085.2 77.1879 1085.13 78.1959 1084.88 78.5319C1084.68 78.7479 1084.49 78.8319 1084.16 78.8679C1083.84 78.9039 1083.3 78.8919 1082.72 78.8679C1082.69 78.6039 1082.6 78.2559 1082.46 78.0279C1083 78.0759 1083.53 78.0759 1083.74 78.0759C1083.9 78.0759 1084.02 78.0639 1084.11 77.9559C1084.29 77.7399 1084.35 76.8399 1084.38 74.2479V74.0919ZM1087.77 70.2039L1088.31 69.6399C1089.05 70.0239 1090 70.5999 1090.47 71.0199L1089.9 71.6319C1089.45 71.2119 1088.52 70.5999 1087.77 70.2039ZM1089.48 73.4559L1090.38 73.6719C1089.36 76.8039 1087.58 79.1199 1085.12 80.5719C1084.98 80.3919 1084.65 80.0199 1084.46 79.8399C1086.89 78.5439 1088.58 76.3479 1089.48 73.4559ZM1081.83 71.6319H1091.12V72.5199H1081.83V71.6319ZM1081.25 71.6319H1082.19V75.0159C1082.19 76.7199 1082 79.1439 1080.9 80.7159C1080.75 80.5359 1080.36 80.2239 1080.15 80.1159C1081.14 78.6399 1081.25 76.5759 1081.25 75.0039V71.6319ZM1086.23 69.6159H1087.17C1087.14 75.1359 1088.32 79.6359 1089.88 79.6359C1090.22 79.6359 1090.37 79.0119 1090.44 77.4159C1090.65 77.6199 1090.98 77.8239 1091.22 77.9079C1091.06 79.9599 1090.72 80.5479 1089.81 80.5479C1087.36 80.5479 1086.28 75.3639 1086.23 69.6159ZM1098.38 70.0359L1099.04 70.6359C1098.42 70.9959 1097.63 71.3079 1096.96 71.5239C1096.91 71.3559 1096.79 71.0919 1096.68 70.9119C1097.3 70.6839 1097.98 70.3479 1098.38 70.0359ZM1096.52 70.6599L1097.31 70.9119V74.7759H1096.52V70.6599ZM1096.52 74.3679H1101.94V71.3199H1100.42V70.5879H1102.76V75.1119H1096.52V74.3679ZM1096.86 72.4839H1098.62V73.1679H1096.86V72.4839ZM1100.46 72.4839H1102.3V73.1679H1100.46V72.4839ZM1099.16 69.6039H1099.97V76.3719H1099.16V69.6039ZM1096.19 76.2039H1102.08V76.9719H1096.19V76.2039ZM1101.83 76.2039H1102L1102.16 76.1679L1102.72 76.4439C1101.58 78.9999 1098.84 80.1759 1095.9 80.6559C1095.83 80.4279 1095.66 80.0799 1095.51 79.8879C1098.26 79.5279 1100.88 78.4719 1101.83 76.3359V76.2039ZM1097.76 76.8879C1098.74 78.4959 1100.84 79.5279 1103.36 79.9239C1103.15 80.1159 1102.91 80.4639 1102.79 80.7159C1100.21 80.2239 1098.1 79.0479 1096.97 77.1879L1097.76 76.8879ZM1092.05 75.9759C1093.08 75.7119 1094.62 75.2559 1096.11 74.8239L1096.22 75.6399C1094.85 76.0719 1093.41 76.5279 1092.29 76.8519L1092.05 75.9759ZM1092.21 72.0159H1096.1V72.8559H1092.21V72.0159ZM1093.88 69.6039H1094.75V79.5999C1094.75 80.0919 1094.63 80.3439 1094.32 80.4759C1094.01 80.6199 1093.53 80.6439 1092.72 80.6319C1092.7 80.4159 1092.57 80.0559 1092.46 79.8159C1093 79.8279 1093.5 79.8279 1093.65 79.8279C1093.82 79.8279 1093.88 79.7679 1093.88 79.5999V69.6039ZM1105.66 70.0839H1113.57V73.4199H1105.59V72.7719H1112.68V70.7199H1105.66V70.0839ZM1110.81 74.6679V75.8319H1113.57V74.6679H1110.81ZM1109.96 74.0199H1114.44V76.4679H1109.96V74.0199ZM1105.95 71.4399H1113.06V72.0519H1105.95V71.4399ZM1104.74 74.0199H1109.13V74.7039H1104.74V74.0199ZM1104.27 77.2479H1115.16V78.0039H1104.27V77.2479ZM1111.79 76.4559H1112.68V79.6479C1112.68 80.1399 1112.57 80.3799 1112.18 80.4999C1111.78 80.6319 1111.14 80.6439 1110.11 80.6439C1110.08 80.4039 1109.93 80.0799 1109.81 79.8399C1110.62 79.8639 1111.32 79.8639 1111.53 79.8519C1111.74 79.8399 1111.79 79.7919 1111.79 79.6359V76.4559ZM1106.49 74.2719H1107.33V76.0479H1106.49V74.2719ZM1104.5 76.0239C1105.72 75.9519 1107.56 75.8199 1109.37 75.6879V76.3719C1107.64 76.5159 1105.85 76.6479 1104.58 76.7439L1104.5 76.0239ZM1106.26 78.4479L1106.87 77.9319C1107.58 78.3159 1108.41 78.9279 1108.82 79.3839L1108.17 79.9719C1107.78 79.5039 1106.97 78.8679 1106.26 78.4479Z" fill="#0D0C0C" fill-opacity="0.8"/>
<path d="M108.701 73.8359C108.425 73.8359 108.201 74.0598 108.201 74.3359C108.201 74.6121 108.425 74.8359 108.701 74.8359V73.8359ZM128.163 74.6895C128.358 74.4942 128.358 74.1776 128.163 73.9824L124.981 70.8004C124.786 70.6051 124.469 70.6051 124.274 70.8004C124.079 70.9957 124.079 71.3122 124.274 71.5075L127.102 74.3359L124.274 77.1644C124.079 77.3596 124.079 77.6762 124.274 77.8715C124.469 78.0667 124.786 78.0667 124.981 77.8715L128.163 74.6895ZM108.701 74.8359H127.809V73.8359H108.701V74.8359Z" fill="white"/>
<path d="M108.701 73.8359C108.425 73.8359 108.201 74.0598 108.201 74.3359C108.201 74.6121 108.425 74.8359 108.701 74.8359V73.8359ZM128.163 74.6895C128.358 74.4942 128.358 74.1776 128.163 73.9824L124.981 70.8004C124.786 70.6051 124.469 70.6051 124.274 70.8004C124.079 70.9957 124.079 71.3122 124.274 71.5075L127.102 74.3359L124.274 77.1644C124.079 77.3596 124.079 77.6762 124.274 77.8715C124.469 78.0667 124.786 78.0667 124.981 77.8715L128.163 74.6895ZM108.701 74.8359H127.809V73.8359H108.701V74.8359Z" fill="#B3B3B3"/>
<path d="M1027.94 73.8359C1027.67 73.8359 1027.44 74.0598 1027.44 74.3359C1027.44 74.6121 1027.67 74.8359 1027.94 74.8359V73.8359ZM1047.41 74.6895C1047.6 74.4942 1047.6 74.1776 1047.41 73.9824L1044.22 70.8004C1044.03 70.6051 1043.71 70.6051 1043.52 70.8004C1043.32 70.9957 1043.32 71.3122 1043.52 71.5075L1046.35 74.3359L1043.52 77.1644C1043.32 77.3596 1043.32 77.6762 1043.52 77.8715C1043.71 78.0667 1044.03 78.0667 1044.22 77.8715L1047.41 74.6895ZM1027.94 74.8359H1047.05V73.8359H1027.94V74.8359Z" fill="#B3B3B3"/>
</svg>
