<svg width="39" height="16" viewBox="0 0 39 16" fill="none" xmlns="http://www.w3.org/2000/svg">
<path d="M1 7C0.447715 7 -4.82823e-08 7.44772 0 8C4.82823e-08 8.55228 0.447715 9 1 9L1 7ZM38.7071 8.7071C39.0976 8.31658 39.0976 7.68341 38.7071 7.29289L32.3431 0.928929C31.9526 0.538405 31.3195 0.538405 30.9289 0.92893C30.5384 1.31945 30.5384 1.95262 30.9289 2.34314L36.5858 8L30.9289 13.6569C30.5384 14.0474 30.5384 14.6805 30.9289 15.0711C31.3195 15.4616 31.9526 15.4616 32.3431 15.0711L38.7071 8.7071ZM1 9L38 9L38 7L1 7L1 9Z" fill="#7AA5C7"/>
</svg>
