<svg width="460" height="319" viewBox="0 0 460 319" fill="none" xmlns="http://www.w3.org/2000/svg">
<rect x="0.5" y="0.5" width="459" height="281" rx="5.5" stroke="#1368AA"/>
<line x1="64.5" y1="-2.18557e-08" x2="64.5" y2="282" stroke="#1368AA"/>
<line x1="157.5" y1="-2.18557e-08" x2="157.5" y2="281" stroke="#1368AA"/>
<line x1="259.5" y1="43" x2="259.5" y2="280" stroke="#1368AA"/>
<line x1="360.5" y1="43" x2="360.5" y2="281" stroke="#1368AA"/>
<path d="M261.272 18.528H265.72V19.936H261.272V18.528ZM261.272 21.136H265.72V22.496H261.272V21.136ZM261.272 23.824H265.72V25.232H261.272V23.824ZM268.216 22H274.232V23.616H268.216V22ZM262.072 15.888H264.6V17.344H262.072V15.888ZM267 15.216H272.952V16.8H267V15.216ZM267.016 25.072H274.552V26.72H267.016V25.072ZM269.992 20.56H271.816V29.376H269.992V20.56ZM263.016 19.264H264.28V24.352H263.016V19.264ZM272.44 15.216H274.136C274.136 15.216 274.131 15.296 274.12 15.456C274.12 15.6053 274.115 15.7333 274.104 15.84C274.083 16.6827 274.051 17.3813 274.008 17.936C273.965 18.4907 273.907 18.928 273.832 19.248C273.757 19.568 273.661 19.7973 273.544 19.936C273.416 20.096 273.272 20.2133 273.112 20.288C272.952 20.3627 272.771 20.4213 272.568 20.464C272.387 20.4853 272.152 20.5013 271.864 20.512C271.576 20.512 271.267 20.5067 270.936 20.496C270.925 20.2507 270.883 19.984 270.808 19.696C270.733 19.3973 270.632 19.1467 270.504 18.944C270.76 18.9653 270.989 18.9813 271.192 18.992C271.395 19.0027 271.549 19.008 271.656 19.008C271.752 19.008 271.832 19.0027 271.896 18.992C271.971 18.9707 272.035 18.9227 272.088 18.848C272.152 18.7733 272.205 18.6187 272.248 18.384C272.291 18.1387 272.328 17.7813 272.36 17.312C272.392 16.8427 272.419 16.224 272.44 15.456V15.216ZM267.88 20.672L269.448 20.992C269.309 21.7173 269.112 22.4267 268.856 23.12C268.611 23.8133 268.333 24.3947 268.024 24.864C267.917 24.7893 267.779 24.704 267.608 24.608C267.437 24.512 267.261 24.4213 267.08 24.336C266.899 24.2507 266.744 24.1813 266.616 24.128C266.925 23.7013 267.187 23.1787 267.4 22.56C267.613 21.9413 267.773 21.312 267.88 20.672ZM261.688 14.384L263.4 14.768C263.197 15.4933 262.957 16.208 262.68 16.912C262.403 17.616 262.093 18.272 261.752 18.88C261.421 19.488 261.064 20.0213 260.68 20.48C260.584 20.384 260.451 20.2667 260.28 20.128C260.109 19.9787 259.939 19.8347 259.768 19.696C259.597 19.5467 259.443 19.4347 259.304 19.36C259.848 18.7627 260.328 18.0267 260.744 17.152C261.16 16.2667 261.475 15.344 261.688 14.384ZM260.568 18.528H262.104V22.768C262.104 23.28 262.083 23.8293 262.04 24.416C262.008 25.0027 261.944 25.6 261.848 26.208C261.763 26.8053 261.629 27.3867 261.448 27.952C261.267 28.5067 261.027 29.0133 260.728 29.472C260.643 29.376 260.515 29.2693 260.344 29.152C260.184 29.0453 260.013 28.9387 259.832 28.832C259.661 28.736 259.512 28.6613 259.384 28.608C259.747 28.0533 260.013 27.44 260.184 26.768C260.355 26.0853 260.461 25.3973 260.504 24.704C260.547 24 260.568 23.3493 260.568 22.752V18.528ZM265.192 18.528H266.776V27.584C266.776 27.968 266.733 28.2827 266.648 28.528C266.563 28.7733 266.397 28.9653 266.152 29.104C265.907 29.2427 265.613 29.328 265.272 29.36C264.931 29.4027 264.509 29.424 264.008 29.424C263.987 29.1893 263.917 28.912 263.8 28.592C263.693 28.272 263.581 28.0053 263.464 27.792C263.784 27.8027 264.083 27.8133 264.36 27.824C264.637 27.824 264.829 27.824 264.936 27.824C265.032 27.824 265.096 27.808 265.128 27.776C265.171 27.7333 265.192 27.6587 265.192 27.552V18.528ZM268.936 15.744H270.648C270.584 16.5227 270.456 17.2427 270.264 17.904C270.083 18.5547 269.779 19.136 269.352 19.648C268.925 20.16 268.317 20.592 267.528 20.944C267.432 20.7413 267.283 20.5067 267.08 20.24C266.888 19.9733 266.701 19.7707 266.52 19.632C267.16 19.3653 267.64 19.04 267.96 18.656C268.291 18.272 268.52 17.8347 268.648 17.344C268.787 16.8533 268.883 16.32 268.936 15.744ZM264.136 15.888H264.504L264.744 15.824L265.848 16.496C265.667 17.008 265.437 17.552 265.16 18.128C264.883 18.6933 264.621 19.1787 264.376 19.584C264.216 19.4667 264.019 19.3387 263.784 19.2C263.56 19.0613 263.363 18.9493 263.192 18.864C263.32 18.608 263.443 18.3253 263.56 18.016C263.688 17.696 263.8 17.376 263.896 17.056C264.003 16.7253 264.083 16.4373 264.136 16.192V15.888ZM280.84 16.864H289.304V22.352H287.416V18.672H280.84V16.864ZM280.056 21.584H290.504V23.376H280.056V21.584ZM283.512 14.416H285.432V20.016C285.432 20.88 285.384 21.7493 285.288 22.624C285.192 23.4987 284.989 24.352 284.68 25.184C284.381 26.0053 283.923 26.784 283.304 27.52C282.685 28.2453 281.853 28.9013 280.808 29.488C280.691 29.3493 280.536 29.1947 280.344 29.024C280.163 28.8533 279.971 28.6827 279.768 28.512C279.565 28.352 279.379 28.224 279.208 28.128C280.189 27.6053 280.968 27.0347 281.544 26.416C282.12 25.7867 282.547 25.1253 282.824 24.432C283.112 23.728 283.299 23.0027 283.384 22.256C283.469 21.5093 283.512 20.7573 283.512 20V14.416ZM286.312 22.592C286.653 23.7547 287.187 24.7947 287.912 25.712C288.648 26.6293 289.571 27.3227 290.68 27.792C290.531 27.9093 290.371 28.064 290.2 28.256C290.029 28.4587 289.864 28.6667 289.704 28.88C289.555 29.0933 289.432 29.2907 289.336 29.472C288.099 28.864 287.096 28.0107 286.328 26.912C285.56 25.8027 284.963 24.5067 284.536 23.024L286.312 22.592ZM276.376 15.888L277.416 14.48C277.747 14.608 278.093 14.7627 278.456 14.944C278.829 15.1253 279.181 15.312 279.512 15.504C279.853 15.696 280.125 15.888 280.328 16.08L279.224 17.648C279.032 17.456 278.776 17.2533 278.456 17.04C278.136 16.8267 277.789 16.6187 277.416 16.416C277.053 16.2133 276.707 16.0373 276.376 15.888ZM275.448 20.256L276.472 18.8C276.813 18.9173 277.171 19.0613 277.544 19.232C277.917 19.4027 278.275 19.584 278.616 19.776C278.957 19.968 279.235 20.1547 279.448 20.336L278.344 21.936C278.152 21.7547 277.891 21.5627 277.56 21.36C277.229 21.1467 276.877 20.944 276.504 20.752C276.141 20.56 275.789 20.3947 275.448 20.256ZM275.896 28.016C276.163 27.6 276.461 27.1147 276.792 26.56C277.123 25.9947 277.453 25.3973 277.784 24.768C278.125 24.1387 278.44 23.5093 278.728 22.88L280.2 24.08C279.933 24.6453 279.651 25.2267 279.352 25.824C279.064 26.4213 278.771 27.0027 278.472 27.568C278.173 28.1333 277.875 28.6827 277.576 29.216L275.896 28.016ZM296.664 22.112H302.072V27.168H296.664V25.6H300.264V23.696H296.664V22.112ZM295.832 22.112H297.608V28.08H295.832V22.112ZM293.224 17.344H297.224V18.64H293.224V17.344ZM300.648 17.344H304.68V18.64H300.648V17.344ZM303.88 15.024H305.832V27.136C305.832 27.6693 305.768 28.0853 305.64 28.384C305.512 28.6827 305.283 28.912 304.952 29.072C304.611 29.232 304.184 29.3333 303.672 29.376C303.16 29.4187 302.531 29.44 301.784 29.44C301.773 29.248 301.731 29.0347 301.656 28.8C301.581 28.5653 301.501 28.3253 301.416 28.08C301.331 27.8453 301.235 27.6427 301.128 27.472C301.448 27.4933 301.768 27.5093 302.088 27.52C302.408 27.52 302.691 27.52 302.936 27.52C303.192 27.5093 303.373 27.504 303.48 27.504C303.629 27.504 303.731 27.4773 303.784 27.424C303.848 27.36 303.88 27.2533 303.88 27.104V15.024ZM293.368 15.024H298.44V21.008H293.368V19.552H296.632V16.48H293.368V15.024ZM304.92 15.024V16.48H301.336V19.584H304.92V21.024H299.512V15.024H304.92ZM292.28 15.024H294.184V29.44H292.28V15.024ZM310.12 18.288V19.04H312.408V18.288H310.12ZM310.12 16.32V17.072H312.408V16.32H310.12ZM308.424 15.024H314.184V20.336H308.424V15.024ZM307.688 21.264H314.904V22.656H307.688V21.264ZM314.84 15.072H322.216V16.432H314.84V15.072ZM310.664 21.696H312.28V28.128L310.664 27.216V21.696ZM311.512 23.952H314.6V25.344H311.512V23.952ZM317.928 15.408L319.672 15.776C319.469 16.224 319.267 16.6773 319.064 17.136C318.872 17.584 318.696 17.9627 318.536 18.272L317.16 17.904C317.299 17.552 317.443 17.1413 317.592 16.672C317.741 16.2027 317.853 15.7813 317.928 15.408ZM317.032 20.544V21.296H319.96V20.544H317.032ZM317.032 22.528V23.28H319.96V22.528H317.032ZM317.032 18.576V19.328H319.96V18.576H317.032ZM315.336 17.28H321.736V24.592H315.336V17.28ZM316.632 24.704L318.2 25.2C317.869 25.648 317.443 26.0853 316.92 26.512C316.408 26.928 315.901 27.2747 315.4 27.552C315.304 27.456 315.181 27.3387 315.032 27.2C314.883 27.0507 314.728 26.9067 314.568 26.768C314.419 26.6293 314.28 26.5173 314.152 26.432C314.632 26.2293 315.096 25.9733 315.544 25.664C315.992 25.3547 316.355 25.0347 316.632 24.704ZM308.408 23.296H309.96C309.928 24.1067 309.869 24.9013 309.784 25.68C309.699 26.448 309.549 27.1627 309.336 27.824C309.133 28.4747 308.829 29.0453 308.424 29.536C308.307 29.3333 308.136 29.0987 307.912 28.832C307.699 28.5653 307.496 28.3627 307.304 28.224C307.603 27.8507 307.827 27.4027 307.976 26.88C308.136 26.3573 308.243 25.792 308.296 25.184C308.36 24.5653 308.397 23.936 308.408 23.296ZM309.688 24.624C309.923 25.296 310.221 25.8293 310.584 26.224C310.947 26.6187 311.379 26.9173 311.88 27.12C312.392 27.3227 312.979 27.456 313.64 27.52C314.301 27.5733 315.037 27.6 315.848 27.6C316.072 27.6 316.403 27.6 316.84 27.6C317.277 27.6 317.773 27.6 318.328 27.6C318.883 27.6 319.443 27.6 320.008 27.6C320.573 27.5893 321.091 27.5787 321.56 27.568C322.029 27.5573 322.397 27.552 322.664 27.552C322.536 27.7227 322.408 27.968 322.28 28.288C322.163 28.608 322.083 28.8853 322.04 29.12H320.808H315.848C314.867 29.12 313.987 29.072 313.208 28.976C312.429 28.88 311.741 28.688 311.144 28.4C310.557 28.1227 310.051 27.7067 309.624 27.152C309.197 26.5973 308.84 25.872 308.552 24.976L309.688 24.624ZM318.888 25.296L320.216 24.608C320.504 24.7893 320.797 25.0027 321.096 25.248C321.395 25.4827 321.672 25.7227 321.928 25.968C322.195 26.2027 322.408 26.4213 322.568 26.624L321.192 27.44C321.021 27.2267 320.808 26.992 320.552 26.736C320.296 26.48 320.019 26.224 319.72 25.968C319.432 25.712 319.155 25.488 318.888 25.296ZM325.288 17.008H330.2V27.776H325.288V26.096H328.472V18.672H325.288V17.008ZM324.168 17.008H325.912V28.96H324.168V17.008ZM325.224 21.28H329.304V22.944H325.224V21.28ZM326.456 14.4L328.536 14.704C328.365 15.248 328.179 15.7867 327.976 16.32C327.784 16.8533 327.608 17.3067 327.448 17.68L325.912 17.328C325.987 17.0507 326.056 16.7413 326.12 16.4C326.195 16.0587 326.264 15.712 326.328 15.36C326.392 15.008 326.435 14.688 326.456 14.4ZM332.312 16.88H337V18.64H332.312V16.88ZM336.328 16.88H338.104C338.104 16.88 338.104 16.9387 338.104 17.056C338.104 17.1627 338.104 17.2853 338.104 17.424C338.104 17.5627 338.099 17.6693 338.088 17.744C338.045 19.5467 337.992 21.0773 337.928 22.336C337.875 23.584 337.805 24.6187 337.72 25.44C337.645 26.2507 337.555 26.8853 337.448 27.344C337.341 27.8027 337.203 28.1387 337.032 28.352C336.819 28.6613 336.589 28.8747 336.344 28.992C336.099 29.1093 335.816 29.1947 335.496 29.248C335.187 29.2907 334.803 29.3067 334.344 29.296C333.896 29.296 333.437 29.2907 332.968 29.28C332.957 29.0133 332.893 28.6987 332.776 28.336C332.659 27.984 332.515 27.6747 332.344 27.408C332.856 27.4507 333.331 27.4773 333.768 27.488C334.216 27.4987 334.541 27.504 334.744 27.504C334.904 27.504 335.032 27.488 335.128 27.456C335.235 27.4133 335.336 27.3387 335.432 27.232C335.571 27.0933 335.683 26.8107 335.768 26.384C335.864 25.9467 335.944 25.3333 336.008 24.544C336.072 23.7547 336.131 22.7573 336.184 21.552C336.237 20.3467 336.285 18.912 336.328 17.248V16.88ZM332.36 14.416L334.216 14.848C334.013 15.6267 333.763 16.4053 333.464 17.184C333.176 17.9627 332.856 18.6987 332.504 19.392C332.163 20.0747 331.811 20.672 331.448 21.184C331.341 21.0773 331.187 20.9547 330.984 20.816C330.792 20.6667 330.595 20.5227 330.392 20.384C330.2 20.2453 330.029 20.1387 329.88 20.064C330.232 19.6053 330.563 19.0773 330.872 18.48C331.192 17.872 331.475 17.2213 331.72 16.528C331.976 15.824 332.189 15.12 332.36 14.416ZM331.576 21.504L333.08 20.656C333.347 21.0187 333.629 21.4187 333.928 21.856C334.227 22.2933 334.509 22.72 334.776 23.136C335.043 23.552 335.261 23.92 335.432 24.24L333.8 25.232C333.651 24.9013 333.448 24.5227 333.192 24.096C332.947 23.6693 332.68 23.232 332.392 22.784C332.115 22.3253 331.843 21.8987 331.576 21.504ZM340.088 22.56H346.6V23.952H340.088V22.56ZM339.496 24.64H347V26.128H339.496V24.64ZM339.624 15.696H347.016V17.184H339.624V15.696ZM340.936 14.4H342.584V18.032H340.936V14.4ZM344.104 14.4H345.752V18.032H344.104V14.4ZM342.472 18.768H344.008V21.344H342.472V18.768ZM341.464 19.552V20.672H345.064V19.552H341.464ZM340.024 18.32H346.584V21.92H340.024V18.32ZM343.48 25.84C343.651 25.9253 343.896 26.0587 344.216 26.24C344.536 26.4107 344.872 26.6027 345.224 26.816C345.576 27.0187 345.896 27.2107 346.184 27.392C346.483 27.5733 346.701 27.7067 346.84 27.792L345.752 29.36C345.56 29.1893 345.32 28.9867 345.032 28.752C344.744 28.5173 344.44 28.2773 344.12 28.032C343.811 27.7973 343.507 27.5733 343.208 27.36C342.909 27.1467 342.648 26.9653 342.424 26.816L343.48 25.84ZM342.392 21.136H344.152V24C344.152 24.4907 344.104 24.9867 344.008 25.488C343.923 25.9893 343.752 26.48 343.496 26.96C343.24 27.44 342.872 27.8933 342.392 28.32C341.912 28.7573 341.288 29.1467 340.52 29.488C340.403 29.2853 340.227 29.056 339.992 28.8C339.768 28.5547 339.555 28.352 339.352 28.192C340.013 27.936 340.541 27.6373 340.936 27.296C341.341 26.9547 341.651 26.592 341.864 26.208C342.077 25.824 342.216 25.44 342.28 25.056C342.355 24.672 342.392 24.3093 342.392 23.968V21.136ZM348.2 20.592H354.248V22.208H348.2V20.592ZM348.2 23.744H354.248V25.36H348.2V23.744ZM348.152 26.96H354.536V28.688H348.152V26.96ZM348.664 14.4L350.424 14.816C350.2 15.6373 349.933 16.4587 349.624 17.28C349.325 18.0907 348.995 18.8587 348.632 19.584C348.269 20.3093 347.891 20.9387 347.496 21.472C347.4 21.3653 347.261 21.2373 347.08 21.088C346.909 20.928 346.733 20.7733 346.552 20.624C346.371 20.464 346.216 20.3413 346.088 20.256C346.451 19.7867 346.792 19.2373 347.112 18.608C347.443 17.9787 347.736 17.3067 347.992 16.592C348.259 15.8667 348.483 15.136 348.664 14.4ZM351.688 14.576L353.528 14.992C353.304 15.6107 353.064 16.224 352.808 16.832C352.552 17.44 352.317 17.9573 352.104 18.384L350.552 17.984C350.691 17.6747 350.829 17.3227 350.968 16.928C351.117 16.5333 351.251 16.1333 351.368 15.728C351.496 15.312 351.603 14.928 351.688 14.576ZM349.384 17.392H354.376V19.104H349.384V29.456H347.672V19.216L349.368 17.392H349.384ZM350.776 18.192H352.488V27.824H350.776V18.192ZM359.016 18.912H370.12V20.416H359.016V18.912ZM359.128 23.568H367.912V25.072H359.128V23.568ZM361.176 17.856H362.984V21.488H365.928V17.856H367.8V22.928H361.176V17.856ZM367.432 23.568H367.8L368.136 23.504L369.336 24.112C368.909 24.976 368.349 25.7173 367.656 26.336C366.973 26.944 366.189 27.456 365.304 27.872C364.429 28.288 363.48 28.6187 362.456 28.864C361.432 29.12 360.36 29.3227 359.24 29.472C359.165 29.2267 359.048 28.944 358.888 28.624C358.739 28.3147 358.589 28.0587 358.44 27.856C359.453 27.7707 360.429 27.632 361.368 27.44C362.317 27.248 363.187 26.992 363.976 26.672C364.765 26.352 365.453 25.9573 366.04 25.488C366.637 25.008 367.101 24.4533 367.432 23.824V23.568ZM362.424 24.752C362.904 25.3493 363.544 25.8613 364.344 26.288C365.144 26.704 366.067 27.04 367.112 27.296C368.157 27.552 369.299 27.7333 370.536 27.84C370.397 27.968 370.253 28.128 370.104 28.32C369.965 28.5227 369.832 28.7253 369.704 28.928C369.587 29.1307 369.485 29.3173 369.4 29.488C368.109 29.3173 366.925 29.0613 365.848 28.72C364.771 28.3787 363.805 27.9307 362.952 27.376C362.099 26.8107 361.373 26.1333 360.776 25.344L362.424 24.752ZM362.504 14.4H364.504V16.816H362.504V14.4ZM357.704 15.856H370.216V17.568H357.704V15.856ZM356.776 15.856H358.616V20.352C358.616 21.0133 358.595 21.7333 358.552 22.512C358.509 23.2907 358.429 24.0907 358.312 24.912C358.195 25.7333 358.019 26.5333 357.784 27.312C357.56 28.08 357.267 28.7733 356.904 29.392C356.797 29.2853 356.648 29.1573 356.456 29.008C356.264 28.8693 356.067 28.736 355.864 28.608C355.661 28.48 355.485 28.3893 355.336 28.336C355.667 27.7707 355.928 27.1467 356.12 26.464C356.312 25.7813 356.456 25.088 356.552 24.384C356.648 23.6693 356.707 22.9653 356.728 22.272C356.76 21.5787 356.776 20.9387 356.776 20.352V15.856Z" fill="#475467"/>
<path d="M32.632 134.224H34.472V138.208H32.632V134.224ZM30.744 140H32.408V145.904C32.408 146.267 32.36 146.549 32.264 146.752C32.1787 146.955 32.0133 147.109 31.768 147.216C31.512 147.312 31.208 147.371 30.856 147.392C30.5147 147.424 30.0987 147.44 29.608 147.44C29.576 147.237 29.5173 147.008 29.432 146.752C29.3467 146.496 29.2507 146.272 29.144 146.08C29.4213 146.091 29.6933 146.096 29.96 146.096C30.2267 146.096 30.4027 146.096 30.488 146.096C30.6587 146.085 30.744 146.005 30.744 145.856V140ZM35.384 132.4L37.064 132.816C36.8507 133.115 36.6427 133.403 36.44 133.68C36.248 133.947 36.072 134.181 35.912 134.384L34.6 133.984C34.728 133.749 34.8667 133.488 35.016 133.2C35.176 132.901 35.2987 132.635 35.384 132.4ZM30.408 132.88L31.752 132.384C31.9333 132.619 32.1093 132.88 32.28 133.168C32.4613 133.445 32.5893 133.691 32.664 133.904L31.24 134.432C31.176 134.219 31.064 133.968 30.904 133.68C30.744 133.381 30.5787 133.115 30.408 132.88ZM35.512 139.968L36.6 139.216C36.9093 139.419 37.2187 139.659 37.528 139.936C37.8373 140.203 38.0773 140.453 38.248 140.688L37.08 141.536C36.9307 141.301 36.7013 141.04 36.392 140.752C36.0933 140.453 35.8 140.192 35.512 139.968ZM28.632 143.776C29.2933 143.723 30.0667 143.659 30.952 143.584C31.848 143.499 32.76 143.408 33.688 143.312L33.72 144.672C32.8667 144.779 32.008 144.885 31.144 144.992C30.2907 145.088 29.512 145.173 28.808 145.248L28.632 143.776ZM32.792 139.104L33.768 140.224C33.3413 140.352 32.8667 140.459 32.344 140.544C31.832 140.629 31.3093 140.704 30.776 140.768C30.2533 140.821 29.7467 140.864 29.256 140.896C29.2347 140.736 29.1813 140.549 29.096 140.336C29.0213 140.112 28.9467 139.92 28.872 139.76C29.3307 139.728 29.8 139.68 30.28 139.616C30.76 139.552 31.2187 139.477 31.656 139.392C32.0933 139.307 32.472 139.211 32.792 139.104ZM29.272 133.872H38.024V135.168H29.272V133.872ZM29.768 135.76H37.528V136.96H29.768V135.76ZM28.76 137.6H38.36V138.976H28.76V137.6ZM28.744 141.44H38.344V142.832H28.744V141.44ZM33.736 139.312H35.336C35.3253 140.72 35.3893 141.925 35.528 142.928C35.6773 143.931 35.88 144.699 36.136 145.232C36.4027 145.755 36.712 146.016 37.064 146.016C37.1813 146.016 37.2773 145.909 37.352 145.696C37.4373 145.483 37.4907 145.157 37.512 144.72C37.672 144.869 37.8533 145.003 38.056 145.12C38.2587 145.227 38.4507 145.317 38.632 145.392C38.5147 146.171 38.3173 146.715 38.04 147.024C37.7733 147.344 37.3893 147.504 36.888 147.504C36.2907 147.504 35.7947 147.301 35.4 146.896C35.0053 146.491 34.6907 145.92 34.456 145.184C34.2213 144.448 34.0453 143.584 33.928 142.592C33.8213 141.589 33.7573 140.496 33.736 139.312ZM36.488 143.024L37.8 143.664C37.4587 144.176 37.048 144.661 36.568 145.12C36.088 145.579 35.5653 145.984 35 146.336C34.4453 146.699 33.8907 147.003 33.336 147.248C33.2507 147.099 33.1173 146.923 32.936 146.72C32.7547 146.517 32.584 146.357 32.424 146.24C32.9573 146.016 33.48 145.744 33.992 145.424C34.504 145.104 34.9787 144.741 35.416 144.336C35.8533 143.931 36.2107 143.493 36.488 143.024ZM24.136 137.312H28.392V138.768H24.136V137.312ZM24.248 132.912H28.36V134.352H24.248V132.912ZM24.136 139.504H28.392V140.944H24.136V139.504ZM23.48 135.056H28.808V136.576H23.48V135.056ZM25.016 141.712H28.376V146.56H25.016V145.056H26.84V143.216H25.016V141.712ZM24.088 141.712H25.592V147.216H24.088V141.712ZM26.12 155.288V156.04H28.408V155.288H26.12ZM26.12 153.32V154.072H28.408V153.32H26.12ZM24.424 152.024H30.184V157.336H24.424V152.024ZM23.688 158.264H30.904V159.656H23.688V158.264ZM30.84 152.072H38.216V153.432H30.84V152.072ZM26.664 158.696H28.28V165.128L26.664 164.216V158.696ZM27.512 160.952H30.6V162.344H27.512V160.952ZM33.928 152.408L35.672 152.776C35.4693 153.224 35.2667 153.677 35.064 154.136C34.872 154.584 34.696 154.963 34.536 155.272L33.16 154.904C33.2987 154.552 33.4427 154.141 33.592 153.672C33.7413 153.203 33.8533 152.781 33.928 152.408ZM33.032 157.544V158.296H35.96V157.544H33.032ZM33.032 159.528V160.28H35.96V159.528H33.032ZM33.032 155.576V156.328H35.96V155.576H33.032ZM31.336 154.28H37.736V161.592H31.336V154.28ZM32.632 161.704L34.2 162.2C33.8693 162.648 33.4427 163.085 32.92 163.512C32.408 163.928 31.9013 164.275 31.4 164.552C31.304 164.456 31.1813 164.339 31.032 164.2C30.8827 164.051 30.728 163.907 30.568 163.768C30.4187 163.629 30.28 163.517 30.152 163.432C30.632 163.229 31.096 162.973 31.544 162.664C31.992 162.355 32.3547 162.035 32.632 161.704ZM24.408 160.296H25.96C25.928 161.107 25.8693 161.901 25.784 162.68C25.6987 163.448 25.5493 164.163 25.336 164.824C25.1333 165.475 24.8293 166.045 24.424 166.536C24.3067 166.333 24.136 166.099 23.912 165.832C23.6987 165.565 23.496 165.363 23.304 165.224C23.6027 164.851 23.8267 164.403 23.976 163.88C24.136 163.357 24.2427 162.792 24.296 162.184C24.36 161.565 24.3973 160.936 24.408 160.296ZM25.688 161.624C25.9227 162.296 26.2213 162.829 26.584 163.224C26.9467 163.619 27.3787 163.917 27.88 164.12C28.392 164.323 28.9787 164.456 29.64 164.52C30.3013 164.573 31.0373 164.6 31.848 164.6C32.072 164.6 32.4027 164.6 32.84 164.6C33.2773 164.6 33.7733 164.6 34.328 164.6C34.8827 164.6 35.4427 164.6 36.008 164.6C36.5733 164.589 37.0907 164.579 37.56 164.568C38.0293 164.557 38.3973 164.552 38.664 164.552C38.536 164.723 38.408 164.968 38.28 165.288C38.1627 165.608 38.0827 165.885 38.04 166.12H36.808H31.848C30.8667 166.12 29.9867 166.072 29.208 165.976C28.4293 165.88 27.7413 165.688 27.144 165.4C26.5573 165.123 26.0507 164.707 25.624 164.152C25.1973 163.597 24.84 162.872 24.552 161.976L25.688 161.624ZM34.888 162.296L36.216 161.608C36.504 161.789 36.7973 162.003 37.096 162.248C37.3947 162.483 37.672 162.723 37.928 162.968C38.1947 163.203 38.408 163.421 38.568 163.624L37.192 164.44C37.0213 164.227 36.808 163.992 36.552 163.736C36.296 163.48 36.0187 163.224 35.72 162.968C35.432 162.712 35.1547 162.488 34.888 162.296ZM26.84 176.192H32.136V177.36H26.84V176.192ZM33.608 177.136H38.2V178.608H33.608V177.136ZM27.784 179.792H31.096V180.736H27.784V179.792ZM27.784 181.408H31.096V182.352H27.784V181.408ZM26.504 177.936H32.328V179.152H26.504V177.936ZM28.616 176.64H30.232V178.32H28.616V176.64ZM27.016 178.272H28.552V183.904H27.016V178.272ZM30.248 178.304H31.8V185.44H30.248V178.304ZM25.96 183.408C26.6213 183.355 27.4107 183.285 28.328 183.2C29.2453 183.115 30.1893 183.024 31.16 182.928L31.192 184.208C30.3067 184.304 29.4213 184.4 28.536 184.496C27.6613 184.603 26.8667 184.699 26.152 184.784L25.96 183.408ZM33.528 175.84L35.144 176.144C34.952 177.136 34.6747 178.08 34.312 178.976C33.96 179.872 33.5333 180.619 33.032 181.216C32.9467 181.12 32.8293 181.003 32.68 180.864C32.5307 180.715 32.376 180.571 32.216 180.432C32.056 180.293 31.912 180.187 31.784 180.112C32.232 179.6 32.6 178.971 32.888 178.224C33.176 177.467 33.3893 176.672 33.528 175.84ZM36.056 177.872L37.752 178.032C37.4533 179.867 36.9147 181.387 36.136 182.592C35.3573 183.797 34.28 184.757 32.904 185.472C32.84 185.355 32.7387 185.211 32.6 185.04C32.472 184.869 32.3333 184.699 32.184 184.528C32.0347 184.368 31.9013 184.24 31.784 184.144C33.064 183.579 34.0453 182.779 34.728 181.744C35.4107 180.709 35.8533 179.419 36.056 177.872ZM34.328 178.672C34.5733 179.461 34.8933 180.208 35.288 180.912C35.6933 181.616 36.1787 182.235 36.744 182.768C37.32 183.301 37.9707 183.717 38.696 184.016C38.504 184.187 38.2907 184.416 38.056 184.704C37.832 185.003 37.656 185.269 37.528 185.504C36.76 185.099 36.0827 184.576 35.496 183.936C34.9093 183.296 34.408 182.555 33.992 181.712C33.576 180.859 33.2293 179.941 32.952 178.96L34.328 178.672ZM25.464 174.128H38.168V175.68H25.464V174.128ZM24.584 174.128H26.328V177.84C26.328 178.395 26.3067 179.008 26.264 179.68C26.232 180.341 26.1627 181.019 26.056 181.712C25.9493 182.405 25.7893 183.077 25.576 183.728C25.3733 184.379 25.1013 184.965 24.76 185.488C24.664 185.381 24.5253 185.253 24.344 185.104C24.1627 184.965 23.976 184.827 23.784 184.688C23.6027 184.56 23.4427 184.464 23.304 184.4C23.6987 183.76 23.9867 183.056 24.168 182.288C24.3493 181.509 24.4613 180.736 24.504 179.968C24.5573 179.189 24.584 178.475 24.584 177.824V174.128ZM27.128 171.936V172.64H28.936V171.936H27.128ZM25.448 170.96H30.712V173.632H25.448V170.96ZM33.48 171.936V172.64H35.336V171.936H33.48ZM31.8 170.96H37.112V173.632H31.8V170.96ZM23.736 202.456H38.312V203.976H23.736V202.456ZM23.832 192.248H38.2V193.752H23.832V192.248ZM24.92 200.168H37.272V201.624H24.92V200.168ZM29.96 190.904H31.896V203.224H29.96V190.904ZM35.832 189.416L36.728 190.904C35.9493 191.032 35.096 191.144 34.168 191.24C33.2507 191.325 32.296 191.4 31.304 191.464C30.312 191.528 29.3147 191.581 28.312 191.624C27.3093 191.656 26.344 191.677 25.416 191.688C25.4053 191.464 25.3573 191.213 25.272 190.936C25.1867 190.648 25.1067 190.403 25.032 190.2C25.96 190.179 26.9147 190.147 27.896 190.104C28.888 190.061 29.8587 190.008 30.808 189.944C31.768 189.88 32.6747 189.805 33.528 189.72C34.392 189.624 35.16 189.523 35.832 189.416ZM27.32 197.48V198.2H34.712V197.48H27.32ZM27.32 195.624V196.328H34.712V195.624H27.32ZM25.448 194.36H36.664V199.464H25.448V194.36ZM33.016 216.112H34.936V222.56H33.016V216.112ZM29.832 215.408H38.152V217.056H29.832V215.408ZM29.208 221.408H38.504V223.088H29.208V221.408ZM30.216 218.384H37.768V220H30.216V218.384ZM32.12 210.624V212.832H35.864V210.624H32.12ZM30.344 209.008H37.72V214.448H30.344V209.008ZM25.96 209.904H27.816V223.424H25.96V209.904ZM23.656 212.912H29.528V214.688H23.656V212.912ZM26.056 213.632L27.176 214.112C27.0267 214.688 26.8453 215.285 26.632 215.904C26.4187 216.523 26.184 217.136 25.928 217.744C25.672 218.341 25.4 218.907 25.112 219.44C24.824 219.973 24.5253 220.437 24.216 220.832C24.12 220.555 23.9813 220.245 23.8 219.904C23.6293 219.552 23.4693 219.253 23.32 219.008C23.5973 218.688 23.8693 218.315 24.136 217.888C24.4133 217.451 24.6747 216.987 24.92 216.496C25.1653 216.005 25.384 215.515 25.576 215.024C25.768 214.533 25.928 214.069 26.056 213.632ZM28.44 208.576L29.736 210.048C29.192 210.251 28.5947 210.437 27.944 210.608C27.2933 210.779 26.6267 210.928 25.944 211.056C25.272 211.173 24.6267 211.275 24.008 211.36C23.9653 211.147 23.8907 210.901 23.784 210.624C23.6773 210.336 23.5707 210.091 23.464 209.888C24.0507 209.792 24.648 209.68 25.256 209.552C25.8747 209.413 26.456 209.259 27 209.088C27.5547 208.917 28.0347 208.747 28.44 208.576ZM27.784 215.136C27.88 215.211 28.024 215.349 28.216 215.552C28.4187 215.744 28.632 215.957 28.856 216.192C29.0907 216.427 29.2987 216.645 29.48 216.848C29.6613 217.04 29.7947 217.179 29.88 217.264L28.776 218.784C28.68 218.581 28.552 218.352 28.392 218.096C28.2427 217.84 28.0773 217.573 27.896 217.296C27.7253 217.019 27.5547 216.757 27.384 216.512C27.2133 216.256 27.064 216.048 26.936 215.888L27.784 215.136ZM27.016 231.912H38.12V233.416H27.016V231.912ZM27.128 236.568H35.912V238.072H27.128V236.568ZM29.176 230.856H30.984V234.488H33.928V230.856H35.8V235.928H29.176V230.856ZM35.432 236.568H35.8L36.136 236.504L37.336 237.112C36.9093 237.976 36.3493 238.717 35.656 239.336C34.9733 239.944 34.1893 240.456 33.304 240.872C32.4293 241.288 31.48 241.619 30.456 241.864C29.432 242.12 28.36 242.323 27.24 242.472C27.1653 242.227 27.048 241.944 26.888 241.624C26.7387 241.315 26.5893 241.059 26.44 240.856C27.4533 240.771 28.4293 240.632 29.368 240.44C30.3173 240.248 31.1867 239.992 31.976 239.672C32.7653 239.352 33.4533 238.957 34.04 238.488C34.6373 238.008 35.1013 237.453 35.432 236.824V236.568ZM30.424 237.752C30.904 238.349 31.544 238.861 32.344 239.288C33.144 239.704 34.0667 240.04 35.112 240.296C36.1573 240.552 37.2987 240.733 38.536 240.84C38.3973 240.968 38.2533 241.128 38.104 241.32C37.9653 241.523 37.832 241.725 37.704 241.928C37.5867 242.131 37.4853 242.317 37.4 242.488C36.1093 242.317 34.9253 242.061 33.848 241.72C32.7707 241.379 31.8053 240.931 30.952 240.376C30.0987 239.811 29.3733 239.133 28.776 238.344L30.424 237.752ZM30.504 227.4H32.504V229.816H30.504V227.4ZM25.704 228.856H38.216V230.568H25.704V228.856ZM24.776 228.856H26.616V233.352C26.616 234.013 26.5947 234.733 26.552 235.512C26.5093 236.291 26.4293 237.091 26.312 237.912C26.1947 238.733 26.0187 239.533 25.784 240.312C25.56 241.08 25.2667 241.773 24.904 242.392C24.7973 242.285 24.648 242.157 24.456 242.008C24.264 241.869 24.0667 241.736 23.864 241.608C23.6613 241.48 23.4853 241.389 23.336 241.336C23.6667 240.771 23.928 240.147 24.12 239.464C24.312 238.781 24.456 238.088 24.552 237.384C24.648 236.669 24.7067 235.965 24.728 235.272C24.76 234.579 24.776 233.939 24.776 233.352V228.856Z" fill="#475467"/>
<path d="M196.958 63.624L198.272 64.056C197.876 64.572 197.42 65.082 196.904 65.586C196.388 66.078 195.842 66.54 195.266 66.972C194.702 67.392 194.144 67.764 193.592 68.088C193.532 67.992 193.442 67.878 193.322 67.746C193.214 67.614 193.094 67.482 192.962 67.35C192.842 67.218 192.728 67.11 192.62 67.026C193.448 66.618 194.246 66.114 195.014 65.514C195.794 64.914 196.442 64.284 196.958 63.624ZM201.566 64.398L202.484 63.606C203.036 63.93 203.612 64.302 204.212 64.722C204.812 65.13 205.376 65.544 205.904 65.964C206.444 66.372 206.882 66.744 207.218 67.08L206.228 67.998C205.904 67.662 205.484 67.278 204.968 66.846C204.452 66.414 203.894 65.982 203.294 65.55C202.706 65.118 202.13 64.734 201.566 64.398ZM200.018 66.882C199.526 67.53 198.89 68.202 198.11 68.898C197.33 69.582 196.466 70.248 195.518 70.896C194.57 71.532 193.592 72.096 192.584 72.588C192.536 72.468 192.464 72.342 192.368 72.21C192.284 72.078 192.194 71.946 192.098 71.814C192.002 71.67 191.906 71.55 191.81 71.454C192.83 70.998 193.82 70.446 194.78 69.798C195.74 69.15 196.61 68.466 197.39 67.746C198.17 67.014 198.794 66.312 199.262 65.64H200.63C201.11 66.204 201.65 66.762 202.25 67.314C202.862 67.866 203.51 68.388 204.194 68.88C204.878 69.36 205.574 69.798 206.282 70.194C207.002 70.59 207.71 70.926 208.406 71.202C208.262 71.37 208.112 71.568 207.956 71.796C207.8 72.024 207.662 72.234 207.542 72.426C206.882 72.102 206.192 71.73 205.472 71.31C204.764 70.878 204.074 70.416 203.402 69.924C202.73 69.432 202.1 68.928 201.512 68.412C200.936 67.896 200.438 67.386 200.018 66.882ZM195.05 70.41H205.004V76.386H203.636V71.616H196.346V76.458H195.05V70.41ZM195.662 74.64H204.356V75.846H195.662V74.64ZM199.262 59.88H200.648V62.22H199.262V59.88ZM192.494 61.536H207.524V64.812H206.138V62.778H193.808V64.812H192.494V61.536ZM213.68 64.686V66.486H222.572V64.686H213.68ZM213.68 61.842V63.606H222.572V61.842H213.68ZM212.348 60.708H223.922V67.62H212.348V60.708ZM213.356 69.15H224.138V70.374H213.356V69.15ZM223.796 69.15H225.164C225.164 69.15 225.158 69.186 225.146 69.258C225.146 69.33 225.14 69.414 225.128 69.51C225.128 69.606 225.122 69.69 225.11 69.762C225.002 71.106 224.882 72.198 224.75 73.038C224.63 73.878 224.498 74.526 224.354 74.982C224.21 75.426 224.048 75.744 223.868 75.936C223.7 76.116 223.514 76.242 223.31 76.314C223.118 76.386 222.89 76.428 222.626 76.44C222.398 76.464 222.08 76.47 221.672 76.458C221.276 76.458 220.85 76.446 220.394 76.422C220.382 76.254 220.346 76.056 220.286 75.828C220.226 75.6 220.142 75.402 220.034 75.234C220.478 75.282 220.886 75.312 221.258 75.324C221.642 75.336 221.912 75.342 222.068 75.342C222.236 75.342 222.368 75.33 222.464 75.306C222.56 75.282 222.65 75.222 222.734 75.126C222.878 74.994 223.01 74.724 223.13 74.316C223.25 73.896 223.364 73.29 223.472 72.498C223.592 71.694 223.7 70.65 223.796 69.366V69.15ZM214.706 67.044L216.02 67.458C215.588 68.166 215.084 68.844 214.508 69.492C213.932 70.14 213.326 70.74 212.69 71.292C212.054 71.844 211.412 72.324 210.764 72.732C210.692 72.648 210.59 72.546 210.458 72.426C210.326 72.294 210.194 72.168 210.062 72.048C209.93 71.928 209.81 71.838 209.702 71.778C210.686 71.214 211.628 70.518 212.528 69.69C213.428 68.862 214.154 67.98 214.706 67.044ZM216.668 69.528L217.946 69.906C217.514 70.758 216.992 71.562 216.38 72.318C215.768 73.074 215.114 73.77 214.418 74.406C213.722 75.042 213.002 75.6 212.258 76.08C212.198 75.996 212.102 75.888 211.97 75.756C211.838 75.636 211.706 75.516 211.574 75.396C211.442 75.276 211.328 75.18 211.232 75.108C212.348 74.472 213.386 73.668 214.346 72.696C215.306 71.712 216.08 70.656 216.668 69.528ZM220.394 69.618L221.69 69.924C221.21 71.28 220.586 72.534 219.818 73.686C219.062 74.826 218.222 75.774 217.298 76.53C217.226 76.458 217.124 76.368 216.992 76.26C216.86 76.152 216.722 76.044 216.578 75.936C216.446 75.84 216.332 75.756 216.236 75.684C217.148 74.988 217.964 74.112 218.684 73.056C219.404 72 219.974 70.854 220.394 69.618Z" fill="#475467"/>
<path d="M84.134 125.22H99.902V126.48H84.134V125.22ZM88.544 131.646H96.986V132.798H88.544V131.646ZM87.59 128.568H96.77V129.792H88.922V139.422H87.59V128.568ZM96.464 128.568H97.796V137.748C97.796 138.144 97.742 138.45 97.634 138.666C97.526 138.894 97.322 139.068 97.022 139.188C96.722 139.284 96.314 139.338 95.798 139.35C95.294 139.374 94.658 139.386 93.89 139.386C93.854 139.206 93.794 138.99 93.71 138.738C93.626 138.486 93.536 138.27 93.44 138.09C93.836 138.102 94.208 138.108 94.556 138.108C94.916 138.12 95.228 138.12 95.492 138.108C95.756 138.108 95.948 138.108 96.068 138.108C96.224 138.108 96.326 138.078 96.374 138.018C96.434 137.97 96.464 137.874 96.464 137.73V128.568ZM90.038 122.88L91.406 123.204C90.998 124.512 90.482 125.808 89.858 127.092C89.234 128.376 88.484 129.576 87.608 130.692C86.732 131.796 85.724 132.756 84.584 133.572C84.524 133.464 84.44 133.35 84.332 133.23C84.224 133.098 84.116 132.972 84.008 132.852C83.9 132.72 83.804 132.612 83.72 132.528C84.524 131.976 85.256 131.334 85.916 130.602C86.588 129.87 87.188 129.084 87.716 128.244C88.244 127.392 88.7 126.516 89.084 125.616C89.468 124.704 89.786 123.792 90.038 122.88ZM88.544 134.688H96.986V135.858H88.544V134.688ZM101.774 125.328H110.792V126.552H101.774V125.328ZM105.572 122.952H106.886V125.886H105.572V122.952ZM103.952 127.146L105.23 127.47C104.93 128.214 104.546 128.946 104.078 129.666C103.622 130.386 103.16 130.992 102.692 131.484C102.62 131.412 102.518 131.328 102.386 131.232C102.254 131.124 102.116 131.022 101.972 130.926C101.84 130.83 101.72 130.752 101.612 130.692C102.092 130.236 102.536 129.696 102.944 129.072C103.352 128.448 103.688 127.806 103.952 127.146ZM107.354 130.404L108.686 130.71C108.11 132.618 107.318 134.316 106.31 135.804C105.314 137.28 104.138 138.498 102.782 139.458C102.722 139.362 102.626 139.248 102.494 139.116C102.374 138.984 102.248 138.852 102.116 138.72C101.984 138.6 101.864 138.498 101.756 138.414C103.112 137.562 104.258 136.446 105.194 135.066C106.13 133.686 106.85 132.132 107.354 130.404ZM107.174 127.704L108.2 127.128C108.464 127.404 108.728 127.71 108.992 128.046C109.256 128.382 109.496 128.712 109.712 129.036C109.94 129.36 110.108 129.654 110.216 129.918L109.136 130.566C109.028 130.302 108.866 130.008 108.65 129.684C108.446 129.348 108.212 129.006 107.948 128.658C107.696 128.31 107.438 127.992 107.174 127.704ZM103.178 131.862L104.168 131.07C104.84 131.622 105.524 132.24 106.22 132.924C106.928 133.596 107.576 134.268 108.164 134.94C108.752 135.6 109.22 136.212 109.568 136.776L108.47 137.694C108.146 137.142 107.696 136.524 107.12 135.84C106.544 135.144 105.908 134.448 105.212 133.752C104.528 133.056 103.85 132.426 103.178 131.862ZM111.89 126.228H118.298V127.488H111.89V126.228ZM112.43 122.88L113.762 123.078C113.558 124.23 113.306 125.352 113.006 126.444C112.718 127.536 112.382 128.55 111.998 129.486C111.614 130.422 111.17 131.25 110.666 131.97C110.594 131.886 110.492 131.79 110.36 131.682C110.24 131.562 110.108 131.442 109.964 131.322C109.832 131.202 109.706 131.112 109.586 131.052C110.078 130.404 110.504 129.648 110.864 128.784C111.224 127.908 111.53 126.966 111.782 125.958C112.046 124.95 112.262 123.924 112.43 122.88ZM115.868 126.93L117.2 127.056C116.912 129.132 116.486 130.956 115.922 132.528C115.358 134.1 114.59 135.456 113.618 136.596C112.658 137.736 111.422 138.696 109.91 139.476C109.874 139.368 109.808 139.242 109.712 139.098C109.616 138.954 109.514 138.81 109.406 138.666C109.31 138.522 109.214 138.402 109.118 138.306C110.546 137.634 111.71 136.776 112.61 135.732C113.522 134.688 114.23 133.434 114.734 131.97C115.25 130.506 115.628 128.826 115.868 126.93ZM112.592 127.344C112.856 128.988 113.228 130.536 113.708 131.988C114.188 133.44 114.812 134.712 115.58 135.804C116.348 136.896 117.278 137.742 118.37 138.342C118.274 138.426 118.166 138.528 118.046 138.648C117.926 138.78 117.812 138.918 117.704 139.062C117.596 139.206 117.506 139.338 117.434 139.458C116.294 138.75 115.328 137.814 114.536 136.65C113.744 135.474 113.096 134.112 112.592 132.564C112.1 131.016 111.71 129.336 111.422 127.524L112.592 127.344ZM122.096 122.88H123.446V139.422H122.096V122.88ZM120.44 126.3L121.466 126.444C121.43 126.936 121.37 127.476 121.286 128.064C121.214 128.652 121.112 129.228 120.98 129.792C120.86 130.356 120.722 130.86 120.566 131.304L119.504 130.944C119.672 130.536 119.816 130.068 119.936 129.54C120.056 129 120.158 128.448 120.242 127.884C120.338 127.308 120.404 126.78 120.44 126.3ZM123.572 126.192L124.526 125.778C124.802 126.258 125.06 126.786 125.3 127.362C125.552 127.926 125.726 128.4 125.822 128.784L124.814 129.306C124.754 129.03 124.658 128.718 124.526 128.37C124.394 128.01 124.244 127.638 124.076 127.254C123.92 126.87 123.752 126.516 123.572 126.192ZM127.262 123.708L128.576 123.924C128.42 124.8 128.222 125.658 127.982 126.498C127.754 127.338 127.496 128.124 127.208 128.856C126.932 129.588 126.626 130.236 126.29 130.8C126.206 130.74 126.086 130.668 125.93 130.584C125.786 130.5 125.636 130.422 125.48 130.35C125.324 130.278 125.192 130.218 125.084 130.17C125.432 129.642 125.744 129.036 126.02 128.352C126.296 127.656 126.536 126.912 126.74 126.12C126.956 125.316 127.13 124.512 127.262 123.708ZM127.262 126.696H135.65V127.992H126.848L127.262 126.696ZM130.178 122.952H131.546V138.234H130.178V122.952ZM126.362 131.736H135.254V132.996H126.362V131.736ZM125.012 137.514H136.082V138.792H125.012V137.514Z" fill="#475467"/>
<path d="M94.774 185.328H103.792V186.552H94.774V185.328ZM98.572 182.952H99.886V185.886H98.572V182.952ZM96.952 187.146L98.23 187.47C97.93 188.214 97.546 188.946 97.078 189.666C96.622 190.386 96.16 190.992 95.692 191.484C95.62 191.412 95.518 191.328 95.386 191.232C95.254 191.124 95.116 191.022 94.972 190.926C94.84 190.83 94.72 190.752 94.612 190.692C95.092 190.236 95.536 189.696 95.944 189.072C96.352 188.448 96.688 187.806 96.952 187.146ZM100.354 190.404L101.686 190.71C101.11 192.618 100.318 194.316 99.31 195.804C98.314 197.28 97.138 198.498 95.782 199.458C95.722 199.362 95.626 199.248 95.494 199.116C95.374 198.984 95.248 198.852 95.116 198.72C94.984 198.6 94.864 198.498 94.756 198.414C96.112 197.562 97.258 196.446 98.194 195.066C99.13 193.686 99.85 192.132 100.354 190.404ZM100.174 187.704L101.2 187.128C101.464 187.404 101.728 187.71 101.992 188.046C102.256 188.382 102.496 188.712 102.712 189.036C102.94 189.36 103.108 189.654 103.216 189.918L102.136 190.566C102.028 190.302 101.866 190.008 101.65 189.684C101.446 189.348 101.212 189.006 100.948 188.658C100.696 188.31 100.438 187.992 100.174 187.704ZM96.178 191.862L97.168 191.07C97.84 191.622 98.524 192.24 99.22 192.924C99.928 193.596 100.576 194.268 101.164 194.94C101.752 195.6 102.22 196.212 102.568 196.776L101.47 197.694C101.146 197.142 100.696 196.524 100.12 195.84C99.544 195.144 98.908 194.448 98.212 193.752C97.528 193.056 96.85 192.426 96.178 191.862ZM104.89 186.228H111.298V187.488H104.89V186.228ZM105.43 182.88L106.762 183.078C106.558 184.23 106.306 185.352 106.006 186.444C105.718 187.536 105.382 188.55 104.998 189.486C104.614 190.422 104.17 191.25 103.666 191.97C103.594 191.886 103.492 191.79 103.36 191.682C103.24 191.562 103.108 191.442 102.964 191.322C102.832 191.202 102.706 191.112 102.586 191.052C103.078 190.404 103.504 189.648 103.864 188.784C104.224 187.908 104.53 186.966 104.782 185.958C105.046 184.95 105.262 183.924 105.43 182.88ZM108.868 186.93L110.2 187.056C109.912 189.132 109.486 190.956 108.922 192.528C108.358 194.1 107.59 195.456 106.618 196.596C105.658 197.736 104.422 198.696 102.91 199.476C102.874 199.368 102.808 199.242 102.712 199.098C102.616 198.954 102.514 198.81 102.406 198.666C102.31 198.522 102.214 198.402 102.118 198.306C103.546 197.634 104.71 196.776 105.61 195.732C106.522 194.688 107.23 193.434 107.734 191.97C108.25 190.506 108.628 188.826 108.868 186.93ZM105.592 187.344C105.856 188.988 106.228 190.536 106.708 191.988C107.188 193.44 107.812 194.712 108.58 195.804C109.348 196.896 110.278 197.742 111.37 198.342C111.274 198.426 111.166 198.528 111.046 198.648C110.926 198.78 110.812 198.918 110.704 199.062C110.596 199.206 110.506 199.338 110.434 199.458C109.294 198.75 108.328 197.814 107.536 196.65C106.744 195.474 106.096 194.112 105.592 192.564C105.1 191.016 104.71 189.336 104.422 187.524L105.592 187.344ZM120.262 182.88H121.63V185.418H120.262V182.88ZM120.262 193.158H121.63V199.494H120.262V193.158ZM112.972 194.562H129.046V195.822H112.972V194.562ZM113.512 184.896H128.542V186.156H113.512V184.896ZM127.12 186.642L128.308 187.254C127.852 187.674 127.354 188.082 126.814 188.478C126.274 188.874 125.776 189.222 125.32 189.522L124.33 188.928C124.63 188.724 124.954 188.49 125.302 188.226C125.65 187.962 125.986 187.692 126.31 187.416C126.634 187.128 126.904 186.87 127.12 186.642ZM119.974 185.85L121.144 186.318C120.808 186.774 120.448 187.242 120.064 187.722C119.68 188.19 119.32 188.592 118.984 188.928L118.102 188.532C118.318 188.28 118.54 187.998 118.768 187.686C118.996 187.374 119.212 187.056 119.416 186.732C119.632 186.408 119.818 186.114 119.974 185.85ZM122.602 187.236L123.664 187.758C123.196 188.334 122.68 188.934 122.116 189.558C121.552 190.182 120.982 190.788 120.406 191.376C119.83 191.952 119.29 192.456 118.786 192.888L117.958 192.42C118.474 191.976 119.014 191.454 119.578 190.854C120.142 190.242 120.688 189.624 121.216 189C121.756 188.364 122.218 187.776 122.602 187.236ZM117.328 188.514L117.994 187.722C118.342 187.926 118.708 188.16 119.092 188.424C119.476 188.688 119.842 188.952 120.19 189.216C120.538 189.468 120.814 189.702 121.018 189.918L120.316 190.818C120.112 190.59 119.836 190.344 119.488 190.08C119.152 189.804 118.792 189.528 118.408 189.252C118.036 188.976 117.676 188.73 117.328 188.514ZM117.094 192.006C117.682 191.982 118.348 191.958 119.092 191.934C119.848 191.898 120.646 191.856 121.486 191.808C122.338 191.76 123.196 191.718 124.06 191.682L124.042 192.672C122.818 192.768 121.618 192.858 120.442 192.942C119.266 193.026 118.216 193.104 117.292 193.176L117.094 192.006ZM121.918 190.386L122.89 189.918C123.19 190.254 123.49 190.62 123.79 191.016C124.102 191.4 124.378 191.784 124.618 192.168C124.87 192.552 125.062 192.894 125.194 193.194L124.15 193.734C124.03 193.422 123.85 193.074 123.61 192.69C123.37 192.294 123.1 191.898 122.8 191.502C122.512 191.094 122.218 190.722 121.918 190.386ZM112.9 192.384C113.476 192.168 114.166 191.892 114.97 191.556C115.774 191.22 116.596 190.878 117.436 190.53L117.688 191.556C116.98 191.892 116.266 192.228 115.546 192.564C114.826 192.9 114.166 193.2 113.566 193.464L112.9 192.384ZM113.53 187.65L114.43 186.894C114.778 187.062 115.132 187.266 115.492 187.506C115.852 187.734 116.194 187.962 116.518 188.19C116.842 188.418 117.106 188.634 117.31 188.838L116.374 189.684C116.17 189.48 115.906 189.258 115.582 189.018C115.27 188.766 114.934 188.52 114.574 188.28C114.226 188.04 113.878 187.83 113.53 187.65ZM123.988 191.088L124.924 190.314C125.392 190.542 125.884 190.806 126.4 191.106C126.928 191.394 127.426 191.688 127.894 191.988C128.362 192.276 128.752 192.546 129.064 192.798L128.074 193.662C127.786 193.41 127.408 193.134 126.94 192.834C126.484 192.522 125.998 192.216 125.482 191.916C124.966 191.604 124.468 191.328 123.988 191.088Z" fill="#475467"/>
<path d="M88.094 244.572H100.226V245.778H88.094V244.572ZM90.38 251.97H91.784V252.87H90.38V251.97ZM93.386 248.19H94.592V259.224H93.386V248.19ZM98.444 249.774H99.668V258.108C99.668 258.42 99.626 258.66 99.542 258.828C99.458 258.996 99.308 259.128 99.092 259.224C98.876 259.308 98.582 259.356 98.21 259.368C97.838 259.392 97.376 259.404 96.824 259.404C96.8 259.248 96.752 259.074 96.68 258.882C96.62 258.69 96.554 258.516 96.482 258.36C96.866 258.372 97.214 258.378 97.526 258.378C97.85 258.378 98.06 258.378 98.156 258.378C98.348 258.378 98.444 258.288 98.444 258.108V249.774ZM88.508 249.774H99.038V250.926H89.678V259.404H88.508V249.774ZM84.458 244.032L85.232 243.078C85.58 243.222 85.934 243.402 86.294 243.618C86.654 243.822 86.996 244.038 87.32 244.266C87.644 244.482 87.908 244.692 88.112 244.896L87.302 245.976C87.11 245.772 86.852 245.556 86.528 245.328C86.216 245.088 85.874 244.854 85.502 244.626C85.142 244.398 84.794 244.2 84.458 244.032ZM83.684 248.892L84.422 247.902C84.782 248.034 85.154 248.196 85.538 248.388C85.922 248.58 86.276 248.778 86.6 248.982C86.936 249.186 87.206 249.384 87.41 249.576L86.636 250.674C86.432 250.482 86.162 250.278 85.826 250.062C85.502 249.846 85.148 249.636 84.764 249.432C84.392 249.228 84.032 249.048 83.684 248.892ZM84.044 258.486C84.296 258.018 84.566 257.466 84.854 256.83C85.154 256.194 85.448 255.522 85.736 254.814C86.036 254.094 86.306 253.404 86.546 252.744L87.626 253.446C87.41 254.07 87.164 254.724 86.888 255.408C86.624 256.08 86.354 256.746 86.078 257.406C85.802 258.054 85.532 258.654 85.268 259.206L84.044 258.486ZM90.812 242.862H92.09V247.308H95.996V242.862H97.328V248.478H90.812V242.862ZM91.154 251.97H92.108C92.144 252.99 92.276 253.89 92.504 254.67C92.744 255.438 93.074 256.014 93.494 256.398C93.398 256.458 93.284 256.548 93.152 256.668C93.02 256.788 92.918 256.908 92.846 257.028C92.414 256.572 92.072 255.948 91.82 255.156C91.58 254.364 91.436 253.458 91.388 252.438H91.154V251.97ZM91.172 253.572H92C91.916 254.256 91.742 254.922 91.478 255.57C91.226 256.206 90.854 256.734 90.362 257.154C90.29 257.058 90.194 256.956 90.074 256.848C89.954 256.728 89.846 256.638 89.75 256.578C90.182 256.23 90.512 255.78 90.74 255.228C90.968 254.676 91.112 254.124 91.172 253.572ZM95.258 251.97H96.626V252.87H95.258V251.97ZM96.014 251.97H96.986C97.034 252.99 97.184 253.884 97.436 254.652C97.7 255.42 98.06 255.984 98.516 256.344C98.408 256.404 98.288 256.5 98.156 256.632C98.024 256.752 97.922 256.866 97.85 256.974C97.394 256.53 97.028 255.918 96.752 255.138C96.476 254.358 96.308 253.458 96.248 252.438H96.014V251.97ZM96.068 253.554H96.914C96.818 254.226 96.638 254.874 96.374 255.498C96.122 256.11 95.738 256.614 95.222 257.01C95.162 256.926 95.066 256.824 94.934 256.704C94.814 256.584 94.706 256.494 94.61 256.434C95.054 256.11 95.39 255.684 95.618 255.156C95.846 254.628 95.996 254.094 96.068 253.554ZM105.626 253.356H114.464V252.15H105.626V253.356ZM105.626 251.25H114.464V250.044H105.626V251.25ZM115.796 249.126V254.292H104.348V249.126H115.796ZM114.32 245.328C114.128 245.7 113.93 246.06 113.726 246.408C113.534 246.744 113.348 247.044 113.168 247.308L111.98 247.002C112.136 246.714 112.304 246.384 112.484 246.012C112.676 245.628 112.826 245.292 112.934 245.004L114.32 245.328ZM107.066 245.022C107.246 245.334 107.414 245.67 107.57 246.03C107.738 246.39 107.858 246.702 107.93 246.966L106.634 247.308C106.574 247.032 106.472 246.708 106.328 246.336C106.184 245.952 106.022 245.61 105.842 245.31L107.066 245.022ZM110.648 242.88V244.842H109.298V242.88H110.648ZM117.794 247.11V248.208H102.314V247.11H117.794ZM116.858 244.068V245.184H103.124V244.068H116.858ZM105.446 255.606C105.194 256.254 104.858 256.89 104.438 257.514C104.03 258.126 103.49 258.63 102.818 259.026L101.756 258.306C102.38 257.958 102.908 257.502 103.34 256.938C103.772 256.362 104.096 255.78 104.312 255.192L105.446 255.606ZM115.076 255.03C115.472 255.33 115.88 255.666 116.3 256.038C116.72 256.41 117.104 256.788 117.452 257.172C117.812 257.544 118.094 257.892 118.298 258.216L117.182 258.918C116.99 258.594 116.72 258.24 116.372 257.856C116.036 257.472 115.664 257.088 115.256 256.704C114.86 256.308 114.452 255.96 114.032 255.66L115.076 255.03ZM109.01 254.274C109.358 254.442 109.718 254.64 110.09 254.868C110.474 255.084 110.828 255.306 111.152 255.534C111.488 255.75 111.764 255.954 111.98 256.146L111.188 256.956C110.984 256.764 110.714 256.554 110.378 256.326C110.054 256.086 109.706 255.852 109.334 255.624C108.962 255.384 108.608 255.168 108.272 254.976L109.01 254.274ZM107.678 257.64C107.678 257.856 107.744 257.994 107.876 258.054C108.008 258.114 108.308 258.144 108.776 258.144C108.884 258.144 109.076 258.144 109.352 258.144C109.64 258.144 109.958 258.144 110.306 258.144C110.654 258.144 110.978 258.144 111.278 258.144C111.59 258.144 111.818 258.144 111.962 258.144C112.214 258.144 112.4 258.102 112.52 258.018C112.652 257.946 112.742 257.778 112.79 257.514C112.85 257.25 112.892 256.854 112.916 256.326C113.072 256.422 113.264 256.512 113.492 256.596C113.72 256.68 113.924 256.74 114.104 256.776C114.056 257.46 113.966 257.976 113.834 258.324C113.702 258.684 113.498 258.93 113.222 259.062C112.946 259.206 112.562 259.278 112.07 259.278C111.998 259.278 111.842 259.278 111.602 259.278C111.374 259.278 111.11 259.278 110.81 259.278C110.522 259.278 110.228 259.278 109.928 259.278C109.628 259.278 109.358 259.278 109.118 259.278C108.89 259.278 108.74 259.278 108.668 259.278C108.056 259.278 107.582 259.23 107.246 259.134C106.922 259.05 106.694 258.888 106.562 258.648C106.43 258.408 106.364 258.072 106.364 257.64V255.318H107.678V257.64ZM123.05 247.92H135.866V249.036H123.05V247.92ZM123.302 253.176H133.616V254.292H123.302V253.176ZM125.948 246.354H127.244V250.944H131.618V246.354H132.95V252.024H125.948V246.354ZM133.256 253.176H133.526L133.76 253.122L134.606 253.572C134.114 254.508 133.472 255.318 132.68 256.002C131.888 256.674 130.988 257.238 129.98 257.694C128.972 258.15 127.892 258.516 126.74 258.792C125.588 259.08 124.4 259.296 123.176 259.44C123.14 259.284 123.062 259.092 122.942 258.864C122.834 258.636 122.72 258.45 122.6 258.306C123.74 258.186 124.856 258.012 125.948 257.784C127.04 257.544 128.06 257.226 129.008 256.83C129.968 256.434 130.814 255.954 131.546 255.39C132.278 254.826 132.848 254.154 133.256 253.374V253.176ZM126.506 254.112C127.082 254.916 127.856 255.606 128.828 256.182C129.812 256.758 130.94 257.22 132.212 257.568C133.484 257.916 134.846 258.162 136.298 258.306C136.214 258.402 136.118 258.522 136.01 258.666C135.914 258.81 135.818 258.948 135.722 259.08C135.638 259.224 135.566 259.356 135.506 259.476C134.03 259.284 132.644 258.978 131.348 258.558C130.052 258.15 128.888 257.616 127.856 256.956C126.836 256.284 126.002 255.486 125.354 254.562L126.506 254.112ZM127.838 242.88H129.224V245.346H127.838V242.88ZM121.844 244.662H135.974V245.886H121.844V244.662ZM121.178 244.662H122.474V249.864C122.474 250.56 122.45 251.322 122.402 252.15C122.366 252.978 122.282 253.824 122.15 254.688C122.03 255.552 121.85 256.392 121.61 257.208C121.382 258.024 121.07 258.774 120.674 259.458C120.602 259.386 120.494 259.296 120.35 259.188C120.218 259.092 120.08 258.996 119.936 258.9C119.804 258.816 119.678 258.756 119.558 258.72C119.93 258.072 120.224 257.376 120.44 256.632C120.656 255.876 120.818 255.102 120.926 254.31C121.034 253.518 121.1 252.744 121.124 251.988C121.16 251.22 121.178 250.512 121.178 249.864V244.662Z" fill="#475467"/>
<path d="M294.728 63.102H309.236V71.562H307.85V64.416H296.078V71.652H294.728V63.102ZM295.448 69.204H308.66V70.536H295.448V69.204ZM301.244 59.88H302.666V76.422H301.244V59.88ZM319.28 64.002H320.666V68.7H319.28V64.002ZM313.646 65.226H326.498V66.378H313.646V65.226ZM311.864 67.998H328.208V69.186H311.864V67.998ZM312.44 70.77H327.722V71.958H312.44V70.77ZM322.97 68.952H324.338V74.838C324.338 75.234 324.284 75.534 324.176 75.738C324.068 75.942 323.858 76.104 323.546 76.224C323.246 76.32 322.838 76.374 322.322 76.386C321.818 76.41 321.194 76.422 320.45 76.422C320.414 76.23 320.342 76.014 320.234 75.774C320.138 75.534 320.042 75.324 319.946 75.144C320.354 75.156 320.732 75.162 321.08 75.162C321.44 75.174 321.746 75.18 321.998 75.18C322.262 75.18 322.448 75.174 322.556 75.162C322.724 75.15 322.832 75.12 322.88 75.072C322.94 75.036 322.97 74.952 322.97 74.82V68.952ZM313.934 61.392H319.784V62.544H313.934V61.392ZM320.882 61.392H328.01V62.544H320.882V61.392ZM314.348 59.79L315.626 60.132C315.278 61.02 314.846 61.878 314.33 62.706C313.814 63.522 313.28 64.212 312.728 64.776C312.644 64.704 312.53 64.62 312.386 64.524C312.254 64.428 312.116 64.332 311.972 64.236C311.828 64.14 311.702 64.068 311.594 64.02C312.158 63.492 312.68 62.856 313.16 62.112C313.652 61.356 314.048 60.582 314.348 59.79ZM321.404 59.79L322.7 60.096C322.4 60.96 321.998 61.776 321.494 62.544C321.002 63.312 320.474 63.96 319.91 64.488C319.826 64.404 319.712 64.314 319.568 64.218C319.436 64.122 319.298 64.026 319.154 63.93C319.022 63.834 318.902 63.756 318.794 63.696C319.346 63.228 319.856 62.652 320.324 61.968C320.792 61.272 321.152 60.546 321.404 59.79ZM315.014 62.256L316.166 61.878C316.358 62.226 316.55 62.616 316.742 63.048C316.934 63.48 317.066 63.846 317.138 64.146L315.932 64.596C315.872 64.284 315.752 63.912 315.572 63.48C315.404 63.036 315.218 62.628 315.014 62.256ZM322.502 62.274L323.618 61.824C323.918 62.172 324.212 62.568 324.5 63.012C324.8 63.456 325.022 63.846 325.166 64.182L323.996 64.686C323.876 64.35 323.672 63.96 323.384 63.516C323.108 63.06 322.814 62.646 322.502 62.274ZM315.014 72.732L316.004 71.958C316.4 72.198 316.796 72.474 317.192 72.786C317.588 73.098 317.954 73.416 318.29 73.74C318.638 74.064 318.914 74.37 319.118 74.658L318.074 75.522C317.882 75.234 317.618 74.922 317.282 74.586C316.958 74.25 316.598 73.926 316.202 73.614C315.806 73.29 315.41 72.996 315.014 72.732Z" fill="#475467"/>
<path d="M395.924 65.172H406.202V66.342H395.924V65.172ZM401.9 65.658C402.2 66.426 402.584 67.176 403.052 67.908C403.52 68.64 404.048 69.3 404.636 69.888C405.224 70.476 405.83 70.95 406.454 71.31C406.31 71.418 406.154 71.574 405.986 71.778C405.818 71.97 405.68 72.144 405.572 72.3C404.936 71.88 404.324 71.34 403.736 70.68C403.16 70.02 402.638 69.282 402.17 68.466C401.702 67.65 401.312 66.81 401 65.946L401.9 65.658ZM400.316 62.67H401.576V73.398H400.316V62.67ZM399.992 65.586L400.946 65.874C400.646 66.75 400.256 67.602 399.776 68.43C399.308 69.258 398.786 70.014 398.21 70.698C397.634 71.37 397.034 71.928 396.41 72.372C396.314 72.216 396.182 72.048 396.014 71.868C395.846 71.676 395.696 71.526 395.564 71.418C396.176 71.046 396.764 70.554 397.328 69.942C397.892 69.33 398.402 68.646 398.858 67.89C399.326 67.134 399.704 66.366 399.992 65.586ZM393.512 60.726H408.524V76.476H407.138V61.986H394.862V76.476H393.512V60.726ZM394.268 74.37H407.678V75.63H394.268V74.37ZM411.368 69.15H418.478V70.194H411.368V69.15ZM410.756 71.418H418.91V72.516H410.756V71.418ZM410.846 61.554H418.946V62.652H410.846V61.554ZM412.592 59.88H413.78V63.858H412.592V59.88ZM416.048 59.88H417.236V63.858H416.048V59.88ZM414.266 64.596H415.4V67.584H414.266V64.596ZM412.412 65.208V67.062H417.29V65.208H412.412ZM411.332 64.254H418.424V68.034H411.332V64.254ZM414.878 72.552C415.058 72.648 415.322 72.816 415.67 73.056C416.018 73.284 416.39 73.536 416.786 73.812C417.194 74.076 417.566 74.328 417.902 74.568C418.238 74.808 418.484 74.982 418.64 75.09L417.83 76.206C417.638 76.026 417.38 75.804 417.056 75.54C416.732 75.276 416.384 75 416.012 74.712C415.64 74.424 415.286 74.154 414.95 73.902C414.614 73.638 414.332 73.428 414.104 73.272L414.878 72.552ZM414.212 67.422H415.472V70.5C415.472 71.004 415.424 71.526 415.328 72.066C415.232 72.606 415.046 73.14 414.77 73.668C414.506 74.196 414.104 74.7 413.564 75.18C413.036 75.672 412.328 76.11 411.44 76.494C411.344 76.362 411.212 76.2 411.044 76.008C410.888 75.828 410.738 75.678 410.594 75.558C411.41 75.246 412.058 74.88 412.538 74.46C413.018 74.04 413.378 73.602 413.618 73.146C413.858 72.678 414.014 72.216 414.086 71.76C414.17 71.304 414.212 70.878 414.212 70.482V67.422ZM420.224 66.972H427.01V68.142H420.224V66.972ZM420.224 70.59H427.01V71.76H420.224V70.59ZM420.188 74.262H427.334V75.504H420.188V74.262ZM421.016 59.88L422.258 60.168C422.03 61.056 421.754 61.932 421.43 62.796C421.106 63.66 420.752 64.476 420.368 65.244C419.996 66 419.6 66.672 419.18 67.26C419.108 67.188 419.006 67.098 418.874 66.99C418.754 66.882 418.628 66.774 418.496 66.666C418.364 66.558 418.25 66.474 418.154 66.414C418.562 65.874 418.94 65.256 419.288 64.56C419.648 63.852 419.972 63.102 420.26 62.31C420.56 61.506 420.812 60.696 421.016 59.88ZM424.364 60.06L425.66 60.384C425.432 61.02 425.18 61.674 424.904 62.346C424.628 63.018 424.364 63.588 424.112 64.056L423.014 63.75C423.182 63.426 423.35 63.048 423.518 62.616C423.686 62.172 423.842 61.728 423.986 61.284C424.142 60.828 424.268 60.42 424.364 60.06ZM421.034 63.318H427.118V64.542H421.034V76.458H419.792V64.596L420.98 63.318H421.034ZM423.284 63.858H424.508V74.91H423.284V63.858Z" fill="#475467"/>
<g opacity="0.15">
<rect width="99" height="60" transform="translate(361 221)" fill="#1368AA"/>
</g>
<path d="M417.354 241.492L418.398 242.518C416.004 243.274 412.404 243.832 409.308 244.174C409.254 243.868 409.074 243.382 408.93 243.076C411.918 242.752 415.41 242.14 417.354 241.492ZM408.552 242.716L409.866 243.148V253.714H408.552V242.716ZM407.346 253.48C409.056 253.21 411.576 252.778 414.042 252.31L414.114 253.534C411.828 253.966 409.434 254.416 407.634 254.74L407.346 253.48ZM409.308 247.198H419.262V248.44H409.308V247.198ZM413.466 243.094H414.834C414.852 249.898 416.364 255.442 417.912 255.424C418.272 255.424 418.452 254.704 418.524 252.94C418.812 253.228 419.28 253.498 419.604 253.624C419.406 256.072 418.938 256.756 417.786 256.756C415.068 256.756 413.61 250.33 413.466 243.094ZM407.886 255.766H415.554V256.972H407.886V255.766ZM406.752 240.952L408.03 241.348C406.842 244.408 404.988 247.45 403.044 249.466C402.9 249.16 402.522 248.44 402.27 248.134C404.052 246.388 405.744 243.688 406.752 240.952ZM404.88 245.596L406.14 244.318L406.176 244.336V257.422H404.88V245.596Z" fill="#242424"/>
<g opacity="0.15">
<rect width="100" height="60" transform="translate(260 221)" fill="#1368AA"/>
</g>
<path d="M316.354 241.492L317.398 242.518C315.004 243.274 311.404 243.832 308.308 244.174C308.254 243.868 308.074 243.382 307.93 243.076C310.918 242.752 314.41 242.14 316.354 241.492ZM307.552 242.716L308.866 243.148V253.714H307.552V242.716ZM306.346 253.48C308.056 253.21 310.576 252.778 313.042 252.31L313.114 253.534C310.828 253.966 308.434 254.416 306.634 254.74L306.346 253.48ZM308.308 247.198H318.262V248.44H308.308V247.198ZM312.466 243.094H313.834C313.852 249.898 315.364 255.442 316.912 255.424C317.272 255.424 317.452 254.704 317.524 252.94C317.812 253.228 318.28 253.498 318.604 253.624C318.406 256.072 317.938 256.756 316.786 256.756C314.068 256.756 312.61 250.33 312.466 243.094ZM306.886 255.766H314.554V256.972H306.886V255.766ZM305.752 240.952L307.03 241.348C305.842 244.408 303.988 247.45 302.044 249.466C301.9 249.16 301.522 248.44 301.27 248.134C303.052 246.388 304.744 243.688 305.752 240.952ZM303.88 245.596L305.14 244.318L305.176 244.336V257.422H303.88V245.596Z" fill="#242424"/>
<g opacity="0.15">
<rect width="99" height="63" transform="translate(361 158)" fill="#1368AA"/>
</g>
<path d="M417.354 181.492L418.398 182.518C416.004 183.274 412.404 183.832 409.308 184.174C409.254 183.868 409.074 183.382 408.93 183.076C411.918 182.752 415.41 182.14 417.354 181.492ZM408.552 182.716L409.866 183.148V193.714H408.552V182.716ZM407.346 193.48C409.056 193.21 411.576 192.778 414.042 192.31L414.114 193.534C411.828 193.966 409.434 194.416 407.634 194.74L407.346 193.48ZM409.308 187.198H419.262V188.44H409.308V187.198ZM413.466 183.094H414.834C414.852 189.898 416.364 195.442 417.912 195.424C418.272 195.424 418.452 194.704 418.524 192.94C418.812 193.228 419.28 193.498 419.604 193.624C419.406 196.072 418.938 196.756 417.786 196.756C415.068 196.756 413.61 190.33 413.466 183.094ZM407.886 195.766H415.554V196.972H407.886V195.766ZM406.752 180.952L408.03 181.348C406.842 184.408 404.988 187.45 403.044 189.466C402.9 189.16 402.522 188.44 402.27 188.134C404.052 186.388 405.744 183.688 406.752 180.952ZM404.88 185.596L406.14 184.318L406.176 184.336V197.422H404.88V185.596Z" fill="#242424"/>
<g opacity="0.5">
<rect width="100" height="61" transform="translate(260 159)" fill="#1368AA"/>
</g>
<path d="M302.728 184.102H317.236V192.58H315.832V185.434H304.078V192.67H302.728V184.102ZM303.448 190.222H316.642V191.536H303.448V190.222ZM309.244 180.88H310.648V197.422H309.244V180.88Z" fill="white"/>
<g opacity="0.5">
<rect width="99" height="61" transform="translate(361 97)" fill="#1368AA"/>
</g>
<path d="M402.728 122.102H417.236V130.58H415.832V123.434H404.078V130.67H402.728V122.102ZM403.448 128.222H416.642V129.536H403.448V128.222ZM409.244 118.88H410.648V135.422H409.244V118.88Z" fill="white"/>
<g opacity="0.5">
<rect width="102" height="61" transform="translate(158 221)" fill="#1368AA"/>
</g>
<path d="M202.728 244.102H217.236V252.58H215.832V245.434H204.078V252.67H202.728V244.102ZM203.448 250.222H216.642V251.536H203.448V250.222ZM209.244 240.88H210.648V257.422H209.244V240.88Z" fill="white"/>
<g opacity="0.9">
<rect width="102" height="61" transform="translate(158 159)" fill="#1368AA"/>
<path d="M182.17 182.608H197.812V183.778H182.17V182.608ZM189.208 180.88H190.594V183.166H189.208V180.88ZM182.962 189.646H196.336V190.798H184.276V197.458H182.962V189.646ZM195.778 189.646H197.128V195.838C197.128 196.576 196.966 196.972 196.39 197.206C195.814 197.404 194.842 197.422 193.348 197.422C193.294 197.044 193.096 196.504 192.898 196.144C194.086 196.18 195.094 196.18 195.4 196.144C195.706 196.144 195.778 196.054 195.778 195.802V189.646ZM186.562 191.968H187.768V196.684H186.562V191.968ZM187.21 191.968H193.438V195.766H187.21V194.794H192.214V192.94H187.21V191.968ZM186.454 185.776V187.522H193.492V185.776H186.454ZM185.158 184.786H194.86V188.512H185.158V184.786ZM204.76 181.69H215.956V182.734H204.76V181.69ZM206.758 185.218H213.922V185.92H206.758V185.218ZM206.758 186.712H213.922V187.414H206.758V186.712ZM206.038 183.67H214.57V188.656H213.31V184.462H207.28V188.656H206.038V183.67ZM204.256 188.206H216.262V190.636H215.038V189.07H205.444V190.636H204.256V188.206ZM206.578 189.61L207.478 190.114C207.01 190.816 206.326 191.644 205.516 192.148L204.67 191.446C205.444 191.032 206.146 190.276 206.578 189.61ZM207.658 189.574H208.774V190.708C208.774 191.032 208.882 191.104 209.494 191.104C209.782 191.104 211.33 191.104 211.726 191.104C212.14 191.104 212.23 190.996 212.302 190.294C212.518 190.42 212.932 190.546 213.22 190.6C213.112 191.644 212.806 191.914 211.888 191.914C211.582 191.914 209.674 191.914 209.386 191.914C208.018 191.914 207.658 191.698 207.658 190.708V189.574ZM208.954 189.178L209.746 188.638C210.43 189.016 211.24 189.574 211.636 190.042L210.826 190.618C210.43 190.168 209.656 189.556 208.954 189.178ZM212.914 190.042L213.778 189.556C214.552 190.15 215.452 191.014 215.866 191.644L214.966 192.166C214.57 191.554 213.688 190.672 212.914 190.042ZM208.594 191.536L209.854 191.806C208.684 193.084 207.028 194.2 204.796 195.118C204.616 194.848 204.256 194.452 204.004 194.272C206.11 193.534 207.712 192.508 208.594 191.536ZM213.238 192.688H213.508L213.76 192.634L214.606 193.102C213.076 195.37 209.602 196.81 204.562 197.476C204.436 197.188 204.148 196.756 203.896 196.468C208.702 195.946 212.05 194.614 213.238 192.904V192.688ZM207.586 193.192C209.17 195.028 212.644 196.072 216.478 196.396C216.208 196.666 215.884 197.17 215.722 197.512C211.78 197.062 208.288 195.82 206.47 193.606L207.586 193.192ZM207.892 192.688H213.616V193.552H207.028L207.892 192.688ZM209.512 182.176L210.988 182.338C210.718 183.022 210.466 183.706 210.25 184.192L209.08 184.012C209.242 183.436 209.44 182.698 209.512 182.176ZM203.176 180.988L204.436 181.33C203.41 184.444 201.808 187.612 200.026 189.718C199.9 189.394 199.54 188.674 199.306 188.332C200.89 186.532 202.312 183.76 203.176 180.988ZM201.736 185.398L202.978 184.156L203.014 184.192V197.44H201.736V185.398ZM227.638 189.574H228.988V195.244C228.988 195.784 229.114 195.874 229.798 195.874C230.104 195.874 231.652 195.874 232.084 195.874C232.75 195.874 232.84 195.514 232.912 193.174C233.218 193.408 233.794 193.624 234.172 193.714C234.028 196.45 233.632 197.17 232.174 197.17C231.832 197.17 229.978 197.17 229.636 197.17C228.034 197.17 227.638 196.72 227.638 195.226V189.574ZM218.098 188.638H233.92V189.934H218.098V188.638ZM221.05 183.688H232.624V185.002H221.05V183.688ZM222.832 189.628H224.236C223.876 193.3 222.94 196.09 218.71 197.548C218.548 197.188 218.152 196.666 217.846 196.396C221.788 195.172 222.526 192.76 222.832 189.628ZM221.41 181.312L222.778 181.582C222.22 183.634 221.266 186.154 220.006 187.756C219.7 187.54 219.16 187.252 218.836 187.108C220.06 185.596 220.978 183.184 221.41 181.312ZM225.316 180.898H226.684V189.052H225.316V180.898Z" fill="white"/>
</g>
<g opacity="0.9">
<rect width="102" height="62" transform="translate(158 96)" fill="#1368AA"/>
<path d="M183.17 119.608H198.812V120.778H183.17V119.608ZM190.208 117.88H191.594V120.166H190.208V117.88ZM183.962 126.646H197.336V127.798H185.276V134.458H183.962V126.646ZM196.778 126.646H198.128V132.838C198.128 133.576 197.966 133.972 197.39 134.206C196.814 134.404 195.842 134.422 194.348 134.422C194.294 134.044 194.096 133.504 193.898 133.144C195.086 133.18 196.094 133.18 196.4 133.144C196.706 133.144 196.778 133.054 196.778 132.802V126.646ZM187.562 128.968H188.768V133.684H187.562V128.968ZM188.21 128.968H194.438V132.766H188.21V131.794H193.214V129.94H188.21V128.968ZM187.454 122.776V124.522H194.492V122.776H187.454ZM186.158 121.786H195.86V125.512H186.158V121.786ZM205.76 118.69H216.956V119.734H205.76V118.69ZM207.758 122.218H214.922V122.92H207.758V122.218ZM207.758 123.712H214.922V124.414H207.758V123.712ZM207.038 120.67H215.57V125.656H214.31V121.462H208.28V125.656H207.038V120.67ZM205.256 125.206H217.262V127.636H216.038V126.07H206.444V127.636H205.256V125.206ZM207.578 126.61L208.478 127.114C208.01 127.816 207.326 128.644 206.516 129.148L205.67 128.446C206.444 128.032 207.146 127.276 207.578 126.61ZM208.658 126.574H209.774V127.708C209.774 128.032 209.882 128.104 210.494 128.104C210.782 128.104 212.33 128.104 212.726 128.104C213.14 128.104 213.23 127.996 213.302 127.294C213.518 127.42 213.932 127.546 214.22 127.6C214.112 128.644 213.806 128.914 212.888 128.914C212.582 128.914 210.674 128.914 210.386 128.914C209.018 128.914 208.658 128.698 208.658 127.708V126.574ZM209.954 126.178L210.746 125.638C211.43 126.016 212.24 126.574 212.636 127.042L211.826 127.618C211.43 127.168 210.656 126.556 209.954 126.178ZM213.914 127.042L214.778 126.556C215.552 127.15 216.452 128.014 216.866 128.644L215.966 129.166C215.57 128.554 214.688 127.672 213.914 127.042ZM209.594 128.536L210.854 128.806C209.684 130.084 208.028 131.2 205.796 132.118C205.616 131.848 205.256 131.452 205.004 131.272C207.11 130.534 208.712 129.508 209.594 128.536ZM214.238 129.688H214.508L214.76 129.634L215.606 130.102C214.076 132.37 210.602 133.81 205.562 134.476C205.436 134.188 205.148 133.756 204.896 133.468C209.702 132.946 213.05 131.614 214.238 129.904V129.688ZM208.586 130.192C210.17 132.028 213.644 133.072 217.478 133.396C217.208 133.666 216.884 134.17 216.722 134.512C212.78 134.062 209.288 132.82 207.47 130.606L208.586 130.192ZM208.892 129.688H214.616V130.552H208.028L208.892 129.688ZM210.512 119.176L211.988 119.338C211.718 120.022 211.466 120.706 211.25 121.192L210.08 121.012C210.242 120.436 210.44 119.698 210.512 119.176ZM204.176 117.988L205.436 118.33C204.41 121.444 202.808 124.612 201.026 126.718C200.9 126.394 200.54 125.674 200.306 125.332C201.89 123.532 203.312 120.76 204.176 117.988ZM202.736 122.398L203.978 121.156L204.014 121.192V134.44H202.736V122.398ZM228.638 126.574H229.988V132.244C229.988 132.784 230.114 132.874 230.798 132.874C231.104 132.874 232.652 132.874 233.084 132.874C233.75 132.874 233.84 132.514 233.912 130.174C234.218 130.408 234.794 130.624 235.172 130.714C235.028 133.45 234.632 134.17 233.174 134.17C232.832 134.17 230.978 134.17 230.636 134.17C229.034 134.17 228.638 133.72 228.638 132.226V126.574ZM219.098 125.638H234.92V126.934H219.098V125.638ZM222.05 120.688H233.624V122.002H222.05V120.688ZM223.832 126.628H225.236C224.876 130.3 223.94 133.09 219.71 134.548C219.548 134.188 219.152 133.666 218.846 133.396C222.788 132.172 223.526 129.76 223.832 126.628ZM222.41 118.312L223.778 118.582C223.22 120.634 222.266 123.154 221.006 124.756C220.7 124.54 220.16 124.252 219.836 124.108C221.06 122.596 221.978 120.184 222.41 118.312ZM226.316 117.898H227.684V126.052H226.316V117.898Z" fill="white"/>
</g>
<g opacity="0.9">
<rect width="101" height="61" transform="translate(260 97)" fill="#1368AA"/>
<path d="M284.17 120.608H299.812V121.778H284.17V120.608ZM291.208 118.88H292.594V121.166H291.208V118.88ZM284.962 127.646H298.336V128.798H286.276V135.458H284.962V127.646ZM297.778 127.646H299.128V133.838C299.128 134.576 298.966 134.972 298.39 135.206C297.814 135.404 296.842 135.422 295.348 135.422C295.294 135.044 295.096 134.504 294.898 134.144C296.086 134.18 297.094 134.18 297.4 134.144C297.706 134.144 297.778 134.054 297.778 133.802V127.646ZM288.562 129.968H289.768V134.684H288.562V129.968ZM289.21 129.968H295.438V133.766H289.21V132.794H294.214V130.94H289.21V129.968ZM288.454 123.776V125.522H295.492V123.776H288.454ZM287.158 122.786H296.86V126.512H287.158V122.786ZM306.76 119.69H317.956V120.734H306.76V119.69ZM308.758 123.218H315.922V123.92H308.758V123.218ZM308.758 124.712H315.922V125.414H308.758V124.712ZM308.038 121.67H316.57V126.656H315.31V122.462H309.28V126.656H308.038V121.67ZM306.256 126.206H318.262V128.636H317.038V127.07H307.444V128.636H306.256V126.206ZM308.578 127.61L309.478 128.114C309.01 128.816 308.326 129.644 307.516 130.148L306.67 129.446C307.444 129.032 308.146 128.276 308.578 127.61ZM309.658 127.574H310.774V128.708C310.774 129.032 310.882 129.104 311.494 129.104C311.782 129.104 313.33 129.104 313.726 129.104C314.14 129.104 314.23 128.996 314.302 128.294C314.518 128.42 314.932 128.546 315.22 128.6C315.112 129.644 314.806 129.914 313.888 129.914C313.582 129.914 311.674 129.914 311.386 129.914C310.018 129.914 309.658 129.698 309.658 128.708V127.574ZM310.954 127.178L311.746 126.638C312.43 127.016 313.24 127.574 313.636 128.042L312.826 128.618C312.43 128.168 311.656 127.556 310.954 127.178ZM314.914 128.042L315.778 127.556C316.552 128.15 317.452 129.014 317.866 129.644L316.966 130.166C316.57 129.554 315.688 128.672 314.914 128.042ZM310.594 129.536L311.854 129.806C310.684 131.084 309.028 132.2 306.796 133.118C306.616 132.848 306.256 132.452 306.004 132.272C308.11 131.534 309.712 130.508 310.594 129.536ZM315.238 130.688H315.508L315.76 130.634L316.606 131.102C315.076 133.37 311.602 134.81 306.562 135.476C306.436 135.188 306.148 134.756 305.896 134.468C310.702 133.946 314.05 132.614 315.238 130.904V130.688ZM309.586 131.192C311.17 133.028 314.644 134.072 318.478 134.396C318.208 134.666 317.884 135.17 317.722 135.512C313.78 135.062 310.288 133.82 308.47 131.606L309.586 131.192ZM309.892 130.688H315.616V131.552H309.028L309.892 130.688ZM311.512 120.176L312.988 120.338C312.718 121.022 312.466 121.706 312.25 122.192L311.08 122.012C311.242 121.436 311.44 120.698 311.512 120.176ZM305.176 118.988L306.436 119.33C305.41 122.444 303.808 125.612 302.026 127.718C301.9 127.394 301.54 126.674 301.306 126.332C302.89 124.532 304.312 121.76 305.176 118.988ZM303.736 123.398L304.978 122.156L305.014 122.192V135.44H303.736V123.398ZM329.638 127.574H330.988V133.244C330.988 133.784 331.114 133.874 331.798 133.874C332.104 133.874 333.652 133.874 334.084 133.874C334.75 133.874 334.84 133.514 334.912 131.174C335.218 131.408 335.794 131.624 336.172 131.714C336.028 134.45 335.632 135.17 334.174 135.17C333.832 135.17 331.978 135.17 331.636 135.17C330.034 135.17 329.638 134.72 329.638 133.226V127.574ZM320.098 126.638H335.92V127.934H320.098V126.638ZM323.05 121.688H334.624V123.002H323.05V121.688ZM324.832 127.628H326.236C325.876 131.3 324.94 134.09 320.71 135.548C320.548 135.188 320.152 134.666 319.846 134.396C323.788 133.172 324.526 130.76 324.832 127.628ZM323.41 119.312L324.778 119.582C324.22 121.634 323.266 124.154 322.006 125.756C321.7 125.54 321.16 125.252 320.836 125.108C322.06 123.596 322.978 121.184 323.41 119.312ZM327.316 118.898H328.684V127.052H327.316V118.898Z" fill="white"/>
</g>
<line x1="4.37114e-08" y1="44.5" x2="460" y2="44.5" stroke="#1368AA"/>
<line x1="-4.37114e-08" y1="96.5" x2="460" y2="96.5" stroke="#1368AA"/>
<line x1="64" y1="158.5" x2="460" y2="158.5" stroke="#1368AA"/>
<line x1="64" y1="220.5" x2="460" y2="220.5" stroke="#1368AA"/>
<path d="M169.502 306.452H174.704V307.496H169.502V306.452ZM169.502 309.512H174.704V310.538H169.502V309.512ZM169.502 312.626H174.704V313.706H169.502V312.626ZM177.17 310.394H184.01V311.582H177.17V310.394ZM170.438 303.482H173.408V304.562H170.438V303.482ZM176 302.798H183.038V303.932H176V302.798ZM175.784 313.76H184.334V314.966H175.784V313.76ZM179.6 308.558H180.878V318.368H179.6V308.558ZM171.716 306.956H172.706V313.076H171.716V306.956ZM182.624 302.798H183.848C183.848 302.798 183.842 302.858 183.83 302.978C183.83 303.098 183.824 303.206 183.812 303.302C183.776 304.298 183.728 305.108 183.668 305.732C183.608 306.356 183.536 306.836 183.452 307.172C183.368 307.508 183.26 307.748 183.128 307.892C183.02 308.036 182.888 308.144 182.732 308.216C182.576 308.276 182.384 308.318 182.156 308.342C181.976 308.366 181.712 308.378 181.364 308.378C181.016 308.366 180.656 308.348 180.284 308.324C180.272 308.156 180.236 307.964 180.176 307.748C180.128 307.532 180.056 307.352 179.96 307.208C180.32 307.232 180.65 307.25 180.95 307.262C181.25 307.274 181.46 307.28 181.58 307.28C181.712 307.28 181.82 307.274 181.904 307.262C181.988 307.238 182.06 307.19 182.12 307.118C182.192 307.022 182.258 306.83 182.318 306.542C182.378 306.254 182.432 305.822 182.48 305.246C182.528 304.67 182.576 303.914 182.624 302.978V302.798ZM177.242 308.72L178.412 308.936C178.22 309.776 177.974 310.586 177.674 311.366C177.374 312.134 177.032 312.788 176.648 313.328C176.576 313.268 176.474 313.208 176.342 313.148C176.21 313.076 176.078 313.01 175.946 312.95C175.814 312.878 175.694 312.818 175.586 312.77C175.982 312.254 176.318 311.642 176.594 310.934C176.87 310.214 177.086 309.476 177.242 308.72ZM170.402 301.862L171.644 302.132C171.416 302.948 171.146 303.74 170.834 304.508C170.522 305.276 170.174 305.996 169.79 306.668C169.418 307.328 169.016 307.91 168.584 308.414C168.524 308.342 168.428 308.258 168.296 308.162C168.176 308.054 168.05 307.952 167.918 307.856C167.786 307.748 167.672 307.664 167.576 307.604C168.212 306.92 168.77 306.074 169.25 305.066C169.742 304.046 170.126 302.978 170.402 301.862ZM168.962 306.452H170.096V311.24C170.096 311.78 170.072 312.368 170.024 313.004C169.988 313.64 169.916 314.282 169.808 314.93C169.712 315.578 169.562 316.208 169.358 316.82C169.166 317.42 168.914 317.972 168.602 318.476C168.53 318.404 168.434 318.326 168.314 318.242C168.194 318.17 168.068 318.098 167.936 318.026C167.816 317.954 167.708 317.9 167.612 317.864C168.02 317.216 168.32 316.514 168.512 315.758C168.704 314.99 168.824 314.216 168.872 313.436C168.932 312.644 168.962 311.912 168.962 311.24V306.452ZM174.326 306.452H175.478V316.964C175.478 317.288 175.43 317.546 175.334 317.738C175.25 317.942 175.094 318.098 174.866 318.206C174.638 318.302 174.332 318.362 173.948 318.386C173.564 318.41 173.054 318.422 172.418 318.422C172.394 318.266 172.34 318.074 172.256 317.846C172.172 317.618 172.088 317.426 172.004 317.27C172.472 317.282 172.886 317.288 173.246 317.288C173.618 317.288 173.864 317.282 173.984 317.27C174.104 317.27 174.188 317.246 174.236 317.198C174.296 317.15 174.326 317.066 174.326 316.946V306.452ZM178.574 303.158H179.816C179.708 303.986 179.534 304.76 179.294 305.48C179.054 306.2 178.688 306.848 178.196 307.424C177.716 307.988 177.05 308.456 176.198 308.828C176.126 308.684 176.018 308.522 175.874 308.342C175.73 308.162 175.586 308.018 175.442 307.91C176.186 307.598 176.768 307.202 177.188 306.722C177.608 306.23 177.92 305.684 178.124 305.084C178.34 304.472 178.49 303.83 178.574 303.158ZM173.084 303.482H173.354L173.552 303.428L174.344 303.932C174.152 304.496 173.906 305.084 173.606 305.696C173.306 306.296 173.018 306.806 172.742 307.226C172.634 307.142 172.49 307.052 172.31 306.956C172.142 306.848 171.992 306.764 171.86 306.704C172.016 306.44 172.172 306.134 172.328 305.786C172.484 305.426 172.628 305.066 172.76 304.706C172.892 304.334 173 304.004 173.084 303.716V303.482ZM191.516 304.76H200.786V310.754H199.472V306.038H191.516V304.76ZM190.526 310.124H202.298V311.402H190.526V310.124ZM195.08 301.898H196.43V308.054C196.43 309.038 196.37 310.01 196.25 310.97C196.13 311.93 195.884 312.86 195.512 313.76C195.14 314.66 194.57 315.512 193.802 316.316C193.046 317.108 192.038 317.828 190.778 318.476C190.694 318.38 190.586 318.272 190.454 318.152C190.334 318.032 190.208 317.912 190.076 317.792C189.944 317.672 189.818 317.576 189.698 317.504C190.922 316.904 191.888 316.244 192.596 315.524C193.316 314.792 193.856 314.018 194.216 313.202C194.576 312.386 194.81 311.546 194.918 310.682C195.026 309.818 195.08 308.936 195.08 308.036V301.898ZM197.078 310.736C197.486 312.296 198.134 313.652 199.022 314.804C199.91 315.944 201.05 316.784 202.442 317.324C202.334 317.408 202.22 317.516 202.1 317.648C201.98 317.792 201.866 317.936 201.758 318.08C201.65 318.224 201.56 318.356 201.488 318.476C200.036 317.84 198.848 316.886 197.924 315.614C197 314.342 196.304 312.818 195.836 311.042L197.078 310.736ZM186.638 303.014L187.376 302.042C187.772 302.198 188.174 302.384 188.582 302.6C188.99 302.816 189.374 303.044 189.734 303.284C190.106 303.524 190.406 303.746 190.634 303.95L189.86 305.066C189.632 304.838 189.338 304.604 188.978 304.364C188.618 304.112 188.234 303.866 187.826 303.626C187.418 303.386 187.022 303.182 186.638 303.014ZM185.684 307.892L186.422 306.884C186.806 307.028 187.208 307.208 187.628 307.424C188.048 307.628 188.444 307.838 188.816 308.054C189.188 308.27 189.494 308.48 189.734 308.684L188.96 309.818C188.732 309.614 188.432 309.398 188.06 309.17C187.688 308.93 187.292 308.702 186.872 308.486C186.464 308.258 186.068 308.06 185.684 307.892ZM186.188 317.324C186.488 316.856 186.818 316.298 187.178 315.65C187.538 315.002 187.898 314.318 188.258 313.598C188.63 312.866 188.972 312.158 189.284 311.474L190.328 312.32C190.04 312.956 189.728 313.622 189.392 314.318C189.056 315.002 188.714 315.674 188.366 316.334C188.018 316.994 187.676 317.612 187.34 318.188L186.188 317.324ZM209.138 310.61H215.312V315.902H209.138V314.75H214.034V311.762H209.138V310.61ZM208.544 310.61H209.804V316.982H208.544V310.61ZM205.286 305.264H210.29V306.254H205.286V305.264ZM213.584 305.264H218.696V306.254H213.584V305.264ZM218.084 302.654H219.452V316.622C219.452 317.078 219.392 317.42 219.272 317.648C219.152 317.888 218.942 318.068 218.642 318.188C218.342 318.308 217.922 318.38 217.382 318.404C216.854 318.428 216.194 318.44 215.402 318.44C215.39 318.308 215.354 318.158 215.294 317.99C215.246 317.822 215.186 317.654 215.114 317.486C215.054 317.318 214.988 317.174 214.916 317.054C215.324 317.066 215.708 317.072 216.068 317.072C216.44 317.072 216.764 317.072 217.04 317.072C217.328 317.072 217.526 317.072 217.634 317.072C217.802 317.06 217.916 317.024 217.976 316.964C218.048 316.892 218.084 316.778 218.084 316.622V302.654ZM205.394 302.654H211.154V308.99H205.394V307.91H209.894V303.734H205.394V302.654ZM218.804 302.654V303.734H214.07V307.928H218.804V309.008H212.792V302.654H218.804ZM204.656 302.654H205.988V318.458H204.656V302.654ZM224.114 305.93V307.298H227.624V305.93H224.114ZM224.114 303.626V304.976H227.624V303.626H224.114ZM222.89 302.636H228.884V308.288H222.89V302.636ZM221.828 309.62H229.946V310.682H221.828V309.62ZM229.838 302.762H238.046V303.788H229.838V302.762ZM225.41 309.944H226.58V316.802L225.41 316.1V309.944ZM226.022 312.608H229.64V313.652H226.022V312.608ZM233.402 303.014L234.662 303.266C234.494 303.722 234.32 304.19 234.14 304.67C233.972 305.15 233.804 305.558 233.636 305.894L232.628 305.66C232.772 305.276 232.916 304.838 233.06 304.346C233.204 303.854 233.318 303.41 233.402 303.014ZM231.764 308.468V309.818H236.048V308.468H231.764ZM231.764 310.772V312.14H236.048V310.772H231.764ZM231.764 306.164V307.514H236.048V306.164H231.764ZM230.522 305.174H237.308V313.148H230.522V305.174ZM232.016 313.454L233.168 313.796C232.772 314.3 232.274 314.792 231.674 315.272C231.086 315.752 230.51 316.148 229.946 316.46C229.886 316.388 229.802 316.298 229.694 316.19C229.586 316.082 229.472 315.974 229.352 315.866C229.244 315.758 229.142 315.68 229.046 315.632C229.61 315.356 230.162 315.032 230.702 314.66C231.242 314.276 231.68 313.874 232.016 313.454ZM223.07 311.654H224.222C224.186 312.53 224.108 313.394 223.988 314.246C223.88 315.086 223.706 315.878 223.466 316.622C223.226 317.354 222.89 317.978 222.458 318.494C222.374 318.35 222.248 318.188 222.08 318.008C221.912 317.84 221.756 317.708 221.612 317.612C221.972 317.18 222.254 316.64 222.458 315.992C222.662 315.332 222.806 314.63 222.89 313.886C222.986 313.142 223.046 312.398 223.07 311.654ZM223.916 313.436C224.24 314.204 224.654 314.822 225.158 315.29C225.662 315.746 226.256 316.094 226.94 316.334C227.636 316.574 228.41 316.736 229.262 316.82C230.114 316.892 231.044 316.928 232.052 316.928C232.22 316.928 232.508 316.928 232.916 316.928C233.324 316.928 233.792 316.928 234.32 316.928C234.86 316.916 235.4 316.91 235.94 316.91C236.492 316.91 236.984 316.91 237.416 316.91C237.848 316.898 238.172 316.892 238.388 316.892C238.304 317.024 238.214 317.204 238.118 317.432C238.022 317.66 237.95 317.864 237.902 318.044H236.678H232.052C230.912 318.044 229.868 317.99 228.92 317.882C227.984 317.786 227.144 317.588 226.4 317.288C225.668 316.988 225.02 316.556 224.456 315.992C223.904 315.416 223.448 314.666 223.088 313.742L223.916 313.436ZM234.536 313.958L235.472 313.418C235.82 313.634 236.168 313.88 236.516 314.156C236.876 314.432 237.212 314.708 237.524 314.984C237.836 315.26 238.088 315.518 238.28 315.758L237.308 316.388C237.116 316.136 236.864 315.866 236.552 315.578C236.24 315.29 235.91 315.002 235.562 314.714C235.214 314.426 234.872 314.174 234.536 313.958ZM254.3 305.012L255.596 305.318C255.452 305.822 255.296 306.356 255.128 306.92C254.96 307.472 254.792 308.006 254.624 308.522C254.468 309.026 254.306 309.476 254.138 309.872L253.094 309.566C253.238 309.158 253.388 308.69 253.544 308.162C253.7 307.622 253.844 307.076 253.976 306.524C254.108 305.972 254.216 305.468 254.3 305.012ZM247.334 305.426L248.432 305.138C248.6 305.618 248.756 306.128 248.9 306.668C249.044 307.208 249.164 307.73 249.26 308.234C249.356 308.738 249.422 309.194 249.458 309.602L248.288 309.89C248.252 309.482 248.186 309.02 248.09 308.504C248.006 307.988 247.898 307.466 247.766 306.938C247.646 306.398 247.502 305.894 247.334 305.426ZM246.92 302.888H255.956V304.148H246.92V302.888ZM246.218 310.664H256.316V311.942H246.218V310.664ZM250.664 303.32H251.996V318.422H250.664V303.32ZM240.548 307.334H245.912V308.396H240.548V307.334ZM240.62 302.51H245.876V303.59H240.62V302.51ZM240.548 309.728H245.912V310.808H240.548V309.728ZM239.684 304.868H246.542V306.002H239.684V304.868ZM241.178 312.158H245.894V317.414H241.178V316.298H244.706V313.292H241.178V312.158ZM240.512 312.158H241.7V318.242H240.512V312.158ZM261.788 301.952L263.084 302.33C262.688 303.35 262.226 304.358 261.698 305.354C261.17 306.338 260.6 307.268 259.988 308.144C259.376 309.02 258.746 309.794 258.098 310.466C258.05 310.358 257.978 310.22 257.882 310.052C257.798 309.884 257.702 309.716 257.594 309.548C257.498 309.368 257.408 309.23 257.324 309.134C257.924 308.546 258.5 307.868 259.052 307.1C259.604 306.332 260.114 305.51 260.582 304.634C261.062 303.746 261.464 302.852 261.788 301.952ZM259.88 306.578L261.158 305.3L261.176 305.336V318.404H259.88V306.578ZM263.876 310.826H273.182V318.368H271.814V312.104H265.208V318.44H263.876V310.826ZM267.764 301.88H269.15V311.528H267.764V301.88ZM262.832 305.822H274.28V307.136H262.832V305.822ZM264.524 316.37H272.57V317.666H264.524V316.37ZM276.8 303.374H291.236V304.562H276.8V303.374ZM277.61 306.038H290.534V307.154H277.61V306.038ZM276.134 308.792H291.866V309.962H276.134V308.792ZM283.28 301.88H284.648V309.71H283.28V301.88ZM283.226 309.188L284.378 309.746C283.91 310.25 283.364 310.748 282.74 311.24C282.116 311.72 281.444 312.17 280.724 312.59C280.016 313.01 279.29 313.394 278.546 313.742C277.802 314.078 277.082 314.36 276.386 314.588C276.326 314.48 276.242 314.36 276.134 314.228C276.026 314.084 275.918 313.946 275.81 313.814C275.702 313.682 275.6 313.568 275.504 313.472C276.2 313.28 276.914 313.034 277.646 312.734C278.378 312.422 279.086 312.08 279.77 311.708C280.466 311.324 281.108 310.922 281.696 310.502C282.296 310.07 282.806 309.632 283.226 309.188ZM285.188 309.368C285.548 310.64 286.046 311.798 286.682 312.842C287.33 313.886 288.128 314.78 289.076 315.524C290.036 316.256 291.152 316.814 292.424 317.198C292.328 317.282 292.22 317.396 292.1 317.54C291.992 317.684 291.884 317.828 291.776 317.972C291.68 318.116 291.596 318.254 291.524 318.386C290.204 317.93 289.052 317.294 288.068 316.478C287.096 315.65 286.268 314.66 285.584 313.508C284.912 312.356 284.372 311.06 283.964 309.62L285.188 309.368ZM290.318 310.574L291.38 311.402C290.96 311.738 290.498 312.08 289.994 312.428C289.502 312.776 289.004 313.112 288.5 313.436C288.008 313.748 287.546 314.024 287.114 314.264L286.268 313.508C286.7 313.256 287.162 312.962 287.654 312.626C288.146 312.29 288.626 311.942 289.094 311.582C289.562 311.222 289.97 310.886 290.318 310.574ZM277.52 317.18C278.204 317.036 279.002 316.856 279.914 316.64C280.826 316.412 281.792 316.172 282.812 315.92C283.844 315.668 284.87 315.416 285.89 315.164L286.034 316.37C285.086 316.622 284.126 316.868 283.154 317.108C282.182 317.36 281.252 317.594 280.364 317.81C279.476 318.038 278.672 318.248 277.952 318.44L277.52 317.18ZM280.058 312.536L281.03 311.564L281.39 311.672V317.108H280.058V312.536Z" fill="#475467"/>
</svg>
