<svg width="1001" height="178" viewBox="0 0 1001 178" fill="none" xmlns="http://www.w3.org/2000/svg">
<g clip-path="url(#clip0_575_1744)">
<g filter="url(#filter0_dd_575_1744)">
<rect x="6" y="14" width="148.515" height="150" rx="74.2574" fill="white"/>
<path d="M54.396 88.592H61.434V89.636H54.396V88.592ZM54.396 91.544H61.434V92.606H54.396V91.544ZM54.414 94.496H62.28V95.648H54.414V94.496ZM52.344 81.716H62.19V84.812H60.966V82.886H53.532V84.812H52.344V81.716ZM57.312 86.432H58.572V95.108H57.312V86.432ZM54.864 85.586H61.74V86.756H54.864V96.44H53.586V86.792L54.756 85.586H54.864ZM56.574 79.862L57.852 80.114C57.348 81.938 56.652 83.582 55.764 85.046C54.888 86.51 53.838 87.722 52.614 88.682C52.554 88.598 52.464 88.496 52.344 88.376C52.236 88.244 52.116 88.118 51.984 87.998C51.864 87.878 51.756 87.782 51.66 87.71C52.848 86.834 53.85 85.724 54.666 84.38C55.494 83.024 56.13 81.518 56.574 79.862ZM58.446 83.444L59.706 83.75C59.49 84.218 59.268 84.692 59.04 85.172C58.824 85.64 58.614 86.042 58.41 86.378L57.384 86.09C57.576 85.73 57.774 85.298 57.978 84.794C58.182 84.278 58.338 83.828 58.446 83.444ZM45.954 81.086H52.308V82.346H45.954V81.086ZM47.772 86.342H51.822V94.226H47.772V93.038H50.652V87.548H47.772V86.342ZM48.06 81.68L49.356 81.878C49.176 83.138 48.942 84.362 48.654 85.55C48.378 86.726 48.036 87.824 47.628 88.844C47.232 89.864 46.758 90.77 46.206 91.562C46.158 91.466 46.086 91.34 45.99 91.184C45.894 91.016 45.798 90.854 45.702 90.698C45.606 90.53 45.516 90.398 45.432 90.302C45.912 89.618 46.32 88.826 46.656 87.926C47.004 87.014 47.292 86.03 47.52 84.974C47.748 83.906 47.928 82.808 48.06 81.68ZM47.214 86.342H48.348V95.648H47.214V86.342ZM74.16 81.14H75.402C75.318 81.86 75.186 82.58 75.006 83.3C74.826 84.008 74.574 84.686 74.25 85.334C73.926 85.982 73.5 86.582 72.972 87.134C72.444 87.674 71.784 88.142 70.992 88.538C70.92 88.394 70.8 88.226 70.632 88.034C70.476 87.842 70.332 87.692 70.2 87.584C70.932 87.248 71.538 86.84 72.018 86.36C72.498 85.868 72.882 85.34 73.17 84.776C73.458 84.2 73.674 83.606 73.818 82.994C73.974 82.37 74.088 81.752 74.16 81.14ZM70.866 83.714L71.514 82.76C72.138 82.976 72.786 83.234 73.458 83.534C74.13 83.822 74.76 84.128 75.348 84.452C75.948 84.764 76.446 85.058 76.842 85.334L76.176 86.396C75.78 86.108 75.282 85.796 74.682 85.46C74.094 85.124 73.464 84.8 72.792 84.488C72.132 84.176 71.49 83.918 70.866 83.714ZM78.408 80.654H79.686C79.686 80.654 79.686 80.69 79.686 80.762C79.686 80.822 79.686 80.9 79.686 80.996C79.686 81.08 79.686 81.152 79.686 81.212C79.626 82.628 79.56 83.774 79.488 84.65C79.416 85.526 79.332 86.192 79.236 86.648C79.14 87.104 79.014 87.416 78.858 87.584C78.726 87.764 78.576 87.89 78.408 87.962C78.24 88.034 78.03 88.082 77.778 88.106C77.562 88.13 77.262 88.142 76.878 88.142C76.506 88.13 76.104 88.112 75.672 88.088C75.66 87.908 75.624 87.704 75.564 87.476C75.504 87.236 75.42 87.032 75.312 86.864C75.732 86.9 76.116 86.924 76.464 86.936C76.812 86.936 77.058 86.936 77.202 86.936C77.466 86.96 77.658 86.9 77.778 86.756C77.886 86.636 77.976 86.372 78.048 85.964C78.132 85.556 78.204 84.944 78.264 84.128C78.324 83.312 78.372 82.226 78.408 80.87V80.654ZM72.9 90.23H74.142V94.586C74.142 94.802 74.178 94.94 74.25 95C74.322 95.06 74.484 95.09 74.736 95.09C74.784 95.09 74.886 95.09 75.042 95.09C75.198 95.09 75.366 95.09 75.546 95.09C75.738 95.09 75.912 95.09 76.068 95.09C76.224 95.09 76.344 95.09 76.428 95.09C76.584 95.09 76.704 95.048 76.788 94.964C76.872 94.868 76.932 94.676 76.968 94.388C77.004 94.1 77.028 93.65 77.04 93.038C77.124 93.11 77.232 93.182 77.364 93.254C77.496 93.314 77.634 93.368 77.778 93.416C77.922 93.464 78.054 93.506 78.174 93.542C78.138 94.274 78.066 94.838 77.958 95.234C77.85 95.642 77.682 95.918 77.454 96.062C77.238 96.218 76.938 96.296 76.554 96.296C76.494 96.296 76.368 96.296 76.176 96.296C75.984 96.296 75.78 96.296 75.564 96.296C75.348 96.296 75.144 96.296 74.952 96.296C74.772 96.296 74.64 96.296 74.556 96.296C74.112 96.296 73.764 96.248 73.512 96.152C73.272 96.056 73.11 95.882 73.026 95.63C72.942 95.378 72.9 95.036 72.9 94.604V90.23ZM71.19 90.842L72.27 91.13C72.21 91.658 72.12 92.192 72 92.732C71.892 93.272 71.736 93.782 71.532 94.262C71.328 94.73 71.07 95.132 70.758 95.468L69.75 94.82C70.038 94.52 70.272 94.16 70.452 93.74C70.644 93.308 70.8 92.846 70.92 92.354C71.04 91.85 71.13 91.346 71.19 90.842ZM73.188 88.592L73.998 87.8C74.394 87.992 74.796 88.226 75.204 88.502C75.612 88.778 75.996 89.06 76.356 89.348C76.716 89.636 77.004 89.906 77.22 90.158L76.392 91.058C76.176 90.806 75.894 90.53 75.546 90.23C75.198 89.93 74.82 89.642 74.412 89.366C74.004 89.078 73.596 88.82 73.188 88.592ZM77.4 90.968L78.498 90.518C78.822 90.962 79.122 91.442 79.398 91.958C79.686 92.462 79.926 92.966 80.118 93.47C80.322 93.974 80.466 94.43 80.55 94.838L79.344 95.324C79.272 94.916 79.14 94.46 78.948 93.956C78.756 93.452 78.522 92.942 78.246 92.426C77.982 91.898 77.7 91.412 77.4 90.968ZM71.01 80.654H78.984V81.806H71.01V80.654ZM64.494 85.334H69.606V86.396H64.494V85.334ZM64.566 80.51H69.552V81.59H64.566V80.51ZM64.494 87.728H69.606V88.808H64.494V87.728ZM63.684 82.868H70.128V84.002H63.684V82.868ZM65.106 90.158H69.624V95.414H65.106V94.298H68.454V91.292H65.106V90.158ZM64.476 90.158H65.628V96.242H64.476V90.158ZM83.412 80.6H96.57V81.68H83.412V80.6ZM82.17 88.592H97.884V89.69H82.17V88.592ZM84.492 84.722H88.362V85.622H84.492V84.722ZM84.096 86.612H88.38V87.512H84.096V86.612ZM91.53 86.612H95.94V87.53H91.53V86.612ZM91.53 84.722H95.508V85.622H91.53V84.722ZM89.298 81.014H90.594V87.998H89.298V81.014ZM87.516 91.688H88.758V96.296H87.516V91.688ZM91.512 91.688H92.754V96.296H91.512V91.688ZM82.368 82.742H97.65V86.18H96.39V83.732H83.592V86.18H82.368V82.742ZM83.574 90.968H95.904V92.084H84.852V96.404H83.574V90.968ZM95.562 90.968H96.876V95.09C96.876 95.402 96.84 95.642 96.768 95.81C96.696 95.99 96.546 96.128 96.318 96.224C96.09 96.332 95.802 96.392 95.454 96.404C95.118 96.428 94.704 96.44 94.212 96.44C94.188 96.272 94.128 96.08 94.032 95.864C93.948 95.66 93.864 95.474 93.78 95.306C94.14 95.318 94.458 95.324 94.734 95.324C95.022 95.324 95.214 95.318 95.31 95.306C95.418 95.306 95.484 95.288 95.508 95.252C95.544 95.216 95.562 95.156 95.562 95.072V90.968ZM89.316 88.988L90.774 89.06C90.618 89.54 90.45 90.014 90.27 90.482C90.09 90.938 89.922 91.334 89.766 91.67L88.578 91.544C88.722 91.184 88.86 90.764 88.992 90.284C89.136 89.792 89.244 89.36 89.316 88.988ZM100.17 82.904H115.902V84.218H100.17V82.904ZM108.558 84.074C108.894 85.142 109.314 86.18 109.818 87.188C110.334 88.196 110.922 89.138 111.582 90.014C112.254 90.878 112.998 91.646 113.814 92.318C114.63 92.99 115.5 93.524 116.424 93.92C116.328 94.016 116.214 94.136 116.082 94.28C115.95 94.412 115.83 94.556 115.722 94.712C115.614 94.856 115.518 94.988 115.434 95.108C114.174 94.484 113.034 93.632 112.014 92.552C110.994 91.472 110.106 90.236 109.35 88.844C108.606 87.452 107.982 85.964 107.478 84.38L108.558 84.074ZM113.94 84.956L115.11 85.784C114.726 86.24 114.294 86.714 113.814 87.206C113.346 87.698 112.872 88.166 112.392 88.61C111.912 89.054 111.456 89.444 111.024 89.78L110.07 89.042C110.478 88.694 110.922 88.286 111.402 87.818C111.882 87.35 112.344 86.864 112.788 86.36C113.244 85.856 113.628 85.388 113.94 84.956ZM110.358 80.798L111.168 79.952C111.552 80.132 111.948 80.342 112.356 80.582C112.776 80.822 113.178 81.062 113.562 81.302C113.946 81.542 114.264 81.764 114.516 81.968L113.652 82.94C113.412 82.724 113.106 82.49 112.734 82.238C112.362 81.974 111.966 81.716 111.546 81.464C111.138 81.212 110.742 80.99 110.358 80.798ZM101.142 85.964L102.168 85.28C102.54 85.592 102.918 85.946 103.302 86.342C103.686 86.726 104.04 87.116 104.364 87.512C104.688 87.896 104.94 88.244 105.12 88.556L104.04 89.348C103.86 89.036 103.608 88.682 103.284 88.286C102.972 87.89 102.63 87.488 102.258 87.08C101.886 86.672 101.514 86.3 101.142 85.964ZM107.28 79.916H108.666V94.604C108.666 95.084 108.6 95.438 108.468 95.666C108.336 95.906 108.12 96.086 107.82 96.206C107.52 96.314 107.094 96.386 106.542 96.422C106.002 96.458 105.336 96.476 104.544 96.476C104.508 96.272 104.442 96.032 104.346 95.756C104.25 95.48 104.148 95.24 104.04 95.036C104.664 95.06 105.234 95.072 105.75 95.072C106.278 95.072 106.632 95.072 106.812 95.072C106.98 95.06 107.1 95.024 107.172 94.964C107.244 94.904 107.28 94.784 107.28 94.604V79.916ZM99.666 93.47C100.182 93.218 100.77 92.912 101.43 92.552C102.09 92.18 102.792 91.784 103.536 91.364C104.28 90.944 105.018 90.53 105.75 90.122L106.182 91.328C105.21 91.928 104.22 92.528 103.212 93.128C102.216 93.716 101.316 94.238 100.512 94.694L99.666 93.47Z" fill="#1368AA"/>
</g>
<g filter="url(#filter1_dd_575_1744)">
<rect x="210" y="14" width="148.515" height="150" rx="74.2574" fill="white"/>
<path d="M239.604 83.894V85.316H245.616V83.894H239.604ZM239.604 81.5V82.922H245.616V81.5H239.604ZM238.362 80.474H246.912V86.36H238.362V80.474ZM237.552 87.656H247.902V88.79H237.552V87.656ZM241.962 88.214H243.24V95.576L241.962 95.054V88.214ZM239.55 91.526C239.874 92.522 240.294 93.266 240.81 93.758C241.338 94.25 241.95 94.574 242.646 94.73C243.354 94.886 244.128 94.964 244.968 94.964C245.076 94.964 245.286 94.964 245.598 94.964C245.91 94.964 246.258 94.964 246.642 94.964C247.026 94.964 247.386 94.964 247.722 94.964C248.058 94.964 248.31 94.958 248.478 94.946C248.418 95.042 248.358 95.162 248.298 95.306C248.238 95.45 248.19 95.6 248.154 95.756C248.118 95.912 248.088 96.05 248.064 96.17H247.326H244.914C244.158 96.17 243.462 96.11 242.826 95.99C242.19 95.882 241.614 95.678 241.098 95.378C240.582 95.078 240.126 94.646 239.73 94.082C239.334 93.506 238.998 92.762 238.722 91.85L239.55 91.526ZM242.844 90.914H247.02V92.03H242.844V90.914ZM238.722 89.654L239.964 89.798C239.784 91.274 239.454 92.57 238.974 93.686C238.494 94.79 237.846 95.708 237.03 96.44C236.97 96.356 236.874 96.26 236.742 96.152C236.61 96.056 236.478 95.954 236.346 95.846C236.226 95.75 236.118 95.678 236.022 95.63C236.826 94.994 237.438 94.172 237.858 93.164C238.29 92.144 238.578 90.974 238.722 89.654ZM231.522 89.438C232.218 89.258 233.058 89.018 234.042 88.718C235.026 88.406 236.022 88.094 237.03 87.782L237.21 89.006C236.286 89.318 235.356 89.63 234.42 89.942C233.484 90.242 232.632 90.518 231.864 90.77L231.522 89.438ZM231.72 83.516H237.21V84.776H231.72V83.516ZM233.952 79.898H235.212V94.748C235.212 95.12 235.164 95.402 235.068 95.594C234.984 95.798 234.828 95.954 234.6 96.062C234.384 96.17 234.096 96.242 233.736 96.278C233.376 96.314 232.908 96.326 232.332 96.314C232.32 96.158 232.272 95.954 232.188 95.702C232.116 95.462 232.038 95.252 231.954 95.072C232.338 95.084 232.686 95.09 232.998 95.09C233.322 95.09 233.538 95.084 233.646 95.072C233.754 95.072 233.832 95.048 233.88 95C233.928 94.964 233.952 94.88 233.952 94.748V79.898ZM251.7 93.974H264.408V95.306H251.7V93.974ZM257.208 79.97H258.612V94.748H257.208V79.97ZM251.034 88.97H252.384V96.44H251.034V88.97ZM263.688 88.97H265.074V96.404H263.688V88.97ZM251.718 81.59H253.068V86.504H262.95V81.59H264.354V87.8H251.718V81.59ZM269.502 84.452H274.704V85.496H269.502V84.452ZM269.502 87.512H274.704V88.538H269.502V87.512ZM269.502 90.626H274.704V91.706H269.502V90.626ZM277.17 88.394H284.01V89.582H277.17V88.394ZM270.438 81.482H273.408V82.562H270.438V81.482ZM276 80.798H283.038V81.932H276V80.798ZM275.784 91.76H284.334V92.966H275.784V91.76ZM279.6 86.558H280.878V96.368H279.6V86.558ZM271.716 84.956H272.706V91.076H271.716V84.956ZM282.624 80.798H283.848C283.848 80.798 283.842 80.858 283.83 80.978C283.83 81.098 283.824 81.206 283.812 81.302C283.776 82.298 283.728 83.108 283.668 83.732C283.608 84.356 283.536 84.836 283.452 85.172C283.368 85.508 283.26 85.748 283.128 85.892C283.02 86.036 282.888 86.144 282.732 86.216C282.576 86.276 282.384 86.318 282.156 86.342C281.976 86.366 281.712 86.378 281.364 86.378C281.016 86.366 280.656 86.348 280.284 86.324C280.272 86.156 280.236 85.964 280.176 85.748C280.128 85.532 280.056 85.352 279.96 85.208C280.32 85.232 280.65 85.25 280.95 85.262C281.25 85.274 281.46 85.28 281.58 85.28C281.712 85.28 281.82 85.274 281.904 85.262C281.988 85.238 282.06 85.19 282.12 85.118C282.192 85.022 282.258 84.83 282.318 84.542C282.378 84.254 282.432 83.822 282.48 83.246C282.528 82.67 282.576 81.914 282.624 80.978V80.798ZM277.242 86.72L278.412 86.936C278.22 87.776 277.974 88.586 277.674 89.366C277.374 90.134 277.032 90.788 276.648 91.328C276.576 91.268 276.474 91.208 276.342 91.148C276.21 91.076 276.078 91.01 275.946 90.95C275.814 90.878 275.694 90.818 275.586 90.77C275.982 90.254 276.318 89.642 276.594 88.934C276.87 88.214 277.086 87.476 277.242 86.72ZM270.402 79.862L271.644 80.132C271.416 80.948 271.146 81.74 270.834 82.508C270.522 83.276 270.174 83.996 269.79 84.668C269.418 85.328 269.016 85.91 268.584 86.414C268.524 86.342 268.428 86.258 268.296 86.162C268.176 86.054 268.05 85.952 267.918 85.856C267.786 85.748 267.672 85.664 267.576 85.604C268.212 84.92 268.77 84.074 269.25 83.066C269.742 82.046 270.126 80.978 270.402 79.862ZM268.962 84.452H270.096V89.24C270.096 89.78 270.072 90.368 270.024 91.004C269.988 91.64 269.916 92.282 269.808 92.93C269.712 93.578 269.562 94.208 269.358 94.82C269.166 95.42 268.914 95.972 268.602 96.476C268.53 96.404 268.434 96.326 268.314 96.242C268.194 96.17 268.068 96.098 267.936 96.026C267.816 95.954 267.708 95.9 267.612 95.864C268.02 95.216 268.32 94.514 268.512 93.758C268.704 92.99 268.824 92.216 268.872 91.436C268.932 90.644 268.962 89.912 268.962 89.24V84.452ZM274.326 84.452H275.478V94.964C275.478 95.288 275.43 95.546 275.334 95.738C275.25 95.942 275.094 96.098 274.866 96.206C274.638 96.302 274.332 96.362 273.948 96.386C273.564 96.41 273.054 96.422 272.418 96.422C272.394 96.266 272.34 96.074 272.256 95.846C272.172 95.618 272.088 95.426 272.004 95.27C272.472 95.282 272.886 95.288 273.246 95.288C273.618 95.288 273.864 95.282 273.984 95.27C274.104 95.27 274.188 95.246 274.236 95.198C274.296 95.15 274.326 95.066 274.326 94.946V84.452ZM278.574 81.158H279.816C279.708 81.986 279.534 82.76 279.294 83.48C279.054 84.2 278.688 84.848 278.196 85.424C277.716 85.988 277.05 86.456 276.198 86.828C276.126 86.684 276.018 86.522 275.874 86.342C275.73 86.162 275.586 86.018 275.442 85.91C276.186 85.598 276.768 85.202 277.188 84.722C277.608 84.23 277.92 83.684 278.124 83.084C278.34 82.472 278.49 81.83 278.574 81.158ZM273.084 81.482H273.354L273.552 81.428L274.344 81.932C274.152 82.496 273.906 83.084 273.606 83.696C273.306 84.296 273.018 84.806 272.742 85.226C272.634 85.142 272.49 85.052 272.31 84.956C272.142 84.848 271.992 84.764 271.86 84.704C272.016 84.44 272.172 84.134 272.328 83.786C272.484 83.426 272.628 83.066 272.76 82.706C272.892 82.334 273 82.004 273.084 81.716V81.482ZM291.516 82.76H300.786V88.754H299.472V84.038H291.516V82.76ZM290.526 88.124H302.298V89.402H290.526V88.124ZM295.08 79.898H296.43V86.054C296.43 87.038 296.37 88.01 296.25 88.97C296.13 89.93 295.884 90.86 295.512 91.76C295.14 92.66 294.57 93.512 293.802 94.316C293.046 95.108 292.038 95.828 290.778 96.476C290.694 96.38 290.586 96.272 290.454 96.152C290.334 96.032 290.208 95.912 290.076 95.792C289.944 95.672 289.818 95.576 289.698 95.504C290.922 94.904 291.888 94.244 292.596 93.524C293.316 92.792 293.856 92.018 294.216 91.202C294.576 90.386 294.81 89.546 294.918 88.682C295.026 87.818 295.08 86.936 295.08 86.036V79.898ZM297.078 88.736C297.486 90.296 298.134 91.652 299.022 92.804C299.91 93.944 301.05 94.784 302.442 95.324C302.334 95.408 302.22 95.516 302.1 95.648C301.98 95.792 301.866 95.936 301.758 96.08C301.65 96.224 301.56 96.356 301.488 96.476C300.036 95.84 298.848 94.886 297.924 93.614C297 92.342 296.304 90.818 295.836 89.042L297.078 88.736ZM286.638 81.014L287.376 80.042C287.772 80.198 288.174 80.384 288.582 80.6C288.99 80.816 289.374 81.044 289.734 81.284C290.106 81.524 290.406 81.746 290.634 81.95L289.86 83.066C289.632 82.838 289.338 82.604 288.978 82.364C288.618 82.112 288.234 81.866 287.826 81.626C287.418 81.386 287.022 81.182 286.638 81.014ZM285.684 85.892L286.422 84.884C286.806 85.028 287.208 85.208 287.628 85.424C288.048 85.628 288.444 85.838 288.816 86.054C289.188 86.27 289.494 86.48 289.734 86.684L288.96 87.818C288.732 87.614 288.432 87.398 288.06 87.17C287.688 86.93 287.292 86.702 286.872 86.486C286.464 86.258 286.068 86.06 285.684 85.892ZM286.188 95.324C286.488 94.856 286.818 94.298 287.178 93.65C287.538 93.002 287.898 92.318 288.258 91.598C288.63 90.866 288.972 90.158 289.284 89.474L290.328 90.32C290.04 90.956 289.728 91.622 289.392 92.318C289.056 93.002 288.714 93.674 288.366 94.334C288.018 94.994 287.676 95.612 287.34 96.188L286.188 95.324ZM303.954 82.994H320.064V84.29H303.954V82.994ZM309.84 87.242H317.022V88.538H309.84V87.242ZM316.536 87.242H317.94C317.94 87.242 317.934 87.284 317.922 87.368C317.922 87.452 317.916 87.548 317.904 87.656C317.904 87.752 317.898 87.836 317.886 87.908C317.766 89.624 317.64 91.022 317.508 92.102C317.376 93.17 317.226 93.992 317.058 94.568C316.89 95.144 316.686 95.552 316.446 95.792C316.242 96.008 316.02 96.158 315.78 96.242C315.54 96.326 315.246 96.38 314.898 96.404C314.586 96.428 314.154 96.434 313.602 96.422C313.05 96.41 312.474 96.386 311.874 96.35C311.862 96.158 311.808 95.936 311.712 95.684C311.628 95.444 311.52 95.228 311.388 95.036C312.036 95.084 312.648 95.114 313.224 95.126C313.8 95.15 314.202 95.162 314.43 95.162C314.634 95.162 314.802 95.15 314.934 95.126C315.078 95.102 315.198 95.042 315.294 94.946C315.486 94.778 315.654 94.424 315.798 93.884C315.942 93.332 316.074 92.54 316.194 91.508C316.314 90.464 316.428 89.12 316.536 87.476V87.242ZM309.516 83.714H311.028C310.98 84.674 310.902 85.646 310.794 86.63C310.686 87.602 310.512 88.568 310.272 89.528C310.044 90.476 309.702 91.382 309.246 92.246C308.802 93.11 308.214 93.902 307.482 94.622C306.75 95.342 305.838 95.972 304.746 96.512C304.638 96.332 304.488 96.134 304.296 95.918C304.116 95.714 303.936 95.546 303.756 95.414C304.812 94.934 305.682 94.364 306.366 93.704C307.05 93.032 307.596 92.3 308.004 91.508C308.412 90.704 308.718 89.864 308.922 88.988C309.126 88.112 309.264 87.23 309.336 86.342C309.42 85.442 309.48 84.566 309.516 83.714ZM311.244 79.826H312.63V83.552H311.244V79.826ZM329.298 79.88H330.648V81.95H329.298V79.88ZM329.28 89.366H330.63V96.422H329.28V89.366ZM322.44 81.23H337.65V83.822H336.336V82.382H323.718V83.822H322.44V81.23ZM322.242 84.272H337.848V85.37H322.242V84.272ZM321.936 90.86H338.082V92.012H321.936V90.86ZM328.362 82.58L329.64 82.976C329.256 83.492 328.836 84.044 328.38 84.632C327.936 85.22 327.492 85.79 327.048 86.342C326.616 86.894 326.214 87.38 325.842 87.8L324.582 87.404C324.966 86.984 325.38 86.498 325.824 85.946C326.268 85.382 326.712 84.812 327.156 84.236C327.6 83.648 328.002 83.096 328.362 82.58ZM325.644 87.26L326.4 86.432C327.264 86.576 328.176 86.762 329.136 86.99C330.096 87.206 331.056 87.44 332.016 87.692C332.976 87.932 333.882 88.184 334.734 88.448C335.586 88.7 336.33 88.946 336.966 89.186L336.156 90.176C335.568 89.936 334.854 89.684 334.014 89.42C333.186 89.156 332.292 88.892 331.332 88.628C330.372 88.364 329.4 88.118 328.416 87.89C327.444 87.65 326.52 87.44 325.644 87.26ZM328.794 91.454L329.784 91.922C329.256 92.546 328.59 93.14 327.786 93.704C326.994 94.268 326.136 94.76 325.212 95.18C324.288 95.612 323.37 95.948 322.458 96.188C322.398 96.08 322.314 95.96 322.206 95.828C322.11 95.696 322.008 95.564 321.9 95.432C321.804 95.3 321.708 95.186 321.612 95.09C322.524 94.898 323.436 94.622 324.348 94.262C325.26 93.89 326.106 93.464 326.886 92.984C327.666 92.492 328.302 91.982 328.794 91.454ZM331.17 91.436C331.686 91.976 332.34 92.486 333.132 92.966C333.936 93.446 334.8 93.872 335.724 94.244C336.66 94.604 337.584 94.886 338.496 95.09C338.412 95.174 338.31 95.282 338.19 95.414C338.082 95.558 337.974 95.696 337.866 95.828C337.77 95.972 337.692 96.104 337.632 96.224C336.72 95.972 335.796 95.63 334.86 95.198C333.924 94.766 333.048 94.268 332.232 93.704C331.416 93.14 330.732 92.534 330.18 91.886L331.17 91.436ZM333.132 84.884H334.554C334.314 85.52 333.996 86.09 333.6 86.594C333.204 87.098 332.712 87.548 332.124 87.944C331.548 88.328 330.84 88.658 330 88.934C329.172 89.21 328.194 89.444 327.066 89.636C325.938 89.816 324.636 89.96 323.16 90.068C323.136 89.912 323.076 89.726 322.98 89.51C322.884 89.294 322.8 89.114 322.728 88.97C324.132 88.886 325.362 88.772 326.418 88.628C327.474 88.472 328.38 88.28 329.136 88.052C329.892 87.824 330.528 87.56 331.044 87.26C331.56 86.948 331.986 86.6 332.322 86.216C332.658 85.82 332.928 85.376 333.132 84.884Z" fill="#1368AA"/>
</g>
<g filter="url(#filter2_dd_575_1744)">
<rect x="435" y="14" width="148.515" height="150" rx="74.2574" fill="white"/>
<path d="M485.272 67.014H488.62V68.22H485.272V67.014ZM481.114 67.878H484.912V69.03H481.114V67.878ZM485.47 70.326H488.584V71.478H485.47V70.326ZM485.416 73.692H488.476V74.844H485.416V73.692ZM476.56 70.326H479.62V71.478H476.56V70.326ZM476.614 73.692H479.638V74.826H476.614V73.692ZM475.822 67.14L477.442 67.626C477.406 67.734 477.286 67.8 477.082 67.824L477.406 77.598H476.182L475.822 67.14ZM487.882 67.014H489.124C489.124 67.854 489.112 68.754 489.088 69.714C489.076 70.662 489.058 71.616 489.034 72.576C489.01 73.536 488.98 74.442 488.944 75.294C488.908 76.146 488.866 76.896 488.818 77.544H487.558C487.606 76.884 487.648 76.122 487.684 75.258C487.732 74.394 487.768 73.488 487.792 72.54C487.828 71.58 487.852 70.626 487.864 69.678C487.876 68.73 487.882 67.842 487.882 67.014ZM479.134 66.042L480.196 67.014C479.656 67.302 479.062 67.59 478.414 67.878C477.778 68.154 477.172 68.4 476.596 68.616C476.572 68.496 476.512 68.34 476.416 68.148C476.332 67.956 476.248 67.794 476.164 67.662C476.704 67.422 477.244 67.158 477.784 66.87C478.324 66.57 478.774 66.294 479.134 66.042ZM480.52 72.81H481.636V77.472H480.52V72.81ZM480.538 66.042H481.726V70.92H484.048V72.018H480.538V66.042ZM483.382 70.92H484.57V77.454H483.382V70.92ZM474.31 77.022H490.744V78.282H474.31V77.022ZM484.174 79.416L485.146 78.516C485.806 78.828 486.472 79.164 487.144 79.524C487.828 79.884 488.47 80.238 489.07 80.586C489.67 80.934 490.192 81.258 490.636 81.558L489.358 82.494C488.962 82.194 488.482 81.864 487.918 81.504C487.354 81.156 486.748 80.802 486.1 80.442C485.464 80.082 484.822 79.74 484.174 79.416ZM479.476 78.552L480.736 79.38C480.268 79.752 479.728 80.13 479.116 80.514C478.516 80.886 477.898 81.24 477.262 81.576C476.638 81.924 476.044 82.224 475.48 82.476C475.36 82.332 475.198 82.164 474.994 81.972C474.79 81.792 474.61 81.642 474.454 81.522C475.03 81.27 475.63 80.982 476.254 80.658C476.89 80.322 477.49 79.974 478.054 79.614C478.63 79.242 479.104 78.888 479.476 78.552ZM493.372 67.914H507.7V69.3H493.372V67.914ZM492.436 79.704H508.618V81.054H492.436V79.704ZM499.708 68.616H501.202V80.262H499.708V68.616ZM521.092 74.358H522.424V81.576H521.092V74.358ZM517.15 73.872H526.438V75.06H517.15V73.872ZM516.358 80.766H526.834V81.954H516.358V80.766ZM517.564 77.238H526.042V78.408H517.564V77.238ZM519.076 67.806V71.118H524.512V67.806H519.076ZM517.816 66.636H525.826V72.288H517.816V66.636ZM513.316 67.374H514.648V82.404H513.316V67.374ZM510.382 70.956H516.898V72.216H510.382V70.956ZM513.388 71.442L514.234 71.802C514.054 72.438 513.832 73.098 513.568 73.782C513.304 74.454 513.016 75.126 512.704 75.798C512.404 76.458 512.08 77.082 511.732 77.67C511.396 78.246 511.054 78.738 510.706 79.146C510.634 78.966 510.526 78.756 510.382 78.516C510.25 78.276 510.124 78.072 510.004 77.904C510.34 77.544 510.67 77.112 510.994 76.608C511.318 76.104 511.63 75.558 511.93 74.97C512.242 74.382 512.524 73.788 512.776 73.188C513.028 72.576 513.232 71.994 513.388 71.442ZM515.998 66.132L516.934 67.176C516.382 67.392 515.752 67.596 515.044 67.788C514.336 67.98 513.604 68.148 512.848 68.292C512.104 68.424 511.378 68.538 510.67 68.634C510.646 68.49 510.592 68.322 510.508 68.13C510.424 67.926 510.346 67.752 510.274 67.608C510.946 67.488 511.636 67.356 512.344 67.212C513.064 67.068 513.742 66.906 514.378 66.726C515.014 66.534 515.554 66.336 515.998 66.132ZM514.576 73.26C514.696 73.368 514.87 73.542 515.098 73.782C515.338 74.01 515.596 74.262 515.872 74.538C516.148 74.802 516.394 75.054 516.61 75.294C516.838 75.534 517 75.708 517.096 75.816L516.286 76.878C516.178 76.698 516.022 76.47 515.818 76.194C515.626 75.918 515.41 75.624 515.17 75.312C514.93 75 514.702 74.712 514.486 74.448C514.27 74.184 514.09 73.974 513.946 73.818L514.576 73.26ZM529.48 68.58H534.376V73.584H529.48V72.414H533.152V69.75H529.48V68.58ZM529.516 75.258H534.538V80.676H529.516V79.506H533.314V76.428H529.516V75.258ZM528.94 68.58H530.164V81.9H528.94V68.58ZM535.078 66.816H544.708V68.058H535.078V66.816ZM531.226 65.862L532.702 66.078C532.51 66.606 532.3 67.158 532.072 67.734C531.844 68.298 531.622 68.784 531.406 69.192L530.326 68.94C530.434 68.652 530.548 68.328 530.668 67.968C530.788 67.608 530.896 67.242 530.992 66.87C531.1 66.498 531.178 66.162 531.226 65.862ZM539.218 67.356H540.496V82.422H539.218V67.356ZM535.762 70.29H543.538V71.514H537.004V79.74H535.762V70.29ZM542.908 70.29H544.168V78.3C544.168 78.612 544.132 78.864 544.06 79.056C543.988 79.248 543.844 79.392 543.628 79.488C543.424 79.596 543.16 79.662 542.836 79.686C542.512 79.71 542.11 79.722 541.63 79.722C541.606 79.542 541.552 79.344 541.468 79.128C541.396 78.9 541.318 78.702 541.234 78.534C541.57 78.546 541.87 78.552 542.134 78.552C542.398 78.552 542.566 78.546 542.638 78.534C542.746 78.534 542.818 78.516 542.854 78.48C542.89 78.444 542.908 78.378 542.908 78.282V70.29ZM473.896 103.592H480.934V104.636H473.896V103.592ZM473.896 106.544H480.934V107.606H473.896V106.544ZM473.914 109.496H481.78V110.648H473.914V109.496ZM471.844 96.716H481.69V99.812H480.466V97.886H473.032V99.812H471.844V96.716ZM476.812 101.432H478.072V110.108H476.812V101.432ZM474.364 100.586H481.24V101.756H474.364V111.44H473.086V101.792L474.256 100.586H474.364ZM476.074 94.862L477.352 95.114C476.848 96.938 476.152 98.582 475.264 100.046C474.388 101.51 473.338 102.722 472.114 103.682C472.054 103.598 471.964 103.496 471.844 103.376C471.736 103.244 471.616 103.118 471.484 102.998C471.364 102.878 471.256 102.782 471.16 102.71C472.348 101.834 473.35 100.724 474.166 99.38C474.994 98.024 475.63 96.518 476.074 94.862ZM477.946 98.444L479.206 98.75C478.99 99.218 478.768 99.692 478.54 100.172C478.324 100.64 478.114 101.042 477.91 101.378L476.884 101.09C477.076 100.73 477.274 100.298 477.478 99.794C477.682 99.278 477.838 98.828 477.946 98.444ZM465.454 96.086H471.808V97.346H465.454V96.086ZM467.272 101.342H471.322V109.226H467.272V108.038H470.152V102.548H467.272V101.342ZM467.56 96.68L468.856 96.878C468.676 98.138 468.442 99.362 468.154 100.55C467.878 101.726 467.536 102.824 467.128 103.844C466.732 104.864 466.258 105.77 465.706 106.562C465.658 106.466 465.586 106.34 465.49 106.184C465.394 106.016 465.298 105.854 465.202 105.698C465.106 105.53 465.016 105.398 464.932 105.302C465.412 104.618 465.82 103.826 466.156 102.926C466.504 102.014 466.792 101.03 467.02 99.974C467.248 98.906 467.428 97.808 467.56 96.68ZM466.714 101.342H467.848V110.648H466.714V101.342ZM493.66 96.14H494.902C494.818 96.86 494.686 97.58 494.506 98.3C494.326 99.008 494.074 99.686 493.75 100.334C493.426 100.982 493 101.582 492.472 102.134C491.944 102.674 491.284 103.142 490.492 103.538C490.42 103.394 490.3 103.226 490.132 103.034C489.976 102.842 489.832 102.692 489.7 102.584C490.432 102.248 491.038 101.84 491.518 101.36C491.998 100.868 492.382 100.34 492.67 99.776C492.958 99.2 493.174 98.606 493.318 97.994C493.474 97.37 493.588 96.752 493.66 96.14ZM490.366 98.714L491.014 97.76C491.638 97.976 492.286 98.234 492.958 98.534C493.63 98.822 494.26 99.128 494.848 99.452C495.448 99.764 495.946 100.058 496.342 100.334L495.676 101.396C495.28 101.108 494.782 100.796 494.182 100.46C493.594 100.124 492.964 99.8 492.292 99.488C491.632 99.176 490.99 98.918 490.366 98.714ZM497.908 95.654H499.186C499.186 95.654 499.186 95.69 499.186 95.762C499.186 95.822 499.186 95.9 499.186 95.996C499.186 96.08 499.186 96.152 499.186 96.212C499.126 97.628 499.06 98.774 498.988 99.65C498.916 100.526 498.832 101.192 498.736 101.648C498.64 102.104 498.514 102.416 498.358 102.584C498.226 102.764 498.076 102.89 497.908 102.962C497.74 103.034 497.53 103.082 497.278 103.106C497.062 103.13 496.762 103.142 496.378 103.142C496.006 103.13 495.604 103.112 495.172 103.088C495.16 102.908 495.124 102.704 495.064 102.476C495.004 102.236 494.92 102.032 494.812 101.864C495.232 101.9 495.616 101.924 495.964 101.936C496.312 101.936 496.558 101.936 496.702 101.936C496.966 101.96 497.158 101.9 497.278 101.756C497.386 101.636 497.476 101.372 497.548 100.964C497.632 100.556 497.704 99.944 497.764 99.128C497.824 98.312 497.872 97.226 497.908 95.87V95.654ZM492.4 105.23H493.642V109.586C493.642 109.802 493.678 109.94 493.75 110C493.822 110.06 493.984 110.09 494.236 110.09C494.284 110.09 494.386 110.09 494.542 110.09C494.698 110.09 494.866 110.09 495.046 110.09C495.238 110.09 495.412 110.09 495.568 110.09C495.724 110.09 495.844 110.09 495.928 110.09C496.084 110.09 496.204 110.048 496.288 109.964C496.372 109.868 496.432 109.676 496.468 109.388C496.504 109.1 496.528 108.65 496.54 108.038C496.624 108.11 496.732 108.182 496.864 108.254C496.996 108.314 497.134 108.368 497.278 108.416C497.422 108.464 497.554 108.506 497.674 108.542C497.638 109.274 497.566 109.838 497.458 110.234C497.35 110.642 497.182 110.918 496.954 111.062C496.738 111.218 496.438 111.296 496.054 111.296C495.994 111.296 495.868 111.296 495.676 111.296C495.484 111.296 495.28 111.296 495.064 111.296C494.848 111.296 494.644 111.296 494.452 111.296C494.272 111.296 494.14 111.296 494.056 111.296C493.612 111.296 493.264 111.248 493.012 111.152C492.772 111.056 492.61 110.882 492.526 110.63C492.442 110.378 492.4 110.036 492.4 109.604V105.23ZM490.69 105.842L491.77 106.13C491.71 106.658 491.62 107.192 491.5 107.732C491.392 108.272 491.236 108.782 491.032 109.262C490.828 109.73 490.57 110.132 490.258 110.468L489.25 109.82C489.538 109.52 489.772 109.16 489.952 108.74C490.144 108.308 490.3 107.846 490.42 107.354C490.54 106.85 490.63 106.346 490.69 105.842ZM492.688 103.592L493.498 102.8C493.894 102.992 494.296 103.226 494.704 103.502C495.112 103.778 495.496 104.06 495.856 104.348C496.216 104.636 496.504 104.906 496.72 105.158L495.892 106.058C495.676 105.806 495.394 105.53 495.046 105.23C494.698 104.93 494.32 104.642 493.912 104.366C493.504 104.078 493.096 103.82 492.688 103.592ZM496.9 105.968L497.998 105.518C498.322 105.962 498.622 106.442 498.898 106.958C499.186 107.462 499.426 107.966 499.618 108.47C499.822 108.974 499.966 109.43 500.05 109.838L498.844 110.324C498.772 109.916 498.64 109.46 498.448 108.956C498.256 108.452 498.022 107.942 497.746 107.426C497.482 106.898 497.2 106.412 496.9 105.968ZM490.51 95.654H498.484V96.806H490.51V95.654ZM483.994 100.334H489.106V101.396H483.994V100.334ZM484.066 95.51H489.052V96.59H484.066V95.51ZM483.994 102.728H489.106V103.808H483.994V102.728ZM483.184 97.868H489.628V99.002H483.184V97.868ZM484.606 105.158H489.124V110.414H484.606V109.298H487.954V106.292H484.606V105.158ZM483.976 105.158H485.128V111.242H483.976V105.158ZM513.946 96.554H515.35V109.496C515.35 109.976 515.278 110.342 515.134 110.594C515.002 110.858 514.756 111.05 514.396 111.17C514.048 111.29 513.556 111.356 512.92 111.368C512.296 111.392 511.534 111.404 510.634 111.404C510.61 111.272 510.562 111.116 510.49 110.936C510.43 110.768 510.364 110.594 510.292 110.414C510.22 110.234 510.148 110.078 510.076 109.946C510.556 109.97 511.024 109.988 511.48 110C511.948 110 512.35 110 512.686 110C513.034 110 513.28 110 513.424 110C513.616 109.976 513.748 109.934 513.82 109.874C513.904 109.802 513.946 109.67 513.946 109.478V96.554ZM503.344 100.154H504.658V108.326H503.344V100.154ZM503.902 100.154H510.724V106.886H503.902V105.59H509.392V101.45H503.902V100.154ZM501.508 96.158H517.564V97.508H501.508V96.158ZM526.33 95.96H535.186V97.256H526.33V95.96ZM531.604 101.324H532.972V109.712C532.972 110.132 532.912 110.45 532.792 110.666C532.672 110.894 532.462 111.068 532.162 111.188C531.85 111.284 531.424 111.338 530.884 111.35C530.356 111.374 529.648 111.386 528.76 111.386C528.736 111.206 528.682 110.99 528.598 110.738C528.514 110.486 528.418 110.258 528.31 110.054C528.742 110.066 529.15 110.078 529.534 110.09C529.918 110.102 530.254 110.102 530.542 110.09C530.83 110.09 531.028 110.09 531.136 110.09C531.304 110.078 531.424 110.048 531.496 110C531.568 109.94 531.604 109.838 531.604 109.694V101.324ZM525.538 100.928H535.69V102.224H525.538V100.928ZM521.956 102.332L523.144 101.144L523.288 101.216V111.494H521.956V102.332ZM524.026 98.732L525.304 99.2C524.848 99.956 524.32 100.712 523.72 101.468C523.12 102.224 522.49 102.932 521.83 103.592C521.182 104.24 520.54 104.822 519.904 105.338C519.832 105.242 519.736 105.122 519.616 104.978C519.508 104.834 519.394 104.69 519.274 104.546C519.154 104.402 519.046 104.288 518.95 104.204C519.574 103.76 520.192 103.244 520.804 102.656C521.428 102.068 522.016 101.438 522.568 100.766C523.132 100.094 523.618 99.416 524.026 98.732ZM523.306 94.862L524.602 95.402C524.206 95.918 523.744 96.452 523.216 97.004C522.7 97.544 522.154 98.066 521.578 98.57C521.014 99.062 520.462 99.5 519.922 99.884C519.862 99.788 519.784 99.674 519.688 99.542C519.604 99.398 519.508 99.26 519.4 99.128C519.304 98.984 519.214 98.876 519.13 98.804C519.634 98.456 520.144 98.06 520.66 97.616C521.188 97.172 521.68 96.71 522.136 96.23C522.604 95.75 522.994 95.294 523.306 94.862ZM539.596 94.88H540.946V111.422H539.596V94.88ZM537.94 98.3L538.966 98.444C538.93 98.936 538.87 99.476 538.786 100.064C538.714 100.652 538.612 101.228 538.48 101.792C538.36 102.356 538.222 102.86 538.066 103.304L537.004 102.944C537.172 102.536 537.316 102.068 537.436 101.54C537.556 101 537.658 100.448 537.742 99.884C537.838 99.308 537.904 98.78 537.94 98.3ZM541.072 98.192L542.026 97.778C542.302 98.258 542.56 98.786 542.8 99.362C543.052 99.926 543.226 100.4 543.322 100.784L542.314 101.306C542.254 101.03 542.158 100.718 542.026 100.37C541.894 100.01 541.744 99.638 541.576 99.254C541.42 98.87 541.252 98.516 541.072 98.192ZM544.762 95.708L546.076 95.924C545.92 96.8 545.722 97.658 545.482 98.498C545.254 99.338 544.996 100.124 544.708 100.856C544.432 101.588 544.126 102.236 543.79 102.8C543.706 102.74 543.586 102.668 543.43 102.584C543.286 102.5 543.136 102.422 542.98 102.35C542.824 102.278 542.692 102.218 542.584 102.17C542.932 101.642 543.244 101.036 543.52 100.352C543.796 99.656 544.036 98.912 544.24 98.12C544.456 97.316 544.63 96.512 544.762 95.708ZM544.762 98.696H553.15V99.992H544.348L544.762 98.696ZM547.678 94.952H549.046V110.234H547.678V94.952ZM543.862 103.736H552.754V104.996H543.862V103.736ZM542.512 109.514H553.582V110.792H542.512V109.514Z" fill="#1368AA"/>
</g>
<g filter="url(#filter3_dd_575_1744)">
<rect x="639" y="14" width="148.515" height="150" rx="74.2574" fill="white"/>
<path d="M687.396 88.592H694.434V89.636H687.396V88.592ZM687.396 91.544H694.434V92.606H687.396V91.544ZM687.414 94.496H695.28V95.648H687.414V94.496ZM685.344 81.716H695.19V84.812H693.966V82.886H686.532V84.812H685.344V81.716ZM690.312 86.432H691.572V95.108H690.312V86.432ZM687.864 85.586H694.74V86.756H687.864V96.44H686.586V86.792L687.756 85.586H687.864ZM689.574 79.862L690.852 80.114C690.348 81.938 689.652 83.582 688.764 85.046C687.888 86.51 686.838 87.722 685.614 88.682C685.554 88.598 685.464 88.496 685.344 88.376C685.236 88.244 685.116 88.118 684.984 87.998C684.864 87.878 684.756 87.782 684.66 87.71C685.848 86.834 686.85 85.724 687.666 84.38C688.494 83.024 689.13 81.518 689.574 79.862ZM691.446 83.444L692.706 83.75C692.49 84.218 692.268 84.692 692.04 85.172C691.824 85.64 691.614 86.042 691.41 86.378L690.384 86.09C690.576 85.73 690.774 85.298 690.978 84.794C691.182 84.278 691.338 83.828 691.446 83.444ZM678.954 81.086H685.308V82.346H678.954V81.086ZM680.772 86.342H684.822V94.226H680.772V93.038H683.652V87.548H680.772V86.342ZM681.06 81.68L682.356 81.878C682.176 83.138 681.942 84.362 681.654 85.55C681.378 86.726 681.036 87.824 680.628 88.844C680.232 89.864 679.758 90.77 679.206 91.562C679.158 91.466 679.086 91.34 678.99 91.184C678.894 91.016 678.798 90.854 678.702 90.698C678.606 90.53 678.516 90.398 678.432 90.302C678.912 89.618 679.32 88.826 679.656 87.926C680.004 87.014 680.292 86.03 680.52 84.974C680.748 83.906 680.928 82.808 681.06 81.68ZM680.214 86.342H681.348V95.648H680.214V86.342ZM707.16 81.14H708.402C708.318 81.86 708.186 82.58 708.006 83.3C707.826 84.008 707.574 84.686 707.25 85.334C706.926 85.982 706.5 86.582 705.972 87.134C705.444 87.674 704.784 88.142 703.992 88.538C703.92 88.394 703.8 88.226 703.632 88.034C703.476 87.842 703.332 87.692 703.2 87.584C703.932 87.248 704.538 86.84 705.018 86.36C705.498 85.868 705.882 85.34 706.17 84.776C706.458 84.2 706.674 83.606 706.818 82.994C706.974 82.37 707.088 81.752 707.16 81.14ZM703.866 83.714L704.514 82.76C705.138 82.976 705.786 83.234 706.458 83.534C707.13 83.822 707.76 84.128 708.348 84.452C708.948 84.764 709.446 85.058 709.842 85.334L709.176 86.396C708.78 86.108 708.282 85.796 707.682 85.46C707.094 85.124 706.464 84.8 705.792 84.488C705.132 84.176 704.49 83.918 703.866 83.714ZM711.408 80.654H712.686C712.686 80.654 712.686 80.69 712.686 80.762C712.686 80.822 712.686 80.9 712.686 80.996C712.686 81.08 712.686 81.152 712.686 81.212C712.626 82.628 712.56 83.774 712.488 84.65C712.416 85.526 712.332 86.192 712.236 86.648C712.14 87.104 712.014 87.416 711.858 87.584C711.726 87.764 711.576 87.89 711.408 87.962C711.24 88.034 711.03 88.082 710.778 88.106C710.562 88.13 710.262 88.142 709.878 88.142C709.506 88.13 709.104 88.112 708.672 88.088C708.66 87.908 708.624 87.704 708.564 87.476C708.504 87.236 708.42 87.032 708.312 86.864C708.732 86.9 709.116 86.924 709.464 86.936C709.812 86.936 710.058 86.936 710.202 86.936C710.466 86.96 710.658 86.9 710.778 86.756C710.886 86.636 710.976 86.372 711.048 85.964C711.132 85.556 711.204 84.944 711.264 84.128C711.324 83.312 711.372 82.226 711.408 80.87V80.654ZM705.9 90.23H707.142V94.586C707.142 94.802 707.178 94.94 707.25 95C707.322 95.06 707.484 95.09 707.736 95.09C707.784 95.09 707.886 95.09 708.042 95.09C708.198 95.09 708.366 95.09 708.546 95.09C708.738 95.09 708.912 95.09 709.068 95.09C709.224 95.09 709.344 95.09 709.428 95.09C709.584 95.09 709.704 95.048 709.788 94.964C709.872 94.868 709.932 94.676 709.968 94.388C710.004 94.1 710.028 93.65 710.04 93.038C710.124 93.11 710.232 93.182 710.364 93.254C710.496 93.314 710.634 93.368 710.778 93.416C710.922 93.464 711.054 93.506 711.174 93.542C711.138 94.274 711.066 94.838 710.958 95.234C710.85 95.642 710.682 95.918 710.454 96.062C710.238 96.218 709.938 96.296 709.554 96.296C709.494 96.296 709.368 96.296 709.176 96.296C708.984 96.296 708.78 96.296 708.564 96.296C708.348 96.296 708.144 96.296 707.952 96.296C707.772 96.296 707.64 96.296 707.556 96.296C707.112 96.296 706.764 96.248 706.512 96.152C706.272 96.056 706.11 95.882 706.026 95.63C705.942 95.378 705.9 95.036 705.9 94.604V90.23ZM704.19 90.842L705.27 91.13C705.21 91.658 705.12 92.192 705 92.732C704.892 93.272 704.736 93.782 704.532 94.262C704.328 94.73 704.07 95.132 703.758 95.468L702.75 94.82C703.038 94.52 703.272 94.16 703.452 93.74C703.644 93.308 703.8 92.846 703.92 92.354C704.04 91.85 704.13 91.346 704.19 90.842ZM706.188 88.592L706.998 87.8C707.394 87.992 707.796 88.226 708.204 88.502C708.612 88.778 708.996 89.06 709.356 89.348C709.716 89.636 710.004 89.906 710.22 90.158L709.392 91.058C709.176 90.806 708.894 90.53 708.546 90.23C708.198 89.93 707.82 89.642 707.412 89.366C707.004 89.078 706.596 88.82 706.188 88.592ZM710.4 90.968L711.498 90.518C711.822 90.962 712.122 91.442 712.398 91.958C712.686 92.462 712.926 92.966 713.118 93.47C713.322 93.974 713.466 94.43 713.55 94.838L712.344 95.324C712.272 94.916 712.14 94.46 711.948 93.956C711.756 93.452 711.522 92.942 711.246 92.426C710.982 91.898 710.7 91.412 710.4 90.968ZM704.01 80.654H711.984V81.806H704.01V80.654ZM697.494 85.334H702.606V86.396H697.494V85.334ZM697.566 80.51H702.552V81.59H697.566V80.51ZM697.494 87.728H702.606V88.808H697.494V87.728ZM696.684 82.868H703.128V84.002H696.684V82.868ZM698.106 90.158H702.624V95.414H698.106V94.298H701.454V91.292H698.106V90.158ZM697.476 90.158H698.628V96.242H697.476V90.158ZM714.954 82.994H731.064V84.29H714.954V82.994ZM720.84 87.242H728.022V88.538H720.84V87.242ZM727.536 87.242H728.94C728.94 87.242 728.934 87.284 728.922 87.368C728.922 87.452 728.916 87.548 728.904 87.656C728.904 87.752 728.898 87.836 728.886 87.908C728.766 89.624 728.64 91.022 728.508 92.102C728.376 93.17 728.226 93.992 728.058 94.568C727.89 95.144 727.686 95.552 727.446 95.792C727.242 96.008 727.02 96.158 726.78 96.242C726.54 96.326 726.246 96.38 725.898 96.404C725.586 96.428 725.154 96.434 724.602 96.422C724.05 96.41 723.474 96.386 722.874 96.35C722.862 96.158 722.808 95.936 722.712 95.684C722.628 95.444 722.52 95.228 722.388 95.036C723.036 95.084 723.648 95.114 724.224 95.126C724.8 95.15 725.202 95.162 725.43 95.162C725.634 95.162 725.802 95.15 725.934 95.126C726.078 95.102 726.198 95.042 726.294 94.946C726.486 94.778 726.654 94.424 726.798 93.884C726.942 93.332 727.074 92.54 727.194 91.508C727.314 90.464 727.428 89.12 727.536 87.476V87.242ZM720.516 83.714H722.028C721.98 84.674 721.902 85.646 721.794 86.63C721.686 87.602 721.512 88.568 721.272 89.528C721.044 90.476 720.702 91.382 720.246 92.246C719.802 93.11 719.214 93.902 718.482 94.622C717.75 95.342 716.838 95.972 715.746 96.512C715.638 96.332 715.488 96.134 715.296 95.918C715.116 95.714 714.936 95.546 714.756 95.414C715.812 94.934 716.682 94.364 717.366 93.704C718.05 93.032 718.596 92.3 719.004 91.508C719.412 90.704 719.718 89.864 719.922 88.988C720.126 88.112 720.264 87.23 720.336 86.342C720.42 85.442 720.48 84.566 720.516 83.714ZM722.244 79.826H723.63V83.552H722.244V79.826ZM740.298 79.88H741.648V81.95H740.298V79.88ZM740.28 89.366H741.63V96.422H740.28V89.366ZM733.44 81.23H748.65V83.822H747.336V82.382H734.718V83.822H733.44V81.23ZM733.242 84.272H748.848V85.37H733.242V84.272ZM732.936 90.86H749.082V92.012H732.936V90.86ZM739.362 82.58L740.64 82.976C740.256 83.492 739.836 84.044 739.38 84.632C738.936 85.22 738.492 85.79 738.048 86.342C737.616 86.894 737.214 87.38 736.842 87.8L735.582 87.404C735.966 86.984 736.38 86.498 736.824 85.946C737.268 85.382 737.712 84.812 738.156 84.236C738.6 83.648 739.002 83.096 739.362 82.58ZM736.644 87.26L737.4 86.432C738.264 86.576 739.176 86.762 740.136 86.99C741.096 87.206 742.056 87.44 743.016 87.692C743.976 87.932 744.882 88.184 745.734 88.448C746.586 88.7 747.33 88.946 747.966 89.186L747.156 90.176C746.568 89.936 745.854 89.684 745.014 89.42C744.186 89.156 743.292 88.892 742.332 88.628C741.372 88.364 740.4 88.118 739.416 87.89C738.444 87.65 737.52 87.44 736.644 87.26ZM739.794 91.454L740.784 91.922C740.256 92.546 739.59 93.14 738.786 93.704C737.994 94.268 737.136 94.76 736.212 95.18C735.288 95.612 734.37 95.948 733.458 96.188C733.398 96.08 733.314 95.96 733.206 95.828C733.11 95.696 733.008 95.564 732.9 95.432C732.804 95.3 732.708 95.186 732.612 95.09C733.524 94.898 734.436 94.622 735.348 94.262C736.26 93.89 737.106 93.464 737.886 92.984C738.666 92.492 739.302 91.982 739.794 91.454ZM742.17 91.436C742.686 91.976 743.34 92.486 744.132 92.966C744.936 93.446 745.8 93.872 746.724 94.244C747.66 94.604 748.584 94.886 749.496 95.09C749.412 95.174 749.31 95.282 749.19 95.414C749.082 95.558 748.974 95.696 748.866 95.828C748.77 95.972 748.692 96.104 748.632 96.224C747.72 95.972 746.796 95.63 745.86 95.198C744.924 94.766 744.048 94.268 743.232 93.704C742.416 93.14 741.732 92.534 741.18 91.886L742.17 91.436ZM744.132 84.884H745.554C745.314 85.52 744.996 86.09 744.6 86.594C744.204 87.098 743.712 87.548 743.124 87.944C742.548 88.328 741.84 88.658 741 88.934C740.172 89.21 739.194 89.444 738.066 89.636C736.938 89.816 735.636 89.96 734.16 90.068C734.136 89.912 734.076 89.726 733.98 89.51C733.884 89.294 733.8 89.114 733.728 88.97C735.132 88.886 736.362 88.772 737.418 88.628C738.474 88.472 739.38 88.28 740.136 88.052C740.892 87.824 741.528 87.56 742.044 87.26C742.56 86.948 742.986 86.6 743.322 86.216C743.658 85.82 743.928 85.376 744.132 84.884Z" fill="#1368AA"/>
</g>
<g filter="url(#filter4_dd_575_1744)">
<rect x="843" y="14" width="148.515" height="150" rx="74.2574" fill="white"/>
<path d="M883.422 81.734H890.082V82.886H883.422V81.734ZM883.188 91.616H890.262V92.786H883.188V91.616ZM890.514 83.408H896.994V84.668H890.514V83.408ZM882.756 84.614H890.802V85.784H882.756V84.614ZM883.008 88.556H890.532V89.726H883.008V88.556ZM886.158 79.862H887.418V85.082H886.158V79.862ZM886.158 88.934H887.418V96.404H886.158V88.934ZM890.334 88.142L891.072 87.206C891.684 87.578 892.314 88.004 892.962 88.484C893.622 88.964 894.228 89.45 894.78 89.942C895.344 90.422 895.788 90.872 896.112 91.292L895.302 92.372C894.99 91.952 894.558 91.49 894.006 90.986C893.454 90.482 892.86 89.984 892.224 89.492C891.588 88.988 890.958 88.538 890.334 88.142ZM888.606 85.748L889.776 86.036C889.596 86.504 889.41 86.978 889.218 87.458C889.038 87.926 888.858 88.334 888.678 88.682L887.688 88.394C887.796 88.154 887.91 87.878 888.03 87.566C888.15 87.242 888.258 86.918 888.354 86.594C888.462 86.27 888.546 85.988 888.606 85.748ZM883.998 86.036L885.024 85.766C885.228 86.174 885.408 86.624 885.564 87.116C885.732 87.608 885.84 88.028 885.888 88.376L884.808 88.7C884.772 88.352 884.676 87.932 884.52 87.44C884.364 86.936 884.19 86.468 883.998 86.036ZM896.346 83.408H897.642C897.63 84.488 897.618 85.52 897.606 86.504C897.594 87.476 897.588 88.388 897.588 89.24C897.588 90.092 897.6 90.866 897.624 91.562C897.66 92.258 897.708 92.864 897.768 93.38C897.84 93.884 897.93 94.28 898.038 94.568C898.158 94.856 898.302 95.03 898.47 95.09C898.518 95.102 898.56 94.964 898.596 94.676C898.644 94.388 898.68 94.01 898.704 93.542C898.728 93.062 898.746 92.546 898.758 91.994C898.842 92.102 898.932 92.21 899.028 92.318C899.136 92.426 899.238 92.528 899.334 92.624C899.442 92.72 899.532 92.792 899.604 92.84C899.568 93.908 899.484 94.718 899.352 95.27C899.22 95.822 899.046 96.176 898.83 96.332C898.614 96.488 898.35 96.512 898.038 96.404C897.654 96.284 897.348 95.978 897.12 95.486C896.892 95.006 896.718 94.376 896.598 93.596C896.49 92.804 896.418 91.886 896.382 90.842C896.346 89.786 896.328 88.634 896.328 87.386C896.34 86.138 896.346 84.812 896.346 83.408ZM892.962 79.88H894.24V85.316C894.24 86.24 894.192 87.194 894.096 88.178C894 89.162 893.802 90.146 893.502 91.13C893.214 92.114 892.776 93.062 892.188 93.974C891.6 94.874 890.814 95.708 889.83 96.476C889.758 96.392 889.656 96.296 889.524 96.188C889.404 96.08 889.278 95.972 889.146 95.864C889.014 95.768 888.894 95.69 888.786 95.63C889.734 94.922 890.49 94.148 891.054 93.308C891.618 92.456 892.032 91.574 892.296 90.662C892.572 89.75 892.752 88.844 892.836 87.944C892.92 87.032 892.962 86.156 892.962 85.316V79.88ZM907.83 80.96H916.686V82.256H907.83V80.96ZM913.104 86.324H914.472V94.712C914.472 95.132 914.412 95.45 914.292 95.666C914.172 95.894 913.962 96.068 913.662 96.188C913.35 96.284 912.924 96.338 912.384 96.35C911.856 96.374 911.148 96.386 910.26 96.386C910.236 96.206 910.182 95.99 910.098 95.738C910.014 95.486 909.918 95.258 909.81 95.054C910.242 95.066 910.65 95.078 911.034 95.09C911.418 95.102 911.754 95.102 912.042 95.09C912.33 95.09 912.528 95.09 912.636 95.09C912.804 95.078 912.924 95.048 912.996 95C913.068 94.94 913.104 94.838 913.104 94.694V86.324ZM907.038 85.928H917.19V87.224H907.038V85.928ZM903.456 87.332L904.644 86.144L904.788 86.216V96.494H903.456V87.332ZM905.526 83.732L906.804 84.2C906.348 84.956 905.82 85.712 905.22 86.468C904.62 87.224 903.99 87.932 903.33 88.592C902.682 89.24 902.04 89.822 901.404 90.338C901.332 90.242 901.236 90.122 901.116 89.978C901.008 89.834 900.894 89.69 900.774 89.546C900.654 89.402 900.546 89.288 900.45 89.204C901.074 88.76 901.692 88.244 902.304 87.656C902.928 87.068 903.516 86.438 904.068 85.766C904.632 85.094 905.118 84.416 905.526 83.732ZM904.806 79.862L906.102 80.402C905.706 80.918 905.244 81.452 904.716 82.004C904.2 82.544 903.654 83.066 903.078 83.57C902.514 84.062 901.962 84.5 901.422 84.884C901.362 84.788 901.284 84.674 901.188 84.542C901.104 84.398 901.008 84.26 900.9 84.128C900.804 83.984 900.714 83.876 900.63 83.804C901.134 83.456 901.644 83.06 902.16 82.616C902.688 82.172 903.18 81.71 903.636 81.23C904.104 80.75 904.494 80.294 904.806 79.862ZM926.946 80.456H928.224V82.652C928.224 83.156 928.164 83.696 928.044 84.272C927.924 84.848 927.702 85.406 927.378 85.946C927.054 86.486 926.568 86.972 925.92 87.404C925.86 87.308 925.764 87.206 925.632 87.098C925.512 86.978 925.386 86.864 925.254 86.756C925.134 86.636 925.026 86.552 924.93 86.504C925.506 86.12 925.938 85.712 926.226 85.28C926.514 84.836 926.706 84.386 926.802 83.93C926.898 83.474 926.946 83.036 926.946 82.616V80.456ZM931.32 80.456H932.616V84.866C932.616 85.07 932.634 85.202 932.67 85.262C932.718 85.31 932.814 85.334 932.958 85.334C933.006 85.334 933.09 85.334 933.21 85.334C933.33 85.334 933.456 85.334 933.588 85.334C933.72 85.334 933.816 85.334 933.876 85.334C933.972 85.334 934.044 85.292 934.092 85.208C934.152 85.124 934.194 84.944 934.218 84.668C934.254 84.38 934.272 83.948 934.272 83.372C934.404 83.48 934.584 83.576 934.812 83.66C935.04 83.744 935.244 83.81 935.424 83.858C935.388 84.566 935.316 85.112 935.208 85.496C935.112 85.88 934.968 86.15 934.776 86.306C934.596 86.45 934.344 86.522 934.02 86.522C933.936 86.522 933.81 86.522 933.642 86.522C933.474 86.522 933.3 86.522 933.12 86.522C932.952 86.522 932.832 86.522 932.76 86.522C932.388 86.522 932.094 86.474 931.878 86.378C931.674 86.282 931.53 86.12 931.446 85.892C931.362 85.652 931.32 85.316 931.32 84.884V80.456ZM927.918 88.934C928.53 90.494 929.484 91.826 930.78 92.93C932.088 94.034 933.648 94.814 935.46 95.27C935.364 95.354 935.256 95.468 935.136 95.612C935.028 95.756 934.92 95.9 934.812 96.044C934.716 96.188 934.632 96.314 934.56 96.422C932.7 95.882 931.104 95.006 929.772 93.794C928.452 92.57 927.432 91.082 926.712 89.33L927.918 88.934ZM932.958 87.674H933.21L933.444 87.62L934.326 87.962C934.014 89.15 933.57 90.206 932.994 91.13C932.43 92.042 931.77 92.846 931.014 93.542C930.258 94.238 929.43 94.82 928.53 95.288C927.642 95.768 926.7 96.152 925.704 96.44C925.668 96.32 925.608 96.182 925.524 96.026C925.44 95.882 925.35 95.738 925.254 95.594C925.158 95.45 925.062 95.336 924.966 95.252C925.878 95.012 926.754 94.682 927.594 94.262C928.434 93.842 929.208 93.332 929.916 92.732C930.636 92.12 931.254 91.412 931.77 90.608C932.286 89.804 932.682 88.904 932.958 87.908V87.674ZM925.776 87.674H933.48V88.916H925.776V87.674ZM927.486 80.456H931.986V81.662H927.486V80.456ZM919.548 85.334H924.912V86.396H919.548V85.334ZM919.62 80.51H924.876V81.59H919.62V80.51ZM919.548 87.728H924.912V88.808H919.548V87.728ZM918.684 82.868H925.542V84.002H918.684V82.868ZM920.178 90.158H924.894V95.414H920.178V94.298H923.706V91.292H920.178V90.158ZM919.512 90.158H920.7V96.242H919.512V90.158ZM943.83 86.036H953.478V87.368H943.83V86.036ZM948.06 79.934H949.41V96.44H948.06V79.934ZM937.548 85.334H943.164V86.396H937.548V85.334ZM937.638 80.51H943.182V81.59H937.638V80.51ZM937.548 87.728H943.164V88.808H937.548V87.728ZM936.684 82.868H943.848V84.002H936.684V82.868ZM938.178 90.158H943.11V95.414H938.178V94.298H941.904V91.292H938.178V90.158ZM937.512 90.158H938.718V96.242H937.512V90.158Z" fill="#1368AA"/>
</g>
<path d="M175 79L188.314 90.462C189.215 91.2373 189.245 92.6221 188.379 93.4356L175 106" stroke="#1368AA" stroke-width="3"/>
<path d="M604 79L617.314 90.462C618.215 91.2373 618.245 92.6221 617.379 93.4356L604 106" stroke="#1368AA" stroke-width="3"/>
<path d="M808 79L821.314 90.462C822.215 91.2373 822.245 92.6221 821.379 93.4356L808 106" stroke="#1368AA" stroke-width="3"/>
<path d="M377.939 87.9393C377.354 88.5251 377.354 89.4749 377.939 90.0607L387.485 99.6066C388.071 100.192 389.021 100.192 389.607 99.6066C390.192 99.0208 390.192 98.0711 389.607 97.4853L381.121 89L389.607 80.5147C390.192 79.9289 390.192 78.9792 389.607 78.3934C389.021 77.8076 388.071 77.8076 387.485 78.3934L377.939 87.9393ZM416.061 90.0607C416.646 89.4749 416.646 88.5251 416.061 87.9393L406.515 78.3934C405.929 77.8076 404.979 77.8076 404.393 78.3934C403.808 78.9792 403.808 79.9289 404.393 80.5147L412.879 89L404.393 97.4853C403.808 98.0711 403.808 99.0208 404.393 99.6066C404.979 100.192 405.929 100.192 406.515 99.6066L416.061 90.0607ZM379 90.5L415 90.5V87.5L379 87.5V90.5Z" fill="#1368AA"/>
</g>
<defs>
<filter id="filter0_dd_575_1744" x="-2" y="10" width="164.516" height="166" filterUnits="userSpaceOnUse" color-interpolation-filters="sRGB">
<feFlood flood-opacity="0" result="BackgroundImageFix"/>
<feColorMatrix in="SourceAlpha" type="matrix" values="0 0 0 0 0 0 0 0 0 0 0 0 0 0 0 0 0 0 127 0" result="hardAlpha"/>
<feOffset dy="4"/>
<feGaussianBlur stdDeviation="4"/>
<feColorMatrix type="matrix" values="0 0 0 0 0 0 0 0 0 0 0 0 0 0 0 0 0 0 0.06 0"/>
<feBlend mode="normal" in2="BackgroundImageFix" result="effect1_dropShadow_575_1744"/>
<feColorMatrix in="SourceAlpha" type="matrix" values="0 0 0 0 0 0 0 0 0 0 0 0 0 0 0 0 0 0 127 0" result="hardAlpha"/>
<feOffset/>
<feGaussianBlur stdDeviation="2"/>
<feColorMatrix type="matrix" values="0 0 0 0 0 0 0 0 0 0 0 0 0 0 0 0 0 0 0.04 0"/>
<feBlend mode="normal" in2="effect1_dropShadow_575_1744" result="effect2_dropShadow_575_1744"/>
<feBlend mode="normal" in="SourceGraphic" in2="effect2_dropShadow_575_1744" result="shape"/>
</filter>
<filter id="filter1_dd_575_1744" x="202" y="10" width="164.516" height="166" filterUnits="userSpaceOnUse" color-interpolation-filters="sRGB">
<feFlood flood-opacity="0" result="BackgroundImageFix"/>
<feColorMatrix in="SourceAlpha" type="matrix" values="0 0 0 0 0 0 0 0 0 0 0 0 0 0 0 0 0 0 127 0" result="hardAlpha"/>
<feOffset dy="4"/>
<feGaussianBlur stdDeviation="4"/>
<feColorMatrix type="matrix" values="0 0 0 0 0 0 0 0 0 0 0 0 0 0 0 0 0 0 0.06 0"/>
<feBlend mode="normal" in2="BackgroundImageFix" result="effect1_dropShadow_575_1744"/>
<feColorMatrix in="SourceAlpha" type="matrix" values="0 0 0 0 0 0 0 0 0 0 0 0 0 0 0 0 0 0 127 0" result="hardAlpha"/>
<feOffset/>
<feGaussianBlur stdDeviation="2"/>
<feColorMatrix type="matrix" values="0 0 0 0 0 0 0 0 0 0 0 0 0 0 0 0 0 0 0.04 0"/>
<feBlend mode="normal" in2="effect1_dropShadow_575_1744" result="effect2_dropShadow_575_1744"/>
<feBlend mode="normal" in="SourceGraphic" in2="effect2_dropShadow_575_1744" result="shape"/>
</filter>
<filter id="filter2_dd_575_1744" x="427" y="10" width="164.516" height="166" filterUnits="userSpaceOnUse" color-interpolation-filters="sRGB">
<feFlood flood-opacity="0" result="BackgroundImageFix"/>
<feColorMatrix in="SourceAlpha" type="matrix" values="0 0 0 0 0 0 0 0 0 0 0 0 0 0 0 0 0 0 127 0" result="hardAlpha"/>
<feOffset dy="4"/>
<feGaussianBlur stdDeviation="4"/>
<feColorMatrix type="matrix" values="0 0 0 0 0 0 0 0 0 0 0 0 0 0 0 0 0 0 0.06 0"/>
<feBlend mode="normal" in2="BackgroundImageFix" result="effect1_dropShadow_575_1744"/>
<feColorMatrix in="SourceAlpha" type="matrix" values="0 0 0 0 0 0 0 0 0 0 0 0 0 0 0 0 0 0 127 0" result="hardAlpha"/>
<feOffset/>
<feGaussianBlur stdDeviation="2"/>
<feColorMatrix type="matrix" values="0 0 0 0 0 0 0 0 0 0 0 0 0 0 0 0 0 0 0.04 0"/>
<feBlend mode="normal" in2="effect1_dropShadow_575_1744" result="effect2_dropShadow_575_1744"/>
<feBlend mode="normal" in="SourceGraphic" in2="effect2_dropShadow_575_1744" result="shape"/>
</filter>
<filter id="filter3_dd_575_1744" x="631" y="10" width="164.516" height="166" filterUnits="userSpaceOnUse" color-interpolation-filters="sRGB">
<feFlood flood-opacity="0" result="BackgroundImageFix"/>
<feColorMatrix in="SourceAlpha" type="matrix" values="0 0 0 0 0 0 0 0 0 0 0 0 0 0 0 0 0 0 127 0" result="hardAlpha"/>
<feOffset dy="4"/>
<feGaussianBlur stdDeviation="4"/>
<feColorMatrix type="matrix" values="0 0 0 0 0 0 0 0 0 0 0 0 0 0 0 0 0 0 0.06 0"/>
<feBlend mode="normal" in2="BackgroundImageFix" result="effect1_dropShadow_575_1744"/>
<feColorMatrix in="SourceAlpha" type="matrix" values="0 0 0 0 0 0 0 0 0 0 0 0 0 0 0 0 0 0 127 0" result="hardAlpha"/>
<feOffset/>
<feGaussianBlur stdDeviation="2"/>
<feColorMatrix type="matrix" values="0 0 0 0 0 0 0 0 0 0 0 0 0 0 0 0 0 0 0.04 0"/>
<feBlend mode="normal" in2="effect1_dropShadow_575_1744" result="effect2_dropShadow_575_1744"/>
<feBlend mode="normal" in="SourceGraphic" in2="effect2_dropShadow_575_1744" result="shape"/>
</filter>
<filter id="filter4_dd_575_1744" x="835" y="10" width="164.516" height="166" filterUnits="userSpaceOnUse" color-interpolation-filters="sRGB">
<feFlood flood-opacity="0" result="BackgroundImageFix"/>
<feColorMatrix in="SourceAlpha" type="matrix" values="0 0 0 0 0 0 0 0 0 0 0 0 0 0 0 0 0 0 127 0" result="hardAlpha"/>
<feOffset dy="4"/>
<feGaussianBlur stdDeviation="4"/>
<feColorMatrix type="matrix" values="0 0 0 0 0 0 0 0 0 0 0 0 0 0 0 0 0 0 0.06 0"/>
<feBlend mode="normal" in2="BackgroundImageFix" result="effect1_dropShadow_575_1744"/>
<feColorMatrix in="SourceAlpha" type="matrix" values="0 0 0 0 0 0 0 0 0 0 0 0 0 0 0 0 0 0 127 0" result="hardAlpha"/>
<feOffset/>
<feGaussianBlur stdDeviation="2"/>
<feColorMatrix type="matrix" values="0 0 0 0 0 0 0 0 0 0 0 0 0 0 0 0 0 0 0.04 0"/>
<feBlend mode="normal" in2="effect1_dropShadow_575_1744" result="effect2_dropShadow_575_1744"/>
<feBlend mode="normal" in="SourceGraphic" in2="effect2_dropShadow_575_1744" result="shape"/>
</filter>
<clipPath id="clip0_575_1744">
<rect width="1001" height="178" fill="white"/>
</clipPath>
</defs>
</svg>
