<svg width="145" height="829" viewBox="0 0 145 829" fill="none" xmlns="http://www.w3.org/2000/svg">
<path d="M137.707 17.2929C137.317 16.9024 136.683 16.9024 136.293 17.2929L129.929 23.6569C129.538 24.0474 129.538 24.6805 129.929 25.0711C130.319 25.4616 130.953 25.4616 131.343 25.0711L137 19.4142L142.657 25.0711C143.047 25.4616 143.681 25.4616 144.071 25.0711C144.462 24.6805 144.462 24.0474 144.071 23.6569L137.707 17.2929ZM136.293 807.707C136.683 808.098 137.317 808.098 137.707 807.707L144.071 801.343C144.462 800.953 144.462 800.319 144.071 799.929C143.681 799.538 143.047 799.538 142.657 799.929L137 805.586L131.343 799.929C130.953 799.538 130.319 799.538 129.929 799.929C129.538 800.319 129.538 800.953 129.929 801.343L136.293 807.707ZM136 18L136 807L138 807L138 18L136 18Z" fill="#475467"/>
<path d="M20.16 33.32L22.296 35.504C21.16 35.856 19.912 36.184 18.552 36.488C17.192 36.776 15.8 37.024 14.376 37.232C12.952 37.44 11.576 37.608 10.248 37.736C10.184 37.432 10.072 37.056 9.912 36.608C9.752 36.144 9.592 35.768 9.432 35.48C10.408 35.368 11.384 35.24 12.36 35.096C13.352 34.936 14.32 34.768 15.264 34.592C16.208 34.4 17.096 34.2 17.928 33.992C18.76 33.784 19.504 33.56 20.16 33.32ZM8.688 34.736L11.496 35.648V49.136H8.688V34.736ZM7.128 48.584C8.264 48.44 9.6 48.264 11.136 48.056C12.688 47.832 14.248 47.6 15.816 47.36L15.96 49.928C14.536 50.168 13.096 50.4 11.64 50.624C10.184 50.848 8.864 51.056 7.68 51.248L7.128 48.584ZM10.368 40.712H23.256V43.304H10.368V40.712ZM15.168 36.032H18.072C18.056 37.552 18.096 39.064 18.192 40.568C18.304 42.072 18.448 43.48 18.624 44.792C18.816 46.104 19.032 47.272 19.272 48.296C19.528 49.304 19.792 50.096 20.064 50.672C20.352 51.248 20.632 51.536 20.904 51.536C21.08 51.536 21.216 51.272 21.312 50.744C21.424 50.216 21.488 49.4 21.504 48.296C21.808 48.584 22.168 48.872 22.584 49.16C23 49.448 23.392 49.664 23.76 49.808C23.632 51.024 23.44 51.968 23.184 52.64C22.944 53.296 22.616 53.744 22.2 53.984C21.784 54.224 21.256 54.344 20.616 54.344C19.848 54.344 19.168 54 18.576 53.312C18 52.64 17.496 51.704 17.064 50.504C16.648 49.304 16.304 47.928 16.032 46.376C15.76 44.808 15.552 43.144 15.408 41.384C15.28 39.624 15.2 37.84 15.168 36.032ZM7.992 52.16H17.64V54.68H7.992V52.16ZM5.688 32.696L8.4 33.56C7.888 34.904 7.28 36.264 6.576 37.64C5.872 39 5.112 40.296 4.296 41.528C3.48 42.744 2.632 43.808 1.752 44.72C1.672 44.48 1.536 44.176 1.344 43.808C1.168 43.424 0.976 43.04 0.768 42.656C0.56 42.272 0.376 41.96 0.216 41.72C0.936 40.984 1.632 40.136 2.304 39.176C2.992 38.216 3.624 37.184 4.2 36.08C4.792 34.976 5.288 33.848 5.688 32.696ZM3.384 39.344L6.12 36.608V36.632V55.112H3.384V39.344ZM25.632 44.84H35.4V46.928H25.632V44.84ZM24.744 47.96H36V50.192H24.744V47.96ZM24.936 34.544H36.024V36.776H24.936V34.544ZM26.904 32.6H29.376V38.048H26.904V32.6ZM31.656 32.6H34.128V38.048H31.656V32.6ZM29.208 39.152H31.512V43.016H29.208V39.152ZM27.696 40.328V42.008H33.096V40.328H27.696ZM25.536 38.48H35.376V43.88H25.536V38.48ZM30.72 49.76C30.976 49.888 31.344 50.088 31.824 50.36C32.304 50.616 32.808 50.904 33.336 51.224C33.864 51.528 34.344 51.816 34.776 52.088C35.224 52.36 35.552 52.56 35.76 52.688L34.128 55.04C33.84 54.784 33.48 54.48 33.048 54.128C32.616 53.776 32.16 53.416 31.68 53.048C31.216 52.696 30.76 52.36 30.312 52.04C29.864 51.72 29.472 51.448 29.136 51.224L30.72 49.76ZM29.088 42.704H31.728V47C31.728 47.736 31.656 48.48 31.512 49.232C31.384 49.984 31.128 50.72 30.744 51.44C30.36 52.16 29.808 52.84 29.088 53.48C28.368 54.136 27.432 54.72 26.28 55.232C26.104 54.928 25.84 54.584 25.488 54.2C25.152 53.832 24.832 53.528 24.528 53.288C25.52 52.904 26.312 52.456 26.904 51.944C27.512 51.432 27.976 50.888 28.296 50.312C28.616 49.736 28.824 49.16 28.92 48.584C29.032 48.008 29.088 47.464 29.088 46.952V42.704ZM37.8 41.888H46.872V44.312H37.8V41.888ZM37.8 46.616H46.872V49.04H37.8V46.616ZM37.728 51.44H47.304V54.032H37.728V51.44ZM38.496 32.6L41.136 33.224C40.8 34.456 40.4 35.688 39.936 36.92C39.488 38.136 38.992 39.288 38.448 40.376C37.904 41.464 37.336 42.408 36.744 43.208C36.6 43.048 36.392 42.856 36.12 42.632C35.864 42.392 35.6 42.16 35.328 41.936C35.056 41.696 34.824 41.512 34.632 41.384C35.176 40.68 35.688 39.856 36.168 38.912C36.664 37.968 37.104 36.96 37.488 35.888C37.888 34.8 38.224 33.704 38.496 32.6ZM43.032 32.864L45.792 33.488C45.456 34.416 45.096 35.336 44.712 36.248C44.328 37.16 43.976 37.936 43.656 38.576L41.328 37.976C41.536 37.512 41.744 36.984 41.952 36.392C42.176 35.8 42.376 35.2 42.552 34.592C42.744 33.968 42.904 33.392 43.032 32.864ZM39.576 37.088H47.064V39.656H39.576V55.184H37.008V39.824L39.552 37.088H39.576ZM41.664 38.288H44.232V52.736H41.664V38.288ZM54.024 39.368H70.68V41.624H54.024V39.368ZM54.192 46.352H67.368V48.608H54.192V46.352ZM57.264 37.784H59.976V43.232H64.392V37.784H67.2V45.392H57.264V37.784ZM66.648 46.352H67.2L67.704 46.256L69.504 47.168C68.864 48.464 68.024 49.576 66.984 50.504C65.96 51.416 64.784 52.184 63.456 52.808C62.144 53.432 60.72 53.928 59.184 54.296C57.648 54.68 56.04 54.984 54.36 55.208C54.248 54.84 54.072 54.416 53.832 53.936C53.608 53.472 53.384 53.088 53.16 52.784C54.68 52.656 56.144 52.448 57.552 52.16C58.976 51.872 60.28 51.488 61.464 51.008C62.648 50.528 63.68 49.936 64.56 49.232C65.456 48.512 66.152 47.68 66.648 46.736V46.352ZM59.136 48.128C59.856 49.024 60.816 49.792 62.016 50.432C63.216 51.056 64.6 51.56 66.168 51.944C67.736 52.328 69.448 52.6 71.304 52.76C71.096 52.952 70.88 53.192 70.656 53.48C70.448 53.784 70.248 54.088 70.056 54.392C69.88 54.696 69.728 54.976 69.6 55.232C67.664 54.976 65.888 54.592 64.272 54.08C62.656 53.568 61.208 52.896 59.928 52.064C58.648 51.216 57.56 50.2 56.664 49.016L59.136 48.128ZM59.256 32.6H62.256V36.224H59.256V32.6ZM52.056 34.784H70.824V37.352H52.056V34.784ZM50.664 34.784H53.424V41.528C53.424 42.52 53.392 43.6 53.328 44.768C53.264 45.936 53.144 47.136 52.968 48.368C52.792 49.6 52.528 50.8 52.176 51.968C51.84 53.12 51.4 54.16 50.856 55.088C50.696 54.928 50.472 54.736 50.184 54.512C49.896 54.304 49.6 54.104 49.296 53.912C48.992 53.72 48.728 53.584 48.504 53.504C49 52.656 49.392 51.72 49.68 50.696C49.968 49.672 50.184 48.632 50.328 47.576C50.472 46.504 50.56 45.448 50.592 44.408C50.64 43.368 50.664 42.408 50.664 41.528V34.784ZM83.832 34.472L85.8 32.6C86.376 32.872 86.984 33.2 87.624 33.584C88.28 33.952 88.904 34.328 89.496 34.712C90.088 35.096 90.568 35.464 90.936 35.816L88.824 37.904C88.488 37.568 88.04 37.192 87.48 36.776C86.92 36.36 86.32 35.952 85.68 35.552C85.04 35.136 84.424 34.776 83.832 34.472ZM81.144 37.448H94.368V40.16H81.144V37.448ZM81.648 44.456H93.984V47.144H81.648V44.456ZM80.184 51.68H95.28V54.464H80.184V51.68ZM86.232 38.432H89.304V53.672H86.232V38.432ZM78.504 37.76L81.048 38.792C80.472 39.768 79.784 40.752 78.984 41.744C78.2 42.736 77.376 43.664 76.512 44.528C75.648 45.392 74.792 46.152 73.944 46.808C73.864 46.6 73.728 46.32 73.536 45.968C73.36 45.616 73.168 45.264 72.96 44.912C72.752 44.544 72.568 44.256 72.408 44.048C73.144 43.552 73.888 42.968 74.64 42.296C75.392 41.608 76.104 40.88 76.776 40.112C77.448 39.328 78.024 38.544 78.504 37.76ZM77.736 32.624L80.472 33.728C79.944 34.48 79.328 35.232 78.624 35.984C77.92 36.736 77.176 37.448 76.392 38.12C75.624 38.776 74.856 39.352 74.088 39.848C73.992 39.624 73.856 39.36 73.68 39.056C73.504 38.752 73.32 38.448 73.128 38.144C72.952 37.84 72.792 37.592 72.648 37.4C73.288 37.016 73.928 36.552 74.568 36.008C75.224 35.464 75.832 34.904 76.392 34.328C76.952 33.736 77.4 33.168 77.736 32.624ZM76.056 43.328L78.72 40.664L78.84 40.736V55.16H76.056V43.328ZM107.304 39.824H117.288V42.728H107.304V39.824ZM97.032 51.056H118.992V53.96H97.032V51.056ZM105.672 32.912H108.768V52.664H105.672V32.912Z" fill="#475467"/>
<path d="M1.464 768.592H22.536V771.064H1.464V768.592ZM10.368 766.576H13.32V769.816H10.368V766.576ZM2.4 778.288H19.968V780.664H5.208V789.16H2.4V778.288ZM18.888 778.288H21.768V786.112C21.768 786.768 21.688 787.296 21.528 787.696C21.368 788.112 21.056 788.432 20.592 788.656C20.128 788.864 19.576 788.992 18.936 789.04C18.296 789.088 17.536 789.112 16.656 789.112C16.608 788.712 16.496 788.248 16.32 787.72C16.144 787.208 15.96 786.776 15.768 786.424C16.328 786.44 16.864 786.456 17.376 786.472C17.904 786.472 18.248 786.464 18.408 786.448C18.6 786.432 18.728 786.4 18.792 786.352C18.856 786.304 18.888 786.208 18.888 786.064V778.288ZM7.368 781.768H9.864V788.272H7.368V781.768ZM8.64 781.768H16.584V787.168H8.64V785.224H14.064V783.712H8.64V781.768ZM8.136 773.896V775.36H15.672V773.896H8.136ZM5.4 771.976H18.6V777.28H5.4V771.976ZM25.632 778.84H35.4V780.928H25.632V778.84ZM24.744 781.96H36V784.192H24.744V781.96ZM24.936 768.544H36.024V770.776H24.936V768.544ZM26.904 766.6H29.376V772.048H26.904V766.6ZM31.656 766.6H34.128V772.048H31.656V766.6ZM29.208 773.152H31.512V777.016H29.208V773.152ZM27.696 774.328V776.008H33.096V774.328H27.696ZM25.536 772.48H35.376V777.88H25.536V772.48ZM30.72 783.76C30.976 783.888 31.344 784.088 31.824 784.36C32.304 784.616 32.808 784.904 33.336 785.224C33.864 785.528 34.344 785.816 34.776 786.088C35.224 786.36 35.552 786.56 35.76 786.688L34.128 789.04C33.84 788.784 33.48 788.48 33.048 788.128C32.616 787.776 32.16 787.416 31.68 787.048C31.216 786.696 30.76 786.36 30.312 786.04C29.864 785.72 29.472 785.448 29.136 785.224L30.72 783.76ZM29.088 776.704H31.728V781C31.728 781.736 31.656 782.48 31.512 783.232C31.384 783.984 31.128 784.72 30.744 785.44C30.36 786.16 29.808 786.84 29.088 787.48C28.368 788.136 27.432 788.72 26.28 789.232C26.104 788.928 25.84 788.584 25.488 788.2C25.152 787.832 24.832 787.528 24.528 787.288C25.52 786.904 26.312 786.456 26.904 785.944C27.512 785.432 27.976 784.888 28.296 784.312C28.616 783.736 28.824 783.16 28.92 782.584C29.032 782.008 29.088 781.464 29.088 780.952V776.704ZM37.8 775.888H46.872V778.312H37.8V775.888ZM37.8 780.616H46.872V783.04H37.8V780.616ZM37.728 785.44H47.304V788.032H37.728V785.44ZM38.496 766.6L41.136 767.224C40.8 768.456 40.4 769.688 39.936 770.92C39.488 772.136 38.992 773.288 38.448 774.376C37.904 775.464 37.336 776.408 36.744 777.208C36.6 777.048 36.392 776.856 36.12 776.632C35.864 776.392 35.6 776.16 35.328 775.936C35.056 775.696 34.824 775.512 34.632 775.384C35.176 774.68 35.688 773.856 36.168 772.912C36.664 771.968 37.104 770.96 37.488 769.888C37.888 768.8 38.224 767.704 38.496 766.6ZM43.032 766.864L45.792 767.488C45.456 768.416 45.096 769.336 44.712 770.248C44.328 771.16 43.976 771.936 43.656 772.576L41.328 771.976C41.536 771.512 41.744 770.984 41.952 770.392C42.176 769.8 42.376 769.2 42.552 768.592C42.744 767.968 42.904 767.392 43.032 766.864ZM39.576 771.088H47.064V773.656H39.576V789.184H37.008V773.824L39.552 771.088H39.576ZM41.664 772.288H44.232V786.736H41.664V772.288ZM54.024 773.368H70.68V775.624H54.024V773.368ZM54.192 780.352H67.368V782.608H54.192V780.352ZM57.264 771.784H59.976V777.232H64.392V771.784H67.2V779.392H57.264V771.784ZM66.648 780.352H67.2L67.704 780.256L69.504 781.168C68.864 782.464 68.024 783.576 66.984 784.504C65.96 785.416 64.784 786.184 63.456 786.808C62.144 787.432 60.72 787.928 59.184 788.296C57.648 788.68 56.04 788.984 54.36 789.208C54.248 788.84 54.072 788.416 53.832 787.936C53.608 787.472 53.384 787.088 53.16 786.784C54.68 786.656 56.144 786.448 57.552 786.16C58.976 785.872 60.28 785.488 61.464 785.008C62.648 784.528 63.68 783.936 64.56 783.232C65.456 782.512 66.152 781.68 66.648 780.736V780.352ZM59.136 782.128C59.856 783.024 60.816 783.792 62.016 784.432C63.216 785.056 64.6 785.56 66.168 785.944C67.736 786.328 69.448 786.6 71.304 786.76C71.096 786.952 70.88 787.192 70.656 787.48C70.448 787.784 70.248 788.088 70.056 788.392C69.88 788.696 69.728 788.976 69.6 789.232C67.664 788.976 65.888 788.592 64.272 788.08C62.656 787.568 61.208 786.896 59.928 786.064C58.648 785.216 57.56 784.2 56.664 783.016L59.136 782.128ZM59.256 766.6H62.256V770.224H59.256V766.6ZM52.056 768.784H70.824V771.352H52.056V768.784ZM50.664 768.784H53.424V775.528C53.424 776.52 53.392 777.6 53.328 778.768C53.264 779.936 53.144 781.136 52.968 782.368C52.792 783.6 52.528 784.8 52.176 785.968C51.84 787.12 51.4 788.16 50.856 789.088C50.696 788.928 50.472 788.736 50.184 788.512C49.896 788.304 49.6 788.104 49.296 787.912C48.992 787.72 48.728 787.584 48.504 787.504C49 786.656 49.392 785.72 49.68 784.696C49.968 783.672 50.184 782.632 50.328 781.576C50.472 780.504 50.56 779.448 50.592 778.408C50.64 777.368 50.664 776.408 50.664 775.528V768.784ZM83.832 768.472L85.8 766.6C86.376 766.872 86.984 767.2 87.624 767.584C88.28 767.952 88.904 768.328 89.496 768.712C90.088 769.096 90.568 769.464 90.936 769.816L88.824 771.904C88.488 771.568 88.04 771.192 87.48 770.776C86.92 770.36 86.32 769.952 85.68 769.552C85.04 769.136 84.424 768.776 83.832 768.472ZM81.144 771.448H94.368V774.16H81.144V771.448ZM81.648 778.456H93.984V781.144H81.648V778.456ZM80.184 785.68H95.28V788.464H80.184V785.68ZM86.232 772.432H89.304V787.672H86.232V772.432ZM78.504 771.76L81.048 772.792C80.472 773.768 79.784 774.752 78.984 775.744C78.2 776.736 77.376 777.664 76.512 778.528C75.648 779.392 74.792 780.152 73.944 780.808C73.864 780.6 73.728 780.32 73.536 779.968C73.36 779.616 73.168 779.264 72.96 778.912C72.752 778.544 72.568 778.256 72.408 778.048C73.144 777.552 73.888 776.968 74.64 776.296C75.392 775.608 76.104 774.88 76.776 774.112C77.448 773.328 78.024 772.544 78.504 771.76ZM77.736 766.624L80.472 767.728C79.944 768.48 79.328 769.232 78.624 769.984C77.92 770.736 77.176 771.448 76.392 772.12C75.624 772.776 74.856 773.352 74.088 773.848C73.992 773.624 73.856 773.36 73.68 773.056C73.504 772.752 73.32 772.448 73.128 772.144C72.952 771.84 72.792 771.592 72.648 771.4C73.288 771.016 73.928 770.552 74.568 770.008C75.224 769.464 75.832 768.904 76.392 768.328C76.952 767.736 77.4 767.168 77.736 766.624ZM76.056 777.328L78.72 774.664L78.84 774.736V789.16H76.056V777.328ZM97.248 768.376H118.776V771.28H97.248V768.376ZM105.96 770.968H109.056V789.088H105.96V770.968ZM107.592 776.8L109.56 774.496C110.216 774.816 110.92 775.184 111.672 775.6C112.44 776 113.2 776.424 113.952 776.872C114.704 777.32 115.416 777.76 116.088 778.192C116.76 778.608 117.32 779.008 117.768 779.392L115.632 782.032C115.216 781.648 114.688 781.232 114.048 780.784C113.424 780.32 112.736 779.856 111.984 779.392C111.248 778.928 110.504 778.472 109.752 778.024C109 777.56 108.28 777.152 107.592 776.8Z" fill="#475467"/>
</svg>
