<svg width="995" height="591" viewBox="0 0 995 591" fill="none" xmlns="http://www.w3.org/2000/svg">
<path opacity="0.5" d="M750 300H840C851.046 300 860 308.954 860 320V409" stroke="#E1D4FF" stroke-width="4"/>
<path opacity="0.5" d="M255 348H180C168.954 348 160 356.954 160 368V420" stroke="#E1D4FF" stroke-width="4"/>
<path d="M752 335C752 343.837 744.837 351 736 351C727.164 351 720 343.837 720 335H752ZM720 335V251H752V335H720ZM704 235H544V203H704V235ZM720 251C720 242.163 712.837 235 704 235V203C730.51 203 752 224.49 752 251H720Z" fill="url(#paint0_linear_9_2609)" fill-opacity="0.3"/>
<path d="M266 273V251C266 233.327 280.327 219 298 219H458" stroke="white" stroke-width="32" stroke-linecap="round"/>
<path d="M266 273V251C266 233.327 280.327 219 298 219H458" stroke="url(#paint1_linear_9_2609)" stroke-opacity="0.3" stroke-width="32" stroke-linecap="round"/>
<path d="M266.041 273V251C266.041 233.327 280.368 219 298.041 219H432.081" stroke="white" stroke-width="32" stroke-linecap="round"/>
<path d="M266.041 273V251C266.041 233.327 280.368 219 298.041 219H432.081" stroke="url(#paint2_linear_9_2609)" stroke-width="32" stroke-linecap="round"/>
<path d="M283.578 346C283.578 337.163 276.415 330 267.578 330C258.742 330 251.578 337.163 251.578 346H283.578ZM720.489 320V347H752.489V320H720.489ZM704.489 363H299.578V395H704.489V363ZM283.578 347V346H251.578V347H283.578ZM299.578 363C290.742 363 283.578 355.837 283.578 347H251.578C251.578 373.51 273.069 395 299.578 395V363ZM720.489 347C720.489 355.837 713.325 363 704.489 363V395C730.998 395 752.489 373.51 752.489 347H720.489Z" fill="white"/>
<path d="M283.578 346C283.578 337.163 276.415 330 267.578 330C258.742 330 251.578 337.163 251.578 346H283.578ZM720.489 320V347H752.489V320H720.489ZM704.489 363H299.578V395H704.489V363ZM283.578 347V346H251.578V347H283.578ZM299.578 363C290.742 363 283.578 355.837 283.578 347H251.578C251.578 373.51 273.069 395 299.578 395V363ZM720.489 347C720.489 355.837 713.325 363 704.489 363V395C730.998 395 752.489 373.51 752.489 347H720.489Z" fill="url(#paint3_linear_9_2609)"/>
<path d="M283.578 329.221C283.578 320.384 276.415 313.221 267.578 313.221C258.742 313.221 251.578 320.384 251.578 329.221H283.578ZM720.489 330V347H752.489V330H720.489ZM704.489 363H299.578V395H704.489V363ZM283.578 347V329.221H251.578V347H283.578ZM299.578 363C290.742 363 283.578 355.837 283.578 347H251.578C251.578 373.51 273.069 395 299.578 395V363ZM720.489 347C720.489 355.837 713.325 363 704.489 363V395C730.998 395 752.489 373.51 752.489 347H720.489Z" fill="url(#paint4_linear_9_2609)" fill-opacity="0.3"/>
<path d="M752 300C752 308.837 744.837 316 736 316C727.164 316 720 308.837 720 300H752ZM720 300V251H752V300H720ZM704 235H544V203H704V235ZM720 251C720 242.163 712.837 235 704 235V203C730.51 203 752 224.49 752 251H720Z" fill="white"/>
<path d="M752 300C752 308.837 744.837 316 736 316C727.164 316 720 308.837 720 300H752ZM720 300V251H752V300H720ZM704 235H544V203H704V235ZM720 251C720 242.163 712.837 235 704 235V203C730.51 203 752 224.49 752 251H720Z" fill="url(#paint5_linear_9_2609)"/>
<g filter="url(#filter0_d_9_2609)">
<rect x="687" y="319" width="105.804" height="52" rx="26" fill="#677483"/>
<path d="M736.027 336.283L738.565 337.167C737.863 338.753 737.047 340.362 736.39 341.472L734.101 340.611C734.758 339.455 735.597 337.643 736.027 336.283ZM726.102 337.461L728.278 336.419C729.161 337.688 730.045 339.365 730.362 340.52L728.028 341.676C727.756 340.52 726.941 338.776 726.102 337.461ZM735.234 342.084H737.795V354.116C737.795 355.363 737.568 356.088 736.73 356.496C735.914 356.926 734.736 356.949 733.059 356.949C732.968 356.224 732.628 355.113 732.288 354.434C733.331 354.479 734.464 354.479 734.804 354.456C735.144 354.456 735.234 354.366 735.234 354.071V342.084ZM730.974 335.784H733.58V343.806H730.974V335.784ZM727.688 342.084H735.755V344.441H727.688V342.084ZM726.737 342.084H729.229V349.131C729.229 351.692 729.048 355.113 727.779 357.198C727.349 356.767 726.238 355.974 725.649 355.702C726.669 353.867 726.737 351.261 726.737 349.108V342.084ZM728.957 350.423C730.861 350.038 733.693 349.403 736.412 348.746L736.684 350.853C734.305 351.51 731.767 352.145 729.751 352.643L728.957 350.423ZM729.275 347.024L730.385 345.392C731.903 345.709 733.943 346.412 735.008 347.024L733.829 348.859C732.832 348.247 730.838 347.454 729.275 347.024ZM719.078 341.449H724.743V343.715H719.078V341.449ZM717.673 345.37H725.694V347.681H717.673V345.37ZM717.763 348.95L719.531 348.497C719.894 349.72 720.256 351.329 720.415 352.371L718.557 352.915C718.443 351.828 718.081 350.196 717.763 348.95ZM717.333 353.912C719.395 353.618 722.658 353.074 725.853 352.553L725.966 354.524C723.134 355.181 720.188 355.861 717.899 356.36L717.333 353.912ZM724.267 348.27L726.306 348.791C725.853 350.128 725.4 351.624 725.037 352.598L723.406 352.122C723.723 351.057 724.108 349.426 724.267 348.27ZM720.823 342.356H723.179V354.456L720.823 354.864V342.356ZM721.298 335.626L723.655 336.464C722.386 339.206 720.347 342.084 718.262 343.874C718.103 343.285 717.492 341.767 717.084 341.087C718.715 339.773 720.347 337.733 721.298 335.626ZM721.049 338.39L722.499 336.578C723.859 337.688 725.853 339.319 726.782 340.271L725.264 342.356C724.357 341.313 722.409 339.614 721.049 338.39ZM750.779 336.419L753.294 335.717C753.838 336.646 754.427 337.915 754.631 338.753L751.98 339.569C751.798 338.753 751.277 337.416 750.779 336.419ZM745.703 354.048H757.758V356.178H745.703V354.048ZM745.771 340.951H759.548V342.718H745.771V340.951ZM745.771 343.715H759.571V345.46H745.771V343.715ZM744.072 349.766H759.956V357.107H757.124V351.918H746.768V357.107H744.072V349.766ZM745.998 335.649L748.535 336.464C747.131 339.501 744.887 342.605 742.735 344.554C742.395 344.033 741.443 342.9 740.922 342.424C742.916 340.792 744.865 338.232 745.998 335.649ZM751.595 339.093H754.246V347.681H751.595V339.093ZM746.836 338.05H760.704V339.954H746.836V349.335H744.162V340.045L746.224 338.05H746.836ZM745.522 346.571H761.27V348.565H745.522V346.571Z" fill="white"/>
</g>
<g filter="url(#filter1_d_9_2609)">
<rect x="213" y="275" width="105.804" height="52" rx="26" fill="#677483"/>
<path d="M250.086 294.481H264.225V296.928H250.086V294.481ZM255.683 302.933H258.062V312.042H255.683V302.933ZM251.853 302.729H254.3V304.95C254.3 307.465 253.938 310.66 250.924 312.949C250.516 312.405 249.61 311.566 249.021 311.159C251.558 309.301 251.853 306.808 251.853 304.859V302.729ZM258.832 297.835L260.872 296.634C262.095 298.107 263.84 300.169 264.678 301.415L262.48 302.842C261.71 301.551 260.056 299.421 258.832 297.835ZM250.969 302.389L250.924 300.441L252.329 299.625L262.141 299.104C262.209 299.783 262.412 300.735 262.548 301.279C253.122 301.959 251.853 302.027 250.969 302.389ZM244.307 294.005L245.803 292.011C247.208 292.623 249.066 293.643 249.972 294.481L248.363 296.679C247.548 295.841 245.735 294.708 244.307 294.005ZM243.378 300.282L244.783 298.243C246.233 298.764 248.159 299.715 249.111 300.486L247.593 302.752C246.709 301.959 244.851 300.916 243.378 300.282ZM243.786 310.932C244.987 309.233 246.732 306.4 248.092 303.794L250.086 305.584C248.885 307.986 247.434 310.569 246.075 312.767L243.786 310.932ZM259.557 302.729H262.05V309.482C262.05 310.207 262.095 310.434 262.367 310.434C262.571 310.434 263.024 310.434 263.251 310.434C263.568 310.434 264.044 310.411 264.339 310.298C264.384 310.932 264.429 311.816 264.52 312.382C264.203 312.518 263.727 312.518 263.274 312.518C262.979 312.518 262.412 312.518 262.118 312.518C259.965 312.518 259.557 311.612 259.557 309.436V302.729ZM250.969 302.389C250.833 301.868 250.403 300.576 250.108 299.874C250.675 299.738 251.173 299.262 251.853 298.469C252.601 297.676 254.799 294.64 256.204 291.671L258.855 292.691C257.087 295.818 254.753 298.877 252.623 301.007V301.075C252.623 301.075 250.969 301.913 250.969 302.389ZM272.995 295.909V296.679H282.421V295.909H272.995ZM272.995 293.847V294.594H282.421V293.847H272.995ZM270.366 292.464H285.163V298.061H270.366V292.464ZM272.519 304.95V305.766H283.033V304.95H272.519ZM272.519 302.82V303.613H283.033V302.82H272.519ZM269.958 301.37H285.707V307.193H269.958V301.37ZM276.439 301.845H279.09V311.566H276.439V301.845ZM267.488 298.764H288.131V300.69H267.488V298.764ZM269.505 307.941H286.137V309.686H269.505V307.941ZM267.443 310.501H288.177V312.496H267.443V310.501Z" fill="white"/>
</g>
<g filter="url(#filter2_d_9_2609)">
<rect x="451" y="194" width="105.804" height="52" rx="26" fill="#677483"/>
<path d="M489.309 228.686H499.461V231.156H489.309V228.686ZM488.176 212.982H496.198V215.384H488.176V212.982ZM488.766 210.626L491.825 211.238C489.899 214.546 487.179 217.582 483.101 220.03C482.715 219.35 481.809 218.353 481.197 217.877C484.936 215.906 487.451 213.141 488.766 210.626ZM495.337 212.982H495.858L496.311 212.847L498.192 213.844C495.541 220.891 489.491 225.513 482.738 227.779C482.398 227.032 481.718 225.921 481.152 225.355C487.406 223.542 493.252 219.146 495.337 213.436V212.982ZM485.208 217.968L487.225 216.2C488.788 217.311 490.85 218.919 491.847 220.098L489.649 222.069C488.788 220.891 486.772 219.146 485.208 217.968ZM498.192 221.774H501.025V232.062H498.192V221.774ZM490.465 221.774H499.552V224.244H490.465V232.017H487.746V223.791L489.808 221.774H490.465ZM514.281 218.33H517.113V232.039H514.281V218.33ZM510.474 222.341V223.565H521.192V222.341H510.474ZM510.474 219.191V220.392H521.192V219.191H510.474ZM507.8 217.107H523.979V225.649H507.8V217.107ZM505.67 226.828H525.973V229.162H505.67V226.828ZM509.409 213.277V214.591H512.604V213.277H509.409ZM506.984 211.646H515.142V216.2H506.984V211.646ZM518.903 213.277V214.591H522.166V213.277H518.903ZM516.501 211.646H524.704V216.2H516.501V211.646Z" fill="white"/>
</g>
<g filter="url(#filter3_d_9_2609)">
<rect x="721.727" y="285" width="28" height="28" rx="14" fill="white"/>
<path d="M730.668 306.5V304.82C734.708 301.2 737.068 298.42 737.068 296.14C737.068 294.66 736.288 293.74 734.868 293.74C733.768 293.74 732.908 294.44 732.148 295.28L730.528 293.68C731.888 292.22 733.228 291.44 735.248 291.44C738.028 291.44 739.908 293.22 739.908 295.98C739.908 298.68 737.668 301.56 734.968 304.2C735.708 304.12 736.688 304.02 737.388 304.02H740.588V306.5H730.668Z" fill="#353535"/>
</g>
<g filter="url(#filter4_d_9_2609)">
<rect x="417.319" y="205" width="28" height="28" rx="14" fill="white"/>
<path d="M427.041 226.5V224.12H430.241V214.76H427.541V212.94C429.041 212.66 430.041 212.28 431.001 211.7H433.181V224.12H435.961V226.5H427.041Z" fill="#353535"/>
</g>
<g filter="url(#filter5_d_9_2609)">
<rect x="253.816" y="333" width="28" height="28" rx="14" fill="white"/>
<path d="M267.378 354.78C265.038 354.78 263.458 353.92 262.418 352.72L263.818 350.86C264.698 351.72 265.758 352.4 267.098 352.4C268.618 352.4 269.638 351.64 269.638 350.32C269.638 348.86 268.778 347.96 265.558 347.96V345.84C268.278 345.84 269.158 344.92 269.158 343.6C269.158 342.44 268.438 341.74 267.178 341.74C266.118 341.74 265.258 342.24 264.378 343.06L262.878 341.24C264.158 340.14 265.578 339.44 267.298 339.44C270.158 339.44 272.098 340.84 272.098 343.38C272.098 344.96 271.218 346.14 269.638 346.74V346.84C271.318 347.32 272.598 348.54 272.598 350.5C272.598 353.22 270.218 354.78 267.378 354.78Z" fill="#353535"/>
</g>
<g filter="url(#filter6_dd_9_2609)">
<rect x="272" y="86" width="260" height="68" rx="34" fill="#8B6CD9"/>
<rect x="304" y="106" width="28" height="28" rx="14" fill="white"/>
<path d="M314.577 126V124.096H317.137V116.608H314.977V115.152C316.177 114.928 316.977 114.624 317.745 114.16H319.489V124.096H321.713V126H314.577Z" fill="#353535"/>
<path d="M343.963 129V114.2H353.043V116.66H346.923V120.08H352.103V122.58H346.923V126.52H353.263V129H343.963ZM356.407 124.34V122.24H361.887V124.34H356.407ZM365.43 129V117.82H367.81L368.05 119.3H368.11C369.05 118.34 370.09 117.54 371.53 117.54C373.15 117.54 374.09 118.24 374.61 119.48C375.65 118.42 376.73 117.54 378.19 117.54C380.57 117.54 381.65 119.22 381.65 122.02V129H378.71V122.4C378.71 120.64 378.23 120.06 377.15 120.06C376.51 120.06 375.81 120.46 375.01 121.3V129H372.07V122.4C372.07 120.64 371.57 120.06 370.49 120.06C369.87 120.06 369.13 120.46 368.37 121.3V129H365.43ZM388.447 129.28C386.447 129.28 385.147 127.88 385.147 125.96C385.147 123.58 387.087 122.32 391.587 121.82C391.527 120.72 391.067 119.9 389.687 119.9C388.647 119.9 387.627 120.34 386.607 120.96L385.547 119C386.867 118.2 388.447 117.54 390.227 117.54C393.067 117.54 394.527 119.22 394.527 122.48V129H392.127L391.907 127.82H391.827C390.847 128.66 389.727 129.28 388.447 129.28ZM389.407 126.98C390.247 126.98 390.867 126.6 391.587 125.9V123.64C388.847 123.98 387.947 124.72 387.947 125.74C387.947 126.6 388.547 126.98 389.407 126.98ZM398.523 129V117.82H401.463V129H398.523ZM399.983 116C398.963 116 398.283 115.36 398.283 114.38C398.283 113.42 398.963 112.8 399.983 112.8C401.003 112.8 401.703 113.42 401.703 114.38C401.703 115.36 401.003 116 399.983 116ZM408.358 129.28C406.298 129.28 405.598 127.94 405.598 125.86V113.06H408.538V125.98C408.538 126.68 408.838 126.9 409.118 126.9C409.218 126.9 409.298 126.9 409.498 126.86L409.858 129.04C409.518 129.16 409.058 129.28 408.358 129.28ZM426.417 123.72H428.697V127.78C428.697 128.44 428.877 128.54 429.957 128.54C430.417 128.54 432.477 128.54 433.097 128.54C434.077 128.54 434.217 128.14 434.317 125.64C434.817 126.02 435.757 126.34 436.357 126.5C436.097 129.68 435.477 130.48 433.257 130.48C432.717 130.48 430.217 130.48 429.697 130.48C427.117 130.48 426.417 129.86 426.417 127.82V123.72ZM431.777 125.6L433.017 125.18C433.437 125.96 433.937 127.02 434.177 127.66L432.857 128.16C432.637 127.52 432.177 126.42 431.777 125.6ZM425.697 115.34L428.197 115.66C427.757 116.52 427.257 117.3 426.897 117.86L424.997 117.46C425.257 116.82 425.557 115.94 425.697 115.34ZM421.877 121.34V122.46H431.777V121.34H421.877ZM421.877 118.66V119.76H431.777V118.66H421.877ZM419.537 116.98H434.237V124.16H419.537V116.98ZM422.137 112.02H424.497V116.18H422.137V112.02ZM429.077 112.02H431.417V116.18H429.077V112.02ZM429.377 128.12C429.277 127.86 428.997 127.2 428.797 126.84C429.017 126.8 429.217 126.62 429.397 126.38C429.537 126.12 430.057 125.16 430.257 124.22L431.977 124.62C431.577 125.64 430.837 126.74 430.277 127.4V127.42C430.277 127.42 429.377 127.86 429.377 128.12ZM429.377 128.12L429.357 127.14L430.057 126.74L432.817 126.56C432.877 126.92 433.017 127.38 433.137 127.68C430.277 127.92 429.697 128.02 429.377 128.12ZM417.977 113.02H426.597V115.04H417.977V113.02ZM427.217 113.04H435.777V115.06H427.217V113.04ZM423.257 123.66H425.677C425.317 127.4 424.277 129.74 418.697 130.94C418.497 130.32 417.897 129.36 417.437 128.88C422.337 128.04 422.977 126.46 423.257 123.66ZM425.497 118.14H427.937V123.28H425.497V118.14ZM438.817 124.46H456.897V126.38H438.817V124.46ZM442.877 116.62H454.997V118.18H442.877V116.62ZM442.877 119H455.017V120.56H442.877V119ZM447.477 115.16H449.757V122.18H447.477V115.16ZM446.597 123.42H448.997V130.76H446.597V123.42ZM443.037 111.98L445.477 112.46C444.137 114.74 442.377 117.02 439.957 118.96C439.577 118.44 438.797 117.7 438.277 117.36C440.497 115.78 442.117 113.72 443.037 111.98ZM446.957 112.52L449.217 111.88C449.657 112.68 450.137 113.72 450.317 114.4L447.937 115.12C447.777 114.44 447.357 113.34 446.957 112.52ZM441.837 121.42H456.377V123.24H441.837V121.42ZM443.417 113.94H455.897V115.8H443.417V123.78H441.037V115.18L442.277 113.94H443.417ZM444.157 126.74L445.957 127.58C444.537 128.72 442.077 129.8 439.957 130.26C439.637 129.72 438.977 128.88 438.477 128.44C440.537 128.16 442.937 127.5 444.157 126.74ZM449.697 127.96L451.097 126.56C452.877 127.14 455.517 128.1 456.917 128.72L455.417 130.32C454.157 129.68 451.537 128.64 449.697 127.96ZM465.937 124.64H477.897V126.6H465.937V124.64ZM469.197 120.94V121.8H474.697V120.94H469.197ZM469.197 118.52V119.36H474.697V118.52H469.197ZM466.977 116.84H477.017V123.48H466.977V116.84ZM470.837 123.24H473.197C472.837 127.08 471.877 129.56 466.537 130.82C466.317 130.24 465.737 129.36 465.297 128.88C469.977 127.96 470.557 126.18 470.837 123.24ZM466.177 113.44H471.717V115.36H466.177V113.44ZM468.157 112.02H470.297V116.46H468.157V112.02ZM473.577 112.02H475.697V116.46H473.577V112.02ZM472.157 113.42H478.057V115.36H472.157V113.42ZM471.897 127.92L473.337 126.44C474.897 127.16 477.237 128.32 478.457 129.04L476.917 130.72C475.817 129.98 473.517 128.74 471.897 127.92ZM459.777 115.76H466.297V117.96H459.777V115.76ZM462.077 112.02H464.257V130.8H462.077V112.02ZM462.097 117.4L463.337 117.96C462.797 121.04 461.697 124.92 460.417 127.02C460.197 126.3 459.677 125.2 459.297 124.56C460.497 122.9 461.617 119.74 462.097 117.4ZM464.157 118.18C464.617 118.82 466.317 121.62 466.677 122.28L465.257 123.92C464.797 122.62 463.657 120.14 463.077 119.04L464.157 118.18ZM489.997 113.2H498.857V115.42H489.997V113.2ZM489.997 118.28H496.857V120.44H489.997V118.28ZM488.777 113.2H491.097V118.9C491.097 122.36 490.697 127.56 488.217 130.78C487.837 130.36 486.837 129.6 486.317 129.36C488.577 126.38 488.777 122.02 488.777 118.88V113.2ZM492.457 119.86C493.517 123.94 495.757 127.36 499.437 128.86C498.897 129.34 498.177 130.26 497.837 130.88C493.917 128.96 491.717 125.18 490.437 120.32L492.457 119.86ZM496.417 118.28H496.837L497.237 118.2L498.737 118.66C497.777 124.8 495.137 128.68 491.197 130.8C490.877 130.24 490.237 129.36 489.737 128.92C493.177 127.32 495.657 123.54 496.417 118.7V118.28ZM480.737 116.14H487.897V118.38H480.737V116.14ZM483.397 112.02H485.657V130.8H483.397V112.02ZM483.317 117.68L484.697 118.18C484.097 121.38 482.857 125.26 481.357 127.32C481.137 126.66 480.597 125.68 480.237 125.1C481.597 123.36 482.797 120.24 483.317 117.68ZM485.577 119.36C486.077 119.92 487.897 122.44 488.277 123.02L486.937 124.86C486.417 123.64 485.117 121.4 484.497 120.4L485.577 119.36Z" fill="white"/>
</g>
<path d="M290.72 31.56H291.904V46.264H290.72V31.56ZM289.28 34.648L290.192 34.792C290.112 36.088 289.808 37.928 289.392 39.096L288.448 38.776C288.864 37.704 289.168 35.944 289.28 34.648ZM291.936 34.504L292.8 34.136C293.296 35.08 293.824 36.312 294.032 37.048L293.12 37.512C292.944 36.744 292.416 35.464 291.936 34.504ZM294.128 34.12H302.048V39.56H300.864V35.256H294.128V34.12ZM293.28 38.92H303.424V40.072H293.28V38.92ZM297.264 31.56H298.464V36.904C298.464 40.04 298.064 43.896 293.584 46.344C293.424 46.088 293.024 45.656 292.752 45.416C297.104 43.24 297.264 39.704 297.264 36.904V31.56ZM298.736 40.952L299.744 40.472C300.944 42.088 302.48 44.296 303.264 45.608L302.176 46.216C301.456 44.904 299.936 42.632 298.736 40.952ZM311.76 36.568V38.6H318.048V36.568H311.76ZM310.64 35.592H319.216V39.576H310.64V35.592ZM309.984 33.24H319.904V34.28H309.984V33.24ZM314.272 31.576H315.44V44.216H314.272V31.576ZM313.984 39.208L314.864 39.544C313.872 41.256 312.064 42.92 310.384 43.752C310.224 43.464 309.872 43.064 309.616 42.84C311.248 42.168 313.056 40.68 313.984 39.208ZM314.56 39.976L315.296 39.224C316.88 40.2 318.88 41.624 319.856 42.616L319.056 43.48C318.128 42.488 316.16 40.968 314.56 39.976ZM306.128 32.088L307.04 31.576C307.728 32.36 308.56 33.4 308.96 34.056L308 34.68C307.616 34.008 306.784 32.888 306.128 32.088ZM305.536 35.256H308.912V36.264H305.536V35.256ZM308.384 42.6C309.376 44.696 311.456 44.984 314.656 44.984C316.352 44.984 318.688 44.92 320.336 44.776C320.16 45.032 320.016 45.576 319.952 45.896C318.432 45.992 316.416 46.024 314.656 46.024C310.896 46.024 308.8 45.608 307.584 42.968L308.384 42.6ZM308.384 39.256H308.736L308.944 39.224L309.488 39.448C308.976 42.808 307.744 45.08 306.08 46.312C305.92 46.072 305.52 45.656 305.28 45.48C306.864 44.392 307.984 42.344 308.384 39.464V39.256ZM305.776 40.456V39.544L306.352 39.256H308.88V40.232H306.72C306.304 40.232 305.888 40.328 305.776 40.456ZM305.776 40.44C305.696 40.168 305.456 39.608 305.328 39.368C305.568 39.304 305.824 39.192 306.096 38.888C306.576 38.408 308.048 36.216 308.576 35.368V35.32L308.928 35.176L309.712 35.528C308.976 36.616 307.568 38.68 306.672 39.688C306.672 39.688 305.776 40.136 305.776 40.44ZM326.304 36.52V37.816H332.944V36.52H326.304ZM325.168 35.704H334.128V38.616H325.168V35.704ZM323.456 41.24H335.856V42.12H323.456V41.24ZM322.528 43.176H336.688V44.056H322.528V43.176ZM328.96 39.896H330.16V45.064C330.16 45.72 329.968 45.992 329.44 46.152C328.896 46.296 328.016 46.296 326.56 46.296C326.496 46.008 326.304 45.624 326.144 45.352C327.248 45.384 328.304 45.384 328.592 45.368C328.864 45.352 328.96 45.288 328.96 45.048V39.896ZM334.096 38.936L334.864 39.688C332.16 40.168 327.776 40.392 324.192 40.392C324.176 40.152 324.064 39.8 323.968 39.576C327.488 39.544 331.808 39.336 334.096 38.936ZM328.944 31.56H330.16V34.312H328.944V31.56ZM322.864 33.704H336.4V36.904H335.216V34.728H324V36.904H322.864V33.704ZM324.432 32.072L325.488 31.64C325.968 32.168 326.48 32.888 326.736 33.352L325.632 33.864C325.408 33.384 324.912 32.616 324.432 32.072ZM333.76 31.656L334.976 32.072C334.432 32.728 333.84 33.368 333.36 33.8L332.4 33.416C332.848 32.936 333.456 32.168 333.76 31.656ZM338.832 40.088C340.048 39.752 341.856 39.192 343.616 38.632L343.776 39.704C342.16 40.232 340.464 40.792 339.136 41.224L338.832 40.088ZM339.056 34.792H343.712V35.912H339.056V34.792ZM340.848 31.576H341.968V44.792C341.968 45.448 341.824 45.784 341.44 45.96C341.056 46.152 340.448 46.2 339.44 46.2C339.392 45.896 339.248 45.4 339.088 45.064C339.776 45.08 340.368 45.08 340.56 45.08C340.768 45.08 340.848 45.016 340.848 44.792V31.576ZM348.752 40.472H349.92V45.304H348.752V40.472ZM344.832 32.2H353.056V35.704H344.832V34.728H351.84V33.176H344.832V32.2ZM345.024 36.792H353.088V37.752H345.024V36.792ZM344.64 44.952H353.776V45.944H344.64V44.952ZM345.616 42.216H353.088V43.176H345.616V42.216ZM350.32 38.456L351.2 38.072C352 38.84 352.864 39.912 353.232 40.648L352.304 41.08C351.952 40.344 351.104 39.24 350.32 38.456ZM344.24 32.2H345.392V37.176C345.392 39.832 345.152 43.704 343.456 46.296C343.248 46.12 342.752 45.8 342.448 45.688C344.096 43.224 344.24 39.704 344.24 37.176V32.2ZM346.064 41.048C346.016 40.824 345.824 40.312 345.696 40.024C345.936 39.976 346.176 39.784 346.448 39.512C346.72 39.224 347.68 38.12 348.24 37.048L349.28 37.544C348.56 38.648 347.648 39.736 346.784 40.472V40.488C346.784 40.488 346.064 40.808 346.064 41.048ZM346.08 41.048L346.048 40.264L346.688 39.912L352.224 39.576C352.304 39.848 352.48 40.232 352.592 40.44C347.088 40.84 346.464 40.904 346.08 41.048ZM361.024 44.536H368.752V45.64H361.024V44.536ZM360.48 33.176H366.352V34.248H360.48V33.176ZM361.2 31.512L362.544 31.784C361.344 33.864 359.424 36.04 356.64 37.688C356.464 37.384 356.064 36.968 355.792 36.76C358.432 35.32 360.272 33.256 361.2 31.512ZM365.952 33.176H366.176L366.4 33.112L367.2 33.544C365.28 38.376 360.768 41.592 356.416 43C356.272 42.68 355.968 42.184 355.712 41.928C359.856 40.728 364.288 37.592 365.952 33.384V33.176ZM358.48 36.024L359.376 35.256C360.64 36.12 362.176 37.4 362.912 38.312L361.936 39.176C361.264 38.264 359.744 36.92 358.48 36.024ZM368.16 39.48H369.392V46.312H368.16V39.48ZM361.568 39.48H368.768V40.584H361.568V46.28H360.368V40.424L361.328 39.48H361.568ZM379.328 36.68H380.56V46.28H379.328V36.68ZM375.696 39.384V40.776H384.4V39.384H375.696ZM375.696 37.096V38.456H384.4V37.096H375.696ZM374.528 36.12H385.616V41.736H374.528V36.12ZM372.912 42.968H387.104V44.024H372.912V42.968ZM375.184 33V34.52H378.256V33H375.184ZM374.096 32.2H379.376V35.32H374.096V32.2ZM381.76 33V34.52H384.864V33H381.76ZM380.672 32.2H386V35.32H380.672V32.2ZM396.752 40.712H397.904V44.44C397.904 44.92 398.064 45.032 398.992 45.032C399.408 45.032 401.568 45.032 402.128 45.032C402.976 45.032 403.088 44.712 403.168 42.68C403.44 42.888 403.904 43.048 404.224 43.128C404.08 45.464 403.712 46.04 402.208 46.04C401.824 46.04 399.264 46.04 398.912 46.04C397.216 46.04 396.752 45.72 396.752 44.456V40.712ZM400.8 42.392L401.472 42.136C401.888 42.792 402.368 43.672 402.608 44.2L401.888 44.504C401.664 43.96 401.2 43.064 400.8 42.392ZM396.304 34.04L397.536 34.264C397.216 34.936 396.848 35.608 396.576 36.088L395.616 35.832C395.856 35.32 396.16 34.552 396.304 34.04ZM392.368 38.696V40.088H401.232V38.696H392.368ZM392.368 36.472V37.832H401.232V36.472H392.368ZM391.2 35.576H402.448V41H391.2V35.576ZM393.392 31.576H394.576V34.792H393.392V31.576ZM398.912 31.576H400.08V34.792H398.912V31.576ZM398.72 44.408C398.672 44.264 398.528 43.88 398.416 43.688C398.592 43.656 398.736 43.496 398.896 43.272C399.056 43.032 399.6 42.12 399.84 41.256L400.752 41.496C400.368 42.424 399.776 43.384 399.296 43.976V43.992C399.296 43.992 398.72 44.248 398.72 44.408ZM398.72 44.408V43.832L399.168 43.576L401.728 43.352C401.76 43.56 401.84 43.816 401.904 43.992C399.376 44.264 398.944 44.344 398.72 44.408ZM389.792 32.584H396.512V33.64H389.792V32.584ZM397.104 32.6H403.808V33.64H397.104V32.6ZM394.416 40.728H395.632C395.28 43.832 394.256 45.576 389.952 46.44C389.856 46.136 389.536 45.672 389.312 45.432C393.296 44.744 394.128 43.336 394.416 40.728ZM396.112 36.152H397.328V40.536H396.112V36.152ZM406.448 41.416H420.752V42.424H406.448V41.416ZM409.232 35.32H419.12V36.168H409.232V35.32ZM409.232 37.24H419.168V38.104H409.232V37.24ZM413.44 33.944H414.576V39.688H413.44V33.944ZM412.96 40.328H414.16V46.264H412.96V40.328ZM409.84 31.544L411.072 31.768C410.144 33.448 408.8 35.336 406.944 36.856C406.752 36.6 406.352 36.248 406.08 36.072C407.84 34.728 409.136 32.952 409.84 31.544ZM412.992 31.832L414.112 31.496C414.496 32.12 414.928 32.936 415.104 33.464L413.92 33.832C413.76 33.304 413.36 32.456 412.992 31.832ZM408.752 39.208H420.304V40.168H408.752V39.208ZM409.536 33.272H419.776V34.248H409.536V40.664H408.352V34.008L409.072 33.272H409.536ZM410.928 43.192L411.856 43.64C410.736 44.536 408.656 45.4 406.992 45.768C406.832 45.48 406.496 45.064 406.24 44.84C407.888 44.552 409.888 43.912 410.928 43.192ZM415.088 43.864L415.744 43.096C417.312 43.56 419.456 44.296 420.592 44.776L419.936 45.656C418.832 45.176 416.688 44.376 415.088 43.864ZM429.088 41.992L428.72 41.144C430.032 40.616 430.752 39.8 430.752 38.584L430.448 37.24L431.312 38.456C431.088 38.744 430.768 38.824 430.464 38.824C429.808 38.824 429.264 38.424 429.264 37.672C429.264 36.92 429.84 36.52 430.48 36.52C431.376 36.52 431.856 37.256 431.856 38.376C431.856 40.104 430.768 41.416 429.088 41.992ZM289.2 53.952H302.784V55.04H289.2V53.952ZM295.312 52.544L296.624 52.672C296.384 54.144 296.08 55.904 295.792 57.008L294.672 56.848C294.944 55.712 295.216 53.824 295.312 52.544ZM291.632 58.688H300.496V59.616H291.632V58.688ZM291.632 60.896H300.496V61.824H291.632V60.896ZM288.736 65.6H303.28V66.704H288.736V65.6ZM291.024 56.32H301.088V66.128H299.872V57.328H292.176V66.128H291.024V56.32ZM291.68 63.216H300.56V64.144H291.68V63.216ZM305.232 61.072C306.464 60.72 308.336 60.16 310.144 59.568L310.32 60.672C308.656 61.232 306.896 61.792 305.552 62.24L305.232 61.072ZM305.456 55.792H310.4V56.912H305.456V55.792ZM307.504 52.576H308.624V65.84C308.624 66.496 308.48 66.832 308.096 67.024C307.712 67.2 307.104 67.248 306.096 67.232C306.064 66.944 305.92 66.448 305.76 66.112C306.448 66.144 307.056 66.144 307.248 66.128C307.44 66.128 307.504 66.064 307.504 65.856V52.576ZM311.104 54.24H319.68V55.296H311.104V54.24ZM310.704 57.984H320V59.04H310.704V57.984ZM312.304 55.856L313.296 55.456C313.776 56.08 314.288 56.912 314.496 57.44L313.456 57.904C313.264 57.36 312.768 56.48 312.304 55.856ZM317.344 55.488L318.48 55.808C318.016 56.72 317.472 57.728 317.024 58.4L316.048 58.08C316.496 57.392 317.056 56.256 317.344 55.488ZM310.496 60.8H320.192V61.856H310.496V60.8ZM317.728 59.856L318.896 60.064C318.16 64.368 316.096 66.368 311.024 67.248C310.928 66.928 310.688 66.496 310.48 66.224C315.216 65.552 317.072 63.744 317.728 59.856ZM314.336 52.72L315.6 52.496C316 53.136 316.4 54 316.56 54.56L315.232 54.864C315.088 54.272 314.688 53.376 314.336 52.72ZM311.424 63.712C312.368 62.544 313.52 60.688 314.144 59.184L315.28 59.424C314.608 60.96 313.472 62.768 312.656 63.856L311.424 63.712ZM311.424 63.712L312.224 62.976C314.752 63.808 318.08 65.248 319.888 66.368L319.024 67.232C317.392 66.144 314.048 64.624 311.424 63.712ZM322.672 54.16H336.56V55.2H322.672V54.16ZM326.224 58.848H333.52V59.696H326.224V58.848ZM326.224 60.72H333.52V61.6H326.224V60.72ZM322.56 62.672H336.624V63.696H322.56V62.672ZM331.648 54.448C332.816 55.968 335.12 57.552 337.056 58.304C336.8 58.528 336.432 58.96 336.256 59.248C334.32 58.352 332.016 56.608 330.704 54.864L331.648 54.448ZM325.696 56.864H333.456V57.824H326.912V63.12H325.696V56.864ZM331.712 64.256L332.704 63.744C333.712 64.624 335.008 65.904 335.664 66.688L334.608 67.296C334 66.496 332.736 65.2 331.712 64.256ZM328.688 52.56L329.968 52.784C328.752 55.248 326.512 57.744 322.944 59.376C322.784 59.104 322.432 58.688 322.176 58.496C325.616 57.024 327.776 54.672 328.688 52.56ZM324.208 66.896C324.144 66.64 323.968 66.08 323.824 65.76C324.128 65.728 324.432 65.536 324.8 65.248C325.2 64.976 326.512 63.92 327.392 62.8L328.496 63.376C327.408 64.528 326.16 65.584 324.976 66.288V66.32C324.976 66.32 324.208 66.656 324.208 66.896ZM324.208 66.896L324.192 66.128L324.944 65.728L333.744 65.312C333.872 65.6 334.096 66 334.224 66.208C325.568 66.672 324.736 66.704 324.208 66.896ZM341.52 53.696H351.872V54.848H341.52V53.696ZM341.52 57.424H351.856V58.56H341.52V57.424ZM341.44 61.248H351.888V62.384H341.44V61.248ZM340.848 53.696H342.032V59.504C342.032 61.936 341.744 65.248 339.84 67.376C339.648 67.136 339.168 66.736 338.912 66.576C340.672 64.592 340.848 61.744 340.848 59.488V53.696ZM351.392 53.696H352.576V65.648C352.576 66.432 352.384 66.8 351.856 67.008C351.312 67.2 350.384 67.216 348.864 67.2C348.816 66.88 348.624 66.352 348.448 66.032C349.584 66.08 350.672 66.064 350.976 66.064C351.28 66.048 351.392 65.952 351.392 65.648V53.696ZM345.872 54.128H347.088V67.136H345.872V54.128ZM361.888 62.992L361.52 62.144C362.832 61.616 363.552 60.8 363.552 59.584L363.248 58.24L364.112 59.456C363.888 59.744 363.568 59.824 363.264 59.824C362.608 59.824 362.064 59.424 362.064 58.672C362.064 57.92 362.64 57.52 363.28 57.52C364.176 57.52 364.656 58.256 364.656 59.376C364.656 61.104 363.568 62.416 361.888 62.992ZM383.216 55.472L384.352 56C382.064 58.608 377.584 59.856 373.328 60.528C373.184 60.256 372.8 59.728 372.576 59.472C376.896 58.96 381.232 57.776 383.216 55.472ZM375.632 59.184H385.232V67.2H384.032V60.144H376.8V67.264H375.632V59.184ZM376.336 61.328H384.464V62.208H376.336V61.328ZM376.336 63.44H384.464V64.32H376.336V63.44ZM376.336 65.568H384.464V66.512H376.336V65.568ZM376.24 53.488L377.424 53.792C376.656 55.392 375.408 56.912 374.224 57.888C374 57.696 373.488 57.36 373.2 57.2C374.432 56.288 375.584 54.912 376.24 53.488ZM382.624 53.968L383.568 53.376C384.864 54.368 386.416 55.792 387.136 56.8L386.128 57.488C385.44 56.496 383.92 55.008 382.624 53.968ZM379.248 52.576H380.432V57.904H379.248V52.576ZM395.584 57.648H403.6V58.704H395.584V57.648ZM394.864 54.48H404.096V55.568H394.864V54.48ZM394.928 60.48H404.048V61.552H394.928V60.48ZM398.896 52.56H400.08V58.24H398.896V52.56ZM401.008 58.496H402.176V65.856C402.176 66.544 402.016 66.896 401.52 67.072C401.024 67.248 400.208 67.264 398.928 67.264C398.88 66.944 398.688 66.464 398.512 66.144C399.504 66.176 400.4 66.176 400.656 66.16C400.928 66.144 401.008 66.08 401.008 65.84V58.496ZM395.904 62.672L396.896 62.112C397.664 62.928 398.592 64.08 398.992 64.832L397.936 65.488C397.552 64.72 396.688 63.52 395.904 62.672ZM390.576 53.616H394.576V64.128H390.576V63.04H393.456V54.704H390.576V53.616ZM390.624 58.272H393.984V59.344H390.624V58.272ZM390 53.616H391.136V65.44H390V53.616ZM406.544 54.24H420.592V55.28H406.544V54.24ZM410.16 57.072V58.512H417.088V57.072H410.16ZM408.96 56.176H418.336V59.392H408.96V56.176ZM407.12 60.288H419.696V61.312H408.288V67.28H407.12V60.288ZM418.88 60.288H420.08V66.016C420.08 66.592 419.936 66.848 419.488 67.008C419.072 67.152 418.368 67.168 417.344 67.152C417.28 66.88 417.12 66.496 416.96 66.256C417.664 66.288 418.4 66.272 418.592 66.272C418.8 66.256 418.88 66.208 418.88 66.016V60.288ZM412.64 52.784L413.808 52.512C414.08 53.2 414.416 54.096 414.544 54.624L413.328 54.976C413.2 54.416 412.88 53.488 412.64 52.784ZM410.72 62.256H416.88V65.552H410.72V64.656H415.808V63.152H410.72V62.256ZM410.096 62.256H411.216V66.352H410.096V62.256ZM423.312 54.896H430.608V55.984H423.312V54.896ZM425.104 56.4L426.144 56.72C425.552 58.096 424.64 59.616 423.808 60.592C423.632 60.416 423.2 60.032 422.944 59.856C423.776 58.96 424.592 57.648 425.104 56.4ZM427.904 59.008L429.04 59.216C428.048 62.624 426.304 65.232 423.856 66.896C423.68 66.672 423.264 66.224 423.008 66.016C425.408 64.544 427.056 62.096 427.904 59.008ZM427.744 56.832L428.64 56.352C429.36 57.2 430.16 58.352 430.464 59.12L429.52 59.664C429.216 58.896 428.448 57.712 427.744 56.832ZM424.592 60.24L425.488 59.6C427.136 61.2 429.056 63.392 429.888 64.88L428.912 65.648C428.128 64.144 426.256 61.872 424.592 60.24ZM432.336 55.488H437.648V56.608H432.336V55.488ZM432.704 52.544L433.84 52.72C433.28 55.872 432.352 58.832 430.96 60.784C430.8 60.56 430.384 60.096 430.144 59.888C431.44 58.128 432.24 55.392 432.704 52.544ZM435.648 56.192L436.8 56.336C435.984 61.856 434.208 65.28 430.256 67.344C430.112 67.104 429.696 66.656 429.44 66.432C433.312 64.624 434.944 61.36 435.648 56.192ZM432.496 57.552C433.296 61.44 435.04 64.848 437.856 66.304C437.584 66.544 437.2 66.976 437.008 67.28C434.096 65.568 432.384 62.048 431.472 57.792L432.496 57.552ZM425.616 52.944L426.608 52.544C427.104 53.152 427.616 53.968 427.856 54.512L426.8 54.976C426.576 54.416 426.08 53.568 425.616 52.944Z" fill="#353535"/>
<g filter="url(#filter7_d_9_2609)">
<rect x="726" y="405" width="218" height="68" rx="34" fill="#8B6CD9"/>
<rect x="758" y="425" width="28" height="28" rx="14" fill="white"/>
<path d="M767.953 445V443.656C771.185 440.76 773.073 438.536 773.073 436.712C773.073 435.528 772.449 434.792 771.313 434.792C770.433 434.792 769.745 435.352 769.137 436.024L767.841 434.744C768.929 433.576 770.001 432.952 771.617 432.952C773.841 432.952 775.345 434.376 775.345 436.584C775.345 438.744 773.553 441.048 771.393 443.16C771.985 443.096 772.769 443.016 773.329 443.016H775.889V445H767.953Z" fill="#353535"/>
<path d="M805.063 432.16H814.843V434.44H805.063V432.16ZM810.143 438.38H812.603V447.02C812.603 448.3 812.343 448.98 811.463 449.36C810.603 449.72 809.343 449.74 807.543 449.74C807.463 449.04 807.143 448 806.823 447.3C807.963 447.36 809.283 447.36 809.643 447.36C810.023 447.34 810.143 447.26 810.143 446.96V438.38ZM804.203 437.7H815.363V439.98H804.203V437.7ZM799.723 440.06L801.823 437.96L802.123 438.08V449.82H799.723V440.06ZM801.983 435.38L804.263 436.24C802.683 438.9 800.223 441.7 798.083 443.46C797.743 442.96 796.923 441.88 796.443 441.4C798.483 439.96 800.663 437.64 801.983 435.38ZM801.223 431.02L803.523 431.96C802.063 433.86 799.903 435.94 798.003 437.26C797.683 436.72 797.063 435.78 796.663 435.3C798.323 434.22 800.243 432.42 801.223 431.02ZM834.223 431.48L836.463 432.26C835.843 433.66 835.123 435.08 834.543 436.06L832.523 435.3C833.103 434.28 833.843 432.68 834.223 431.48ZM825.463 432.52L827.383 431.6C828.163 432.72 828.943 434.2 829.223 435.22L827.163 436.24C826.923 435.22 826.203 433.68 825.463 432.52ZM833.523 436.6H835.783V447.22C835.783 448.32 835.583 448.96 834.843 449.32C834.123 449.7 833.083 449.72 831.603 449.72C831.523 449.08 831.223 448.1 830.923 447.5C831.843 447.54 832.843 447.54 833.143 447.52C833.443 447.52 833.523 447.44 833.523 447.18V436.6ZM829.763 431.04H832.063V438.12H829.763V431.04ZM826.863 436.6H833.983V438.68H826.863V436.6ZM826.023 436.6H828.223V442.82C828.223 445.08 828.063 448.1 826.943 449.94C826.563 449.56 825.583 448.86 825.063 448.62C825.963 447 826.023 444.7 826.023 442.8V436.6ZM827.983 443.96C829.663 443.62 832.163 443.06 834.563 442.48L834.803 444.34C832.703 444.92 830.463 445.48 828.683 445.92L827.983 443.96ZM828.263 440.96L829.243 439.52C830.583 439.8 832.383 440.42 833.323 440.96L832.283 442.58C831.403 442.04 829.643 441.34 828.263 440.96ZM819.263 436.04H824.263V438.04H819.263V436.04ZM818.023 439.5H825.103V441.54H818.023V439.5ZM818.103 442.66L819.663 442.26C819.983 443.34 820.303 444.76 820.443 445.68L818.803 446.16C818.703 445.2 818.383 443.76 818.103 442.66ZM817.723 447.04C819.543 446.78 822.423 446.3 825.243 445.84L825.343 447.58C822.843 448.16 820.243 448.76 818.223 449.2L817.723 447.04ZM823.843 442.06L825.643 442.52C825.243 443.7 824.843 445.02 824.523 445.88L823.083 445.46C823.363 444.52 823.703 443.08 823.843 442.06ZM820.803 436.84H822.883V447.52L820.803 447.88V436.84ZM821.223 430.9L823.303 431.64C822.183 434.06 820.383 436.6 818.543 438.18C818.403 437.66 817.863 436.32 817.503 435.72C818.943 434.56 820.383 432.76 821.223 430.9ZM821.003 433.34L822.283 431.74C823.483 432.72 825.243 434.16 826.063 435L824.723 436.84C823.923 435.92 822.203 434.42 821.003 433.34ZM845.494 448V433.2H854.574V435.66H848.454V439.08H853.634V441.58H848.454V445.52H854.794V448H845.494ZM857.939 443.34V441.24H863.419V443.34H857.939ZM866.961 448V436.82H869.341L869.581 438.3H869.641C870.581 437.34 871.621 436.54 873.061 436.54C874.681 436.54 875.621 437.24 876.141 438.48C877.181 437.42 878.261 436.54 879.721 436.54C882.101 436.54 883.181 438.22 883.181 441.02V448H880.241V441.4C880.241 439.64 879.761 439.06 878.681 439.06C878.041 439.06 877.341 439.46 876.541 440.3V448H873.601V441.4C873.601 439.64 873.101 439.06 872.021 439.06C871.401 439.06 870.661 439.46 869.901 440.3V448H866.961ZM889.978 448.28C887.978 448.28 886.678 446.88 886.678 444.96C886.678 442.58 888.618 441.32 893.118 440.82C893.058 439.72 892.598 438.9 891.218 438.9C890.178 438.9 889.158 439.34 888.138 439.96L887.078 438C888.398 437.2 889.978 436.54 891.758 436.54C894.598 436.54 896.058 438.22 896.058 441.48V448H893.658L893.438 446.82H893.358C892.378 447.66 891.258 448.28 889.978 448.28ZM890.938 445.98C891.778 445.98 892.398 445.6 893.118 444.9V442.64C890.378 442.98 889.478 443.72 889.478 444.74C889.478 445.6 890.078 445.98 890.938 445.98ZM900.055 448V436.82H902.995V448H900.055ZM901.515 435C900.495 435 899.815 434.36 899.815 433.38C899.815 432.42 900.495 431.8 901.515 431.8C902.535 431.8 903.235 432.42 903.235 433.38C903.235 434.36 902.535 435 901.515 435ZM909.889 448.28C907.829 448.28 907.129 446.94 907.129 444.86V432.06H910.069V444.98C910.069 445.68 910.369 445.9 910.649 445.9C910.749 445.9 910.829 445.9 911.029 445.86L911.389 448.04C911.049 448.16 910.589 448.28 909.889 448.28Z" fill="white"/>
</g>
<path d="M747.264 496.08H757.12V497.04H747.264V496.08ZM748.064 500.48H756.384V501.392H748.064V500.48ZM747.376 502.672H756.976V503.632H747.376V502.672ZM751.296 492.576H752.432V505.216H751.296V492.576ZM748.304 493.936H756.016V499.248H748.192V498.288H754.928V494.896H748.304V493.936ZM743.008 493.568H746.672V494.64H743.008V493.568ZM744.176 498.144H746.624V499.2H744.032L744.176 498.144ZM746.224 498.144H746.448L746.656 498.112L747.344 498.288C746.848 502.832 745.472 505.744 743.472 507.28C743.28 507.056 742.848 506.64 742.576 506.48C744.56 505.072 745.808 502.416 746.224 498.368V498.144ZM744.144 500.512C745.424 504.992 748.384 505.808 752.464 505.808C753.104 505.808 756.56 505.808 757.392 505.792C757.2 506.048 756.992 506.576 756.928 506.896H752.432C747.824 506.896 744.736 505.92 743.232 500.848L744.144 500.512ZM743.536 499.712C743.456 499.472 743.216 498.992 743.056 498.736C743.344 498.672 743.744 498.288 744.064 497.776C744.4 497.296 745.52 495.424 746.176 493.664V493.584L746.624 493.376L747.392 493.888C746.464 495.872 745.392 497.776 744.4 499.088V499.104C744.4 499.104 743.536 499.472 743.536 499.712ZM760.336 495.584H773.296V496.784H760.336V495.584ZM759.648 505.408H773.936V506.608H759.648V505.408ZM762.56 497.936L763.744 497.648C764.4 499.808 765.072 502.544 765.344 504.4L764.08 504.704C763.84 502.88 763.168 500.064 762.56 497.936ZM769.856 497.664L771.2 497.888C770.48 500.528 769.408 503.888 768.528 505.92L767.344 505.664C768.256 503.616 769.296 500.096 769.856 497.664ZM765.648 492.784L766.8 492.48C767.136 493.296 767.488 494.336 767.648 495.04L766.416 495.408C766.288 494.704 765.952 493.616 765.648 492.784ZM777.488 497.648H789.28V498.656H778.64V507.248H777.488V497.648ZM788.64 497.648H789.76V505.952C789.76 506.576 789.6 506.864 789.12 507.04C788.656 507.184 787.84 507.2 786.464 507.2C786.416 506.912 786.256 506.528 786.112 506.272C787.104 506.304 788.032 506.288 788.288 506.272C788.544 506.256 788.64 506.192 788.64 505.952V497.648ZM781.232 501.568H786.512V505.232H781.232V504.336H785.488V502.48H781.232V501.568ZM780.608 501.568H781.648V505.984H780.608V501.568ZM776.576 494.288H790.64V495.344H776.576V494.288ZM779.984 495.712L781.008 495.36C781.36 495.936 781.824 496.704 782.032 497.152L780.976 497.6C780.768 497.104 780.336 496.304 779.984 495.712ZM786.128 495.44L787.344 495.728C786.832 496.576 786.208 497.552 785.712 498.16L784.784 497.888C785.248 497.232 785.84 496.176 786.128 495.44ZM782.672 492.784L783.776 492.496C784.08 493.152 784.4 494 784.56 494.544L783.392 494.896C783.248 494.336 782.928 493.44 782.672 492.784ZM781.472 498.144H782.544C782.368 500.144 781.696 501.152 779.248 501.696C779.152 501.456 778.896 501.056 778.672 500.864C780.8 500.48 781.344 499.744 781.472 498.144ZM784.304 498.176H785.392V499.68C785.392 500.048 785.424 500.176 785.712 500.176C785.936 500.176 786.912 500.176 787.152 500.176C787.392 500.176 787.808 500.16 788.032 500.112C788.048 500.384 788.08 500.72 788.112 500.976C787.92 501.04 787.52 501.056 787.184 501.056C786.864 501.056 785.728 501.056 785.488 501.056C784.496 501.056 784.304 500.64 784.304 499.664V498.176ZM797.216 494.4V497.44H803.616V494.4H797.216ZM796.048 493.248H804.832V498.592H796.048V493.248ZM793.728 500.288H799.424V507.152H798.224V501.44H794.864V507.28H793.728V500.288ZM801.168 500.288H807.184V507.184H805.984V501.44H802.32V507.28H801.168V500.288ZM794.24 505.264H798.704V506.416H794.24V505.264ZM801.76 505.264H806.512V506.416H801.76V505.264ZM815.984 497.648H824V498.704H815.984V497.648ZM815.264 494.48H824.496V495.568H815.264V494.48ZM815.328 500.48H824.448V501.552H815.328V500.48ZM819.296 492.56H820.48V498.24H819.296V492.56ZM821.408 498.496H822.576V505.856C822.576 506.544 822.416 506.896 821.92 507.072C821.424 507.248 820.608 507.264 819.328 507.264C819.28 506.944 819.088 506.464 818.912 506.144C819.904 506.176 820.8 506.176 821.056 506.16C821.328 506.144 821.408 506.08 821.408 505.84V498.496ZM816.304 502.672L817.296 502.112C818.064 502.928 818.992 504.08 819.392 504.832L818.336 505.488C817.952 504.72 817.088 503.52 816.304 502.672ZM810.976 493.616H814.976V504.128H810.976V503.04H813.856V494.704H810.976V493.616ZM811.024 498.272H814.384V499.344H811.024V498.272ZM810.4 493.616H811.536V505.44H810.4V493.616ZM829.952 496.208H838.096V497.264H829.952V496.208ZM830.768 498.944H831.888V505.2H830.768V498.944ZM831.376 498.944H837.232V504.032H831.376V502.992H836.112V499.952H831.376V498.944ZM827.392 493.392H840.176V494.544H828.56V507.312H827.392V493.392ZM839.44 493.392H840.624V505.76C840.624 506.512 840.432 506.88 839.936 507.072C839.456 507.28 838.656 507.312 837.264 507.296C837.216 506.976 837.024 506.448 836.832 506.128C837.84 506.16 838.784 506.16 839.056 506.144C839.344 506.128 839.44 506.032 839.44 505.76V493.392ZM847.456 499.28L848.608 499.68C847.728 501.168 846.352 502.672 845.12 503.664C844.928 503.424 844.48 502.96 844.208 502.752C845.424 501.904 846.704 500.608 847.456 499.28ZM855.408 499.424L856.544 499.968C854.432 504.128 850.368 506.272 844.24 507.2C844.112 506.848 843.872 506.368 843.616 506.064C849.552 505.264 853.488 503.28 855.408 499.424ZM843.744 497.456H857.776V498.608H843.744V497.456ZM851.152 494.272H856.32V495.408H851.152V494.272ZM850.336 492.576H851.616V498.08H850.336V492.576ZM846.144 493.808H847.36V498.016H846.144V493.808ZM850.24 498.304H851.504V503.664H850.24V498.304ZM861.024 497.408H865.76V498.368H861.024V497.408ZM861.024 499.504H865.776V500.464H861.024V499.504ZM860.352 495.28H866.448V496.288H860.352V495.28ZM861.536 501.648H865.776V506.32H861.536V505.312H864.704V502.656H861.536V501.648ZM861.008 501.648H862.064V507.072H861.008V501.648ZM862.096 492.976L863.024 492.496C863.488 493.152 864.016 494 864.272 494.56L863.28 495.136C863.04 494.544 862.528 493.632 862.096 492.976ZM868.048 493.152H872.192V494.272H868.048V493.152ZM866.272 499.632H873.328V500.768H866.272V499.632ZM872.896 499.632H873.136L873.344 499.584L874.096 499.92C872.864 504 869.776 506.256 866.304 507.296C866.176 506.976 865.904 506.48 865.68 506.224C868.912 505.408 871.856 503.264 872.896 499.84V499.632ZM867.968 500.656C869.152 503.392 871.664 505.424 875.04 506.176C874.784 506.432 874.448 506.928 874.288 507.264C870.816 506.352 868.304 504.144 866.944 501.008L867.968 500.656ZM867.808 493.152H868.928V494.944C868.928 496.384 868.512 498.096 866.592 499.232C866.448 498.992 866.032 498.528 865.824 498.352C867.552 497.36 867.808 496.048 867.808 494.912V493.152ZM871.6 493.152H872.72V496.864C872.72 497.312 872.752 497.472 872.96 497.472C873.136 497.472 873.76 497.472 873.936 497.472C874.128 497.472 874.432 497.44 874.624 497.392C874.64 497.696 874.672 498.144 874.72 498.416C874.544 498.496 874.224 498.512 873.936 498.512C873.728 498.512 873.072 498.512 872.88 498.512C871.824 498.512 871.6 498.064 871.6 496.848V493.152ZM879.776 497.504H889.104V498.656H879.776V497.504ZM884.384 501.28H889.776V502.416H884.384V501.28ZM883.744 498.048H884.992V506.144L883.744 505.984V498.048ZM879.984 499.952L881.2 500.08C880.752 503.312 879.76 505.744 877.952 507.328C877.76 507.12 877.264 506.72 876.976 506.528C878.768 505.152 879.632 502.864 879.984 499.952ZM880.736 502C881.872 505.264 884.368 505.824 887.616 505.84C888.208 505.84 890.976 505.84 891.76 505.808C891.568 506.112 891.36 506.672 891.296 507.024H887.552C883.744 507.024 881.136 506.288 879.76 502.384L880.736 502ZM877.712 494.368H891.088V497.872H889.856V495.52H878.896V497.872H877.712V494.368ZM883.2 492.8L884.384 492.464C884.768 493.072 885.184 493.888 885.344 494.432L884.096 494.816C883.952 494.288 883.584 493.44 883.2 492.8ZM899.178 506V494.272H905.93V495.52H900.666V499.2H905.098V500.464H900.666V504.752H906.106V506H899.178ZM908.536 502.096V500.976H912.632V502.096H908.536ZM915.619 506V497.312H916.803L916.947 498.576H916.995C917.747 497.76 918.659 497.104 919.699 497.104C921.027 497.104 921.747 497.728 922.083 498.752C922.995 497.792 923.907 497.104 924.963 497.104C926.739 497.104 927.603 498.288 927.603 500.496V506H926.147V500.688C926.147 499.056 925.635 498.368 924.515 498.368C923.843 498.368 923.155 498.816 922.339 499.696V506H920.883V500.688C920.883 499.056 920.371 498.368 919.251 498.368C918.595 498.368 917.859 498.816 917.075 499.696V506H915.619ZM933.231 506.224C931.775 506.224 930.687 505.312 930.687 503.744C930.687 501.856 932.319 500.912 936.015 500.496C936.015 499.376 935.663 498.304 934.239 498.304C933.215 498.304 932.303 498.784 931.631 499.248L931.055 498.224C931.855 497.712 933.071 497.104 934.463 497.104C936.591 497.104 937.487 498.512 937.487 500.672V506H936.287L936.159 504.976H936.095C935.279 505.664 934.303 506.224 933.231 506.224ZM933.631 505.04C934.479 505.04 935.183 504.64 936.015 503.888V501.472C933.087 501.808 932.111 502.528 932.111 503.648C932.111 504.64 932.783 505.04 933.631 505.04ZM941.047 506V497.312H942.503V506H941.047ZM941.783 495.52C941.207 495.52 940.807 495.152 940.807 494.544C940.807 493.984 941.207 493.616 941.783 493.616C942.343 493.616 942.759 493.984 942.759 494.544C942.759 495.152 942.343 495.52 941.783 495.52ZM947.789 506.224C946.685 506.224 946.253 505.52 946.253 504.272V493.28H947.709V504.368C947.709 504.832 947.901 505.008 948.125 505.008C948.189 505.008 948.253 505.008 948.429 504.976L948.621 506.096C948.413 506.16 948.189 506.224 947.789 506.224ZM961.466 493.536H969.322V494.688H961.466V493.536ZM966.138 498.304H967.354V505.744C967.354 506.496 967.178 506.864 966.634 507.056C966.09 507.232 965.178 507.248 963.61 507.248C963.562 506.912 963.402 506.416 963.226 506.064C964.362 506.096 965.434 506.096 965.722 506.08C966.042 506.064 966.138 506 966.138 505.728V498.304ZM960.762 497.952H969.786V499.088H960.762V497.952ZM957.562 499.184L958.618 498.144L958.762 498.208V507.328H957.562V499.184ZM959.418 495.984L960.554 496.416C959.306 498.448 957.418 500.512 955.738 501.856C955.562 501.616 955.146 501.088 954.89 500.864C956.554 499.68 958.314 497.824 959.418 495.984ZM958.762 492.56L959.914 493.024C958.842 494.432 957.194 495.984 955.77 497.008C955.594 496.752 955.274 496.288 955.066 496.048C956.394 495.152 957.946 493.712 958.762 492.56ZM756.032 514.008L757.152 514.456C756.608 515.512 755.92 516.68 755.36 517.48L754.368 517.064C754.928 516.248 755.648 514.952 756.032 514.008ZM748.976 514.552L749.952 514.088C750.624 515 751.328 516.232 751.584 517.048L750.544 517.576C750.304 516.744 749.648 515.496 748.976 514.552ZM755.504 518.136H756.64V526.792C756.64 527.432 756.512 527.8 756.032 527.992C755.568 528.184 754.784 528.184 753.568 528.184C753.52 527.864 753.36 527.368 753.2 527.048C754.112 527.08 754.928 527.08 755.184 527.064C755.44 527.064 755.504 526.984 755.504 526.776V518.136ZM752.416 513.576H753.568V518.84H752.416V513.576ZM749.824 518.136H755.792V519.192H749.824V518.136ZM749.376 518.136H750.496V522.568C750.496 524.344 750.352 526.744 749.392 528.344C749.2 528.136 748.736 527.768 748.464 527.64C749.296 526.168 749.376 524.152 749.376 522.568V518.136ZM750.512 524.056C751.92 523.768 754.032 523.288 756.064 522.808L756.176 523.768C754.336 524.264 752.4 524.728 750.912 525.096L750.512 524.056ZM750.784 521.064L751.264 520.296C752.528 520.536 754.16 521.048 755.024 521.496L754.528 522.36C753.68 521.912 752.08 521.352 750.784 521.064ZM743.76 517.624H747.808V518.664H743.76V517.624ZM742.784 520.408H748.368V521.464H742.784V520.408ZM742.928 522.504L743.776 522.296C744.064 523.24 744.352 524.456 744.464 525.256L743.584 525.496C743.472 524.68 743.184 523.448 742.928 522.504ZM742.592 526.632C744.016 526.392 746.272 525.96 748.48 525.528L748.528 526.456C746.528 526.904 744.432 527.384 742.88 527.72L742.592 526.632ZM747.584 522.104L748.544 522.392C748.24 523.384 747.872 524.552 747.568 525.304L746.8 525.048C747.072 524.264 747.424 522.984 747.584 522.104ZM745.248 518.072H746.304V526.552L745.248 526.728V518.072ZM745.552 513.56L746.624 513.912C745.776 515.72 744.416 517.528 743.056 518.696C742.976 518.44 742.656 517.8 742.448 517.512C743.664 516.568 744.848 515.096 745.552 513.56ZM745.312 515L745.968 514.2C746.96 515.032 748.288 516.184 748.944 516.856L748.256 517.784C747.616 517.064 746.288 515.848 745.312 515ZM760.528 518.408H765.76V519.368H760.528V518.408ZM760.528 520.504H765.728V521.464H760.528V520.504ZM759.808 516.28H766.432V517.288H759.808V516.28ZM761.152 522.648H765.744V527.32H761.152V526.312H764.688V523.656H761.152V522.648ZM760.64 522.648H761.68V528.072H760.64V522.648ZM761.712 513.976L762.656 513.496C763.104 514.152 763.616 515 763.872 515.56L762.912 516.136C762.672 515.544 762.144 514.632 761.712 513.976ZM766.416 519.112H774.08V520.296H766.416V519.112ZM769.552 513.864H770.784V528.28H769.552V513.864ZM782.976 522.696H784.096V525.912H782.976V522.696ZM776.416 526.968H790.8V527.832H776.416V526.968ZM776.448 516.12H790.752V516.872H776.448V516.12ZM776.416 520.92H790.8V521.768H776.416V520.92ZM777.648 519.336H789.648V520.088H777.648V519.336ZM778.144 514.552H789.008V518.504H778.048V517.752H787.808V515.304H778.144V514.552ZM782.928 513.56H784.144V521.256H782.928V513.56ZM779.424 524.664V525.512H787.824V524.664H779.424ZM779.424 523.176V523.992H787.824V523.176H779.424ZM778.24 522.456H789.04V526.216H778.24V522.456ZM799.088 523.992L798.72 523.144C800.032 522.616 800.752 521.8 800.752 520.584L800.448 519.24L801.312 520.456C801.088 520.744 800.768 520.824 800.464 520.824C799.808 520.824 799.264 520.424 799.264 519.672C799.264 518.92 799.84 518.52 800.48 518.52C801.376 518.52 801.856 519.256 801.856 520.376C801.856 522.104 800.768 523.416 799.088 523.992ZM742.784 539.392H750.4V540.512H742.784V539.392ZM751.472 536.464H752.64V545.312H751.472V536.464ZM746.144 535.92H747.328V549.264H746.144V535.92ZM755.408 534.864H756.592V547.68C756.592 548.512 756.384 548.88 755.872 549.072C755.344 549.28 754.448 549.312 752.976 549.296C752.912 548.96 752.72 548.432 752.528 548.08C753.68 548.112 754.672 548.112 754.976 548.096C755.28 548.096 755.408 548 755.408 547.696V534.864ZM749.328 534.656L750.224 535.584C748.368 536.32 745.472 536.848 743.04 537.168C742.992 536.88 742.816 536.464 742.672 536.208C745.04 535.872 747.824 535.328 749.328 534.656ZM746.096 539.904L746.96 540.256C746.144 542.688 744.576 545.552 743.088 547.072C742.944 546.72 742.64 546.24 742.432 545.936C743.84 544.592 745.392 542.048 746.096 539.904ZM747.168 541.552C747.776 541.984 749.84 543.776 750.352 544.224L749.648 545.232C748.992 544.496 747.248 542.816 746.512 542.192L747.168 541.552ZM761.92 535.696H772.272V536.848H761.92V535.696ZM761.92 539.424H772.256V540.56H761.92V539.424ZM761.84 543.248H772.288V544.384H761.84V543.248ZM761.248 535.696H762.432V541.504C762.432 543.936 762.144 547.248 760.24 549.376C760.048 549.136 759.568 548.736 759.312 548.576C761.072 546.592 761.248 543.744 761.248 541.488V535.696ZM771.792 535.696H772.976V547.648C772.976 548.432 772.784 548.8 772.256 549.008C771.712 549.2 770.784 549.216 769.264 549.2C769.216 548.88 769.024 548.352 768.848 548.032C769.984 548.08 771.072 548.064 771.376 548.064C771.68 548.048 771.792 547.952 771.792 547.648V535.696ZM766.272 536.128H767.488V549.136H766.272V536.128ZM781.424 547.536H789.152V548.64H781.424V547.536ZM780.88 536.176H786.752V537.248H780.88V536.176ZM781.6 534.512L782.944 534.784C781.744 536.864 779.824 539.04 777.04 540.688C776.864 540.384 776.464 539.968 776.192 539.76C778.832 538.32 780.672 536.256 781.6 534.512ZM786.352 536.176H786.576L786.8 536.112L787.6 536.544C785.68 541.376 781.168 544.592 776.816 546C776.672 545.68 776.368 545.184 776.112 544.928C780.256 543.728 784.688 540.592 786.352 536.384V536.176ZM778.88 539.024L779.776 538.256C781.04 539.12 782.576 540.4 783.312 541.312L782.336 542.176C781.664 541.264 780.144 539.92 778.88 539.024ZM788.56 542.48H789.792V549.312H788.56V542.48ZM781.968 542.48H789.168V543.584H781.968V549.28H780.768V543.424L781.728 542.48H781.968ZM799.728 539.68H800.96V549.28H799.728V539.68ZM796.096 542.384V543.776H804.8V542.384H796.096ZM796.096 540.096V541.456H804.8V540.096H796.096ZM794.928 539.12H806.016V544.736H794.928V539.12ZM793.312 545.968H807.504V547.024H793.312V545.968ZM795.584 536V537.52H798.656V536H795.584ZM794.496 535.2H799.776V538.32H794.496V535.2ZM802.16 536V537.52H805.264V536H802.16ZM801.072 535.2H806.4V538.32H801.072V535.2ZM816.848 538.128V539.408H822.192V538.128H816.848ZM816.848 536V537.28H822.192V536H816.848ZM815.744 535.088H823.344V540.336H815.744V535.088ZM815.008 541.488H824.224V542.496H815.008V541.488ZM818.944 541.984H820.064V548.528L818.944 548.064V541.984ZM816.8 544.928C817.616 547.584 819.376 547.984 821.6 547.984C822 547.984 824.16 547.984 824.72 547.968C824.56 548.224 824.4 548.736 824.368 549.04H821.552C818.88 549.04 817.04 548.464 816.064 545.2L816.8 544.928ZM819.712 544.368H823.424V545.36H819.712V544.368ZM816.064 543.248L817.152 543.376C816.832 546.016 816 548 814.56 549.28C814.368 549.088 813.904 548.736 813.664 548.56C815.088 547.424 815.808 545.616 816.064 543.248ZM809.648 543.072C810.896 542.736 812.752 542.16 814.544 541.584L814.72 542.688C813.056 543.232 811.312 543.808 809.952 544.24L809.648 543.072ZM809.824 537.792H814.704V538.912H809.824V537.792ZM811.808 534.576H812.928V547.792C812.928 548.448 812.784 548.768 812.384 548.96C812.016 549.152 811.392 549.184 810.384 549.184C810.336 548.896 810.192 548.4 810.032 548.064C810.736 548.08 811.344 548.08 811.536 548.08C811.744 548.08 811.808 548.016 811.808 547.776V534.576ZM830.432 536.72H831.632V541.2C831.632 544.192 831.184 547.232 827.504 549.312C827.328 549.04 826.912 548.608 826.64 548.416C830.048 546.512 830.432 543.824 830.432 541.184V536.72ZM836.528 534.88H837.744V549.28H836.528V534.88ZM826.8 541.024H841.2V542.176H826.8V541.024ZM833.92 534.816L834.832 535.792C832.88 536.816 829.952 537.648 827.376 538.24C827.312 537.952 827.12 537.52 826.944 537.248C829.472 536.672 832.336 535.776 833.92 534.816ZM850.16 535.744H857.968V536.688H850.16V535.744ZM849.984 544.72H858.16V545.648H849.984V544.72ZM853.472 534.576H854.528V543.2H853.472V534.576ZM851.52 540.016V540.992H856.576V540.016H851.52ZM851.52 538.304V539.28H856.576V538.304H851.52ZM850.528 537.552H857.6V541.76H850.528V537.552ZM850 542.848C851.792 542.832 854.512 542.784 857.232 542.72L857.216 543.6C854.608 543.68 851.92 543.728 850.08 543.776L850 542.848ZM855.088 543.856H856.208V548.112C856.208 548.704 856.096 548.992 855.648 549.152C855.184 549.312 854.496 549.312 853.408 549.312C853.36 549.008 853.2 548.608 853.056 548.32C853.872 548.352 854.608 548.352 854.816 548.336C855.04 548.32 855.088 548.272 855.088 548.096V543.856ZM850.928 546.288L851.744 545.792C852.384 546.336 853.024 547.104 853.328 547.664L852.432 548.24C852.16 547.664 851.536 546.848 850.928 546.288ZM855.536 542.048L856.336 541.632C857.072 542.272 857.872 543.152 858.256 543.76L857.408 544.256C857.056 543.632 856.256 542.704 855.536 542.048ZM843.616 536.304H849.824V537.376H843.616V536.304ZM843.408 545.424H850.048V546.496H843.408V545.424ZM846.24 534.576H847.344V538.944H846.24V534.576ZM846.352 539.008H847.232V543.664H847.344V549.312H846.24V543.664H846.352V539.008ZM844.896 541.76V543.232H848.72V541.76H844.896ZM844.896 539.456V540.896H848.72V539.456H844.896ZM843.968 538.56H849.648V544.128H843.968V538.56ZM860.096 543.056C861.296 542.688 863.088 542.08 864.832 541.472L865.024 542.56C863.424 543.136 861.744 543.744 860.416 544.208L860.096 543.056ZM860.272 537.792H864.944V538.912H860.272V537.792ZM862.16 534.56H863.328V547.776C863.328 548.448 863.184 548.784 862.784 548.992C862.4 549.184 861.808 549.232 860.848 549.232C860.8 548.912 860.64 548.4 860.496 548.048C861.136 548.064 861.712 548.064 861.904 548.064C862.096 548.064 862.16 548 862.16 547.792V534.56ZM868.16 534.56L869.296 534.736C868.592 536.448 867.488 538.368 865.776 539.888C865.616 539.632 865.264 539.264 865.024 539.104C866.592 537.776 867.616 535.984 868.16 534.56ZM868.192 535.792H871.344V536.768H867.616L868.192 535.792ZM866.224 538.384H873.904V544.8H872.864V539.376H867.232V544.8H866.224V538.384ZM864.864 544.448H874.928V545.456H864.864V544.448ZM869.456 542.864H870.624C870.304 546.304 869.376 548.336 864.992 549.296C864.896 549.024 864.608 548.608 864.4 548.368C868.448 547.568 869.2 545.84 869.456 542.864ZM871.04 535.792H871.264L871.456 535.744L872.16 536.208C871.728 537.168 871.024 538.304 870.448 539.008C870.256 538.864 869.888 538.64 869.648 538.512C870.192 537.856 870.752 536.752 871.04 536V535.792ZM869.888 539.328L870.816 539.568C870.272 540.896 869.264 542.128 868.24 542.896C868.064 542.736 867.664 542.448 867.424 542.304C868.496 541.6 869.392 540.528 869.888 539.328ZM869.536 540.832L870.112 540.24C871.056 540.768 872.224 541.584 872.8 542.16L872.208 542.832C871.648 542.24 870.48 541.408 869.536 540.832ZM870.496 546.272L871.232 545.632C872.464 546.528 874.16 547.808 875.024 548.56L874.24 549.312C873.424 548.528 871.76 547.216 870.496 546.272Z" fill="#353535"/>
<g filter="url(#filter8_d_9_2609)">
<rect x="7" y="405" width="248" height="68" rx="34" fill="#8B6CD9"/>
<rect x="39" y="425" width="28" height="28" rx="14" fill="white"/>
<path d="M52.6493 445.224C50.7773 445.224 49.5133 444.536 48.6813 443.576L49.8013 442.088C50.5053 442.776 51.3533 443.32 52.4253 443.32C53.6413 443.32 54.4573 442.712 54.4573 441.656C54.4573 440.488 53.7693 439.768 51.1933 439.768V438.072C53.3693 438.072 54.0733 437.336 54.0733 436.28C54.0733 435.352 53.4973 434.792 52.4893 434.792C51.6413 434.792 50.9533 435.192 50.2493 435.848L49.0493 434.392C50.0733 433.512 51.2093 432.952 52.5853 432.952C54.8733 432.952 56.4253 434.072 56.4253 436.104C56.4253 437.368 55.7213 438.312 54.4573 438.792V438.872C55.8013 439.256 56.8253 440.232 56.8253 441.8C56.8253 443.976 54.9213 445.224 52.6493 445.224Z" fill="#353535"/>
<path d="M89.74 433.08H91.98V444.32H89.74V433.08ZM93.38 431.06H95.68V446.92C95.68 448.18 95.44 448.84 94.7 449.24C93.98 449.62 92.86 449.7 91.24 449.7C91.14 449.06 90.82 447.98 90.5 447.3C91.56 447.34 92.58 447.34 92.92 447.34C93.24 447.32 93.38 447.22 93.38 446.9V431.06ZM80.56 439.78H87.26V441.2H80.56V439.78ZM81.74 447.32H87.38V449.1H81.74V447.32ZM79.18 437.32H81.4V439.64C81.4 442.34 81.1 446.36 79.52 449.08C79.06 448.76 78.04 448.34 77.44 448.16C79.02 445.58 79.18 441.98 79.18 439.64V437.32ZM80.54 437.32H88.14V443.66H80.5V442H85.96V438.98H80.54V437.32ZM80.82 444.26H88.62V449.64H86.52V445.9H82.82V449.72H80.82V444.26ZM83.46 431L85.66 431.86C84.04 434.32 81.34 436.5 78.72 437.84C78.5 437.3 77.88 436.08 77.48 435.54C79.8 434.56 82.16 432.9 83.46 431ZM82.76 433.36L83.92 431.58C85.56 432.52 88.14 433.96 89.36 434.86L88.12 436.9C86.94 435.94 84.46 434.4 82.76 433.36ZM81.82 435.26H85.94V436.66H81.82V435.26ZM107.84 434.28H117.44V436.56H106.72L107.84 434.28ZM110.48 438.68H116.92V440.86H110.48V438.68ZM110.46 443.1H117.18V445.34H110.46V443.1ZM109.26 435.04H111.72V449.8H109.26V435.04ZM108.3 431.2L110.62 431.82C109.5 435.06 107.7 438.38 105.86 440.46C105.48 440.02 104.56 439.16 104.04 438.78C105.8 436.98 107.38 434.1 108.3 431.2ZM103.02 431.1L105.34 431.84C104.04 435.24 101.94 438.9 99.74 441.18C99.52 440.58 98.84 439.22 98.42 438.62C100.26 436.8 102 433.96 103.02 431.1ZM101 436.62L103.4 434.2L103.42 434.22V449.78H101V436.62ZM119.98 437.08H137.98V439.2H119.98V437.08ZM121.72 433.18H133.16V435.26H121.72V433.18ZM125.24 444.06H134.18V445.86H125.24V444.06ZM125.24 447.2H134.18V449.22H125.24V447.2ZM126.44 431.02H128.8V438.26H126.44V431.02ZM135.24 431.6L137.3 432.66C133.38 438.12 127.28 442.14 120.8 444.52C120.52 444 119.8 443 119.36 442.52C125.86 440.44 131.74 436.62 135.24 431.6ZM123.9 440.8H135.7V449.74H133.2V442.76H126.3V449.82H123.9V440.8ZM142.52 432.44H146.54V446.06H142.52V443.96H144.62V434.54H142.52V432.44ZM142.5 438.2H145.52V440.26H142.5V438.2ZM141.26 432.44H143.14V447.7H141.26V432.44ZM150.18 435.14V435.88H155.9V435.14H150.18ZM150.18 433.04V433.8H155.9V433.04H150.18ZM148 431.6H158.18V437.34H148V431.6ZM147.14 440.74H159.2V442.42H147.14V440.74ZM147.68 438.2H158.68V439.82H147.68V438.2ZM156.24 441.7C156.98 442.54 158.42 443.5 159.6 443.96C159.22 444.28 158.64 444.92 158.36 445.34C157.12 444.68 155.66 443.4 154.86 442.28L156.24 441.7ZM146.84 447.5C148.28 447.02 150.48 446.22 152.6 445.4L152.94 446.9C151.1 447.74 149.16 448.56 147.58 449.2L146.84 447.5ZM149.84 436.96H151.88V441.44H149.84V436.96ZM154.52 436.96H156.6V441.44H154.52V436.96ZM152.12 442.88H154.2V447.96C154.2 448.86 154.04 449.28 153.42 449.54C152.82 449.8 152 449.82 150.86 449.82C150.78 449.3 150.52 448.62 150.28 448.14C150.92 448.18 151.62 448.18 151.82 448.16C152.06 448.14 152.12 448.1 152.12 447.9V442.88ZM150.06 441.64L151.62 442.28C150.66 443.44 148.92 444.64 147.38 445.22C147.12 444.8 146.56 444.16 146.16 443.84C147.6 443.38 149.22 442.52 150.06 441.64ZM152.76 446.82L153.88 445.52C155.52 446.08 157.56 447.02 158.7 447.68L157.58 449.1C156.44 448.4 154.38 447.38 152.76 446.82ZM148.92 444.86L150.26 443.98C150.76 444.38 151.32 445 151.56 445.42L150.14 446.4C149.92 445.94 149.4 445.3 148.92 444.86ZM155.82 444.06L157.32 444.88C156.68 445.58 156.04 446.26 155.52 446.72L154.32 446C154.8 445.48 155.48 444.64 155.82 444.06ZM172.3 440.16H174.72V446.66C174.72 447.38 174.82 447.48 175.48 447.48C175.78 447.48 176.96 447.48 177.32 447.48C177.98 447.48 178.08 447.04 178.18 444.3C178.68 444.7 179.74 445.12 180.36 445.28C180.12 448.78 179.52 449.74 177.52 449.74C177.08 449.74 175.54 449.74 175.12 449.74C172.86 449.74 172.3 448.98 172.3 446.66V440.16ZM166.9 440.26H169.46C169.14 444.64 168.32 448.02 162.92 449.82C162.66 449.2 161.98 448.22 161.46 447.72C166.22 446.3 166.64 443.72 166.9 440.26ZM163.42 432.68L165.58 431.88C166.5 433.38 167.48 435.38 167.82 436.72L165.48 437.66C165.2 436.34 164.3 434.26 163.42 432.68ZM176.36 431.72L178.92 432.6C178.04 434.38 177 436.3 176.16 437.54L174.06 436.74C174.88 435.42 175.86 433.32 176.36 431.72ZM161.98 438.36H180.06V440.62H161.98V438.36ZM169.7 431.02H172.14V439.28H169.7V431.02ZM184 437.12H190.74V438.94H184V437.12ZM184 439.84H190.72V441.64H184V439.84ZM183.12 434.34H191.58V436.24H183.12V434.34ZM185.12 442.6H190.76V448.68H185.12V446.76H188.7V444.52H185.12V442.6ZM184.08 442.6H186.1V449.54H184.08V442.6ZM185.34 431.82L187.2 430.92C187.74 431.76 188.34 432.86 188.66 433.6L186.74 434.66C186.48 433.9 185.84 432.68 185.34 431.82ZM191.52 437.68H201.24V440.04H191.52V437.68ZM195.02 431.38H197.52V449.8H195.02V431.38ZM211.8 442.54H214.02V446.52H211.8V442.54ZM203.86 447.7H222.14V449.26H203.86V447.7ZM203.96 434.14H222.04V435.44H203.96V434.14ZM203.88 440.06H222.18V441.56H203.88V440.06ZM205.32 438.1H220.8V439.38H205.32V438.1ZM206.06 432.2H220.02V437.42H205.94V436.14H217.6V433.48H206.06V432.2ZM211.66 431H214.1V440.8H211.66V431ZM208.52 445.16V445.9H217.58V445.16H208.52ZM208.52 443.36V444.06H217.58V443.36H208.52ZM206.16 442.18H220.04V447.06H206.16V442.18Z" fill="white"/>
</g>
<path d="M26.248 492.576H27.368V507.28H26.248V492.576ZM23.752 497.936H29.576V499.072H23.752V497.936ZM23.864 493.808L24.744 493.584C25.208 494.704 25.576 496.176 25.672 497.136L24.728 497.376C24.648 496.416 24.28 494.928 23.864 493.808ZM28.92 493.536L30.008 493.824C29.592 495.024 29.08 496.512 28.664 497.408L27.848 497.168C28.232 496.208 28.696 494.624 28.92 493.536ZM30.6 499.12H36.488V500.256H30.6V499.12ZM36.12 499.12H37.272C37.272 499.12 37.272 499.488 37.256 499.664C37.032 504.384 36.808 506.048 36.344 506.608C36.072 506.96 35.768 507.072 35.336 507.104C34.936 507.152 34.248 507.152 33.544 507.104C33.512 506.784 33.416 506.32 33.224 506.016C33.928 506.08 34.536 506.096 34.808 506.096C35.064 506.096 35.192 506.064 35.336 505.888C35.688 505.488 35.912 503.856 36.12 499.344V499.12ZM32.392 499.648L33.544 499.712C33.256 503.328 32.36 505.76 30.2 507.344C30.056 507.104 29.64 506.672 29.4 506.48C31.416 505.152 32.184 502.864 32.392 499.648ZM33.208 493.088H35.784V494.192H33.208V493.088ZM31.592 493.472L32.728 493.68C32.28 496.048 31.448 498.144 30.216 499.536C30.04 499.328 29.608 498.912 29.336 498.736C30.488 497.504 31.224 495.584 31.592 493.472ZM34.808 493.088H36.088C36.424 495.472 37.304 497.648 38.52 498.784C38.232 498.976 37.8 499.36 37.576 499.648C36.344 498.336 35.448 496.096 35.08 493.696H34.808V493.088ZM25.192 500L26.008 500.288C25.656 502.048 24.92 504.288 24.024 505.424C23.912 505.04 23.624 504.496 23.432 504.16C24.152 503.232 24.872 501.456 25.192 500ZM28.216 500.016C28.52 500.464 29.656 502.512 29.896 503.024L29.064 503.888C28.792 503.088 27.912 501.12 27.56 500.48L28.216 500.016ZM52.344 498.112L53.224 497.712C53.96 498.816 54.696 500.288 54.952 501.232L53.992 501.68C53.768 500.736 53.064 499.232 52.344 498.112ZM52.696 502.176L53.672 501.84C54.296 502.976 54.936 504.464 55.208 505.44L54.168 505.824C53.928 504.832 53.288 503.312 52.696 502.176ZM48.808 501.904L49.88 502.128C49.528 503.6 48.952 505.056 48.296 506.032C48.056 505.872 47.576 505.648 47.288 505.536C48.008 504.624 48.52 503.264 48.808 501.904ZM45.032 498.768L45.928 498.512C46.392 499.52 46.904 500.864 47.08 501.664L46.136 501.984C45.96 501.168 45.496 499.808 45.032 498.768ZM43.192 502.96L44.104 502.752C44.328 503.856 44.52 505.232 44.584 506.176L43.64 506.4C43.592 505.456 43.384 504.048 43.192 502.96ZM41.336 502.864L42.296 503.056C42.04 504.416 41.624 505.92 41.224 506.896C41.016 506.784 40.552 506.64 40.296 506.576C40.744 505.584 41.112 504.144 41.336 502.864ZM40.696 498.56C40.648 498.336 40.472 497.808 40.344 497.52C40.632 497.456 40.936 497.12 41.32 496.624C41.704 496.16 42.984 494.288 43.768 492.512L44.792 492.96C43.816 494.8 42.616 496.672 41.432 497.952V497.984C41.432 497.984 40.696 498.32 40.696 498.56ZM40.696 498.56L40.68 497.712L41.256 497.344L44.328 497.072C44.264 497.376 44.216 497.792 44.232 498.032C41.416 498.336 40.968 498.432 40.696 498.56ZM40.808 502.16C40.744 501.936 40.568 501.392 40.44 501.104C40.792 501.024 41.192 500.624 41.752 500.016C42.344 499.424 44.248 497.12 45.512 494.88L46.488 495.472C45.032 497.744 43.288 499.968 41.592 501.552V501.584C41.592 501.584 40.808 501.936 40.808 502.16ZM40.808 502.16L40.76 501.312L41.352 500.928L46.328 500.224C46.296 500.512 46.28 500.928 46.296 501.152C41.704 501.856 41.16 501.984 40.808 502.16ZM45.096 502.656L45.96 502.368C46.36 503.312 46.808 504.544 47 505.328L46.088 505.664C45.912 504.864 45.48 503.616 45.096 502.656ZM50.744 500.448H51.848V505.968C51.848 506.544 51.752 506.832 51.368 507.024C50.984 507.2 50.376 507.2 49.512 507.2C49.464 506.896 49.32 506.464 49.176 506.16C49.8 506.176 50.344 506.176 50.52 506.176C50.696 506.16 50.744 506.112 50.744 505.952V500.448ZM48.04 497.952C47.976 497.728 47.8 497.216 47.688 496.928C47.944 496.88 48.184 496.592 48.504 496.176C48.824 495.776 49.88 494.208 50.488 492.72L51.528 493.152C50.728 494.704 49.704 496.288 48.744 497.376V497.392C48.744 497.392 48.04 497.728 48.04 497.952ZM48.04 497.952L48.008 497.136L48.568 496.784L51.656 496.512C51.592 496.8 51.56 497.216 51.56 497.44C48.744 497.744 48.296 497.84 48.04 497.952ZM48.088 501.472C48.04 501.232 47.848 500.688 47.72 500.4C48.088 500.336 48.472 499.936 49.016 499.376C49.608 498.816 51.464 496.624 52.712 494.496L53.672 495.104C52.248 497.264 50.536 499.36 48.872 500.864V500.88C48.872 500.88 48.088 501.232 48.088 501.472ZM48.088 501.472L48.072 500.656L48.68 500.288L53.88 499.808C53.816 500.08 53.784 500.496 53.8 500.72C49.016 501.216 48.44 501.312 48.088 501.472ZM63.112 493.952H71.56V494.864H63.112V493.952ZM62.744 497.776H71.896V498.688H62.744V497.776ZM62.696 503.712H71.96V504.64H62.696V503.712ZM63.528 495.824H71.288V496.72H63.528V495.824ZM65.064 492.576H66.136V498.144H65.064V492.576ZM68.52 492.576H69.592V498.144H68.52V492.576ZM66.76 498.176H67.832V504H66.76V498.176ZM69.896 499.616H71V506.032C71 506.624 70.872 506.928 70.456 507.104C70.008 507.28 69.272 507.264 68.12 507.264C68.072 506.992 67.928 506.576 67.784 506.288C68.616 506.32 69.4 506.32 69.608 506.304C69.832 506.288 69.896 506.24 69.896 506.032V499.616ZM63.72 499.616H70.376V500.528H64.808V507.296H63.72V499.616ZM64.28 501.68H70.344V502.512H64.28V501.68ZM58.712 503.584L59.8 503.84C59.416 505.152 58.744 506.448 58.008 507.296C57.8 507.136 57.352 506.816 57.096 506.656C57.816 505.888 58.408 504.752 58.712 503.584ZM60.728 503.984L61.624 503.568C62.152 504.352 62.728 505.392 62.968 506.048L62.008 506.512C61.768 505.84 61.224 504.768 60.728 503.984ZM58.968 497.168V499.232H61.368V497.168H58.968ZM58.968 500.16V502.256H61.368V500.16H58.968ZM58.968 494.176V496.224H61.368V494.176H58.968ZM57.912 493.168H62.44V503.248H57.912V493.168ZM83.736 494.256V495.92H86.488V494.256H83.736ZM80.008 494.256V495.92H82.696V494.256H80.008ZM76.376 494.256V495.92H78.984V494.256H76.376ZM75.256 493.312H87.656V496.88H75.256V493.312ZM77.4 500.64V501.824H85.496V500.64H77.4ZM77.4 502.64V503.856H85.496V502.64H77.4ZM77.4 498.64V499.84H85.496V498.64H77.4ZM76.2 497.792H86.744V504.704H76.2V497.792ZM82.728 505.52L83.672 504.88C85.48 505.408 87.464 506.128 88.68 506.672L87.416 507.312C86.36 506.8 84.552 506.096 82.728 505.52ZM78.968 504.848L80.056 505.344C78.744 506.144 76.696 506.896 75.08 507.328C74.888 507.088 74.456 506.64 74.184 506.432C75.864 506.08 77.8 505.488 78.968 504.848ZM92.088 497.648H103.88V498.656H93.24V507.248H92.088V497.648ZM103.24 497.648H104.36V505.952C104.36 506.576 104.2 506.864 103.72 507.04C103.256 507.184 102.44 507.2 101.064 507.2C101.016 506.912 100.856 506.528 100.712 506.272C101.704 506.304 102.632 506.288 102.888 506.272C103.144 506.256 103.24 506.192 103.24 505.952V497.648ZM95.832 501.568H101.112V505.232H95.832V504.336H100.088V502.48H95.832V501.568ZM95.208 501.568H96.248V505.984H95.208V501.568ZM91.176 494.288H105.24V495.344H91.176V494.288ZM94.584 495.712L95.608 495.36C95.96 495.936 96.424 496.704 96.632 497.152L95.576 497.6C95.368 497.104 94.936 496.304 94.584 495.712ZM100.728 495.44L101.944 495.728C101.432 496.576 100.808 497.552 100.312 498.16L99.384 497.888C99.848 497.232 100.44 496.176 100.728 495.44ZM97.272 492.784L98.376 492.496C98.68 493.152 99 494 99.16 494.544L97.992 494.896C97.848 494.336 97.528 493.44 97.272 492.784ZM96.072 498.144H97.144C96.968 500.144 96.296 501.152 93.848 501.696C93.752 501.456 93.496 501.056 93.272 500.864C95.4 500.48 95.944 499.744 96.072 498.144ZM98.904 498.176H99.992V499.68C99.992 500.048 100.024 500.176 100.312 500.176C100.536 500.176 101.512 500.176 101.752 500.176C101.992 500.176 102.408 500.16 102.632 500.112C102.648 500.384 102.68 500.72 102.712 500.976C102.52 501.04 102.12 501.056 101.784 501.056C101.464 501.056 100.328 501.056 100.088 501.056C99.096 501.056 98.904 500.64 98.904 499.664V498.176ZM111.816 494.4V497.44H118.216V494.4H111.816ZM110.648 493.248H119.432V498.592H110.648V493.248ZM108.328 500.288H114.024V507.152H112.824V501.44H109.464V507.28H108.328V500.288ZM115.768 500.288H121.784V507.184H120.584V501.44H116.92V507.28H115.768V500.288ZM108.84 505.264H113.304V506.416H108.84V505.264ZM116.36 505.264H121.112V506.416H116.36V505.264ZM130.584 497.648H138.6V498.704H130.584V497.648ZM129.864 494.48H139.096V495.568H129.864V494.48ZM129.928 500.48H139.048V501.552H129.928V500.48ZM133.896 492.56H135.08V498.24H133.896V492.56ZM136.008 498.496H137.176V505.856C137.176 506.544 137.016 506.896 136.52 507.072C136.024 507.248 135.208 507.264 133.928 507.264C133.88 506.944 133.688 506.464 133.512 506.144C134.504 506.176 135.4 506.176 135.656 506.16C135.928 506.144 136.008 506.08 136.008 505.84V498.496ZM130.904 502.672L131.896 502.112C132.664 502.928 133.592 504.08 133.992 504.832L132.936 505.488C132.552 504.72 131.688 503.52 130.904 502.672ZM125.576 493.616H129.576V504.128H125.576V503.04H128.456V494.704H125.576V493.616ZM125.624 498.272H128.984V499.344H125.624V498.272ZM125 493.616H126.136V505.44H125V493.616ZM147.288 502.992L146.92 502.144C148.232 501.616 148.952 500.8 148.952 499.584L148.648 498.24L149.512 499.456C149.288 499.744 148.968 499.824 148.664 499.824C148.008 499.824 147.464 499.424 147.464 498.672C147.464 497.92 148.04 497.52 148.68 497.52C149.576 497.52 150.056 498.256 150.056 499.376C150.056 501.104 148.968 502.416 147.288 502.992ZM29.112 518.504H36.888V519.496H29.112V518.504ZM29.112 520.776H36.888V521.768H29.112V520.776ZM29.608 526.664H36.376V527.656H29.608V526.664ZM27.96 516.216H38.152V517.224H27.96V516.216ZM28.904 523.128H37.064V528.232H35.976V524.12H29.944V528.28H28.904V523.128ZM31.656 513.96L32.696 513.56C33.144 514.216 33.624 515.08 33.864 515.656L32.776 516.136C32.568 515.544 32.072 514.648 31.656 513.96ZM27.08 513.624L28.168 513.944C27.224 516.632 25.752 519.336 24.168 521.144C24.056 520.872 23.72 520.28 23.496 520.008C24.936 518.44 26.28 516.04 27.08 513.624ZM25.704 517.8L26.792 516.696L26.808 516.712V528.328H25.704V517.8ZM49.464 513.768H50.664V528.28H49.464V513.768ZM46.696 514.376L47.848 514.6C47.416 516.84 46.68 519.032 45.768 520.456C45.528 520.28 45.032 519.992 44.728 519.864C45.656 518.52 46.328 516.456 46.696 514.376ZM46.856 516.84H54.328V518.024H46.552L46.856 516.84ZM44.856 521.544H55.032V522.728H44.856V521.544ZM44.072 513.624L45.208 513.976C44.2 516.68 42.648 519.384 40.984 521.192C40.872 520.92 40.52 520.296 40.296 520.008C41.8 518.456 43.224 516.056 44.072 513.624ZM42.456 517.752L43.592 516.616L43.608 516.632V528.264H42.456V517.752ZM57.096 522.088C58.36 521.752 60.264 521.16 62.12 520.568L62.28 521.672C60.584 522.232 58.776 522.824 57.416 523.256L57.096 522.088ZM57.24 516.76H62.264V517.88H57.24V516.76ZM59.288 513.576H60.456V526.808C60.456 527.496 60.312 527.832 59.896 528.024C59.512 528.216 58.888 528.264 57.864 528.248C57.832 527.944 57.672 527.432 57.512 527.096C58.2 527.112 58.824 527.112 59.016 527.096C59.208 527.096 59.288 527.048 59.288 526.808V513.576ZM63.88 519.624H71.288V520.696H63.88V519.624ZM63.896 522.824H71.272V523.896H63.896V522.824ZM63.928 526.072H71.864V527.176H63.928V526.072ZM64.632 513.656L65.768 513.96C64.92 516.52 63.608 519.048 62.184 520.696C61.992 520.488 61.544 520.056 61.288 519.848C62.68 518.36 63.896 516.024 64.632 513.656ZM64.648 516.424H71.544V517.528H64.648V528.28H63.48V517.384L64.408 516.424H64.648ZM67.352 517.016H68.488V526.664H67.352V517.016ZM66.856 514.104L67.896 513.704C68.376 514.424 68.872 515.384 69.08 516.024L67.992 516.504C67.8 515.848 67.304 514.84 66.856 514.104ZM75.848 517.064H88.136V517.944H75.848V517.064ZM78.104 522.344H87.656V523.192H78.104V522.344ZM78.072 524.104H87.208V524.968H78.072V524.104ZM78.984 517.704H80.024V521.016H78.984V517.704ZM82.632 517.704H83.688V521.016H82.632V517.704ZM75.416 517.064H76.536V520.792C76.536 523 76.296 526.12 74.824 528.232C74.616 528.04 74.136 527.736 73.864 527.624C75.256 525.624 75.416 522.824 75.416 520.792V517.064ZM76.104 518.888H87.288V521.432H76.104V520.68H86.12V519.656H76.104V518.888ZM86.888 524.104H88.024C88.024 524.104 88.008 524.392 87.976 524.552C87.8 526.696 87.624 527.56 87.288 527.928C87.048 528.152 86.792 528.248 86.408 528.28C86.104 528.296 85.496 528.296 84.872 528.264C84.84 527.992 84.744 527.592 84.6 527.336C85.176 527.4 85.704 527.4 85.912 527.4C86.136 527.4 86.248 527.384 86.36 527.272C86.584 527.032 86.744 526.248 86.888 524.248V524.104ZM77.432 525.384L78.296 525.768C78.024 526.536 77.608 527.528 77.112 528.168L76.248 527.672C76.744 527.096 77.192 526.12 77.432 525.384ZM79.096 525.736L80.008 525.592C80.248 526.328 80.408 527.288 80.424 527.896L79.448 528.056C79.448 527.432 79.304 526.472 79.096 525.736ZM81.208 525.624L82.072 525.352C82.472 525.976 82.856 526.84 83.032 527.4L82.104 527.72C81.96 527.144 81.576 526.264 81.208 525.624ZM83.368 525.448L84.168 525.08C84.648 525.528 85.16 526.152 85.384 526.568L84.568 527.016C84.344 526.584 83.816 525.912 83.368 525.448ZM80.344 516.168L81.256 515.832C81.64 516.264 82.04 516.872 82.216 517.288L81.24 517.688C81.08 517.256 80.712 516.616 80.344 516.168ZM74.248 514.568H80.872V515.528H74.248V514.568ZM77.624 513.576H78.792V516.52H77.624V513.576ZM84.088 513.576H85.24V516.52H84.088V513.576ZM81.784 514.568H88.44V515.512H81.784V514.568ZM77.992 521.144L79.016 521.304L78.376 524.968H77.32L77.992 521.144ZM94.152 517.208H102.296V518.264H94.152V517.208ZM94.968 519.944H96.088V526.2H94.968V519.944ZM95.576 519.944H101.432V525.032H95.576V523.992H100.312V520.952H95.576V519.944ZM91.592 514.392H104.376V515.544H92.76V528.312H91.592V514.392ZM103.64 514.392H104.824V526.76C104.824 527.512 104.632 527.88 104.136 528.072C103.656 528.28 102.856 528.312 101.464 528.296C101.416 527.976 101.224 527.448 101.032 527.128C102.04 527.16 102.984 527.16 103.256 527.144C103.544 527.128 103.64 527.032 103.64 526.76V514.392ZM112.424 521.704L113.128 521.288C113.528 521.656 114.024 522.232 114.232 522.584L113.528 523.08C113.304 522.696 112.84 522.12 112.424 521.704ZM107.768 522.936H114.776V523.96H107.768V522.936ZM107.784 517.112H114.616V518.104H107.784V517.112ZM113.4 514.152L114.408 514.472C114.04 515.192 113.64 515.96 113.288 516.472L112.488 516.184C112.792 515.624 113.192 514.744 113.4 514.152ZM110.744 513.64H111.8V521.128H110.744V513.64ZM108.136 514.472L109 514.152C109.416 514.728 109.816 515.512 109.96 516.04L109.064 516.408C108.92 515.88 108.552 515.08 108.136 514.472ZM110.728 525.288L111.384 524.536C112.376 525.192 113.736 526.12 114.408 526.696L113.736 527.528C113.08 526.936 111.752 525.96 110.728 525.288ZM112.696 518.648C113.112 518.92 114.488 520.072 114.808 520.392L114.136 521.192C113.736 520.696 112.552 519.528 112.072 519.112L112.696 518.648ZM109.56 518.584L110.328 518.872C109.896 519.944 109.064 521.112 108.232 521.736C108.072 521.48 107.736 521.128 107.512 520.952C108.312 520.488 109.144 519.48 109.56 518.584ZM114.824 514.328H122.296V515.384H114.824V514.328ZM116.568 520.28V521.816H120.52V520.28H116.568ZM116.568 522.712V524.296H120.52V522.712H116.568ZM116.568 517.848V519.368H120.52V517.848H116.568ZM115.464 516.904H121.672V525.24H115.464V516.904ZM117.816 514.84L119.112 515.016C118.84 515.944 118.52 516.936 118.248 517.592L117.224 517.384C117.448 516.68 117.704 515.592 117.816 514.84ZM117.128 525.576L118.168 526.184C117.432 526.984 116.2 527.848 115.128 528.328C114.936 528.104 114.584 527.752 114.328 527.528C115.384 527.08 116.568 526.248 117.128 525.576ZM118.92 526.2L119.784 525.608C120.728 526.184 121.912 527.032 122.552 527.64L121.608 528.312C121.048 527.72 119.848 526.824 118.92 526.2ZM110.664 521.48H111.72V523.096C111.72 524.84 111.336 526.808 108.184 528.184C108.072 527.928 107.768 527.528 107.56 527.304C110.376 526.12 110.664 524.472 110.664 523.064V521.48ZM125.4 514.216H132.616V515.288H125.4V514.216ZM124.872 517.496H132.968V518.568H124.872V517.496ZM124.552 526.616H139.032V527.736H124.552V526.616ZM126.216 523.48H137.352V524.568H126.216V523.48ZM130.008 514.664H131.128V521.992H130.008V514.664ZM131.272 521.688H132.488V527.384H131.272V521.688ZM133.96 514.488H135.064V519.848H133.96V514.488ZM136.936 513.672H138.088V520.824C138.088 521.496 137.944 521.8 137.464 521.992C136.984 522.168 136.216 522.184 135.064 522.184C135.016 521.864 134.84 521.416 134.664 521.096C135.592 521.128 136.376 521.128 136.632 521.096C136.872 521.096 136.936 521.032 136.936 520.808V513.672ZM126.904 514.68H128.024V517.4C128.024 519.064 127.608 521.112 125.528 522.408C125.368 522.168 124.952 521.736 124.728 521.56C126.648 520.392 126.904 518.76 126.904 517.368V514.68ZM150.968 515.336H152.088V524.184H150.968V515.336ZM153.992 513.64H155.144V526.696C155.144 527.448 154.952 527.816 154.488 528.024C154.024 528.216 153.224 528.248 151.912 528.248C151.848 527.928 151.672 527.4 151.512 527.048C152.488 527.08 153.352 527.08 153.608 527.064C153.88 527.048 153.992 526.968 153.992 526.696V513.64ZM143.256 520.44H148.616V521.24H143.256V520.44ZM143.992 526.568H148.936V527.512H143.992V526.568ZM142.568 518.52H143.688V520.68C143.688 522.68 143.448 525.592 142.152 527.624C141.928 527.432 141.432 527.208 141.128 527.096C142.408 525.144 142.568 522.504 142.568 520.68V518.52ZM143.24 518.52H149.128V523.24H143.176V522.344H148.024V519.416H143.24V518.52ZM143.528 523.976H149.512V528.152H148.44V524.872H144.568V528.184H143.528V523.976ZM145.688 513.688L146.792 514.088C145.656 515.976 143.72 517.592 141.832 518.616C141.704 518.36 141.368 517.768 141.16 517.512C142.936 516.664 144.712 515.288 145.688 513.688ZM145.32 515L145.944 514.152C147.272 514.936 149.16 516.088 150.072 516.824L149.432 517.816C148.52 517.048 146.68 515.832 145.32 515ZM144.312 516.92H147.688V517.72H144.312V516.92ZM165.192 516.248H172.776V517.4H164.632L165.192 516.248ZM167.192 519.72H172.408V520.824H167.192V519.72ZM167.176 523.24H172.632V524.376H167.176V523.24ZM166.584 516.616H167.816V528.28H166.584V516.616ZM165.8 513.752L166.968 514.056C166.056 516.6 164.664 519.112 163.192 520.76C163.016 520.552 162.536 520.12 162.264 519.928C163.72 518.44 165.016 516.104 165.8 513.752ZM161.96 513.624L163.112 513.992C162.056 516.696 160.408 519.432 158.664 521.224C158.552 520.936 158.184 520.296 157.96 520.008C159.56 518.456 161.048 516.056 161.96 513.624ZM160.248 517.752L161.432 516.552L161.464 516.568V528.264H160.248V517.752ZM175.064 518.712H189.32V519.784H175.064V518.712ZM176.472 515.576H185.736V516.648H176.472V515.576ZM179.064 524.072H186.6V525.032H179.064V524.072ZM179.064 526.728H186.6V527.768H179.064V526.728ZM180.584 513.56H181.752V519.288H180.584V513.56ZM187.592 514.12L188.616 514.664C185.4 518.872 180.584 522.024 175.464 523.992C175.32 523.72 174.936 523.224 174.696 522.984C179.864 521.192 184.632 518.088 187.592 514.12ZM178.408 521.48H187.368V528.232H186.12V522.488H179.608V528.296H178.408V521.48ZM197.688 523.992L197.32 523.144C198.632 522.616 199.352 521.8 199.352 520.584L199.048 519.24L199.912 520.456C199.688 520.744 199.368 520.824 199.064 520.824C198.408 520.824 197.864 520.424 197.864 519.672C197.864 518.92 198.44 518.52 199.08 518.52C199.976 518.52 200.456 519.256 200.456 520.376C200.456 522.104 199.368 523.416 197.688 523.992ZM29.064 535.536H35.8V536.656H29.064V535.536ZM30.84 540.064H37.272V541.184H30.84V540.064ZM35.464 535.536H35.592L35.784 535.472L36.632 535.6C36.44 537.12 36.072 539.2 35.752 540.768L34.616 540.64C34.936 539.056 35.32 536.832 35.464 535.68V535.536ZM36.888 540.064H37.128L37.352 540.032L38.072 540.336C37.016 545.088 34.28 547.888 30.936 549.28C30.792 549.008 30.408 548.512 30.168 548.304C33.4 547.072 35.976 544.528 36.888 540.32V540.064ZM30.456 536.112L31.656 536.16C31.528 540.592 31.16 546.32 28.12 549.296C27.928 549.088 27.528 548.672 27.272 548.496C30.152 545.68 30.408 540.24 30.456 536.112ZM31.96 540.736C33.08 544.208 35.4 547.088 38.616 548.32C38.36 548.544 38.008 548.992 37.832 549.296C34.52 547.872 32.216 544.832 30.968 541.008L31.96 540.736ZM24.824 535.888H28.456V545.184H24.824V544.048H27.352V537.008H24.824V535.888ZM24.168 535.888H25.256V546.48H24.168V535.888ZM47.336 542.528H48.568C48.568 542.528 48.552 542.896 48.52 543.072C48.248 546.672 47.96 548.112 47.448 548.656C47.096 549.024 46.728 549.136 46.152 549.168C45.64 549.2 44.648 549.2 43.624 549.136C43.592 548.752 43.416 548.24 43.176 547.904C44.248 548 45.304 548 45.704 548C46.056 548 46.232 547.984 46.408 547.824C46.824 547.472 47.096 546.08 47.336 542.704V542.528ZM42.088 538.912H43.304C43.064 540.48 42.712 542.448 42.456 543.648H41.208C41.512 542.4 41.88 540.432 42.088 538.912ZM52.296 534.736H53.496V549.28H52.296V534.736ZM42.104 542.528H47.576V543.648H41.944L42.104 542.528ZM42.664 538.912H47.304V536.352H41.496V535.232H48.472V540.048H42.664V538.912ZM57.624 535.424H71.56V536.512H57.624V535.424ZM64.072 535.888H65.32V542.096C65.32 545.184 64.472 547.936 58.056 549.296C57.928 549.04 57.592 548.528 57.336 548.24C63.576 547.088 64.072 544.736 64.072 542.08V535.888ZM60.232 541.424V543.056H69.352V541.424H60.232ZM60.232 538.864V540.464H69.352V538.864H60.232ZM59.096 537.856H70.568V544.064H59.096V537.856ZM60.632 544.192C62.664 547.36 66.312 547.904 72.088 548.048C71.88 548.336 71.64 548.848 71.576 549.232C65.688 548.992 61.752 548.24 59.608 544.608L60.632 544.192ZM77.416 538.096L78.216 537.392C79.416 537.952 80.888 538.848 81.608 539.52L80.76 540.304C80.072 539.632 78.616 538.688 77.416 538.096ZM84.808 535.92H85.048L85.256 535.856L86.04 536.336C83.96 540.064 79.224 542.304 75 543.232C74.888 542.928 74.648 542.432 74.424 542.176C78.456 541.424 83.064 539.264 84.808 536.112V535.92ZM79.464 535.92H85.112V536.928H79.464V535.92ZM80.648 534.544L81.992 534.832C80.52 536.528 78.344 538.112 75.368 539.296C75.192 539.008 74.824 538.608 74.552 538.4C77.432 537.392 79.544 535.888 80.648 534.544ZM79.464 543.968L80.344 543.28C81.608 543.936 83.144 544.944 83.912 545.712L82.968 546.48C82.248 545.728 80.728 544.656 79.464 543.968ZM87.144 541.52H87.384L87.608 541.456L88.392 541.888C86.376 546.56 81.384 548.56 76.152 549.328C76.072 548.992 75.832 548.496 75.64 548.224C80.584 547.632 85.416 545.728 87.144 541.696V541.52ZM81.944 541.52H87.464V542.544H81.944V541.52ZM83.24 540.016L84.568 540.32C82.952 542.208 80.424 543.952 76.92 545.184C76.776 544.912 76.424 544.48 76.168 544.256C79.56 543.2 81.992 541.536 83.24 540.016ZM96.344 545.168H103.8V546.064H96.344V545.168ZM96.36 547.584H103.8V548.544H96.36V547.584ZM94.872 535.168H99.64V536.064H94.872V535.168ZM95.768 542.816H104.376V549.2H103.208V543.792H96.888V549.264H95.768V542.816ZM97.304 535.568H98.264V536.832C98.264 538.384 97.896 540.752 95 542.592C94.872 542.368 94.584 542.064 94.36 541.888C97.144 540.288 97.304 538.224 97.304 536.832V535.568ZM100.12 535.168H105.24V536.064H100.12V535.168ZM102.504 535.568H103.464V537.008C103.464 538.544 103.096 540.88 100.472 542.608C100.344 542.4 100.04 542.096 99.816 541.936C102.36 540.432 102.504 538.336 102.504 536.992V535.568ZM91.416 535.552L92.168 534.768C93 535.248 94.072 536 94.616 536.528L93.832 537.44C93.32 536.88 92.248 536.08 91.416 535.552ZM90.808 539.904L91.544 539.088C92.424 539.52 93.56 540.224 94.12 540.72L93.368 541.648C92.824 541.136 91.704 540.384 90.808 539.904ZM91.16 548.432C91.8 547.2 92.728 545.104 93.384 543.312L94.344 543.952C93.736 545.632 92.936 547.6 92.232 549.072L91.16 548.432ZM102.712 539.696H103.592V541.168C103.592 541.424 103.608 541.456 103.832 541.456C103.944 541.456 104.376 541.456 104.52 541.456C104.76 541.456 104.808 541.36 104.84 540.208C105.016 540.352 105.368 540.48 105.624 540.544C105.544 541.968 105.304 542.288 104.648 542.288C104.488 542.288 103.896 542.288 103.736 542.288C102.904 542.288 102.712 542.064 102.712 541.168V539.696ZM95.336 535.728L96.232 535.792C96.12 536.896 95.928 538.272 95.768 539.168H94.92C95.096 538.256 95.256 536.816 95.336 535.728ZM100.664 538.24H105.368V539.2H100.664V538.24ZM100.584 535.76L101.448 535.824C101.336 536.928 101.144 538.304 100.968 539.2H100.152C100.328 538.272 100.488 536.848 100.584 535.76ZM95.464 538.208H99.832V539.168H95.464V538.208ZM97.768 542.528L97.672 541.664L98.024 541.248L99.944 540.4C99.992 540.656 100.12 540.992 100.2 541.168C98.296 542.112 97.96 542.32 97.768 542.528ZM97.768 542.528C97.672 542.32 97.432 541.984 97.272 541.824C97.496 541.664 97.848 541.296 97.848 540.576V538.816H98.68V541.392C98.68 541.392 97.768 542.144 97.768 542.528ZM107.992 537.04H122.008V538.208H107.992V537.04ZM112.952 542.112H121.384V543.232H112.952V542.112ZM112.328 547.776H122.008V548.912H112.328V547.776ZM116.568 539.024H117.768V548.384H116.568V539.024ZM113.256 534.56L114.488 534.864C113.368 538.528 111.416 542.256 108.232 544.544C108.104 544.224 107.8 543.712 107.608 543.44C110.488 541.408 112.36 537.856 113.256 534.56ZM110.088 541.152H111.288V549.232H110.088V541.152ZM127.144 539.344H136.408V540.48H127.144V539.344ZM127.144 543.136H136.408V544.272H127.144V543.136ZM127.144 546.944H136.408V548.112H127.144V546.944ZM126.312 535.552H137.176V549.2H135.928V536.736H127.512V549.2H126.312V535.552ZM149.448 535.856H150.36V540.704H149.448V535.856ZM151.816 535.856H152.728V540.704H151.816V535.856ZM152.76 546.08L153.624 545.584C154.472 546.384 155.384 547.472 155.816 548.208L154.888 548.784C154.472 548.032 153.56 546.88 152.76 546.08ZM148.28 545.6L149.352 545.904C148.744 546.992 147.848 548.112 147 548.832C146.792 548.656 146.344 548.336 146.072 548.192C146.936 547.52 147.784 546.56 148.28 545.6ZM146.648 535.312H155.624V536.304H146.648V535.312ZM147.704 541.984H154.616V542.944H147.704V541.984ZM146.68 544.064H155.704V545.04H146.68V544.064ZM148.008 538.304V540.208H154.296V538.304H148.008ZM147 537.376H155.352V541.136H147V537.376ZM150.52 544.56H151.624V549.28H150.52V544.56ZM141.512 537.664H146.648V538.768H141.512V537.664ZM143.768 534.56H144.872V549.264H143.768V534.56ZM143.688 538.384L144.392 538.656C143.896 541.168 142.824 544.32 141.736 545.952C141.608 545.6 141.304 545.072 141.096 544.784C142.152 543.36 143.224 540.576 143.688 538.384ZM144.808 539.552C145.176 539.984 146.472 542.016 146.776 542.496L146.04 543.36C145.688 542.56 144.648 540.656 144.232 540L144.808 539.552ZM158.552 539.184H172.248V542.448H171.08V540.256H159.672V542.448H158.552V539.184ZM160.488 542.064H169.432V543.184H160.488V542.064ZM170.504 534.512L171.352 535.472C168.136 536.144 163.144 536.56 158.984 536.72C158.952 536.416 158.808 535.968 158.696 535.696C162.84 535.504 167.768 535.088 170.504 534.512ZM160.04 537.056L161.08 536.752C161.544 537.408 162.024 538.304 162.216 538.88L161.128 539.232C160.936 538.656 160.472 537.744 160.04 537.056ZM164.296 536.72L165.384 536.48C165.752 537.216 166.136 538.192 166.232 538.816L165.096 539.088C165 538.464 164.664 537.472 164.296 536.72ZM169.768 536.448L170.984 536.8C170.408 537.824 169.656 539.008 169.08 539.76L168.12 539.424C168.68 538.624 169.384 537.344 169.768 536.448ZM169 542.064H169.272L169.496 542.016L170.296 542.512C168.328 546.576 163.8 548.432 158.92 549.248C158.792 548.944 158.456 548.416 158.216 548.16C163.016 547.504 167.336 545.808 169 542.272V542.064ZM162.056 542.8C163.88 545.744 167.736 547.536 172.552 548.112C172.312 548.384 171.976 548.896 171.832 549.232C166.952 548.528 163.096 546.576 161 543.248L162.056 542.8ZM178.104 542.56H179.272C178.824 544.576 177.912 547.12 175.384 548.496C175.224 548.224 174.888 547.808 174.648 547.616C176.936 546.464 177.72 544.128 178.104 542.56ZM185.96 542.272H187.144C186.776 544.384 185.944 547.008 183.56 548.432C183.4 548.16 183.032 547.728 182.776 547.536C184.968 546.336 185.656 543.952 185.96 542.272ZM186.504 544.096C187.032 545.136 188.232 546.656 189.512 547.44C189.256 547.632 188.888 548.032 188.712 548.32C187.432 547.408 186.232 545.712 185.688 544.672L186.504 544.096ZM184.568 536.256V538.352H187.336V536.256H184.568ZM180.744 536.256V538.352H183.464V536.256H180.744ZM177 536.256V538.352H179.64V536.256H177ZM175.848 535.184H188.52V539.424H175.848V535.184ZM187.928 540.16L188.824 541.04C185.528 541.632 180.136 541.904 176.264 541.984C176.104 541.696 175.784 541.12 175.544 540.848C179.608 540.912 184.936 540.64 187.928 540.16ZM181.592 541.728L182.312 541.008L182.792 541.168V549.504H181.592V541.728ZM177.912 545.104L178.552 544.368C179.464 545.008 180.584 545.952 181.096 546.608L180.44 547.456C179.912 546.784 178.808 545.792 177.912 545.104Z" fill="#353535"/>
<g opacity="0.5">
<path d="M314 154V162.947C314 173.993 322.954 182.947 334 182.947H412C423.046 182.947 432 191.902 432 202.947V204" stroke="white" stroke-width="4"/>
<path d="M314 154V162.947C314 173.993 322.954 182.947 334 182.947H412C423.046 182.947 432 191.902 432 202.947V204" stroke="#E1D4FF" stroke-width="4"/>
</g>
<defs>
<filter id="filter0_d_9_2609" x="680" y="317" width="119.804" height="66" filterUnits="userSpaceOnUse" color-interpolation-filters="sRGB">
<feFlood flood-opacity="0" result="BackgroundImageFix"/>
<feColorMatrix in="SourceAlpha" type="matrix" values="0 0 0 0 0 0 0 0 0 0 0 0 0 0 0 0 0 0 127 0" result="hardAlpha"/>
<feOffset dy="5"/>
<feGaussianBlur stdDeviation="3.5"/>
<feColorMatrix type="matrix" values="0 0 0 0 0 0 0 0 0 0 0 0 0 0 0 0 0 0 0.1 0"/>
<feBlend mode="normal" in2="BackgroundImageFix" result="effect1_dropShadow_9_2609"/>
<feBlend mode="normal" in="SourceGraphic" in2="effect1_dropShadow_9_2609" result="shape"/>
</filter>
<filter id="filter1_d_9_2609" x="206" y="273" width="119.804" height="66" filterUnits="userSpaceOnUse" color-interpolation-filters="sRGB">
<feFlood flood-opacity="0" result="BackgroundImageFix"/>
<feColorMatrix in="SourceAlpha" type="matrix" values="0 0 0 0 0 0 0 0 0 0 0 0 0 0 0 0 0 0 127 0" result="hardAlpha"/>
<feOffset dy="5"/>
<feGaussianBlur stdDeviation="3.5"/>
<feColorMatrix type="matrix" values="0 0 0 0 0 0 0 0 0 0 0 0 0 0 0 0 0 0 0.1 0"/>
<feBlend mode="normal" in2="BackgroundImageFix" result="effect1_dropShadow_9_2609"/>
<feBlend mode="normal" in="SourceGraphic" in2="effect1_dropShadow_9_2609" result="shape"/>
</filter>
<filter id="filter2_d_9_2609" x="444" y="192" width="119.804" height="66" filterUnits="userSpaceOnUse" color-interpolation-filters="sRGB">
<feFlood flood-opacity="0" result="BackgroundImageFix"/>
<feColorMatrix in="SourceAlpha" type="matrix" values="0 0 0 0 0 0 0 0 0 0 0 0 0 0 0 0 0 0 127 0" result="hardAlpha"/>
<feOffset dy="5"/>
<feGaussianBlur stdDeviation="3.5"/>
<feColorMatrix type="matrix" values="0 0 0 0 0 0 0 0 0 0 0 0 0 0 0 0 0 0 0.1 0"/>
<feBlend mode="normal" in2="BackgroundImageFix" result="effect1_dropShadow_9_2609"/>
<feBlend mode="normal" in="SourceGraphic" in2="effect1_dropShadow_9_2609" result="shape"/>
</filter>
<filter id="filter3_d_9_2609" x="714.727" y="283" width="42" height="42" filterUnits="userSpaceOnUse" color-interpolation-filters="sRGB">
<feFlood flood-opacity="0" result="BackgroundImageFix"/>
<feColorMatrix in="SourceAlpha" type="matrix" values="0 0 0 0 0 0 0 0 0 0 0 0 0 0 0 0 0 0 127 0" result="hardAlpha"/>
<feOffset dy="5"/>
<feGaussianBlur stdDeviation="3.5"/>
<feColorMatrix type="matrix" values="0 0 0 0 0 0 0 0 0 0 0 0 0 0 0 0 0 0 0.1 0"/>
<feBlend mode="normal" in2="BackgroundImageFix" result="effect1_dropShadow_9_2609"/>
<feBlend mode="normal" in="SourceGraphic" in2="effect1_dropShadow_9_2609" result="shape"/>
</filter>
<filter id="filter4_d_9_2609" x="410.319" y="203" width="42" height="42" filterUnits="userSpaceOnUse" color-interpolation-filters="sRGB">
<feFlood flood-opacity="0" result="BackgroundImageFix"/>
<feColorMatrix in="SourceAlpha" type="matrix" values="0 0 0 0 0 0 0 0 0 0 0 0 0 0 0 0 0 0 127 0" result="hardAlpha"/>
<feOffset dy="5"/>
<feGaussianBlur stdDeviation="3.5"/>
<feColorMatrix type="matrix" values="0 0 0 0 0 0 0 0 0 0 0 0 0 0 0 0 0 0 0.1 0"/>
<feBlend mode="normal" in2="BackgroundImageFix" result="effect1_dropShadow_9_2609"/>
<feBlend mode="normal" in="SourceGraphic" in2="effect1_dropShadow_9_2609" result="shape"/>
</filter>
<filter id="filter5_d_9_2609" x="246.816" y="331" width="42" height="42" filterUnits="userSpaceOnUse" color-interpolation-filters="sRGB">
<feFlood flood-opacity="0" result="BackgroundImageFix"/>
<feColorMatrix in="SourceAlpha" type="matrix" values="0 0 0 0 0 0 0 0 0 0 0 0 0 0 0 0 0 0 127 0" result="hardAlpha"/>
<feOffset dy="5"/>
<feGaussianBlur stdDeviation="3.5"/>
<feColorMatrix type="matrix" values="0 0 0 0 0 0 0 0 0 0 0 0 0 0 0 0 0 0 0.1 0"/>
<feBlend mode="normal" in2="BackgroundImageFix" result="effect1_dropShadow_9_2609"/>
<feBlend mode="normal" in="SourceGraphic" in2="effect1_dropShadow_9_2609" result="shape"/>
</filter>
<filter id="filter6_dd_9_2609" x="265" y="84" width="274" height="82" filterUnits="userSpaceOnUse" color-interpolation-filters="sRGB">
<feFlood flood-opacity="0" result="BackgroundImageFix"/>
<feColorMatrix in="SourceAlpha" type="matrix" values="0 0 0 0 0 0 0 0 0 0 0 0 0 0 0 0 0 0 127 0" result="hardAlpha"/>
<feOffset dy="5"/>
<feGaussianBlur stdDeviation="3.5"/>
<feColorMatrix type="matrix" values="0 0 0 0 0 0 0 0 0 0 0 0 0 0 0 0 0 0 0.1 0"/>
<feBlend mode="normal" in2="BackgroundImageFix" result="effect1_dropShadow_9_2609"/>
<feColorMatrix in="SourceAlpha" type="matrix" values="0 0 0 0 0 0 0 0 0 0 0 0 0 0 0 0 0 0 127 0" result="hardAlpha"/>
<feOffset dy="5"/>
<feGaussianBlur stdDeviation="3.5"/>
<feColorMatrix type="matrix" values="0 0 0 0 0 0 0 0 0 0 0 0 0 0 0 0 0 0 0.1 0"/>
<feBlend mode="normal" in2="effect1_dropShadow_9_2609" result="effect2_dropShadow_9_2609"/>
<feBlend mode="normal" in="SourceGraphic" in2="effect2_dropShadow_9_2609" result="shape"/>
</filter>
<filter id="filter7_d_9_2609" x="719" y="403" width="232" height="82" filterUnits="userSpaceOnUse" color-interpolation-filters="sRGB">
<feFlood flood-opacity="0" result="BackgroundImageFix"/>
<feColorMatrix in="SourceAlpha" type="matrix" values="0 0 0 0 0 0 0 0 0 0 0 0 0 0 0 0 0 0 127 0" result="hardAlpha"/>
<feOffset dy="5"/>
<feGaussianBlur stdDeviation="3.5"/>
<feColorMatrix type="matrix" values="0 0 0 0 0 0 0 0 0 0 0 0 0 0 0 0 0 0 0.1 0"/>
<feBlend mode="normal" in2="BackgroundImageFix" result="effect1_dropShadow_9_2609"/>
<feBlend mode="normal" in="SourceGraphic" in2="effect1_dropShadow_9_2609" result="shape"/>
</filter>
<filter id="filter8_d_9_2609" x="0" y="403" width="262" height="82" filterUnits="userSpaceOnUse" color-interpolation-filters="sRGB">
<feFlood flood-opacity="0" result="BackgroundImageFix"/>
<feColorMatrix in="SourceAlpha" type="matrix" values="0 0 0 0 0 0 0 0 0 0 0 0 0 0 0 0 0 0 127 0" result="hardAlpha"/>
<feOffset dy="5"/>
<feGaussianBlur stdDeviation="3.5"/>
<feColorMatrix type="matrix" values="0 0 0 0 0 0 0 0 0 0 0 0 0 0 0 0 0 0 0.1 0"/>
<feBlend mode="normal" in2="BackgroundImageFix" result="effect1_dropShadow_9_2609"/>
<feBlend mode="normal" in="SourceGraphic" in2="effect1_dropShadow_9_2609" result="shape"/>
</filter>
<linearGradient id="paint0_linear_9_2609" x1="642.513" y1="323.651" x2="530.443" y2="285.385" gradientUnits="userSpaceOnUse">
<stop stop-color="#AC8EF5"/>
<stop offset="1" stop-color="#E1D4FF"/>
</linearGradient>
<linearGradient id="paint1_linear_9_2609" x1="359.487" y1="267.717" x2="440.85" y2="208.038" gradientUnits="userSpaceOnUse">
<stop stop-color="#E7D9E7"/>
<stop offset="1" stop-color="#E1D4FF"/>
</linearGradient>
<linearGradient id="paint2_linear_9_2609" x1="346.888" y1="267.717" x2="424.056" y2="218.768" gradientUnits="userSpaceOnUse">
<stop stop-color="#E7D9E7"/>
<stop offset="1" stop-color="#E1D4FF"/>
</linearGradient>
<linearGradient id="paint3_linear_9_2609" x1="278.341" y1="379" x2="342.231" y2="202.933" gradientUnits="userSpaceOnUse">
<stop stop-color="#E7D9E7"/>
<stop offset="0.56" stop-color="#AC8EF5"/>
</linearGradient>
<linearGradient id="paint4_linear_9_2609" x1="278.34" y1="379" x2="404.935" y2="147.731" gradientUnits="userSpaceOnUse">
<stop stop-color="#E7D9E7"/>
<stop offset="0.56" stop-color="#AC8EF5"/>
</linearGradient>
<linearGradient id="paint5_linear_9_2609" x1="642.513" y1="292.075" x2="541.524" y2="242.693" gradientUnits="userSpaceOnUse">
<stop stop-color="#AC8EF5"/>
<stop offset="1" stop-color="#E1D4FF"/>
</linearGradient>
</defs>
</svg>
