<svg width="814" height="516" viewBox="0 0 814 516" fill="none" xmlns="http://www.w3.org/2000/svg">
<path opacity="0.5" d="M602.273 285H692.273C703.319 285 712.273 293.954 712.273 305V394" stroke="#E1D4FF" stroke-width="4"/>
<path opacity="0.5" d="M221 333H146C134.954 333 126 341.954 126 353V405" stroke="#E1D4FF" stroke-width="4"/>
<path d="M604 320C604 328.837 596.837 336 588 336C579.163 336 572 328.837 572 320H604ZM572 320V236H604V320H572ZM556 220H506V188H556V220ZM572 236C572 227.163 564.837 220 556 220V188C582.51 188 604 209.49 604 236H572Z" fill="url(#paint0_linear_171_2782)" fill-opacity="0.3"/>
<path d="M232 258V236C232 218.327 246.327 204 264 204H424" stroke="white" stroke-width="32" stroke-linecap="round"/>
<path d="M232 258V236C232 218.327 246.327 204 264 204H424" stroke="url(#paint1_linear_171_2782)" stroke-opacity="0.3" stroke-width="32" stroke-linecap="round"/>
<path d="M232 258V236C232 218.327 246.327 204 264 204H345" stroke="white" stroke-width="32" stroke-linecap="round"/>
<path d="M232 258V236C232 218.327 246.327 204 264 204H345" stroke="url(#paint2_linear_171_2782)" stroke-width="32" stroke-linecap="round"/>
<path d="M250 331C250 322.163 242.837 315 234 315C225.163 315 218 322.163 218 331H250ZM572 305V332H604V305H572ZM556 348H266V380H556V348ZM250 332V331H218V332H250ZM266 348C257.163 348 250 340.837 250 332H218C218 358.51 239.49 380 266 380V348ZM572 332C572 340.837 564.837 348 556 348V380C582.51 380 604 358.51 604 332H572Z" fill="white"/>
<path d="M250 331C250 322.163 242.837 315 234 315C225.163 315 218 322.163 218 331H250ZM572 305V332H604V305H572ZM556 348H266V380H556V348ZM250 332V331H218V332H250ZM266 348C257.163 348 250 340.837 250 332H218C218 358.51 239.49 380 266 380V348ZM572 332C572 340.837 564.837 348 556 348V380C582.51 380 604 358.51 604 332H572Z" fill="url(#paint3_linear_171_2782)"/>
<path d="M250 314C250 305.163 242.837 298 234 298C225.163 298 218 305.163 218 314H250ZM572 314.783V332H604V314.783H572ZM556 348H266V380H556V348ZM250 332V314H218V332H250ZM266 348C257.163 348 250 340.837 250 332H218C218 358.51 239.49 380 266 380V348ZM572 332C572 340.837 564.837 348 556 348V380C582.51 380 604 358.51 604 332H572Z" fill="url(#paint4_linear_171_2782)" fill-opacity="0.3"/>
<path d="M604 285C604 293.837 596.837 301 588 301C579.163 301 572 293.837 572 285H604ZM572 285V236H604V285H572ZM556 220H461V188H556V220ZM572 236C572 227.163 564.837 220 556 220V188C582.51 188 604 209.49 604 236H572Z" fill="white"/>
<path d="M604 285C604 293.837 596.837 301 588 301C579.163 301 572 293.837 572 285H604ZM572 285V236H604V285H572ZM556 220H461V188H556V220ZM572 236C572 227.163 564.837 220 556 220V188C582.51 188 604 209.49 604 236H572Z" fill="url(#paint5_linear_171_2782)"/>
<g filter="url(#filter0_d_171_2782)">
<rect x="535" y="304" width="105.804" height="52" rx="26" fill="#677483"/>
<path d="M584.027 321.283L586.565 322.167C585.862 323.753 585.047 325.362 584.39 326.472L582.101 325.611C582.758 324.455 583.596 322.643 584.027 321.283ZM574.102 322.461L576.277 321.419C577.161 322.688 578.045 324.365 578.362 325.52L576.028 326.676C575.756 325.52 574.94 323.776 574.102 322.461ZM583.234 327.084H585.794V339.116C585.794 340.363 585.568 341.088 584.729 341.496C583.914 341.926 582.735 341.949 581.059 341.949C580.968 341.224 580.628 340.113 580.288 339.434C581.331 339.479 582.464 339.479 582.803 339.456C583.143 339.456 583.234 339.366 583.234 339.071V327.084ZM578.974 320.784H581.58V328.806H578.974V320.784ZM575.688 327.084H583.755V329.441H575.688V327.084ZM574.737 327.084H577.229V334.131C577.229 336.692 577.048 340.113 575.779 342.198C575.348 341.767 574.238 340.974 573.649 340.702C574.669 338.867 574.737 336.261 574.737 334.108V327.084ZM576.957 335.423C578.861 335.038 581.693 334.403 584.412 333.746L584.684 335.853C582.305 336.51 579.767 337.145 577.75 337.643L576.957 335.423ZM577.274 332.024L578.385 330.392C579.903 330.709 581.942 331.412 583.007 332.024L581.829 333.859C580.832 333.247 578.838 332.454 577.274 332.024ZM567.078 326.449H572.742V328.715H567.078V326.449ZM565.673 330.37H573.694V332.681H565.673V330.37ZM565.763 333.95L567.531 333.497C567.893 334.72 568.256 336.329 568.414 337.371L566.556 337.915C566.443 336.828 566.08 335.196 565.763 333.95ZM565.333 338.912C567.395 338.618 570.658 338.074 573.853 337.553L573.966 339.524C571.134 340.181 568.188 340.861 565.899 341.36L565.333 338.912ZM572.267 333.27L574.306 333.791C573.853 335.128 573.4 336.624 573.037 337.598L571.406 337.122C571.723 336.057 572.108 334.426 572.267 333.27ZM568.822 327.356H571.179V339.456L568.822 339.864V327.356ZM569.298 320.626L571.655 321.464C570.386 324.206 568.346 327.084 566.262 328.874C566.103 328.285 565.491 326.767 565.083 326.087C566.715 324.773 568.346 322.733 569.298 320.626ZM569.049 323.39L570.499 321.578C571.859 322.688 573.853 324.319 574.782 325.271L573.264 327.356C572.357 326.313 570.409 324.614 569.049 323.39ZM598.779 321.419L601.294 320.717C601.838 321.646 602.427 322.915 602.631 323.753L599.98 324.569C599.798 323.753 599.277 322.416 598.779 321.419ZM593.703 339.048H605.758V341.178H593.703V339.048ZM593.771 325.951H607.548V327.718H593.771V325.951ZM593.771 328.715H607.571V330.46H593.771V328.715ZM592.071 334.766H607.956V342.107H605.123V336.918H594.768V342.107H592.071V334.766ZM593.997 320.649L596.535 321.464C595.13 324.501 592.887 327.605 590.734 329.554C590.394 329.033 589.443 327.9 588.922 327.424C590.916 325.792 592.864 323.232 593.997 320.649ZM599.594 324.093H602.246V332.681H599.594V324.093ZM594.836 323.05H608.704V324.954H594.836V334.335H592.162V325.045L594.224 323.05H594.836ZM593.521 331.571H609.27V333.565H593.521V331.571Z" fill="white"/>
</g>
<g filter="url(#filter1_d_171_2782)">
<rect x="179" y="260" width="105.804" height="52" rx="26" fill="#677483"/>
<path d="M216.085 279.481H230.225V281.928H216.085V279.481ZM221.682 287.933H224.062V297.042H221.682V287.933ZM217.853 287.729H220.3V289.95C220.3 292.465 219.937 295.66 216.924 297.949C216.516 297.405 215.609 296.566 215.02 296.159C217.558 294.301 217.853 291.808 217.853 289.859V287.729ZM224.832 282.835L226.871 281.634C228.095 283.107 229.84 285.169 230.678 286.415L228.48 287.842C227.71 286.551 226.056 284.421 224.832 282.835ZM216.969 287.389L216.924 285.441L218.329 284.625L228.14 284.104C228.208 284.783 228.412 285.735 228.548 286.279C219.122 286.959 217.853 287.027 216.969 287.389ZM210.307 279.005L211.803 277.011C213.208 277.623 215.066 278.643 215.972 279.481L214.363 281.679C213.547 280.841 211.735 279.708 210.307 279.005ZM209.378 285.282L210.783 283.243C212.233 283.764 214.159 284.715 215.111 285.486L213.593 287.752C212.709 286.959 210.851 285.916 209.378 285.282ZM209.786 295.932C210.987 294.233 212.732 291.4 214.091 288.794L216.085 290.584C214.884 292.986 213.434 295.569 212.075 297.767L209.786 295.932ZM225.557 287.729H228.05V294.482C228.05 295.207 228.095 295.434 228.367 295.434C228.571 295.434 229.024 295.434 229.251 295.434C229.568 295.434 230.044 295.411 230.338 295.298C230.384 295.932 230.429 296.816 230.52 297.382C230.202 297.518 229.727 297.518 229.273 297.518C228.979 297.518 228.412 297.518 228.118 297.518C225.965 297.518 225.557 296.612 225.557 294.436V287.729ZM216.969 287.389C216.833 286.868 216.403 285.576 216.108 284.874C216.674 284.738 217.173 284.262 217.853 283.469C218.601 282.676 220.799 279.64 222.203 276.671L224.855 277.691C223.087 280.818 220.753 283.877 218.623 286.007V286.075C218.623 286.075 216.969 286.913 216.969 287.389ZM238.994 280.909V281.679H248.421V280.909H238.994ZM238.994 278.847V279.594H248.421V278.847H238.994ZM236.366 277.464H251.163V283.061H236.366V277.464ZM238.519 289.95V290.766H249.033V289.95H238.519ZM238.519 287.82V288.613H249.033V287.82H238.519ZM235.958 286.37H251.707V292.193H235.958V286.37ZM242.439 286.845H245.09V296.566H242.439V286.845ZM233.488 283.764H254.131V285.69H233.488V283.764ZM235.505 292.941H252.137V294.686H235.505V292.941ZM233.443 295.501H254.176V297.496H233.443V295.501Z" fill="white"/>
</g>
<g filter="url(#filter2_d_171_2782)">
<rect x="371" y="179" width="105.804" height="52" rx="26" fill="#677483"/>
<path d="M409.309 213.686H419.461V216.156H409.309V213.686ZM408.176 197.982H416.198V200.384H408.176V197.982ZM408.765 195.626L411.824 196.238C409.898 199.546 407.179 202.582 403.1 205.03C402.715 204.35 401.809 203.353 401.197 202.877C404.936 200.906 407.451 198.141 408.765 195.626ZM415.336 197.982H415.858L416.311 197.847L418.192 198.844C415.54 205.891 409.49 210.513 402.738 212.779C402.398 212.032 401.718 210.921 401.151 210.355C407.406 208.542 413.252 204.146 415.336 198.436V197.982ZM405.208 202.968L407.224 201.2C408.788 202.311 410.85 203.919 411.847 205.098L409.649 207.069C408.788 205.891 406.771 204.146 405.208 202.968ZM418.192 206.774H421.024V217.062H418.192V206.774ZM410.465 206.774H419.551V209.244H410.465V217.017H407.745V208.791L409.807 206.774H410.465ZM434.28 203.33H437.113V217.039H434.28V203.33ZM430.473 207.341V208.565H441.191V207.341H430.473ZM430.473 204.191V205.392H441.191V204.191H430.473ZM427.799 202.107H443.978V210.649H427.799V202.107ZM425.669 211.828H445.972V214.162H425.669V211.828ZM429.408 198.277V199.591H432.603V198.277H429.408ZM426.984 196.646H435.141V201.2H426.984V196.646ZM438.903 198.277V199.591H442.166V198.277H438.903ZM436.501 196.646H444.704V201.2H436.501V196.646Z" fill="white"/>
</g>
<g filter="url(#filter3_d_171_2782)">
<rect x="574" y="270" width="28" height="28" rx="14" fill="white"/>
<path d="M582.942 291.5V289.82C586.982 286.2 589.342 283.42 589.342 281.14C589.342 279.66 588.562 278.74 587.142 278.74C586.042 278.74 585.182 279.44 584.422 280.28L582.802 278.68C584.162 277.22 585.502 276.44 587.522 276.44C590.302 276.44 592.182 278.22 592.182 280.98C592.182 283.68 589.942 286.56 587.242 289.2C587.982 289.12 588.962 289.02 589.662 289.02H592.862V291.5H582.942Z" fill="#353535"/>
</g>
<g filter="url(#filter4_d_171_2782)">
<rect x="330.319" y="190" width="28" height="28" rx="14" fill="white"/>
<path d="M340.041 211.5V209.12H343.241V199.76H340.541V197.94C342.041 197.66 343.041 197.28 344.001 196.7H346.181V209.12H348.961V211.5H340.041Z" fill="#353535"/>
</g>
<g filter="url(#filter5_d_171_2782)">
<rect x="219.816" y="318" width="28" height="28" rx="14" fill="white"/>
<path d="M233.378 339.78C231.038 339.78 229.458 338.92 228.418 337.72L229.818 335.86C230.698 336.72 231.758 337.4 233.098 337.4C234.618 337.4 235.638 336.64 235.638 335.32C235.638 333.86 234.778 332.96 231.558 332.96V330.84C234.278 330.84 235.158 329.92 235.158 328.6C235.158 327.44 234.438 326.74 233.178 326.74C232.118 326.74 231.258 327.24 230.378 328.06L228.878 326.24C230.158 325.14 231.578 324.44 233.298 324.44C236.158 324.44 238.098 325.84 238.098 328.38C238.098 329.96 237.218 331.14 235.638 331.74V331.84C237.318 332.32 238.598 333.54 238.598 335.5C238.598 338.22 236.218 339.78 233.378 339.78Z" fill="#353535"/>
</g>
<g filter="url(#filter6_dd_171_2782)">
<rect x="181" y="71" width="260" height="68" rx="34" fill="#8B6CD9"/>
<rect x="213" y="91" width="28" height="28" rx="14" fill="white"/>
<path d="M223.577 111V109.096H226.137V101.608H223.977V100.152C225.177 99.928 225.977 99.624 226.745 99.16H228.489V109.096H230.713V111H223.577Z" fill="#353535"/>
<path d="M252.963 113V98.18H262.043V100.66H255.923V104.08H261.103V106.56H255.923V110.52H262.263V113H252.963ZM265.427 108.34V106.22H270.887V108.34H265.427ZM274.43 113V101.8H276.83L277.05 103.3H277.11C277.576 102.82 278.083 102.407 278.63 102.06C279.176 101.7 279.816 101.52 280.55 101.52C281.35 101.52 281.99 101.693 282.47 102.04C282.963 102.373 283.343 102.853 283.61 103.48C284.143 102.933 284.69 102.473 285.25 102.1C285.823 101.713 286.47 101.52 287.19 101.52C288.39 101.52 289.263 101.92 289.81 102.72C290.37 103.507 290.65 104.607 290.65 106.02V113H287.73V106.38C287.73 105.513 287.603 104.907 287.35 104.56C287.096 104.213 286.703 104.04 286.17 104.04C285.85 104.04 285.51 104.147 285.15 104.36C284.803 104.56 284.423 104.873 284.01 105.3V113H281.07V106.38C281.07 105.513 280.943 104.907 280.69 104.56C280.436 104.213 280.043 104.04 279.51 104.04C279.203 104.04 278.863 104.147 278.49 104.36C278.13 104.56 277.756 104.873 277.37 105.3V113H274.43ZM297.447 113.28C296.794 113.28 296.214 113.14 295.707 112.86C295.214 112.567 294.827 112.167 294.547 111.66C294.28 111.153 294.147 110.58 294.147 109.94C294.147 108.753 294.66 107.833 295.687 107.18C296.714 106.513 298.347 106.06 300.587 105.82C300.574 105.447 300.507 105.12 300.387 104.84C300.267 104.547 300.067 104.313 299.787 104.14C299.52 103.967 299.154 103.88 298.687 103.88C298.167 103.88 297.654 103.98 297.147 104.18C296.64 104.38 296.127 104.64 295.607 104.96L294.567 103C295.007 102.72 295.474 102.473 295.967 102.26C296.46 102.047 296.98 101.873 297.527 101.74C298.074 101.593 298.64 101.52 299.227 101.52C300.174 101.52 300.967 101.707 301.607 102.08C302.247 102.453 302.727 103.007 303.047 103.74C303.367 104.473 303.527 105.38 303.527 106.46V113H301.127L300.927 111.8H300.827C300.347 112.227 299.827 112.58 299.267 112.86C298.707 113.14 298.1 113.28 297.447 113.28ZM298.427 110.98C298.84 110.98 299.214 110.887 299.547 110.7C299.894 110.5 300.24 110.227 300.587 109.88V107.64C299.68 107.747 298.96 107.9 298.427 108.1C297.894 108.3 297.514 108.54 297.287 108.82C297.06 109.087 296.947 109.387 296.947 109.72C296.947 110.16 297.08 110.48 297.347 110.68C297.627 110.88 297.987 110.98 298.427 110.98ZM307.523 113V101.8H310.463V113H307.523ZM309.003 99.98C308.483 99.98 308.07 99.84 307.763 99.56C307.457 99.2667 307.303 98.8733 307.303 98.38C307.303 97.9 307.457 97.5133 307.763 97.22C308.07 96.9267 308.483 96.78 309.003 96.78C309.497 96.78 309.903 96.9267 310.223 97.22C310.543 97.5133 310.703 97.9 310.703 98.38C310.703 98.8733 310.543 99.2667 310.223 99.56C309.903 99.84 309.497 99.98 309.003 99.98ZM317.378 113.28C316.684 113.28 316.138 113.14 315.738 112.86C315.338 112.567 315.044 112.167 314.858 111.66C314.684 111.14 314.598 110.54 314.598 109.86V97.04H317.538V109.98C317.538 110.313 317.598 110.547 317.718 110.68C317.851 110.813 317.984 110.88 318.118 110.88C318.184 110.88 318.244 110.88 318.298 110.88C318.351 110.867 318.424 110.853 318.518 110.84L318.878 113.02C318.704 113.087 318.491 113.147 318.238 113.2C317.998 113.253 317.711 113.28 317.378 113.28ZM335.437 107.72H337.717V111.78C337.717 112.1 337.791 112.307 337.937 112.4C338.084 112.48 338.424 112.52 338.957 112.52C339.077 112.52 339.277 112.52 339.557 112.52C339.837 112.52 340.144 112.52 340.477 112.52C340.811 112.52 341.124 112.52 341.417 112.52C341.724 112.52 341.957 112.52 342.117 112.52C342.437 112.52 342.677 112.453 342.837 112.32C342.997 112.187 343.111 111.913 343.177 111.5C343.244 111.087 343.297 110.467 343.337 109.64C343.591 109.813 343.917 109.98 344.317 110.14C344.717 110.3 345.071 110.42 345.377 110.5C345.297 111.553 345.151 112.373 344.937 112.96C344.737 113.533 344.424 113.927 343.997 114.14C343.584 114.367 343.011 114.48 342.277 114.48C342.171 114.48 341.991 114.48 341.737 114.48C341.497 114.48 341.224 114.48 340.917 114.48C340.624 114.48 340.324 114.48 340.017 114.48C339.724 114.48 339.457 114.48 339.217 114.48C338.977 114.48 338.811 114.48 338.717 114.48C337.851 114.48 337.177 114.4 336.697 114.24C336.231 114.08 335.904 113.807 335.717 113.42C335.531 113.033 335.437 112.493 335.437 111.8V107.72ZM340.777 109.6L342.037 109.18C342.251 109.567 342.464 110 342.677 110.48C342.904 110.947 343.071 111.333 343.177 111.64L341.857 112.16C341.751 111.827 341.591 111.42 341.377 110.94C341.177 110.447 340.977 110 340.777 109.6ZM334.697 99.32L337.217 99.66C336.991 100.087 336.764 100.493 336.537 100.88C336.311 101.253 336.104 101.58 335.917 101.86L334.017 101.44C334.151 101.12 334.277 100.767 334.397 100.38C334.531 99.98 334.631 99.6267 334.697 99.32ZM330.877 105.34V106.46H340.797V105.34H330.877ZM330.877 102.66V103.76H340.797V102.66H330.877ZM328.537 100.98H343.237V108.14H328.537V100.98ZM331.157 96H333.497V100.18H331.157V96ZM338.077 96H340.417V100.18H338.077V96ZM338.397 112.12C338.344 111.987 338.257 111.787 338.137 111.52C338.017 111.24 337.911 111.013 337.817 110.84C337.924 110.813 338.024 110.76 338.117 110.68C338.224 110.587 338.317 110.48 338.397 110.36C338.451 110.28 338.531 110.127 338.637 109.9C338.757 109.673 338.877 109.413 338.997 109.12C339.117 108.827 339.204 108.527 339.257 108.22L340.977 108.62C340.777 109.127 340.517 109.633 340.197 110.14C339.877 110.633 339.571 111.047 339.277 111.38V111.42C339.277 111.42 339.204 111.46 339.057 111.54C338.911 111.62 338.764 111.713 338.617 111.82C338.471 111.927 338.397 112.027 338.397 112.12ZM338.397 112.12L338.357 111.12L339.077 110.74L341.837 110.56C341.864 110.733 341.911 110.927 341.977 111.14C342.044 111.34 342.097 111.52 342.137 111.68C341.431 111.733 340.844 111.787 340.377 111.84C339.924 111.88 339.564 111.913 339.297 111.94C339.044 111.967 338.844 112 338.697 112.04C338.564 112.067 338.464 112.093 338.397 112.12ZM326.977 97.02H335.597V99.04H326.977V97.02ZM336.217 97.04H344.777V99.06H336.217V97.04ZM332.277 107.66H334.677C334.584 108.593 334.431 109.447 334.217 110.22C334.004 110.98 333.651 111.66 333.157 112.26C332.664 112.847 331.984 113.36 331.117 113.8C330.251 114.253 329.117 114.627 327.717 114.92C327.651 114.72 327.544 114.487 327.397 114.22C327.264 113.967 327.111 113.713 326.937 113.46C326.764 113.22 326.604 113.02 326.457 112.86C327.684 112.66 328.664 112.407 329.397 112.1C330.131 111.793 330.691 111.427 331.077 111C331.477 110.573 331.757 110.087 331.917 109.54C332.091 108.993 332.211 108.367 332.277 107.66ZM334.517 102.14H336.937V107.28H334.517V102.14ZM347.817 108.46H365.897V110.36H347.817V108.46ZM351.877 100.62H363.997V102.18H351.877V100.62ZM351.877 102.98H364.037V104.56H351.877V102.98ZM356.477 99.16H358.777V106.18H356.477V99.16ZM355.617 107.42H357.997V114.76H355.617V107.42ZM352.037 95.96L354.477 96.44C353.811 97.5867 353.024 98.72 352.117 99.84C351.224 100.947 350.171 101.98 348.957 102.94C348.837 102.767 348.677 102.58 348.477 102.38C348.277 102.18 348.071 101.987 347.857 101.8C347.644 101.613 347.451 101.467 347.277 101.36C348.024 100.827 348.697 100.26 349.297 99.66C349.897 99.0467 350.431 98.4267 350.897 97.8C351.364 97.16 351.744 96.5467 352.037 95.96ZM355.977 96.5L358.237 95.88C358.451 96.2667 358.664 96.7 358.877 97.18C359.091 97.6467 359.244 98.0533 359.337 98.4L356.937 99.12C356.871 98.7733 356.744 98.3533 356.557 97.86C356.371 97.3667 356.177 96.9133 355.977 96.5ZM350.837 105.4H365.377V107.24H350.837V105.4ZM352.417 97.94H364.897V99.78H352.417V107.78H350.037V99.16L351.297 97.94H352.417ZM353.177 110.74L354.957 111.56C354.491 111.947 353.924 112.32 353.257 112.68C352.604 113.027 351.904 113.333 351.157 113.6C350.411 113.88 349.684 114.1 348.977 114.26C348.804 113.98 348.571 113.66 348.277 113.3C347.997 112.94 347.737 112.647 347.497 112.42C348.191 112.327 348.891 112.2 349.597 112.04C350.317 111.867 350.991 111.673 351.617 111.46C352.244 111.233 352.764 110.993 353.177 110.74ZM358.717 111.94L360.117 110.56C360.717 110.747 361.377 110.973 362.097 111.24C362.817 111.493 363.517 111.753 364.197 112.02C364.891 112.273 365.464 112.507 365.917 112.72L364.437 114.3C364.011 114.087 363.464 113.84 362.797 113.56C362.144 113.28 361.451 113 360.717 112.72C359.997 112.427 359.331 112.167 358.717 111.94ZM374.957 108.62H386.917V110.6H374.957V108.62ZM378.197 104.92V105.8H383.717V104.92H378.197ZM378.197 102.5V103.36H383.717V102.5H378.197ZM375.977 100.82H386.037V107.46H375.977V100.82ZM379.837 107.24H382.217C382.124 108.187 381.971 109.06 381.757 109.86C381.544 110.647 381.204 111.353 380.737 111.98C380.284 112.607 379.637 113.153 378.797 113.62C377.971 114.1 376.884 114.5 375.537 114.82C375.431 114.527 375.251 114.187 374.997 113.8C374.757 113.413 374.531 113.107 374.317 112.88C375.477 112.64 376.404 112.353 377.097 112.02C377.804 111.687 378.344 111.287 378.717 110.82C379.091 110.34 379.357 109.807 379.517 109.22C379.677 108.62 379.784 107.96 379.837 107.24ZM375.177 97.42H380.737V99.36H375.177V97.42ZM377.177 96H379.297V100.44H377.177V96ZM382.577 96H384.697V100.44H382.577V96ZM381.177 97.42H387.057V99.36H381.177V97.42ZM380.897 111.9L382.357 110.42C382.877 110.66 383.457 110.94 384.097 111.26C384.737 111.567 385.357 111.88 385.957 112.2C386.557 112.507 387.057 112.787 387.457 113.04L385.937 114.72C385.564 114.467 385.084 114.173 384.497 113.84C383.924 113.507 383.317 113.167 382.677 112.82C382.037 112.473 381.444 112.167 380.897 111.9ZM368.797 99.74H375.317V101.96H368.797V99.74ZM371.097 96H373.257V114.78H371.097V96ZM371.117 101.38L372.357 101.96C372.211 102.72 372.037 103.52 371.837 104.36C371.651 105.2 371.431 106.033 371.177 106.86C370.924 107.673 370.651 108.44 370.357 109.16C370.064 109.867 369.757 110.487 369.437 111.02C369.371 110.767 369.271 110.493 369.137 110.2C369.004 109.907 368.864 109.613 368.717 109.32C368.571 109.027 368.437 108.773 368.317 108.56C368.611 108.133 368.897 107.633 369.177 107.06C369.471 106.487 369.737 105.873 369.977 105.22C370.231 104.567 370.451 103.913 370.637 103.26C370.837 102.593 370.997 101.967 371.117 101.38ZM373.157 102.18C373.277 102.327 373.457 102.593 373.697 102.98C373.937 103.353 374.191 103.767 374.457 104.22C374.737 104.66 374.984 105.073 375.197 105.46C375.424 105.847 375.584 106.12 375.677 106.28L374.257 107.92C374.151 107.587 374.004 107.2 373.817 106.76C373.631 106.32 373.431 105.867 373.217 105.4C373.004 104.92 372.797 104.473 372.597 104.06C372.397 103.647 372.224 103.307 372.077 103.04L373.157 102.18ZM399.017 97.18H407.877V99.42H399.017V97.18ZM399.017 102.26H405.877V104.44H399.017V102.26ZM397.777 97.18H400.097V102.88C400.097 103.76 400.064 104.72 399.997 105.76C399.931 106.787 399.797 107.84 399.597 108.92C399.397 110 399.104 111.047 398.717 112.06C398.344 113.06 397.851 113.967 397.237 114.78C397.104 114.633 396.917 114.467 396.677 114.28C396.451 114.093 396.211 113.907 395.957 113.72C395.704 113.547 395.491 113.42 395.317 113.34C395.891 112.593 396.337 111.78 396.657 110.9C396.991 110.02 397.237 109.113 397.397 108.18C397.557 107.233 397.657 106.307 397.697 105.4C397.751 104.493 397.777 103.653 397.777 102.88V97.18ZM401.457 103.86C401.817 105.207 402.311 106.473 402.937 107.66C403.564 108.833 404.331 109.867 405.237 110.76C406.157 111.653 407.231 112.353 408.457 112.86C408.271 113.02 408.077 113.213 407.877 113.44C407.677 113.68 407.484 113.927 407.297 114.18C407.111 114.433 406.957 114.667 406.837 114.88C405.544 114.24 404.424 113.407 403.477 112.38C402.531 111.34 401.731 110.14 401.077 108.78C400.424 107.42 399.877 105.927 399.437 104.3L401.457 103.86ZM405.437 102.26H405.857L406.257 102.18L407.757 102.64C407.437 104.693 406.931 106.5 406.237 108.06C405.557 109.62 404.711 110.953 403.697 112.06C402.684 113.167 401.517 114.08 400.197 114.8C400.104 114.613 399.971 114.4 399.797 114.16C399.637 113.92 399.464 113.687 399.277 113.46C399.104 113.233 398.931 113.053 398.757 112.92C399.904 112.387 400.931 111.627 401.837 110.64C402.757 109.653 403.524 108.487 404.137 107.14C404.751 105.78 405.184 104.293 405.437 102.68V102.26ZM389.757 100.14H396.897V102.36H389.757V100.14ZM392.397 96H394.657V114.78H392.397V96ZM392.317 101.68L393.717 102.16C393.571 102.96 393.384 103.787 393.157 104.64C392.931 105.493 392.671 106.333 392.377 107.16C392.097 107.987 391.784 108.76 391.437 109.48C391.104 110.187 390.751 110.8 390.377 111.32C390.257 110.987 390.084 110.607 389.857 110.18C389.631 109.753 389.424 109.393 389.237 109.1C389.584 108.66 389.911 108.147 390.217 107.56C390.537 106.973 390.831 106.353 391.097 105.7C391.377 105.033 391.617 104.36 391.817 103.68C392.017 102.987 392.184 102.32 392.317 101.68ZM394.577 103.34C394.697 103.473 394.884 103.713 395.137 104.06C395.404 104.407 395.684 104.78 395.977 105.18C396.284 105.58 396.557 105.947 396.797 106.28C397.037 106.613 397.204 106.853 397.297 107L395.957 108.86C395.824 108.553 395.651 108.193 395.437 107.78C395.237 107.367 395.017 106.953 394.777 106.54C394.537 106.113 394.304 105.713 394.077 105.34C393.851 104.953 393.664 104.633 393.517 104.38L394.577 103.34Z" fill="white"/>
</g>
<g filter="url(#filter7_d_171_2782)">
<rect x="535" y="394" width="218" height="68" rx="34" fill="#8B6CD9"/>
<rect x="567" y="414" width="28" height="28" rx="14" fill="white"/>
<path d="M576.953 434V432.656C580.185 429.76 582.073 427.536 582.073 425.712C582.073 424.528 581.449 423.792 580.313 423.792C579.433 423.792 578.745 424.352 578.137 425.024L576.841 423.744C577.929 422.576 579.001 421.952 580.617 421.952C582.841 421.952 584.345 423.376 584.345 425.584C584.345 427.744 582.553 430.048 580.393 432.16C580.985 432.096 581.769 432.016 582.329 432.016H584.889V434H576.953Z" fill="#353535"/>
<path d="M614.083 420.14H623.843V422.44H614.083V420.14ZM619.143 426.38H621.603V435.02C621.603 435.647 621.523 436.14 621.363 436.5C621.216 436.873 620.923 437.153 620.483 437.34C620.043 437.513 619.503 437.62 618.863 437.66C618.223 437.713 617.456 437.74 616.563 437.74C616.509 437.393 616.409 436.98 616.263 436.5C616.129 436.033 615.983 435.633 615.823 435.3C616.209 435.313 616.596 435.327 616.983 435.34C617.369 435.353 617.716 435.36 618.023 435.36C618.329 435.347 618.543 435.34 618.663 435.34C618.849 435.34 618.976 435.313 619.043 435.26C619.109 435.193 619.143 435.093 619.143 434.96V426.38ZM613.223 425.7H624.363V427.98H613.223V425.7ZM608.723 428.06L610.823 425.94L611.123 426.06V437.82H608.723V428.06ZM610.983 423.36L613.263 424.24C612.743 425.12 612.136 426.007 611.443 426.9C610.763 427.78 610.043 428.613 609.283 429.4C608.536 430.187 607.803 430.873 607.083 431.46C606.976 431.287 606.823 431.073 606.623 430.82C606.423 430.553 606.216 430.287 606.003 430.02C605.803 429.753 605.616 429.54 605.443 429.38C606.136 428.9 606.823 428.34 607.503 427.7C608.183 427.047 608.823 426.353 609.423 425.62C610.023 424.873 610.543 424.12 610.983 423.36ZM610.223 419L612.543 419.96C612.049 420.587 611.496 421.227 610.883 421.88C610.269 422.52 609.629 423.133 608.963 423.72C608.296 424.307 607.643 424.82 607.003 425.26C606.909 425.073 606.783 424.86 606.623 424.62C606.463 424.367 606.296 424.12 606.123 423.88C605.963 423.64 605.809 423.44 605.663 423.28C606.223 422.933 606.789 422.513 607.363 422.02C607.936 421.527 608.476 421.02 608.983 420.5C609.489 419.967 609.903 419.467 610.223 419ZM643.223 419.46L645.463 420.26C645.156 420.953 644.836 421.64 644.503 422.32C644.169 422.987 643.849 423.56 643.543 424.04L641.543 423.3C641.743 422.953 641.943 422.56 642.143 422.12C642.356 421.68 642.556 421.227 642.743 420.76C642.943 420.293 643.103 419.86 643.223 419.46ZM634.463 420.5L636.383 419.58C636.649 419.953 636.909 420.36 637.163 420.8C637.416 421.227 637.636 421.647 637.823 422.06C638.009 422.473 638.149 422.853 638.243 423.2L636.183 424.22C636.103 423.887 635.969 423.507 635.783 423.08C635.609 422.64 635.409 422.2 635.183 421.76C634.956 421.307 634.716 420.887 634.463 420.5ZM642.543 424.6H644.803V435.22C644.803 435.753 644.736 436.187 644.603 436.52C644.469 436.867 644.216 437.133 643.843 437.32C643.483 437.493 643.036 437.6 642.503 437.64C641.983 437.68 641.349 437.7 640.603 437.7C640.563 437.38 640.476 437.007 640.343 436.58C640.223 436.153 640.089 435.787 639.943 435.48C640.396 435.507 640.836 435.527 641.263 435.54C641.703 435.54 642.003 435.533 642.163 435.52C642.309 435.52 642.409 435.493 642.463 435.44C642.516 435.387 642.543 435.293 642.543 435.16V424.6ZM638.763 419.02H641.063V426.12H638.763V419.02ZM635.883 424.6H643.003V426.68H635.883V424.6ZM635.023 424.6H637.243V430.8C637.243 431.547 637.209 432.36 637.143 433.24C637.089 434.107 636.969 434.953 636.783 435.78C636.609 436.593 636.336 437.313 635.963 437.94C635.829 437.807 635.643 437.653 635.403 437.48C635.176 437.307 634.943 437.133 634.703 436.96C634.463 436.8 634.256 436.68 634.083 436.6C634.389 436.067 634.609 435.473 634.743 434.82C634.876 434.153 634.956 433.473 634.983 432.78C635.009 432.087 635.023 431.42 635.023 430.78V424.6ZM636.983 431.94C637.543 431.833 638.183 431.7 638.903 431.54C639.623 431.38 640.376 431.213 641.163 431.04C641.963 430.853 642.763 430.667 643.563 430.48L643.823 432.32C642.769 432.613 641.709 432.9 640.643 433.18C639.576 433.447 638.596 433.687 637.703 433.9L636.983 431.94ZM637.263 428.94L638.243 427.5C638.709 427.593 639.196 427.72 639.703 427.88C640.209 428.04 640.696 428.213 641.163 428.4C641.643 428.587 642.036 428.767 642.343 428.94L641.303 430.56C641.009 430.373 640.636 430.18 640.183 429.98C639.729 429.78 639.243 429.587 638.723 429.4C638.216 429.213 637.729 429.06 637.263 428.94ZM628.263 424.02H633.263V426.02H628.263V424.02ZM627.043 427.48H634.103V429.52H627.043V427.48ZM627.123 430.64L628.683 430.24C628.829 430.787 628.976 431.38 629.123 432.02C629.283 432.66 629.396 433.213 629.463 433.68L627.803 434.14C627.749 433.66 627.656 433.1 627.523 432.46C627.403 431.807 627.269 431.2 627.123 430.64ZM626.743 435.02C627.343 434.94 628.049 434.84 628.863 434.72C629.676 434.587 630.543 434.447 631.463 434.3C632.383 434.14 633.309 433.98 634.243 433.82L634.363 435.58C633.109 435.86 631.856 436.14 630.603 436.42C629.363 436.713 628.243 436.973 627.243 437.2L626.743 435.02ZM632.843 430.06L634.643 430.5C634.443 431.087 634.243 431.687 634.043 432.3C633.856 432.913 633.683 433.433 633.523 433.86L632.103 433.44C632.196 433.12 632.289 432.767 632.383 432.38C632.476 431.98 632.563 431.58 632.643 431.18C632.736 430.767 632.803 430.393 632.843 430.06ZM629.823 424.84H631.903V435.5L629.823 435.88V424.84ZM630.223 418.88L632.303 419.62C631.943 420.433 631.509 421.24 631.003 422.04C630.496 422.84 629.949 423.6 629.363 424.32C628.776 425.027 628.176 425.647 627.563 426.18C627.509 425.993 627.423 425.747 627.303 425.44C627.183 425.133 627.049 424.82 626.903 424.5C626.756 424.18 626.629 423.92 626.523 423.72C627.243 423.133 627.929 422.413 628.583 421.56C629.249 420.707 629.796 419.813 630.223 418.88ZM630.023 421.32L631.303 419.72C631.689 420.053 632.123 420.42 632.603 420.82C633.096 421.22 633.563 421.613 634.003 422C634.443 422.373 634.803 422.7 635.083 422.98L633.743 424.84C633.476 424.52 633.123 424.16 632.683 423.76C632.256 423.347 631.803 422.927 631.323 422.5C630.856 422.073 630.423 421.68 630.023 421.32ZM654.494 436V421.18H663.574V423.66H657.454V427.08H662.634V429.56H657.454V433.52H663.794V436H654.494ZM666.959 431.34V429.22H672.419V431.34H666.959ZM675.961 436V424.8H678.361L678.581 426.3H678.641C679.108 425.82 679.614 425.407 680.161 425.06C680.708 424.7 681.348 424.52 682.081 424.52C682.881 424.52 683.521 424.693 684.001 425.04C684.494 425.373 684.874 425.853 685.141 426.48C685.674 425.933 686.221 425.473 686.781 425.1C687.354 424.713 688.001 424.52 688.721 424.52C689.921 424.52 690.794 424.92 691.341 425.72C691.901 426.507 692.181 427.607 692.181 429.02V436H689.261V429.38C689.261 428.513 689.134 427.907 688.881 427.56C688.628 427.213 688.234 427.04 687.701 427.04C687.381 427.04 687.041 427.147 686.681 427.36C686.334 427.56 685.954 427.873 685.541 428.3V436H682.601V429.38C682.601 428.513 682.474 427.907 682.221 427.56C681.968 427.213 681.574 427.04 681.041 427.04C680.734 427.04 680.394 427.147 680.021 427.36C679.661 427.56 679.288 427.873 678.901 428.3V436H675.961ZM698.978 436.28C698.325 436.28 697.745 436.14 697.238 435.86C696.745 435.567 696.358 435.167 696.078 434.66C695.812 434.153 695.678 433.58 695.678 432.94C695.678 431.753 696.192 430.833 697.218 430.18C698.245 429.513 699.878 429.06 702.118 428.82C702.105 428.447 702.038 428.12 701.918 427.84C701.798 427.547 701.598 427.313 701.318 427.14C701.052 426.967 700.685 426.88 700.218 426.88C699.698 426.88 699.185 426.98 698.678 427.18C698.172 427.38 697.658 427.64 697.138 427.96L696.098 426C696.538 425.72 697.005 425.473 697.498 425.26C697.992 425.047 698.512 424.873 699.058 424.74C699.605 424.593 700.172 424.52 700.758 424.52C701.705 424.52 702.498 424.707 703.138 425.08C703.778 425.453 704.258 426.007 704.578 426.74C704.898 427.473 705.058 428.38 705.058 429.46V436H702.658L702.458 434.8H702.358C701.878 435.227 701.358 435.58 700.798 435.86C700.238 436.14 699.632 436.28 698.978 436.28ZM699.958 433.98C700.372 433.98 700.745 433.887 701.078 433.7C701.425 433.5 701.772 433.227 702.118 432.88V430.64C701.212 430.747 700.492 430.9 699.958 431.1C699.425 431.3 699.045 431.54 698.818 431.82C698.592 432.087 698.478 432.387 698.478 432.72C698.478 433.16 698.612 433.48 698.878 433.68C699.158 433.88 699.518 433.98 699.958 433.98ZM709.055 436V424.8H711.995V436H709.055ZM710.535 422.98C710.015 422.98 709.601 422.84 709.295 422.56C708.988 422.267 708.835 421.873 708.835 421.38C708.835 420.9 708.988 420.513 709.295 420.22C709.601 419.927 710.015 419.78 710.535 419.78C711.028 419.78 711.435 419.927 711.755 420.22C712.075 420.513 712.235 420.9 712.235 421.38C712.235 421.873 712.075 422.267 711.755 422.56C711.435 422.84 711.028 422.98 710.535 422.98ZM718.909 436.28C718.215 436.28 717.669 436.14 717.269 435.86C716.869 435.567 716.575 435.167 716.389 434.66C716.215 434.14 716.129 433.54 716.129 432.86V420.04H719.069V432.98C719.069 433.313 719.129 433.547 719.249 433.68C719.382 433.813 719.515 433.88 719.649 433.88C719.715 433.88 719.775 433.88 719.829 433.88C719.882 433.867 719.955 433.853 720.049 433.84L720.409 436.02C720.235 436.087 720.022 436.147 719.769 436.2C719.529 436.253 719.242 436.28 718.909 436.28Z" fill="white"/>
</g>
<g filter="url(#filter8_d_171_2782)">
<rect x="84" y="394" width="248" height="68" rx="34" fill="#8B6CD9"/>
<rect x="116" y="414" width="28" height="28" rx="14" fill="white"/>
<path d="M129.649 434.224C127.777 434.224 126.513 433.536 125.681 432.576L126.801 431.088C127.505 431.776 128.353 432.32 129.425 432.32C130.641 432.32 131.457 431.712 131.457 430.656C131.457 429.488 130.769 428.768 128.193 428.768V427.072C130.369 427.072 131.073 426.336 131.073 425.28C131.073 424.352 130.497 423.792 129.489 423.792C128.641 423.792 127.953 424.192 127.249 424.848L126.049 423.392C127.073 422.512 128.209 421.952 129.585 421.952C131.873 421.952 133.425 423.072 133.425 425.104C133.425 426.368 132.721 427.312 131.457 427.792V427.872C132.801 428.256 133.825 429.232 133.825 430.8C133.825 432.976 131.921 434.224 129.649 434.224Z" fill="#353535"/>
<path d="M166.74 421.08H169V432.3H166.74V421.08ZM170.38 419.06H172.68V434.9C172.68 435.54 172.607 436.04 172.46 436.4C172.327 436.76 172.08 437.033 171.72 437.22C171.347 437.42 170.873 437.547 170.3 437.6C169.74 437.667 169.053 437.7 168.24 437.7C168.2 437.367 168.107 436.967 167.96 436.5C167.827 436.033 167.68 435.633 167.52 435.3C168.04 435.313 168.527 435.32 168.98 435.32C169.447 435.32 169.76 435.32 169.92 435.32C170.093 435.32 170.213 435.293 170.28 435.24C170.347 435.173 170.38 435.053 170.38 434.88V419.06ZM157.58 427.76H164.26V429.18H157.58V427.76ZM158.76 435.32H164.38V437.08H158.76V435.32ZM156.2 425.3H158.42V427.64C158.42 428.307 158.393 429.047 158.34 429.86C158.3 430.66 158.207 431.487 158.06 432.34C157.927 433.193 157.733 434.027 157.48 434.84C157.24 435.64 156.927 436.38 156.54 437.06C156.38 436.967 156.173 436.86 155.92 436.74C155.68 436.62 155.42 436.5 155.14 436.38C154.873 436.273 154.64 436.193 154.44 436.14C154.84 435.5 155.153 434.813 155.38 434.08C155.62 433.333 155.793 432.58 155.9 431.82C156.02 431.047 156.1 430.3 156.14 429.58C156.18 428.86 156.2 428.207 156.2 427.62V425.3ZM157.54 425.3H165.16V431.66H157.52V430H162.98V426.96H157.54V425.3ZM157.84 432.26H165.64V437.62H163.54V433.9H159.84V437.7H157.84V432.26ZM160.46 418.98L162.66 419.84C162.127 420.667 161.487 421.453 160.74 422.2C159.993 422.933 159.187 423.613 158.32 424.24C157.467 424.853 156.607 425.38 155.74 425.82C155.673 425.633 155.567 425.4 155.42 425.12C155.273 424.827 155.113 424.533 154.94 424.24C154.767 423.947 154.613 423.713 154.48 423.54C155.267 423.207 156.033 422.813 156.78 422.36C157.54 421.893 158.233 421.373 158.86 420.8C159.5 420.227 160.033 419.62 160.46 418.98ZM159.76 421.34L160.94 419.58C161.34 419.807 161.793 420.067 162.3 420.36C162.807 420.653 163.313 420.947 163.82 421.24C164.327 421.533 164.8 421.82 165.24 422.1C165.68 422.367 166.053 422.62 166.36 422.86L165.14 424.88C164.74 424.56 164.227 424.193 163.6 423.78C162.973 423.367 162.32 422.947 161.64 422.52C160.96 422.08 160.333 421.687 159.76 421.34ZM158.82 423.24H162.94V424.66H158.82V423.24ZM184.86 422.28H194.44V424.56H183.72L184.86 422.28ZM187.48 426.66H193.94V428.86H187.48V426.66ZM187.46 431.1H194.2V433.34H187.46V431.1ZM186.26 423.04H188.74V437.78H186.26V423.04ZM185.32 419.2L187.62 419.8C187.247 420.88 186.807 421.953 186.3 423.02C185.807 424.087 185.267 425.087 184.68 426.02C184.093 426.94 183.493 427.753 182.88 428.46C182.76 428.3 182.587 428.113 182.36 427.9C182.133 427.687 181.9 427.48 181.66 427.28C181.433 427.067 181.227 426.9 181.04 426.78C181.64 426.18 182.2 425.473 182.72 424.66C183.253 423.847 183.74 422.973 184.18 422.04C184.633 421.093 185.013 420.147 185.32 419.2ZM180.02 419.08L182.34 419.82C181.913 420.953 181.407 422.093 180.82 423.24C180.233 424.387 179.593 425.473 178.9 426.5C178.207 427.513 177.493 428.4 176.76 429.16C176.68 428.96 176.56 428.7 176.4 428.38C176.253 428.06 176.093 427.733 175.92 427.4C175.747 427.067 175.587 426.8 175.44 426.6C176.053 425.987 176.64 425.28 177.2 424.48C177.773 423.68 178.3 422.82 178.78 421.9C179.273 420.98 179.687 420.04 180.02 419.08ZM178 424.62L180.42 422.2V422.22V437.76H178V424.62ZM197 425.08H215V427.18H197V425.08ZM198.72 421.16H210.16V423.24H198.72V421.16ZM202.26 432.04H211.18V433.86H202.26V432.04ZM202.26 435.2H211.18V437.22H202.26V435.2ZM203.44 419H205.82V426.26H203.44V419ZM212.24 419.58L214.3 420.66C213.007 422.473 211.487 424.127 209.74 425.62C207.993 427.113 206.107 428.433 204.08 429.58C202.067 430.727 199.98 431.7 197.82 432.5C197.727 432.327 197.593 432.12 197.42 431.88C197.247 431.627 197.06 431.373 196.86 431.12C196.673 430.867 196.507 430.667 196.36 430.52C198.533 429.827 200.607 428.947 202.58 427.88C204.567 426.813 206.38 425.58 208.02 424.18C209.673 422.78 211.08 421.247 212.24 419.58ZM200.9 428.78H212.7V437.72H210.2V430.76H203.3V437.8H200.9V428.78ZM219.54 420.42H223.56V434.06H219.54V431.96H221.64V422.52H219.54V420.42ZM219.52 426.18H222.54V428.26H219.52V426.18ZM218.28 420.42H220.16V435.68H218.28V420.42ZM227.18 423.12V423.88H232.9V423.12H227.18ZM227.18 421.04V421.78H232.9V421.04H227.18ZM225 419.6H235.18V425.32H225V419.6ZM224.16 428.74H236.22V430.42H224.16V428.74ZM224.7 426.2H235.68V427.82H224.7V426.2ZM233.26 429.68C233.5 429.96 233.807 430.247 234.18 430.54C234.553 430.833 234.953 431.107 235.38 431.36C235.807 431.6 236.22 431.8 236.62 431.96C236.42 432.12 236.193 432.34 235.94 432.62C235.7 432.887 235.507 433.127 235.36 433.34C234.96 433.113 234.54 432.833 234.1 432.5C233.66 432.153 233.247 431.787 232.86 431.4C232.473 431.013 232.147 430.64 231.88 430.28L233.26 429.68ZM223.86 435.48C224.58 435.24 225.453 434.933 226.48 434.56C227.507 434.187 228.553 433.8 229.62 433.4L229.94 434.9C229.02 435.313 228.093 435.72 227.16 436.12C226.24 436.52 225.38 436.88 224.58 437.2L223.86 435.48ZM226.84 424.96H228.9V429.44H226.84V424.96ZM231.52 424.96H233.6V429.44H231.52V424.96ZM229.12 430.86H231.2V435.94C231.2 436.393 231.147 436.74 231.04 436.98C230.947 437.22 230.74 437.407 230.42 437.54C230.127 437.66 229.767 437.733 229.34 437.76C228.927 437.787 228.433 437.8 227.86 437.8C227.82 437.547 227.747 437.26 227.64 436.94C227.533 436.633 227.413 436.36 227.28 436.12C227.613 436.133 227.927 436.14 228.22 436.14C228.527 436.153 228.733 436.16 228.84 436.16C228.947 436.147 229.02 436.12 229.06 436.08C229.1 436.053 229.12 435.987 229.12 435.88V430.86ZM227.08 429.62L228.62 430.28C228.313 430.667 227.92 431.047 227.44 431.42C226.973 431.793 226.473 432.14 225.94 432.46C225.42 432.767 224.907 433.02 224.4 433.22C224.267 433.007 224.08 432.767 223.84 432.5C223.6 432.22 223.38 431.993 223.18 431.82C223.66 431.673 224.147 431.487 224.64 431.26C225.133 431.02 225.593 430.76 226.02 430.48C226.447 430.2 226.8 429.913 227.08 429.62ZM229.78 434.8L230.88 433.52C231.44 433.693 232.013 433.913 232.6 434.18C233.2 434.433 233.773 434.693 234.32 434.96C234.867 435.213 235.333 435.453 235.72 435.68L234.58 437.1C234.207 436.86 233.747 436.6 233.2 436.32C232.667 436.04 232.093 435.767 231.48 435.5C230.88 435.22 230.313 434.987 229.78 434.8ZM225.92 432.84L227.28 431.96C227.52 432.16 227.767 432.4 228.02 432.68C228.273 432.947 228.46 433.193 228.58 433.42L227.16 434.4C227.053 434.16 226.88 433.9 226.64 433.62C226.413 433.327 226.173 433.067 225.92 432.84ZM232.84 432.06L234.32 432.88C234.013 433.227 233.7 433.56 233.38 433.88C233.073 434.2 232.793 434.473 232.54 434.7L231.32 434C231.48 433.813 231.653 433.607 231.84 433.38C232.04 433.153 232.227 432.927 232.4 432.7C232.573 432.46 232.72 432.247 232.84 432.06ZM249.3 428.14H251.72V434.64C251.72 435 251.767 435.233 251.86 435.34C251.953 435.433 252.16 435.48 252.48 435.48C252.56 435.48 252.68 435.48 252.84 435.48C253 435.48 253.18 435.48 253.38 435.48C253.58 435.48 253.76 435.48 253.92 435.48C254.093 435.48 254.227 435.48 254.32 435.48C254.547 435.48 254.713 435.407 254.82 435.26C254.94 435.1 255.02 434.793 255.06 434.34C255.113 433.887 255.153 433.207 255.18 432.3C255.353 432.433 255.573 432.567 255.84 432.7C256.107 432.82 256.373 432.933 256.64 433.04C256.92 433.147 257.167 433.227 257.38 433.28C257.3 434.44 257.16 435.347 256.96 436C256.773 436.64 256.487 437.087 256.1 437.34C255.727 437.593 255.207 437.72 254.54 437.72C254.42 437.72 254.247 437.72 254.02 437.72C253.807 437.72 253.573 437.72 253.32 437.72C253.067 437.72 252.833 437.72 252.62 437.72C252.407 437.72 252.247 437.72 252.14 437.72C251.38 437.72 250.793 437.627 250.38 437.44C249.98 437.253 249.7 436.933 249.54 436.48C249.38 436.027 249.3 435.42 249.3 434.66V428.14ZM243.92 428.24H246.48C246.4 429.347 246.26 430.38 246.06 431.34C245.873 432.3 245.553 433.187 245.1 434C244.66 434.8 244.027 435.52 243.2 436.16C242.373 436.813 241.28 437.367 239.92 437.82C239.84 437.607 239.72 437.367 239.56 437.1C239.4 436.833 239.22 436.573 239.02 436.32C238.833 436.08 238.647 435.88 238.46 435.72C239.647 435.36 240.593 434.933 241.3 434.44C242.007 433.947 242.533 433.387 242.88 432.76C243.227 432.12 243.467 431.427 243.6 430.68C243.747 429.92 243.853 429.107 243.92 428.24ZM240.42 420.68L242.6 419.86C242.907 420.353 243.207 420.893 243.5 421.48C243.807 422.067 244.073 422.64 244.3 423.2C244.54 423.747 244.72 424.247 244.84 424.7L242.5 425.64C242.407 425.2 242.253 424.693 242.04 424.12C241.827 423.547 241.573 422.96 241.28 422.36C241 421.76 240.713 421.2 240.42 420.68ZM253.38 419.72L255.92 420.58C255.627 421.18 255.32 421.78 255 422.38C254.68 422.98 254.367 423.553 254.06 424.1C253.753 424.647 253.453 425.127 253.16 425.54L251.08 424.74C251.347 424.287 251.62 423.773 251.9 423.2C252.193 422.627 252.467 422.04 252.72 421.44C252.987 420.827 253.207 420.253 253.38 419.72ZM238.98 426.34H257.06V428.6H238.98V426.34ZM246.7 419H249.14V427.26H246.7V419ZM261 425.12H267.76V426.92H261V425.12ZM261 427.82H267.72V429.64H261V427.82ZM260.14 422.32H268.6V424.22H260.14V422.32ZM262.14 430.6H267.78V436.68H262.14V434.76H265.72V432.5H262.14V430.6ZM261.08 430.6H263.12V437.54H261.08V430.6ZM262.34 419.8L264.2 418.92C264.48 419.333 264.753 419.793 265.02 420.3C265.3 420.793 265.52 421.227 265.68 421.6L263.76 422.64C263.613 422.267 263.4 421.813 263.12 421.28C262.853 420.733 262.593 420.24 262.34 419.8ZM268.52 425.68H278.26V428.04H268.52V425.68ZM272.04 419.36H274.54V437.8H272.04V419.36ZM288.82 430.52H291.04V434.52H288.82V430.52ZM280.88 435.68H299.16V437.26H280.88V435.68ZM280.96 422.12H299.04V423.42H280.96V422.12ZM280.9 428.06H299.18V429.54H280.9V428.06ZM282.34 426.08H297.82V427.36H282.34V426.08ZM283.08 420.2H297.04V425.4H282.96V424.14H294.6V421.46H283.08V420.2ZM288.66 418.98H291.1V428.78H288.66V418.98ZM285.52 433.16V433.88H294.6V433.16H285.52ZM285.52 431.34V432.04H294.6V431.34H285.52ZM283.18 430.18H297.06V435.04H283.18V430.18Z" fill="white"/>
</g>
<g opacity="0.5">
<path d="M227 139V147.947C227 158.993 235.954 167.947 247 167.947H325C336.046 167.947 345 176.902 345 187.947V189" stroke="white" stroke-width="4"/>
<path d="M227 139V147.947C227 158.993 235.954 167.947 247 167.947H325C336.046 167.947 345 176.902 345 187.947V189" stroke="#E1D4FF" stroke-width="4"/>
</g>
<defs>
<filter id="filter0_d_171_2782" x="528" y="302" width="119.804" height="66" filterUnits="userSpaceOnUse" color-interpolation-filters="sRGB">
<feFlood flood-opacity="0" result="BackgroundImageFix"/>
<feColorMatrix in="SourceAlpha" type="matrix" values="0 0 0 0 0 0 0 0 0 0 0 0 0 0 0 0 0 0 127 0" result="hardAlpha"/>
<feOffset dy="5"/>
<feGaussianBlur stdDeviation="3.5"/>
<feColorMatrix type="matrix" values="0 0 0 0 0 0 0 0 0 0 0 0 0 0 0 0 0 0 0.1 0"/>
<feBlend mode="normal" in2="BackgroundImageFix" result="effect1_dropShadow_171_2782"/>
<feBlend mode="normal" in="SourceGraphic" in2="effect1_dropShadow_171_2782" result="shape"/>
</filter>
<filter id="filter1_d_171_2782" x="172" y="258" width="119.804" height="66" filterUnits="userSpaceOnUse" color-interpolation-filters="sRGB">
<feFlood flood-opacity="0" result="BackgroundImageFix"/>
<feColorMatrix in="SourceAlpha" type="matrix" values="0 0 0 0 0 0 0 0 0 0 0 0 0 0 0 0 0 0 127 0" result="hardAlpha"/>
<feOffset dy="5"/>
<feGaussianBlur stdDeviation="3.5"/>
<feColorMatrix type="matrix" values="0 0 0 0 0 0 0 0 0 0 0 0 0 0 0 0 0 0 0.1 0"/>
<feBlend mode="normal" in2="BackgroundImageFix" result="effect1_dropShadow_171_2782"/>
<feBlend mode="normal" in="SourceGraphic" in2="effect1_dropShadow_171_2782" result="shape"/>
</filter>
<filter id="filter2_d_171_2782" x="364" y="177" width="119.804" height="66" filterUnits="userSpaceOnUse" color-interpolation-filters="sRGB">
<feFlood flood-opacity="0" result="BackgroundImageFix"/>
<feColorMatrix in="SourceAlpha" type="matrix" values="0 0 0 0 0 0 0 0 0 0 0 0 0 0 0 0 0 0 127 0" result="hardAlpha"/>
<feOffset dy="5"/>
<feGaussianBlur stdDeviation="3.5"/>
<feColorMatrix type="matrix" values="0 0 0 0 0 0 0 0 0 0 0 0 0 0 0 0 0 0 0.1 0"/>
<feBlend mode="normal" in2="BackgroundImageFix" result="effect1_dropShadow_171_2782"/>
<feBlend mode="normal" in="SourceGraphic" in2="effect1_dropShadow_171_2782" result="shape"/>
</filter>
<filter id="filter3_d_171_2782" x="567" y="268" width="42" height="42" filterUnits="userSpaceOnUse" color-interpolation-filters="sRGB">
<feFlood flood-opacity="0" result="BackgroundImageFix"/>
<feColorMatrix in="SourceAlpha" type="matrix" values="0 0 0 0 0 0 0 0 0 0 0 0 0 0 0 0 0 0 127 0" result="hardAlpha"/>
<feOffset dy="5"/>
<feGaussianBlur stdDeviation="3.5"/>
<feColorMatrix type="matrix" values="0 0 0 0 0 0 0 0 0 0 0 0 0 0 0 0 0 0 0.1 0"/>
<feBlend mode="normal" in2="BackgroundImageFix" result="effect1_dropShadow_171_2782"/>
<feBlend mode="normal" in="SourceGraphic" in2="effect1_dropShadow_171_2782" result="shape"/>
</filter>
<filter id="filter4_d_171_2782" x="323.319" y="188" width="42" height="42" filterUnits="userSpaceOnUse" color-interpolation-filters="sRGB">
<feFlood flood-opacity="0" result="BackgroundImageFix"/>
<feColorMatrix in="SourceAlpha" type="matrix" values="0 0 0 0 0 0 0 0 0 0 0 0 0 0 0 0 0 0 127 0" result="hardAlpha"/>
<feOffset dy="5"/>
<feGaussianBlur stdDeviation="3.5"/>
<feColorMatrix type="matrix" values="0 0 0 0 0 0 0 0 0 0 0 0 0 0 0 0 0 0 0.1 0"/>
<feBlend mode="normal" in2="BackgroundImageFix" result="effect1_dropShadow_171_2782"/>
<feBlend mode="normal" in="SourceGraphic" in2="effect1_dropShadow_171_2782" result="shape"/>
</filter>
<filter id="filter5_d_171_2782" x="212.816" y="316" width="42" height="42" filterUnits="userSpaceOnUse" color-interpolation-filters="sRGB">
<feFlood flood-opacity="0" result="BackgroundImageFix"/>
<feColorMatrix in="SourceAlpha" type="matrix" values="0 0 0 0 0 0 0 0 0 0 0 0 0 0 0 0 0 0 127 0" result="hardAlpha"/>
<feOffset dy="5"/>
<feGaussianBlur stdDeviation="3.5"/>
<feColorMatrix type="matrix" values="0 0 0 0 0 0 0 0 0 0 0 0 0 0 0 0 0 0 0.1 0"/>
<feBlend mode="normal" in2="BackgroundImageFix" result="effect1_dropShadow_171_2782"/>
<feBlend mode="normal" in="SourceGraphic" in2="effect1_dropShadow_171_2782" result="shape"/>
</filter>
<filter id="filter6_dd_171_2782" x="174" y="69" width="274" height="82" filterUnits="userSpaceOnUse" color-interpolation-filters="sRGB">
<feFlood flood-opacity="0" result="BackgroundImageFix"/>
<feColorMatrix in="SourceAlpha" type="matrix" values="0 0 0 0 0 0 0 0 0 0 0 0 0 0 0 0 0 0 127 0" result="hardAlpha"/>
<feOffset dy="5"/>
<feGaussianBlur stdDeviation="3.5"/>
<feColorMatrix type="matrix" values="0 0 0 0 0 0 0 0 0 0 0 0 0 0 0 0 0 0 0.1 0"/>
<feBlend mode="normal" in2="BackgroundImageFix" result="effect1_dropShadow_171_2782"/>
<feColorMatrix in="SourceAlpha" type="matrix" values="0 0 0 0 0 0 0 0 0 0 0 0 0 0 0 0 0 0 127 0" result="hardAlpha"/>
<feOffset dy="5"/>
<feGaussianBlur stdDeviation="3.5"/>
<feColorMatrix type="matrix" values="0 0 0 0 0 0 0 0 0 0 0 0 0 0 0 0 0 0 0.1 0"/>
<feBlend mode="normal" in2="effect1_dropShadow_171_2782" result="effect2_dropShadow_171_2782"/>
<feBlend mode="normal" in="SourceGraphic" in2="effect2_dropShadow_171_2782" result="shape"/>
</filter>
<filter id="filter7_d_171_2782" x="528" y="392" width="232" height="82" filterUnits="userSpaceOnUse" color-interpolation-filters="sRGB">
<feFlood flood-opacity="0" result="BackgroundImageFix"/>
<feColorMatrix in="SourceAlpha" type="matrix" values="0 0 0 0 0 0 0 0 0 0 0 0 0 0 0 0 0 0 127 0" result="hardAlpha"/>
<feOffset dy="5"/>
<feGaussianBlur stdDeviation="3.5"/>
<feColorMatrix type="matrix" values="0 0 0 0 0 0 0 0 0 0 0 0 0 0 0 0 0 0 0.1 0"/>
<feBlend mode="normal" in2="BackgroundImageFix" result="effect1_dropShadow_171_2782"/>
<feBlend mode="normal" in="SourceGraphic" in2="effect1_dropShadow_171_2782" result="shape"/>
</filter>
<filter id="filter8_d_171_2782" x="77" y="392" width="262" height="82" filterUnits="userSpaceOnUse" color-interpolation-filters="sRGB">
<feFlood flood-opacity="0" result="BackgroundImageFix"/>
<feColorMatrix in="SourceAlpha" type="matrix" values="0 0 0 0 0 0 0 0 0 0 0 0 0 0 0 0 0 0 127 0" result="hardAlpha"/>
<feOffset dy="5"/>
<feGaussianBlur stdDeviation="3.5"/>
<feColorMatrix type="matrix" values="0 0 0 0 0 0 0 0 0 0 0 0 0 0 0 0 0 0 0.1 0"/>
<feBlend mode="normal" in2="BackgroundImageFix" result="effect1_dropShadow_171_2782"/>
<feBlend mode="normal" in="SourceGraphic" in2="effect1_dropShadow_171_2782" result="shape"/>
</filter>
<linearGradient id="paint0_linear_171_2782" x1="548.073" y1="308.651" x2="495.743" y2="301.02" gradientUnits="userSpaceOnUse">
<stop stop-color="#AC8EF5"/>
<stop offset="1" stop-color="#E1D4FF"/>
</linearGradient>
<linearGradient id="paint1_linear_171_2782" x1="325.487" y1="252.717" x2="406.85" y2="193.038" gradientUnits="userSpaceOnUse">
<stop stop-color="#E7D9E7"/>
<stop offset="1" stop-color="#E1D4FF"/>
</linearGradient>
<linearGradient id="paint2_linear_171_2782" x1="287.021" y1="252.717" x2="349.1" y2="225.918" gradientUnits="userSpaceOnUse">
<stop stop-color="#E7D9E7"/>
<stop offset="1" stop-color="#E1D4FF"/>
</linearGradient>
<linearGradient id="paint3_linear_171_2782" x1="242.125" y1="364" x2="319.924" y2="202.144" gradientUnits="userSpaceOnUse">
<stop stop-color="#E7D9E7"/>
<stop offset="0.56" stop-color="#AC8EF5"/>
</linearGradient>
<linearGradient id="paint4_linear_171_2782" x1="242.125" y1="364" x2="385.791" y2="166.734" gradientUnits="userSpaceOnUse">
<stop stop-color="#E7D9E7"/>
<stop offset="0.56" stop-color="#AC8EF5"/>
</linearGradient>
<linearGradient id="paint5_linear_171_2782" x1="526.162" y1="277.075" x2="451.229" y2="252.839" gradientUnits="userSpaceOnUse">
<stop stop-color="#AC8EF5"/>
<stop offset="1" stop-color="#E1D4FF"/>
</linearGradient>
</defs>
</svg>
