<svg width="1116" height="501" viewBox="0 0 1116 501" fill="none" xmlns="http://www.w3.org/2000/svg">
<g clip-path="url(#clip0_23_1165)">
<path d="M53.0562 445.304L360.148 243.671C363.785 241.304 363.785 235.979 360.148 233.613L53.0562 31.9799C49.0648 29.3826 43.7837 32.2469 43.7837 37.0089L43.7837 440.275C43.7837 445.037 49.0649 447.901 53.0562 445.304Z" fill="url(#paint0_linear_23_1165)"/>
<g filter="url(#filter0_d_23_1165)">
<rect y="187.123" width="207.642" height="73.6366" rx="6" fill="white"/>
<rect y="187.123" width="207.642" height="73.6366" rx="6" stroke="#B3B3B3" stroke-width="4"/>
</g>
<path d="M54.7221 209.227L56.0341 209.547C55.7301 210.459 55.4421 211.467 55.1861 212.123L54.1141 211.819C54.3381 211.099 54.6101 209.979 54.7221 209.227ZM51.9221 209.547L53.0101 209.195C53.3141 209.851 53.5861 210.731 53.6821 211.307L52.5301 211.707C52.4661 211.115 52.2101 210.219 51.9221 209.547ZM49.6501 207.227H57.0101V208.891H51.3621V221.579H49.6501V207.227ZM56.5141 207.227H58.2261V219.691C58.2261 220.539 58.0821 220.971 57.5861 221.259C57.0741 221.531 56.3701 221.563 55.3461 221.563C55.2981 221.115 55.0901 220.379 54.8661 219.947C55.4261 219.979 56.0341 219.963 56.2421 219.963C56.4501 219.947 56.5141 219.883 56.5141 219.675V207.227ZM51.6501 211.627H56.1941V213.067H51.6501V211.627ZM51.7141 214.411H56.1301V215.851H51.7141V214.411ZM52.9461 213.371L54.2581 212.955C54.4661 213.339 54.7061 213.851 54.8021 214.187L53.4421 214.683C53.3461 214.331 53.1381 213.771 52.9461 213.371ZM47.4101 213.355L48.6421 212.891C49.0421 213.851 49.4901 215.131 49.6981 215.867L48.3541 216.427C48.2101 215.643 47.7781 214.331 47.4101 213.355ZM45.8421 217.307L47.0901 217.003C47.2981 218.059 47.4581 219.419 47.5221 220.347L46.1781 220.699C46.1621 219.771 46.0021 218.379 45.8421 217.307ZM44.0981 217.099L45.4901 217.339C45.3781 218.763 45.1381 220.267 44.8181 221.259C44.4981 221.083 43.8421 220.859 43.4901 220.763C43.8421 219.835 44.0181 218.395 44.0981 217.099ZM44.0661 212.891C43.9861 212.571 43.7301 211.787 43.5381 211.355C43.8261 211.275 44.0981 210.971 44.4021 210.507C44.7221 210.043 45.6981 208.267 46.2261 206.571L47.7621 207.227C47.0421 208.939 46.0021 210.779 45.0101 212.027V212.059C45.0101 212.059 44.0661 212.587 44.0661 212.891ZM44.0661 212.891L44.0341 211.675L44.7381 211.195L47.4261 211.003C47.3301 211.435 47.2661 212.043 47.2501 212.395C44.8341 212.635 44.3541 212.747 44.0661 212.891ZM44.1781 216.603C44.1141 216.283 43.8421 215.483 43.6661 215.051C44.0501 214.955 44.3701 214.571 44.8661 213.963C45.3781 213.371 46.9621 211.035 47.9221 208.779L49.3141 209.691C48.2101 211.867 46.6421 214.123 45.1381 215.755V215.787C45.1381 215.787 44.1781 216.299 44.1781 216.603ZM44.1781 216.603L44.1141 215.355L44.8021 214.859L48.8661 214.299C48.8181 214.715 48.7861 215.339 48.8021 215.675C45.1221 216.251 44.5301 216.411 44.1781 216.603ZM47.5381 216.939L48.7221 216.523C49.0741 217.499 49.4421 218.731 49.6181 219.547L48.3701 220.027C48.2261 219.179 47.8581 217.899 47.5381 216.939ZM52.1941 215.195H53.7141V216.827C53.7141 217.179 53.7621 217.307 54.0181 217.307C54.2101 217.307 54.9301 217.307 55.1381 217.307C55.3941 217.307 55.8261 217.291 56.0661 217.211C56.0981 217.611 56.1301 218.155 56.1781 218.523C55.9541 218.603 55.5381 218.619 55.1861 218.619C54.9141 218.619 54.0821 218.619 53.8421 218.619C52.4821 218.619 52.1941 218.091 52.1941 216.811V215.195ZM68.5781 219.339H73.6181V220.987H68.5781V219.339ZM69.2661 208.059H73.3301V209.691H69.2661V208.059ZM67.7941 215.595H74.4021V221.467H72.5781V217.211H69.5541V221.515H67.7941V215.595ZM72.6581 208.059H72.9941L73.3301 207.995L74.5461 208.507C73.3781 212.523 70.6741 215.083 67.4261 216.459C67.2021 216.011 66.7221 215.355 66.3381 215.003C69.2341 213.947 71.7621 211.499 72.6581 208.363V208.059ZM69.3301 206.523L71.1541 206.971C70.4341 209.131 69.2501 211.211 67.9541 212.523C67.6341 212.187 66.8981 211.563 66.4661 211.291C67.7141 210.171 68.7701 208.379 69.3301 206.523ZM69.3781 208.955C70.2901 211.115 72.3701 213.595 75.6341 214.619C75.2501 214.987 74.7061 215.739 74.4501 216.235C71.1541 214.955 69.0581 212.155 68.0821 209.787L69.3781 208.955ZM60.9941 213.595H62.5621V219.419H60.9941V213.595ZM62.7861 208.779V210.811H64.8981V208.779H62.7861ZM61.1221 207.131H66.6581V212.459H61.1221V207.131ZM63.3621 211.787H65.0581V218.939H63.3621V211.787ZM60.2901 219.115C61.9861 218.811 64.5461 218.251 66.9461 217.707L67.1221 219.403C64.8661 219.963 62.4341 220.539 60.6101 220.955L60.2901 219.115ZM64.0341 214.331H66.8181V216.011H64.0341V214.331ZM85.4351 220.347C82.9711 220.347 81.5791 218.827 81.5791 216.987C81.5791 213.227 87.0831 213.035 87.0831 210.667C87.0831 210.075 86.7951 209.627 86.1871 209.627C85.4991 209.627 85.0031 210.203 85.0031 211.067C85.0031 213.035 87.5311 215.707 89.9151 217.227C90.8751 217.851 91.8191 218.283 92.6031 218.443L92.0271 220.347C90.9071 220.123 89.6911 219.547 88.4911 218.747C85.6271 216.747 83.0511 213.483 83.0511 211.067C83.0511 209.419 84.2671 208.075 86.1391 208.075C87.8351 208.075 88.8911 209.099 88.8911 210.651C88.8911 213.771 83.8191 214.571 83.8191 216.843C83.8191 217.867 84.6031 218.539 85.7231 218.539C86.6031 218.539 87.4831 218.059 88.2671 217.291C89.1951 216.331 89.9471 215.067 90.3631 213.515H92.5071C91.9791 215.307 91.1311 216.923 89.8671 218.347C88.7951 219.547 87.3231 220.347 85.4351 220.347ZM98.8718 209.211H103.768V210.939H98.8718V209.211ZM100.968 214.651L102.84 212.411V221.547H100.968V214.651ZM102.76 212.987C103.256 213.355 104.824 214.875 105.208 215.243L104.024 216.843C103.48 216.027 102.296 214.603 101.688 213.931L102.76 212.987ZM103.192 209.211H103.576L103.912 209.147L104.92 209.883C103.768 212.859 101.432 215.627 99.1278 217.067C99.0158 216.523 98.6478 215.467 98.4078 215.099C100.44 213.979 102.392 211.755 103.192 209.563V209.211ZM100.392 207.259L101.896 206.443C102.472 207.067 103.08 207.915 103.352 208.491L101.784 209.419C101.528 208.827 100.936 207.899 100.392 207.259ZM104.376 219.163H113.656V221.051H104.376V219.163ZM105.08 211.339H113.272V213.179H105.08V211.339ZM108.248 206.635H110.216V220.075H108.248V206.635ZM123.368 209.611H130.168V211.355H123.368V209.611ZM123.576 212.811H129.864V214.571H123.576V212.811ZM123.016 216.235H130.504V218.043H123.016V216.235ZM123.4 207.163L124.92 206.635C125.432 207.435 125.864 208.507 126.008 209.243L124.376 209.851C124.264 209.115 123.864 207.995 123.4 207.163ZM128.12 206.523L129.976 206.939C129.544 207.947 129.112 208.987 128.744 209.675L127.16 209.275C127.496 208.523 127.928 207.371 128.12 206.523ZM125.736 210.507H127.592V221.563H125.736V210.507ZM115.464 209.915H123.192V211.515H115.464V209.915ZM116.36 207.275H122.424V214.139H116.28V212.523H120.648V208.891H116.36V207.275ZM117.112 215.371H118.856V221.563H117.112V215.371ZM117.816 215.371H122.712V220.795H117.816V219.147H120.84V217.019H117.816V215.371ZM117.88 207.899L119.704 207.963C119.48 212.667 118.824 216.331 116.52 218.667C116.296 218.283 115.656 217.515 115.272 217.179C117.272 215.275 117.752 211.931 117.88 207.899ZM138.152 208.187H146.952V209.803H138.152V208.187ZM137.976 215.419H147V217.035H137.976V215.419ZM140.184 210.635H144.632V212.043H140.184V210.635ZM139.272 206.539H141.016V212.907H143.88V206.539H145.704V214.443H139.272V206.539ZM141.64 214.155H143.496V221.563H141.64V214.155ZM132.44 215.435L133.432 214.203C134.968 215.659 137.128 217.707 138.088 218.987L136.968 220.443C136.04 219.099 133.976 216.971 132.44 215.435ZM132.44 215.435C133.016 213.195 133.624 209.499 133.8 206.635L135.432 206.715C135.192 209.707 134.536 213.515 133.944 215.947L132.44 215.435ZM135.928 208.795H137.496V210.747C137.496 213.803 137.112 218.235 133.304 221.419C133.048 221.067 132.472 220.507 132.104 220.251C135.624 217.419 135.928 213.435 135.928 210.731V208.795ZM132.184 209.979C133.736 209.915 135.992 209.803 138.152 209.675V211.339C136.12 211.483 133.976 211.611 132.376 211.707L132.184 209.979ZM139.96 217.339L141.32 217.819C140.808 219.099 139.896 220.523 138.968 221.291C138.696 220.891 138.12 220.299 137.736 219.979C138.6 219.403 139.496 218.331 139.96 217.339ZM143.864 217.915L145.24 217.355C145.944 218.331 146.856 219.675 147.288 220.507L145.816 221.163C145.432 220.331 144.568 218.955 143.864 217.915ZM155.768 213.419H163.944V214.779H155.768V213.419ZM155.592 219.931H164.088V221.323H155.592V219.931ZM157.896 206.555H159.384V208.651H157.896V206.555ZM160.072 206.555H161.576V208.651H160.072V206.555ZM157.416 210.843V211.595H162.168V210.843H157.416ZM157.416 208.955V209.691H162.168V208.955H157.416ZM156.008 207.691H163.64V212.843H156.008V207.691ZM158.04 216.475V217.307H161.528V216.475H158.04ZM156.376 215.307H163.304V218.459H156.376V215.307ZM161 218.315L162.712 218.779C162.248 219.499 161.816 220.235 161.48 220.699L160.248 220.267C160.52 219.707 160.84 218.891 161 218.315ZM157.064 218.763L158.504 218.315C158.76 218.891 159.048 219.643 159.192 220.123L157.688 220.635C157.576 220.139 157.304 219.339 157.064 218.763ZM158.232 208.395H159.4V212.347H158.232V208.395ZM160.168 208.395H161.336V212.347H160.168V208.395ZM150.696 213.563H154.248V214.811H150.696V213.563ZM153.4 213.563H154.984V219.915C154.984 220.603 154.872 221.003 154.424 221.243C153.992 221.467 153.4 221.499 152.568 221.499C152.504 221.083 152.296 220.475 152.104 220.075C152.568 220.091 153.048 220.091 153.192 220.091C153.352 220.091 153.4 220.043 153.4 219.883V213.563ZM149.816 207.035H155.032V212.203H153.464V208.395H151.288V212.203H149.816V207.035ZM149.192 211.611H155.704V214.123H154.264V212.907H150.568V214.123H149.192V211.611ZM151.896 209.051H154.504V210.123H152.872V212.043H151.896V209.051ZM149.976 213.563H151.528V216.603C151.528 218.139 151.384 220.251 150.472 221.611C150.184 221.339 149.496 220.859 149.128 220.683C149.912 219.499 149.976 217.851 149.976 216.587V213.563ZM151.272 218.171C152.008 217.883 153.032 217.387 154.104 216.875L154.392 217.803C153.496 218.379 152.648 218.923 151.848 219.435L151.272 218.171ZM151.288 215.963L152.072 215.163C152.616 215.515 153.256 215.963 153.592 216.283L152.76 217.211C152.456 216.875 151.8 216.315 151.288 215.963ZM67.5169 229.107H77.7249V230.851H67.5169V229.107ZM69.6129 233.539V235.123H75.4529V233.539H69.6129ZM67.8689 231.971H77.2929V236.691H67.8689V231.971ZM69.3729 236.851C70.7969 239.155 73.8209 240.451 77.9649 240.835C77.5649 241.251 77.0849 242.019 76.8449 242.547C72.5089 241.955 69.5489 240.339 67.8049 237.331L69.3729 236.851ZM71.5649 227.635H73.4529V234.947C73.4529 238.211 72.6369 241.187 68.0449 242.563C67.8209 242.131 67.2609 241.363 66.8449 240.963C71.1489 240.003 71.5649 237.555 71.5649 234.931V227.635ZM66.3009 227.491L68.0929 228.067C67.0049 230.787 65.2449 233.651 63.4209 235.459C63.2609 235.011 62.7489 233.955 62.4289 233.491C63.9489 232.051 65.4369 229.779 66.3009 227.491ZM64.7489 231.955L66.5569 230.131L66.5729 230.147V242.595H64.7489V231.955ZM82.3809 228.611H92.2049V230.435H82.3809V228.611ZM82.3809 232.291H92.2369V234.083H82.3809V232.291ZM82.3489 236.067H92.3009V237.875H82.3489V236.067ZM81.2769 228.611H83.1809V234.371C83.1809 236.915 82.8609 240.515 80.8929 242.659C80.5889 242.291 79.8049 241.651 79.3889 241.411C81.1329 239.475 81.2769 236.611 81.2769 234.355V228.611ZM91.5329 228.611H93.4369V240.307C93.4369 241.331 93.2129 241.843 92.5729 242.147C91.9009 242.451 90.9409 242.483 89.4849 242.467C89.4049 241.955 89.1169 241.123 88.8609 240.627C89.7729 240.691 90.8289 240.675 91.1169 240.675C91.4209 240.659 91.5329 240.563 91.5329 240.291V228.611ZM86.2049 229.331H88.1569V242.371H86.2049V229.331ZM96.6049 232.387H111.005V234.083H96.6049V232.387ZM97.9969 229.267H107.149V230.931H97.9969V229.267ZM100.813 237.971H107.965V239.411H100.813V237.971ZM100.813 240.483H107.965V242.099H100.813V240.483ZM101.773 227.539H103.661V233.331H101.773V227.539ZM108.813 228.003L110.461 228.851C107.325 233.219 102.445 236.435 97.2609 238.339C97.0369 237.923 96.4609 237.123 96.1089 236.739C101.309 235.075 106.013 232.019 108.813 228.003ZM99.7409 235.363H109.181V242.515H107.181V236.931H101.661V242.579H99.7409V235.363ZM113.325 231.363H117.981V233.123H113.325V231.363ZM114.797 227.763H116.557V238.483H114.797V227.763ZM113.069 238.723C114.285 238.355 116.141 237.683 117.917 237.043L118.269 238.755C116.717 239.411 115.037 240.083 113.661 240.627L113.069 238.723ZM119.453 228.179L121.069 227.507C121.533 228.067 121.997 228.835 122.237 229.347L120.541 230.131C120.349 229.603 119.869 228.787 119.453 228.179ZM124.813 227.491L126.829 228.115C126.221 228.979 125.597 229.875 125.101 230.451L123.613 229.907C124.029 229.219 124.557 228.227 124.813 227.491ZM122.221 230.467H123.613V234.835H122.221V230.467ZM120.461 238.339H125.981V239.667H120.461V238.339ZM120.461 240.403H125.981V241.795H120.461V240.403ZM119.277 236.099H126.749V242.563H124.941V237.475H121.021V242.563H119.277V236.099ZM120.045 231.107V234.147H125.805V231.107H120.045ZM118.525 229.843H127.421V235.411H118.525V229.843ZM120.173 231.715L121.149 231.363C121.597 232.035 121.997 232.947 122.125 233.571L121.069 233.971C120.957 233.363 120.573 232.419 120.173 231.715ZM124.637 231.379L125.821 231.779C125.389 232.547 124.941 233.395 124.573 233.955L123.693 233.603C124.029 232.995 124.445 232.035 124.637 231.379ZM139.213 239.267H143.325V241.123H139.213V239.267ZM130.205 230.403H136.077V232.291H130.205V230.403ZM138.365 229.363H144.189V242.115H142.253V231.219H140.205V242.243H138.365V229.363ZM135.597 230.403H137.453C137.453 230.403 137.453 231.043 137.453 231.283C137.309 238.131 137.197 240.595 136.685 241.347C136.317 241.875 135.981 242.067 135.453 242.163C134.973 242.275 134.253 242.275 133.517 242.243C133.485 241.683 133.277 240.851 132.957 240.307C133.597 240.371 134.173 240.371 134.477 240.371C134.717 240.387 134.861 240.307 135.021 240.083C135.357 239.603 135.485 237.299 135.597 230.835V230.403ZM132.109 227.763H133.997C133.981 234.067 133.917 239.379 131.149 242.563C130.845 242.099 130.205 241.459 129.725 241.155C132.221 238.339 132.093 233.619 132.109 227.763Z" fill="black"/>
<g filter="url(#filter1_d_23_1165)">
<rect y="311.177" width="207.642" height="71.6464" rx="6" fill="white"/>
<rect y="311.177" width="207.642" height="71.6464" rx="6" stroke="#B3B3B3" stroke-width="4"/>
</g>
<path d="M71.0369 337.721C72.3809 337.433 74.3329 336.953 76.2049 336.489L76.4449 338.249C74.7649 338.713 72.9569 339.193 71.5329 339.561L71.0369 337.721ZM71.2289 332.633H76.7169V334.425H71.2289V332.633ZM73.1489 329.593H75.0209V342.473C75.0209 343.385 74.8609 343.865 74.3169 344.153C73.7729 344.441 73.0049 344.489 71.8689 344.489C71.8049 344.009 71.5649 343.225 71.3409 342.745C71.9649 342.777 72.6369 342.761 72.8449 342.761C73.0689 342.761 73.1489 342.681 73.1489 342.457V329.593ZM78.4129 330.105H82.7649V331.881H78.4129V330.105ZM76.6529 336.537H83.9169V338.329H76.6529V336.537ZM83.2769 336.537H83.6289L83.9649 336.473L85.2129 336.985C83.8849 341.481 80.6529 343.609 76.4129 344.617C76.2529 344.105 75.8369 343.289 75.4849 342.873C79.2929 342.185 82.2689 340.265 83.2769 336.825V336.537ZM78.6529 337.961C79.9169 340.473 82.5569 342.201 86.1569 342.873C85.7409 343.289 85.2129 344.121 84.9569 344.649C81.1489 343.753 78.5729 341.705 76.9729 338.553L78.6529 337.961ZM78.0289 330.105H79.8209V331.897C79.8209 333.481 79.3409 335.289 77.1649 336.345C76.9409 335.977 76.2529 335.225 75.9009 334.937C77.8049 334.089 78.0289 332.921 78.0289 331.833V330.105ZM81.8849 330.105H83.6929V333.609C83.6929 334.073 83.7409 334.265 83.9809 334.265C84.1569 334.265 84.6529 334.265 84.8449 334.265C85.1009 334.265 85.5169 334.217 85.7409 334.153C85.7729 334.633 85.8049 335.305 85.8849 335.737C85.6289 335.849 85.2449 335.865 84.8769 335.865C84.6369 335.865 84.0449 335.865 83.8049 335.865C82.2049 335.865 81.8849 335.193 81.8849 333.577V330.105ZM91.0849 330.489H95.6129V332.441H91.0849V330.489ZM94.6689 330.489H96.6529C96.6529 333.529 97.0849 339.417 103.021 342.889C102.573 343.241 101.805 344.089 101.469 344.569C95.3729 340.905 94.6689 333.753 94.6689 330.489ZM93.9809 333.993L96.1889 334.393C95.0689 339.145 92.9409 342.585 89.5969 344.601C89.2449 344.185 88.3489 343.385 87.8529 343.033C91.1969 341.337 93.1169 338.233 93.9809 333.993ZM114.413 331.241H116.205V340.233H114.413V331.241ZM117.325 329.625H119.165V342.313C119.165 343.321 118.973 343.849 118.381 344.169C117.805 344.473 116.909 344.537 115.613 344.537C115.533 344.025 115.277 343.161 115.021 342.617C115.869 342.649 116.685 342.649 116.957 342.649C117.213 342.633 117.325 342.553 117.325 342.297V329.625ZM107.069 336.601H112.429V337.737H107.069V336.601ZM108.013 342.633H112.525V344.057H108.013V342.633ZM105.965 334.633H107.741V336.489C107.741 338.649 107.501 341.865 106.237 344.041C105.869 343.785 105.053 343.449 104.573 343.305C105.837 341.241 105.965 338.361 105.965 336.489V334.633ZM107.053 334.633H113.133V339.705H107.021V338.377H111.389V335.961H107.053V334.633ZM107.277 340.185H113.517V344.489H111.837V341.497H108.877V344.553H107.277V340.185ZM109.389 329.577L111.149 330.265C109.853 332.233 107.693 333.977 105.597 335.049C105.421 334.617 104.925 333.641 104.605 333.209C106.461 332.425 108.349 331.097 109.389 329.577ZM108.829 331.465L109.757 330.041C111.069 330.793 113.133 331.945 114.109 332.665L113.117 334.297C112.173 333.529 110.189 332.297 108.829 331.465ZM108.077 332.985H111.373V334.105H108.077V332.985ZM128.893 332.201H136.573V334.025H127.997L128.893 332.201ZM131.005 335.721H136.157V337.465H131.005V335.721ZM130.989 339.257H136.365V341.049H130.989V339.257ZM130.029 332.809H131.997V344.617H130.029V332.809ZM129.261 329.737L131.117 330.233C130.221 332.825 128.781 335.481 127.309 337.145C127.005 336.793 126.269 336.105 125.853 335.801C127.261 334.361 128.525 332.057 129.261 329.737ZM125.037 329.657L126.893 330.249C125.853 332.969 124.173 335.897 122.413 337.721C122.237 337.241 121.693 336.153 121.357 335.673C122.829 334.217 124.221 331.945 125.037 329.657ZM123.421 334.073L125.341 332.137L125.357 332.153V344.601H123.421V334.073ZM72.8289 353.617H76.8449V354.977H72.8289V353.617ZM80.2209 353.617H84.2529V354.977H80.2209V353.617ZM83.5009 351.233H85.4369V363.281C85.4369 364.401 85.2129 364.945 84.5089 365.249C83.8049 365.569 82.7489 365.617 81.1969 365.617C81.1009 365.073 80.7809 364.161 80.5089 363.633C81.5169 363.713 82.7169 363.697 83.0529 363.681C83.3889 363.681 83.5009 363.585 83.5009 363.265V351.233ZM72.9889 351.233H78.0289V357.441H72.9889V355.905H76.2209V352.785H72.9889V351.233ZM84.5409 351.233V352.785H80.9569V355.937H84.5409V357.473H79.1329V351.233H84.5409ZM71.8849 351.233H73.7889V365.617H71.8849V351.233ZM92.7169 363.505H102.957V365.073H92.7169V363.505ZM99.1809 352.673H102.925V354.289H99.1809V352.673ZM98.8609 356.865H102.717V358.481H98.8609V356.865ZM93.7569 359.697H102.061V364.337H100.429V361.169H99.5329V364.337H98.3009V361.169H97.4049V364.337H96.1889V361.169H95.3089V364.337H93.7569V359.697ZM99.1009 350.609L100.765 350.881C100.509 352.929 100.029 354.993 99.3249 356.321C99.0209 356.065 98.3169 355.569 97.9329 355.361C98.5729 354.193 98.9089 352.369 99.1009 350.609ZM88.1249 353.905H92.9889V355.665H88.1249V353.905ZM89.8369 350.593H91.5489V365.617H89.8369V350.593ZM89.8049 355.121L90.7969 355.457C90.4129 357.969 89.5969 361.057 88.5569 362.689C88.3969 362.209 88.0129 361.489 87.7409 361.057C88.6689 359.681 89.4689 357.153 89.8049 355.121ZM91.4689 356.369C91.7889 356.817 93.0369 358.865 93.2769 359.329L92.3649 360.657C92.0449 359.713 91.1649 357.825 90.7649 357.073L91.4689 356.369ZM93.2289 357.585H98.3169V358.929H93.2289V357.585ZM94.0769 353.265H98.0609V356.737H94.0769V355.473H96.6849V354.529H94.0769V353.265ZM95.4529 351.777H96.8129V353.889H95.4529V351.777ZM95.4529 355.889H96.8129V358.049H95.4529V355.889ZM93.2289 351.121H98.2209V352.449H94.6849V358.497H93.2289V351.121ZM113.325 351.937H117.581V353.361H113.325V351.937ZM111.085 361.761H119.613V363.425H111.085V361.761ZM117.261 351.937H117.613L117.917 351.873L119.101 352.433C117.661 355.633 114.477 357.345 110.893 358.177C110.701 357.729 110.301 357.025 109.965 356.641C113.229 356.049 116.173 354.545 117.261 352.193V351.937ZM113.325 353.201C114.493 354.945 116.941 356.129 119.949 356.577C119.565 356.945 119.069 357.665 118.845 358.129C115.645 357.505 113.245 356.001 111.789 353.697L113.325 353.201ZM114.349 357.665H116.205V365.601H114.349V357.665ZM113.453 350.609L115.325 350.977C114.381 352.657 113.069 354.225 111.181 355.569C110.925 355.153 110.365 354.513 109.965 354.241C111.629 353.201 112.781 351.809 113.453 350.609ZM105.261 351.217H109.021V352.929H106.925V365.569H105.261V351.217ZM108.669 351.217H108.989L109.261 351.153L110.541 351.873C110.061 353.233 109.485 354.817 108.957 356.049C110.077 357.313 110.317 358.449 110.317 359.393C110.317 360.433 110.077 361.137 109.533 361.521C109.277 361.713 108.957 361.825 108.589 361.873C108.269 361.921 107.869 361.921 107.469 361.921C107.453 361.457 107.293 360.737 107.021 360.257C107.341 360.305 107.597 360.305 107.805 360.289C107.997 360.289 108.173 360.257 108.301 360.161C108.525 360.017 108.621 359.665 108.605 359.185C108.605 358.417 108.349 357.377 107.277 356.241C107.805 354.849 108.397 352.785 108.669 351.745V351.217ZM111.245 359.745L112.957 359.921C112.701 361.073 112.349 362.529 112.077 363.425H110.301C110.621 362.433 111.005 360.929 111.245 359.745ZM110.669 358.529H119.165V360.177H110.669V358.529ZM124.829 350.657L126.637 351.217C125.613 353.953 123.949 356.833 122.205 358.657C122.029 358.193 121.501 357.137 121.181 356.673C122.637 355.217 124.013 352.945 124.829 350.657ZM123.261 355.073L125.085 353.249L125.101 353.265V365.601H123.261V355.073ZM128.349 356.529H136.301V358.305H128.349V356.529ZM134.509 350.513L135.933 351.953C133.549 352.785 130.301 353.377 127.469 353.745C127.389 353.313 127.133 352.641 126.925 352.241C129.661 351.857 132.669 351.217 134.509 350.513ZM131.485 352.577H133.229C133.341 358.225 134.189 363.265 134.973 363.281C135.197 363.281 135.357 362.577 135.437 361.281C135.725 361.649 136.429 362.113 136.717 362.257C136.333 364.801 135.613 365.425 134.973 365.425C132.621 365.409 131.725 359.921 131.485 352.577ZM126.829 364.097L126.669 362.545L127.421 361.985L131.309 361.073C131.261 361.569 131.277 362.289 131.325 362.689C127.837 363.633 127.229 363.857 126.829 364.097ZM126.829 364.097C126.733 363.681 126.429 362.945 126.157 362.593C126.509 362.433 126.925 362.113 126.925 361.457V352.241L128.717 352.737V362.657C128.717 362.657 126.829 363.505 126.829 364.097ZM128.445 363.681H132.765V365.233H128.445V363.681Z" fill="black"/>
<g opacity="0.5">
<path fill-rule="evenodd" clip-rule="evenodd" d="M245.745 273.903C245.745 269.667 249.18 266.232 253.416 266.232C257.652 266.232 261.086 269.667 261.086 273.903C261.086 278.139 257.652 281.573 253.416 281.573C249.18 281.573 245.745 278.139 245.745 273.903Z" fill="#AC8EF5"/>
<path fill-rule="evenodd" clip-rule="evenodd" d="M261.086 280.039C261.086 276.65 263.834 273.903 267.223 273.903C270.612 273.903 273.359 276.65 273.359 280.039C273.359 283.428 270.612 286.176 267.223 286.176C263.834 286.176 261.086 283.428 261.086 280.039Z" fill="#AC8EF5"/>
<path fill-rule="evenodd" clip-rule="evenodd" d="M233.473 280.039C233.473 276.65 236.22 273.903 239.609 273.903C242.998 273.903 245.745 276.65 245.745 280.039C245.745 283.428 242.998 286.176 239.609 286.176C236.22 286.176 233.473 283.428 233.473 280.039Z" fill="#AC8EF5"/>
<path fill-rule="evenodd" clip-rule="evenodd" d="M241.777 291.018C244.227 287.187 248.524 284.642 253.416 284.642C258.308 284.642 262.605 287.188 265.056 291.02C266.75 293.669 267.483 296.864 267.139 299.978C267.085 300.465 266.802 300.897 266.377 301.141C262.558 303.332 258.131 304.585 253.416 304.585C248.701 304.585 244.274 303.332 240.454 301.141C240.029 300.897 239.747 300.465 239.693 299.978C239.349 296.863 240.082 293.668 241.777 291.018Z" fill="#AC8EF5"/>
<path d="M239.266 289.251C239.241 289.289 239.217 289.327 239.192 289.365C237.218 292.453 236.314 296.13 236.591 299.755C235.348 299.567 234.141 299.263 232.983 298.855L232.747 298.772C232.318 298.621 232.019 298.231 231.983 297.778L231.963 297.53C231.947 297.326 231.938 297.121 231.938 296.914C231.938 292.793 235.189 289.431 239.266 289.251Z" fill="#AC8EF5"/>
<path d="M270.241 299.755C270.518 296.131 269.615 292.454 267.641 289.367C267.616 289.328 267.591 289.29 267.566 289.251C271.643 289.431 274.893 292.793 274.893 296.914C274.893 297.121 274.885 297.326 274.869 297.53L274.849 297.778C274.813 298.231 274.513 298.621 274.084 298.772L273.849 298.855C272.691 299.263 271.484 299.566 270.241 299.755Z" fill="#AC8EF5"/>
</g>
<path d="M426.561 275.354H582.022C593.746 275.354 603.25 265.85 603.25 254.126V194.42C603.25 182.696 612.755 173.192 624.479 173.192H817.963" stroke="#E1D4FF" stroke-width="1.32679"/>
<path d="M426.561 287.958H577.483C589.207 287.958 598.712 297.463 598.712 309.187V353.634C598.712 365.358 608.216 374.863 619.94 374.863L784.13 374.863" stroke="url(#paint1_linear_23_1165)" stroke-width="26.5357"/>
<circle cx="374.817" cy="284.642" r="61.6955" fill="#8B6CD9"/>
<path d="M353.617 270.931H362.321V272.707H353.617V270.931ZM353.617 274.355H362.321V276.131H353.617V274.355ZM353.617 277.795H362.321V279.571H353.617V277.795ZM352.305 267.443H363.937V280.339H361.889V269.283H354.257V280.371H352.305V267.443ZM356.849 265.347L359.169 265.587C358.785 266.659 358.321 267.715 357.969 268.419L356.209 268.099C356.465 267.299 356.737 266.179 356.849 265.347ZM373.201 267.011H382.001V268.627H373.201V267.011ZM373.025 274.243H382.049V275.859H373.025V274.243ZM375.233 269.459H379.681V270.867H375.233V269.459ZM374.321 265.363H376.065V271.731H378.929V265.363H380.753V273.267H374.321V265.363ZM376.689 272.979H378.545V280.387H376.689V272.979ZM367.489 274.259L368.481 273.027C370.017 274.483 372.177 276.531 373.137 277.811L372.017 279.267C371.089 277.923 369.025 275.795 367.489 274.259ZM367.489 274.259C368.065 272.019 368.673 268.323 368.849 265.459L370.481 265.539C370.241 268.531 369.585 272.339 368.993 274.771L367.489 274.259ZM370.977 267.619H372.545V269.571C372.545 272.627 372.161 277.059 368.353 280.243C368.097 279.891 367.521 279.331 367.153 279.075C370.673 276.243 370.977 272.259 370.977 269.555V267.619ZM367.233 268.803C368.785 268.739 371.041 268.627 373.201 268.499V270.163C371.169 270.307 369.025 270.435 367.425 270.531L367.233 268.803ZM375.009 276.163L376.369 276.643C375.857 277.923 374.945 279.347 374.017 280.115C373.745 279.715 373.169 279.123 372.785 278.803C373.649 278.227 374.545 277.155 375.009 276.163ZM378.913 276.739L380.289 276.179C380.993 277.155 381.905 278.499 382.337 279.331L380.865 279.987C380.481 279.155 379.617 277.779 378.913 276.739ZM390.817 272.243H398.993V273.603H390.817V272.243ZM390.641 278.755H399.137V280.147H390.641V278.755ZM392.945 265.379H394.433V267.475H392.945V265.379ZM395.121 265.379H396.625V267.475H395.121V265.379ZM392.465 269.667V270.419H397.217V269.667H392.465ZM392.465 267.779V268.515H397.217V267.779H392.465ZM391.057 266.515H398.689V271.667H391.057V266.515ZM393.089 275.299V276.131H396.577V275.299H393.089ZM391.425 274.131H398.353V277.283H391.425V274.131ZM396.049 277.139L397.761 277.603C397.297 278.323 396.865 279.059 396.529 279.523L395.297 279.091C395.569 278.531 395.889 277.715 396.049 277.139ZM392.113 277.587L393.553 277.139C393.809 277.715 394.097 278.467 394.241 278.947L392.737 279.459C392.625 278.963 392.353 278.163 392.113 277.587ZM393.281 267.219H394.449V271.171H393.281V267.219ZM395.217 267.219H396.385V271.171H395.217V267.219ZM385.745 272.387H389.297V273.635H385.745V272.387ZM388.449 272.387H390.033V278.739C390.033 279.427 389.921 279.827 389.473 280.067C389.041 280.291 388.449 280.323 387.617 280.323C387.553 279.907 387.345 279.299 387.153 278.899C387.617 278.915 388.097 278.915 388.241 278.915C388.401 278.915 388.449 278.867 388.449 278.707V272.387ZM384.865 265.859H390.081V271.027H388.513V267.219H386.337V271.027H384.865V265.859ZM384.241 270.435H390.753V272.947H389.313V271.731H385.617V272.947H384.241V270.435ZM386.945 267.875H389.553V268.947H387.921V270.867H386.945V267.875ZM385.025 272.387H386.577V275.427C386.577 276.963 386.433 279.075 385.521 280.435C385.233 280.163 384.545 279.683 384.177 279.507C384.961 278.323 385.025 276.675 385.025 275.411V272.387ZM386.321 276.995C387.057 276.707 388.081 276.211 389.153 275.699L389.441 276.627C388.545 277.203 387.697 277.747 386.897 278.259L386.321 276.995ZM386.337 274.787L387.121 273.987C387.665 274.339 388.305 274.787 388.641 275.107L387.809 276.035C387.505 275.699 386.849 275.139 386.337 274.787ZM365.345 294.835H367.345V306.307H365.345V294.835ZM359.089 293.539H373.777V295.411H359.089V293.539ZM360.449 297.203H370.993V299.075H362.385V304.723H360.449V297.203ZM370.545 297.203H372.545V302.627C372.545 303.571 372.353 304.115 371.681 304.403C371.009 304.707 370.081 304.723 368.833 304.723C368.753 304.163 368.465 303.363 368.193 302.835C368.993 302.883 369.953 302.883 370.193 302.883C370.465 302.867 370.545 302.803 370.545 302.595V297.203ZM364.737 291.763L366.641 291.187C367.057 291.939 367.601 292.979 367.857 293.635L365.841 294.307C365.633 293.651 365.137 292.563 364.737 291.763ZM380.609 297.811H390.737V299.427H380.609V297.811ZM382.353 300.195H388.929V301.699H382.353V300.195ZM382.961 298.403L384.609 298.819C383.793 300.675 382.353 302.275 380.833 303.267C380.561 302.947 379.921 302.371 379.553 302.115C381.025 301.283 382.305 299.955 382.961 298.403ZM388.625 300.195H390.417C390.417 300.195 390.401 300.627 390.369 300.851C390.145 303.987 389.889 305.283 389.457 305.763C389.153 306.115 388.801 306.243 388.385 306.291C388.017 306.339 387.409 306.355 386.753 306.339C386.737 305.875 386.577 305.219 386.337 304.819C386.833 304.867 387.265 304.883 387.473 304.883C387.697 304.883 387.825 304.851 387.953 304.691C388.209 304.403 388.449 303.299 388.625 300.451V300.195ZM383.713 295.107V295.875H387.857V295.107H383.713ZM383.713 293.091V293.859H387.857V293.091H383.713ZM382.017 291.763H389.633V297.203H382.017V291.763ZM375.921 294.723H380.817V296.547H375.921V294.723ZM377.537 291.555H379.329V301.507H377.537V291.555ZM375.569 301.843C376.801 301.379 378.753 300.563 380.609 299.763L381.009 301.411C379.409 302.243 377.681 303.107 376.273 303.779L375.569 301.843ZM386.801 300.499L388.097 301.203C387.489 303.123 386.145 305.347 384.721 306.451C384.385 306.083 383.825 305.651 383.345 305.379C384.897 304.419 386.209 302.355 386.801 300.499ZM384.369 300.515L385.633 301.267C384.833 302.915 383.153 304.771 381.633 305.747C381.329 305.347 380.817 304.883 380.369 304.611C381.953 303.811 383.601 302.083 384.369 300.515Z" fill="white"/>
<g filter="url(#filter2_d_23_1165)">
<rect x="480.959" y="280.662" width="116.757" height="45.1107" rx="3" fill="white" fill-opacity="0.8"/>
</g>
<path d="M502.554 297.842H512.73V300.802H510.89V299.394H504.298V300.802H502.554V297.842ZM506.618 301.346H508.442V307.618H506.618V301.346ZM508.122 309.298L509.578 308.29C510.682 308.85 512.234 309.746 513.066 310.37L511.514 311.506C510.778 310.898 509.258 309.922 508.122 309.298ZM505.21 308.498L507.05 309.218C506.01 310.098 504.362 310.978 503.034 311.49C502.714 311.106 502.01 310.418 501.578 310.098C502.922 309.73 504.378 309.138 505.21 308.498ZM504.778 306.258V307.106H510.346V306.258H504.778ZM504.778 304.082V304.93H510.346V304.082H504.778ZM503.082 302.674H512.122V308.514H503.082V302.674ZM503.786 300.37H511.386V301.89H503.786V300.37ZM506.042 296.738L507.994 296.434C508.266 296.946 508.538 297.666 508.682 298.13L506.65 298.53C506.538 298.05 506.282 297.298 506.042 296.738ZM499.066 298.194L500.122 296.802C500.938 297.17 502.09 297.794 502.698 298.21L501.578 299.746C501.034 299.314 499.882 298.642 499.066 298.194ZM498.122 302.53L499.13 301.09C499.93 301.442 501.114 302.018 501.722 302.418L500.666 304.002C500.106 303.586 498.938 302.93 498.122 302.53ZM498.538 310.066C499.226 308.834 500.186 306.866 500.922 305.026L502.426 306.178C501.77 307.858 500.986 309.682 500.234 311.218L498.538 310.066ZM515.306 307.474H529.802V308.994H515.306V307.474ZM519.098 303.106V303.682H526.218V303.106H519.098ZM519.098 304.77V305.362H526.218V304.77H519.098ZM519.098 301.458V302.034H526.218V301.458H519.098ZM517.162 300.306H528.25V306.514H517.162V300.306ZM524.426 306.21H526.41V311.57H524.426V306.21ZM517.338 297.602H522.666V298.994H517.338V297.602ZM523.85 297.586H529.834V298.978H523.85V297.586ZM517.402 296.45L519.146 296.994C518.426 298.562 517.226 300.162 516.09 301.186C515.85 300.818 515.226 300.034 514.874 299.682C515.866 298.898 516.842 297.682 517.402 296.45ZM524.25 296.45L526.074 296.882C525.53 298.29 524.554 299.65 523.642 300.498C523.242 300.21 522.41 299.794 521.946 299.602C522.954 298.834 523.802 297.634 524.25 296.45ZM518.842 299.362L520.426 298.834C520.682 299.154 520.986 299.618 521.114 299.922L519.466 300.498C519.354 300.194 519.082 299.714 518.842 299.362ZM525.962 299.33L527.418 298.706C527.786 299.058 528.234 299.57 528.442 299.922L526.906 300.578C526.73 300.242 526.33 299.714 525.962 299.33ZM519.114 306.194H521.05V307.746C521.05 309.25 520.25 310.706 516.842 311.634C516.586 311.218 516.074 310.594 515.642 310.226C518.602 309.618 519.114 308.546 519.114 307.698V306.194ZM532.826 298.162L533.898 296.754C534.89 297.154 536.25 297.842 536.938 298.37L535.818 299.954C535.194 299.394 533.866 298.626 532.826 298.162ZM531.882 302.466L532.906 301.026C533.898 301.41 535.274 302.082 535.962 302.61L534.89 304.194C534.266 303.666 532.922 302.914 531.882 302.466ZM532.458 310.114C533.306 308.914 534.538 306.914 535.498 305.074L536.906 306.338C536.058 308.034 535.034 309.858 534.074 311.41L532.458 310.114ZM540.586 296.578H542.538V304.226H540.586V296.578ZM536.778 303.026H546.41V304.85H536.778V303.026ZM537.418 298.962H545.818V300.77H537.418V298.962ZM542.49 306.93L544.058 306.162C545.13 307.57 546.298 309.426 546.73 310.722L545.002 311.602C544.65 310.338 543.546 308.386 542.49 306.93ZM537.722 311.218L537.642 309.698L538.602 309.09L544.57 308.466C544.554 308.978 544.602 309.73 544.666 310.146C539.098 310.834 538.266 310.962 537.722 311.218ZM537.722 311.218C537.61 310.818 537.29 309.858 537.05 309.314C537.434 309.202 537.722 308.866 538.09 308.274C538.474 307.714 539.658 305.474 540.298 303.378L542.394 304.034C541.498 306.274 540.17 308.562 538.97 310.146V310.194C538.97 310.194 537.722 310.866 537.722 311.218ZM549.354 297.202H553.194V298.914H551.034V311.554H549.354V297.202ZM552.858 297.202H553.178L553.45 297.138L554.698 297.842C554.282 299.202 553.77 300.802 553.306 302.05C554.282 303.314 554.474 304.45 554.474 305.394C554.474 306.434 554.266 307.122 553.754 307.506C553.514 307.698 553.194 307.81 552.842 307.858C552.554 307.906 552.17 307.906 551.802 307.906C551.802 307.442 551.642 306.722 551.386 306.258C551.658 306.274 551.882 306.29 552.09 306.274C552.234 306.258 552.394 306.226 552.522 306.146C552.698 306.002 552.794 305.65 552.794 305.186C552.794 304.418 552.602 303.362 551.674 302.242C552.138 300.834 552.634 298.738 552.858 297.746V297.202ZM556.058 297.218H562.442V304.594H556.058V302.946H560.586V298.866H556.058V297.218ZM556.202 300.114H561.626V301.666H556.202V300.114ZM559.402 303.618C560.026 306.45 561.37 308.818 563.738 309.89C563.306 310.258 562.73 311.026 562.442 311.538C559.882 310.13 558.586 307.394 557.85 303.906L559.402 303.618ZM562.138 304.754L563.386 306.114C562.49 306.802 561.418 307.57 560.618 308.034L559.61 306.85C560.378 306.354 561.498 305.442 562.138 304.754ZM555.242 311.65L555.066 309.986L555.85 309.378L559.29 308.626C559.274 309.17 559.306 309.954 559.37 310.37C556.218 311.17 555.61 311.394 555.242 311.65ZM555.242 311.65C555.098 311.218 554.698 310.466 554.426 310.146C554.746 309.938 555.162 309.49 555.162 308.754V297.218H557.034V309.906C557.034 309.906 555.242 310.962 555.242 311.65ZM575.21 297.906H577.002V306.946H575.21V297.906ZM578.09 296.85H579.946V309.33C579.946 310.37 579.738 310.882 579.146 311.218C578.554 311.522 577.626 311.586 576.394 311.586C576.314 311.042 576.042 310.194 575.802 309.634C576.634 309.666 577.466 309.666 577.754 309.666C578.01 309.666 578.09 309.586 578.09 309.33V296.85ZM569.162 296.674H570.986V311.586H569.162V296.674ZM572.394 304.53H574.122V308.626C574.122 309.378 574.026 309.826 573.546 310.114C573.082 310.386 572.474 310.418 571.674 310.402C571.626 309.922 571.418 309.234 571.21 308.77C571.642 308.786 572.058 308.786 572.202 308.786C572.346 308.786 572.394 308.754 572.394 308.594V304.53ZM566.138 304.53H573.082V306.242H567.85V310.322H566.138V304.53ZM565.514 301.65H574.506V303.378H565.514V301.65ZM567.194 298.706H573.882V300.45H566.842L567.194 298.706ZM566.746 296.882L568.506 297.234C568.154 298.914 567.546 300.658 566.938 301.762C566.554 301.538 565.722 301.218 565.274 301.058C565.93 300.018 566.458 298.402 566.746 296.882Z" fill="black"/>
<g filter="url(#filter3_d_23_1165)">
<rect x="581.795" y="348.991" width="116.757" height="67.0027" rx="6" fill="white" fill-opacity="0.8"/>
</g>
<path d="M617.166 367.055H618.958V376.047H617.166V367.055ZM620.078 365.439H621.918V378.127C621.918 379.135 621.726 379.663 621.134 379.983C620.558 380.287 619.662 380.351 618.366 380.351C618.286 379.839 618.03 378.975 617.774 378.431C618.622 378.463 619.438 378.463 619.71 378.463C619.966 378.447 620.078 378.367 620.078 378.111V365.439ZM609.822 372.415H615.182V373.551H609.822V372.415ZM610.766 378.447H615.278V379.871H610.766V378.447ZM608.718 370.447H610.494V372.303C610.494 374.463 610.254 377.679 608.99 379.855C608.622 379.599 607.806 379.263 607.326 379.119C608.59 377.055 608.718 374.175 608.718 372.303V370.447ZM609.806 370.447H615.886V375.519H609.774V374.191H614.142V371.775H609.806V370.447ZM610.03 375.999H616.27V380.303H614.59V377.311H611.63V380.367H610.03V375.999ZM612.142 365.391L613.902 366.079C612.606 368.047 610.446 369.791 608.35 370.863C608.174 370.431 607.678 369.455 607.358 369.023C609.214 368.239 611.102 366.911 612.142 365.391ZM611.582 367.279L612.51 365.855C613.822 366.607 615.886 367.759 616.862 368.479L615.87 370.111C614.926 369.343 612.942 368.111 611.582 367.279ZM610.83 368.799H614.126V369.919H610.83V368.799ZM631.646 368.015H639.326V369.839H630.75L631.646 368.015ZM633.758 371.535H638.91V373.279H633.758V371.535ZM633.742 375.071H639.118V376.863H633.742V375.071ZM632.782 368.623H634.75V380.431H632.782V368.623ZM632.014 365.551L633.87 366.047C632.974 368.639 631.534 371.295 630.062 372.959C629.758 372.607 629.022 371.919 628.606 371.615C630.014 370.175 631.278 367.871 632.014 365.551ZM627.79 365.471L629.646 366.063C628.606 368.783 626.926 371.711 625.166 373.535C624.99 373.055 624.446 371.967 624.11 371.487C625.582 370.031 626.974 367.759 627.79 365.471ZM626.174 369.887L628.094 367.951L628.11 367.967V380.415H626.174V369.887ZM647.502 368.879H649.502V380.351H647.502V368.879ZM641.246 367.583H655.934V369.455H641.246V367.583ZM642.606 371.247H653.15V373.119H644.542V378.767H642.606V371.247ZM652.702 371.247H654.702V376.671C654.702 377.615 654.51 378.159 653.838 378.447C653.166 378.751 652.238 378.767 650.99 378.767C650.91 378.207 650.622 377.407 650.35 376.879C651.15 376.927 652.11 376.927 652.35 376.927C652.622 376.911 652.702 376.847 652.702 376.639V371.247ZM646.894 365.807L648.798 365.231C649.214 365.983 649.758 367.023 650.014 367.679L647.998 368.351C647.79 367.695 647.294 366.607 646.894 365.807ZM662.766 371.855H672.894V373.471H662.766V371.855ZM664.51 374.239H671.086V375.743H664.51V374.239ZM665.118 372.447L666.766 372.863C665.95 374.719 664.51 376.319 662.99 377.311C662.718 376.991 662.078 376.415 661.71 376.159C663.182 375.327 664.462 373.999 665.118 372.447ZM670.782 374.239H672.574C672.574 374.239 672.558 374.671 672.526 374.895C672.302 378.031 672.046 379.327 671.614 379.807C671.31 380.159 670.958 380.287 670.542 380.335C670.174 380.383 669.566 380.399 668.91 380.383C668.894 379.919 668.734 379.263 668.494 378.863C668.99 378.911 669.422 378.927 669.63 378.927C669.854 378.927 669.982 378.895 670.11 378.735C670.366 378.447 670.606 377.343 670.782 374.495V374.239ZM665.87 369.151V369.919H670.014V369.151H665.87ZM665.87 367.135V367.903H670.014V367.135H665.87ZM664.174 365.807H671.79V371.247H664.174V365.807ZM658.078 368.767H662.974V370.591H658.078V368.767ZM659.694 365.599H661.486V375.551H659.694V365.599ZM657.726 375.887C658.958 375.423 660.91 374.607 662.766 373.807L663.166 375.455C661.566 376.287 659.838 377.151 658.43 377.823L657.726 375.887ZM668.958 374.543L670.254 375.247C669.646 377.167 668.302 379.391 666.878 380.495C666.542 380.127 665.982 379.695 665.502 379.423C667.054 378.463 668.366 376.399 668.958 374.543ZM666.526 374.559L667.79 375.311C666.99 376.959 665.31 378.815 663.79 379.791C663.486 379.391 662.974 378.927 662.526 378.655C664.11 377.855 665.758 376.127 666.526 374.559ZM615.278 392.119L616.91 392.535C616.35 393.799 615.422 395.047 614.51 395.831C614.174 395.559 613.502 395.095 613.102 394.871C614.014 394.199 614.814 393.159 615.278 392.119ZM615.79 393.063H620.846V394.343H614.878L615.79 393.063ZM620.446 393.063H622.062C622.062 393.063 622.062 393.447 622.046 393.639C621.918 396.663 621.758 397.815 621.39 398.247C621.134 398.583 620.798 398.695 620.398 398.727C620.062 398.775 619.47 398.775 618.846 398.759C618.83 398.391 618.67 397.847 618.478 397.511C618.974 397.559 619.374 397.575 619.566 397.575C619.774 397.575 619.886 397.543 619.998 397.399C620.206 397.127 620.334 396.119 620.446 393.303V393.063ZM616.318 394.711H617.646V396.263C617.646 397.431 617.102 398.439 614.59 399.015C614.414 398.727 614.078 398.311 613.774 398.055C615.902 397.687 616.318 396.903 616.318 396.247V394.711ZM614.334 394.935H615.566V395.991H618.43V394.935H619.694V397.111H614.334V394.935ZM615.406 386.311L617.006 386.711C616.462 388.055 615.534 389.399 614.622 390.215C614.302 389.959 613.63 389.511 613.246 389.287C614.158 388.567 614.958 387.447 615.406 386.311ZM615.886 387.207H620.878V388.487H614.974L615.886 387.207ZM620.382 387.207H621.982C621.982 387.207 621.966 387.591 621.95 387.767C621.838 390.471 621.694 391.495 621.358 391.911C621.102 392.231 620.782 392.327 620.382 392.375C620.062 392.407 619.486 392.423 618.878 392.391C618.862 392.039 618.718 391.543 618.542 391.239C618.99 391.287 619.39 391.287 619.582 391.287C619.774 391.287 619.87 391.255 619.982 391.127C620.158 390.887 620.286 389.959 620.382 387.447V387.207ZM616.43 388.823H617.646V390.583C617.646 391.703 616.99 392.487 614.59 392.871C614.462 392.583 614.174 392.199 613.918 391.959C615.918 391.735 616.43 391.191 616.43 390.583V388.823ZM614.51 389.031H615.694V390.055H618.414V389.031H619.646V391.111H614.51V389.031ZM608.03 388.055H613.534V389.703H608.03V388.055ZM607.646 391.015H613.87V392.711H607.646V391.015ZM611.022 394.295H613.694V395.959H611.022V394.295ZM610.014 386.407H611.726V392.087H610.014V386.407ZM610.478 392.119H612.158V399.239H610.478V392.119ZM609.694 395.319C610.622 398.679 612.558 399.175 615.934 399.175C617.086 399.175 621.182 399.191 622.574 399.111C622.27 399.559 621.95 400.439 621.838 401.015H615.902C611.71 401.015 609.518 400.231 608.318 395.735L609.694 395.319ZM608.19 393.735L609.742 393.831C609.806 396.375 609.662 399.239 608.366 401.415C608.126 401.031 607.534 400.471 607.15 400.295C608.19 398.439 608.27 395.911 608.19 393.735ZM624.574 388.903H631.294V390.663H624.574V388.903ZM627.166 392.423H629.758V394.151H627.166V392.423ZM625.838 389.863H627.71C627.662 394.807 627.486 398.871 625.486 401.415C625.198 400.935 624.59 400.279 624.11 399.959C625.79 397.799 625.79 394.295 625.838 389.863ZM629.07 392.423H630.878C630.878 392.423 630.878 392.951 630.862 393.159C630.766 398.007 630.654 399.815 630.238 400.391C629.934 400.855 629.63 400.999 629.182 401.079C628.798 401.159 628.206 401.175 627.55 401.143C627.534 400.631 627.326 399.879 627.086 399.415C627.55 399.463 627.95 399.463 628.174 399.463C628.382 399.479 628.51 399.415 628.638 399.239C628.878 398.871 628.974 397.303 629.07 392.775V392.423ZM633.15 393.815L634.382 392.583C635.326 393.207 636.59 394.135 637.214 394.775L635.902 396.151C635.342 395.511 634.094 394.503 633.15 393.815ZM632.078 398.247L633.31 396.807C634.766 397.575 636.894 398.807 637.918 399.671L636.59 401.319C635.646 400.407 633.598 399.095 632.078 398.247ZM626.366 386.967L628.078 386.327C628.574 386.983 629.102 387.879 629.31 388.487L627.486 389.207C627.342 388.599 626.846 387.671 626.366 386.967ZM635.774 387.671C636.526 389.303 638.014 391.015 639.518 391.895C639.086 392.247 638.478 392.935 638.174 393.415C636.59 392.295 635.134 390.231 634.27 388.183L635.774 387.671ZM634.51 386.327L636.286 386.839C635.406 389.751 633.934 392.007 631.806 393.543C631.534 393.047 630.974 392.407 630.494 392.023C632.35 390.855 633.79 388.839 634.51 386.327ZM650.27 390.279H652.046V392.071H650.27V390.279ZM647.102 389.751H655.342V390.919H647.102V389.751ZM646.494 394.743H656.046V395.751H646.494V394.743ZM646.606 391.543H655.998V392.711H646.606V391.543ZM646.942 393.175H655.31V397.431H646.878V396.327H653.614V394.263H646.942V393.175ZM648.222 397.895H649.886V399.511C649.886 399.863 649.966 399.911 650.462 399.911C650.686 399.911 651.678 399.911 651.966 399.911C652.334 399.911 652.43 399.799 652.478 399.031C652.798 399.255 653.47 399.479 653.918 399.575C653.742 400.935 653.31 401.303 652.158 401.303C651.822 401.303 650.558 401.303 650.238 401.303C648.59 401.303 648.222 400.887 648.222 399.511V397.895ZM646.798 397.895L648.19 398.455C647.934 399.367 647.566 400.487 647.086 401.207L645.63 400.567C646.126 399.863 646.558 398.775 646.798 397.895ZM649.758 397.687L650.766 396.855C651.39 397.335 652.174 398.039 652.59 398.471L651.55 399.431C651.134 398.951 650.334 398.183 649.758 397.687ZM653.262 398.391L654.67 397.847C655.214 398.695 655.822 399.783 656.126 400.503L654.654 401.159C654.382 400.439 653.758 399.255 653.262 398.391ZM653.662 388.007L655.038 388.423C654.702 389.143 654.19 390.007 653.79 390.551C653.502 390.343 652.894 390.007 652.542 389.847C652.974 389.319 653.39 388.615 653.662 388.007ZM654.766 386.423L655.854 387.623C653.438 388.263 649.838 388.535 646.862 388.599C646.814 388.231 646.622 387.655 646.462 387.319C649.39 387.223 652.814 386.919 654.766 386.423ZM650.014 388.727L651.39 388.215C651.63 388.583 651.918 389.095 652.062 389.415L650.622 389.991C650.51 389.655 650.238 389.111 650.014 388.727ZM647.326 388.871L648.702 388.343C648.958 388.663 649.278 389.111 649.454 389.383L648.014 389.975C647.87 389.671 647.566 389.207 647.326 388.871ZM643.102 387.863H644.702V401.431H643.102V387.863ZM641.118 390.935H646.222V392.727H641.118V390.935ZM643.134 391.655L644.126 392.167C643.614 394.455 642.654 397.351 641.598 398.951C641.454 398.359 641.07 397.543 640.798 397.031C641.758 395.751 642.702 393.399 643.134 391.655ZM645.342 386.503L646.27 388.071C644.942 388.663 643.166 389.063 641.678 389.287C641.614 388.855 641.406 388.215 641.23 387.799C642.67 387.511 644.27 387.031 645.342 386.503ZM644.654 393.159C644.974 393.495 646.174 394.951 646.446 395.335L645.518 396.887C645.198 396.087 644.398 394.599 643.982 393.911L644.654 393.159ZM660.942 391.319H669.79V393.159H660.942V391.319ZM665.358 395.079H670.766V396.871H665.358V395.079ZM664.35 392.295H666.366V400.023L664.35 399.783V392.295ZM660.59 393.911L662.542 394.103C662.126 397.367 661.166 399.879 659.326 401.463C659.022 401.111 658.222 400.455 657.774 400.167C659.518 398.887 660.318 396.663 660.59 393.911ZM662.142 395.879C663.166 398.823 665.406 399.271 668.254 399.287C669.102 399.287 671.774 399.287 672.846 399.239C672.574 399.703 672.254 400.615 672.158 401.191H668.142C664.446 401.191 661.95 400.455 660.574 396.407L662.142 395.879ZM658.494 388.103H672.254V392.119H670.27V389.911H660.382V392.119H658.494V388.103ZM663.902 386.775L665.822 386.231C666.206 386.919 666.606 387.815 666.766 388.423L664.734 389.031C664.606 388.455 664.27 387.495 663.902 386.775Z" fill="black"/>
<g filter="url(#filter4_d_23_1165)">
<path d="M843.671 144.586C881.173 130.547 922.48 130.512 960.005 144.488C997.53 158.463 1028.75 185.51 1047.93 220.659C1067.12 255.809 1072.97 296.699 1064.42 335.819C1055.87 374.939 1033.5 409.66 1001.4 433.604C969.304 457.547 929.647 469.105 889.713 466.154C849.779 463.202 812.251 445.94 784.024 417.538C755.797 389.136 738.766 351.502 736.062 311.551C733.357 271.599 745.159 232.014 769.301 200.066L901.969 300.319L843.671 144.586Z" fill="#AC8EF5"/>
</g>
<g filter="url(#filter5_d_23_1165)">
<path d="M782.447 204.133C798.39 182.945 820.033 166.73 844.847 157.383L894.104 288.149L782.447 204.133Z" fill="#E1D4FF"/>
</g>
<path d="M843.94 353.061H846.591V375.487H843.94V353.061ZM840.549 361.014H849.6V363.689H840.549V361.014ZM840.501 355.02L842.507 354.518C843.152 356.262 843.63 358.53 843.725 360.035L841.576 360.584C841.528 359.08 841.074 356.763 840.501 355.02ZM848 354.423L850.436 354.948C849.815 356.859 849.099 359.104 848.502 360.513L846.663 360.011C847.164 358.507 847.737 356.095 848 354.423ZM851.105 362.782H859.511V365.432H851.105V362.782ZM858.484 362.782H861.231C861.231 362.782 861.231 363.546 861.207 363.88C860.92 370.734 860.658 373.314 859.989 374.197C859.487 374.866 858.962 375.105 858.269 375.2C857.649 375.32 856.645 375.32 855.595 375.272C855.547 374.532 855.284 373.433 854.878 372.74C855.714 372.812 856.431 372.836 856.837 372.836C857.171 372.836 857.362 372.788 857.577 372.502C858.007 371.952 858.269 369.636 858.484 363.259V362.782ZM853.183 364.238L855.905 364.334C855.475 369.683 854.09 373.266 850.675 375.511C850.341 374.961 849.385 373.911 848.836 373.457C851.869 371.737 852.968 368.633 853.183 364.238ZM855.117 353.682H858.914V356.309H855.117V353.682ZM852.036 354.518L854.711 354.996C854.042 358.507 852.8 361.731 850.962 363.808C850.532 363.307 849.529 362.328 848.932 361.898C850.556 360.178 851.559 357.456 852.036 354.518ZM856.669 353.682H859.607C860.108 357.05 861.326 360.322 863.189 362.137C862.544 362.59 861.47 363.57 860.968 364.238C859.01 361.993 857.744 358.459 857.171 355.02H856.669V353.682ZM842.388 364.597L844.275 365.265C843.821 367.988 842.842 371.355 841.337 373.051C841.098 372.096 840.501 370.71 840.071 369.827C841.098 368.609 842.03 366.412 842.388 364.597ZM847.594 364.668C848.096 365.241 849.863 367.821 850.245 368.465L848.406 370.495C847.929 369.254 846.734 366.794 846.113 365.743L847.594 364.668ZM881.984 361.683L884.014 360.728C885.089 362.376 886.188 364.549 886.594 365.982L884.373 367.056C884.062 365.647 883.011 363.379 881.984 361.683ZM882.51 368.155L884.803 367.391C885.662 369.039 886.498 371.212 886.856 372.645L884.42 373.528C884.134 372.072 883.298 369.827 882.51 368.155ZM876.372 367.439L878.856 367.94C878.378 370.137 877.518 372.382 876.563 373.815C876.038 373.433 874.915 372.931 874.294 372.669C875.297 371.379 875.99 369.373 876.372 367.439ZM870.999 362.662L873.005 362.065C873.673 363.57 874.438 365.623 874.7 366.841L872.599 367.558C872.336 366.316 871.667 364.238 870.999 362.662ZM868.252 369.134L870.306 368.609C870.617 370.233 870.879 372.263 870.975 373.624L868.825 374.197C868.778 372.788 868.515 370.71 868.252 369.134ZM865.506 368.824L867.655 369.254C867.297 371.307 866.7 373.552 866.127 374.961C865.625 374.723 864.598 374.436 864.025 374.293C864.67 372.884 865.219 370.734 865.506 368.824ZM864.909 362.543C864.789 362.065 864.383 360.895 864.097 360.25C864.598 360.131 865.028 359.677 865.577 358.936C866.127 358.244 867.846 355.521 868.873 352.918L871.237 353.921C869.9 356.572 868.109 359.366 866.389 361.277V361.325C866.389 361.325 864.909 362.089 864.909 362.543ZM864.909 362.543L864.837 360.656L865.983 359.916L870.282 359.581C870.139 360.274 869.996 361.229 869.996 361.778C866.151 362.161 865.362 362.328 864.909 362.543ZM865.076 368.083C864.956 367.606 864.55 366.364 864.24 365.695C864.885 365.552 865.458 365.003 866.318 364.071C867.249 363.187 870.067 359.653 871.882 356.214L874.079 357.647C872.026 361.014 869.327 364.358 866.724 366.77V366.841C866.724 366.841 865.076 367.63 865.076 368.083ZM865.076 368.083L864.956 366.149L866.127 365.385L873.315 364.382C873.22 365.026 873.172 365.982 873.196 366.507C866.676 367.534 865.721 367.773 865.076 368.083ZM870.999 368.609L872.933 367.916C873.506 369.206 874.127 370.925 874.414 372.048L872.384 372.836C872.145 371.69 871.524 369.946 870.999 368.609ZM879.381 364.979H881.984V372.812C881.984 374.006 881.841 374.627 881.077 375.033C880.337 375.415 879.334 375.439 878.02 375.439C877.901 374.723 877.614 373.743 877.304 373.027C878.02 373.075 878.808 373.075 879.047 373.075C879.31 373.051 879.381 373.003 879.381 372.764V364.979ZM875.823 361.611C875.68 361.11 875.297 359.963 875.035 359.342C875.465 359.247 875.847 358.841 876.324 358.22C876.802 357.647 878.307 355.402 879.19 353.205L881.531 354.208C880.36 356.429 878.736 358.769 877.256 360.369V360.393C877.256 360.393 875.823 361.158 875.823 361.611ZM875.823 361.611L875.751 359.796L876.85 359.08L881.172 358.769C881.029 359.414 880.91 360.346 880.91 360.847C877.041 361.229 876.277 361.396 875.823 361.611ZM875.847 366.985C875.727 366.483 875.297 365.265 875.011 364.597C875.68 364.453 876.229 363.928 877.089 363.092C878.02 362.256 880.838 359.008 882.677 355.784L884.826 357.241C882.749 360.393 880.05 363.474 877.471 365.695V365.743C877.471 365.743 875.847 366.507 875.847 366.985ZM875.847 366.985L875.775 365.17L876.993 364.429L884.468 363.808C884.325 364.453 884.229 365.385 884.229 365.886C877.471 366.531 876.468 366.698 875.847 366.985ZM902.666 357.48H910.547V359.987H902.666V357.48ZM903.192 353.038L905.556 353.491C904.744 358.029 903.383 362.805 901.687 365.91C901.305 365.432 900.374 364.501 899.848 364.095C901.401 361.42 902.523 357.169 903.192 353.038ZM906.583 359.104L909.019 359.295C908.183 367.534 905.962 372.597 900.087 375.582C899.848 375.033 899.156 373.958 898.702 373.457C904.099 371.045 905.986 366.459 906.583 359.104ZM904.028 359.796C904.887 365.767 906.75 370.949 910.834 373.218C910.261 373.696 909.425 374.723 909.043 375.439C904.744 372.621 903.001 367.009 902.022 360.083L904.028 359.796ZM893.687 353.061H895.836V365.815H893.687V353.061ZM891.967 356.286V359.82H897.699V356.286H891.967ZM889.818 354.494H899.944V361.635H889.818V354.494ZM891.776 363.928V364.979H897.794V363.928H891.776ZM889.412 362.328H900.278V366.603H889.412V362.328ZM888.146 356.978H890.534V357.121H898.535V356.978H901.21V359.008H898.535V358.865H890.534V359.008H888.146V356.978ZM889.627 371.427C890.845 369.922 892.349 367.582 893.185 365.671L895.454 366.173C894.499 368.227 893.018 370.495 891.919 371.952L889.627 371.427ZM889.627 371.427L891.442 369.946C894.475 370.663 898.153 372.072 900.35 373.194L898.559 374.794C896.481 373.624 892.731 372.167 889.627 371.427ZM896.839 366.961H899.084V368.155C899.084 370.663 897.914 373.982 889.03 375.463C888.839 374.938 888.313 374.078 887.907 373.624C895.979 372.382 896.839 369.827 896.839 368.059V366.961ZM888.409 367.653H901.066V369.564H888.409V367.653ZM929.858 370.328L917.606 365.6V363.116L929.858 358.363V361.277L924.842 362.996L921.165 364.31V364.405L924.842 365.695L929.858 367.415V370.328ZM942.788 373.672C939.993 373.672 938.131 372.573 936.793 371.26L938.441 369.039C939.42 370.018 940.686 370.83 942.31 370.83C944.173 370.83 945.438 369.66 945.438 367.558C945.438 365.504 944.244 364.358 942.477 364.358C941.426 364.358 940.853 364.62 939.826 365.289L938.202 364.238L938.704 355.665H948.161V358.602H941.737L941.402 362.352C942.095 362.041 942.716 361.874 943.528 361.874C946.489 361.874 948.973 363.617 948.973 367.486C948.973 371.403 946.036 373.672 942.788 373.672ZM957.328 373.672C953.722 373.672 951.334 370.543 951.334 364.429C951.334 358.339 953.722 355.354 957.328 355.354C960.91 355.354 963.299 358.339 963.299 364.429C963.299 370.543 960.91 373.672 957.328 373.672ZM957.328 370.925C958.857 370.925 959.979 369.397 959.979 364.429C959.979 359.486 958.857 358.053 957.328 358.053C955.8 358.053 954.653 359.486 954.653 364.429C954.653 369.397 955.8 370.925 957.328 370.925ZM966.543 373.337V355.665H970.077V363.331H970.125L976 355.665H979.893L974.472 362.614L980.824 373.337H976.979L972.394 365.409L970.077 368.37V373.337H966.543ZM853.579 411.162C851.31 407.484 849.997 403.591 849.997 398.815C849.997 394.062 851.31 390.145 853.579 386.467L855.753 387.399C853.746 390.886 852.839 394.922 852.839 398.815C852.839 402.731 853.746 406.767 855.753 410.254L853.579 411.162ZM867.849 392.892H880.817V395.59H867.849V392.892ZM867.849 398.432H880.817V401.131H867.849V398.432ZM867.849 403.949H880.817V406.743H867.849V403.949ZM865.771 387.351H882.799V408.224H879.766V390.169H868.661V408.224H865.771V387.351ZM899.421 388.115H901.451V395.208H899.421V388.115ZM902.74 388.115H904.77V395.208H902.74V388.115ZM904.269 403.925L906.347 402.827C907.493 403.973 908.735 405.502 909.356 406.552L907.159 407.842C906.609 406.767 905.367 405.096 904.269 403.925ZM897.415 402.803L899.922 403.519C899.063 405.191 897.749 406.934 896.531 408.033C896.053 407.603 895.003 406.863 894.406 406.505C895.6 405.573 896.77 404.164 897.415 402.803ZM895.385 386.945H909.021V389.214H895.385V386.945ZM896.818 396.952H907.636V399.125H896.818V396.952ZM895.409 400.08H909.069V402.325H895.409V400.08ZM898.155 392.319V394.086H906.132V392.319H898.155ZM895.838 390.265H908.592V396.14H895.838V390.265ZM900.854 401.465H903.409V408.463H900.854V401.465ZM887.408 390.527H895.337V393.154H887.408V390.527ZM890.393 386.061H892.973V408.487H890.393V386.061ZM890.202 392.486L891.683 393.154C891.014 396.856 889.653 401.465 888.101 403.973C887.838 403.113 887.193 401.8 886.763 401.036C888.22 399.053 889.581 395.28 890.202 392.486ZM892.901 394.134C893.45 394.802 895.385 397.835 895.815 398.552L894.143 400.462C893.617 399.053 892.304 396.331 891.635 395.137L892.901 394.134ZM922.921 388.808H933.071V391.363H922.921V388.808ZM923.16 386.038L925.715 386.635C924.831 389.596 923.303 392.486 921.679 394.301C921.201 393.871 920.103 393.131 919.506 392.796C921.106 391.196 922.443 388.617 923.16 386.038ZM923.924 393.895H932.307V396.379H923.924V393.895ZM921.082 398.838H933.118V401.418H921.082V398.838ZM924.019 391.745L926.599 392.342C925.811 394.707 924.473 397.023 923.088 398.504C922.586 398.074 921.488 397.334 920.867 396.999C922.252 395.734 923.398 393.752 924.019 391.745ZM925.715 395.328H928.485V398.6C928.485 401.561 927.53 405.693 922.061 408.535C921.655 407.961 920.795 407.054 920.15 406.576C925.333 404.236 925.715 400.821 925.715 398.576V395.328ZM910.98 389.715H920.437V392.366H910.98V389.715ZM914.92 395.137H918.765V397.716H914.92V395.137ZM913.177 391.316H915.876C915.804 398.695 915.541 404.713 912.58 408.463C912.174 407.818 911.314 406.887 910.622 406.457C913.129 403.209 913.129 397.931 913.177 391.316ZM917.476 395.137H920.127C920.127 395.137 920.127 395.901 920.103 396.235C919.983 403.424 919.864 406.075 919.267 406.911C918.813 407.579 918.335 407.818 917.643 407.938C917.046 408.033 916.114 408.033 915.135 408.033C915.087 407.245 914.801 406.17 914.419 405.502C915.207 405.573 915.852 405.573 916.234 405.573C916.544 405.573 916.735 405.525 916.926 405.239C917.285 404.713 917.38 402.373 917.476 395.638V395.137ZM913.631 386.778L916.162 385.918C916.831 386.945 917.619 388.33 917.977 389.214L915.279 390.169C914.968 389.262 914.228 387.853 913.631 386.778ZM927.602 402.731L929.775 401.585C931.017 403.304 932.689 405.645 933.453 407.102L931.112 408.439C930.396 406.982 928.844 404.522 927.602 402.731ZM946.612 390.647H956.762V393.25H946.612V390.647ZM946.922 395.423H956.308V398.05H946.922V395.423ZM946.086 400.534H957.263V403.233H946.086V400.534ZM946.66 386.993L948.928 386.205C949.693 387.399 950.338 388.999 950.552 390.098L948.116 391.005C947.949 389.906 947.352 388.235 946.66 386.993ZM953.705 386.038L956.475 386.659C955.83 388.163 955.186 389.715 954.636 390.742L952.272 390.145C952.773 389.023 953.418 387.303 953.705 386.038ZM950.146 391.984H952.917V408.487H950.146V391.984ZM934.814 391.101H946.349V393.489H934.814V391.101ZM936.152 387.16H945.203V397.405H936.032V394.993H942.552V389.572H936.152V387.16ZM937.274 399.244H939.877V408.487H937.274V399.244ZM938.325 399.244H945.633V407.34H938.325V404.881H942.839V401.704H938.325V399.244ZM938.42 388.091L941.143 388.187C940.809 395.208 939.829 400.677 936.39 404.164C936.056 403.591 935.101 402.445 934.528 401.943C937.513 399.101 938.229 394.11 938.42 388.091ZM966.782 411.162L964.585 410.254C966.591 406.767 967.522 402.731 967.522 398.815C967.522 394.922 966.591 390.886 964.585 387.399L966.782 386.467C969.027 390.145 970.34 394.062 970.34 398.815C970.34 403.591 969.027 407.484 966.782 411.162Z" fill="white"/>
<path d="M723.113 155.119H724.88V170.07H723.113V155.119ZM720.852 160.421H726.887V162.204H720.852V160.421ZM720.82 156.425L722.158 156.091C722.588 157.253 722.906 158.765 722.97 159.768L721.537 160.135C721.505 159.132 721.203 157.587 720.82 156.425ZM725.82 156.027L727.444 156.377C727.03 157.651 726.552 159.148 726.154 160.087L724.928 159.753C725.263 158.75 725.645 157.141 725.82 156.027ZM727.89 161.599H733.494V163.367H727.89V161.599ZM732.809 161.599H734.64C734.64 161.599 734.64 162.109 734.624 162.332C734.433 166.901 734.258 168.621 733.812 169.21C733.478 169.656 733.128 169.815 732.666 169.879C732.252 169.958 731.583 169.958 730.883 169.926C730.851 169.433 730.676 168.7 730.405 168.239C730.962 168.286 731.44 168.302 731.711 168.302C731.934 168.302 732.061 168.271 732.204 168.079C732.491 167.713 732.666 166.169 732.809 161.918V161.599ZM729.275 162.571L731.09 162.634C730.803 166.201 729.88 168.589 727.603 170.086C727.38 169.719 726.743 169.019 726.377 168.716C728.399 167.57 729.131 165.5 729.275 162.571ZM730.564 155.533H733.096V157.285H730.564V155.533ZM728.51 156.091L730.294 156.409C729.848 158.75 729.02 160.899 727.794 162.284C727.507 161.95 726.839 161.297 726.441 161.01C727.523 159.864 728.192 158.049 728.51 156.091ZM731.599 155.533H733.558C733.892 157.778 734.704 159.96 735.946 161.17C735.516 161.472 734.799 162.125 734.465 162.571C733.16 161.074 732.316 158.718 731.934 156.425H731.599V155.533ZM722.078 162.809L723.336 163.255C723.034 165.07 722.381 167.315 721.378 168.446C721.218 167.809 720.82 166.885 720.534 166.296C721.218 165.484 721.839 164.02 722.078 162.809ZM725.549 162.857C725.883 163.239 727.062 164.959 727.316 165.389L726.09 166.742C725.772 165.914 724.976 164.274 724.562 163.574L725.549 162.857ZM748.476 160.867L749.829 160.23C750.546 161.329 751.278 162.778 751.549 163.733L750.068 164.449C749.861 163.51 749.161 161.997 748.476 160.867ZM748.826 165.182L750.355 164.672C750.928 165.771 751.485 167.22 751.724 168.175L750.1 168.764C749.909 167.793 749.352 166.296 748.826 165.182ZM744.734 164.704L746.39 165.038C746.072 166.503 745.499 168 744.862 168.955C744.512 168.7 743.763 168.366 743.349 168.191C744.018 167.331 744.48 165.994 744.734 164.704ZM741.152 161.52L742.489 161.122C742.935 162.125 743.445 163.494 743.62 164.306L742.219 164.784C742.044 163.956 741.598 162.571 741.152 161.52ZM739.321 165.835L740.69 165.484C740.897 166.567 741.072 167.92 741.136 168.828L739.703 169.21C739.671 168.271 739.496 166.885 739.321 165.835ZM737.49 165.628L738.923 165.914C738.684 167.283 738.286 168.78 737.904 169.719C737.57 169.56 736.885 169.369 736.503 169.274C736.933 168.334 737.299 166.901 737.49 165.628ZM737.092 161.44C737.013 161.122 736.742 160.342 736.551 159.912C736.885 159.832 737.172 159.53 737.538 159.036C737.904 158.574 739.05 156.759 739.735 155.024L741.311 155.693C740.42 157.46 739.226 159.323 738.079 160.596V160.628C738.079 160.628 737.092 161.138 737.092 161.44ZM737.092 161.44L737.044 160.182L737.809 159.689L740.674 159.466C740.579 159.928 740.483 160.565 740.483 160.931C737.92 161.185 737.395 161.297 737.092 161.44ZM737.204 165.134C737.124 164.816 736.853 163.988 736.646 163.542C737.076 163.446 737.458 163.08 738.031 162.459C738.652 161.87 740.531 159.514 741.741 157.221L743.206 158.176C741.837 160.421 740.038 162.65 738.302 164.258V164.306C738.302 164.306 737.204 164.831 737.204 165.134ZM737.204 165.134L737.124 163.844L737.904 163.335L742.696 162.666C742.633 163.096 742.601 163.733 742.617 164.083C738.27 164.768 737.633 164.927 737.204 165.134ZM741.152 165.484L742.442 165.023C742.824 165.882 743.238 167.029 743.429 167.777L742.076 168.302C741.916 167.538 741.502 166.376 741.152 165.484ZM746.741 163.064H748.476V168.286C748.476 169.083 748.38 169.496 747.871 169.767C747.377 170.022 746.709 170.038 745.833 170.038C745.753 169.56 745.562 168.907 745.355 168.43C745.833 168.462 746.358 168.462 746.518 168.462C746.693 168.446 746.741 168.414 746.741 168.255V163.064ZM744.368 160.819C744.273 160.485 744.018 159.721 743.843 159.307C744.129 159.243 744.384 158.972 744.703 158.558C745.021 158.176 746.024 156.68 746.613 155.215L748.173 155.884C747.393 157.364 746.311 158.925 745.324 159.991V160.007C745.324 160.007 744.368 160.517 744.368 160.819ZM744.368 160.819L744.32 159.609L745.053 159.132L747.935 158.925C747.839 159.355 747.759 159.975 747.759 160.31C745.18 160.565 744.671 160.676 744.368 160.819ZM744.384 164.402C744.305 164.067 744.018 163.255 743.827 162.809C744.273 162.714 744.639 162.364 745.212 161.806C745.833 161.249 747.712 159.084 748.938 156.934L750.371 157.906C748.985 160.007 747.186 162.061 745.467 163.542V163.574C745.467 163.574 744.384 164.083 744.384 164.402ZM744.384 164.402L744.336 163.192L745.148 162.698L750.132 162.284C750.036 162.714 749.973 163.335 749.973 163.669C745.467 164.099 744.798 164.211 744.384 164.402ZM762.264 158.065H767.518V159.737H762.264V158.065ZM762.614 155.104L764.19 155.406C763.649 158.431 762.742 161.615 761.611 163.685C761.356 163.367 760.735 162.746 760.385 162.475C761.42 160.692 762.168 157.858 762.614 155.104ZM764.875 159.148L766.499 159.275C765.942 164.768 764.461 168.143 760.544 170.133C760.385 169.767 759.923 169.051 759.621 168.716C763.219 167.108 764.477 164.051 764.875 159.148ZM763.171 159.609C763.745 163.59 764.986 167.045 767.709 168.557C767.327 168.876 766.77 169.56 766.515 170.038C763.649 168.159 762.487 164.418 761.834 159.8L763.171 159.609ZM756.277 155.119H757.71V163.621H756.277V155.119ZM755.131 157.269V159.625H758.952V157.269H755.131ZM753.698 156.075H760.449V160.835H753.698V156.075ZM755.004 162.364V163.064H759.016V162.364H755.004ZM753.428 161.297H760.672V164.147H753.428V161.297ZM752.584 157.731H754.176V157.826H759.509V157.731H761.293V159.084H759.509V158.988H754.176V159.084H752.584V157.731ZM753.571 167.363C754.383 166.36 755.386 164.8 755.943 163.526L757.456 163.86C756.819 165.23 755.832 166.742 755.099 167.713L753.571 167.363ZM753.571 167.363L754.781 166.376C756.803 166.854 759.255 167.793 760.72 168.541L759.525 169.608C758.14 168.828 755.641 167.857 753.571 167.363ZM758.379 164.386H759.876V165.182C759.876 166.854 759.096 169.067 753.173 170.054C753.045 169.703 752.695 169.13 752.424 168.828C757.806 168 758.379 166.296 758.379 165.118V164.386ZM752.759 164.847H761.197V166.121H752.759V164.847ZM772.224 166.631V164.688L775.567 163.542L778.019 162.682V162.618L775.567 161.743L772.224 160.596V158.654L780.391 161.822V163.478L772.224 166.631ZM789.011 168.86C787.149 168.86 785.907 168.127 785.015 167.252L786.114 165.771C786.766 166.424 787.61 166.965 788.693 166.965C789.935 166.965 790.779 166.185 790.779 164.784C790.779 163.414 789.983 162.65 788.804 162.65C788.104 162.65 787.722 162.825 787.037 163.271L785.954 162.571L786.289 156.855H792.594V158.813H788.311L788.088 161.313C788.55 161.106 788.964 160.994 789.505 160.994C791.479 160.994 793.135 162.157 793.135 164.736C793.135 167.347 791.177 168.86 789.011 168.86ZM798.705 168.86C796.301 168.86 794.709 166.774 794.709 162.698C794.709 158.638 796.301 156.648 798.705 156.648C801.093 156.648 802.685 158.638 802.685 162.698C802.685 166.774 801.093 168.86 798.705 168.86ZM798.705 167.029C799.724 167.029 800.472 166.01 800.472 162.698C800.472 159.402 799.724 158.447 798.705 158.447C797.686 158.447 796.922 159.402 796.922 162.698C796.922 166.01 797.686 167.029 798.705 167.029ZM804.848 168.637V156.855H807.205V161.966H807.236L811.153 156.855H813.748L810.134 161.488L814.369 168.637H811.806L808.749 163.351L807.205 165.325V168.637H804.848Z" fill="#677483"/>
</g>
<defs>
<filter id="filter0_d_23_1165" x="-9" y="183.123" width="225.642" height="91.6367" filterUnits="userSpaceOnUse" color-interpolation-filters="sRGB">
<feFlood flood-opacity="0" result="BackgroundImageFix"/>
<feColorMatrix in="SourceAlpha" type="matrix" values="0 0 0 0 0 0 0 0 0 0 0 0 0 0 0 0 0 0 127 0" result="hardAlpha"/>
<feOffset dy="5"/>
<feGaussianBlur stdDeviation="3.5"/>
<feColorMatrix type="matrix" values="0 0 0 0 0 0 0 0 0 0 0 0 0 0 0 0 0 0 0.1 0"/>
<feBlend mode="normal" in2="BackgroundImageFix" result="effect1_dropShadow_23_1165"/>
<feBlend mode="normal" in="SourceGraphic" in2="effect1_dropShadow_23_1165" result="shape"/>
</filter>
<filter id="filter1_d_23_1165" x="-9" y="307.177" width="225.642" height="89.6465" filterUnits="userSpaceOnUse" color-interpolation-filters="sRGB">
<feFlood flood-opacity="0" result="BackgroundImageFix"/>
<feColorMatrix in="SourceAlpha" type="matrix" values="0 0 0 0 0 0 0 0 0 0 0 0 0 0 0 0 0 0 127 0" result="hardAlpha"/>
<feOffset dy="5"/>
<feGaussianBlur stdDeviation="3.5"/>
<feColorMatrix type="matrix" values="0 0 0 0 0 0 0 0 0 0 0 0 0 0 0 0 0 0 0.1 0"/>
<feBlend mode="normal" in2="BackgroundImageFix" result="effect1_dropShadow_23_1165"/>
<feBlend mode="normal" in="SourceGraphic" in2="effect1_dropShadow_23_1165" result="shape"/>
</filter>
<filter id="filter2_d_23_1165" x="473.959" y="278.662" width="130.757" height="59.1108" filterUnits="userSpaceOnUse" color-interpolation-filters="sRGB">
<feFlood flood-opacity="0" result="BackgroundImageFix"/>
<feColorMatrix in="SourceAlpha" type="matrix" values="0 0 0 0 0 0 0 0 0 0 0 0 0 0 0 0 0 0 127 0" result="hardAlpha"/>
<feOffset dy="5"/>
<feGaussianBlur stdDeviation="3.5"/>
<feColorMatrix type="matrix" values="0 0 0 0 0 0 0 0 0 0 0 0 0 0 0 0 0 0 0.1 0"/>
<feBlend mode="normal" in2="BackgroundImageFix" result="effect1_dropShadow_23_1165"/>
<feBlend mode="normal" in="SourceGraphic" in2="effect1_dropShadow_23_1165" result="shape"/>
</filter>
<filter id="filter3_d_23_1165" x="574.795" y="346.991" width="130.757" height="81.0024" filterUnits="userSpaceOnUse" color-interpolation-filters="sRGB">
<feFlood flood-opacity="0" result="BackgroundImageFix"/>
<feColorMatrix in="SourceAlpha" type="matrix" values="0 0 0 0 0 0 0 0 0 0 0 0 0 0 0 0 0 0 127 0" result="hardAlpha"/>
<feOffset dy="5"/>
<feGaussianBlur stdDeviation="3.5"/>
<feColorMatrix type="matrix" values="0 0 0 0 0 0 0 0 0 0 0 0 0 0 0 0 0 0 0.1 0"/>
<feBlend mode="normal" in2="BackgroundImageFix" result="effect1_dropShadow_23_1165"/>
<feBlend mode="normal" in="SourceGraphic" in2="effect1_dropShadow_23_1165" result="shape"/>
</filter>
<filter id="filter4_d_23_1165" x="731.038" y="132.704" width="341.862" height="341.862" filterUnits="userSpaceOnUse" color-interpolation-filters="sRGB">
<feFlood flood-opacity="0" result="BackgroundImageFix"/>
<feColorMatrix in="SourceAlpha" type="matrix" values="0 0 0 0 0 0 0 0 0 0 0 0 0 0 0 0 0 0 127 0" result="hardAlpha"/>
<feOffset dy="3.31696"/>
<feGaussianBlur stdDeviation="2.32187"/>
<feColorMatrix type="matrix" values="0 0 0 0 0 0 0 0 0 0 0 0 0 0 0 0 0 0 0.1 0"/>
<feBlend mode="normal" in2="BackgroundImageFix" result="effect1_dropShadow_23_1165"/>
<feBlend mode="normal" in="SourceGraphic" in2="effect1_dropShadow_23_1165" result="shape"/>
</filter>
<filter id="filter5_d_23_1165" x="777.804" y="156.057" width="120.944" height="140.054" filterUnits="userSpaceOnUse" color-interpolation-filters="sRGB">
<feFlood flood-opacity="0" result="BackgroundImageFix"/>
<feColorMatrix in="SourceAlpha" type="matrix" values="0 0 0 0 0 0 0 0 0 0 0 0 0 0 0 0 0 0 127 0" result="hardAlpha"/>
<feOffset dy="3.31696"/>
<feGaussianBlur stdDeviation="2.32187"/>
<feColorMatrix type="matrix" values="0 0 0 0 0 0 0 0 0 0 0 0 0 0 0 0 0 0 0.1 0"/>
<feBlend mode="normal" in2="BackgroundImageFix" result="effect1_dropShadow_23_1165"/>
<feBlend mode="normal" in="SourceGraphic" in2="effect1_dropShadow_23_1165" result="shape"/>
</filter>
<linearGradient id="paint0_linear_23_1165" x1="362.875" y1="238.642" x2="43.7836" y2="238.642" gradientUnits="userSpaceOnUse">
<stop stop-color="#E7C3E7"/>
<stop offset="1" stop-color="white" stop-opacity="0"/>
</linearGradient>
<linearGradient id="paint1_linear_23_1165" x1="605.346" y1="287.958" x2="605.346" y2="374.863" gradientUnits="userSpaceOnUse">
<stop stop-color="#E7D9E7"/>
<stop offset="1" stop-color="#E1D4FF"/>
</linearGradient>
<clipPath id="clip0_23_1165">
<rect width="1116" height="501" fill="white"/>
</clipPath>
</defs>
</svg>
