<svg width="40" height="40" viewBox="0 0 40 40" fill="none" xmlns="http://www.w3.org/2000/svg">
<rect width="40" height="40" rx="8" fill="#EEEEEE"/>
<path d="M25.424 12.896L26.848 14.352C24.576 15.072 21.488 15.568 18.816 15.84C18.736 15.408 18.48 14.72 18.288 14.32C20.848 14.032 23.696 13.504 25.424 12.896ZM17.776 13.824L19.648 14.432V23.424H17.776V13.824ZM16.752 23.056C18.256 22.88 20.432 22.576 22.528 22.24L22.624 23.968C20.72 24.272 18.688 24.592 17.12 24.832L16.752 23.056ZM18.912 17.824H27.488V19.552H18.912V17.824ZM22.096 14.704H24.032C23.984 19.792 25.008 25.04 25.92 25.04C26.16 25.04 26.288 24.352 26.336 22.864C26.736 23.28 27.36 23.68 27.824 23.872C27.584 26.352 26.992 26.912 25.728 26.912C23.184 26.912 22.208 20.688 22.096 14.704ZM17.312 25.44H23.744V27.12H17.312V25.44ZM15.792 12.48L17.6 13.04C16.56 15.776 14.896 18.656 13.152 20.48C12.976 20.016 12.464 18.96 12.128 18.496C13.584 17.04 14.976 14.768 15.792 12.48ZM14.24 16.896L16.064 15.072L16.08 15.088V27.424H14.24V16.896Z" fill="#919191"/>
</svg>
