<svg width="200" height="200" viewBox="0 0 200 200" fill="none" xmlns="http://www.w3.org/2000/svg">
<circle cx="100" cy="100" r="100" fill="white"/>
<path d="M123.182 141.727V132.455C123.182 127.536 121.228 122.819 117.75 119.341C114.272 115.863 109.555 113.909 104.636 113.909H67.5454C62.6268 113.909 57.9098 115.863 54.4318 119.341C50.9539 122.819 49 127.536 49 132.455V141.727" fill="#E0D3FF"/>
<path d="M123.182 141.727V132.455C123.182 127.536 121.228 122.819 117.75 119.341C114.272 115.863 109.555 113.909 104.636 113.909H67.5454C62.6268 113.909 57.9098 115.863 54.4318 119.341C50.9539 122.819 49 127.536 49 132.455V141.727" stroke="#8B6CD9" stroke-width="4" stroke-linecap="round" stroke-linejoin="round"/>
<path d="M86.0903 95.3634C96.3326 95.3634 104.636 87.0603 104.636 76.818C104.636 66.5756 96.3326 58.2725 86.0903 58.2725C75.848 58.2725 67.5449 66.5756 67.5449 76.818C67.5449 87.0603 75.848 95.3634 86.0903 95.3634Z" fill="#E0D3FF" stroke="#8B6CD9" stroke-width="4" stroke-linecap="round" stroke-linejoin="round"/>
<path d="M151 141.725V132.453C150.997 128.343 149.629 124.352 147.112 121.104C144.594 117.857 141.069 115.537 137.091 114.51" stroke="#8B6CD9" stroke-width="4" stroke-linecap="round" stroke-linejoin="round"/>
<path d="M118.545 58.875C122.534 59.8964 126.07 62.2164 128.595 65.4694C131.12 68.7223 132.49 72.7231 132.49 76.8409C132.49 80.9588 131.12 84.9596 128.595 88.2125C126.07 91.4655 122.534 93.7855 118.545 94.8069" stroke="#8B6CD9" stroke-width="4" stroke-linecap="round" stroke-linejoin="round"/>
</svg>
