<svg width="153" height="153" viewBox="0 0 153 153" fill="none" xmlns="http://www.w3.org/2000/svg">
<circle cx="76.5417" cy="76.9381" r="76.0417" fill="#F3EEFF"/>
<path d="M117.191 67.1451V108.394C117.191 112.205 114.11 115.286 110.299 115.286H42.1818C38.3705 115.286 35.2891 112.205 35.2891 108.394V67.1451C35.2891 66.4153 35.4242 65.6855 35.7215 65.0097C36.0189 64.2799 36.4514 63.6042 37.046 63.0635L70.1583 31.465C73.5642 28.2213 78.9162 28.2213 82.3491 31.465L115.461 63.0635C116.056 63.6312 116.488 64.2799 116.786 65.0097C117.029 65.6855 117.191 66.4153 117.191 67.1451Z" fill="#E1D4FF" stroke="#8B6CD9" stroke-width="3.04167" stroke-miterlimit="10" stroke-linejoin="round"/>
<path d="M116.758 69.3447L104.973 77.2917L86.187 89.9419C80.1863 93.9965 72.3204 93.9965 66.2926 89.9419L47.5065 77.2917L35.7212 69.3447" stroke="#8B6CD9" stroke-width="3.04167" stroke-miterlimit="10" stroke-linejoin="round"/>
<g opacity="0.7">
<path d="M54.507 109.133H44.1813C43.3704 109.133 42.7217 108.485 42.7217 107.674V102.727C42.7217 101.916 43.3704 101.268 44.1813 101.268H54.507C55.3179 101.268 55.9666 101.916 55.9666 102.727V107.674C55.9666 108.485 55.3179 109.133 54.507 109.133Z" fill="white"/>
<path d="M54.399 97.9967H44.0734C43.2625 97.9967 42.6138 97.348 42.6138 96.5371V91.5905C42.6138 90.7796 43.2625 90.1309 44.0734 90.1309H54.399C55.21 90.1309 55.8587 90.7796 55.8587 91.5905V96.5371C55.8317 97.348 55.1829 97.9967 54.399 97.9967Z" fill="white"/>
</g>
<path d="M104.895 58.2865V75.7982L83.1357 90.3202C78.919 93.77 73.4318 93.77 69.2151 90.3202L47.4556 75.7982V58.2865C47.4556 57.6623 47.861 57.1694 48.3746 57.1694H103.976C104.463 57.1366 104.895 57.6623 104.895 58.2865Z" fill="white" stroke="#8B6CD9" stroke-width="3.04167" stroke-miterlimit="10" stroke-linejoin="round"/>
<path d="M61.8086 82.9639H90.5149" stroke="#8B6CD9" stroke-width="3.04167" stroke-miterlimit="10" stroke-linecap="round" stroke-linejoin="round"/>
<path d="M61.8086 75.5693H90.5149" stroke="#8B6CD9" stroke-width="3.04167" stroke-miterlimit="10" stroke-linecap="round" stroke-linejoin="round"/>
<path d="M61.8086 68.1758H90.5149" stroke="#8B6CD9" stroke-width="3.04167" stroke-miterlimit="10" stroke-linecap="round" stroke-linejoin="round"/>
</svg>
