<svg width="150" height="150" viewBox="0 0 150 150" fill="none" xmlns="http://www.w3.org/2000/svg">
<circle cx="75.2475" cy="74.8305" r="74.7133" fill="#F3EEFF"/>
<path d="M38.2646 79.4517C38.2646 76.8985 40.3344 74.8288 42.8875 74.8288H52.1333C54.6865 74.8288 56.7562 76.8985 56.7562 79.4517V107.189C56.7562 109.742 54.6865 111.812 52.1333 111.812H42.8875C40.3344 111.812 38.2646 109.742 38.2646 107.189V79.4517Z" fill="#E1D4FF"/>
<path d="M66.002 60.9601C66.002 58.407 68.0717 56.3372 70.6249 56.3372H79.8706C82.4238 56.3372 84.4935 58.407 84.4935 60.9601V107.189C84.4935 109.742 82.4238 111.812 79.8706 111.812H70.6249C68.0717 111.812 66.002 109.742 66.002 107.189V60.9601Z" fill="#E1D4FF"/>
<path d="M93.7393 42.4686C93.7393 39.9154 95.809 37.8457 98.3622 37.8457H107.608C110.161 37.8457 112.231 39.9154 112.231 42.4686V107.189C112.231 109.742 110.161 111.812 107.608 111.812H98.3622C95.809 111.812 93.7393 109.742 93.7393 107.189V42.4686Z" fill="#E1D4FF"/>
<path d="M38.2646 79.4517C38.2646 76.8985 40.3344 74.8288 42.8875 74.8288H52.1333C54.6865 74.8288 56.7562 76.8985 56.7562 79.4517V107.189C56.7562 109.742 54.6865 111.812 52.1333 111.812H42.8875C40.3344 111.812 38.2646 109.742 38.2646 107.189V79.4517Z" stroke="#8B6CD9" stroke-width="2.98853" stroke-linecap="round" stroke-linejoin="round"/>
<path d="M66.002 60.9601C66.002 58.407 68.0717 56.3372 70.6249 56.3372H79.8706C82.4238 56.3372 84.4935 58.407 84.4935 60.9601V107.189C84.4935 109.742 82.4238 111.812 79.8706 111.812H70.6249C68.0717 111.812 66.002 109.742 66.002 107.189V60.9601Z" stroke="#8B6CD9" stroke-width="2.98853" stroke-linecap="round" stroke-linejoin="round"/>
<path d="M93.7393 42.4686C93.7393 39.9154 95.809 37.8457 98.3622 37.8457H107.608C110.161 37.8457 112.231 39.9154 112.231 42.4686V107.189C112.231 109.742 110.161 111.812 107.608 111.812H98.3622C95.809 111.812 93.7393 109.742 93.7393 107.189V42.4686Z" stroke="#8B6CD9" stroke-width="2.98853" stroke-linecap="round" stroke-linejoin="round"/>
</svg>
