<svg width="152" height="153" viewBox="0 0 152 153" fill="none" xmlns="http://www.w3.org/2000/svg">
<circle cx="76.1052" cy="76.2854" r="75.7629" fill="#F3EEFF"/>
<path d="M118.991 112.345V98.5627C118.991 86.5033 112.706 81.335 106.42 81.335H87.5636C83.1886 81.335 78.4735 84.3345 76.2178 89.9234C74.45 84.2168 70.2271 81.3348 65.8521 81.3348C57.9952 81.3348 57.7074 81.335 46.7077 81.335C40.4222 81.335 34.1367 86.5033 34.1367 98.5627V112.345" fill="#F3EEFF"/>
<path d="M118.717 112.652V98.8462C118.717 86.7663 115.543 81.5892 112.37 81.5892H102.849C100.639 81.5892 99.7132 81.589 97.2946 82.3468C95.2214 80.4527 94.0949 81.589 91.8859 81.589C87.9187 81.589 87.7735 81.5892 82.2195 81.5892C79.0458 81.5892 75.8721 86.7663 75.8721 98.8462V112.652" fill="#E1D4FF"/>
<path d="M43.5269 55.1478C43.5269 60.9058 44.8958 64.2376 46.6521 66.6638C48.8891 69.7564 52.4433 70.9823 56.0277 70.9823C59.7481 70.9823 63.1633 69.7564 65.4034 66.6638C67.1582 64.2376 68.5286 60.9058 68.5286 55.1478C68.5286 52.0552 66.8456 42.1924 56.0277 42.1924C45.2099 42.1924 43.5269 49.9928 43.5269 55.1478Z" fill="#F3EEFF"/>
<path d="M84.439 55.1478C84.439 60.9058 85.8079 64.2376 87.5642 66.6638C89.8012 69.7564 93.3554 70.9823 96.9398 70.9823C100.66 70.9823 104.075 69.7564 106.316 66.6638C108.07 64.2376 109.441 60.9058 109.441 55.1478C109.441 52.0552 107.758 42.1924 96.9398 42.1924C86.1221 42.1924 84.439 49.9928 84.439 55.1478Z" fill="#E1D4FF"/>
<path d="M74.9926 110.622V98.5627C74.9926 86.5033 81.2781 81.335 87.5636 81.335H106.42C112.706 81.335 118.991 86.5033 118.991 98.5627V110.622M34.1367 110.622V98.5627C34.1367 86.5033 40.4222 81.335 46.7077 81.335H65.5643C67.9705 81.335 70.3735 82.2502 72.4269 84.0032" stroke="#8B6CD9" stroke-width="3.78815" stroke-linecap="round" stroke-linejoin="round"/>
<path d="M43.5269 55.4888C43.5269 61.3983 44.8958 64.8177 46.6521 67.3078C48.8891 70.4818 52.4433 71.7399 56.0277 71.7399C59.7481 71.7399 63.1633 70.4818 65.4034 67.3078C67.1582 64.8177 68.5286 61.3983 68.5286 55.4888C68.5286 52.3148 66.8456 42.1924 56.0277 42.1924C45.2099 42.1924 43.5269 50.1981 43.5269 55.4888Z" stroke="#8B6CD9" stroke-width="3.78815" stroke-linejoin="round"/>
<path d="M84.439 55.4888C84.439 61.3983 85.8079 64.8177 87.5642 67.3078C89.8012 70.4818 93.3554 71.7399 96.9398 71.7399C100.66 71.7399 104.075 70.4818 106.316 67.3078C108.07 64.8177 109.441 61.3983 109.441 55.4888C109.441 52.3148 107.758 42.1924 96.9398 42.1924C86.1221 42.1924 84.439 50.1981 84.439 55.4888Z" stroke="#8B6CD9" stroke-width="3.78815" stroke-linejoin="round"/>
</svg>
