<svg width="151" height="150" viewBox="0 0 151 150" fill="none" xmlns="http://www.w3.org/2000/svg">
<circle cx="75.371" cy="74.8305" r="74.7133" fill="#F3EEFF"/>
<circle cx="44.7385" cy="44.9461" r="7.47133" fill="#E1D4FF" stroke="#8B6CD9" stroke-width="2.98853"/>
<circle cx="44.7385" cy="74.8308" r="7.47133" fill="#E1D4FF" stroke="#8B6CD9" stroke-width="2.98853"/>
<circle cx="44.7385" cy="104.717" r="7.47133" fill="#E1D4FF" stroke="#8B6CD9" stroke-width="2.98853"/>
<path d="M58.187 44.9463H81.3481C86.2997 44.9463 90.3137 48.9603 90.3137 53.9119V95.7513C90.3137 100.703 86.2997 104.717 81.3481 104.717H58.187" stroke="#8B6CD9" stroke-width="2.98853" stroke-linecap="round"/>
<path d="M58.187 74.832H90.3137" stroke="#8B6CD9" stroke-width="2.98853" stroke-linecap="round"/>
<rect x="90.3136" y="71.0958" width="24.6554" height="7.47133" fill="#E1D4FF" stroke="#8B6CD9" stroke-width="2.98853"/>
<path d="M126.361 73.5327C127.111 74.1096 127.111 75.552 126.361 76.129L116.657 83.5934C115.907 84.1703 114.969 83.4491 114.969 82.2952L114.969 67.3664C114.969 66.2125 115.907 65.4913 116.657 66.0683L126.361 73.5327Z" fill="#E1D4FF" stroke="#8B6CD9" stroke-width="2.98853"/>
</svg>
