<svg width="151" height="150" viewBox="0 0 151 150" fill="none" xmlns="http://www.w3.org/2000/svg">
<circle cx="75.495" cy="74.8305" r="74.7133" fill="#F3EEFF"/>
<path d="M69.383 56.0455C69.5884 54.8127 70.655 53.9092 71.9048 53.9092H77.7996C79.0494 53.9092 80.116 54.8127 80.3215 56.0455L80.8067 58.9567C80.9483 59.8067 81.5164 60.5148 82.2703 60.9321C82.4389 61.0254 82.6055 61.1218 82.7701 61.2212C83.5088 61.6672 84.4072 61.8059 85.2152 61.5032L87.9806 60.4672C89.1509 60.0287 90.4667 60.5007 91.0916 61.583L94.039 66.6881C94.6639 67.7704 94.4147 69.1459 93.4498 69.9402L91.1674 71.8192C90.5027 72.3664 90.1732 73.2114 90.1891 74.0723C90.1909 74.1686 90.1918 74.2652 90.1918 74.3619C90.1918 74.4587 90.1909 74.5553 90.1891 74.6516C90.1732 75.5125 90.5027 76.3575 91.1674 76.9047L93.4498 78.7837C94.4147 79.578 94.6639 80.9534 94.039 82.0358L91.0916 87.1409C90.4667 88.2232 89.1509 88.6951 87.9806 88.2567L85.2153 87.2207C84.4072 86.918 83.5088 87.0566 82.7702 87.5027C82.6056 87.6021 82.4389 87.6985 82.2703 87.7918C81.5164 88.2091 80.9483 88.9172 80.8067 89.7672L80.3215 92.6784C80.116 93.9112 79.0494 94.8147 77.7996 94.8147H71.9048C70.655 94.8147 69.5884 93.9112 69.383 92.6784L68.8978 89.7672C68.7561 88.9172 68.188 88.2091 67.4341 87.7918C67.2655 87.6985 67.0989 87.6021 66.9343 87.5027C66.1956 87.0567 65.2972 86.918 64.4892 87.2207L61.7238 88.2567C60.5535 88.6952 59.2377 88.2232 58.6128 87.1409L55.6654 82.0358C55.0405 80.9535 55.2897 79.578 56.2546 78.7837L58.537 76.9047C59.2017 76.3575 59.5313 75.5125 59.5153 74.6516C59.5135 74.5553 59.5126 74.4587 59.5126 74.3619C59.5126 74.2652 59.5135 74.1686 59.5153 74.0723C59.5313 73.2114 59.2017 72.3664 58.537 71.8192L56.2546 69.9402C55.2897 69.1459 55.0405 67.7705 55.6654 66.6881L58.6128 61.583C59.2377 60.5007 60.5535 60.0288 61.7238 60.4672L64.4892 61.5032C65.2972 61.8059 66.1956 61.6673 66.9343 61.2212C67.0989 61.1218 67.2655 61.0254 67.4341 60.9321C68.188 60.5148 68.7561 59.8067 68.8978 58.9567L69.383 56.0455Z" fill="#E1D4FF"/>
<path d="M81.6693 74.3618C81.6693 78.127 78.6169 81.1794 74.8517 81.1794C71.0864 81.1794 68.0341 78.127 68.0341 74.3618C68.0341 70.5965 71.0864 67.5442 74.8517 67.5442C78.6169 67.5442 81.6693 70.5965 81.6693 74.3618Z" fill="#E1D4FF"/>
<path d="M69.653 56.1392C69.8585 54.9065 70.925 54.0029 72.1748 54.0029H78.0697C79.3194 54.0029 80.386 54.9065 80.5915 56.1392L81.0767 59.0504C81.2183 59.9005 81.7864 60.6085 82.5404 61.0259C82.7089 61.1192 82.8756 61.2156 83.0402 61.315C83.7788 61.761 84.6772 61.8997 85.4852 61.5969L88.2506 60.5609C89.4209 60.1225 90.7367 60.5944 91.3616 61.6767L94.309 66.7818C94.9339 67.8642 94.6847 69.2396 93.7199 70.0339L91.4374 71.9129C90.7727 72.4601 90.4432 73.3052 90.4591 74.166C90.4609 74.2624 90.4618 74.3589 90.4618 74.4557C90.4618 74.5525 90.4609 74.649 90.4591 74.7453C90.4432 75.6062 90.7727 76.4512 91.4374 76.9985L93.7199 78.8774C94.6847 79.6717 94.9339 81.0472 94.309 82.1295L91.3616 87.2346C90.7367 88.3169 89.4209 88.7889 88.2506 88.3504L85.4853 87.3144C84.6772 87.0117 83.7788 87.1504 83.0402 87.5964C82.8756 87.6958 82.7089 87.7922 82.5404 87.8855C81.7864 88.3029 81.2183 89.0109 81.0767 89.861L80.5915 92.7722C80.386 94.0049 79.3194 94.9085 78.0697 94.9085H72.1748C70.925 94.9085 69.8585 94.0049 69.653 92.7722L69.1678 89.861C69.0261 89.0109 68.458 88.3029 67.7041 87.8855C67.5355 87.7922 67.3689 87.6958 67.2043 87.5964C66.4657 87.1504 65.5673 87.0117 64.7592 87.3145L61.9939 88.3505C60.8235 88.7889 59.5077 88.317 58.8829 87.2347L55.9354 82.1296C55.3106 81.0472 55.5597 79.6718 56.5246 78.8775L58.807 76.9985C59.4718 76.4513 59.8013 75.6062 59.7853 74.7454C59.7836 74.649 59.7827 74.5525 59.7827 74.4557C59.7827 74.3589 59.7836 74.2624 59.7853 74.1661C59.8013 73.3052 59.4718 72.4602 58.807 71.9129L56.5246 70.034C55.5597 69.2397 55.3106 67.8642 55.9354 66.7819L58.8829 61.6768C59.5077 60.5945 60.8235 60.1225 61.9939 60.561L64.7592 61.597C65.5672 61.8997 66.4656 61.761 67.2043 61.315C67.3689 61.2156 67.5355 61.1192 67.7041 61.0259C68.458 60.6085 69.0261 59.9005 69.1678 59.0504L69.653 56.1392Z" stroke="#8B6CD9" stroke-width="2.98853" stroke-linecap="round" stroke-linejoin="round"/>
<path d="M81.9393 74.4555C81.9393 78.2208 78.887 81.2731 75.1217 81.2731C71.3565 81.2731 68.3041 78.2208 68.3041 74.4555C68.3041 70.6903 71.3565 67.6379 75.1217 67.6379C78.887 67.6379 81.9393 70.6903 81.9393 74.4555Z" stroke="#8B6CD9" stroke-width="2.98853" stroke-linecap="round" stroke-linejoin="round"/>
<path d="M116.836 74.6865C116.836 79.0879 120.404 82.6559 124.805 82.6559C129.206 82.6559 132.774 79.0879 132.774 74.6865C132.774 70.2851 129.206 66.7171 124.805 66.7171C120.404 66.7171 116.836 70.2851 116.836 74.6865ZM31.6403 46.5285C31.1747 47.2099 31.3496 48.1397 32.031 48.6053C32.7124 49.0709 33.6422 48.8959 34.1078 48.2146L31.6403 46.5285ZM74.6135 27.0138C101.537 27.0138 123.311 48.3865 123.311 74.6865H126.299C126.299 46.6782 103.13 24.0253 74.6135 24.0253V27.0138ZM34.1078 48.2146C42.8402 35.4352 57.7174 27.0138 74.6135 27.0138V24.0253C56.7056 24.0253 40.9157 32.9546 31.6403 46.5285L34.1078 48.2146Z" fill="#8B6CD9"/>
<path d="M18.2152 74.9736C18.2152 79.375 21.7832 82.9431 26.1846 82.9431C30.586 82.9431 34.154 79.375 34.154 74.9736C34.154 70.5722 30.586 67.0042 26.1846 67.0042C21.7832 67.0042 18.2152 70.5722 18.2152 74.9736ZM119.943 102.243C120.394 101.552 120.2 100.626 119.509 100.175C118.817 99.7237 117.892 99.9182 117.44 100.609L119.943 102.243ZM76.376 122.646C49.4521 122.646 27.6788 101.274 27.6788 74.9736H24.6903C24.6903 102.982 47.86 125.635 76.376 125.635V122.646ZM117.44 100.609C108.793 113.856 93.6382 122.646 76.376 122.646V125.635C94.6718 125.635 110.757 116.315 119.943 102.243L117.44 100.609Z" fill="#8B6CD9"/>
</svg>
