<svg width="153" height="153" viewBox="0 0 153 153" fill="none" xmlns="http://www.w3.org/2000/svg">
<circle cx="76.7087" cy="76.9381" r="76.0417" fill="#F3EEFF"/>
<path d="M118.783 76.7911C118.783 81.2708 122.415 84.9022 126.895 84.9022C131.374 84.9022 135.006 81.2708 135.006 76.7911C135.006 72.3115 131.374 68.68 126.895 68.68C122.415 68.68 118.783 72.3115 118.783 76.7911ZM32.0734 48.1325C31.5996 48.826 31.7776 49.7723 32.4711 50.2462C33.1646 50.7201 34.1109 50.542 34.5848 49.8485L32.0734 48.1325ZM75.8107 28.2708C103.213 28.2708 125.374 50.0235 125.374 76.7911H128.415C128.415 48.2848 104.834 25.2292 75.8107 25.2292V28.2708ZM34.5848 49.8485C43.4725 36.842 58.6141 28.2708 75.8107 28.2708V25.2292C57.5844 25.2292 41.5137 34.3173 32.0734 48.1325L34.5848 49.8485Z" fill="#8B6CD9"/>
<path d="M18.4099 77.084C18.4099 81.5636 22.0414 85.1951 26.521 85.1951C31.0006 85.1951 34.6321 81.5636 34.6321 77.084C34.6321 72.6043 31.0006 68.9729 26.521 68.9729C22.0414 68.9729 18.4099 72.6043 18.4099 77.084ZM121.946 104.838C122.406 104.135 122.208 103.192 121.504 102.733C120.801 102.274 119.859 102.472 119.399 103.175L121.946 104.838ZM77.6048 125.604C50.2022 125.604 28.0418 103.852 28.0418 77.084H25.0002C25.0002 105.59 48.5818 128.646 77.6048 128.646V125.604ZM119.399 103.175C110.598 116.658 95.1739 125.604 77.6048 125.604V128.646C96.2259 128.646 112.597 119.16 121.946 104.838L119.399 103.175Z" fill="#8B6CD9"/>
<path d="M98.6675 79.838L99.2049 74.1282C99.6269 69.6438 99.8379 67.4017 99.0708 66.4748C98.6558 65.9734 98.0914 65.6662 97.4882 65.6132C96.3728 65.5152 94.9721 67.1098 92.1708 70.2989C90.7221 71.9481 89.9978 72.7727 89.1896 72.9005C88.742 72.9711 88.2858 72.8984 87.8722 72.6904C87.1261 72.3148 86.6286 71.2954 85.6335 69.2565L80.3891 58.5096C78.5089 54.6569 77.5688 52.7305 76.1381 52.7305C74.7074 52.7305 73.7672 54.6569 71.887 58.5096L66.6425 69.2566C65.6475 71.2954 65.15 72.3148 64.4039 72.6904C63.9904 72.8984 63.5342 72.9711 63.0864 72.9005C62.2784 72.7727 61.554 71.9481 60.1053 70.2989C57.3039 67.1098 55.9033 65.5152 54.788 65.6132C54.1846 65.6662 53.6203 65.9734 53.2053 66.4748C52.4382 67.4017 52.6492 69.6438 53.0713 74.1282L53.6086 79.838C54.4941 89.246 54.9368 93.95 57.7096 96.7863C60.4824 99.6228 64.6381 99.6228 72.9496 99.6228H79.3265C87.638 99.6228 91.7938 99.6228 94.5665 96.7863C97.3393 93.95 97.7819 89.246 98.6675 79.838Z" fill="#E1D4FF" stroke="#8B6CD9" stroke-width="3.04167"/>
<path d="M74.1353 77.4023C75.0263 75.8039 75.4717 75.0049 76.1379 75.0049C76.804 75.0049 77.2494 75.8039 78.1404 77.4023L78.3709 77.8158C78.6238 78.27 78.7505 78.497 78.9479 78.6468C79.1453 78.7966 79.391 78.8524 79.8827 78.9635L80.3303 79.0648C82.0604 79.4564 82.9255 79.6519 83.1314 80.3138C83.3372 80.9757 82.7473 81.6652 81.568 83.0446L81.2627 83.4014C80.9277 83.7932 80.76 83.9892 80.6845 84.2317C80.6093 84.4741 80.6346 84.7355 80.6852 85.2586L80.7314 85.7346C80.9096 87.5749 80.9989 88.4949 80.4602 88.904C79.9211 89.3129 79.1113 88.9401 77.4914 88.1943L77.0724 88.0013C76.6119 87.7894 76.3819 87.6834 76.1379 87.6834C75.8938 87.6834 75.6638 87.7894 75.2033 88.0013L74.7843 88.1943C73.1644 88.9401 72.3546 89.3129 71.8155 88.904C71.2768 88.4949 71.366 87.5749 71.5443 85.7346L71.5905 85.2586C71.6411 84.7355 71.6664 84.4741 71.5912 84.2317C71.5157 83.9892 71.3481 83.7932 71.0129 83.4014L70.7078 83.0446C69.5283 81.6652 68.9386 80.9757 69.1444 80.3138C69.3502 79.6519 70.2153 79.4564 71.9454 79.0648L72.393 78.9635C72.8847 78.8524 73.1304 78.7966 73.3278 78.6468C73.5252 78.497 73.6519 78.27 73.9048 77.8158L74.1353 77.4023Z" fill="#F3EEFF" stroke="#8B6CD9" stroke-width="3.04167"/>
</svg>
