<svg width="152" height="153" viewBox="0 0 152 153" fill="none" xmlns="http://www.w3.org/2000/svg">
<circle cx="75.7717" cy="76.2854" r="75.7629" fill="#F3EEFF"/>
<g clip-path="url(#clip0_115_4460)">
<path d="M25.957 75.1495L54.3681 46.3596L56.2637 44.4655L58.9139 43.3291L63.4597 46.3596V52.4206L46.0342 70.2249H105.508L88.4614 52.4206L87.325 46.3596L89.9767 44.4655H95.6589L124.449 74.0131V78.9377L95.6589 108.106H89.9767L87.325 100.909L104.372 81.5894H46.0342L64.9749 100.909L62.3232 108.106H56.2637L27.0935 78.5589L25.957 75.1495Z" fill="#E1D4FF"/>
<path d="M24.8223 76.2857C24.8224 78.2409 25.5839 80.079 26.9662 81.4613L53.2513 107.746C54.634 109.129 56.4722 109.891 58.4271 109.89C60.3821 109.89 62.2204 109.129 63.603 107.746C64.9838 106.366 65.7443 104.528 65.7443 102.571C65.7444 100.614 64.9838 98.7757 63.6031 97.395L49.8132 83.6051L101.73 83.6053L87.94 97.3951C86.5592 98.7757 85.799 100.614 85.7988 102.571C85.7987 104.528 86.5592 106.366 87.9399 107.746C89.3225 109.129 91.1606 109.891 93.1156 109.891C95.0708 109.89 96.9091 109.129 98.2917 107.746L124.577 81.4613C125.959 80.0788 126.721 78.2406 126.721 76.2854C126.721 74.3302 125.959 72.4921 124.577 71.1098L98.2917 44.8247C96.909 43.442 95.0708 42.6804 93.116 42.6808C91.1609 42.6809 89.3226 43.4423 87.9401 44.8248C86.5593 46.2054 85.7988 48.0434 85.7988 50.0005C85.7987 51.9574 86.5593 53.7955 87.94 55.1762L101.73 68.9658L49.8131 68.9658L63.6028 55.176C64.9836 53.7954 65.7438 51.9573 65.744 50.0003C65.7441 48.0433 64.9836 46.2053 63.6029 44.8246C62.2202 43.442 60.3821 42.6806 58.4271 42.6804C56.4722 42.6807 54.6339 43.4421 53.2513 44.8247L26.9662 71.1098C25.5837 72.4923 24.8223 74.3305 24.8223 76.2857ZM55.4021 46.9751C56.2103 46.1669 57.2847 45.7217 58.4272 45.7218C59.5698 45.7219 60.6442 46.167 61.4524 46.9751C62.2586 47.7813 62.7028 48.8556 62.7028 50.0002C62.7027 51.1446 62.2586 52.219 61.4524 53.0252L45.0666 69.4112C44.6316 69.8462 44.5017 70.5003 44.7369 71.0685C44.9721 71.6369 45.5269 72.0073 46.1418 72.0073L105.401 72.0071C106.016 72.0071 106.571 71.6365 106.806 71.0685C107.041 70.5003 106.911 69.8462 106.476 69.4112L90.0904 53.0254C89.2841 52.2192 88.8399 51.1448 88.84 50.0004C88.8399 48.8559 89.284 47.7817 90.0904 46.9753C90.8986 46.1671 91.973 45.7219 93.1155 45.7221C94.2581 45.7222 95.3325 46.1672 96.1407 46.9753L122.426 73.2606C123.234 74.0686 123.679 75.1429 123.679 76.2857C123.679 77.4284 123.234 78.5027 122.426 79.3107L96.141 105.596C95.3328 106.404 94.2585 106.849 93.1158 106.849C91.9732 106.849 90.8988 106.404 90.0907 105.596C89.2844 104.79 88.8404 103.715 88.8402 102.571C88.8403 101.426 89.2844 100.352 90.0906 99.5457L106.476 83.1598C106.911 82.7248 107.041 82.0707 106.806 81.5025C106.571 80.9341 106.016 80.5638 105.401 80.5637L46.1417 80.5639C45.5268 80.5639 44.972 80.9344 44.7368 81.5025C44.5016 82.0707 44.6315 82.7248 45.0665 83.1598L61.4523 99.5456C62.2585 100.352 62.7028 101.426 62.7027 102.571C62.7028 103.715 62.2586 104.789 61.4523 105.596C60.644 106.404 59.5698 106.849 58.4271 106.849C57.2845 106.849 56.2101 106.404 55.402 105.596L29.1169 79.3106C28.3089 78.5026 27.8638 77.4283 27.8637 76.2855C27.8638 75.1428 28.3089 74.0685 29.1169 73.2605L55.4021 46.9751Z" fill="#8B6CD9"/>
</g>
<defs>
<clipPath id="clip0_115_4460">
<rect width="76.3407" height="76.3407" fill="white" transform="translate(75.7715 130.267) rotate(-135)"/>
</clipPath>
</defs>
</svg>
