<svg width="200" height="200" viewBox="0 0 200 200" fill="none" xmlns="http://www.w3.org/2000/svg">
<circle cx="100" cy="100" r="100" fill="#F3EEFF"/>
<path d="M53.6953 52.3585C53.6953 58.0148 59.8183 61.55 64.7167 58.7218C66.9901 57.4093 68.3905 54.9836 68.3905 52.3585C68.3905 46.7024 62.2676 43.1672 57.3691 45.9954C55.0958 47.3079 53.6953 49.7336 53.6953 52.3585Z" fill="#E1D4FF"/>
<path d="M145.395 80.1942C145.395 85.8505 151.518 89.3857 156.416 86.5576C158.689 85.245 160.09 82.8193 160.09 80.1942C160.09 74.538 153.967 71.003 149.068 73.8311C146.795 75.1436 145.395 77.5691 145.395 80.1942Z" fill="#E1D4FF"/>
<path d="M81.7188 130.854C81.7188 136.51 87.8417 140.046 92.7402 137.217C95.0135 135.905 96.414 133.479 96.414 130.854C96.414 125.198 90.291 121.663 85.3926 124.491C83.1192 125.804 81.7188 128.229 81.7188 130.854Z" fill="#E1D4FF"/>
<path d="M51.4963 73.5119C53.7389 71.5365 56.5923 70.392 59.5782 70.2698L60.2838 70.2409C64.4505 70.0704 68.5078 71.5979 71.5274 74.4736C73.1807 76.048 74.2822 78.1131 74.669 80.3632L75.7493 86.6459L46.1602 86.6269L46.7046 82.4973C47.1628 79.0213 48.8654 75.8291 51.4963 73.5119Z" fill="#E1D4FF"/>
<path d="M142.375 102.214L143.829 100.933C145.763 99.2296 148.223 98.2428 150.798 98.1376L152.452 98.0699C156.419 97.9075 160.282 99.3619 163.157 102.1C164.957 103.814 166.156 106.063 166.577 108.512L167.605 114.487L138.016 114.468L138.73 109.049C139.079 106.405 140.374 103.976 142.375 102.214Z" fill="#E1D4FF"/>
<path d="M80.9711 150.849C82.3636 149.623 84.1349 148.913 85.9883 148.837L87.0964 148.791C92.1245 148.586 97.0209 150.429 100.665 153.899C101.684 154.869 102.362 156.142 102.601 157.528L103.91 165.141L74.3203 165.122L74.6361 162.728C75.242 158.133 77.4926 153.913 80.9711 150.849Z" fill="#E1D4FF"/>
<path d="M53.6953 52.3585C53.6953 58.0148 59.8183 61.55 64.7167 58.7218C66.9901 57.4093 68.3905 54.9836 68.3905 52.3585C68.3905 46.7024 62.2676 43.1672 57.3691 45.9954C55.0958 47.3079 53.6953 49.7336 53.6953 52.3585Z" stroke="#8B6CD9" stroke-width="4" stroke-miterlimit="10"/>
<path d="M46.3477 84.1983C46.3477 84.1983 48.7968 73.6393 53.6953 71.19C58.5937 68.7406 63.492 68.7408 68.3905 71.19C73.2889 73.6391 75.7381 84.1983 75.7381 84.1983" stroke="#8B6CD9" stroke-width="4" stroke-linecap="round" stroke-linejoin="round"/>
<path d="M145.397 80.1942C145.397 85.8505 151.521 89.3857 156.419 86.5576C158.692 85.245 160.093 82.8193 160.093 80.1942C160.093 74.538 153.97 71.003 149.071 73.8311C146.798 75.1436 145.397 77.5691 145.397 80.1942Z" stroke="#8B6CD9" stroke-width="4" stroke-miterlimit="10"/>
<path d="M138.05 112.034C138.05 112.034 140.499 101.475 145.397 99.0259C150.296 96.5767 155.194 96.5766 160.093 99.0259C164.991 101.475 167.44 112.034 167.44 112.034" stroke="#8B6CD9" stroke-width="4" stroke-linecap="round" stroke-linejoin="round"/>
<path d="M81.7207 130.854C81.7207 136.51 87.8436 140.046 92.7421 137.217C95.0155 135.905 96.4159 133.479 96.4159 130.854C96.4159 125.198 90.293 121.663 85.3945 124.491C83.1211 125.804 81.7207 128.229 81.7207 130.854Z" stroke="#8B6CD9" stroke-width="4" stroke-miterlimit="10"/>
<path d="M74.373 162.694C74.373 162.694 76.8224 152.135 81.7208 149.685C86.6193 147.236 91.5176 147.236 96.416 149.685C101.315 152.135 103.764 162.694 103.764 162.694" stroke="#8B6CD9" stroke-width="4" stroke-linecap="round" stroke-linejoin="round"/>
<path d="M144.321 65.0383C133.987 52.8491 118.563 45.1125 101.332 45.1125C94.5493 45.1125 88.0467 46.311 82.0244 48.5082" stroke="#8B6CD9" stroke-width="4" stroke-linecap="round" stroke-linejoin="round"/>
<path d="M112.19 156.731C132.304 152.803 148.589 138.172 154.872 119.009" stroke="#8B6CD9" stroke-width="4" stroke-linecap="round" stroke-linejoin="round"/>
<path d="M45.2126 96.5176C45.0718 98.1413 45 99.7844 45 101.445C45 120.975 54.9395 138.185 70.0363 148.29" stroke="#8B6CD9" stroke-width="4" stroke-linecap="round" stroke-linejoin="round"/>
<g clip-path="url(#clip0_109_2280)">
<path d="M94.8379 87.9658H116.635V90.1132H94.8379V87.9658Z" fill="#F3EEFF"/>
<path d="M100.299 99.7991L98.0406 102.016L96.5279 101.398L88.7345 108.577C88.4939 108.151 88.3428 107.587 88.3428 106.983V88.7659L100.299 99.7991Z" fill="#F3EEFF"/>
<path d="M122.66 88.7314V106.982C122.66 107.573 122.522 108.116 122.282 108.542L114.421 101.345L113.374 101.48L110.988 99.5511L113.719 96.9773L122.66 88.7314Z" fill="#F3EEFF"/>
<path d="M99.2822 98.8602L102.354 101.698C102.519 101.849 102.684 101.98 102.849 102.09C104.518 103.327 106.463 103.327 108.126 102.083C108.284 101.973 108.449 101.836 108.6 101.698L111.692 98.8464" fill="#F3EEFF"/>
<path d="M99.2823 98.8602L102.354 101.698C102.519 101.849 102.684 101.98 102.849 102.09C104.519 103.327 106.463 103.327 108.126 102.083C108.284 101.973 108.449 101.836 108.6 101.698L111.692 98.8464L122.282 108.542C121.993 109.071 121.546 109.415 121.052 109.415H89.9507C89.4696 109.415 89.0298 109.092 88.7344 108.577L99.2823 98.8602Z" fill="#F3EEFF" stroke="#F3EEFF" stroke-linecap="round" stroke-linejoin="round"/>
<path d="M113.798 100.775L122.282 108.542C121.993 109.071 121.546 109.415 121.052 109.415H89.9507C89.4696 109.415 89.0298 109.092 88.7344 108.577L97.0341 100.931" fill="#F3EEFF"/>
<path d="M114.982 87.969H121.482C121.888 87.969 122.279 88.2095 122.561 88.5943C122.595 88.6356 122.63 88.6836 122.657 88.7317L111.69 98.8467L108.598 101.698C108.447 101.836 108.282 101.973 108.124 102.083C106.461 103.327 104.516 103.327 102.846 102.09C102.681 101.98 102.516 101.85 102.352 101.698L99.2799 98.8605L88.3403 88.7661C88.3678 88.7249 88.4022 88.6768 88.4365 88.6287C88.7251 88.2164 89.1168 87.969 89.5429 87.969H95.37" fill="#F3EEFF"/>
<path d="M96.5279 101.398L88.7345 108.577C88.4939 108.151 88.3428 107.587 88.3428 106.983V88.7659L100.299 99.7991" stroke="#8B6CD9" stroke-width="3" stroke-linecap="round" stroke-linejoin="round"/>
<path d="M110.988 99.5511L113.719 96.9773L122.66 88.7314V106.982C122.66 107.573 122.522 108.116 122.282 108.542L114.421 101.345" stroke="#8B6CD9" stroke-width="3" stroke-linecap="round" stroke-linejoin="round"/>
<path d="M99.2822 98.8602L102.354 101.698C102.519 101.849 102.684 101.98 102.849 102.09C104.518 103.327 106.463 103.327 108.126 102.083C108.284 101.973 108.449 101.836 108.6 101.698L111.692 98.8464" stroke="#8B6CD9" stroke-width="3" stroke-linecap="round" stroke-linejoin="round"/>
<path d="M113.798 100.775L122.282 108.542C121.993 109.071 121.546 109.415 121.052 109.415H89.9507C89.4696 109.415 89.0298 109.092 88.7344 108.577L97.0341 100.931" stroke="#8B6CD9" stroke-width="3" stroke-linecap="round" stroke-linejoin="round"/>
<path d="M114.46 87.9688H121.482C121.888 87.9688 122.279 88.2092 122.561 88.5941C122.595 88.6353 122.63 88.6834 122.657 88.7315L111.69 98.8465L108.598 101.698C108.447 101.836 108.282 101.973 108.124 102.083C106.461 103.327 104.516 103.327 102.846 102.09C102.681 101.98 102.516 101.849 102.352 101.698L99.2799 98.8603L88.3403 88.7659C88.3678 88.7247 88.4022 88.6765 88.4365 88.6284C88.7251 88.2161 89.1168 87.9688 89.5429 87.9688H114.46Z" stroke="#8B6CD9" stroke-width="3" stroke-linecap="round" stroke-linejoin="round"/>
</g>
<defs>
<clipPath id="clip0_109_2280">
<rect width="37" height="37" fill="white" transform="translate(87 78)"/>
</clipPath>
</defs>
</svg>
