<svg width="200" height="200" viewBox="0 0 200 200" fill="none" xmlns="http://www.w3.org/2000/svg">
<path d="M56.5825 115.356H105.478V120.173H56.5825V115.356Z" fill="#E1D4FF"/>
<path d="M68.8328 141.901L63.7663 146.874L60.3729 145.487L42.8904 161.591C42.3508 160.635 42.0117 159.371 42.0117 158.015V117.15L68.8328 141.901Z" fill="#E1D4FF"/>
<path d="M118.993 117.073V158.015C118.993 159.34 118.684 160.558 118.145 161.514L100.512 145.368L98.1638 145.672L92.8101 141.344L98.9371 135.571L118.993 117.073Z" fill="#AC8EF5"/>
<path d="M66.5522 139.795L73.4427 146.161C73.8126 146.5 74.1825 146.793 74.5525 147.039C78.2984 149.814 82.6606 149.814 86.3911 147.024C86.7456 146.777 87.1156 146.469 87.4547 146.161L94.3913 139.764" fill="#E1D4FF"/>
<path d="M66.5521 139.795L73.4425 146.161C73.8124 146.5 74.1824 146.793 74.5523 147.039C78.2983 149.814 82.6604 149.814 86.391 147.024C86.7455 146.777 87.1154 146.469 87.4546 146.161L94.3912 139.764L118.145 161.514C117.498 162.701 116.496 163.472 115.386 163.472H45.6191C44.54 163.472 43.5534 162.747 42.8906 161.591L66.5521 139.795Z" fill="#E1D4FF" stroke="#E1D4FF" stroke-linecap="round" stroke-linejoin="round"/>
<path d="M99.115 144.089L118.145 161.514C117.498 162.701 116.496 163.471 115.386 163.471H45.6191C44.54 163.471 43.5534 162.747 42.8906 161.591L61.5088 144.44" fill="#E1D4FF"/>
<path d="M101.77 115.362H116.352C117.261 115.362 118.14 115.902 118.772 116.765C118.849 116.857 118.926 116.965 118.988 117.073L94.386 139.763L87.4494 146.161C87.1102 146.469 86.7403 146.777 86.3858 147.024C82.6554 149.814 78.293 149.814 74.5473 147.039C74.1773 146.793 73.8074 146.5 73.4375 146.161L66.5471 139.794L42.0068 117.15C42.0685 117.058 42.1456 116.95 42.2227 116.842C42.8701 115.917 43.7487 115.362 44.7044 115.362H57.7761" fill="#E1D4FF"/>
<path d="M60.3729 145.486L42.8904 161.591C42.3508 160.635 42.0117 159.371 42.0117 158.015V117.15L68.8328 141.9" stroke="#8B6CD9" stroke-width="2" stroke-linecap="round" stroke-linejoin="round"/>
<path d="M92.8101 141.344L98.9371 135.57L118.993 117.073V158.014C118.993 159.34 118.684 160.558 118.145 161.514L100.512 145.368" stroke="#8B6CD9" stroke-width="2" stroke-linecap="round" stroke-linejoin="round"/>
<path d="M66.5522 139.794L73.4427 146.161C73.8126 146.5 74.1825 146.793 74.5525 147.039C78.2984 149.814 82.6606 149.814 86.3911 147.024C86.7456 146.777 87.1156 146.469 87.4547 146.161L94.3913 139.763" stroke="#8B6CD9" stroke-width="2" stroke-linecap="round" stroke-linejoin="round"/>
<path d="M99.115 144.089L118.145 161.514C117.498 162.701 116.496 163.471 115.386 163.471H45.6191C44.54 163.471 43.5534 162.747 42.8906 161.591L61.5088 144.44" stroke="#8B6CD9" stroke-width="2" stroke-linecap="round" stroke-linejoin="round"/>
<path d="M100.599 115.362H116.352C117.261 115.362 118.14 115.902 118.772 116.765C118.849 116.857 118.926 116.965 118.988 117.073L94.386 139.763L87.4494 146.161C87.1102 146.469 86.7403 146.777 86.3858 147.024C82.6554 149.814 78.293 149.814 74.5473 147.039C74.1773 146.793 73.8074 146.5 73.4375 146.161L66.5471 139.794L42.0068 117.15C42.0685 117.058 42.1456 116.95 42.2227 116.842C42.8701 115.917 43.7487 115.362 44.7044 115.362H100.599Z" stroke="#8B6CD9" stroke-width="2" stroke-linecap="round" stroke-linejoin="round"/>
<path d="M79.4582 53.7506C77.5519 53.7506 71.3345 53.3212 71.3345 47.7933C71.3345 42.2654 77.5519 41.8359 79.4582 41.8359C88.6651 41.8359 88.6651 46.1637 88.6651 47.7933C88.6651 50.7116 91.8243 52.5356 94.3516 51.0764C95.5246 50.3992 96.2471 49.1477 96.2471 47.7933C96.2471 40.5578 91.6648 35.8244 83.7908 34.5878V31.5459C83.7908 28.2106 80.1803 26.1261 77.2919 27.7937C75.9513 28.5677 75.1256 29.9979 75.1256 31.5459V34.691C68.1807 36.1161 63.7524 41.0178 63.7524 47.7933C63.7524 55.8916 70.0641 61.3327 79.4582 61.3327C82.6427 61.3327 88.6651 62.5777 88.6651 67.2901C88.6651 72.0025 82.6427 73.2474 79.4582 73.2474C77.5519 73.2474 71.3345 72.818 71.3345 67.2901C71.3345 64.3717 68.1753 62.5478 65.648 64.0069C64.475 64.6842 63.7524 65.9357 63.7524 67.2901C63.7524 74.0656 68.1807 78.9671 75.1256 80.3923V82.4543C75.1256 85.7896 78.7361 87.8741 81.6245 86.2065C82.9651 85.4325 83.7908 84.0022 83.7908 82.4543V80.3974C90.491 79.067 96.2471 74.6262 96.2471 67.2901C96.2471 58.4016 87.8008 53.7506 79.4582 53.7506Z" fill="#AC8EF5"/>
<path d="M79.4582 53.7506C77.5519 53.7506 71.3345 53.3212 71.3345 47.7933C71.3345 42.2654 77.5519 41.8359 79.4582 41.8359C88.6651 41.8359 88.6651 46.1637 88.6651 47.7933C88.6651 50.7116 91.8243 52.5356 94.3516 51.0764C95.5246 50.3992 96.2471 49.1477 96.2471 47.7933C96.2471 40.5578 91.6648 35.8244 83.7908 34.5878V31.5459C83.7908 28.2106 80.1803 26.1261 77.2919 27.7937C75.9513 28.5677 75.1256 29.9979 75.1256 31.5459V34.691C68.1807 36.1161 63.7524 41.0178 63.7524 47.7933C63.7524 55.8916 70.0641 61.3327 79.4582 61.3327C82.6427 61.3327 88.6651 62.5777 88.6651 67.2901C88.6651 72.0025 82.6427 73.2474 79.4582 73.2474C77.5519 73.2474 71.3345 72.818 71.3345 67.2901C71.3345 64.3717 68.1753 62.5478 65.648 64.0069C64.475 64.6842 63.7524 65.9357 63.7524 67.2901C63.7524 74.0656 68.1807 78.9671 75.1256 80.3923V82.4543C75.1256 85.7896 78.7361 87.8741 81.6245 86.2065C82.9651 85.4325 83.7908 84.0022 83.7908 82.4543V80.3974C90.491 79.067 96.2471 74.6262 96.2471 67.2901C96.2471 58.4016 87.8008 53.7506 79.4582 53.7506Z" stroke="#8B6CD9" stroke-width="2" stroke-miterlimit="10"/>
<path d="M81.0607 104.792C80.4749 104.206 79.5251 104.206 78.9393 104.792L69.3934 114.338C68.8076 114.924 68.8076 115.873 69.3934 116.459C69.9792 117.045 70.9289 117.045 71.5147 116.459L80 107.974L88.4853 116.459C89.0711 117.045 90.0208 117.045 90.6066 116.459C91.1924 115.873 91.1924 114.924 90.6066 114.338L81.0607 104.792ZM81.5 140.281L81.5 105.853L78.5 105.853L78.5 140.281L81.5 140.281Z" fill="#8B6CD9"/>
<circle cx="100" cy="100" r="100" fill="#F3EEFF"/>
<path d="M91.5825 62.3557H140.478V67.1728H91.5825V62.3557Z" fill="#E1D4FF"/>
<path d="M103.833 88.9005L98.7663 93.8739L95.3729 92.4866L77.8904 108.591C77.3508 107.635 77.0117 106.371 77.0117 105.015V64.1504L103.833 88.9005Z" fill="#E1D4FF"/>
<path d="M153.993 64.0732V105.015C153.993 106.34 153.684 107.558 153.145 108.514L135.512 92.3681L133.164 92.6716L127.81 88.3444L133.937 82.5706L153.993 64.0732Z" fill="#E1D4FF"/>
<path d="M101.552 86.7945L108.443 93.1608C108.813 93.5 109.183 93.7929 109.552 94.0394C113.298 96.8141 117.661 96.8141 121.391 94.024C121.746 93.7774 122.116 93.4691 122.455 93.1608L129.391 86.7637" fill="#E1D4FF"/>
<path d="M101.552 86.7945L108.442 93.1608C108.812 93.5 109.182 93.7929 109.552 94.0394C113.298 96.8141 117.66 96.8141 121.391 94.024C121.745 93.7774 122.115 93.4691 122.455 93.1608L129.391 86.7637L153.145 108.514C152.498 109.701 151.496 110.472 150.386 110.472H80.6191C79.54 110.472 78.5534 109.747 77.8906 108.591L101.552 86.7945Z" fill="#E1D4FF" stroke="#E1D4FF" stroke-linecap="round" stroke-linejoin="round"/>
<path d="M134.115 91.0889L153.145 108.514C152.498 109.701 151.496 110.471 150.386 110.471H80.6191C79.54 110.471 78.5534 109.747 77.8906 108.591L96.5088 91.4403" fill="#E1D4FF"/>
<path d="M136.77 62.3621H151.352C152.261 62.3621 153.14 62.9015 153.772 63.7649C153.849 63.8573 153.926 63.9651 153.988 64.0731L129.386 86.7635L122.449 93.1606C122.11 93.4689 121.74 93.7773 121.386 94.0238C117.655 96.8139 113.293 96.8139 109.547 94.0393C109.177 93.7927 108.807 93.4998 108.437 93.1606L101.547 86.7944L77.0068 64.1502C77.0685 64.0577 77.1456 63.9498 77.2227 63.8419C77.8701 62.917 78.7487 62.3621 79.7044 62.3621H92.7761" fill="#E1D4FF"/>
<path d="M95.3729 92.4865L77.8904 108.591C77.3508 107.635 77.0117 106.371 77.0117 105.015V64.1501L103.833 88.9004" stroke="#8B6CD9" stroke-width="4" stroke-linecap="round" stroke-linejoin="round"/>
<path d="M127.81 88.344L133.937 82.5704L153.993 64.073V105.014C153.993 106.34 153.684 107.558 153.145 108.514L135.512 92.3678" stroke="#8B6CD9" stroke-width="4" stroke-linecap="round" stroke-linejoin="round"/>
<path d="M101.552 86.7943L108.443 93.1606C108.813 93.4997 109.183 93.7926 109.552 94.0392C113.298 96.8138 117.661 96.8138 121.391 94.0238C121.746 93.7772 122.116 93.4689 122.455 93.1606L129.391 86.7634" stroke="#8B6CD9" stroke-width="2" stroke-linecap="round" stroke-linejoin="round"/>
<path d="M134.115 91.0889L153.145 108.514C152.498 109.701 151.496 110.471 150.386 110.471H80.6191C79.54 110.471 78.5534 109.747 77.8906 108.591L96.5088 91.4403" stroke="#8B6CD9" stroke-width="4" stroke-linecap="round" stroke-linejoin="round"/>
<path d="M135.599 62.3621H151.352C152.261 62.3621 153.14 62.9015 153.772 63.7649C153.849 63.8573 153.926 63.9651 153.988 64.0731L129.386 86.7635L122.449 93.1606C122.11 93.4689 121.74 93.7773 121.386 94.0238C117.655 96.8139 113.293 96.8139 109.547 94.0393C109.177 93.7927 108.807 93.4998 108.437 93.1606L101.547 86.7944L77.0068 64.1502C77.0685 64.0577 77.1456 63.9498 77.2227 63.8419C77.8701 62.917 78.7487 62.3621 79.7044 62.3621H135.599Z" stroke="#8B6CD9" stroke-width="4" stroke-linecap="round" stroke-linejoin="round"/>
<path d="M61.5825 98.3557H110.478V103.173H61.5825V98.3557Z" fill="#F3EEFF"/>
<path d="M73.8328 124.901L68.7663 129.874L65.3729 128.487L47.8904 144.591C47.3508 143.635 47.0117 142.371 47.0117 141.015V100.15L73.8328 124.901Z" fill="#F3EEFF"/>
<path d="M123.993 100.073V141.015C123.993 142.34 123.684 143.558 123.145 144.514L105.512 128.368L103.164 128.672L97.8101 124.344L103.937 118.571L123.993 100.073Z" fill="#F3EEFF"/>
<path d="M71.5522 122.795L78.4427 129.161C78.8126 129.5 79.1825 129.793 79.5525 130.039C83.2984 132.814 87.6606 132.814 91.3911 130.024C91.7456 129.777 92.1156 129.469 92.4547 129.161L99.3913 122.764" fill="#F3EEFF"/>
<path d="M71.5521 122.795L78.4425 129.161C78.8124 129.5 79.1824 129.793 79.5523 130.039C83.2983 132.814 87.6604 132.814 91.391 130.024C91.7455 129.777 92.1154 129.469 92.4546 129.161L99.3912 122.764L123.145 144.514C122.498 145.701 121.496 146.472 120.386 146.472H50.6191C49.54 146.472 48.5534 145.747 47.8906 144.591L71.5521 122.795Z" fill="#F3EEFF" stroke="#F3EEFF" stroke-linecap="round" stroke-linejoin="round"/>
<path d="M104.115 127.089L123.145 144.514C122.498 145.701 121.496 146.471 120.386 146.471H50.6191C49.54 146.471 48.5534 145.747 47.8906 144.591L66.5088 127.44" fill="#F3EEFF"/>
<path d="M106.77 98.3621H121.352C122.261 98.3621 123.14 98.9015 123.772 99.7649C123.849 99.8573 123.926 99.9651 123.988 100.073L99.386 122.763L92.4494 129.161C92.1102 129.469 91.7403 129.777 91.3858 130.024C87.6554 132.814 83.293 132.814 79.5473 130.039C79.1773 129.793 78.8074 129.5 78.4375 129.161L71.5471 122.794L47.0068 100.15C47.0685 100.058 47.1456 99.9498 47.2227 99.8419C47.8701 98.917 48.7487 98.3621 49.7044 98.3621H62.7761" fill="#F3EEFF"/>
<path d="M65.3729 128.486L47.8904 144.591C47.3508 143.635 47.0117 142.371 47.0117 141.015V100.15L73.8328 124.9" stroke="#8B6CD9" stroke-width="4" stroke-linecap="round" stroke-linejoin="round"/>
<path d="M97.8101 124.344L103.937 118.57L123.993 100.073V141.014C123.993 142.34 123.684 143.558 123.145 144.514L105.512 128.368" stroke="#8B6CD9" stroke-width="4" stroke-linecap="round" stroke-linejoin="round"/>
<path d="M71.5522 122.794L78.4427 129.161C78.8126 129.5 79.1825 129.793 79.5525 130.039C83.2984 132.814 87.6606 132.814 91.3911 130.024C91.7456 129.777 92.1156 129.469 92.4547 129.161L99.3913 122.763" stroke="#8B6CD9" stroke-width="2" stroke-linecap="round" stroke-linejoin="round"/>
<path d="M104.115 127.089L123.145 144.514C122.498 145.701 121.496 146.471 120.386 146.471H50.6191C49.54 146.471 48.5534 145.747 47.8906 144.591L66.5088 127.44" stroke="#8B6CD9" stroke-width="4" stroke-linecap="round" stroke-linejoin="round"/>
<path d="M105.599 98.3621H121.352C122.261 98.3621 123.14 98.9015 123.772 99.7649C123.849 99.8573 123.926 99.9651 123.988 100.073L99.386 122.763L92.4494 129.161C92.1102 129.469 91.7403 129.777 91.3858 130.024C87.6554 132.814 83.293 132.814 79.5473 130.039C79.1773 129.793 78.8074 129.5 78.4375 129.161L71.5471 122.794L47.0068 100.15C47.0685 100.058 47.1456 99.9498 47.2227 99.8419C47.8701 98.917 48.7487 98.3621 49.7044 98.3621H105.599Z" stroke="#8B6CD9" stroke-width="4" stroke-linecap="round" stroke-linejoin="round"/>
</svg>
