<svg width="200" height="200" viewBox="0 0 200 200" fill="none" xmlns="http://www.w3.org/2000/svg">
<path d="M28.0607 104.792C27.4749 104.206 26.5251 104.206 25.9393 104.792L16.3934 114.338C15.8076 114.924 15.8076 115.873 16.3934 116.459C16.9792 117.045 17.9289 117.045 18.5147 116.459L27 107.974L35.4853 116.459C36.0711 117.045 37.0208 117.045 37.6066 116.459C38.1924 115.873 38.1924 114.924 37.6066 114.338L28.0607 104.792ZM28.5 140.281L28.5 105.853L25.5 105.853L25.5 140.281L28.5 140.281Z" fill="#353535"/>
<circle cx="100" cy="100" r="100" fill="#F3EEFF"/>
<path d="M76.5825 115.356H125.478V120.173H76.5825V115.356Z" fill="#E1D4FF"/>
<path d="M88.8328 141.901L83.7663 146.874L80.3729 145.487L62.8904 161.591C62.3508 160.635 62.0117 159.371 62.0117 158.015V117.15L88.8328 141.901Z" fill="#E1D4FF"/>
<path d="M138.993 117.073V158.015C138.993 159.34 138.684 160.558 138.145 161.514L120.512 145.368L118.164 145.672L112.81 141.344L118.937 135.571L138.993 117.073Z" fill="#E1D4FF"/>
<path d="M86.5522 139.795L93.4427 146.161C93.8126 146.5 94.1825 146.793 94.5525 147.039C98.2984 149.814 102.661 149.814 106.391 147.024C106.746 146.777 107.116 146.469 107.455 146.161L114.391 139.764" fill="#E1D4FF"/>
<path d="M86.5521 139.795L93.4425 146.161C93.8124 146.5 94.1824 146.793 94.5523 147.039C98.2983 149.814 102.66 149.814 106.391 147.024C106.745 146.777 107.115 146.469 107.455 146.161L114.391 139.764L138.145 161.514C137.498 162.701 136.496 163.472 135.386 163.472H65.6191C64.54 163.472 63.5534 162.747 62.8906 161.591L86.5521 139.795Z" fill="#E1D4FF" stroke="#E1D4FF" stroke-linecap="round" stroke-linejoin="round"/>
<path d="M119.115 144.089L138.145 161.514C137.498 162.701 136.496 163.471 135.386 163.471H65.6191C64.54 163.471 63.5534 162.747 62.8906 161.591L81.5088 144.44" fill="#E1D4FF"/>
<path d="M121.77 115.362H136.352C137.261 115.362 138.14 115.902 138.772 116.765C138.849 116.857 138.926 116.965 138.988 117.073L114.386 139.763L107.449 146.161C107.11 146.469 106.74 146.777 106.386 147.024C102.655 149.814 98.293 149.814 94.5473 147.039C94.1773 146.793 93.8074 146.5 93.4375 146.161L86.5471 139.794L62.0068 117.15C62.0685 117.058 62.1456 116.95 62.2227 116.842C62.8701 115.917 63.7487 115.362 64.7044 115.362H77.7761" fill="#E1D4FF"/>
<path d="M80.3729 145.486L62.8904 161.591C62.3508 160.635 62.0117 159.371 62.0117 158.015V117.15L88.8328 141.9" stroke="#8B6CD9" stroke-width="4" stroke-linecap="round" stroke-linejoin="round"/>
<path d="M112.81 141.344L118.937 135.57L138.993 117.073V158.014C138.993 159.34 138.684 160.558 138.145 161.514L120.512 145.368" stroke="#8B6CD9" stroke-width="4" stroke-linecap="round" stroke-linejoin="round"/>
<path d="M86.5522 139.794L93.4427 146.161C93.8126 146.5 94.1825 146.793 94.5525 147.039C98.2984 149.814 102.661 149.814 106.391 147.024C106.746 146.777 107.116 146.469 107.455 146.161L114.391 139.763" stroke="#8B6CD9" stroke-width="2" stroke-linecap="round" stroke-linejoin="round"/>
<path d="M119.115 144.089L138.145 161.514C137.498 162.701 136.496 163.471 135.386 163.471H65.6191C64.54 163.471 63.5534 162.747 62.8906 161.591L81.5088 144.44" stroke="#8B6CD9" stroke-width="4" stroke-linecap="round" stroke-linejoin="round"/>
<path d="M120.599 115.362H136.352C137.261 115.362 138.14 115.902 138.772 116.765C138.849 116.857 138.926 116.965 138.988 117.073L114.386 139.763L107.449 146.161C107.11 146.469 106.74 146.777 106.386 147.024C102.655 149.814 98.293 149.814 94.5473 147.039C94.1773 146.793 93.8074 146.5 93.4375 146.161L86.5471 139.794L62.0068 117.15C62.0685 117.058 62.1456 116.95 62.2227 116.842C62.8701 115.917 63.7487 115.362 64.7044 115.362H120.599Z" stroke="#8B6CD9" stroke-width="4" stroke-linecap="round" stroke-linejoin="round"/>
<path d="M99.4582 53.7506C97.5519 53.7506 91.3345 53.3212 91.3345 47.7933C91.3345 42.2654 97.5519 41.8359 99.4582 41.8359C108.665 41.8359 108.665 46.1637 108.665 47.7933C108.665 50.7116 111.824 52.5356 114.352 51.0764C115.525 50.3992 116.247 49.1477 116.247 47.7933C116.247 40.5578 111.665 35.8244 103.791 34.5878V31.5459C103.791 28.2106 100.18 26.1261 97.2919 27.7937C95.9513 28.5677 95.1256 29.9979 95.1256 31.5459V34.691C88.1807 36.1161 83.7524 41.0178 83.7524 47.7933C83.7524 55.8916 90.0641 61.3327 99.4582 61.3327C102.643 61.3327 108.665 62.5777 108.665 67.2901C108.665 72.0025 102.643 73.2474 99.4582 73.2474C97.5519 73.2474 91.3345 72.818 91.3345 67.2901C91.3345 64.3717 88.1753 62.5478 85.648 64.0069C84.475 64.6842 83.7524 65.9357 83.7524 67.2901C83.7524 74.0656 88.1807 78.9671 95.1256 80.3923V82.4543C95.1256 85.7896 98.7361 87.8741 101.624 86.2065C102.965 85.4325 103.791 84.0022 103.791 82.4543V80.3974C110.491 79.067 116.247 74.6262 116.247 67.2901C116.247 58.4016 107.801 53.7506 99.4582 53.7506Z" fill="#AC8EF5"/>
<path d="M99.4582 53.7506C97.5519 53.7506 91.3345 53.3212 91.3345 47.7933C91.3345 42.2654 97.5519 41.8359 99.4582 41.8359C108.665 41.8359 108.665 46.1637 108.665 47.7933C108.665 50.7116 111.824 52.5356 114.352 51.0764C115.525 50.3992 116.247 49.1477 116.247 47.7933C116.247 40.5578 111.665 35.8244 103.791 34.5878V31.5459C103.791 28.2106 100.18 26.1261 97.2919 27.7937C95.9513 28.5677 95.1256 29.9979 95.1256 31.5459V34.691C88.1807 36.1161 83.7524 41.0178 83.7524 47.7933C83.7524 55.8916 90.0641 61.3327 99.4582 61.3327C102.643 61.3327 108.665 62.5777 108.665 67.2901C108.665 72.0025 102.643 73.2474 99.4582 73.2474C97.5519 73.2474 91.3345 72.818 91.3345 67.2901C91.3345 64.3717 88.1753 62.5478 85.648 64.0069C84.475 64.6842 83.7524 65.9357 83.7524 67.2901C83.7524 74.0656 88.1807 78.9671 95.1256 80.3923V82.4543C95.1256 85.7896 98.7361 87.8741 101.624 86.2065C102.965 85.4325 103.791 84.0022 103.791 82.4543V80.3974C110.491 79.067 116.247 74.6262 116.247 67.2901C116.247 58.4016 107.801 53.7506 99.4582 53.7506Z" stroke="#8B6CD9" stroke-width="3" stroke-miterlimit="10"/>
<path d="M101.061 89.3679C100.475 88.7822 99.5251 88.7822 98.9393 89.3679L89.3934 98.9139C88.8076 99.4997 88.8076 100.449 89.3934 101.035C89.9792 101.621 90.9289 101.621 91.5147 101.035L100 92.5499L108.485 101.035C109.071 101.621 110.021 101.621 110.607 101.035C111.192 100.449 111.192 99.4997 110.607 98.9139L101.061 89.3679ZM101.5 124.857L101.5 90.4286L98.5 90.4286L98.5 124.857L101.5 124.857Z" fill="#8B6CD9"/>
</svg>
