<svg width="40" height="40" viewBox="0 0 40 40" fill="none" xmlns="http://www.w3.org/2000/svg">
<rect width="40" height="40" rx="8" fill="#E1D4FF"/>
<path d="M12.96 13.744H27.008V15.376H12.96V13.744ZM18.896 12.384H20.88V14.56H18.896V12.384ZM13.6 20.208H25.296V21.792H15.472V27.456H13.6V20.208ZM24.576 20.208H26.512V25.424C26.512 26.304 26.336 26.816 25.712 27.104C25.104 27.392 24.256 27.424 23.104 27.424C23.04 26.88 22.768 26.112 22.512 25.616C23.232 25.648 24.048 25.648 24.272 25.632C24.512 25.632 24.576 25.568 24.576 25.376V20.208ZM16.912 22.528H18.576V26.848H16.912V22.528ZM17.744 22.528H23.056V26.112H17.744V24.832H21.36V23.808H17.744V22.528ZM17.408 17.28V18.24H22.448V17.28H17.408ZM15.584 16H24.384V19.536H15.584V16Z" fill="#5D33C3"/>
</svg>
